M48
; DRILL file {KiCad 9.0.4} date 2025-09-24T19:41:08-0700
; FORMAT={-:-/ absolute / inch / decimal}
; #@! TF.CreationDate,2025-09-24T19:41:08-07:00
; #@! TF.GenerationSoftware,Kicad,Pcbnew,9.0.4
; #@! TF.FileFunction,Plated,1,6,PTH
FMAT,2
INCH
; #@! TA.AperFunction,Plated,PTH,ViaDrill
T1C0.0118
; #@! TA.AperFunction,Plated,PTH,ComponentDrill
T2C0.0315
; #@! TA.AperFunction,Plated,PTH,ComponentDrill
T3C0.0394
; #@! TA.AperFunction,Plated,PTH,ComponentDrill
T4C0.0551
%
G90
G05
T1
X2.7559Y-6.2205
X2.7874Y-5.8169
X2.9134Y-5.7087
X2.9528Y-6.2205
X2.9724Y-4.7244
X2.9724Y-5.1575
X3.0217Y-5.561
X3.1102Y-5.0197
X3.1102Y-5.1378
X3.1102Y-5.4331
X3.1102Y-5.6634
X3.1299Y-5.2756
X3.1496Y-5.0433
X3.1889Y-5.4036
X3.1929Y-5.7382
X3.2382Y-5.8661
X3.248Y-5.3642
X3.248Y-5.4528
X3.3661Y-5.6496
X3.3858Y-4.6063
X3.3858Y-4.7146
X3.3858Y-4.8268
X3.4054Y-5.4622
X3.4055Y-5.4035
X3.4154Y-6.2303
X3.4194Y-5.4905
X3.4252Y-5.0295
X3.4252Y-5.2854
X3.4393Y-5.0577
X3.4646Y-5.7579
X3.4744Y-4.8425
X3.5138Y-5.7579
X3.5146Y-5.4528
X3.5236Y-5.9055
X3.5315Y-4.8537
X3.5344Y-5.0599
X3.5433Y-4.6555
X3.5433Y-4.9902
X3.5433Y-5.2598
X3.5728Y-5.7677
X3.5925Y-5.4931
X3.6146Y-5.313
X3.6146Y-5.688
X3.6417Y-4.9114
X3.6417Y-5.374
X3.6447Y-5.1181
X3.6614Y-5.4232
X3.6811Y-5.2165
X3.6811Y-5.2953
X3.7034Y-5.9423
X3.7106Y-5.8563
X3.7205Y-5.0
X3.752Y-5.4921
X3.7627Y-5.8848
X3.7797Y-6.0148
X3.7835Y-5.0
X3.7835Y-5.7675
X3.7992Y-4.4567
X3.7992Y-4.4882
X3.8189Y-5.4035
X3.8287Y-4.8524
X3.8287Y-5.689
X3.8386Y-5.315
X3.8387Y-5.6591
X3.8484Y-5.8268
X3.8602Y-5.4921
X3.874Y-4.9764
X3.878Y-4.8189
X3.8976Y-5.5591
X3.9134Y-4.6378
X3.9173Y-5.6339
X3.9229Y-5.5866
X3.937Y-4.8819
X3.9469Y-5.8563
X3.9567Y-5.2224
X3.9567Y-5.315
X3.9764Y-5.0295
X3.9961Y-5.3228
X3.9961Y-5.4173
X3.9961Y-5.5118
X4.0138Y-5.6102
X4.0354Y-4.9803
X4.0551Y-5.2992
X4.0551Y-5.4724
X4.063Y-6.0236
X4.063Y-6.2205
X4.0748Y-5.2264
X4.0945Y-4.5276
X4.0945Y-4.628
X4.0945Y-4.7224
X4.0945Y-4.8169
X4.0945Y-4.9114
X4.0945Y-5.8583
X4.1142Y-5.8071
X4.1417Y-4.5906
X4.1575Y-4.7638
X4.1575Y-4.872
X4.1575Y-4.9803
X4.1575Y-6.0236
X4.1575Y-6.2205
X4.1929Y-4.6654
X4.1929Y-4.7264
X4.2215Y-4.8583
X4.248Y-5.5315
X4.252Y-4.4685
X4.252Y-6.0236
X4.252Y-6.2205
X4.2559Y-5.4409
X4.2573Y-5.6741
X4.2715Y-5.6372
X4.2717Y-5.563
X4.2717Y-5.7087
X4.2717Y-5.815
X4.3071Y-5.7165
X4.3096Y-5.8262
X4.311Y-4.6403
X4.311Y-4.7677
X4.3307Y-5.9213
X4.3465Y-6.0236
X4.3465Y-6.2205
X4.4606Y-4.8307
X4.4685Y-4.6063
T2
X3.5236Y-4.6063
X3.5236Y-4.8031
X3.5728Y-5.9646
X3.5728Y-6.1614
X3.7205Y-4.6063
X3.7205Y-4.8031
X3.7697Y-5.9646
X3.7697Y-6.1614
X4.0354Y-4.5669
X4.0354Y-4.7638
T3
X3.5236Y-4.4685
X3.7205Y-4.4685
X4.4291Y-4.9709
X4.4291Y-5.0709
X4.4291Y-5.1709
X4.4291Y-5.2709
X4.4291Y-5.3709
X4.4291Y-5.4709
X4.4291Y-5.5709
X4.4291Y-5.6709
X4.4291Y-5.7709
T4
X2.6681Y-4.6181
X2.6681Y-4.8681
X2.6681Y-5.1181
X2.6681Y-5.7146
X2.6681Y-5.9646
X2.6681Y-6.2146
X3.3071Y-4.6181
X3.3071Y-4.8681
X3.3071Y-5.1181
X3.3071Y-5.7146
X3.3071Y-5.9646
X3.3071Y-6.2146
M30
