%TF.GenerationSoftware,KiCad,Pcbnew,9.0.4*%
%TF.CreationDate,2025-09-24T19:41:08-07:00*%
%TF.ProjectId,LE_FRONTEND,4c455f46-524f-44e5-9445-4e442e6b6963,rev?*%
%TF.SameCoordinates,Original*%
%TF.FileFunction,Copper,L6,Bot*%
%TF.FilePolarity,Positive*%
%FSLAX46Y46*%
G04 Gerber Fmt 4.6, Leading zero omitted, Abs format (unit mm)*
G04 Created by KiCad (PCBNEW 9.0.4) date 2025-09-24 19:41:08*
%MOMM*%
%LPD*%
G01*
G04 APERTURE LIST*
%TA.AperFunction,ComponentPad*%
%ADD10R,1.700000X1.700000*%
%TD*%
%TA.AperFunction,ComponentPad*%
%ADD11C,1.700000*%
%TD*%
%TA.AperFunction,ComponentPad*%
%ADD12C,1.600000*%
%TD*%
%TA.AperFunction,ComponentPad*%
%ADD13C,3.000000*%
%TD*%
%TA.AperFunction,SMDPad,CuDef*%
%ADD14C,2.000000*%
%TD*%
%TA.AperFunction,ViaPad*%
%ADD15C,0.600000*%
%TD*%
%TA.AperFunction,Conductor*%
%ADD16C,0.200000*%
%TD*%
G04 APERTURE END LIST*
D10*
%TO.P,J3,1,Pin_1*%
%TO.N,/SCK*%
X112500000Y-146580000D03*
D11*
%TO.P,J3,2,Pin_2*%
%TO.N,/{slash}CS*%
X112500000Y-144040000D03*
%TO.P,J3,3,Pin_3*%
%TO.N,/SDI*%
X112500000Y-141500000D03*
%TO.P,J3,4,Pin_4*%
%TO.N,/SDO*%
X112500000Y-138960000D03*
%TO.P,J3,5,Pin_5*%
%TO.N,/{slash}IRQ*%
X112500000Y-136420000D03*
%TO.P,J3,6,Pin_6*%
%TO.N,/MCLK*%
X112500000Y-133880000D03*
%TO.P,J3,7*%
%TO.N,+3V3_DIG*%
X112500000Y-131340000D03*
%TO.P,J3,8*%
%TO.N,Vin*%
X112500000Y-128800000D03*
%TO.P,J3,9*%
%TO.N,GND*%
X112500000Y-126260000D03*
%TD*%
D12*
%TO.P,C2,1*%
%TO.N,GND*%
X94500000Y-117000000D03*
%TO.P,C2,2*%
%TO.N,/IN+*%
X94500000Y-122000000D03*
%TD*%
D13*
%TO.P,J5,R*%
%TO.N,N/C*%
X67770000Y-151500000D03*
%TO.P,J5,RN*%
X84000000Y-151500000D03*
%TO.P,J5,S*%
%TO.N,GND*%
X67770000Y-157850000D03*
%TO.P,J5,SN*%
%TO.N,N/C*%
X84000000Y-157850000D03*
%TO.P,J5,T*%
%TO.N,/OUTPUT_SIG*%
X67770000Y-145150000D03*
%TO.P,J5,TN*%
%TO.N,N/C*%
X84000000Y-145150000D03*
%TD*%
D14*
%TO.P,JIN_TP1,1,1*%
%TO.N,Net-(U9A-+)*%
X88500000Y-132500000D03*
%TD*%
D12*
%TO.P,C21,1*%
%TO.N,GND*%
X90750000Y-156500000D03*
%TO.P,C21,2*%
%TO.N,/U1_INPUT_SIG*%
X90750000Y-151500000D03*
%TD*%
%TO.P,C24,1*%
%TO.N,/U1_OUTPUT_SIG*%
X95750000Y-151500000D03*
%TO.P,C24,2*%
%TO.N,/OUTPUT_SIG*%
X95750000Y-156500000D03*
%TD*%
D13*
%TO.P,J1,R*%
%TO.N,N/C*%
X84000000Y-123650000D03*
%TO.P,J1,RN*%
X67770000Y-123650000D03*
%TO.P,J1,S*%
%TO.N,GND*%
X84000000Y-117300000D03*
%TO.P,J1,SN*%
%TO.N,N/C*%
X67770000Y-117300000D03*
%TO.P,J1,T*%
%TO.N,/POS_INPUT_SIG*%
X84000000Y-130000000D03*
%TO.P,J1,TN*%
%TO.N,N/C*%
X67770000Y-130000000D03*
%TD*%
D14*
%TO.P,1V2_TP1,1,1*%
%TO.N,/U1_REFERENCE_NON-INVERTING*%
X87500000Y-153250000D03*
%TD*%
%TO.P,OP_BRO1,1,1*%
%TO.N,/U9_output_neg*%
X92500000Y-126750000D03*
%TD*%
%TO.P,JOUT_TP1,1,1*%
%TO.N,/OUTPUT_SIG*%
X101000000Y-156500000D03*
%TD*%
%TO.P,2V5TP1,1,1*%
%TO.N,/2V5*%
X87500000Y-149250000D03*
%TD*%
D12*
%TO.P,C1,1*%
%TO.N,/POS_INPUT_SIG*%
X89500000Y-122000000D03*
%TO.P,C1,2*%
%TO.N,Net-(U9A-+)*%
X89500000Y-117000000D03*
%TD*%
D14*
%TO.P,BRO_TP1,1,1*%
%TO.N,/U9_input_neg*%
X87500000Y-125500000D03*
%TD*%
D10*
%TO.P,J2,1,Pin_1*%
%TO.N,/Neg_input_Header*%
X89500000Y-113500000D03*
%TD*%
D12*
%TO.P,C3,1*%
%TO.N,GND*%
X102500000Y-116000000D03*
%TO.P,C3,2*%
%TO.N,/IN-*%
X102500000Y-121000000D03*
%TD*%
D10*
%TO.P,J6,1,Pin_1*%
%TO.N,GND*%
X94500000Y-113500000D03*
%TD*%
D14*
%TO.P,OP_JIN1,1,1*%
%TO.N,/U9_output_pos*%
X92000000Y-132500000D03*
%TD*%
D15*
%TO.N,+3V3_Analog*%
X75500000Y-120000000D03*
X75000000Y-158000000D03*
X113500000Y-117000000D03*
X82500000Y-136250000D03*
X104000000Y-148800000D03*
X105200000Y-116600000D03*
X105600000Y-121000000D03*
X86750000Y-158250000D03*
X98400000Y-126400000D03*
X103000000Y-134600000D03*
X105600000Y-126500000D03*
X91810000Y-144475000D03*
X98050000Y-139500000D03*
X79000000Y-130500000D03*
X98500000Y-122400000D03*
X91810000Y-134950000D03*
X105600000Y-123750000D03*
X100250000Y-148750000D03*
X93500000Y-132500000D03*
X86000000Y-119750000D03*
X106500000Y-120050000D03*
X86000000Y-122600000D03*
X110000000Y-150400000D03*
X82250000Y-149000000D03*
X97000000Y-137250000D03*
X76750000Y-141250000D03*
X93500000Y-134500000D03*
X109500000Y-121100000D03*
X82500000Y-138500000D03*
X103000000Y-139000000D03*
X99400000Y-117800000D03*
%TO.N,GND*%
X107225000Y-123400000D03*
X97250000Y-123250000D03*
X101500000Y-135200000D03*
X96004952Y-152774758D03*
X105600000Y-153000000D03*
X106500000Y-118500000D03*
X75500000Y-131000000D03*
X108134761Y-144122205D03*
X99000000Y-141200000D03*
X107900000Y-140500000D03*
X95300000Y-139500000D03*
X101000000Y-127750000D03*
X74000000Y-145000000D03*
X86000000Y-117000000D03*
X108000000Y-113500000D03*
X104000000Y-119950000D03*
X101950000Y-142500000D03*
X109400000Y-145200000D03*
X70000000Y-158000000D03*
X109500000Y-117862500D03*
X87357772Y-128465544D03*
X89699999Y-123284524D03*
X79000000Y-138000000D03*
X95573514Y-149474986D03*
X108000000Y-153000000D03*
X103200000Y-158000000D03*
X103200000Y-153000000D03*
X104000000Y-122350000D03*
X109463677Y-147984853D03*
X89250000Y-146250000D03*
X113300000Y-122700000D03*
X79000000Y-143850000D03*
X97250000Y-144500000D03*
X104000000Y-115000000D03*
X85500000Y-143500000D03*
X110400000Y-158000000D03*
X101500000Y-137600000D03*
X96500000Y-113199997D03*
X101500000Y-140000000D03*
X104000000Y-117550000D03*
X103500000Y-132750000D03*
X108000000Y-158000000D03*
X110400000Y-153000000D03*
X104000000Y-124750000D03*
X86853108Y-139457432D03*
X100500000Y-132650000D03*
X105600000Y-158000000D03*
X80000000Y-128100000D03*
X79500000Y-134000000D03*
%TO.N,/U1_REFERENCE_NON-INVERTING*%
X80999228Y-137251070D03*
X89270000Y-138500000D03*
X86497017Y-138741051D03*
%TO.N,/IN+*%
X97500000Y-135000000D03*
X96100000Y-127000000D03*
%TO.N,/IN-*%
X100500000Y-135000000D03*
X102500000Y-126500000D03*
%TO.N,/U9_input_neg*%
X87000000Y-127750000D03*
X87000000Y-134250000D03*
%TO.N,/POS_INPUT_SIG*%
X88250000Y-123000000D03*
X79000000Y-127500000D03*
%TO.N,/Neg_input_Header*%
X90000000Y-126750000D03*
X96500000Y-114000000D03*
%TO.N,/VOUT*%
X99500000Y-143100000D03*
X97750000Y-148000000D03*
%TO.N,/SDO*%
X108500000Y-145000000D03*
%TO.N,/SCK*%
X108100000Y-138200000D03*
X108496338Y-143185267D03*
%TO.N,/SDI*%
X108500000Y-141300003D03*
%TO.N,/{slash}CS*%
X108500000Y-147700000D03*
%TO.N,Net-(U9A-+)*%
X89772501Y-128522501D03*
X92500000Y-136500000D03*
X90000000Y-118250000D03*
%TO.N,/2V5*%
X97502983Y-143741051D03*
X81100000Y-145750000D03*
%TO.N,/1V2*%
X91250000Y-139525000D03*
X86500000Y-137250000D03*
X93000000Y-137750000D03*
%TO.N,Net-(U5-\u002ACS)*%
X104500000Y-147500000D03*
X99641987Y-141900000D03*
%TO.N,/U1_INPUT_SIG*%
X89500000Y-150000000D03*
X88000000Y-146250000D03*
X94250000Y-148750000D03*
%TO.N,/U1_OUTPUT_SIG*%
X90750000Y-146500000D03*
X94066040Y-150933960D03*
%TO.N,/U9_output_neg*%
X92500000Y-124750000D03*
X90000000Y-133600000D03*
X100000000Y-124000000D03*
%TO.N,/OUTPUT_SIG*%
X96100000Y-146493675D03*
X70800000Y-147750000D03*
%TO.N,/U9_output_pos*%
X92575000Y-130000000D03*
X94500000Y-127000000D03*
%TD*%
D16*
%TO.N,/U1_REFERENCE_NON-INVERTING*%
X83750000Y-138750000D02*
X80500000Y-142000000D01*
X86500000Y-154250000D02*
X82500000Y-154250000D01*
X82500000Y-154250000D02*
X80500000Y-152250000D01*
X87500000Y-153250000D02*
X86500000Y-154250000D01*
X86497017Y-138741051D02*
X85483949Y-138741051D01*
X85475000Y-138750000D02*
X83750000Y-138750000D01*
X80500000Y-142000000D02*
X80500000Y-152250000D01*
X85483949Y-138741051D02*
X85475000Y-138750000D01*
%TO.N,/U9_input_neg*%
X87500000Y-125500000D02*
X87500000Y-127250000D01*
X87500000Y-127250000D02*
X87000000Y-127750000D01*
%TO.N,Net-(U9A-+)*%
X88500000Y-132500000D02*
X89772501Y-131227499D01*
X89772501Y-131227499D02*
X89772501Y-128522501D01*
%TO.N,/2V5*%
X84500000Y-149250000D02*
X87500000Y-149250000D01*
X81100000Y-145750000D02*
X83100000Y-147750000D01*
X83100000Y-147750000D02*
X83100000Y-147850000D01*
X83100000Y-147850000D02*
X84500000Y-149250000D01*
%TO.N,/U9_output_neg*%
X92500000Y-126750000D02*
X92500000Y-124750000D01*
%TO.N,/OUTPUT_SIG*%
X95750000Y-156500000D02*
X101000000Y-156500000D01*
%TO.N,/U9_output_pos*%
X92575000Y-131925000D02*
X92575000Y-130000000D01*
X92000000Y-132500000D02*
X92575000Y-131925000D01*
%TD*%
M02*
