%TF.GenerationSoftware,KiCad,Pcbnew,9.0.4*%
%TF.CreationDate,2025-09-24T19:41:08-07:00*%
%TF.ProjectId,LE_FRONTEND,4c455f46-524f-44e5-9445-4e442e6b6963,rev?*%
%TF.SameCoordinates,Original*%
%TF.FileFunction,Copper,L2,Inr*%
%TF.FilePolarity,Positive*%
%FSLAX46Y46*%
G04 Gerber Fmt 4.6, Leading zero omitted, Abs format (unit mm)*
G04 Created by KiCad (PCBNEW 9.0.4) date 2025-09-24 19:41:08*
%MOMM*%
%LPD*%
G01*
G04 APERTURE LIST*
%TA.AperFunction,ComponentPad*%
%ADD10R,1.700000X1.700000*%
%TD*%
%TA.AperFunction,ComponentPad*%
%ADD11C,1.700000*%
%TD*%
%TA.AperFunction,ComponentPad*%
%ADD12C,1.600000*%
%TD*%
%TA.AperFunction,ComponentPad*%
%ADD13C,3.000000*%
%TD*%
%TA.AperFunction,ViaPad*%
%ADD14C,0.600000*%
%TD*%
G04 APERTURE END LIST*
D10*
%TO.N,/SCK*%
%TO.C,J3*%
X112500000Y-146580000D03*
D11*
%TO.N,/{slash}CS*%
X112500000Y-144040000D03*
%TO.N,/SDI*%
X112500000Y-141500000D03*
%TO.N,/SDO*%
X112500000Y-138960000D03*
%TO.N,/{slash}IRQ*%
X112500000Y-136420000D03*
%TO.N,/MCLK*%
X112500000Y-133880000D03*
%TO.N,+3V3_DIG*%
X112500000Y-131340000D03*
%TO.N,Vin*%
X112500000Y-128800000D03*
%TO.N,GND*%
X112500000Y-126260000D03*
%TD*%
D12*
%TO.N,GND*%
%TO.C,C2*%
X94500000Y-117000000D03*
%TO.N,/IN+*%
X94500000Y-122000000D03*
%TD*%
D13*
%TO.N,N/C*%
%TO.C,J5*%
X67770000Y-151500000D03*
X84000000Y-151500000D03*
%TO.N,GND*%
X67770000Y-157850000D03*
%TO.N,N/C*%
X84000000Y-157850000D03*
%TO.N,/OUTPUT_SIG*%
X67770000Y-145150000D03*
%TO.N,N/C*%
X84000000Y-145150000D03*
%TD*%
D12*
%TO.N,GND*%
%TO.C,C21*%
X90750000Y-156500000D03*
%TO.N,/U1_INPUT_SIG*%
X90750000Y-151500000D03*
%TD*%
%TO.N,/U1_OUTPUT_SIG*%
%TO.C,C24*%
X95750000Y-151500000D03*
%TO.N,/OUTPUT_SIG*%
X95750000Y-156500000D03*
%TD*%
D13*
%TO.N,N/C*%
%TO.C,J1*%
X84000000Y-123650000D03*
X67770000Y-123650000D03*
%TO.N,GND*%
X84000000Y-117300000D03*
%TO.N,N/C*%
X67770000Y-117300000D03*
%TO.N,/POS_INPUT_SIG*%
X84000000Y-130000000D03*
%TO.N,N/C*%
X67770000Y-130000000D03*
%TD*%
D12*
%TO.N,/POS_INPUT_SIG*%
%TO.C,C1*%
X89500000Y-122000000D03*
%TO.N,Net-(U9A-+)*%
X89500000Y-117000000D03*
%TD*%
D10*
%TO.N,/Neg_input_Header*%
%TO.C,J2*%
X89500000Y-113500000D03*
%TD*%
D12*
%TO.N,GND*%
%TO.C,C3*%
X102500000Y-116000000D03*
%TO.N,/IN-*%
X102500000Y-121000000D03*
%TD*%
D10*
%TO.N,GND*%
%TO.C,J6*%
X94500000Y-113500000D03*
%TD*%
D14*
%TO.N,+3V3_Analog*%
X75500000Y-120000000D03*
X75000000Y-158000000D03*
X113500000Y-117000000D03*
X82500000Y-136250000D03*
X104000000Y-148800000D03*
X105200000Y-116600000D03*
X105600000Y-121000000D03*
X86750000Y-158250000D03*
X98400000Y-126400000D03*
X103000000Y-134600000D03*
X105600000Y-126500000D03*
X91810000Y-144475000D03*
X98050000Y-139500000D03*
X79000000Y-130500000D03*
X98500000Y-122400000D03*
X91810000Y-134950000D03*
X105600000Y-123750000D03*
X100250000Y-148750000D03*
X93500000Y-132500000D03*
X86000000Y-119750000D03*
X106500000Y-120050000D03*
X86000000Y-122600000D03*
X110000000Y-150400000D03*
X82250000Y-149000000D03*
X97000000Y-137250000D03*
X76750000Y-141250000D03*
X93500000Y-134500000D03*
X109500000Y-121100000D03*
X82500000Y-138500000D03*
X103000000Y-139000000D03*
X99400000Y-117800000D03*
%TO.N,GND*%
X107225000Y-123400000D03*
X97250000Y-123250000D03*
X101500000Y-135200000D03*
X96004952Y-152774758D03*
X105600000Y-153000000D03*
X106500000Y-118500000D03*
X75500000Y-131000000D03*
X108134761Y-144122205D03*
X99000000Y-141200000D03*
X107900000Y-140500000D03*
X95300000Y-139500000D03*
X101000000Y-127750000D03*
X74000000Y-145000000D03*
X86000000Y-117000000D03*
X108000000Y-113500000D03*
X104000000Y-119950000D03*
X101950000Y-142500000D03*
X109400000Y-145200000D03*
X70000000Y-158000000D03*
X109500000Y-117862500D03*
X87357772Y-128465544D03*
X89699999Y-123284524D03*
X79000000Y-138000000D03*
X95573514Y-149474986D03*
X108000000Y-153000000D03*
X103200000Y-158000000D03*
X103200000Y-153000000D03*
X104000000Y-122350000D03*
X109463677Y-147984853D03*
X89250000Y-146250000D03*
X113300000Y-122700000D03*
X79000000Y-143850000D03*
X97250000Y-144500000D03*
X104000000Y-115000000D03*
X85500000Y-143500000D03*
X110400000Y-158000000D03*
X101500000Y-137600000D03*
X96500000Y-113199997D03*
X101500000Y-140000000D03*
X104000000Y-117550000D03*
X103500000Y-132750000D03*
X108000000Y-158000000D03*
X110400000Y-153000000D03*
X104000000Y-124750000D03*
X86853108Y-139457432D03*
X100500000Y-132650000D03*
X105600000Y-158000000D03*
X80000000Y-128100000D03*
X79500000Y-134000000D03*
%TO.N,/U1_REFERENCE_NON-INVERTING*%
X80999228Y-137251070D03*
X89270000Y-138500000D03*
X86497017Y-138741051D03*
%TO.N,/IN+*%
X97500000Y-135000000D03*
X96100000Y-127000000D03*
%TO.N,/IN-*%
X100500000Y-135000000D03*
X102500000Y-126500000D03*
%TO.N,/U9_input_neg*%
X87000000Y-127750000D03*
X87000000Y-134250000D03*
%TO.N,/POS_INPUT_SIG*%
X88250000Y-123000000D03*
X79000000Y-127500000D03*
%TO.N,/Neg_input_Header*%
X90000000Y-126750000D03*
X96500000Y-114000000D03*
%TO.N,/VOUT*%
X99500000Y-143100000D03*
X97750000Y-148000000D03*
%TO.N,/SDO*%
X108500000Y-145000000D03*
%TO.N,/SCK*%
X108100000Y-138200000D03*
X108496338Y-143185267D03*
%TO.N,/SDI*%
X108500000Y-141300003D03*
%TO.N,/{slash}CS*%
X108500000Y-147700000D03*
%TO.N,Net-(U9A-+)*%
X89772501Y-128522501D03*
X92500000Y-136500000D03*
X90000000Y-118250000D03*
%TO.N,/2V5*%
X97502983Y-143741051D03*
X81100000Y-145750000D03*
%TO.N,/1V2*%
X91250000Y-139525000D03*
X86500000Y-137250000D03*
X93000000Y-137750000D03*
%TO.N,Net-(U5-\u002ACS)*%
X104500000Y-147500000D03*
X99641987Y-141900000D03*
%TO.N,/U1_INPUT_SIG*%
X89500000Y-150000000D03*
X88000000Y-146250000D03*
X94250000Y-148750000D03*
%TO.N,/U1_OUTPUT_SIG*%
X90750000Y-146500000D03*
X94066040Y-150933960D03*
%TO.N,/U9_output_neg*%
X92500000Y-124750000D03*
X90000000Y-133600000D03*
X100000000Y-124000000D03*
%TO.N,/OUTPUT_SIG*%
X96100000Y-146493675D03*
X70800000Y-147750000D03*
%TO.N,/U9_output_pos*%
X92575000Y-130000000D03*
X94500000Y-127000000D03*
%TD*%
%TA.AperFunction,Conductor*%
%TO.N,GND*%
G36*
X88092539Y-112519685D02*
G01*
X88138294Y-112572489D01*
X88149500Y-112624000D01*
X88149500Y-114397870D01*
X88149501Y-114397876D01*
X88155908Y-114457483D01*
X88206202Y-114592328D01*
X88206206Y-114592335D01*
X88292452Y-114707544D01*
X88292455Y-114707547D01*
X88407664Y-114793793D01*
X88407671Y-114793797D01*
X88542517Y-114844091D01*
X88542516Y-114844091D01*
X88546265Y-114844494D01*
X88602127Y-114850500D01*
X90397872Y-114850499D01*
X90457483Y-114844091D01*
X90592331Y-114793796D01*
X90707546Y-114707546D01*
X90793796Y-114592331D01*
X90844091Y-114457483D01*
X90850500Y-114397873D01*
X90850499Y-113500000D01*
X90850499Y-112624000D01*
X90870183Y-112556961D01*
X90922987Y-112511206D01*
X90974499Y-112500000D01*
X93026000Y-112500000D01*
X93093039Y-112519685D01*
X93138794Y-112572489D01*
X93150000Y-112624000D01*
X93150000Y-113250000D01*
X94066988Y-113250000D01*
X94034075Y-113307007D01*
X94000000Y-113434174D01*
X94000000Y-113565826D01*
X94034075Y-113692993D01*
X94066988Y-113750000D01*
X93150000Y-113750000D01*
X93150000Y-114397844D01*
X93156401Y-114457372D01*
X93156403Y-114457379D01*
X93206645Y-114592086D01*
X93206649Y-114592093D01*
X93292809Y-114707187D01*
X93292812Y-114707190D01*
X93407906Y-114793350D01*
X93407913Y-114793354D01*
X93542620Y-114843596D01*
X93542627Y-114843598D01*
X93602155Y-114849999D01*
X93602172Y-114850000D01*
X94250000Y-114850000D01*
X94250000Y-113933012D01*
X94307007Y-113965925D01*
X94434174Y-114000000D01*
X94565826Y-114000000D01*
X94692993Y-113965925D01*
X94750000Y-113933012D01*
X94750000Y-114850000D01*
X95397828Y-114850000D01*
X95397844Y-114849999D01*
X95449041Y-114844494D01*
X95449043Y-114844494D01*
X95457373Y-114843598D01*
X95457379Y-114843596D01*
X95592086Y-114793354D01*
X95592093Y-114793350D01*
X95707187Y-114707190D01*
X95707190Y-114707187D01*
X95778943Y-114611339D01*
X95834876Y-114569468D01*
X95904568Y-114564484D01*
X95965890Y-114597969D01*
X95989707Y-114621786D01*
X95989711Y-114621789D01*
X96120814Y-114709390D01*
X96120827Y-114709397D01*
X96266498Y-114769735D01*
X96266503Y-114769737D01*
X96421153Y-114800499D01*
X96421156Y-114800500D01*
X96421158Y-114800500D01*
X96578844Y-114800500D01*
X96578845Y-114800499D01*
X96733497Y-114769737D01*
X96879179Y-114709394D01*
X97010289Y-114621789D01*
X97121789Y-114510289D01*
X97209394Y-114379179D01*
X97269737Y-114233497D01*
X97300500Y-114078842D01*
X97300500Y-113921158D01*
X97300500Y-113921155D01*
X97300499Y-113921153D01*
X97269738Y-113766510D01*
X97269737Y-113766503D01*
X97241627Y-113698638D01*
X97209397Y-113620827D01*
X97209390Y-113620814D01*
X97121789Y-113489711D01*
X97121786Y-113489707D01*
X97010292Y-113378213D01*
X97010288Y-113378210D01*
X96879185Y-113290609D01*
X96879172Y-113290602D01*
X96733501Y-113230264D01*
X96733489Y-113230261D01*
X96578845Y-113199500D01*
X96578842Y-113199500D01*
X96421158Y-113199500D01*
X96421155Y-113199500D01*
X96266510Y-113230261D01*
X96266498Y-113230264D01*
X96120827Y-113290602D01*
X96120816Y-113290608D01*
X96042890Y-113342677D01*
X95976213Y-113363554D01*
X95908833Y-113345069D01*
X95862143Y-113293090D01*
X95850000Y-113239574D01*
X95850000Y-112624000D01*
X95869685Y-112556961D01*
X95922489Y-112511206D01*
X95974000Y-112500000D01*
X114376000Y-112500000D01*
X114443039Y-112519685D01*
X114488794Y-112572489D01*
X114500000Y-112624000D01*
X114500000Y-116699016D01*
X114480315Y-116766055D01*
X114427511Y-116811810D01*
X114358353Y-116821754D01*
X114294797Y-116792729D01*
X114261439Y-116746469D01*
X114209395Y-116620823D01*
X114209390Y-116620814D01*
X114121789Y-116489711D01*
X114121786Y-116489707D01*
X114010292Y-116378213D01*
X114010288Y-116378210D01*
X113879185Y-116290609D01*
X113879172Y-116290602D01*
X113733501Y-116230264D01*
X113733489Y-116230261D01*
X113578845Y-116199500D01*
X113578842Y-116199500D01*
X113421158Y-116199500D01*
X113421155Y-116199500D01*
X113266510Y-116230261D01*
X113266498Y-116230264D01*
X113120827Y-116290602D01*
X113120814Y-116290609D01*
X112989711Y-116378210D01*
X112989707Y-116378213D01*
X112878213Y-116489707D01*
X112878210Y-116489711D01*
X112790609Y-116620814D01*
X112790602Y-116620827D01*
X112730264Y-116766498D01*
X112730261Y-116766510D01*
X112699500Y-116921153D01*
X112699500Y-117078846D01*
X112730261Y-117233489D01*
X112730264Y-117233501D01*
X112790602Y-117379172D01*
X112790609Y-117379185D01*
X112878210Y-117510288D01*
X112878213Y-117510292D01*
X112989707Y-117621786D01*
X112989711Y-117621789D01*
X113120814Y-117709390D01*
X113120827Y-117709397D01*
X113194013Y-117739711D01*
X113266503Y-117769737D01*
X113421153Y-117800499D01*
X113421156Y-117800500D01*
X113421158Y-117800500D01*
X113578844Y-117800500D01*
X113578845Y-117800499D01*
X113733497Y-117769737D01*
X113879179Y-117709394D01*
X114010289Y-117621789D01*
X114121789Y-117510289D01*
X114209394Y-117379179D01*
X114213306Y-117369735D01*
X114261439Y-117253531D01*
X114305280Y-117199127D01*
X114371574Y-117177062D01*
X114439273Y-117194341D01*
X114486884Y-117245478D01*
X114500000Y-117300983D01*
X114500000Y-160376000D01*
X114480315Y-160443039D01*
X114427511Y-160488794D01*
X114376000Y-160500000D01*
X66624000Y-160500000D01*
X66556961Y-160480315D01*
X66511206Y-160427511D01*
X66500000Y-160376000D01*
X66500000Y-159640939D01*
X66519685Y-159573900D01*
X66572489Y-159528145D01*
X66641647Y-159518201D01*
X66686001Y-159533552D01*
X66883524Y-159647593D01*
X66883528Y-159647595D01*
X67125744Y-159747924D01*
X67378979Y-159815777D01*
X67378990Y-159815779D01*
X67638905Y-159849999D01*
X67638920Y-159850000D01*
X67901080Y-159850000D01*
X67901094Y-159849999D01*
X68161009Y-159815779D01*
X68161020Y-159815777D01*
X68414255Y-159747924D01*
X68656471Y-159647595D01*
X68656482Y-159647590D01*
X68883516Y-159516511D01*
X68883534Y-159516499D01*
X68996365Y-159429919D01*
X68996365Y-159429917D01*
X68055757Y-158489309D01*
X68101574Y-158470332D01*
X68216224Y-158393726D01*
X68313726Y-158296224D01*
X68390332Y-158181574D01*
X68409309Y-158135757D01*
X69349917Y-159076365D01*
X69349919Y-159076365D01*
X69436499Y-158963534D01*
X69436511Y-158963516D01*
X69567590Y-158736482D01*
X69567595Y-158736471D01*
X69667924Y-158494255D01*
X69735777Y-158241020D01*
X69735779Y-158241009D01*
X69769999Y-157981094D01*
X69770000Y-157981080D01*
X69770000Y-157921153D01*
X74199500Y-157921153D01*
X74199500Y-158078846D01*
X74230261Y-158233489D01*
X74230264Y-158233501D01*
X74290602Y-158379172D01*
X74290609Y-158379185D01*
X74378210Y-158510288D01*
X74378213Y-158510292D01*
X74489707Y-158621786D01*
X74489711Y-158621789D01*
X74620814Y-158709390D01*
X74620827Y-158709397D01*
X74766498Y-158769735D01*
X74766503Y-158769737D01*
X74921153Y-158800499D01*
X74921156Y-158800500D01*
X74921158Y-158800500D01*
X75078844Y-158800500D01*
X75078845Y-158800499D01*
X75233497Y-158769737D01*
X75379179Y-158709394D01*
X75510289Y-158621789D01*
X75621789Y-158510289D01*
X75709394Y-158379179D01*
X75769737Y-158233497D01*
X75800500Y-158078842D01*
X75800500Y-157921158D01*
X75800500Y-157921155D01*
X75800499Y-157921153D01*
X75776400Y-157800000D01*
X75769737Y-157766503D01*
X75750008Y-157718872D01*
X81999500Y-157718872D01*
X81999500Y-157981127D01*
X82024519Y-158171153D01*
X82033730Y-158241116D01*
X82098677Y-158483501D01*
X82101602Y-158494418D01*
X82101605Y-158494428D01*
X82201953Y-158736690D01*
X82201958Y-158736700D01*
X82333075Y-158963803D01*
X82492718Y-159171851D01*
X82492726Y-159171860D01*
X82678140Y-159357274D01*
X82678148Y-159357281D01*
X82886196Y-159516924D01*
X83113299Y-159648041D01*
X83113309Y-159648046D01*
X83355571Y-159748394D01*
X83355581Y-159748398D01*
X83608884Y-159816270D01*
X83857188Y-159848960D01*
X83865074Y-159849999D01*
X83868880Y-159850500D01*
X83868887Y-159850500D01*
X84131113Y-159850500D01*
X84131120Y-159850500D01*
X84391116Y-159816270D01*
X84644419Y-159748398D01*
X84886697Y-159648043D01*
X85113803Y-159516924D01*
X85321851Y-159357282D01*
X85321855Y-159357277D01*
X85321860Y-159357274D01*
X85507274Y-159171860D01*
X85507277Y-159171855D01*
X85507282Y-159171851D01*
X85666924Y-158963803D01*
X85798043Y-158736697D01*
X85829582Y-158660554D01*
X85873422Y-158606151D01*
X85939716Y-158584086D01*
X86007416Y-158601365D01*
X86047245Y-158639116D01*
X86128210Y-158760288D01*
X86128213Y-158760292D01*
X86239707Y-158871786D01*
X86239711Y-158871789D01*
X86370814Y-158959390D01*
X86370827Y-158959397D01*
X86516498Y-159019735D01*
X86516503Y-159019737D01*
X86671153Y-159050499D01*
X86671156Y-159050500D01*
X86671158Y-159050500D01*
X86828844Y-159050500D01*
X86828845Y-159050499D01*
X86983497Y-159019737D01*
X87129179Y-158959394D01*
X87260289Y-158871789D01*
X87371789Y-158760289D01*
X87459394Y-158629179D01*
X87519737Y-158483497D01*
X87550500Y-158328842D01*
X87550500Y-158171158D01*
X87550500Y-158171155D01*
X87550499Y-158171153D01*
X87519738Y-158016510D01*
X87519737Y-158016503D01*
X87505070Y-157981094D01*
X87459397Y-157870827D01*
X87459390Y-157870814D01*
X87371789Y-157739711D01*
X87371786Y-157739707D01*
X87260292Y-157628213D01*
X87260288Y-157628210D01*
X87129185Y-157540609D01*
X87129172Y-157540602D01*
X86983501Y-157480264D01*
X86983489Y-157480261D01*
X86828845Y-157449500D01*
X86828842Y-157449500D01*
X86671158Y-157449500D01*
X86671155Y-157449500D01*
X86516510Y-157480261D01*
X86516498Y-157480264D01*
X86370827Y-157540602D01*
X86370814Y-157540609D01*
X86239711Y-157628210D01*
X86239706Y-157628214D01*
X86195579Y-157672341D01*
X86134256Y-157705825D01*
X86064564Y-157700840D01*
X86008631Y-157658968D01*
X85984960Y-157600845D01*
X85982146Y-157579474D01*
X85966270Y-157458884D01*
X85898398Y-157205581D01*
X85888361Y-157181349D01*
X85798046Y-156963309D01*
X85798041Y-156963299D01*
X85666924Y-156736196D01*
X85507281Y-156528148D01*
X85507274Y-156528140D01*
X85376816Y-156397682D01*
X89450000Y-156397682D01*
X89450000Y-156602317D01*
X89482009Y-156804417D01*
X89545244Y-156999031D01*
X89638141Y-157181350D01*
X89638147Y-157181359D01*
X89670523Y-157225921D01*
X89670524Y-157225922D01*
X90350000Y-156546446D01*
X90350000Y-156552661D01*
X90377259Y-156654394D01*
X90429920Y-156745606D01*
X90504394Y-156820080D01*
X90595606Y-156872741D01*
X90697339Y-156900000D01*
X90703553Y-156900000D01*
X90024076Y-157579474D01*
X90068650Y-157611859D01*
X90250968Y-157704755D01*
X90445582Y-157767990D01*
X90647683Y-157800000D01*
X90852317Y-157800000D01*
X91054417Y-157767990D01*
X91249031Y-157704755D01*
X91431349Y-157611859D01*
X91475921Y-157579474D01*
X90796447Y-156900000D01*
X90802661Y-156900000D01*
X90904394Y-156872741D01*
X90995606Y-156820080D01*
X91070080Y-156745606D01*
X91122741Y-156654394D01*
X91150000Y-156552661D01*
X91150000Y-156546447D01*
X91829474Y-157225921D01*
X91861859Y-157181349D01*
X91954755Y-156999031D01*
X92017990Y-156804417D01*
X92050000Y-156602317D01*
X92050000Y-156397682D01*
X92049995Y-156397648D01*
X94449500Y-156397648D01*
X94449500Y-156602351D01*
X94481522Y-156804534D01*
X94544781Y-156999223D01*
X94608691Y-157124653D01*
X94637585Y-157181359D01*
X94637715Y-157181613D01*
X94758028Y-157347213D01*
X94902786Y-157491971D01*
X95023226Y-157579474D01*
X95068390Y-157612287D01*
X95184607Y-157671503D01*
X95250776Y-157705218D01*
X95250778Y-157705218D01*
X95250781Y-157705220D01*
X95355137Y-157739127D01*
X95445465Y-157768477D01*
X95524885Y-157781056D01*
X95647648Y-157800500D01*
X95647649Y-157800500D01*
X95852351Y-157800500D01*
X95852352Y-157800500D01*
X96054534Y-157768477D01*
X96249219Y-157705220D01*
X96431610Y-157612287D01*
X96560800Y-157518426D01*
X96597213Y-157491971D01*
X96597215Y-157491968D01*
X96597219Y-157491966D01*
X96741966Y-157347219D01*
X96741968Y-157347215D01*
X96741971Y-157347213D01*
X96826938Y-157230264D01*
X96862287Y-157181610D01*
X96955220Y-156999219D01*
X97018477Y-156804534D01*
X97050500Y-156602352D01*
X97050500Y-156397648D01*
X97030295Y-156270080D01*
X97018477Y-156195465D01*
X96971847Y-156051953D01*
X96955220Y-156000781D01*
X96955218Y-156000778D01*
X96955218Y-156000776D01*
X96895579Y-155883730D01*
X96862287Y-155818390D01*
X96830092Y-155774077D01*
X96741971Y-155652786D01*
X96597213Y-155508028D01*
X96431613Y-155387715D01*
X96431612Y-155387714D01*
X96431610Y-155387713D01*
X96374653Y-155358691D01*
X96249223Y-155294781D01*
X96054534Y-155231522D01*
X95879995Y-155203878D01*
X95852352Y-155199500D01*
X95647648Y-155199500D01*
X95623329Y-155203351D01*
X95445465Y-155231522D01*
X95250776Y-155294781D01*
X95068386Y-155387715D01*
X94902786Y-155508028D01*
X94758028Y-155652786D01*
X94637715Y-155818386D01*
X94544781Y-156000776D01*
X94481522Y-156195465D01*
X94449500Y-156397648D01*
X92049995Y-156397648D01*
X92017990Y-156195582D01*
X91954755Y-156000968D01*
X91861859Y-155818650D01*
X91829474Y-155774077D01*
X91829474Y-155774076D01*
X91150000Y-156453551D01*
X91150000Y-156447339D01*
X91122741Y-156345606D01*
X91070080Y-156254394D01*
X90995606Y-156179920D01*
X90904394Y-156127259D01*
X90802661Y-156100000D01*
X90796446Y-156100000D01*
X91475922Y-155420524D01*
X91475921Y-155420523D01*
X91431359Y-155388147D01*
X91431350Y-155388141D01*
X91249031Y-155295244D01*
X91054417Y-155232009D01*
X90852317Y-155200000D01*
X90647683Y-155200000D01*
X90445582Y-155232009D01*
X90250968Y-155295244D01*
X90068644Y-155388143D01*
X90024077Y-155420523D01*
X90024077Y-155420524D01*
X90703554Y-156100000D01*
X90697339Y-156100000D01*
X90595606Y-156127259D01*
X90504394Y-156179920D01*
X90429920Y-156254394D01*
X90377259Y-156345606D01*
X90350000Y-156447339D01*
X90350000Y-156453553D01*
X89670524Y-155774077D01*
X89670523Y-155774077D01*
X89638143Y-155818644D01*
X89545244Y-156000968D01*
X89482009Y-156195582D01*
X89450000Y-156397682D01*
X85376816Y-156397682D01*
X85321860Y-156342726D01*
X85321851Y-156342718D01*
X85113803Y-156183075D01*
X84886700Y-156051958D01*
X84886690Y-156051953D01*
X84644428Y-155951605D01*
X84644421Y-155951603D01*
X84644419Y-155951602D01*
X84391116Y-155883730D01*
X84333339Y-155876123D01*
X84131127Y-155849500D01*
X84131120Y-155849500D01*
X83868880Y-155849500D01*
X83868872Y-155849500D01*
X83637772Y-155879926D01*
X83608884Y-155883730D01*
X83355581Y-155951602D01*
X83355571Y-155951605D01*
X83113309Y-156051953D01*
X83113299Y-156051958D01*
X82886196Y-156183075D01*
X82678148Y-156342718D01*
X82492718Y-156528148D01*
X82333075Y-156736196D01*
X82201958Y-156963299D01*
X82201953Y-156963309D01*
X82101605Y-157205571D01*
X82101602Y-157205581D01*
X82033730Y-157458884D01*
X82033716Y-157458990D01*
X81999500Y-157718872D01*
X75750008Y-157718872D01*
X75719748Y-157645818D01*
X75709397Y-157620827D01*
X75709390Y-157620814D01*
X75621789Y-157489711D01*
X75621786Y-157489707D01*
X75510292Y-157378213D01*
X75510288Y-157378210D01*
X75379185Y-157290609D01*
X75379172Y-157290602D01*
X75233501Y-157230264D01*
X75233489Y-157230261D01*
X75078845Y-157199500D01*
X75078842Y-157199500D01*
X74921158Y-157199500D01*
X74921155Y-157199500D01*
X74766510Y-157230261D01*
X74766498Y-157230264D01*
X74620827Y-157290602D01*
X74620814Y-157290609D01*
X74489711Y-157378210D01*
X74489707Y-157378213D01*
X74378213Y-157489707D01*
X74378210Y-157489711D01*
X74290609Y-157620814D01*
X74290602Y-157620827D01*
X74230264Y-157766498D01*
X74230261Y-157766510D01*
X74199500Y-157921153D01*
X69770000Y-157921153D01*
X69770000Y-157718919D01*
X69769999Y-157718905D01*
X69735779Y-157458990D01*
X69735777Y-157458979D01*
X69667924Y-157205744D01*
X69567595Y-156963528D01*
X69567590Y-156963517D01*
X69436511Y-156736483D01*
X69436505Y-156736475D01*
X69349918Y-156623633D01*
X69349917Y-156623633D01*
X68409309Y-157564242D01*
X68390332Y-157518426D01*
X68313726Y-157403776D01*
X68216224Y-157306274D01*
X68101574Y-157229668D01*
X68055755Y-157210689D01*
X68996365Y-156270080D01*
X68883524Y-156183494D01*
X68883516Y-156183488D01*
X68656482Y-156052409D01*
X68656471Y-156052404D01*
X68414255Y-155952075D01*
X68161020Y-155884222D01*
X68161009Y-155884220D01*
X67901094Y-155850000D01*
X67638905Y-155850000D01*
X67378990Y-155884220D01*
X67378979Y-155884222D01*
X67125744Y-155952075D01*
X66883528Y-156052404D01*
X66883517Y-156052409D01*
X66686000Y-156166446D01*
X66618100Y-156182919D01*
X66552073Y-156160066D01*
X66508882Y-156105145D01*
X66500000Y-156059059D01*
X66500000Y-153291517D01*
X66519685Y-153224478D01*
X66572489Y-153178723D01*
X66641647Y-153168779D01*
X66685997Y-153184128D01*
X66883303Y-153298043D01*
X66883305Y-153298043D01*
X66883309Y-153298046D01*
X67125571Y-153398394D01*
X67125581Y-153398398D01*
X67378884Y-153466270D01*
X67638880Y-153500500D01*
X67638887Y-153500500D01*
X67901113Y-153500500D01*
X67901120Y-153500500D01*
X68161116Y-153466270D01*
X68414419Y-153398398D01*
X68656697Y-153298043D01*
X68883803Y-153166924D01*
X69091851Y-153007282D01*
X69091855Y-153007277D01*
X69091860Y-153007274D01*
X69277274Y-152821860D01*
X69277277Y-152821855D01*
X69277282Y-152821851D01*
X69436924Y-152613803D01*
X69568043Y-152386697D01*
X69668398Y-152144419D01*
X69736270Y-151891116D01*
X69770500Y-151631120D01*
X69770500Y-151368880D01*
X69770499Y-151368872D01*
X81999500Y-151368872D01*
X81999500Y-151631127D01*
X82021012Y-151794515D01*
X82033730Y-151891116D01*
X82062696Y-151999219D01*
X82101602Y-152144418D01*
X82101605Y-152144428D01*
X82201953Y-152386690D01*
X82201958Y-152386700D01*
X82333075Y-152613803D01*
X82492718Y-152821851D01*
X82492726Y-152821860D01*
X82678140Y-153007274D01*
X82678148Y-153007281D01*
X82886196Y-153166924D01*
X83113299Y-153298041D01*
X83113309Y-153298046D01*
X83355571Y-153398394D01*
X83355581Y-153398398D01*
X83608884Y-153466270D01*
X83868880Y-153500500D01*
X83868887Y-153500500D01*
X84131113Y-153500500D01*
X84131120Y-153500500D01*
X84391116Y-153466270D01*
X84644419Y-153398398D01*
X84886697Y-153298043D01*
X85113803Y-153166924D01*
X85321851Y-153007282D01*
X85321855Y-153007277D01*
X85321860Y-153007274D01*
X85507274Y-152821860D01*
X85507277Y-152821855D01*
X85507282Y-152821851D01*
X85666924Y-152613803D01*
X85798043Y-152386697D01*
X85898398Y-152144419D01*
X85966270Y-151891116D01*
X86000500Y-151631120D01*
X86000500Y-151368880D01*
X85966270Y-151108884D01*
X85898398Y-150855581D01*
X85898204Y-150855113D01*
X85798046Y-150613309D01*
X85798041Y-150613299D01*
X85666924Y-150386196D01*
X85507281Y-150178148D01*
X85507274Y-150178140D01*
X85321860Y-149992726D01*
X85321851Y-149992718D01*
X85228587Y-149921153D01*
X88699500Y-149921153D01*
X88699500Y-150078846D01*
X88730261Y-150233489D01*
X88730264Y-150233501D01*
X88790602Y-150379172D01*
X88790609Y-150379185D01*
X88878210Y-150510288D01*
X88878213Y-150510292D01*
X88989707Y-150621786D01*
X88989711Y-150621789D01*
X89120814Y-150709390D01*
X89120827Y-150709397D01*
X89266498Y-150769735D01*
X89266503Y-150769737D01*
X89421153Y-150800499D01*
X89421156Y-150800500D01*
X89444478Y-150800500D01*
X89511517Y-150820185D01*
X89557272Y-150872989D01*
X89567216Y-150942147D01*
X89554963Y-150980794D01*
X89544782Y-151000773D01*
X89481522Y-151195465D01*
X89449500Y-151397648D01*
X89449500Y-151602351D01*
X89481522Y-151804534D01*
X89544781Y-151999223D01*
X89637715Y-152181613D01*
X89758028Y-152347213D01*
X89902786Y-152491971D01*
X90057749Y-152604556D01*
X90068390Y-152612287D01*
X90184607Y-152671503D01*
X90250776Y-152705218D01*
X90250778Y-152705218D01*
X90250781Y-152705220D01*
X90355137Y-152739127D01*
X90445465Y-152768477D01*
X90546557Y-152784488D01*
X90647648Y-152800500D01*
X90647649Y-152800500D01*
X90852351Y-152800500D01*
X90852352Y-152800500D01*
X91054534Y-152768477D01*
X91249219Y-152705220D01*
X91431610Y-152612287D01*
X91524590Y-152544732D01*
X91597213Y-152491971D01*
X91597215Y-152491968D01*
X91597219Y-152491966D01*
X91741966Y-152347219D01*
X91741968Y-152347215D01*
X91741971Y-152347213D01*
X91794732Y-152274590D01*
X91862287Y-152181610D01*
X91955220Y-151999219D01*
X92018477Y-151804534D01*
X92050500Y-151602352D01*
X92050500Y-151397648D01*
X92018477Y-151195466D01*
X92010117Y-151169738D01*
X91990511Y-151109397D01*
X91955220Y-151000781D01*
X91925344Y-150942147D01*
X91906581Y-150905321D01*
X91890107Y-150872989D01*
X91880999Y-150855113D01*
X93265540Y-150855113D01*
X93265540Y-151012806D01*
X93296301Y-151167449D01*
X93296304Y-151167461D01*
X93356642Y-151313132D01*
X93356649Y-151313145D01*
X93444250Y-151444248D01*
X93444253Y-151444252D01*
X93555747Y-151555746D01*
X93555751Y-151555749D01*
X93686854Y-151643350D01*
X93686867Y-151643357D01*
X93804033Y-151691888D01*
X93832543Y-151703697D01*
X93987193Y-151734459D01*
X93987196Y-151734460D01*
X93987198Y-151734460D01*
X94144884Y-151734460D01*
X94144885Y-151734459D01*
X94299537Y-151703697D01*
X94310008Y-151699359D01*
X94379475Y-151691888D01*
X94441955Y-151723161D01*
X94477610Y-151783248D01*
X94479935Y-151794515D01*
X94481521Y-151804528D01*
X94481523Y-151804534D01*
X94544780Y-151999219D01*
X94618763Y-152144419D01*
X94637715Y-152181613D01*
X94758028Y-152347213D01*
X94902786Y-152491971D01*
X95057749Y-152604556D01*
X95068390Y-152612287D01*
X95184607Y-152671503D01*
X95250776Y-152705218D01*
X95250778Y-152705218D01*
X95250781Y-152705220D01*
X95355137Y-152739127D01*
X95445465Y-152768477D01*
X95546557Y-152784488D01*
X95647648Y-152800500D01*
X95647649Y-152800500D01*
X95852351Y-152800500D01*
X95852352Y-152800500D01*
X96054534Y-152768477D01*
X96249219Y-152705220D01*
X96431610Y-152612287D01*
X96524590Y-152544732D01*
X96597213Y-152491971D01*
X96597215Y-152491968D01*
X96597219Y-152491966D01*
X96741966Y-152347219D01*
X96741968Y-152347215D01*
X96741971Y-152347213D01*
X96794732Y-152274590D01*
X96862287Y-152181610D01*
X96955220Y-151999219D01*
X97018477Y-151804534D01*
X97050500Y-151602352D01*
X97050500Y-151397648D01*
X97018477Y-151195466D01*
X97010117Y-151169738D01*
X96955218Y-151000776D01*
X96909111Y-150910288D01*
X96862287Y-150818390D01*
X96826939Y-150769737D01*
X96741971Y-150652786D01*
X96597219Y-150508034D01*
X96481102Y-150423671D01*
X96469696Y-150415384D01*
X96469695Y-150415382D01*
X96431613Y-150387715D01*
X96431612Y-150387714D01*
X96431610Y-150387713D01*
X96374653Y-150358691D01*
X96300981Y-150321153D01*
X109199500Y-150321153D01*
X109199500Y-150478846D01*
X109230261Y-150633489D01*
X109230264Y-150633501D01*
X109290602Y-150779172D01*
X109290609Y-150779185D01*
X109378210Y-150910288D01*
X109378213Y-150910292D01*
X109489707Y-151021786D01*
X109489711Y-151021789D01*
X109620814Y-151109390D01*
X109620827Y-151109397D01*
X109761008Y-151167461D01*
X109766503Y-151169737D01*
X109895846Y-151195465D01*
X109921153Y-151200499D01*
X109921156Y-151200500D01*
X109921158Y-151200500D01*
X110078844Y-151200500D01*
X110078845Y-151200499D01*
X110233497Y-151169737D01*
X110379179Y-151109394D01*
X110510289Y-151021789D01*
X110621789Y-150910289D01*
X110709394Y-150779179D01*
X110769737Y-150633497D01*
X110800500Y-150478842D01*
X110800500Y-150321158D01*
X110800500Y-150321155D01*
X110800499Y-150321153D01*
X110781287Y-150224569D01*
X110769737Y-150166503D01*
X110733426Y-150078839D01*
X110709397Y-150020827D01*
X110709390Y-150020814D01*
X110621789Y-149889711D01*
X110621786Y-149889707D01*
X110510292Y-149778213D01*
X110510288Y-149778210D01*
X110379185Y-149690609D01*
X110379172Y-149690602D01*
X110233501Y-149630264D01*
X110233489Y-149630261D01*
X110078845Y-149599500D01*
X110078842Y-149599500D01*
X109921158Y-149599500D01*
X109921155Y-149599500D01*
X109766510Y-149630261D01*
X109766498Y-149630264D01*
X109620827Y-149690602D01*
X109620814Y-149690609D01*
X109489711Y-149778210D01*
X109489707Y-149778213D01*
X109378213Y-149889707D01*
X109378210Y-149889711D01*
X109290609Y-150020814D01*
X109290602Y-150020827D01*
X109230264Y-150166498D01*
X109230261Y-150166510D01*
X109199500Y-150321153D01*
X96300981Y-150321153D01*
X96249223Y-150294781D01*
X96054534Y-150231522D01*
X95879995Y-150203878D01*
X95852352Y-150199500D01*
X95647648Y-150199500D01*
X95623329Y-150203351D01*
X95445465Y-150231522D01*
X95250776Y-150294781D01*
X95068390Y-150387712D01*
X94900361Y-150509792D01*
X94834554Y-150533271D01*
X94766500Y-150517445D01*
X94724374Y-150478364D01*
X94687829Y-150423671D01*
X94687826Y-150423667D01*
X94576332Y-150312173D01*
X94576328Y-150312170D01*
X94445225Y-150224569D01*
X94445212Y-150224562D01*
X94299541Y-150164224D01*
X94299529Y-150164221D01*
X94144885Y-150133460D01*
X94144882Y-150133460D01*
X93987198Y-150133460D01*
X93987195Y-150133460D01*
X93832550Y-150164221D01*
X93832538Y-150164224D01*
X93686867Y-150224562D01*
X93686854Y-150224569D01*
X93555751Y-150312170D01*
X93555747Y-150312173D01*
X93444253Y-150423667D01*
X93444250Y-150423671D01*
X93356649Y-150554774D01*
X93356642Y-150554787D01*
X93296304Y-150700458D01*
X93296301Y-150700470D01*
X93265540Y-150855113D01*
X91880999Y-150855113D01*
X91862287Y-150818390D01*
X91826939Y-150769737D01*
X91741971Y-150652786D01*
X91597213Y-150508028D01*
X91431613Y-150387715D01*
X91431612Y-150387714D01*
X91431610Y-150387713D01*
X91374653Y-150358691D01*
X91249223Y-150294781D01*
X91054534Y-150231522D01*
X90879995Y-150203878D01*
X90852352Y-150199500D01*
X90647648Y-150199500D01*
X90544101Y-150215900D01*
X90440654Y-150232285D01*
X90440305Y-150230082D01*
X90379710Y-150226948D01*
X90322961Y-150186187D01*
X90297258Y-150121217D01*
X90299127Y-150085741D01*
X90300500Y-150078842D01*
X90300500Y-149921158D01*
X90300500Y-149921155D01*
X90300499Y-149921153D01*
X90280581Y-149821018D01*
X90269737Y-149766503D01*
X90246082Y-149709394D01*
X90209397Y-149620827D01*
X90209390Y-149620814D01*
X90121789Y-149489711D01*
X90121786Y-149489707D01*
X90010292Y-149378213D01*
X90010288Y-149378210D01*
X89879185Y-149290609D01*
X89879172Y-149290602D01*
X89733501Y-149230264D01*
X89733489Y-149230261D01*
X89578845Y-149199500D01*
X89578842Y-149199500D01*
X89421158Y-149199500D01*
X89421155Y-149199500D01*
X89266510Y-149230261D01*
X89266498Y-149230264D01*
X89120827Y-149290602D01*
X89120814Y-149290609D01*
X88989711Y-149378210D01*
X88989707Y-149378213D01*
X88878213Y-149489707D01*
X88878210Y-149489711D01*
X88790609Y-149620814D01*
X88790602Y-149620827D01*
X88730264Y-149766498D01*
X88730261Y-149766510D01*
X88699500Y-149921153D01*
X85228587Y-149921153D01*
X85113803Y-149833075D01*
X84886700Y-149701958D01*
X84886690Y-149701953D01*
X84644428Y-149601605D01*
X84644421Y-149601603D01*
X84644419Y-149601602D01*
X84391116Y-149533730D01*
X84333339Y-149526123D01*
X84131127Y-149499500D01*
X84131120Y-149499500D01*
X83868880Y-149499500D01*
X83868872Y-149499500D01*
X83637772Y-149529926D01*
X83608884Y-149533730D01*
X83474500Y-149569738D01*
X83355581Y-149601602D01*
X83355571Y-149601605D01*
X83113309Y-149701953D01*
X83113304Y-149701956D01*
X82907080Y-149821018D01*
X82907068Y-149821025D01*
X82886197Y-149833076D01*
X82858083Y-149854648D01*
X82858055Y-149854668D01*
X82678148Y-149992718D01*
X82492718Y-150178148D01*
X82333075Y-150386196D01*
X82201958Y-150613299D01*
X82201953Y-150613309D01*
X82101605Y-150855571D01*
X82101602Y-150855581D01*
X82033730Y-151108884D01*
X82029926Y-151137772D01*
X81999500Y-151368872D01*
X69770499Y-151368872D01*
X69736270Y-151108884D01*
X69668398Y-150855581D01*
X69668204Y-150855113D01*
X69568046Y-150613309D01*
X69568041Y-150613299D01*
X69436924Y-150386196D01*
X69277281Y-150178148D01*
X69277274Y-150178140D01*
X69091860Y-149992726D01*
X69091851Y-149992718D01*
X68883803Y-149833075D01*
X68656700Y-149701958D01*
X68656690Y-149701953D01*
X68414428Y-149601605D01*
X68414421Y-149601603D01*
X68414419Y-149601602D01*
X68161116Y-149533730D01*
X68103339Y-149526123D01*
X67901127Y-149499500D01*
X67901120Y-149499500D01*
X67638880Y-149499500D01*
X67638872Y-149499500D01*
X67407772Y-149529926D01*
X67378884Y-149533730D01*
X67244500Y-149569738D01*
X67125581Y-149601602D01*
X67125571Y-149601605D01*
X66883309Y-149701953D01*
X66883304Y-149701956D01*
X66685999Y-149815869D01*
X66618099Y-149832341D01*
X66552072Y-149809488D01*
X66508882Y-149754566D01*
X66500000Y-149708481D01*
X66500000Y-148921153D01*
X81449500Y-148921153D01*
X81449500Y-149078846D01*
X81480261Y-149233489D01*
X81480264Y-149233501D01*
X81540602Y-149379172D01*
X81540609Y-149379185D01*
X81628210Y-149510288D01*
X81628213Y-149510292D01*
X81739707Y-149621786D01*
X81739711Y-149621789D01*
X81870814Y-149709390D01*
X81870827Y-149709397D01*
X82008683Y-149766498D01*
X82016503Y-149769737D01*
X82171153Y-149800499D01*
X82171156Y-149800500D01*
X82171158Y-149800500D01*
X82328844Y-149800500D01*
X82328845Y-149800499D01*
X82483497Y-149769737D01*
X82629179Y-149709394D01*
X82760289Y-149621789D01*
X82871789Y-149510289D01*
X82959394Y-149379179D01*
X83019737Y-149233497D01*
X83050500Y-149078842D01*
X83050500Y-148921158D01*
X83050500Y-148921155D01*
X83050499Y-148921153D01*
X83019737Y-148766503D01*
X82980242Y-148671153D01*
X93449500Y-148671153D01*
X93449500Y-148828846D01*
X93480261Y-148983489D01*
X93480264Y-148983501D01*
X93540602Y-149129172D01*
X93540609Y-149129185D01*
X93628210Y-149260288D01*
X93628213Y-149260292D01*
X93739707Y-149371786D01*
X93739711Y-149371789D01*
X93870814Y-149459390D01*
X93870827Y-149459397D01*
X94016498Y-149519735D01*
X94016503Y-149519737D01*
X94171153Y-149550499D01*
X94171156Y-149550500D01*
X94171158Y-149550500D01*
X94328844Y-149550500D01*
X94328845Y-149550499D01*
X94483497Y-149519737D01*
X94629179Y-149459394D01*
X94760289Y-149371789D01*
X94871789Y-149260289D01*
X94959394Y-149129179D01*
X95019737Y-148983497D01*
X95050500Y-148828842D01*
X95050500Y-148671158D01*
X95050500Y-148671155D01*
X95050499Y-148671153D01*
X95029684Y-148566510D01*
X95019737Y-148516503D01*
X95017163Y-148510288D01*
X94959397Y-148370827D01*
X94959390Y-148370814D01*
X94871789Y-148239711D01*
X94871786Y-148239707D01*
X94760292Y-148128213D01*
X94760288Y-148128210D01*
X94629185Y-148040609D01*
X94629173Y-148040602D01*
X94602674Y-148029627D01*
X94483501Y-147980264D01*
X94483489Y-147980261D01*
X94328845Y-147949500D01*
X94328842Y-147949500D01*
X94171158Y-147949500D01*
X94171155Y-147949500D01*
X94016510Y-147980261D01*
X94016498Y-147980264D01*
X93870827Y-148040602D01*
X93870814Y-148040609D01*
X93739711Y-148128210D01*
X93739707Y-148128213D01*
X93628213Y-148239707D01*
X93628210Y-148239711D01*
X93540609Y-148370814D01*
X93540602Y-148370827D01*
X93480264Y-148516498D01*
X93480261Y-148516510D01*
X93449500Y-148671153D01*
X82980242Y-148671153D01*
X82959794Y-148621786D01*
X82959397Y-148620827D01*
X82959390Y-148620814D01*
X82871789Y-148489711D01*
X82871786Y-148489707D01*
X82760292Y-148378213D01*
X82760288Y-148378210D01*
X82629185Y-148290609D01*
X82629172Y-148290602D01*
X82483501Y-148230264D01*
X82483489Y-148230261D01*
X82328845Y-148199500D01*
X82328842Y-148199500D01*
X82171158Y-148199500D01*
X82171155Y-148199500D01*
X82016510Y-148230261D01*
X82016498Y-148230264D01*
X81870827Y-148290602D01*
X81870814Y-148290609D01*
X81739711Y-148378210D01*
X81739707Y-148378213D01*
X81628213Y-148489707D01*
X81628210Y-148489711D01*
X81540609Y-148620814D01*
X81540602Y-148620827D01*
X81480264Y-148766498D01*
X81480261Y-148766510D01*
X81449500Y-148921153D01*
X66500000Y-148921153D01*
X66500000Y-147671153D01*
X69999500Y-147671153D01*
X69999500Y-147828846D01*
X70030261Y-147983489D01*
X70030264Y-147983501D01*
X70090602Y-148129172D01*
X70090609Y-148129185D01*
X70178210Y-148260288D01*
X70178213Y-148260292D01*
X70289707Y-148371786D01*
X70289711Y-148371789D01*
X70420814Y-148459390D01*
X70420827Y-148459397D01*
X70558683Y-148516498D01*
X70566503Y-148519737D01*
X70721153Y-148550499D01*
X70721156Y-148550500D01*
X70721158Y-148550500D01*
X70878844Y-148550500D01*
X70878845Y-148550499D01*
X71033497Y-148519737D01*
X71179179Y-148459394D01*
X71310289Y-148371789D01*
X71421789Y-148260289D01*
X71509394Y-148129179D01*
X71569737Y-147983497D01*
X71582138Y-147921153D01*
X96949500Y-147921153D01*
X96949500Y-148078846D01*
X96980261Y-148233489D01*
X96980264Y-148233501D01*
X97040602Y-148379172D01*
X97040609Y-148379185D01*
X97128210Y-148510288D01*
X97128213Y-148510292D01*
X97239707Y-148621786D01*
X97239711Y-148621789D01*
X97370814Y-148709390D01*
X97370827Y-148709397D01*
X97508683Y-148766498D01*
X97516503Y-148769737D01*
X97671153Y-148800499D01*
X97671156Y-148800500D01*
X97671158Y-148800500D01*
X97828844Y-148800500D01*
X97828845Y-148800499D01*
X97983497Y-148769737D01*
X98121635Y-148712519D01*
X98129172Y-148709397D01*
X98129172Y-148709396D01*
X98129179Y-148709394D01*
X98186411Y-148671153D01*
X99449500Y-148671153D01*
X99449500Y-148828846D01*
X99480261Y-148983489D01*
X99480264Y-148983501D01*
X99540602Y-149129172D01*
X99540609Y-149129185D01*
X99628210Y-149260288D01*
X99628213Y-149260292D01*
X99739707Y-149371786D01*
X99739711Y-149371789D01*
X99870814Y-149459390D01*
X99870827Y-149459397D01*
X100016498Y-149519735D01*
X100016503Y-149519737D01*
X100171153Y-149550499D01*
X100171156Y-149550500D01*
X100171158Y-149550500D01*
X100328844Y-149550500D01*
X100328845Y-149550499D01*
X100483497Y-149519737D01*
X100629179Y-149459394D01*
X100760289Y-149371789D01*
X100871789Y-149260289D01*
X100959394Y-149129179D01*
X101019737Y-148983497D01*
X101050500Y-148828842D01*
X101050500Y-148721153D01*
X103199500Y-148721153D01*
X103199500Y-148878846D01*
X103230261Y-149033489D01*
X103230264Y-149033501D01*
X103290602Y-149179172D01*
X103290609Y-149179185D01*
X103378210Y-149310288D01*
X103378213Y-149310292D01*
X103489707Y-149421786D01*
X103489711Y-149421789D01*
X103620814Y-149509390D01*
X103620827Y-149509397D01*
X103720060Y-149550500D01*
X103766503Y-149569737D01*
X103916131Y-149599500D01*
X103921153Y-149600499D01*
X103921156Y-149600500D01*
X103921158Y-149600500D01*
X104078844Y-149600500D01*
X104078845Y-149600499D01*
X104233497Y-149569737D01*
X104379179Y-149509394D01*
X104510289Y-149421789D01*
X104621789Y-149310289D01*
X104709394Y-149179179D01*
X104769737Y-149033497D01*
X104800500Y-148878842D01*
X104800500Y-148721158D01*
X104800500Y-148721155D01*
X104800499Y-148721153D01*
X104780734Y-148621789D01*
X104769737Y-148566503D01*
X104769735Y-148566498D01*
X104707063Y-148415192D01*
X104709657Y-148414117D01*
X104697904Y-148357466D01*
X104722950Y-148292240D01*
X104774042Y-148252942D01*
X104879179Y-148209394D01*
X105010289Y-148121789D01*
X105121789Y-148010289D01*
X105209394Y-147879179D01*
X105269737Y-147733497D01*
X105292083Y-147621158D01*
X105292084Y-147621153D01*
X107699500Y-147621153D01*
X107699500Y-147778846D01*
X107730261Y-147933489D01*
X107730264Y-147933501D01*
X107790602Y-148079172D01*
X107790609Y-148079185D01*
X107878210Y-148210288D01*
X107878213Y-148210292D01*
X107989707Y-148321786D01*
X107989711Y-148321789D01*
X108120814Y-148409390D01*
X108120827Y-148409397D01*
X108266498Y-148469735D01*
X108266503Y-148469737D01*
X108421153Y-148500499D01*
X108421156Y-148500500D01*
X108421158Y-148500500D01*
X108578844Y-148500500D01*
X108578845Y-148500499D01*
X108733497Y-148469737D01*
X108851592Y-148420821D01*
X108879172Y-148409397D01*
X108879172Y-148409396D01*
X108879179Y-148409394D01*
X109010289Y-148321789D01*
X109121789Y-148210289D01*
X109209394Y-148079179D01*
X109269737Y-147933497D01*
X109300500Y-147778842D01*
X109300500Y-147621158D01*
X109300500Y-147621155D01*
X109300499Y-147621153D01*
X109294476Y-147590874D01*
X109269737Y-147466503D01*
X109250955Y-147421158D01*
X109209397Y-147320827D01*
X109209390Y-147320814D01*
X109121789Y-147189711D01*
X109121786Y-147189707D01*
X109010292Y-147078213D01*
X109010288Y-147078210D01*
X108879185Y-146990609D01*
X108879172Y-146990602D01*
X108733501Y-146930264D01*
X108733489Y-146930261D01*
X108578845Y-146899500D01*
X108578842Y-146899500D01*
X108421158Y-146899500D01*
X108421155Y-146899500D01*
X108266510Y-146930261D01*
X108266498Y-146930264D01*
X108120827Y-146990602D01*
X108120814Y-146990609D01*
X107989711Y-147078210D01*
X107989707Y-147078213D01*
X107878213Y-147189707D01*
X107878210Y-147189711D01*
X107790609Y-147320814D01*
X107790602Y-147320827D01*
X107730264Y-147466498D01*
X107730261Y-147466510D01*
X107699500Y-147621153D01*
X105292084Y-147621153D01*
X105298107Y-147590875D01*
X105298107Y-147590874D01*
X105300500Y-147578844D01*
X105300500Y-147421155D01*
X105300499Y-147421153D01*
X105280543Y-147320827D01*
X105269737Y-147266503D01*
X105268456Y-147263410D01*
X105209397Y-147120827D01*
X105209390Y-147120814D01*
X105121789Y-146989711D01*
X105121786Y-146989707D01*
X105010292Y-146878213D01*
X105010288Y-146878210D01*
X104879185Y-146790609D01*
X104879172Y-146790602D01*
X104733501Y-146730264D01*
X104733489Y-146730261D01*
X104578845Y-146699500D01*
X104578842Y-146699500D01*
X104421158Y-146699500D01*
X104421155Y-146699500D01*
X104266510Y-146730261D01*
X104266498Y-146730264D01*
X104120827Y-146790602D01*
X104120814Y-146790609D01*
X103989711Y-146878210D01*
X103989707Y-146878213D01*
X103878213Y-146989707D01*
X103878210Y-146989711D01*
X103790609Y-147120814D01*
X103790602Y-147120827D01*
X103730264Y-147266498D01*
X103730261Y-147266510D01*
X103699500Y-147421153D01*
X103699500Y-147578846D01*
X103730261Y-147733489D01*
X103730264Y-147733501D01*
X103792937Y-147884808D01*
X103790374Y-147885869D01*
X103802080Y-147942722D01*
X103776934Y-148007910D01*
X103725955Y-148047058D01*
X103620823Y-148090604D01*
X103620814Y-148090609D01*
X103489711Y-148178210D01*
X103489707Y-148178213D01*
X103378213Y-148289707D01*
X103378210Y-148289711D01*
X103290609Y-148420814D01*
X103290602Y-148420827D01*
X103230264Y-148566498D01*
X103230261Y-148566510D01*
X103199500Y-148721153D01*
X101050500Y-148721153D01*
X101050500Y-148671158D01*
X101050500Y-148671155D01*
X101050499Y-148671153D01*
X101029684Y-148566510D01*
X101019737Y-148516503D01*
X101017163Y-148510288D01*
X100959397Y-148370827D01*
X100959390Y-148370814D01*
X100871789Y-148239711D01*
X100871786Y-148239707D01*
X100760292Y-148128213D01*
X100760288Y-148128210D01*
X100629185Y-148040609D01*
X100629172Y-148040602D01*
X100483501Y-147980264D01*
X100483489Y-147980261D01*
X100328845Y-147949500D01*
X100328842Y-147949500D01*
X100171158Y-147949500D01*
X100171155Y-147949500D01*
X100016510Y-147980261D01*
X100016498Y-147980264D01*
X99870827Y-148040602D01*
X99870814Y-148040609D01*
X99739711Y-148128210D01*
X99739707Y-148128213D01*
X99628213Y-148239707D01*
X99628210Y-148239711D01*
X99540609Y-148370814D01*
X99540602Y-148370827D01*
X99480264Y-148516498D01*
X99480261Y-148516510D01*
X99449500Y-148671153D01*
X98186411Y-148671153D01*
X98260289Y-148621789D01*
X98261264Y-148620814D01*
X98304694Y-148577385D01*
X98371786Y-148510292D01*
X98371789Y-148510289D01*
X98459394Y-148379179D01*
X98462854Y-148370827D01*
X98473067Y-148346166D01*
X98519737Y-148233497D01*
X98550500Y-148078842D01*
X98550500Y-147921158D01*
X98550500Y-147921155D01*
X98550499Y-147921153D01*
X98519737Y-147766503D01*
X98459534Y-147621158D01*
X98459397Y-147620827D01*
X98459390Y-147620814D01*
X98371789Y-147489711D01*
X98371786Y-147489707D01*
X98260292Y-147378213D01*
X98260288Y-147378210D01*
X98129185Y-147290609D01*
X98129172Y-147290602D01*
X97983501Y-147230264D01*
X97983489Y-147230261D01*
X97828845Y-147199500D01*
X97828842Y-147199500D01*
X97671158Y-147199500D01*
X97671155Y-147199500D01*
X97516510Y-147230261D01*
X97516498Y-147230264D01*
X97370827Y-147290602D01*
X97370814Y-147290609D01*
X97239711Y-147378210D01*
X97239707Y-147378213D01*
X97128213Y-147489707D01*
X97128210Y-147489711D01*
X97040609Y-147620814D01*
X97040602Y-147620827D01*
X96980264Y-147766498D01*
X96980261Y-147766510D01*
X96949500Y-147921153D01*
X71582138Y-147921153D01*
X71600500Y-147828842D01*
X71600500Y-147671158D01*
X71600500Y-147671155D01*
X71600499Y-147671153D01*
X71590486Y-147620814D01*
X71569737Y-147516503D01*
X71569735Y-147516498D01*
X71509397Y-147370827D01*
X71509390Y-147370814D01*
X71421789Y-147239711D01*
X71421786Y-147239707D01*
X71310292Y-147128213D01*
X71310288Y-147128210D01*
X71179185Y-147040609D01*
X71179172Y-147040602D01*
X71033501Y-146980264D01*
X71033489Y-146980261D01*
X70878845Y-146949500D01*
X70878842Y-146949500D01*
X70721158Y-146949500D01*
X70721155Y-146949500D01*
X70566510Y-146980261D01*
X70566498Y-146980264D01*
X70420827Y-147040602D01*
X70420814Y-147040609D01*
X70289711Y-147128210D01*
X70289707Y-147128213D01*
X70178213Y-147239707D01*
X70178210Y-147239711D01*
X70090609Y-147370814D01*
X70090602Y-147370827D01*
X70030264Y-147516498D01*
X70030261Y-147516510D01*
X69999500Y-147671153D01*
X66500000Y-147671153D01*
X66500000Y-146941517D01*
X66519685Y-146874478D01*
X66572489Y-146828723D01*
X66641647Y-146818779D01*
X66685997Y-146834128D01*
X66883303Y-146948043D01*
X66883305Y-146948043D01*
X66883309Y-146948046D01*
X67125571Y-147048394D01*
X67125581Y-147048398D01*
X67378884Y-147116270D01*
X67638880Y-147150500D01*
X67638887Y-147150500D01*
X67901113Y-147150500D01*
X67901120Y-147150500D01*
X68161116Y-147116270D01*
X68414419Y-147048398D01*
X68629303Y-146959390D01*
X68656690Y-146948046D01*
X68656691Y-146948045D01*
X68656697Y-146948043D01*
X68883803Y-146816924D01*
X69091851Y-146657282D01*
X69091855Y-146657277D01*
X69091860Y-146657274D01*
X69277274Y-146471860D01*
X69277277Y-146471855D01*
X69277282Y-146471851D01*
X69436924Y-146263803D01*
X69568043Y-146036697D01*
X69668398Y-145794419D01*
X69701427Y-145671153D01*
X80299500Y-145671153D01*
X80299500Y-145828846D01*
X80330261Y-145983489D01*
X80330264Y-145983501D01*
X80390602Y-146129172D01*
X80390609Y-146129185D01*
X80478210Y-146260288D01*
X80478213Y-146260292D01*
X80589707Y-146371786D01*
X80589711Y-146371789D01*
X80720814Y-146459390D01*
X80720827Y-146459397D01*
X80866498Y-146519735D01*
X80866503Y-146519737D01*
X81021153Y-146550499D01*
X81021156Y-146550500D01*
X81021158Y-146550500D01*
X81178844Y-146550500D01*
X81178845Y-146550499D01*
X81333497Y-146519737D01*
X81479179Y-146459394D01*
X81610289Y-146371789D01*
X81721789Y-146260289D01*
X81809394Y-146129179D01*
X81812854Y-146120827D01*
X81847704Y-146036690D01*
X81869737Y-145983497D01*
X81890620Y-145878510D01*
X81923004Y-145816600D01*
X81983720Y-145782026D01*
X82053489Y-145785765D01*
X82110162Y-145826631D01*
X82126798Y-145855249D01*
X82201953Y-146036690D01*
X82201958Y-146036700D01*
X82333075Y-146263803D01*
X82492718Y-146471851D01*
X82492726Y-146471860D01*
X82678140Y-146657274D01*
X82678148Y-146657281D01*
X82886196Y-146816924D01*
X83113299Y-146948041D01*
X83113309Y-146948046D01*
X83355571Y-147048394D01*
X83355581Y-147048398D01*
X83608884Y-147116270D01*
X83868880Y-147150500D01*
X83868887Y-147150500D01*
X84131113Y-147150500D01*
X84131120Y-147150500D01*
X84391116Y-147116270D01*
X84644419Y-147048398D01*
X84859303Y-146959390D01*
X84886690Y-146948046D01*
X84886691Y-146948045D01*
X84886697Y-146948043D01*
X85113803Y-146816924D01*
X85321851Y-146657282D01*
X85321855Y-146657277D01*
X85321860Y-146657274D01*
X85507274Y-146471860D01*
X85507277Y-146471855D01*
X85507282Y-146471851D01*
X85666924Y-146263803D01*
X85720415Y-146171153D01*
X87199500Y-146171153D01*
X87199500Y-146328846D01*
X87230261Y-146483489D01*
X87230264Y-146483501D01*
X87290602Y-146629172D01*
X87290609Y-146629185D01*
X87378210Y-146760288D01*
X87378213Y-146760292D01*
X87489707Y-146871786D01*
X87489711Y-146871789D01*
X87620814Y-146959390D01*
X87620827Y-146959397D01*
X87766498Y-147019735D01*
X87766503Y-147019737D01*
X87910586Y-147048397D01*
X87921153Y-147050499D01*
X87921156Y-147050500D01*
X87921158Y-147050500D01*
X88078844Y-147050500D01*
X88078845Y-147050499D01*
X88233497Y-147019737D01*
X88379179Y-146959394D01*
X88510289Y-146871789D01*
X88621789Y-146760289D01*
X88709394Y-146629179D01*
X88769737Y-146483497D01*
X88782138Y-146421153D01*
X89949500Y-146421153D01*
X89949500Y-146578846D01*
X89980261Y-146733489D01*
X89980264Y-146733501D01*
X90040602Y-146879172D01*
X90040609Y-146879185D01*
X90128210Y-147010288D01*
X90128213Y-147010292D01*
X90239707Y-147121786D01*
X90239711Y-147121789D01*
X90370814Y-147209390D01*
X90370827Y-147209397D01*
X90444013Y-147239711D01*
X90516503Y-147269737D01*
X90671153Y-147300499D01*
X90671156Y-147300500D01*
X90671158Y-147300500D01*
X90828844Y-147300500D01*
X90828845Y-147300499D01*
X90983497Y-147269737D01*
X91129179Y-147209394D01*
X91260289Y-147121789D01*
X91371789Y-147010289D01*
X91459394Y-146879179D01*
X91519737Y-146733497D01*
X91550500Y-146578842D01*
X91550500Y-146421158D01*
X91549241Y-146414828D01*
X95299500Y-146414828D01*
X95299500Y-146572521D01*
X95330261Y-146727164D01*
X95330264Y-146727176D01*
X95390602Y-146872847D01*
X95390609Y-146872860D01*
X95478210Y-147003963D01*
X95478213Y-147003967D01*
X95589707Y-147115461D01*
X95589711Y-147115464D01*
X95720814Y-147203065D01*
X95720827Y-147203072D01*
X95809283Y-147239711D01*
X95866503Y-147263412D01*
X96003216Y-147290606D01*
X96021153Y-147294174D01*
X96021156Y-147294175D01*
X96021158Y-147294175D01*
X96178844Y-147294175D01*
X96178845Y-147294174D01*
X96333497Y-147263412D01*
X96479179Y-147203069D01*
X96610289Y-147115464D01*
X96721789Y-147003964D01*
X96809394Y-146872854D01*
X96869737Y-146727172D01*
X96900500Y-146572517D01*
X96900500Y-146414833D01*
X96900500Y-146414830D01*
X96900499Y-146414828D01*
X96883396Y-146328846D01*
X96869737Y-146260178D01*
X96832862Y-146171153D01*
X96809397Y-146114502D01*
X96809390Y-146114489D01*
X96721789Y-145983386D01*
X96721786Y-145983382D01*
X96610292Y-145871888D01*
X96610288Y-145871885D01*
X96479185Y-145784284D01*
X96479172Y-145784277D01*
X96333501Y-145723939D01*
X96333489Y-145723936D01*
X96178845Y-145693175D01*
X96178842Y-145693175D01*
X96021158Y-145693175D01*
X96021155Y-145693175D01*
X95866510Y-145723936D01*
X95866498Y-145723939D01*
X95720827Y-145784277D01*
X95720814Y-145784284D01*
X95589711Y-145871885D01*
X95589707Y-145871888D01*
X95478213Y-145983382D01*
X95478210Y-145983386D01*
X95390609Y-146114489D01*
X95390602Y-146114502D01*
X95330264Y-146260173D01*
X95330261Y-146260185D01*
X95299500Y-146414828D01*
X91549241Y-146414828D01*
X91519737Y-146266503D01*
X91480242Y-146171153D01*
X91459397Y-146120827D01*
X91459390Y-146120814D01*
X91371789Y-145989711D01*
X91371786Y-145989707D01*
X91260292Y-145878213D01*
X91260288Y-145878210D01*
X91129185Y-145790609D01*
X91129172Y-145790602D01*
X90983501Y-145730264D01*
X90983489Y-145730261D01*
X90828845Y-145699500D01*
X90828842Y-145699500D01*
X90671158Y-145699500D01*
X90671155Y-145699500D01*
X90516510Y-145730261D01*
X90516498Y-145730264D01*
X90370827Y-145790602D01*
X90370814Y-145790609D01*
X90239711Y-145878210D01*
X90239707Y-145878213D01*
X90128213Y-145989707D01*
X90128210Y-145989711D01*
X90040609Y-146120814D01*
X90040602Y-146120827D01*
X89980264Y-146266498D01*
X89980261Y-146266510D01*
X89949500Y-146421153D01*
X88782138Y-146421153D01*
X88791958Y-146371786D01*
X88800500Y-146328844D01*
X88800500Y-146171155D01*
X88800499Y-146171153D01*
X88789228Y-146114489D01*
X88769737Y-146016503D01*
X88769735Y-146016498D01*
X88709397Y-145870827D01*
X88709390Y-145870814D01*
X88621789Y-145739711D01*
X88621786Y-145739707D01*
X88510292Y-145628213D01*
X88510288Y-145628210D01*
X88379185Y-145540609D01*
X88379172Y-145540602D01*
X88233501Y-145480264D01*
X88233489Y-145480261D01*
X88078845Y-145449500D01*
X88078842Y-145449500D01*
X87921158Y-145449500D01*
X87921155Y-145449500D01*
X87766510Y-145480261D01*
X87766498Y-145480264D01*
X87620827Y-145540602D01*
X87620814Y-145540609D01*
X87489711Y-145628210D01*
X87489707Y-145628213D01*
X87378213Y-145739707D01*
X87378210Y-145739711D01*
X87290609Y-145870814D01*
X87290602Y-145870827D01*
X87230264Y-146016498D01*
X87230261Y-146016510D01*
X87199500Y-146171153D01*
X85720415Y-146171153D01*
X85798043Y-146036697D01*
X85898398Y-145794419D01*
X85966270Y-145541116D01*
X86000500Y-145281120D01*
X86000500Y-145018880D01*
X85966270Y-144758884D01*
X85898398Y-144505581D01*
X85898394Y-144505571D01*
X85870206Y-144437519D01*
X85853072Y-144396153D01*
X91009500Y-144396153D01*
X91009500Y-144553846D01*
X91040261Y-144708489D01*
X91040264Y-144708501D01*
X91100602Y-144854172D01*
X91100609Y-144854185D01*
X91188210Y-144985288D01*
X91188213Y-144985292D01*
X91299707Y-145096786D01*
X91299711Y-145096789D01*
X91430814Y-145184390D01*
X91430827Y-145184397D01*
X91555190Y-145235909D01*
X91576503Y-145244737D01*
X91731153Y-145275499D01*
X91731156Y-145275500D01*
X91731158Y-145275500D01*
X91888844Y-145275500D01*
X91888845Y-145275499D01*
X92043497Y-145244737D01*
X92189179Y-145184394D01*
X92320289Y-145096789D01*
X92431789Y-144985289D01*
X92519394Y-144854179D01*
X92579737Y-144708497D01*
X92610500Y-144553842D01*
X92610500Y-144396158D01*
X92610500Y-144396155D01*
X92610499Y-144396153D01*
X92602560Y-144356243D01*
X92579737Y-144241503D01*
X92575081Y-144230263D01*
X92519397Y-144095827D01*
X92519390Y-144095814D01*
X92431789Y-143964711D01*
X92431786Y-143964707D01*
X92320292Y-143853213D01*
X92320288Y-143853210D01*
X92189181Y-143765607D01*
X92189176Y-143765604D01*
X92043501Y-143705264D01*
X92043489Y-143705261D01*
X91888845Y-143674500D01*
X91888842Y-143674500D01*
X91731158Y-143674500D01*
X91731155Y-143674500D01*
X91576510Y-143705261D01*
X91576498Y-143705264D01*
X91430827Y-143765602D01*
X91430814Y-143765609D01*
X91299711Y-143853210D01*
X91299707Y-143853213D01*
X91188213Y-143964707D01*
X91188210Y-143964711D01*
X91100609Y-144095814D01*
X91100602Y-144095827D01*
X91040264Y-144241498D01*
X91040261Y-144241510D01*
X91009500Y-144396153D01*
X85853072Y-144396153D01*
X85798046Y-144263309D01*
X85798041Y-144263299D01*
X85666924Y-144036196D01*
X85507281Y-143828148D01*
X85507274Y-143828140D01*
X85341338Y-143662204D01*
X96702483Y-143662204D01*
X96702483Y-143819897D01*
X96733244Y-143974540D01*
X96733247Y-143974552D01*
X96793585Y-144120223D01*
X96793592Y-144120236D01*
X96881193Y-144251339D01*
X96881196Y-144251343D01*
X96992690Y-144362837D01*
X96992694Y-144362840D01*
X97123797Y-144450441D01*
X97123810Y-144450448D01*
X97218601Y-144489711D01*
X97269486Y-144510788D01*
X97424136Y-144541550D01*
X97424139Y-144541551D01*
X97424141Y-144541551D01*
X97581827Y-144541551D01*
X97581828Y-144541550D01*
X97736480Y-144510788D01*
X97882162Y-144450445D01*
X98013272Y-144362840D01*
X98124772Y-144251340D01*
X98212377Y-144120230D01*
X98272720Y-143974548D01*
X98303483Y-143819893D01*
X98303483Y-143662209D01*
X98303483Y-143662206D01*
X98303482Y-143662204D01*
X98284038Y-143564452D01*
X98272720Y-143507554D01*
X98235944Y-143418768D01*
X98212380Y-143361878D01*
X98212373Y-143361865D01*
X98124772Y-143230762D01*
X98124769Y-143230758D01*
X98013275Y-143119264D01*
X98013270Y-143119260D01*
X98011637Y-143118169D01*
X98011635Y-143118168D01*
X97882168Y-143031660D01*
X97882155Y-143031653D01*
X97856805Y-143021153D01*
X98699500Y-143021153D01*
X98699500Y-143178846D01*
X98730261Y-143333489D01*
X98730264Y-143333501D01*
X98790602Y-143479172D01*
X98790609Y-143479185D01*
X98878210Y-143610288D01*
X98878213Y-143610292D01*
X98989707Y-143721786D01*
X98989711Y-143721789D01*
X99120814Y-143809390D01*
X99120827Y-143809397D01*
X99226603Y-143853210D01*
X99266503Y-143869737D01*
X99391804Y-143894661D01*
X99421153Y-143900499D01*
X99421156Y-143900500D01*
X99421158Y-143900500D01*
X99578844Y-143900500D01*
X99578845Y-143900499D01*
X99733497Y-143869737D01*
X99879179Y-143809394D01*
X100010289Y-143721789D01*
X100121789Y-143610289D01*
X100209394Y-143479179D01*
X100269737Y-143333497D01*
X100300500Y-143178842D01*
X100300500Y-143106420D01*
X107695838Y-143106420D01*
X107695838Y-143264113D01*
X107726599Y-143418756D01*
X107726602Y-143418768D01*
X107786940Y-143564439D01*
X107786947Y-143564452D01*
X107874548Y-143695555D01*
X107874551Y-143695559D01*
X107986045Y-143807053D01*
X107986049Y-143807056D01*
X108117152Y-143894657D01*
X108117165Y-143894664D01*
X108262836Y-143955002D01*
X108262841Y-143955004D01*
X108339158Y-143970184D01*
X108345168Y-143971380D01*
X108407079Y-144003764D01*
X108441653Y-144064480D01*
X108437914Y-144134249D01*
X108397048Y-144190922D01*
X108345170Y-144214614D01*
X108266507Y-144230261D01*
X108266498Y-144230264D01*
X108120827Y-144290602D01*
X108120814Y-144290609D01*
X107989711Y-144378210D01*
X107989707Y-144378213D01*
X107878213Y-144489707D01*
X107878210Y-144489711D01*
X107790609Y-144620814D01*
X107790602Y-144620827D01*
X107730264Y-144766498D01*
X107730261Y-144766510D01*
X107699500Y-144921153D01*
X107699500Y-145078846D01*
X107730261Y-145233489D01*
X107730264Y-145233501D01*
X107790602Y-145379172D01*
X107790609Y-145379185D01*
X107878210Y-145510288D01*
X107878213Y-145510292D01*
X107989707Y-145621786D01*
X107989711Y-145621789D01*
X108120814Y-145709390D01*
X108120827Y-145709397D01*
X108194013Y-145739711D01*
X108266503Y-145769737D01*
X108421153Y-145800499D01*
X108421156Y-145800500D01*
X108421158Y-145800500D01*
X108578844Y-145800500D01*
X108578845Y-145800499D01*
X108733497Y-145769737D01*
X108879179Y-145709394D01*
X109010289Y-145621789D01*
X109121789Y-145510289D01*
X109209394Y-145379179D01*
X109212854Y-145370827D01*
X109247905Y-145286204D01*
X109269737Y-145233497D01*
X109300500Y-145078842D01*
X109300500Y-144921158D01*
X109300500Y-144921155D01*
X109300499Y-144921153D01*
X109287177Y-144854179D01*
X109269737Y-144766503D01*
X109245712Y-144708501D01*
X109209397Y-144620827D01*
X109209390Y-144620814D01*
X109121789Y-144489711D01*
X109121786Y-144489707D01*
X109010292Y-144378213D01*
X109010288Y-144378210D01*
X108879185Y-144290609D01*
X108879172Y-144290602D01*
X108733501Y-144230264D01*
X108733491Y-144230261D01*
X108651168Y-144213886D01*
X108589257Y-144181501D01*
X108554683Y-144120785D01*
X108558423Y-144051016D01*
X108599290Y-143994344D01*
X108651169Y-143970652D01*
X108681055Y-143964707D01*
X108729835Y-143955004D01*
X108875517Y-143894661D01*
X109006627Y-143807056D01*
X109118127Y-143695556D01*
X109205732Y-143564446D01*
X109266075Y-143418764D01*
X109296838Y-143264109D01*
X109296838Y-143106425D01*
X109296838Y-143106422D01*
X109296837Y-143106420D01*
X109281966Y-143031660D01*
X109266075Y-142951770D01*
X109238397Y-142884949D01*
X109205735Y-142806094D01*
X109205728Y-142806081D01*
X109118127Y-142674978D01*
X109118124Y-142674974D01*
X109006630Y-142563480D01*
X109006626Y-142563477D01*
X108875523Y-142475876D01*
X108875510Y-142475869D01*
X108729839Y-142415531D01*
X108729827Y-142415528D01*
X108575183Y-142384767D01*
X108575180Y-142384767D01*
X108417496Y-142384767D01*
X108417493Y-142384767D01*
X108262848Y-142415528D01*
X108262836Y-142415531D01*
X108117165Y-142475869D01*
X108117152Y-142475876D01*
X107986049Y-142563477D01*
X107986045Y-142563480D01*
X107874551Y-142674974D01*
X107874548Y-142674978D01*
X107786947Y-142806081D01*
X107786940Y-142806094D01*
X107726602Y-142951765D01*
X107726599Y-142951777D01*
X107695838Y-143106420D01*
X100300500Y-143106420D01*
X100300500Y-143021158D01*
X100300500Y-143021155D01*
X100300499Y-143021153D01*
X100298259Y-143009890D01*
X100269737Y-142866503D01*
X100244715Y-142806094D01*
X100209397Y-142720827D01*
X100209390Y-142720814D01*
X100163332Y-142651884D01*
X100142454Y-142585207D01*
X100160938Y-142517827D01*
X100178749Y-142495315D01*
X100263776Y-142410289D01*
X100351381Y-142279179D01*
X100411724Y-142133497D01*
X100442487Y-141978842D01*
X100442487Y-141821158D01*
X100442487Y-141821155D01*
X100442486Y-141821153D01*
X100414246Y-141679182D01*
X100411724Y-141666503D01*
X100411722Y-141666498D01*
X100351384Y-141520827D01*
X100351377Y-141520814D01*
X100263776Y-141389711D01*
X100263773Y-141389707D01*
X100152279Y-141278213D01*
X100152275Y-141278210D01*
X100066888Y-141221156D01*
X107699500Y-141221156D01*
X107699500Y-141378849D01*
X107730261Y-141533492D01*
X107730264Y-141533504D01*
X107790602Y-141679175D01*
X107790609Y-141679188D01*
X107878210Y-141810291D01*
X107878213Y-141810295D01*
X107989707Y-141921789D01*
X107989711Y-141921792D01*
X108120814Y-142009393D01*
X108120827Y-142009400D01*
X108220053Y-142050500D01*
X108266503Y-142069740D01*
X108421153Y-142100502D01*
X108421156Y-142100503D01*
X108421158Y-142100503D01*
X108578844Y-142100503D01*
X108578845Y-142100502D01*
X108733497Y-142069740D01*
X108879179Y-142009397D01*
X109010289Y-141921792D01*
X109121789Y-141810292D01*
X109209394Y-141679182D01*
X109269737Y-141533500D01*
X109300500Y-141378845D01*
X109300500Y-141221161D01*
X109300500Y-141221158D01*
X109300499Y-141221156D01*
X109269738Y-141066513D01*
X109269737Y-141066506D01*
X109234562Y-140981585D01*
X109209397Y-140920830D01*
X109209390Y-140920817D01*
X109121789Y-140789714D01*
X109121786Y-140789710D01*
X109010292Y-140678216D01*
X109010288Y-140678213D01*
X108879185Y-140590612D01*
X108879172Y-140590605D01*
X108733501Y-140530267D01*
X108733489Y-140530264D01*
X108578845Y-140499503D01*
X108578842Y-140499503D01*
X108421158Y-140499503D01*
X108421155Y-140499503D01*
X108266510Y-140530264D01*
X108266498Y-140530267D01*
X108120827Y-140590605D01*
X108120814Y-140590612D01*
X107989711Y-140678213D01*
X107989707Y-140678216D01*
X107878213Y-140789710D01*
X107878210Y-140789714D01*
X107790609Y-140920817D01*
X107790602Y-140920830D01*
X107730264Y-141066501D01*
X107730261Y-141066513D01*
X107699500Y-141221156D01*
X100066888Y-141221156D01*
X100021172Y-141190609D01*
X100021159Y-141190602D01*
X99875488Y-141130264D01*
X99875476Y-141130261D01*
X99720832Y-141099500D01*
X99720829Y-141099500D01*
X99563145Y-141099500D01*
X99563142Y-141099500D01*
X99408497Y-141130261D01*
X99408485Y-141130264D01*
X99262814Y-141190602D01*
X99262801Y-141190609D01*
X99131698Y-141278210D01*
X99131694Y-141278213D01*
X99020200Y-141389707D01*
X99020197Y-141389711D01*
X98932596Y-141520814D01*
X98932589Y-141520827D01*
X98872251Y-141666498D01*
X98872248Y-141666510D01*
X98841487Y-141821153D01*
X98841487Y-141978846D01*
X98872248Y-142133489D01*
X98872251Y-142133501D01*
X98932589Y-142279172D01*
X98932596Y-142279185D01*
X98978654Y-142348115D01*
X98999532Y-142414793D01*
X98981047Y-142482173D01*
X98963234Y-142504687D01*
X98878210Y-142589711D01*
X98790609Y-142720814D01*
X98790602Y-142720827D01*
X98730264Y-142866498D01*
X98730261Y-142866510D01*
X98699500Y-143021153D01*
X97856805Y-143021153D01*
X97736484Y-142971315D01*
X97736472Y-142971312D01*
X97581828Y-142940551D01*
X97581825Y-142940551D01*
X97424141Y-142940551D01*
X97424138Y-142940551D01*
X97269493Y-142971312D01*
X97269481Y-142971315D01*
X97123810Y-143031653D01*
X97123797Y-143031660D01*
X96992694Y-143119261D01*
X96992690Y-143119264D01*
X96881196Y-143230758D01*
X96881193Y-143230762D01*
X96793592Y-143361865D01*
X96793585Y-143361878D01*
X96733247Y-143507549D01*
X96733244Y-143507561D01*
X96702483Y-143662204D01*
X85341338Y-143662204D01*
X85321860Y-143642726D01*
X85321851Y-143642718D01*
X85113803Y-143483075D01*
X84886700Y-143351958D01*
X84886690Y-143351953D01*
X84644428Y-143251605D01*
X84644421Y-143251603D01*
X84644419Y-143251602D01*
X84391116Y-143183730D01*
X84333339Y-143176123D01*
X84131127Y-143149500D01*
X84131120Y-143149500D01*
X83868880Y-143149500D01*
X83868872Y-143149500D01*
X83637772Y-143179926D01*
X83608884Y-143183730D01*
X83355581Y-143251602D01*
X83355571Y-143251605D01*
X83113309Y-143351953D01*
X83113299Y-143351958D01*
X82886196Y-143483075D01*
X82678148Y-143642718D01*
X82492718Y-143828148D01*
X82333075Y-144036196D01*
X82201958Y-144263299D01*
X82201953Y-144263309D01*
X82101605Y-144505571D01*
X82101602Y-144505581D01*
X82088670Y-144553846D01*
X82033730Y-144758885D01*
X81999500Y-145018872D01*
X81999500Y-145246560D01*
X81979815Y-145313599D01*
X81927011Y-145359354D01*
X81857853Y-145369298D01*
X81794297Y-145340273D01*
X81772398Y-145315451D01*
X81721789Y-145239711D01*
X81721786Y-145239707D01*
X81610292Y-145128213D01*
X81610288Y-145128210D01*
X81479185Y-145040609D01*
X81479172Y-145040602D01*
X81333501Y-144980264D01*
X81333489Y-144980261D01*
X81178845Y-144949500D01*
X81178842Y-144949500D01*
X81021158Y-144949500D01*
X81021155Y-144949500D01*
X80866510Y-144980261D01*
X80866498Y-144980264D01*
X80720827Y-145040602D01*
X80720814Y-145040609D01*
X80589711Y-145128210D01*
X80589707Y-145128213D01*
X80478213Y-145239707D01*
X80478210Y-145239711D01*
X80390609Y-145370814D01*
X80390602Y-145370827D01*
X80330264Y-145516498D01*
X80330261Y-145516510D01*
X80299500Y-145671153D01*
X69701427Y-145671153D01*
X69736270Y-145541116D01*
X69770500Y-145281120D01*
X69770500Y-145018880D01*
X69736270Y-144758884D01*
X69668398Y-144505581D01*
X69668394Y-144505571D01*
X69568046Y-144263309D01*
X69568041Y-144263299D01*
X69436924Y-144036196D01*
X69277281Y-143828148D01*
X69277274Y-143828140D01*
X69091860Y-143642726D01*
X69091851Y-143642718D01*
X68883803Y-143483075D01*
X68656700Y-143351958D01*
X68656690Y-143351953D01*
X68414428Y-143251605D01*
X68414421Y-143251603D01*
X68414419Y-143251602D01*
X68161116Y-143183730D01*
X68103339Y-143176123D01*
X67901127Y-143149500D01*
X67901120Y-143149500D01*
X67638880Y-143149500D01*
X67638872Y-143149500D01*
X67407772Y-143179926D01*
X67378884Y-143183730D01*
X67125581Y-143251602D01*
X67125571Y-143251605D01*
X66883309Y-143351953D01*
X66883304Y-143351956D01*
X66685999Y-143465869D01*
X66618099Y-143482341D01*
X66552072Y-143459488D01*
X66508882Y-143404566D01*
X66500000Y-143358481D01*
X66500000Y-141171153D01*
X75949500Y-141171153D01*
X75949500Y-141328846D01*
X75980261Y-141483489D01*
X75980264Y-141483501D01*
X76040602Y-141629172D01*
X76040609Y-141629185D01*
X76128210Y-141760288D01*
X76128213Y-141760292D01*
X76239707Y-141871786D01*
X76239711Y-141871789D01*
X76370814Y-141959390D01*
X76370827Y-141959397D01*
X76491547Y-142009400D01*
X76516503Y-142019737D01*
X76671153Y-142050499D01*
X76671156Y-142050500D01*
X76671158Y-142050500D01*
X76828844Y-142050500D01*
X76828845Y-142050499D01*
X76983497Y-142019737D01*
X77129179Y-141959394D01*
X77260289Y-141871789D01*
X77371789Y-141760289D01*
X77459394Y-141629179D01*
X77519737Y-141483497D01*
X77550500Y-141328842D01*
X77550500Y-141171158D01*
X77550500Y-141171155D01*
X77550499Y-141171153D01*
X77536246Y-141099500D01*
X77519737Y-141016503D01*
X77505274Y-140981585D01*
X77459397Y-140870827D01*
X77459390Y-140870814D01*
X77371789Y-140739711D01*
X77371786Y-140739707D01*
X77260292Y-140628213D01*
X77260288Y-140628210D01*
X77129185Y-140540609D01*
X77129172Y-140540602D01*
X76983501Y-140480264D01*
X76983489Y-140480261D01*
X76828845Y-140449500D01*
X76828842Y-140449500D01*
X76671158Y-140449500D01*
X76671155Y-140449500D01*
X76516510Y-140480261D01*
X76516498Y-140480264D01*
X76370827Y-140540602D01*
X76370814Y-140540609D01*
X76239711Y-140628210D01*
X76239707Y-140628213D01*
X76128213Y-140739707D01*
X76128210Y-140739711D01*
X76040609Y-140870814D01*
X76040602Y-140870827D01*
X75980264Y-141016498D01*
X75980261Y-141016510D01*
X75949500Y-141171153D01*
X66500000Y-141171153D01*
X66500000Y-137368872D01*
X67249500Y-137368872D01*
X67249500Y-137631127D01*
X67272386Y-137804951D01*
X67283730Y-137891116D01*
X67347520Y-138129185D01*
X67351602Y-138144418D01*
X67351605Y-138144428D01*
X67451953Y-138386690D01*
X67451958Y-138386700D01*
X67583075Y-138613803D01*
X67742718Y-138821851D01*
X67742726Y-138821860D01*
X67928140Y-139007274D01*
X67928148Y-139007281D01*
X67928149Y-139007282D01*
X67937831Y-139014711D01*
X68136196Y-139166924D01*
X68363299Y-139298041D01*
X68363309Y-139298046D01*
X68605571Y-139398394D01*
X68605581Y-139398398D01*
X68858884Y-139466270D01*
X69118880Y-139500500D01*
X69118887Y-139500500D01*
X69381113Y-139500500D01*
X69381120Y-139500500D01*
X69641116Y-139466270D01*
X69894419Y-139398398D01*
X70071340Y-139325114D01*
X70136690Y-139298046D01*
X70136691Y-139298045D01*
X70136697Y-139298043D01*
X70363803Y-139166924D01*
X70571851Y-139007282D01*
X70571855Y-139007277D01*
X70571860Y-139007274D01*
X70757274Y-138821860D01*
X70757277Y-138821855D01*
X70757282Y-138821851D01*
X70916924Y-138613803D01*
X71028150Y-138421153D01*
X81699500Y-138421153D01*
X81699500Y-138578846D01*
X81730261Y-138733489D01*
X81730264Y-138733501D01*
X81790602Y-138879172D01*
X81790609Y-138879185D01*
X81878210Y-139010288D01*
X81878213Y-139010292D01*
X81989707Y-139121786D01*
X81989711Y-139121789D01*
X82120814Y-139209390D01*
X82120827Y-139209397D01*
X82258683Y-139266498D01*
X82266503Y-139269737D01*
X82375963Y-139291510D01*
X82421153Y-139300499D01*
X82421156Y-139300500D01*
X82421158Y-139300500D01*
X82578844Y-139300500D01*
X82578845Y-139300499D01*
X82733497Y-139269737D01*
X82879179Y-139209394D01*
X83010289Y-139121789D01*
X83121789Y-139010289D01*
X83209394Y-138879179D01*
X83269737Y-138733497D01*
X83283918Y-138662204D01*
X85696517Y-138662204D01*
X85696517Y-138819897D01*
X85727278Y-138974540D01*
X85727281Y-138974552D01*
X85787619Y-139120223D01*
X85787626Y-139120236D01*
X85875227Y-139251339D01*
X85875230Y-139251343D01*
X85986724Y-139362837D01*
X85986728Y-139362840D01*
X86117831Y-139450441D01*
X86117844Y-139450448D01*
X86263515Y-139510786D01*
X86263520Y-139510788D01*
X86418170Y-139541550D01*
X86418173Y-139541551D01*
X86418175Y-139541551D01*
X86575861Y-139541551D01*
X86575862Y-139541550D01*
X86730514Y-139510788D01*
X86876196Y-139450445D01*
X86882619Y-139446153D01*
X90449500Y-139446153D01*
X90449500Y-139603846D01*
X90480261Y-139758489D01*
X90480264Y-139758501D01*
X90540602Y-139904172D01*
X90540609Y-139904185D01*
X90628210Y-140035288D01*
X90628213Y-140035292D01*
X90739707Y-140146786D01*
X90739711Y-140146789D01*
X90870814Y-140234390D01*
X90870827Y-140234397D01*
X91011131Y-140292512D01*
X91016503Y-140294737D01*
X91171153Y-140325499D01*
X91171156Y-140325500D01*
X91171158Y-140325500D01*
X91328844Y-140325500D01*
X91328845Y-140325499D01*
X91483497Y-140294737D01*
X91629179Y-140234394D01*
X91760289Y-140146789D01*
X91871789Y-140035289D01*
X91959394Y-139904179D01*
X92019737Y-139758497D01*
X92050500Y-139603842D01*
X92050500Y-139446158D01*
X92050500Y-139446155D01*
X92050499Y-139446153D01*
X92049128Y-139439257D01*
X92045527Y-139421153D01*
X97249500Y-139421153D01*
X97249500Y-139578846D01*
X97280261Y-139733489D01*
X97280264Y-139733501D01*
X97340602Y-139879172D01*
X97340609Y-139879185D01*
X97428210Y-140010288D01*
X97428213Y-140010292D01*
X97539707Y-140121786D01*
X97539711Y-140121789D01*
X97670814Y-140209390D01*
X97670827Y-140209397D01*
X97765094Y-140248443D01*
X97816503Y-140269737D01*
X97931000Y-140292512D01*
X97971153Y-140300499D01*
X97971156Y-140300500D01*
X97971158Y-140300500D01*
X98128844Y-140300500D01*
X98128845Y-140300499D01*
X98283497Y-140269737D01*
X98429179Y-140209394D01*
X98560289Y-140121789D01*
X98671789Y-140010289D01*
X98759394Y-139879179D01*
X98819737Y-139733497D01*
X98850500Y-139578842D01*
X98850500Y-139421158D01*
X98850500Y-139421155D01*
X98850499Y-139421153D01*
X98845973Y-139398398D01*
X98819737Y-139266503D01*
X98796080Y-139209390D01*
X98759397Y-139120827D01*
X98759390Y-139120814D01*
X98671790Y-138989712D01*
X98671784Y-138989705D01*
X98603232Y-138921153D01*
X102199500Y-138921153D01*
X102199500Y-139078846D01*
X102230261Y-139233489D01*
X102230264Y-139233501D01*
X102290602Y-139379172D01*
X102290609Y-139379185D01*
X102378210Y-139510288D01*
X102378213Y-139510292D01*
X102489707Y-139621786D01*
X102489711Y-139621789D01*
X102620814Y-139709390D01*
X102620827Y-139709397D01*
X102766498Y-139769735D01*
X102766503Y-139769737D01*
X102921153Y-139800499D01*
X102921156Y-139800500D01*
X102921158Y-139800500D01*
X103078844Y-139800500D01*
X103078845Y-139800499D01*
X103233497Y-139769737D01*
X103379179Y-139709394D01*
X103510289Y-139621789D01*
X103621789Y-139510289D01*
X103709394Y-139379179D01*
X103769737Y-139233497D01*
X103800500Y-139078842D01*
X103800500Y-138921158D01*
X103800500Y-138921155D01*
X103800499Y-138921153D01*
X103780734Y-138821789D01*
X103769737Y-138766503D01*
X103765081Y-138755263D01*
X103709397Y-138620827D01*
X103709390Y-138620814D01*
X103621789Y-138489711D01*
X103621786Y-138489707D01*
X103510292Y-138378213D01*
X103510288Y-138378210D01*
X103379185Y-138290609D01*
X103379172Y-138290602D01*
X103233501Y-138230264D01*
X103233489Y-138230261D01*
X103078845Y-138199500D01*
X103078842Y-138199500D01*
X102921158Y-138199500D01*
X102921155Y-138199500D01*
X102766510Y-138230261D01*
X102766498Y-138230264D01*
X102620827Y-138290602D01*
X102620814Y-138290609D01*
X102489711Y-138378210D01*
X102489707Y-138378213D01*
X102378213Y-138489707D01*
X102378210Y-138489711D01*
X102290609Y-138620814D01*
X102290602Y-138620827D01*
X102230264Y-138766498D01*
X102230261Y-138766510D01*
X102199500Y-138921153D01*
X98603232Y-138921153D01*
X98560292Y-138878213D01*
X98560288Y-138878210D01*
X98429185Y-138790609D01*
X98429172Y-138790602D01*
X98283501Y-138730264D01*
X98283489Y-138730261D01*
X98128845Y-138699500D01*
X98128842Y-138699500D01*
X97971158Y-138699500D01*
X97971155Y-138699500D01*
X97816510Y-138730261D01*
X97816498Y-138730264D01*
X97670827Y-138790602D01*
X97670814Y-138790609D01*
X97539711Y-138878210D01*
X97539707Y-138878213D01*
X97428213Y-138989707D01*
X97428210Y-138989711D01*
X97340609Y-139120814D01*
X97340602Y-139120827D01*
X97280264Y-139266498D01*
X97280261Y-139266510D01*
X97249500Y-139421153D01*
X92045527Y-139421153D01*
X92019738Y-139291508D01*
X92019737Y-139291507D01*
X92019737Y-139291503D01*
X92013416Y-139276243D01*
X91959397Y-139145827D01*
X91959390Y-139145814D01*
X91871789Y-139014711D01*
X91871786Y-139014707D01*
X91760292Y-138903213D01*
X91760288Y-138903210D01*
X91629185Y-138815609D01*
X91629172Y-138815602D01*
X91483501Y-138755264D01*
X91483489Y-138755261D01*
X91328845Y-138724500D01*
X91328842Y-138724500D01*
X91171158Y-138724500D01*
X91171155Y-138724500D01*
X91016510Y-138755261D01*
X91016498Y-138755264D01*
X90870827Y-138815602D01*
X90870814Y-138815609D01*
X90739711Y-138903210D01*
X90739707Y-138903213D01*
X90628213Y-139014707D01*
X90628210Y-139014711D01*
X90540609Y-139145814D01*
X90540602Y-139145827D01*
X90480264Y-139291498D01*
X90480261Y-139291510D01*
X90449500Y-139446153D01*
X86882619Y-139446153D01*
X87007306Y-139362840D01*
X87007309Y-139362837D01*
X87017762Y-139352385D01*
X87118803Y-139251343D01*
X87118806Y-139251340D01*
X87206411Y-139120230D01*
X87266754Y-138974548D01*
X87297517Y-138819893D01*
X87297517Y-138662209D01*
X87297517Y-138662206D01*
X87297516Y-138662204D01*
X87291493Y-138631925D01*
X87266754Y-138507554D01*
X87266752Y-138507549D01*
X87248100Y-138462518D01*
X87230966Y-138421153D01*
X88469500Y-138421153D01*
X88469500Y-138578846D01*
X88500261Y-138733489D01*
X88500264Y-138733501D01*
X88560602Y-138879172D01*
X88560609Y-138879185D01*
X88648210Y-139010288D01*
X88648213Y-139010292D01*
X88759707Y-139121786D01*
X88759711Y-139121789D01*
X88890814Y-139209390D01*
X88890827Y-139209397D01*
X89028683Y-139266498D01*
X89036503Y-139269737D01*
X89145963Y-139291510D01*
X89191153Y-139300499D01*
X89191156Y-139300500D01*
X89191158Y-139300500D01*
X89348844Y-139300500D01*
X89348845Y-139300499D01*
X89503497Y-139269737D01*
X89649179Y-139209394D01*
X89780289Y-139121789D01*
X89891789Y-139010289D01*
X89979394Y-138879179D01*
X90039737Y-138733497D01*
X90070500Y-138578842D01*
X90070500Y-138421158D01*
X90070500Y-138421155D01*
X90070499Y-138421153D01*
X90063643Y-138386685D01*
X90039737Y-138266503D01*
X90024931Y-138230758D01*
X89979397Y-138120827D01*
X89979390Y-138120814D01*
X89891789Y-137989711D01*
X89891786Y-137989707D01*
X89780292Y-137878213D01*
X89780288Y-137878210D01*
X89649185Y-137790609D01*
X89649172Y-137790602D01*
X89503501Y-137730264D01*
X89503489Y-137730261D01*
X89348845Y-137699500D01*
X89348842Y-137699500D01*
X89191158Y-137699500D01*
X89191155Y-137699500D01*
X89036510Y-137730261D01*
X89036498Y-137730264D01*
X88890827Y-137790602D01*
X88890814Y-137790609D01*
X88759711Y-137878210D01*
X88759707Y-137878213D01*
X88648213Y-137989707D01*
X88648210Y-137989711D01*
X88560609Y-138120814D01*
X88560602Y-138120827D01*
X88500264Y-138266498D01*
X88500261Y-138266510D01*
X88469500Y-138421153D01*
X87230966Y-138421153D01*
X87206414Y-138361878D01*
X87206407Y-138361865D01*
X87118806Y-138230762D01*
X87118803Y-138230758D01*
X87007306Y-138119261D01*
X86977916Y-138099624D01*
X86933111Y-138046012D01*
X86924404Y-137976687D01*
X86954558Y-137913660D01*
X86977917Y-137893419D01*
X87010289Y-137871789D01*
X87121789Y-137760289D01*
X87209394Y-137629179D01*
X87269737Y-137483497D01*
X87300500Y-137328842D01*
X87300500Y-137171158D01*
X87300500Y-137171155D01*
X87300499Y-137171153D01*
X87274531Y-137040604D01*
X87269737Y-137016503D01*
X87248061Y-136964172D01*
X87209397Y-136870827D01*
X87209390Y-136870814D01*
X87121789Y-136739711D01*
X87121786Y-136739707D01*
X87010292Y-136628213D01*
X87010288Y-136628210D01*
X86879185Y-136540609D01*
X86879172Y-136540602D01*
X86733501Y-136480264D01*
X86733489Y-136480261D01*
X86578845Y-136449500D01*
X86578842Y-136449500D01*
X86421158Y-136449500D01*
X86421155Y-136449500D01*
X86266510Y-136480261D01*
X86266498Y-136480264D01*
X86120827Y-136540602D01*
X86120814Y-136540609D01*
X85989711Y-136628210D01*
X85989707Y-136628213D01*
X85878213Y-136739707D01*
X85878210Y-136739711D01*
X85790609Y-136870814D01*
X85790602Y-136870827D01*
X85730264Y-137016498D01*
X85730261Y-137016510D01*
X85699500Y-137171153D01*
X85699500Y-137328846D01*
X85730261Y-137483489D01*
X85730264Y-137483501D01*
X85790602Y-137629172D01*
X85790609Y-137629185D01*
X85878210Y-137760288D01*
X85878213Y-137760292D01*
X85989708Y-137871787D01*
X85989711Y-137871789D01*
X86019099Y-137891426D01*
X86063904Y-137945037D01*
X86072612Y-138014362D01*
X86042458Y-138077390D01*
X86019102Y-138097628D01*
X85986733Y-138119257D01*
X85986724Y-138119264D01*
X85875230Y-138230758D01*
X85875227Y-138230762D01*
X85787626Y-138361865D01*
X85787619Y-138361878D01*
X85727281Y-138507549D01*
X85727278Y-138507561D01*
X85696517Y-138662204D01*
X83283918Y-138662204D01*
X83300433Y-138579179D01*
X83300500Y-138578844D01*
X83300500Y-138421155D01*
X83300499Y-138421153D01*
X83293643Y-138386685D01*
X83269737Y-138266503D01*
X83254931Y-138230758D01*
X83209397Y-138120827D01*
X83209390Y-138120814D01*
X83121789Y-137989711D01*
X83121786Y-137989707D01*
X83010292Y-137878213D01*
X83010288Y-137878210D01*
X82879185Y-137790609D01*
X82879172Y-137790602D01*
X82733501Y-137730264D01*
X82733489Y-137730261D01*
X82578845Y-137699500D01*
X82578842Y-137699500D01*
X82421158Y-137699500D01*
X82421155Y-137699500D01*
X82266510Y-137730261D01*
X82266498Y-137730264D01*
X82120827Y-137790602D01*
X82120814Y-137790609D01*
X81989711Y-137878210D01*
X81989707Y-137878213D01*
X81878213Y-137989707D01*
X81878210Y-137989711D01*
X81790609Y-138120814D01*
X81790602Y-138120827D01*
X81730264Y-138266498D01*
X81730261Y-138266510D01*
X81699500Y-138421153D01*
X71028150Y-138421153D01*
X71048043Y-138386697D01*
X71051558Y-138378211D01*
X71055948Y-138367614D01*
X71055948Y-138367613D01*
X71112841Y-138230261D01*
X71148398Y-138144419D01*
X71216270Y-137891116D01*
X71250500Y-137631120D01*
X71250500Y-137368880D01*
X71224609Y-137172223D01*
X80198728Y-137172223D01*
X80198728Y-137329916D01*
X80229489Y-137484559D01*
X80229492Y-137484571D01*
X80289830Y-137630242D01*
X80289837Y-137630255D01*
X80377438Y-137761358D01*
X80377441Y-137761362D01*
X80488935Y-137872856D01*
X80488939Y-137872859D01*
X80620042Y-137960460D01*
X80620055Y-137960467D01*
X80703202Y-137994907D01*
X80765731Y-138020807D01*
X80915002Y-138050499D01*
X80920381Y-138051569D01*
X80920384Y-138051570D01*
X80920386Y-138051570D01*
X81078072Y-138051570D01*
X81078073Y-138051569D01*
X81232725Y-138020807D01*
X81363811Y-137966510D01*
X81378400Y-137960467D01*
X81378400Y-137960466D01*
X81378407Y-137960464D01*
X81509517Y-137872859D01*
X81621017Y-137761359D01*
X81708622Y-137630249D01*
X81768965Y-137484567D01*
X81799728Y-137329912D01*
X81799728Y-137172228D01*
X81799728Y-137172225D01*
X81799727Y-137172223D01*
X81787128Y-137108884D01*
X81768965Y-137017573D01*
X81748349Y-136967803D01*
X81740881Y-136898336D01*
X81772156Y-136835856D01*
X81832245Y-136800204D01*
X81902070Y-136802697D01*
X81950592Y-136832671D01*
X81989707Y-136871786D01*
X81989711Y-136871789D01*
X82120814Y-136959390D01*
X82120827Y-136959397D01*
X82266498Y-137019735D01*
X82266503Y-137019737D01*
X82421153Y-137050499D01*
X82421156Y-137050500D01*
X82421158Y-137050500D01*
X82578844Y-137050500D01*
X82578845Y-137050499D01*
X82733497Y-137019737D01*
X82879179Y-136959394D01*
X83010289Y-136871789D01*
X83121789Y-136760289D01*
X83209394Y-136629179D01*
X83269737Y-136483497D01*
X83300500Y-136328842D01*
X83300500Y-136171158D01*
X83300500Y-136171155D01*
X83300499Y-136171153D01*
X83290486Y-136120814D01*
X83269737Y-136016503D01*
X83259885Y-135992718D01*
X83209397Y-135870827D01*
X83209390Y-135870814D01*
X83121789Y-135739711D01*
X83121786Y-135739707D01*
X83010292Y-135628213D01*
X83010288Y-135628210D01*
X82879185Y-135540609D01*
X82879172Y-135540602D01*
X82733501Y-135480264D01*
X82733489Y-135480261D01*
X82578845Y-135449500D01*
X82578842Y-135449500D01*
X82421158Y-135449500D01*
X82421155Y-135449500D01*
X82266510Y-135480261D01*
X82266498Y-135480264D01*
X82120827Y-135540602D01*
X82120814Y-135540609D01*
X81989711Y-135628210D01*
X81989707Y-135628213D01*
X81878213Y-135739707D01*
X81878210Y-135739711D01*
X81790609Y-135870814D01*
X81790602Y-135870827D01*
X81730264Y-136016498D01*
X81730261Y-136016510D01*
X81699500Y-136171153D01*
X81699500Y-136328846D01*
X81730261Y-136483489D01*
X81730264Y-136483501D01*
X81750877Y-136533265D01*
X81758346Y-136602734D01*
X81727070Y-136665213D01*
X81666981Y-136700865D01*
X81597156Y-136698371D01*
X81548635Y-136668398D01*
X81509520Y-136629283D01*
X81509516Y-136629280D01*
X81378413Y-136541679D01*
X81378400Y-136541672D01*
X81232729Y-136481334D01*
X81232717Y-136481331D01*
X81078073Y-136450570D01*
X81078070Y-136450570D01*
X80920386Y-136450570D01*
X80920383Y-136450570D01*
X80765738Y-136481331D01*
X80765726Y-136481334D01*
X80620055Y-136541672D01*
X80620042Y-136541679D01*
X80488939Y-136629280D01*
X80488935Y-136629283D01*
X80377441Y-136740777D01*
X80377438Y-136740781D01*
X80289837Y-136871884D01*
X80289830Y-136871897D01*
X80229492Y-137017568D01*
X80229489Y-137017580D01*
X80198728Y-137172223D01*
X71224609Y-137172223D01*
X71216270Y-137108884D01*
X71148398Y-136855581D01*
X71140228Y-136835856D01*
X71048046Y-136613309D01*
X71048041Y-136613299D01*
X70916924Y-136386196D01*
X70757281Y-136178148D01*
X70757274Y-136178140D01*
X70571860Y-135992726D01*
X70571851Y-135992718D01*
X70363803Y-135833075D01*
X70136700Y-135701958D01*
X70136690Y-135701953D01*
X69894428Y-135601605D01*
X69894421Y-135601603D01*
X69894419Y-135601602D01*
X69641116Y-135533730D01*
X69583339Y-135526123D01*
X69381127Y-135499500D01*
X69381120Y-135499500D01*
X69118880Y-135499500D01*
X69118872Y-135499500D01*
X68887772Y-135529926D01*
X68858884Y-135533730D01*
X68605581Y-135601602D01*
X68605571Y-135601605D01*
X68363309Y-135701953D01*
X68363299Y-135701958D01*
X68136196Y-135833075D01*
X67928148Y-135992718D01*
X67742718Y-136178148D01*
X67583075Y-136386196D01*
X67451958Y-136613299D01*
X67451953Y-136613309D01*
X67351605Y-136855571D01*
X67351602Y-136855581D01*
X67283730Y-137108884D01*
X67281185Y-137128213D01*
X67249500Y-137368872D01*
X66500000Y-137368872D01*
X66500000Y-134171153D01*
X86199500Y-134171153D01*
X86199500Y-134328846D01*
X86230261Y-134483489D01*
X86230264Y-134483501D01*
X86290602Y-134629172D01*
X86290609Y-134629185D01*
X86378210Y-134760288D01*
X86378213Y-134760292D01*
X86489707Y-134871786D01*
X86489711Y-134871789D01*
X86620814Y-134959390D01*
X86620827Y-134959397D01*
X86763287Y-135018405D01*
X86766503Y-135019737D01*
X86921153Y-135050499D01*
X86921156Y-135050500D01*
X86921158Y-135050500D01*
X87078844Y-135050500D01*
X87078845Y-135050499D01*
X87233497Y-135019737D01*
X87379179Y-134959394D01*
X87510289Y-134871789D01*
X87510925Y-134871153D01*
X91009500Y-134871153D01*
X91009500Y-135028846D01*
X91040261Y-135183489D01*
X91040264Y-135183501D01*
X91100602Y-135329172D01*
X91100609Y-135329185D01*
X91188210Y-135460288D01*
X91188213Y-135460292D01*
X91299707Y-135571786D01*
X91299711Y-135571789D01*
X91430814Y-135659390D01*
X91430827Y-135659397D01*
X91558256Y-135712179D01*
X91576503Y-135719737D01*
X91731153Y-135750499D01*
X91731156Y-135750500D01*
X91818059Y-135750500D01*
X91885098Y-135770185D01*
X91930853Y-135822989D01*
X91940797Y-135892147D01*
X91911772Y-135955703D01*
X91905740Y-135962181D01*
X91878213Y-135989707D01*
X91878210Y-135989711D01*
X91790609Y-136120814D01*
X91790602Y-136120827D01*
X91730264Y-136266498D01*
X91730261Y-136266510D01*
X91699500Y-136421153D01*
X91699500Y-136578846D01*
X91730261Y-136733489D01*
X91730264Y-136733501D01*
X91790602Y-136879172D01*
X91790609Y-136879185D01*
X91878210Y-137010288D01*
X91878213Y-137010292D01*
X91989707Y-137121786D01*
X91989711Y-137121789D01*
X92120814Y-137209390D01*
X92120818Y-137209392D01*
X92120821Y-137209394D01*
X92208256Y-137245610D01*
X92262656Y-137289449D01*
X92284722Y-137355743D01*
X92275362Y-137407622D01*
X92230264Y-137516498D01*
X92230261Y-137516510D01*
X92199500Y-137671153D01*
X92199500Y-137828846D01*
X92230261Y-137983489D01*
X92230264Y-137983501D01*
X92290602Y-138129172D01*
X92290609Y-138129185D01*
X92378210Y-138260288D01*
X92378213Y-138260292D01*
X92489707Y-138371786D01*
X92489711Y-138371789D01*
X92620814Y-138459390D01*
X92620827Y-138459397D01*
X92694013Y-138489711D01*
X92766503Y-138519737D01*
X92921153Y-138550499D01*
X92921156Y-138550500D01*
X92921158Y-138550500D01*
X93078844Y-138550500D01*
X93078845Y-138550499D01*
X93233497Y-138519737D01*
X93379179Y-138459394D01*
X93510289Y-138371789D01*
X93621789Y-138260289D01*
X93709394Y-138129179D01*
X93712719Y-138121153D01*
X107299500Y-138121153D01*
X107299500Y-138278846D01*
X107330261Y-138433489D01*
X107330264Y-138433501D01*
X107390602Y-138579172D01*
X107390609Y-138579185D01*
X107478210Y-138710288D01*
X107478213Y-138710292D01*
X107589707Y-138821786D01*
X107589711Y-138821789D01*
X107720814Y-138909390D01*
X107720827Y-138909397D01*
X107866498Y-138969735D01*
X107866503Y-138969737D01*
X108021153Y-139000499D01*
X108021156Y-139000500D01*
X108021158Y-139000500D01*
X108178844Y-139000500D01*
X108178845Y-139000499D01*
X108333497Y-138969737D01*
X108479179Y-138909394D01*
X108610289Y-138821789D01*
X108721789Y-138710289D01*
X108809394Y-138579179D01*
X108869737Y-138433497D01*
X108900500Y-138278842D01*
X108900500Y-138121158D01*
X108900500Y-138121155D01*
X108900499Y-138121153D01*
X108896217Y-138099624D01*
X108869737Y-137966503D01*
X108838510Y-137891114D01*
X108809397Y-137820827D01*
X108809390Y-137820814D01*
X108721789Y-137689711D01*
X108721786Y-137689707D01*
X108610292Y-137578213D01*
X108610288Y-137578210D01*
X108479185Y-137490609D01*
X108479172Y-137490602D01*
X108333501Y-137430264D01*
X108333489Y-137430261D01*
X108178845Y-137399500D01*
X108178842Y-137399500D01*
X108021158Y-137399500D01*
X108021155Y-137399500D01*
X107866510Y-137430261D01*
X107866498Y-137430264D01*
X107720827Y-137490602D01*
X107720814Y-137490609D01*
X107589711Y-137578210D01*
X107589707Y-137578213D01*
X107478213Y-137689707D01*
X107478210Y-137689711D01*
X107390609Y-137820814D01*
X107390602Y-137820827D01*
X107330264Y-137966498D01*
X107330261Y-137966510D01*
X107299500Y-138121153D01*
X93712719Y-138121153D01*
X93729678Y-138080208D01*
X93769737Y-137983497D01*
X93800500Y-137828842D01*
X93800500Y-137671158D01*
X93800500Y-137671155D01*
X93800499Y-137671153D01*
X93792536Y-137631120D01*
X93769737Y-137516503D01*
X93769735Y-137516498D01*
X93709397Y-137370827D01*
X93709390Y-137370814D01*
X93621790Y-137239712D01*
X93621784Y-137239705D01*
X93553232Y-137171153D01*
X96199500Y-137171153D01*
X96199500Y-137328846D01*
X96230261Y-137483489D01*
X96230264Y-137483501D01*
X96290602Y-137629172D01*
X96290609Y-137629185D01*
X96378210Y-137760288D01*
X96378213Y-137760292D01*
X96489707Y-137871786D01*
X96489711Y-137871789D01*
X96620814Y-137959390D01*
X96620827Y-137959397D01*
X96766498Y-138019735D01*
X96766503Y-138019737D01*
X96921153Y-138050499D01*
X96921156Y-138050500D01*
X96921158Y-138050500D01*
X97078844Y-138050500D01*
X97078845Y-138050499D01*
X97233497Y-138019737D01*
X97376596Y-137960464D01*
X97379172Y-137959397D01*
X97379172Y-137959396D01*
X97379179Y-137959394D01*
X97510289Y-137871789D01*
X97621789Y-137760289D01*
X97709394Y-137629179D01*
X97769737Y-137483497D01*
X97800500Y-137328842D01*
X97800500Y-137171158D01*
X97800500Y-137171155D01*
X97800499Y-137171153D01*
X97774531Y-137040604D01*
X97769737Y-137016503D01*
X97748061Y-136964172D01*
X97709397Y-136870827D01*
X97709390Y-136870814D01*
X97621789Y-136739711D01*
X97621786Y-136739707D01*
X97510292Y-136628213D01*
X97510288Y-136628210D01*
X97379185Y-136540609D01*
X97379172Y-136540602D01*
X97233501Y-136480264D01*
X97233489Y-136480261D01*
X97078845Y-136449500D01*
X97078842Y-136449500D01*
X96921158Y-136449500D01*
X96921155Y-136449500D01*
X96766510Y-136480261D01*
X96766498Y-136480264D01*
X96620827Y-136540602D01*
X96620814Y-136540609D01*
X96489711Y-136628210D01*
X96489707Y-136628213D01*
X96378213Y-136739707D01*
X96378210Y-136739711D01*
X96290609Y-136870814D01*
X96290602Y-136870827D01*
X96230264Y-137016498D01*
X96230261Y-137016510D01*
X96199500Y-137171153D01*
X93553232Y-137171153D01*
X93510292Y-137128213D01*
X93510288Y-137128210D01*
X93379185Y-137040609D01*
X93379176Y-137040604D01*
X93291746Y-137004390D01*
X93237343Y-136960549D01*
X93215278Y-136894255D01*
X93224638Y-136842377D01*
X93266720Y-136740781D01*
X93269737Y-136733497D01*
X93300500Y-136578842D01*
X93300500Y-136421158D01*
X93300500Y-136421155D01*
X93300499Y-136421153D01*
X93293546Y-136386197D01*
X93269737Y-136266503D01*
X93233140Y-136178149D01*
X93209397Y-136120827D01*
X93209390Y-136120814D01*
X93121789Y-135989711D01*
X93121786Y-135989707D01*
X93010292Y-135878213D01*
X93010288Y-135878210D01*
X92879185Y-135790609D01*
X92879172Y-135790602D01*
X92733501Y-135730264D01*
X92733489Y-135730261D01*
X92578845Y-135699500D01*
X92578842Y-135699500D01*
X92491941Y-135699500D01*
X92424902Y-135679815D01*
X92379147Y-135627011D01*
X92369203Y-135557853D01*
X92398228Y-135494297D01*
X92404260Y-135487819D01*
X92431786Y-135460292D01*
X92431789Y-135460289D01*
X92519394Y-135329179D01*
X92579737Y-135183497D01*
X92610500Y-135028842D01*
X92610500Y-135018405D01*
X92630185Y-134951366D01*
X92682989Y-134905611D01*
X92752147Y-134895667D01*
X92815703Y-134924692D01*
X92837602Y-134949514D01*
X92878210Y-135010288D01*
X92878213Y-135010292D01*
X92989707Y-135121786D01*
X92989711Y-135121789D01*
X93120814Y-135209390D01*
X93120827Y-135209397D01*
X93254948Y-135264951D01*
X93266503Y-135269737D01*
X93421153Y-135300499D01*
X93421156Y-135300500D01*
X93421158Y-135300500D01*
X93578844Y-135300500D01*
X93578845Y-135300499D01*
X93733497Y-135269737D01*
X93850080Y-135221447D01*
X93879172Y-135209397D01*
X93879172Y-135209396D01*
X93879179Y-135209394D01*
X94010289Y-135121789D01*
X94121789Y-135010289D01*
X94181348Y-134921153D01*
X96699500Y-134921153D01*
X96699500Y-135078846D01*
X96730261Y-135233489D01*
X96730264Y-135233501D01*
X96790602Y-135379172D01*
X96790609Y-135379185D01*
X96878210Y-135510288D01*
X96878213Y-135510292D01*
X96989707Y-135621786D01*
X96989711Y-135621789D01*
X97120814Y-135709390D01*
X97120827Y-135709397D01*
X97220060Y-135750500D01*
X97266503Y-135769737D01*
X97421153Y-135800499D01*
X97421156Y-135800500D01*
X97421158Y-135800500D01*
X97578844Y-135800500D01*
X97578845Y-135800499D01*
X97733497Y-135769737D01*
X97872443Y-135712184D01*
X97879172Y-135709397D01*
X97879172Y-135709396D01*
X97879179Y-135709394D01*
X98010289Y-135621789D01*
X98121789Y-135510289D01*
X98209394Y-135379179D01*
X98269737Y-135233497D01*
X98300500Y-135078842D01*
X98300500Y-134921158D01*
X98300500Y-134921155D01*
X98300499Y-134921153D01*
X99699500Y-134921153D01*
X99699500Y-135078846D01*
X99730261Y-135233489D01*
X99730264Y-135233501D01*
X99790602Y-135379172D01*
X99790609Y-135379185D01*
X99878210Y-135510288D01*
X99878213Y-135510292D01*
X99989707Y-135621786D01*
X99989711Y-135621789D01*
X100120814Y-135709390D01*
X100120827Y-135709397D01*
X100220060Y-135750500D01*
X100266503Y-135769737D01*
X100421153Y-135800499D01*
X100421156Y-135800500D01*
X100421158Y-135800500D01*
X100578844Y-135800500D01*
X100578845Y-135800499D01*
X100733497Y-135769737D01*
X100872443Y-135712184D01*
X100879172Y-135709397D01*
X100879172Y-135709396D01*
X100879179Y-135709394D01*
X101010289Y-135621789D01*
X101121789Y-135510289D01*
X101209394Y-135379179D01*
X101269737Y-135233497D01*
X101300500Y-135078842D01*
X101300500Y-134921158D01*
X101300500Y-134921155D01*
X101300499Y-134921153D01*
X101283061Y-134833489D01*
X101269737Y-134766503D01*
X101256062Y-134733489D01*
X101209397Y-134620827D01*
X101209390Y-134620814D01*
X101184763Y-134583957D01*
X101142798Y-134521153D01*
X102199500Y-134521153D01*
X102199500Y-134678846D01*
X102230261Y-134833489D01*
X102230264Y-134833501D01*
X102290602Y-134979172D01*
X102290609Y-134979185D01*
X102378210Y-135110288D01*
X102378213Y-135110292D01*
X102489707Y-135221786D01*
X102489711Y-135221789D01*
X102620814Y-135309390D01*
X102620827Y-135309397D01*
X102766498Y-135369735D01*
X102766503Y-135369737D01*
X102921153Y-135400499D01*
X102921156Y-135400500D01*
X102921158Y-135400500D01*
X103078844Y-135400500D01*
X103078845Y-135400499D01*
X103233497Y-135369737D01*
X103379179Y-135309394D01*
X103510289Y-135221789D01*
X103621789Y-135110289D01*
X103709394Y-134979179D01*
X103769737Y-134833497D01*
X103800500Y-134678842D01*
X103800500Y-134521158D01*
X103800500Y-134521155D01*
X103800499Y-134521153D01*
X103794244Y-134489707D01*
X103769737Y-134366503D01*
X103754138Y-134328844D01*
X103709397Y-134220827D01*
X103709390Y-134220814D01*
X103621789Y-134089711D01*
X103621786Y-134089707D01*
X103510292Y-133978213D01*
X103510288Y-133978210D01*
X103379185Y-133890609D01*
X103379172Y-133890602D01*
X103233501Y-133830264D01*
X103233489Y-133830261D01*
X103078845Y-133799500D01*
X103078842Y-133799500D01*
X102921158Y-133799500D01*
X102921155Y-133799500D01*
X102766510Y-133830261D01*
X102766498Y-133830264D01*
X102620827Y-133890602D01*
X102620814Y-133890609D01*
X102489711Y-133978210D01*
X102489707Y-133978213D01*
X102378213Y-134089707D01*
X102378210Y-134089711D01*
X102290609Y-134220814D01*
X102290602Y-134220827D01*
X102230264Y-134366498D01*
X102230261Y-134366510D01*
X102199500Y-134521153D01*
X101142798Y-134521153D01*
X101121789Y-134489711D01*
X101121786Y-134489707D01*
X101010292Y-134378213D01*
X101010288Y-134378210D01*
X100879185Y-134290609D01*
X100879172Y-134290602D01*
X100733501Y-134230264D01*
X100733489Y-134230261D01*
X100578845Y-134199500D01*
X100578842Y-134199500D01*
X100421158Y-134199500D01*
X100421155Y-134199500D01*
X100266510Y-134230261D01*
X100266498Y-134230264D01*
X100120827Y-134290602D01*
X100120814Y-134290609D01*
X99989711Y-134378210D01*
X99989707Y-134378213D01*
X99878213Y-134489707D01*
X99878210Y-134489711D01*
X99790609Y-134620814D01*
X99790602Y-134620827D01*
X99730264Y-134766498D01*
X99730261Y-134766510D01*
X99699500Y-134921153D01*
X98300499Y-134921153D01*
X98283061Y-134833489D01*
X98269737Y-134766503D01*
X98256062Y-134733489D01*
X98209397Y-134620827D01*
X98209390Y-134620814D01*
X98121789Y-134489711D01*
X98121786Y-134489707D01*
X98010292Y-134378213D01*
X98010288Y-134378210D01*
X97879185Y-134290609D01*
X97879172Y-134290602D01*
X97733501Y-134230264D01*
X97733489Y-134230261D01*
X97578845Y-134199500D01*
X97578842Y-134199500D01*
X97421158Y-134199500D01*
X97421155Y-134199500D01*
X97266510Y-134230261D01*
X97266498Y-134230264D01*
X97120827Y-134290602D01*
X97120814Y-134290609D01*
X96989711Y-134378210D01*
X96989707Y-134378213D01*
X96878213Y-134489707D01*
X96878210Y-134489711D01*
X96790609Y-134620814D01*
X96790602Y-134620827D01*
X96730264Y-134766498D01*
X96730261Y-134766510D01*
X96699500Y-134921153D01*
X94181348Y-134921153D01*
X94209394Y-134879179D01*
X94269737Y-134733497D01*
X94300500Y-134578842D01*
X94300500Y-134421158D01*
X94300500Y-134421155D01*
X94300499Y-134421153D01*
X94295976Y-134398414D01*
X94269737Y-134266503D01*
X94269735Y-134266498D01*
X94209397Y-134120827D01*
X94209390Y-134120814D01*
X94121789Y-133989711D01*
X94121786Y-133989707D01*
X94010292Y-133878213D01*
X94010288Y-133878210D01*
X93879185Y-133790609D01*
X93879172Y-133790602D01*
X93733501Y-133730264D01*
X93733489Y-133730261D01*
X93578845Y-133699500D01*
X93578842Y-133699500D01*
X93421158Y-133699500D01*
X93421155Y-133699500D01*
X93266510Y-133730261D01*
X93266498Y-133730264D01*
X93120827Y-133790602D01*
X93120814Y-133790609D01*
X92989711Y-133878210D01*
X92989707Y-133878213D01*
X92878213Y-133989707D01*
X92878210Y-133989711D01*
X92790609Y-134120814D01*
X92790602Y-134120827D01*
X92730264Y-134266498D01*
X92730261Y-134266510D01*
X92699500Y-134421153D01*
X92699500Y-134431594D01*
X92679815Y-134498633D01*
X92627011Y-134544388D01*
X92557853Y-134554332D01*
X92494297Y-134525307D01*
X92472398Y-134500486D01*
X92431786Y-134439707D01*
X92320292Y-134328213D01*
X92320288Y-134328210D01*
X92189185Y-134240609D01*
X92189172Y-134240602D01*
X92043501Y-134180264D01*
X92043489Y-134180261D01*
X91888845Y-134149500D01*
X91888842Y-134149500D01*
X91731158Y-134149500D01*
X91731155Y-134149500D01*
X91576510Y-134180261D01*
X91576498Y-134180264D01*
X91430827Y-134240602D01*
X91430814Y-134240609D01*
X91299711Y-134328210D01*
X91299707Y-134328213D01*
X91188213Y-134439707D01*
X91188210Y-134439711D01*
X91100609Y-134570814D01*
X91100602Y-134570827D01*
X91040264Y-134716498D01*
X91040261Y-134716510D01*
X91009500Y-134871153D01*
X87510925Y-134871153D01*
X87548589Y-134833489D01*
X87604694Y-134777385D01*
X87621786Y-134760292D01*
X87621789Y-134760289D01*
X87709394Y-134629179D01*
X87712854Y-134620827D01*
X87754137Y-134521158D01*
X87769737Y-134483497D01*
X87800500Y-134328842D01*
X87800500Y-134171158D01*
X87800500Y-134171155D01*
X87800499Y-134171153D01*
X87769738Y-134016510D01*
X87769737Y-134016503D01*
X87769735Y-134016498D01*
X87709397Y-133870827D01*
X87709390Y-133870814D01*
X87621789Y-133739711D01*
X87621786Y-133739707D01*
X87510289Y-133628210D01*
X87495259Y-133618168D01*
X87379185Y-133540609D01*
X87379172Y-133540602D01*
X87332217Y-133521153D01*
X89199500Y-133521153D01*
X89199500Y-133678846D01*
X89230261Y-133833489D01*
X89230264Y-133833501D01*
X89290602Y-133979172D01*
X89290609Y-133979185D01*
X89378210Y-134110288D01*
X89378213Y-134110292D01*
X89489707Y-134221786D01*
X89489711Y-134221789D01*
X89620814Y-134309390D01*
X89620827Y-134309397D01*
X89758683Y-134366498D01*
X89766503Y-134369737D01*
X89910661Y-134398412D01*
X89921153Y-134400499D01*
X89921156Y-134400500D01*
X89921158Y-134400500D01*
X90078844Y-134400500D01*
X90078845Y-134400499D01*
X90233497Y-134369737D01*
X90379179Y-134309394D01*
X90510289Y-134221789D01*
X90621789Y-134110289D01*
X90709394Y-133979179D01*
X90769737Y-133833497D01*
X90800500Y-133678842D01*
X90800500Y-133521158D01*
X90800500Y-133521155D01*
X90800499Y-133521153D01*
X90769738Y-133366510D01*
X90769737Y-133366503D01*
X90742398Y-133300500D01*
X90709397Y-133220827D01*
X90709390Y-133220814D01*
X90621789Y-133089711D01*
X90621786Y-133089707D01*
X90510292Y-132978213D01*
X90510288Y-132978210D01*
X90379185Y-132890609D01*
X90379172Y-132890602D01*
X90233501Y-132830264D01*
X90233489Y-132830261D01*
X90078845Y-132799500D01*
X90078842Y-132799500D01*
X89921158Y-132799500D01*
X89921155Y-132799500D01*
X89766510Y-132830261D01*
X89766498Y-132830264D01*
X89620827Y-132890602D01*
X89620814Y-132890609D01*
X89489711Y-132978210D01*
X89489707Y-132978213D01*
X89378213Y-133089707D01*
X89378210Y-133089711D01*
X89290609Y-133220814D01*
X89290602Y-133220827D01*
X89230264Y-133366498D01*
X89230261Y-133366510D01*
X89199500Y-133521153D01*
X87332217Y-133521153D01*
X87233501Y-133480264D01*
X87233489Y-133480261D01*
X87078845Y-133449500D01*
X87078842Y-133449500D01*
X86921158Y-133449500D01*
X86921155Y-133449500D01*
X86766510Y-133480261D01*
X86766498Y-133480264D01*
X86620827Y-133540602D01*
X86620814Y-133540609D01*
X86489711Y-133628210D01*
X86489707Y-133628213D01*
X86378213Y-133739707D01*
X86378210Y-133739711D01*
X86290609Y-133870814D01*
X86290602Y-133870827D01*
X86230264Y-134016498D01*
X86230261Y-134016510D01*
X86199500Y-134171153D01*
X66500000Y-134171153D01*
X66500000Y-132421153D01*
X92699500Y-132421153D01*
X92699500Y-132578846D01*
X92730261Y-132733489D01*
X92730264Y-132733501D01*
X92790602Y-132879172D01*
X92790609Y-132879185D01*
X92878210Y-133010288D01*
X92878213Y-133010292D01*
X92989707Y-133121786D01*
X92989711Y-133121789D01*
X93120814Y-133209390D01*
X93120827Y-133209397D01*
X93266498Y-133269735D01*
X93266503Y-133269737D01*
X93421153Y-133300499D01*
X93421156Y-133300500D01*
X93421158Y-133300500D01*
X93578844Y-133300500D01*
X93578845Y-133300499D01*
X93733497Y-133269737D01*
X93851592Y-133220821D01*
X93879172Y-133209397D01*
X93879172Y-133209396D01*
X93879179Y-133209394D01*
X94010289Y-133121789D01*
X94121789Y-133010289D01*
X94209394Y-132879179D01*
X94269737Y-132733497D01*
X94300500Y-132578842D01*
X94300500Y-132421158D01*
X94300500Y-132421155D01*
X94300499Y-132421153D01*
X94269738Y-132266510D01*
X94269737Y-132266503D01*
X94250389Y-132219792D01*
X94209397Y-132120827D01*
X94209390Y-132120814D01*
X94121789Y-131989711D01*
X94121786Y-131989707D01*
X94010292Y-131878213D01*
X94010288Y-131878210D01*
X93879185Y-131790609D01*
X93879172Y-131790602D01*
X93733501Y-131730264D01*
X93733489Y-131730261D01*
X93578845Y-131699500D01*
X93578842Y-131699500D01*
X93421158Y-131699500D01*
X93421155Y-131699500D01*
X93266510Y-131730261D01*
X93266498Y-131730264D01*
X93120827Y-131790602D01*
X93120814Y-131790609D01*
X92989711Y-131878210D01*
X92989707Y-131878213D01*
X92878213Y-131989707D01*
X92878210Y-131989711D01*
X92790609Y-132120814D01*
X92790602Y-132120827D01*
X92730264Y-132266498D01*
X92730261Y-132266510D01*
X92699500Y-132421153D01*
X66500000Y-132421153D01*
X66500000Y-131791517D01*
X66519685Y-131724478D01*
X66572489Y-131678723D01*
X66641647Y-131668779D01*
X66685997Y-131684128D01*
X66883303Y-131798043D01*
X66883305Y-131798043D01*
X66883309Y-131798046D01*
X67076845Y-131878211D01*
X67125581Y-131898398D01*
X67378884Y-131966270D01*
X67638880Y-132000500D01*
X67638887Y-132000500D01*
X67901113Y-132000500D01*
X67901120Y-132000500D01*
X68161116Y-131966270D01*
X68414419Y-131898398D01*
X68656697Y-131798043D01*
X68883803Y-131666924D01*
X69091851Y-131507282D01*
X69091855Y-131507277D01*
X69091860Y-131507274D01*
X69277274Y-131321860D01*
X69277277Y-131321855D01*
X69277282Y-131321851D01*
X69436924Y-131113803D01*
X69568043Y-130886697D01*
X69668398Y-130644419D01*
X69728222Y-130421153D01*
X78199500Y-130421153D01*
X78199500Y-130578846D01*
X78230261Y-130733489D01*
X78230264Y-130733501D01*
X78290602Y-130879172D01*
X78290609Y-130879185D01*
X78378210Y-131010288D01*
X78378213Y-131010292D01*
X78489707Y-131121786D01*
X78489711Y-131121789D01*
X78620814Y-131209390D01*
X78620827Y-131209397D01*
X78766498Y-131269735D01*
X78766503Y-131269737D01*
X78921153Y-131300499D01*
X78921156Y-131300500D01*
X78921158Y-131300500D01*
X79078844Y-131300500D01*
X79078845Y-131300499D01*
X79233497Y-131269737D01*
X79379179Y-131209394D01*
X79510289Y-131121789D01*
X79621789Y-131010289D01*
X79709394Y-130879179D01*
X79769737Y-130733497D01*
X79800500Y-130578842D01*
X79800500Y-130421158D01*
X79800500Y-130421155D01*
X79800499Y-130421153D01*
X79769738Y-130266510D01*
X79769737Y-130266503D01*
X79756062Y-130233489D01*
X79709397Y-130120827D01*
X79709390Y-130120814D01*
X79621789Y-129989711D01*
X79621786Y-129989707D01*
X79510292Y-129878213D01*
X79510288Y-129878210D01*
X79496313Y-129868872D01*
X81999500Y-129868872D01*
X81999500Y-130131127D01*
X82012979Y-130233501D01*
X82033730Y-130391116D01*
X82098324Y-130632184D01*
X82101602Y-130644418D01*
X82101605Y-130644428D01*
X82201953Y-130886690D01*
X82201958Y-130886700D01*
X82333075Y-131113803D01*
X82492718Y-131321851D01*
X82492726Y-131321860D01*
X82678140Y-131507274D01*
X82678148Y-131507281D01*
X82886196Y-131666924D01*
X83113299Y-131798041D01*
X83113309Y-131798046D01*
X83306845Y-131878211D01*
X83355581Y-131898398D01*
X83608884Y-131966270D01*
X83868880Y-132000500D01*
X83868887Y-132000500D01*
X84131113Y-132000500D01*
X84131120Y-132000500D01*
X84391116Y-131966270D01*
X84644419Y-131898398D01*
X84886697Y-131798043D01*
X85113803Y-131666924D01*
X85321851Y-131507282D01*
X85321855Y-131507277D01*
X85321860Y-131507274D01*
X85507274Y-131321860D01*
X85507277Y-131321855D01*
X85507282Y-131321851D01*
X85666924Y-131113803D01*
X85798043Y-130886697D01*
X85898398Y-130644419D01*
X85966270Y-130391116D01*
X86000500Y-130131120D01*
X86000500Y-129921153D01*
X91774500Y-129921153D01*
X91774500Y-130078846D01*
X91805261Y-130233489D01*
X91805264Y-130233501D01*
X91865602Y-130379172D01*
X91865609Y-130379185D01*
X91953210Y-130510288D01*
X91953213Y-130510292D01*
X92064707Y-130621786D01*
X92064711Y-130621789D01*
X92195814Y-130709390D01*
X92195827Y-130709397D01*
X92341498Y-130769735D01*
X92341503Y-130769737D01*
X92496153Y-130800499D01*
X92496156Y-130800500D01*
X92496158Y-130800500D01*
X92653844Y-130800500D01*
X92653845Y-130800499D01*
X92808497Y-130769737D01*
X92954179Y-130709394D01*
X93085289Y-130621789D01*
X93196789Y-130510289D01*
X93284394Y-130379179D01*
X93344737Y-130233497D01*
X93375500Y-130078842D01*
X93375500Y-129921158D01*
X93375500Y-129921155D01*
X93375499Y-129921153D01*
X93365101Y-129868880D01*
X93344737Y-129766503D01*
X93344735Y-129766498D01*
X93284397Y-129620827D01*
X93284390Y-129620814D01*
X93196789Y-129489711D01*
X93196786Y-129489707D01*
X93085292Y-129378213D01*
X93085288Y-129378210D01*
X92954185Y-129290609D01*
X92954172Y-129290602D01*
X92808501Y-129230264D01*
X92808489Y-129230261D01*
X92653845Y-129199500D01*
X92653842Y-129199500D01*
X92496158Y-129199500D01*
X92496155Y-129199500D01*
X92341510Y-129230261D01*
X92341498Y-129230264D01*
X92195827Y-129290602D01*
X92195814Y-129290609D01*
X92064711Y-129378210D01*
X92064707Y-129378213D01*
X91953213Y-129489707D01*
X91953210Y-129489711D01*
X91865609Y-129620814D01*
X91865602Y-129620827D01*
X91805264Y-129766498D01*
X91805261Y-129766510D01*
X91774500Y-129921153D01*
X86000500Y-129921153D01*
X86000500Y-129868880D01*
X85966270Y-129608884D01*
X85898398Y-129355581D01*
X85884903Y-129323001D01*
X85798046Y-129113309D01*
X85798041Y-129113299D01*
X85666924Y-128886196D01*
X85507281Y-128678148D01*
X85507274Y-128678140D01*
X85321860Y-128492726D01*
X85321851Y-128492718D01*
X85113803Y-128333075D01*
X84886700Y-128201958D01*
X84886690Y-128201953D01*
X84644428Y-128101605D01*
X84644421Y-128101603D01*
X84644419Y-128101602D01*
X84391116Y-128033730D01*
X84333339Y-128026123D01*
X84131127Y-127999500D01*
X84131120Y-127999500D01*
X83868880Y-127999500D01*
X83868872Y-127999500D01*
X83637772Y-128029926D01*
X83608884Y-128033730D01*
X83390748Y-128092179D01*
X83355581Y-128101602D01*
X83355571Y-128101605D01*
X83113309Y-128201953D01*
X83113299Y-128201958D01*
X82886196Y-128333075D01*
X82678148Y-128492718D01*
X82492718Y-128678148D01*
X82333075Y-128886196D01*
X82201958Y-129113299D01*
X82201953Y-129113309D01*
X82101605Y-129355571D01*
X82101602Y-129355581D01*
X82033730Y-129608884D01*
X82032158Y-129620827D01*
X81999500Y-129868872D01*
X79496313Y-129868872D01*
X79379185Y-129790609D01*
X79379172Y-129790602D01*
X79233501Y-129730264D01*
X79233489Y-129730261D01*
X79078845Y-129699500D01*
X79078842Y-129699500D01*
X78921158Y-129699500D01*
X78921155Y-129699500D01*
X78766510Y-129730261D01*
X78766498Y-129730264D01*
X78620827Y-129790602D01*
X78620814Y-129790609D01*
X78489711Y-129878210D01*
X78489707Y-129878213D01*
X78378213Y-129989707D01*
X78378210Y-129989711D01*
X78290609Y-130120814D01*
X78290602Y-130120827D01*
X78230264Y-130266498D01*
X78230261Y-130266510D01*
X78199500Y-130421153D01*
X69728222Y-130421153D01*
X69736270Y-130391116D01*
X69770500Y-130131120D01*
X69770500Y-129868880D01*
X69736270Y-129608884D01*
X69668398Y-129355581D01*
X69654903Y-129323001D01*
X69568046Y-129113309D01*
X69568041Y-129113299D01*
X69436924Y-128886196D01*
X69277281Y-128678148D01*
X69277274Y-128678140D01*
X69091860Y-128492726D01*
X69091851Y-128492718D01*
X68883803Y-128333075D01*
X68656700Y-128201958D01*
X68656690Y-128201953D01*
X68414428Y-128101605D01*
X68414421Y-128101603D01*
X68414419Y-128101602D01*
X68161116Y-128033730D01*
X68103339Y-128026123D01*
X67901127Y-127999500D01*
X67901120Y-127999500D01*
X67638880Y-127999500D01*
X67638872Y-127999500D01*
X67407772Y-128029926D01*
X67378884Y-128033730D01*
X67160748Y-128092179D01*
X67125581Y-128101602D01*
X67125571Y-128101605D01*
X66883309Y-128201953D01*
X66883304Y-128201956D01*
X66685999Y-128315869D01*
X66618099Y-128332341D01*
X66552072Y-128309488D01*
X66508882Y-128254566D01*
X66500000Y-128208481D01*
X66500000Y-127421153D01*
X78199500Y-127421153D01*
X78199500Y-127578846D01*
X78230261Y-127733489D01*
X78230264Y-127733501D01*
X78290602Y-127879172D01*
X78290609Y-127879185D01*
X78378210Y-128010288D01*
X78378213Y-128010292D01*
X78489707Y-128121786D01*
X78489711Y-128121789D01*
X78620814Y-128209390D01*
X78620827Y-128209397D01*
X78766498Y-128269735D01*
X78766503Y-128269737D01*
X78921153Y-128300499D01*
X78921156Y-128300500D01*
X78921158Y-128300500D01*
X79078844Y-128300500D01*
X79078845Y-128300499D01*
X79233497Y-128269737D01*
X79379179Y-128209394D01*
X79510289Y-128121789D01*
X79621789Y-128010289D01*
X79709394Y-127879179D01*
X79769737Y-127733497D01*
X79782138Y-127671153D01*
X86199500Y-127671153D01*
X86199500Y-127828846D01*
X86230261Y-127983489D01*
X86230264Y-127983501D01*
X86290602Y-128129172D01*
X86290609Y-128129185D01*
X86378210Y-128260288D01*
X86378213Y-128260292D01*
X86489707Y-128371786D01*
X86489711Y-128371789D01*
X86620814Y-128459390D01*
X86620827Y-128459397D01*
X86701292Y-128492726D01*
X86766503Y-128519737D01*
X86921153Y-128550499D01*
X86921156Y-128550500D01*
X86921158Y-128550500D01*
X87078844Y-128550500D01*
X87078845Y-128550499D01*
X87233497Y-128519737D01*
X87379179Y-128459394D01*
X87402736Y-128443654D01*
X88972001Y-128443654D01*
X88972001Y-128601347D01*
X89002762Y-128755990D01*
X89002765Y-128756002D01*
X89063103Y-128901673D01*
X89063110Y-128901686D01*
X89150711Y-129032789D01*
X89150714Y-129032793D01*
X89262208Y-129144287D01*
X89262212Y-129144290D01*
X89393315Y-129231891D01*
X89393328Y-129231898D01*
X89535054Y-129290602D01*
X89539004Y-129292238D01*
X89670589Y-129318412D01*
X89693654Y-129323000D01*
X89693657Y-129323001D01*
X89693659Y-129323001D01*
X89851345Y-129323001D01*
X89851346Y-129323000D01*
X90005998Y-129292238D01*
X90151680Y-129231895D01*
X90282790Y-129144290D01*
X90394290Y-129032790D01*
X90481895Y-128901680D01*
X90542238Y-128755998D01*
X90547864Y-128727709D01*
X90554627Y-128693713D01*
X111149500Y-128693713D01*
X111149500Y-128906286D01*
X111182287Y-129113299D01*
X111182754Y-129116243D01*
X111239409Y-129290609D01*
X111248444Y-129318414D01*
X111344951Y-129507820D01*
X111469890Y-129679786D01*
X111620213Y-129830109D01*
X111792182Y-129955050D01*
X111800946Y-129959516D01*
X111851742Y-130007491D01*
X111868536Y-130075312D01*
X111845998Y-130141447D01*
X111800946Y-130180484D01*
X111792182Y-130184949D01*
X111620213Y-130309890D01*
X111469890Y-130460213D01*
X111344951Y-130632179D01*
X111248444Y-130821585D01*
X111182753Y-131023760D01*
X111167227Y-131121789D01*
X111149500Y-131233713D01*
X111149500Y-131446287D01*
X111182754Y-131656243D01*
X111228827Y-131798041D01*
X111248444Y-131858414D01*
X111344951Y-132047820D01*
X111469890Y-132219786D01*
X111620213Y-132370109D01*
X111792182Y-132495050D01*
X111800946Y-132499516D01*
X111851742Y-132547491D01*
X111868536Y-132615312D01*
X111845998Y-132681447D01*
X111800946Y-132720484D01*
X111792182Y-132724949D01*
X111620213Y-132849890D01*
X111469890Y-133000213D01*
X111344951Y-133172179D01*
X111248444Y-133361585D01*
X111182753Y-133563760D01*
X111149500Y-133773713D01*
X111149500Y-133986286D01*
X111180222Y-134180261D01*
X111182754Y-134196243D01*
X111241879Y-134378211D01*
X111248444Y-134398414D01*
X111344951Y-134587820D01*
X111469890Y-134759786D01*
X111620213Y-134910109D01*
X111792182Y-135035050D01*
X111800946Y-135039516D01*
X111851742Y-135087491D01*
X111868536Y-135155312D01*
X111845998Y-135221447D01*
X111800946Y-135260484D01*
X111792182Y-135264949D01*
X111620213Y-135389890D01*
X111469890Y-135540213D01*
X111344951Y-135712179D01*
X111248444Y-135901585D01*
X111182753Y-136103760D01*
X111170971Y-136178149D01*
X111149500Y-136313713D01*
X111149500Y-136526287D01*
X111151938Y-136541679D01*
X111182319Y-136733501D01*
X111182754Y-136736243D01*
X111235421Y-136898336D01*
X111248444Y-136938414D01*
X111344951Y-137127820D01*
X111469890Y-137299786D01*
X111620213Y-137450109D01*
X111792182Y-137575050D01*
X111800946Y-137579516D01*
X111851742Y-137627491D01*
X111868536Y-137695312D01*
X111845998Y-137761447D01*
X111800946Y-137800484D01*
X111792182Y-137804949D01*
X111620213Y-137929890D01*
X111469890Y-138080213D01*
X111344951Y-138252179D01*
X111248444Y-138441585D01*
X111182753Y-138643760D01*
X111149500Y-138853713D01*
X111149500Y-139066286D01*
X111181723Y-139269738D01*
X111182754Y-139276243D01*
X111244497Y-139466269D01*
X111248444Y-139478414D01*
X111344951Y-139667820D01*
X111469890Y-139839786D01*
X111620213Y-139990109D01*
X111792182Y-140115050D01*
X111800946Y-140119516D01*
X111851742Y-140167491D01*
X111868536Y-140235312D01*
X111845998Y-140301447D01*
X111800946Y-140340484D01*
X111792182Y-140344949D01*
X111620213Y-140469890D01*
X111469890Y-140620213D01*
X111344951Y-140792179D01*
X111248444Y-140981585D01*
X111182753Y-141183760D01*
X111149500Y-141393713D01*
X111149500Y-141606286D01*
X111173891Y-141760289D01*
X111182754Y-141816243D01*
X111235587Y-141978846D01*
X111248444Y-142018414D01*
X111344951Y-142207820D01*
X111469890Y-142379786D01*
X111620213Y-142530109D01*
X111792182Y-142655050D01*
X111800946Y-142659516D01*
X111851742Y-142707491D01*
X111868536Y-142775312D01*
X111845998Y-142841447D01*
X111800946Y-142880484D01*
X111792182Y-142884949D01*
X111620213Y-143009890D01*
X111469890Y-143160213D01*
X111344951Y-143332179D01*
X111248444Y-143521585D01*
X111182753Y-143723760D01*
X111149500Y-143933713D01*
X111149500Y-144146286D01*
X111172358Y-144290609D01*
X111182754Y-144356243D01*
X111246959Y-144553846D01*
X111248444Y-144558414D01*
X111344951Y-144747820D01*
X111469890Y-144919786D01*
X111583430Y-145033326D01*
X111616915Y-145094649D01*
X111611931Y-145164341D01*
X111570059Y-145220274D01*
X111539083Y-145237189D01*
X111407669Y-145286203D01*
X111407664Y-145286206D01*
X111292455Y-145372452D01*
X111292452Y-145372455D01*
X111206206Y-145487664D01*
X111206202Y-145487671D01*
X111155908Y-145622517D01*
X111150680Y-145671153D01*
X111149501Y-145682123D01*
X111149500Y-145682135D01*
X111149500Y-147477870D01*
X111149501Y-147477876D01*
X111155908Y-147537483D01*
X111206202Y-147672328D01*
X111206206Y-147672335D01*
X111292452Y-147787544D01*
X111292455Y-147787547D01*
X111407664Y-147873793D01*
X111407671Y-147873797D01*
X111542517Y-147924091D01*
X111542516Y-147924091D01*
X111549444Y-147924835D01*
X111602127Y-147930500D01*
X113397872Y-147930499D01*
X113457483Y-147924091D01*
X113592331Y-147873796D01*
X113707546Y-147787546D01*
X113793796Y-147672331D01*
X113844091Y-147537483D01*
X113850500Y-147477873D01*
X113850499Y-145682128D01*
X113844091Y-145622517D01*
X113843819Y-145621789D01*
X113793797Y-145487671D01*
X113793793Y-145487664D01*
X113707547Y-145372455D01*
X113707544Y-145372452D01*
X113592335Y-145286206D01*
X113592328Y-145286202D01*
X113460917Y-145237189D01*
X113404983Y-145195318D01*
X113380566Y-145129853D01*
X113395418Y-145061580D01*
X113416563Y-145033332D01*
X113530104Y-144919792D01*
X113655051Y-144747816D01*
X113751557Y-144558412D01*
X113817246Y-144356243D01*
X113850500Y-144146287D01*
X113850500Y-143933713D01*
X113817246Y-143723757D01*
X113751557Y-143521588D01*
X113655051Y-143332184D01*
X113655049Y-143332181D01*
X113655048Y-143332179D01*
X113530109Y-143160213D01*
X113379786Y-143009890D01*
X113207820Y-142884951D01*
X113207115Y-142884591D01*
X113199054Y-142880485D01*
X113148259Y-142832512D01*
X113131463Y-142764692D01*
X113153999Y-142698556D01*
X113199054Y-142659515D01*
X113207816Y-142655051D01*
X113229789Y-142639086D01*
X113379786Y-142530109D01*
X113379788Y-142530106D01*
X113379792Y-142530104D01*
X113530104Y-142379792D01*
X113530106Y-142379788D01*
X113530109Y-142379786D01*
X113655048Y-142207820D01*
X113655047Y-142207820D01*
X113655051Y-142207816D01*
X113751557Y-142018412D01*
X113817246Y-141816243D01*
X113850500Y-141606287D01*
X113850500Y-141393713D01*
X113817246Y-141183757D01*
X113751557Y-140981588D01*
X113655051Y-140792184D01*
X113655049Y-140792181D01*
X113655048Y-140792179D01*
X113530109Y-140620213D01*
X113379786Y-140469890D01*
X113207820Y-140344951D01*
X113207115Y-140344591D01*
X113199054Y-140340485D01*
X113148259Y-140292512D01*
X113131463Y-140224692D01*
X113153999Y-140158556D01*
X113199054Y-140119515D01*
X113207816Y-140115051D01*
X113317600Y-140035289D01*
X113379786Y-139990109D01*
X113379788Y-139990106D01*
X113379792Y-139990104D01*
X113530104Y-139839792D01*
X113530106Y-139839788D01*
X113530109Y-139839786D01*
X113655048Y-139667820D01*
X113655047Y-139667820D01*
X113655051Y-139667816D01*
X113751557Y-139478412D01*
X113817246Y-139276243D01*
X113850500Y-139066287D01*
X113850500Y-138853713D01*
X113817246Y-138643757D01*
X113751557Y-138441588D01*
X113655051Y-138252184D01*
X113655049Y-138252181D01*
X113655048Y-138252179D01*
X113530109Y-138080213D01*
X113379786Y-137929890D01*
X113207820Y-137804951D01*
X113207115Y-137804591D01*
X113199054Y-137800485D01*
X113148259Y-137752512D01*
X113131463Y-137684692D01*
X113153999Y-137618556D01*
X113199054Y-137579515D01*
X113207816Y-137575051D01*
X113229789Y-137559086D01*
X113379786Y-137450109D01*
X113379788Y-137450106D01*
X113379792Y-137450104D01*
X113530104Y-137299792D01*
X113530106Y-137299788D01*
X113530109Y-137299786D01*
X113639086Y-137149789D01*
X113655051Y-137127816D01*
X113751557Y-136938412D01*
X113817246Y-136736243D01*
X113850500Y-136526287D01*
X113850500Y-136313713D01*
X113817246Y-136103757D01*
X113751557Y-135901588D01*
X113655051Y-135712184D01*
X113655049Y-135712181D01*
X113655048Y-135712179D01*
X113530109Y-135540213D01*
X113379786Y-135389890D01*
X113207820Y-135264951D01*
X113207115Y-135264591D01*
X113199054Y-135260485D01*
X113148259Y-135212512D01*
X113131463Y-135144692D01*
X113153999Y-135078556D01*
X113199054Y-135039515D01*
X113207816Y-135035051D01*
X113241900Y-135010288D01*
X113379786Y-134910109D01*
X113379788Y-134910106D01*
X113379792Y-134910104D01*
X113530104Y-134759792D01*
X113530106Y-134759788D01*
X113530109Y-134759786D01*
X113655048Y-134587820D01*
X113655047Y-134587820D01*
X113655051Y-134587816D01*
X113751557Y-134398412D01*
X113817246Y-134196243D01*
X113850500Y-133986287D01*
X113850500Y-133773713D01*
X113817246Y-133563757D01*
X113751557Y-133361588D01*
X113655051Y-133172184D01*
X113655049Y-133172181D01*
X113655048Y-133172179D01*
X113530109Y-133000213D01*
X113379786Y-132849890D01*
X113207820Y-132724951D01*
X113207115Y-132724591D01*
X113199054Y-132720485D01*
X113148259Y-132672512D01*
X113131463Y-132604692D01*
X113153999Y-132538556D01*
X113199054Y-132499515D01*
X113207816Y-132495051D01*
X113309529Y-132421153D01*
X113379786Y-132370109D01*
X113379788Y-132370106D01*
X113379792Y-132370104D01*
X113530104Y-132219792D01*
X113530106Y-132219788D01*
X113530109Y-132219786D01*
X113655048Y-132047820D01*
X113655047Y-132047820D01*
X113655051Y-132047816D01*
X113751557Y-131858412D01*
X113817246Y-131656243D01*
X113850500Y-131446287D01*
X113850500Y-131233713D01*
X113817246Y-131023757D01*
X113751557Y-130821588D01*
X113655051Y-130632184D01*
X113655049Y-130632181D01*
X113655048Y-130632179D01*
X113530109Y-130460213D01*
X113379786Y-130309890D01*
X113207820Y-130184951D01*
X113207115Y-130184591D01*
X113199054Y-130180485D01*
X113148259Y-130132512D01*
X113131463Y-130064692D01*
X113153999Y-129998556D01*
X113199054Y-129959515D01*
X113207816Y-129955051D01*
X113254473Y-129921153D01*
X113379786Y-129830109D01*
X113379788Y-129830106D01*
X113379792Y-129830104D01*
X113530104Y-129679792D01*
X113530106Y-129679788D01*
X113530109Y-129679786D01*
X113655048Y-129507820D01*
X113655047Y-129507820D01*
X113655051Y-129507816D01*
X113751557Y-129318412D01*
X113817246Y-129116243D01*
X113850500Y-128906287D01*
X113850500Y-128693713D01*
X113817246Y-128483757D01*
X113751557Y-128281588D01*
X113655051Y-128092184D01*
X113655049Y-128092181D01*
X113655048Y-128092179D01*
X113530109Y-127920213D01*
X113379786Y-127769890D01*
X113207817Y-127644949D01*
X113198504Y-127640204D01*
X113147707Y-127592230D01*
X113130912Y-127524409D01*
X113153449Y-127458274D01*
X113198507Y-127419232D01*
X113207555Y-127414622D01*
X113261716Y-127375270D01*
X113261717Y-127375270D01*
X112629408Y-126742962D01*
X112692993Y-126725925D01*
X112807007Y-126660099D01*
X112900099Y-126567007D01*
X112965925Y-126452993D01*
X112982962Y-126389409D01*
X113615270Y-127021717D01*
X113615270Y-127021716D01*
X113654622Y-126967554D01*
X113751095Y-126778217D01*
X113816757Y-126576130D01*
X113816757Y-126576127D01*
X113850000Y-126366246D01*
X113850000Y-126153753D01*
X113816757Y-125943872D01*
X113816757Y-125943869D01*
X113751095Y-125741782D01*
X113654624Y-125552449D01*
X113615270Y-125498282D01*
X113615269Y-125498282D01*
X112982962Y-126130590D01*
X112965925Y-126067007D01*
X112900099Y-125952993D01*
X112807007Y-125859901D01*
X112692993Y-125794075D01*
X112629409Y-125777037D01*
X113261716Y-125144728D01*
X113207550Y-125105375D01*
X113018217Y-125008904D01*
X112816129Y-124943242D01*
X112606246Y-124910000D01*
X112393754Y-124910000D01*
X112183872Y-124943242D01*
X112183869Y-124943242D01*
X111981782Y-125008904D01*
X111792439Y-125105380D01*
X111738282Y-125144727D01*
X111738282Y-125144728D01*
X112370591Y-125777037D01*
X112307007Y-125794075D01*
X112192993Y-125859901D01*
X112099901Y-125952993D01*
X112034075Y-126067007D01*
X112017037Y-126130591D01*
X111384728Y-125498282D01*
X111384727Y-125498282D01*
X111345380Y-125552439D01*
X111248904Y-125741782D01*
X111183242Y-125943869D01*
X111183242Y-125943872D01*
X111150000Y-126153753D01*
X111150000Y-126366246D01*
X111183242Y-126576127D01*
X111183242Y-126576130D01*
X111248904Y-126778217D01*
X111345375Y-126967550D01*
X111384728Y-127021716D01*
X112017037Y-126389408D01*
X112034075Y-126452993D01*
X112099901Y-126567007D01*
X112192993Y-126660099D01*
X112307007Y-126725925D01*
X112370590Y-126742962D01*
X111738282Y-127375269D01*
X111738282Y-127375270D01*
X111792452Y-127414626D01*
X111792451Y-127414626D01*
X111801495Y-127419234D01*
X111852292Y-127467208D01*
X111869087Y-127535029D01*
X111846550Y-127601164D01*
X111801499Y-127640202D01*
X111792182Y-127644949D01*
X111620213Y-127769890D01*
X111469890Y-127920213D01*
X111344951Y-128092179D01*
X111248444Y-128281585D01*
X111182753Y-128483760D01*
X111149500Y-128693713D01*
X90554627Y-128693713D01*
X90560409Y-128664649D01*
X90560409Y-128664648D01*
X90573000Y-128601347D01*
X90573001Y-128601345D01*
X90573001Y-128443656D01*
X90573000Y-128443654D01*
X90554348Y-128349886D01*
X90542238Y-128289004D01*
X90534258Y-128269738D01*
X90481898Y-128143328D01*
X90481891Y-128143315D01*
X90394290Y-128012212D01*
X90394287Y-128012208D01*
X90282793Y-127900714D01*
X90282789Y-127900711D01*
X90151686Y-127813110D01*
X90151676Y-127813105D01*
X90077398Y-127782338D01*
X90022995Y-127738497D01*
X90000930Y-127672203D01*
X90018209Y-127604503D01*
X90069347Y-127556893D01*
X90100659Y-127546160D01*
X90233497Y-127519737D01*
X90379179Y-127459394D01*
X90510289Y-127371789D01*
X90621789Y-127260289D01*
X90709394Y-127129179D01*
X90712854Y-127120827D01*
X90730244Y-127078842D01*
X90769737Y-126983497D01*
X90782138Y-126921153D01*
X93699500Y-126921153D01*
X93699500Y-127078846D01*
X93730261Y-127233489D01*
X93730264Y-127233501D01*
X93790602Y-127379172D01*
X93790609Y-127379185D01*
X93878210Y-127510288D01*
X93878213Y-127510292D01*
X93989707Y-127621786D01*
X93989711Y-127621789D01*
X94120814Y-127709390D01*
X94120827Y-127709397D01*
X94266498Y-127769735D01*
X94266503Y-127769737D01*
X94421153Y-127800499D01*
X94421156Y-127800500D01*
X94421158Y-127800500D01*
X94578844Y-127800500D01*
X94578845Y-127800499D01*
X94733497Y-127769737D01*
X94848743Y-127722001D01*
X94879172Y-127709397D01*
X94879172Y-127709396D01*
X94879179Y-127709394D01*
X95010289Y-127621789D01*
X95121789Y-127510289D01*
X95174112Y-127431981D01*
X95196898Y-127397881D01*
X95250510Y-127353076D01*
X95319835Y-127344369D01*
X95382863Y-127374523D01*
X95403102Y-127397881D01*
X95478210Y-127510288D01*
X95478213Y-127510292D01*
X95589707Y-127621786D01*
X95589711Y-127621789D01*
X95720814Y-127709390D01*
X95720827Y-127709397D01*
X95866498Y-127769735D01*
X95866503Y-127769737D01*
X96021153Y-127800499D01*
X96021156Y-127800500D01*
X96021158Y-127800500D01*
X96178844Y-127800500D01*
X96178845Y-127800499D01*
X96333497Y-127769737D01*
X96448743Y-127722001D01*
X96479172Y-127709397D01*
X96479172Y-127709396D01*
X96479179Y-127709394D01*
X96610289Y-127621789D01*
X96721789Y-127510289D01*
X96809394Y-127379179D01*
X96812854Y-127370827D01*
X96841984Y-127300499D01*
X96869737Y-127233497D01*
X96900500Y-127078842D01*
X96900500Y-126921158D01*
X96900500Y-126921155D01*
X96900499Y-126921153D01*
X96874531Y-126790606D01*
X96869737Y-126766503D01*
X96856062Y-126733489D01*
X96809397Y-126620827D01*
X96809390Y-126620814D01*
X96721789Y-126489711D01*
X96721786Y-126489707D01*
X96610292Y-126378213D01*
X96610288Y-126378210D01*
X96524897Y-126321153D01*
X97599500Y-126321153D01*
X97599500Y-126478846D01*
X97630261Y-126633489D01*
X97630264Y-126633501D01*
X97690602Y-126779172D01*
X97690609Y-126779185D01*
X97778210Y-126910288D01*
X97778213Y-126910292D01*
X97889707Y-127021786D01*
X97889711Y-127021789D01*
X98020814Y-127109390D01*
X98020827Y-127109397D01*
X98166498Y-127169735D01*
X98166503Y-127169737D01*
X98321153Y-127200499D01*
X98321156Y-127200500D01*
X98321158Y-127200500D01*
X98478844Y-127200500D01*
X98478845Y-127200499D01*
X98633497Y-127169737D01*
X98751592Y-127120821D01*
X98779172Y-127109397D01*
X98779172Y-127109396D01*
X98779179Y-127109394D01*
X98910289Y-127021789D01*
X99021789Y-126910289D01*
X99109394Y-126779179D01*
X99109793Y-126778217D01*
X99129655Y-126730264D01*
X99169737Y-126633497D01*
X99200500Y-126478842D01*
X99200500Y-126421153D01*
X101699500Y-126421153D01*
X101699500Y-126578846D01*
X101730261Y-126733489D01*
X101730264Y-126733501D01*
X101790602Y-126879172D01*
X101790609Y-126879185D01*
X101878210Y-127010288D01*
X101878213Y-127010292D01*
X101989707Y-127121786D01*
X101989711Y-127121789D01*
X102120814Y-127209390D01*
X102120827Y-127209397D01*
X102258683Y-127266498D01*
X102266503Y-127269737D01*
X102421153Y-127300499D01*
X102421156Y-127300500D01*
X102421158Y-127300500D01*
X102578844Y-127300500D01*
X102578845Y-127300499D01*
X102733497Y-127269737D01*
X102879179Y-127209394D01*
X103010289Y-127121789D01*
X103121789Y-127010289D01*
X103209394Y-126879179D01*
X103269737Y-126733497D01*
X103300500Y-126578842D01*
X103300500Y-126421158D01*
X103300500Y-126421155D01*
X103300499Y-126421153D01*
X104799500Y-126421153D01*
X104799500Y-126578846D01*
X104830261Y-126733489D01*
X104830264Y-126733501D01*
X104890602Y-126879172D01*
X104890609Y-126879185D01*
X104978210Y-127010288D01*
X104978213Y-127010292D01*
X105089707Y-127121786D01*
X105089711Y-127121789D01*
X105220814Y-127209390D01*
X105220827Y-127209397D01*
X105358683Y-127266498D01*
X105366503Y-127269737D01*
X105521153Y-127300499D01*
X105521156Y-127300500D01*
X105521158Y-127300500D01*
X105678844Y-127300500D01*
X105678845Y-127300499D01*
X105833497Y-127269737D01*
X105979179Y-127209394D01*
X106110289Y-127121789D01*
X106221789Y-127010289D01*
X106309394Y-126879179D01*
X106369737Y-126733497D01*
X106400500Y-126578842D01*
X106400500Y-126421158D01*
X106400500Y-126421155D01*
X106400499Y-126421153D01*
X106381537Y-126325826D01*
X106369737Y-126266503D01*
X106312455Y-126128210D01*
X106309397Y-126120827D01*
X106309390Y-126120814D01*
X106221789Y-125989711D01*
X106221786Y-125989707D01*
X106110292Y-125878213D01*
X106110288Y-125878210D01*
X105979185Y-125790609D01*
X105979172Y-125790602D01*
X105833501Y-125730264D01*
X105833489Y-125730261D01*
X105678845Y-125699500D01*
X105678842Y-125699500D01*
X105521158Y-125699500D01*
X105521155Y-125699500D01*
X105366510Y-125730261D01*
X105366498Y-125730264D01*
X105220827Y-125790602D01*
X105220814Y-125790609D01*
X105089711Y-125878210D01*
X105089707Y-125878213D01*
X104978213Y-125989707D01*
X104978210Y-125989711D01*
X104890609Y-126120814D01*
X104890602Y-126120827D01*
X104830264Y-126266498D01*
X104830261Y-126266510D01*
X104799500Y-126421153D01*
X103300499Y-126421153D01*
X103281537Y-126325826D01*
X103269737Y-126266503D01*
X103267043Y-126259999D01*
X103209397Y-126120827D01*
X103209390Y-126120814D01*
X103121789Y-125989711D01*
X103121786Y-125989707D01*
X103010292Y-125878213D01*
X103010288Y-125878210D01*
X102879185Y-125790609D01*
X102879172Y-125790602D01*
X102733501Y-125730264D01*
X102733489Y-125730261D01*
X102578845Y-125699500D01*
X102578842Y-125699500D01*
X102421158Y-125699500D01*
X102421155Y-125699500D01*
X102266510Y-125730261D01*
X102266498Y-125730264D01*
X102120827Y-125790602D01*
X102120814Y-125790609D01*
X101989711Y-125878210D01*
X101989707Y-125878213D01*
X101878213Y-125989707D01*
X101878210Y-125989711D01*
X101790609Y-126120814D01*
X101790602Y-126120827D01*
X101730264Y-126266498D01*
X101730261Y-126266510D01*
X101699500Y-126421153D01*
X99200500Y-126421153D01*
X99200500Y-126321158D01*
X99200500Y-126321155D01*
X99200499Y-126321153D01*
X99188335Y-126260000D01*
X99169737Y-126166503D01*
X99128525Y-126067007D01*
X99109397Y-126020827D01*
X99109390Y-126020814D01*
X99021789Y-125889711D01*
X99021786Y-125889707D01*
X98910292Y-125778213D01*
X98910288Y-125778210D01*
X98779185Y-125690609D01*
X98779172Y-125690602D01*
X98633501Y-125630264D01*
X98633489Y-125630261D01*
X98478845Y-125599500D01*
X98478842Y-125599500D01*
X98321158Y-125599500D01*
X98321155Y-125599500D01*
X98166510Y-125630261D01*
X98166498Y-125630264D01*
X98020827Y-125690602D01*
X98020814Y-125690609D01*
X97889711Y-125778210D01*
X97889707Y-125778213D01*
X97778213Y-125889707D01*
X97778210Y-125889711D01*
X97690609Y-126020814D01*
X97690602Y-126020827D01*
X97630264Y-126166498D01*
X97630261Y-126166510D01*
X97599500Y-126321153D01*
X96524897Y-126321153D01*
X96479185Y-126290609D01*
X96479172Y-126290602D01*
X96333501Y-126230264D01*
X96333489Y-126230261D01*
X96178845Y-126199500D01*
X96178842Y-126199500D01*
X96021158Y-126199500D01*
X96021155Y-126199500D01*
X95866510Y-126230261D01*
X95866498Y-126230264D01*
X95720827Y-126290602D01*
X95720814Y-126290609D01*
X95589711Y-126378210D01*
X95589707Y-126378213D01*
X95478213Y-126489707D01*
X95478210Y-126489711D01*
X95403102Y-126602118D01*
X95349490Y-126646923D01*
X95280165Y-126655630D01*
X95217137Y-126625475D01*
X95196898Y-126602118D01*
X95121789Y-126489711D01*
X95121786Y-126489707D01*
X95010292Y-126378213D01*
X95010288Y-126378210D01*
X94879185Y-126290609D01*
X94879172Y-126290602D01*
X94733501Y-126230264D01*
X94733489Y-126230261D01*
X94578845Y-126199500D01*
X94578842Y-126199500D01*
X94421158Y-126199500D01*
X94421155Y-126199500D01*
X94266510Y-126230261D01*
X94266498Y-126230264D01*
X94120827Y-126290602D01*
X94120814Y-126290609D01*
X93989711Y-126378210D01*
X93989707Y-126378213D01*
X93878213Y-126489707D01*
X93878210Y-126489711D01*
X93790609Y-126620814D01*
X93790602Y-126620827D01*
X93730264Y-126766498D01*
X93730261Y-126766510D01*
X93699500Y-126921153D01*
X90782138Y-126921153D01*
X90783261Y-126915506D01*
X90788161Y-126890875D01*
X90788161Y-126890874D01*
X90800500Y-126828844D01*
X90800500Y-126671155D01*
X90800499Y-126671153D01*
X90795679Y-126646923D01*
X90769737Y-126516503D01*
X90769735Y-126516498D01*
X90709397Y-126370827D01*
X90709390Y-126370814D01*
X90621789Y-126239711D01*
X90621786Y-126239707D01*
X90510292Y-126128213D01*
X90510288Y-126128210D01*
X90379185Y-126040609D01*
X90379172Y-126040602D01*
X90233501Y-125980264D01*
X90233489Y-125980261D01*
X90078845Y-125949500D01*
X90078842Y-125949500D01*
X89921158Y-125949500D01*
X89921155Y-125949500D01*
X89766510Y-125980261D01*
X89766498Y-125980264D01*
X89620827Y-126040602D01*
X89620814Y-126040609D01*
X89489711Y-126128210D01*
X89489707Y-126128213D01*
X89378213Y-126239707D01*
X89378210Y-126239711D01*
X89290609Y-126370814D01*
X89290602Y-126370827D01*
X89230264Y-126516498D01*
X89230261Y-126516510D01*
X89199500Y-126671153D01*
X89199500Y-126828846D01*
X89230261Y-126983489D01*
X89230264Y-126983501D01*
X89290602Y-127129172D01*
X89290609Y-127129185D01*
X89378210Y-127260288D01*
X89378213Y-127260292D01*
X89489707Y-127371786D01*
X89489711Y-127371789D01*
X89620814Y-127459390D01*
X89620827Y-127459397D01*
X89695101Y-127490162D01*
X89749505Y-127534003D01*
X89771570Y-127600297D01*
X89754291Y-127667996D01*
X89703154Y-127715607D01*
X89671841Y-127726340D01*
X89539009Y-127752762D01*
X89538999Y-127752765D01*
X89393328Y-127813103D01*
X89393315Y-127813110D01*
X89262212Y-127900711D01*
X89262208Y-127900714D01*
X89150714Y-128012208D01*
X89150711Y-128012212D01*
X89063110Y-128143315D01*
X89063103Y-128143328D01*
X89002765Y-128288999D01*
X89002762Y-128289011D01*
X88972001Y-128443654D01*
X87402736Y-128443654D01*
X87510289Y-128371789D01*
X87510292Y-128371786D01*
X87532193Y-128349886D01*
X87621786Y-128260292D01*
X87621789Y-128260289D01*
X87709394Y-128129179D01*
X87769737Y-127983497D01*
X87800500Y-127828842D01*
X87800500Y-127671158D01*
X87800500Y-127671155D01*
X87800499Y-127671153D01*
X87773218Y-127534003D01*
X87769737Y-127516503D01*
X87755758Y-127482754D01*
X87709397Y-127370827D01*
X87709390Y-127370814D01*
X87621789Y-127239711D01*
X87621786Y-127239707D01*
X87510292Y-127128213D01*
X87510288Y-127128210D01*
X87379185Y-127040609D01*
X87379172Y-127040602D01*
X87233501Y-126980264D01*
X87233489Y-126980261D01*
X87078845Y-126949500D01*
X87078842Y-126949500D01*
X86921158Y-126949500D01*
X86921155Y-126949500D01*
X86766510Y-126980261D01*
X86766498Y-126980264D01*
X86620827Y-127040602D01*
X86620814Y-127040609D01*
X86489711Y-127128210D01*
X86489707Y-127128213D01*
X86378213Y-127239707D01*
X86378210Y-127239711D01*
X86290609Y-127370814D01*
X86290602Y-127370827D01*
X86230264Y-127516498D01*
X86230261Y-127516510D01*
X86199500Y-127671153D01*
X79782138Y-127671153D01*
X79783261Y-127665506D01*
X79788161Y-127640875D01*
X79788161Y-127640874D01*
X79800500Y-127578844D01*
X79800500Y-127421155D01*
X79800499Y-127421153D01*
X79790486Y-127370814D01*
X79769737Y-127266503D01*
X79767163Y-127260288D01*
X79709397Y-127120827D01*
X79709390Y-127120814D01*
X79621789Y-126989711D01*
X79621786Y-126989707D01*
X79510292Y-126878213D01*
X79510288Y-126878210D01*
X79379185Y-126790609D01*
X79379172Y-126790602D01*
X79233501Y-126730264D01*
X79233489Y-126730261D01*
X79078845Y-126699500D01*
X79078842Y-126699500D01*
X78921158Y-126699500D01*
X78921155Y-126699500D01*
X78766510Y-126730261D01*
X78766498Y-126730264D01*
X78620827Y-126790602D01*
X78620814Y-126790609D01*
X78489711Y-126878210D01*
X78489707Y-126878213D01*
X78378213Y-126989707D01*
X78378210Y-126989711D01*
X78290609Y-127120814D01*
X78290602Y-127120827D01*
X78230264Y-127266498D01*
X78230261Y-127266510D01*
X78199500Y-127421153D01*
X66500000Y-127421153D01*
X66500000Y-125441517D01*
X66519685Y-125374478D01*
X66572489Y-125328723D01*
X66641647Y-125318779D01*
X66685997Y-125334128D01*
X66883303Y-125448043D01*
X66883305Y-125448043D01*
X66883309Y-125448046D01*
X67125571Y-125548394D01*
X67125581Y-125548398D01*
X67378884Y-125616270D01*
X67638880Y-125650500D01*
X67638887Y-125650500D01*
X67901113Y-125650500D01*
X67901120Y-125650500D01*
X68161116Y-125616270D01*
X68414419Y-125548398D01*
X68656697Y-125448043D01*
X68883803Y-125316924D01*
X69091851Y-125157282D01*
X69091855Y-125157277D01*
X69091860Y-125157274D01*
X69277274Y-124971860D01*
X69277277Y-124971855D01*
X69277282Y-124971851D01*
X69436924Y-124763803D01*
X69568043Y-124536697D01*
X69668398Y-124294419D01*
X69736270Y-124041116D01*
X69770500Y-123781120D01*
X69770500Y-123518880D01*
X69770499Y-123518872D01*
X81999500Y-123518872D01*
X81999500Y-123781127D01*
X82005783Y-123828846D01*
X82033730Y-124041116D01*
X82057328Y-124129185D01*
X82101602Y-124294418D01*
X82101605Y-124294428D01*
X82201953Y-124536690D01*
X82201958Y-124536700D01*
X82333075Y-124763803D01*
X82492718Y-124971851D01*
X82492726Y-124971860D01*
X82678140Y-125157274D01*
X82678148Y-125157281D01*
X82886196Y-125316924D01*
X83113299Y-125448041D01*
X83113309Y-125448046D01*
X83355571Y-125548394D01*
X83355581Y-125548398D01*
X83608884Y-125616270D01*
X83868880Y-125650500D01*
X83868887Y-125650500D01*
X84131113Y-125650500D01*
X84131120Y-125650500D01*
X84391116Y-125616270D01*
X84644419Y-125548398D01*
X84886697Y-125448043D01*
X85113803Y-125316924D01*
X85321851Y-125157282D01*
X85321855Y-125157277D01*
X85321860Y-125157274D01*
X85507274Y-124971860D01*
X85507277Y-124971855D01*
X85507282Y-124971851D01*
X85666924Y-124763803D01*
X85720415Y-124671153D01*
X91699500Y-124671153D01*
X91699500Y-124828846D01*
X91730261Y-124983489D01*
X91730264Y-124983501D01*
X91790602Y-125129172D01*
X91790609Y-125129185D01*
X91878210Y-125260288D01*
X91878213Y-125260292D01*
X91989707Y-125371786D01*
X91989711Y-125371789D01*
X92120814Y-125459390D01*
X92120827Y-125459397D01*
X92266498Y-125519735D01*
X92266503Y-125519737D01*
X92410586Y-125548397D01*
X92421153Y-125550499D01*
X92421156Y-125550500D01*
X92421158Y-125550500D01*
X92578844Y-125550500D01*
X92578845Y-125550499D01*
X92733497Y-125519737D01*
X92879179Y-125459394D01*
X93010289Y-125371789D01*
X93121789Y-125260289D01*
X93209394Y-125129179D01*
X93269737Y-124983497D01*
X93300500Y-124828842D01*
X93300500Y-124671158D01*
X93300500Y-124671155D01*
X93300499Y-124671153D01*
X93290679Y-124621786D01*
X93269737Y-124516503D01*
X93246080Y-124459390D01*
X93209397Y-124370827D01*
X93209390Y-124370814D01*
X93121789Y-124239711D01*
X93121786Y-124239707D01*
X93010292Y-124128213D01*
X93010288Y-124128210D01*
X92879185Y-124040609D01*
X92879173Y-124040602D01*
X92852674Y-124029627D01*
X92733501Y-123980264D01*
X92733489Y-123980261D01*
X92578845Y-123949500D01*
X92578842Y-123949500D01*
X92421158Y-123949500D01*
X92421155Y-123949500D01*
X92266510Y-123980261D01*
X92266498Y-123980264D01*
X92120827Y-124040602D01*
X92120814Y-124040609D01*
X91989711Y-124128210D01*
X91989707Y-124128213D01*
X91878213Y-124239707D01*
X91878210Y-124239711D01*
X91790609Y-124370814D01*
X91790602Y-124370827D01*
X91730264Y-124516498D01*
X91730261Y-124516510D01*
X91699500Y-124671153D01*
X85720415Y-124671153D01*
X85798043Y-124536697D01*
X85898398Y-124294419D01*
X85966270Y-124041116D01*
X85982064Y-123921153D01*
X99199500Y-123921153D01*
X99199500Y-124078846D01*
X99230261Y-124233489D01*
X99230264Y-124233501D01*
X99290602Y-124379172D01*
X99290609Y-124379185D01*
X99378210Y-124510288D01*
X99378213Y-124510292D01*
X99489707Y-124621786D01*
X99489711Y-124621789D01*
X99620814Y-124709390D01*
X99620827Y-124709397D01*
X99752177Y-124763803D01*
X99766503Y-124769737D01*
X99921153Y-124800499D01*
X99921156Y-124800500D01*
X99921158Y-124800500D01*
X100078844Y-124800500D01*
X100078845Y-124800499D01*
X100233497Y-124769737D01*
X100379179Y-124709394D01*
X100510289Y-124621789D01*
X100621789Y-124510289D01*
X100709394Y-124379179D01*
X100712854Y-124370827D01*
X100767163Y-124239711D01*
X100769737Y-124233497D01*
X100800500Y-124078842D01*
X100800500Y-123921158D01*
X100800500Y-123921155D01*
X100800499Y-123921153D01*
X100772646Y-123781127D01*
X100769737Y-123766503D01*
X100730242Y-123671153D01*
X104799500Y-123671153D01*
X104799500Y-123828846D01*
X104830261Y-123983489D01*
X104830264Y-123983501D01*
X104890602Y-124129172D01*
X104890609Y-124129185D01*
X104978210Y-124260288D01*
X104978213Y-124260292D01*
X105089707Y-124371786D01*
X105089711Y-124371789D01*
X105220814Y-124459390D01*
X105220827Y-124459397D01*
X105358683Y-124516498D01*
X105366503Y-124519737D01*
X105521153Y-124550499D01*
X105521156Y-124550500D01*
X105521158Y-124550500D01*
X105678844Y-124550500D01*
X105678845Y-124550499D01*
X105833497Y-124519737D01*
X105979179Y-124459394D01*
X106110289Y-124371789D01*
X106221789Y-124260289D01*
X106309394Y-124129179D01*
X106369737Y-123983497D01*
X106400500Y-123828842D01*
X106400500Y-123671158D01*
X106400500Y-123671155D01*
X106400499Y-123671153D01*
X106370211Y-123518886D01*
X106369737Y-123516503D01*
X106367163Y-123510288D01*
X106309397Y-123370827D01*
X106309390Y-123370814D01*
X106221789Y-123239711D01*
X106221786Y-123239707D01*
X106110292Y-123128213D01*
X106110288Y-123128210D01*
X105979185Y-123040609D01*
X105979172Y-123040602D01*
X105833501Y-122980264D01*
X105833489Y-122980261D01*
X105678845Y-122949500D01*
X105678842Y-122949500D01*
X105521158Y-122949500D01*
X105521155Y-122949500D01*
X105366510Y-122980261D01*
X105366498Y-122980264D01*
X105220827Y-123040602D01*
X105220814Y-123040609D01*
X105089711Y-123128210D01*
X105089707Y-123128213D01*
X104978213Y-123239707D01*
X104978210Y-123239711D01*
X104890609Y-123370814D01*
X104890602Y-123370827D01*
X104830264Y-123516498D01*
X104830261Y-123516510D01*
X104799500Y-123671153D01*
X100730242Y-123671153D01*
X100709794Y-123621786D01*
X100709397Y-123620827D01*
X100709390Y-123620814D01*
X100621789Y-123489711D01*
X100621786Y-123489707D01*
X100510292Y-123378213D01*
X100510288Y-123378210D01*
X100379185Y-123290609D01*
X100379172Y-123290602D01*
X100233501Y-123230264D01*
X100233489Y-123230261D01*
X100078845Y-123199500D01*
X100078842Y-123199500D01*
X99921158Y-123199500D01*
X99921155Y-123199500D01*
X99766510Y-123230261D01*
X99766498Y-123230264D01*
X99620827Y-123290602D01*
X99620814Y-123290609D01*
X99489711Y-123378210D01*
X99489707Y-123378213D01*
X99378213Y-123489707D01*
X99378210Y-123489711D01*
X99290609Y-123620814D01*
X99290602Y-123620827D01*
X99230264Y-123766498D01*
X99230261Y-123766510D01*
X99199500Y-123921153D01*
X85982064Y-123921153D01*
X86000500Y-123781120D01*
X86000500Y-123518880D01*
X86000500Y-123517847D01*
X86020185Y-123450808D01*
X86072989Y-123405053D01*
X86100309Y-123396230D01*
X86116291Y-123393050D01*
X86233497Y-123369737D01*
X86379179Y-123309394D01*
X86510289Y-123221789D01*
X86621789Y-123110289D01*
X86709394Y-122979179D01*
X86709397Y-122979172D01*
X86733429Y-122921153D01*
X87449500Y-122921153D01*
X87449500Y-123078846D01*
X87480261Y-123233489D01*
X87480264Y-123233501D01*
X87540602Y-123379172D01*
X87540609Y-123379185D01*
X87628210Y-123510288D01*
X87628213Y-123510292D01*
X87739707Y-123621786D01*
X87739711Y-123621789D01*
X87870814Y-123709390D01*
X87870827Y-123709397D01*
X88008683Y-123766498D01*
X88016503Y-123769737D01*
X88171153Y-123800499D01*
X88171156Y-123800500D01*
X88171158Y-123800500D01*
X88328844Y-123800500D01*
X88328845Y-123800499D01*
X88483497Y-123769737D01*
X88621635Y-123712519D01*
X88629172Y-123709397D01*
X88629172Y-123709396D01*
X88629179Y-123709394D01*
X88760289Y-123621789D01*
X88871789Y-123510289D01*
X88959394Y-123379179D01*
X88983947Y-123319901D01*
X89027787Y-123265499D01*
X89094081Y-123243433D01*
X89136822Y-123249422D01*
X89195466Y-123268477D01*
X89397648Y-123300500D01*
X89397649Y-123300500D01*
X89602351Y-123300500D01*
X89602352Y-123300500D01*
X89804534Y-123268477D01*
X89999219Y-123205220D01*
X90181610Y-123112287D01*
X90306175Y-123021786D01*
X90347213Y-122991971D01*
X90347215Y-122991968D01*
X90347219Y-122991966D01*
X90491966Y-122847219D01*
X90491968Y-122847215D01*
X90491971Y-122847213D01*
X90588853Y-122713864D01*
X90612287Y-122681610D01*
X90705220Y-122499219D01*
X90768477Y-122304534D01*
X90800500Y-122102352D01*
X90800500Y-121897648D01*
X93199500Y-121897648D01*
X93199500Y-122102351D01*
X93231522Y-122304534D01*
X93294781Y-122499223D01*
X93387715Y-122681613D01*
X93508028Y-122847213D01*
X93652786Y-122991971D01*
X93772362Y-123078846D01*
X93818390Y-123112287D01*
X93931138Y-123169735D01*
X94000776Y-123205218D01*
X94000778Y-123205218D01*
X94000781Y-123205220D01*
X94087784Y-123233489D01*
X94195465Y-123268477D01*
X94296557Y-123284488D01*
X94397648Y-123300500D01*
X94397649Y-123300500D01*
X94602351Y-123300500D01*
X94602352Y-123300500D01*
X94804534Y-123268477D01*
X94999219Y-123205220D01*
X95181610Y-123112287D01*
X95306175Y-123021786D01*
X95347213Y-122991971D01*
X95347215Y-122991968D01*
X95347219Y-122991966D01*
X95491966Y-122847219D01*
X95491968Y-122847215D01*
X95491971Y-122847213D01*
X95588853Y-122713864D01*
X95612287Y-122681610D01*
X95705220Y-122499219D01*
X95763077Y-122321153D01*
X97699500Y-122321153D01*
X97699500Y-122478846D01*
X97730261Y-122633489D01*
X97730264Y-122633501D01*
X97790602Y-122779172D01*
X97790609Y-122779185D01*
X97878210Y-122910288D01*
X97878213Y-122910292D01*
X97989707Y-123021786D01*
X97989711Y-123021789D01*
X98120814Y-123109390D01*
X98120827Y-123109397D01*
X98166254Y-123128213D01*
X98266503Y-123169737D01*
X98416131Y-123199500D01*
X98421153Y-123200499D01*
X98421156Y-123200500D01*
X98421158Y-123200500D01*
X98578844Y-123200500D01*
X98578845Y-123200499D01*
X98733497Y-123169737D01*
X98879179Y-123109394D01*
X99010289Y-123021789D01*
X99121789Y-122910289D01*
X99209394Y-122779179D01*
X99269737Y-122633497D01*
X99300500Y-122478842D01*
X99300500Y-122321158D01*
X99300500Y-122321155D01*
X99300499Y-122321153D01*
X99280543Y-122220827D01*
X99269737Y-122166503D01*
X99237929Y-122089711D01*
X99209397Y-122020827D01*
X99209390Y-122020814D01*
X99121789Y-121889711D01*
X99121786Y-121889707D01*
X99010292Y-121778213D01*
X99010288Y-121778210D01*
X98879185Y-121690609D01*
X98879172Y-121690602D01*
X98733501Y-121630264D01*
X98733489Y-121630261D01*
X98578845Y-121599500D01*
X98578842Y-121599500D01*
X98421158Y-121599500D01*
X98421155Y-121599500D01*
X98266510Y-121630261D01*
X98266498Y-121630264D01*
X98120827Y-121690602D01*
X98120814Y-121690609D01*
X97989711Y-121778210D01*
X97989707Y-121778213D01*
X97878213Y-121889707D01*
X97878210Y-121889711D01*
X97790609Y-122020814D01*
X97790602Y-122020827D01*
X97730264Y-122166498D01*
X97730261Y-122166510D01*
X97699500Y-122321153D01*
X95763077Y-122321153D01*
X95768477Y-122304534D01*
X95800500Y-122102352D01*
X95800500Y-121897648D01*
X95772646Y-121721786D01*
X95768477Y-121695465D01*
X95705218Y-121500776D01*
X95671503Y-121434607D01*
X95612287Y-121318390D01*
X95602220Y-121304534D01*
X95491971Y-121152786D01*
X95347213Y-121008028D01*
X95326657Y-120993094D01*
X95195285Y-120897648D01*
X101199500Y-120897648D01*
X101199500Y-121102351D01*
X101231522Y-121304534D01*
X101294781Y-121499223D01*
X101387715Y-121681613D01*
X101508028Y-121847213D01*
X101652786Y-121991971D01*
X101807749Y-122104556D01*
X101818390Y-122112287D01*
X101934607Y-122171503D01*
X102000776Y-122205218D01*
X102000778Y-122205218D01*
X102000781Y-122205220D01*
X102105137Y-122239127D01*
X102195465Y-122268477D01*
X102296557Y-122284488D01*
X102397648Y-122300500D01*
X102397649Y-122300500D01*
X102602351Y-122300500D01*
X102602352Y-122300500D01*
X102804534Y-122268477D01*
X102999219Y-122205220D01*
X103181610Y-122112287D01*
X103307495Y-122020827D01*
X103347213Y-121991971D01*
X103347215Y-121991968D01*
X103347219Y-121991966D01*
X103491966Y-121847219D01*
X103491968Y-121847215D01*
X103491971Y-121847213D01*
X103548259Y-121769738D01*
X103612287Y-121681610D01*
X103705220Y-121499219D01*
X103768477Y-121304534D01*
X103800500Y-121102352D01*
X103800500Y-120921153D01*
X104799500Y-120921153D01*
X104799500Y-121078846D01*
X104830261Y-121233489D01*
X104830264Y-121233501D01*
X104890602Y-121379172D01*
X104890609Y-121379185D01*
X104978210Y-121510288D01*
X104978213Y-121510292D01*
X105089707Y-121621786D01*
X105089711Y-121621789D01*
X105220814Y-121709390D01*
X105220827Y-121709397D01*
X105322728Y-121751605D01*
X105366503Y-121769737D01*
X105516131Y-121799500D01*
X105521153Y-121800499D01*
X105521156Y-121800500D01*
X105521158Y-121800500D01*
X105678844Y-121800500D01*
X105678845Y-121800499D01*
X105833497Y-121769737D01*
X105979179Y-121709394D01*
X106110289Y-121621789D01*
X106221789Y-121510289D01*
X106309394Y-121379179D01*
X106369737Y-121233497D01*
X106400500Y-121078842D01*
X106400500Y-121021153D01*
X108699500Y-121021153D01*
X108699500Y-121178846D01*
X108730261Y-121333489D01*
X108730264Y-121333501D01*
X108790602Y-121479172D01*
X108790609Y-121479185D01*
X108878210Y-121610288D01*
X108878213Y-121610292D01*
X108989707Y-121721786D01*
X108989711Y-121721789D01*
X109120814Y-121809390D01*
X109120827Y-121809397D01*
X109223580Y-121851958D01*
X109266503Y-121869737D01*
X109406820Y-121897648D01*
X109421153Y-121900499D01*
X109421156Y-121900500D01*
X109421158Y-121900500D01*
X109578844Y-121900500D01*
X109578845Y-121900499D01*
X109733497Y-121869737D01*
X109879179Y-121809394D01*
X110010289Y-121721789D01*
X110121789Y-121610289D01*
X110209394Y-121479179D01*
X110269737Y-121333497D01*
X110300500Y-121178842D01*
X110300500Y-121021158D01*
X110300500Y-121021155D01*
X110300499Y-121021153D01*
X110291219Y-120974500D01*
X110269737Y-120866503D01*
X110267750Y-120861706D01*
X110209397Y-120720827D01*
X110209390Y-120720814D01*
X110121789Y-120589711D01*
X110121786Y-120589707D01*
X110010292Y-120478213D01*
X110010288Y-120478210D01*
X109879185Y-120390609D01*
X109879172Y-120390602D01*
X109733501Y-120330264D01*
X109733489Y-120330261D01*
X109578845Y-120299500D01*
X109578842Y-120299500D01*
X109421158Y-120299500D01*
X109421155Y-120299500D01*
X109266510Y-120330261D01*
X109266498Y-120330264D01*
X109120827Y-120390602D01*
X109120814Y-120390609D01*
X108989711Y-120478210D01*
X108989707Y-120478213D01*
X108878213Y-120589707D01*
X108878210Y-120589711D01*
X108790609Y-120720814D01*
X108790602Y-120720827D01*
X108730264Y-120866498D01*
X108730261Y-120866510D01*
X108699500Y-121021153D01*
X106400500Y-121021153D01*
X106400500Y-120974500D01*
X106420185Y-120907461D01*
X106472989Y-120861706D01*
X106524500Y-120850500D01*
X106578844Y-120850500D01*
X106578845Y-120850499D01*
X106733497Y-120819737D01*
X106879179Y-120759394D01*
X107010289Y-120671789D01*
X107121789Y-120560289D01*
X107209394Y-120429179D01*
X107269737Y-120283497D01*
X107300500Y-120128842D01*
X107300500Y-119971158D01*
X107300500Y-119971155D01*
X107300499Y-119971153D01*
X107283902Y-119887715D01*
X107269737Y-119816503D01*
X107260739Y-119794780D01*
X107209397Y-119670827D01*
X107209390Y-119670814D01*
X107121789Y-119539711D01*
X107121786Y-119539707D01*
X107010292Y-119428213D01*
X107010288Y-119428210D01*
X106879185Y-119340609D01*
X106879172Y-119340602D01*
X106733501Y-119280264D01*
X106733489Y-119280261D01*
X106578845Y-119249500D01*
X106578842Y-119249500D01*
X106421158Y-119249500D01*
X106421155Y-119249500D01*
X106266510Y-119280261D01*
X106266498Y-119280264D01*
X106120827Y-119340602D01*
X106120814Y-119340609D01*
X105989711Y-119428210D01*
X105989707Y-119428213D01*
X105878213Y-119539707D01*
X105878210Y-119539711D01*
X105790609Y-119670814D01*
X105790602Y-119670827D01*
X105730264Y-119816498D01*
X105730261Y-119816510D01*
X105699500Y-119971153D01*
X105699500Y-120075500D01*
X105679815Y-120142539D01*
X105627011Y-120188294D01*
X105575500Y-120199500D01*
X105521155Y-120199500D01*
X105366510Y-120230261D01*
X105366498Y-120230264D01*
X105220827Y-120290602D01*
X105220814Y-120290609D01*
X105089711Y-120378210D01*
X105089707Y-120378213D01*
X104978213Y-120489707D01*
X104978210Y-120489711D01*
X104890609Y-120620814D01*
X104890602Y-120620827D01*
X104830264Y-120766498D01*
X104830261Y-120766510D01*
X104799500Y-120921153D01*
X103800500Y-120921153D01*
X103800500Y-120897648D01*
X103780240Y-120769735D01*
X103768477Y-120695465D01*
X103724555Y-120560288D01*
X103705220Y-120500781D01*
X103705218Y-120500778D01*
X103705218Y-120500776D01*
X103649081Y-120390602D01*
X103612287Y-120318390D01*
X103570077Y-120260292D01*
X103491971Y-120152786D01*
X103347213Y-120008028D01*
X103181613Y-119887715D01*
X103181612Y-119887714D01*
X103181610Y-119887713D01*
X103124653Y-119858691D01*
X102999223Y-119794781D01*
X102804534Y-119731522D01*
X102629995Y-119703878D01*
X102602352Y-119699500D01*
X102397648Y-119699500D01*
X102373329Y-119703351D01*
X102195465Y-119731522D01*
X102000776Y-119794781D01*
X101818386Y-119887715D01*
X101652786Y-120008028D01*
X101508028Y-120152786D01*
X101387715Y-120318386D01*
X101294781Y-120500776D01*
X101231522Y-120695465D01*
X101199500Y-120897648D01*
X95195285Y-120897648D01*
X95181613Y-120887715D01*
X95181612Y-120887714D01*
X95181610Y-120887713D01*
X95124653Y-120858691D01*
X94999223Y-120794781D01*
X94804534Y-120731522D01*
X94629995Y-120703878D01*
X94602352Y-120699500D01*
X94397648Y-120699500D01*
X94373329Y-120703351D01*
X94195465Y-120731522D01*
X94000776Y-120794781D01*
X93818386Y-120887715D01*
X93652786Y-121008028D01*
X93508028Y-121152786D01*
X93387715Y-121318386D01*
X93294781Y-121500776D01*
X93231522Y-121695465D01*
X93199500Y-121897648D01*
X90800500Y-121897648D01*
X90772646Y-121721786D01*
X90768477Y-121695465D01*
X90705218Y-121500776D01*
X90671503Y-121434607D01*
X90612287Y-121318390D01*
X90602220Y-121304534D01*
X90491971Y-121152786D01*
X90347213Y-121008028D01*
X90181613Y-120887715D01*
X90181612Y-120887714D01*
X90181610Y-120887713D01*
X90124653Y-120858691D01*
X89999223Y-120794781D01*
X89804534Y-120731522D01*
X89629995Y-120703878D01*
X89602352Y-120699500D01*
X89397648Y-120699500D01*
X89373329Y-120703351D01*
X89195465Y-120731522D01*
X89000776Y-120794781D01*
X88818386Y-120887715D01*
X88652786Y-121008028D01*
X88508028Y-121152786D01*
X88387715Y-121318386D01*
X88294781Y-121500776D01*
X88231522Y-121695465D01*
X88199500Y-121897648D01*
X88199500Y-122092098D01*
X88179815Y-122159137D01*
X88127011Y-122204892D01*
X88099692Y-122213715D01*
X88016508Y-122230261D01*
X88016498Y-122230264D01*
X87870827Y-122290602D01*
X87870814Y-122290609D01*
X87739711Y-122378210D01*
X87739707Y-122378213D01*
X87628213Y-122489707D01*
X87628210Y-122489711D01*
X87540609Y-122620814D01*
X87540602Y-122620827D01*
X87480264Y-122766498D01*
X87480261Y-122766510D01*
X87449500Y-122921153D01*
X86733429Y-122921153D01*
X86755603Y-122867621D01*
X86755605Y-122867614D01*
X86769737Y-122833497D01*
X86800500Y-122678842D01*
X86800500Y-122521158D01*
X86800500Y-122521155D01*
X86800499Y-122521153D01*
X86794244Y-122489707D01*
X86769737Y-122366503D01*
X86769735Y-122366498D01*
X86709397Y-122220827D01*
X86709390Y-122220814D01*
X86621789Y-122089711D01*
X86621786Y-122089707D01*
X86510292Y-121978213D01*
X86510288Y-121978210D01*
X86379185Y-121890609D01*
X86379172Y-121890602D01*
X86233501Y-121830264D01*
X86233489Y-121830261D01*
X86078845Y-121799500D01*
X86078842Y-121799500D01*
X85921158Y-121799500D01*
X85921155Y-121799500D01*
X85766510Y-121830261D01*
X85766498Y-121830264D01*
X85620827Y-121890602D01*
X85620814Y-121890609D01*
X85489711Y-121978210D01*
X85489707Y-121978213D01*
X85400642Y-122067279D01*
X85339319Y-122100764D01*
X85269627Y-122095780D01*
X85237474Y-122077973D01*
X85113803Y-121983075D01*
X84886700Y-121851958D01*
X84886690Y-121851953D01*
X84644428Y-121751605D01*
X84644421Y-121751603D01*
X84644419Y-121751602D01*
X84391116Y-121683730D01*
X84333339Y-121676123D01*
X84131127Y-121649500D01*
X84131120Y-121649500D01*
X83868880Y-121649500D01*
X83868872Y-121649500D01*
X83637772Y-121679926D01*
X83608884Y-121683730D01*
X83355581Y-121751602D01*
X83355571Y-121751605D01*
X83113309Y-121851953D01*
X83113299Y-121851958D01*
X82886196Y-121983075D01*
X82678148Y-122142718D01*
X82492718Y-122328148D01*
X82333075Y-122536196D01*
X82201958Y-122763299D01*
X82201953Y-122763309D01*
X82101605Y-123005571D01*
X82101602Y-123005581D01*
X82038868Y-123239711D01*
X82033730Y-123258885D01*
X81999500Y-123518872D01*
X69770499Y-123518872D01*
X69736270Y-123258884D01*
X69668398Y-123005581D01*
X69662761Y-122991971D01*
X69568046Y-122763309D01*
X69568041Y-122763299D01*
X69436924Y-122536196D01*
X69277281Y-122328148D01*
X69277274Y-122328140D01*
X69091860Y-122142726D01*
X69091851Y-122142718D01*
X68883803Y-121983075D01*
X68656700Y-121851958D01*
X68656690Y-121851953D01*
X68414428Y-121751605D01*
X68414421Y-121751603D01*
X68414419Y-121751602D01*
X68161116Y-121683730D01*
X68103339Y-121676123D01*
X67901127Y-121649500D01*
X67901120Y-121649500D01*
X67638880Y-121649500D01*
X67638872Y-121649500D01*
X67407772Y-121679926D01*
X67378884Y-121683730D01*
X67125581Y-121751602D01*
X67125571Y-121751605D01*
X66883309Y-121851953D01*
X66883304Y-121851956D01*
X66685999Y-121965869D01*
X66618099Y-121982341D01*
X66552072Y-121959488D01*
X66508882Y-121904566D01*
X66500000Y-121858481D01*
X66500000Y-119921153D01*
X74699500Y-119921153D01*
X74699500Y-120078846D01*
X74730261Y-120233489D01*
X74730264Y-120233501D01*
X74790602Y-120379172D01*
X74790609Y-120379185D01*
X74878210Y-120510288D01*
X74878213Y-120510292D01*
X74989707Y-120621786D01*
X74989711Y-120621789D01*
X75120814Y-120709390D01*
X75120827Y-120709397D01*
X75258683Y-120766498D01*
X75266503Y-120769737D01*
X75392402Y-120794780D01*
X75421153Y-120800499D01*
X75421156Y-120800500D01*
X75421158Y-120800500D01*
X75578844Y-120800500D01*
X75578845Y-120800499D01*
X75733497Y-120769737D01*
X75851592Y-120720821D01*
X75879172Y-120709397D01*
X75879172Y-120709396D01*
X75879179Y-120709394D01*
X76010289Y-120621789D01*
X76121789Y-120510289D01*
X76209394Y-120379179D01*
X76269737Y-120233497D01*
X76300500Y-120078842D01*
X76300500Y-119921158D01*
X76300500Y-119921155D01*
X76300499Y-119921153D01*
X76279684Y-119816510D01*
X76269737Y-119766503D01*
X76230242Y-119671153D01*
X85199500Y-119671153D01*
X85199500Y-119828846D01*
X85230261Y-119983489D01*
X85230264Y-119983501D01*
X85290602Y-120129172D01*
X85290609Y-120129185D01*
X85378210Y-120260288D01*
X85378213Y-120260292D01*
X85489707Y-120371786D01*
X85489711Y-120371789D01*
X85620814Y-120459390D01*
X85620827Y-120459397D01*
X85766498Y-120519735D01*
X85766503Y-120519737D01*
X85921153Y-120550499D01*
X85921156Y-120550500D01*
X85921158Y-120550500D01*
X86078844Y-120550500D01*
X86078845Y-120550499D01*
X86233497Y-120519737D01*
X86379179Y-120459394D01*
X86510289Y-120371789D01*
X86621789Y-120260289D01*
X86709394Y-120129179D01*
X86769737Y-119983497D01*
X86800500Y-119828842D01*
X86800500Y-119671158D01*
X86800500Y-119671155D01*
X86800499Y-119671153D01*
X86774353Y-119539711D01*
X86769737Y-119516503D01*
X86769735Y-119516498D01*
X86709397Y-119370827D01*
X86709390Y-119370814D01*
X86621789Y-119239711D01*
X86621786Y-119239707D01*
X86510292Y-119128213D01*
X86510288Y-119128210D01*
X86379185Y-119040609D01*
X86379172Y-119040602D01*
X86233501Y-118980264D01*
X86233489Y-118980261D01*
X86078845Y-118949500D01*
X86078842Y-118949500D01*
X85921158Y-118949500D01*
X85921155Y-118949500D01*
X85766510Y-118980261D01*
X85766498Y-118980264D01*
X85620827Y-119040602D01*
X85620814Y-119040609D01*
X85489711Y-119128210D01*
X85489707Y-119128213D01*
X85378213Y-119239707D01*
X85378210Y-119239711D01*
X85290609Y-119370814D01*
X85290602Y-119370827D01*
X85230264Y-119516498D01*
X85230261Y-119516510D01*
X85199500Y-119671153D01*
X76230242Y-119671153D01*
X76229933Y-119670408D01*
X76209397Y-119620827D01*
X76209390Y-119620814D01*
X76121789Y-119489711D01*
X76121786Y-119489707D01*
X76010292Y-119378213D01*
X76010288Y-119378210D01*
X75879185Y-119290609D01*
X75879172Y-119290602D01*
X75733501Y-119230264D01*
X75733489Y-119230261D01*
X75578845Y-119199500D01*
X75578842Y-119199500D01*
X75421158Y-119199500D01*
X75421155Y-119199500D01*
X75266510Y-119230261D01*
X75266498Y-119230264D01*
X75120827Y-119290602D01*
X75120814Y-119290609D01*
X74989711Y-119378210D01*
X74989707Y-119378213D01*
X74878213Y-119489707D01*
X74878210Y-119489711D01*
X74790609Y-119620814D01*
X74790602Y-119620827D01*
X74730264Y-119766498D01*
X74730261Y-119766510D01*
X74699500Y-119921153D01*
X66500000Y-119921153D01*
X66500000Y-119091517D01*
X66519685Y-119024478D01*
X66572489Y-118978723D01*
X66641647Y-118968779D01*
X66685997Y-118984128D01*
X66883303Y-119098043D01*
X66883305Y-119098043D01*
X66883309Y-119098046D01*
X67125571Y-119198394D01*
X67125581Y-119198398D01*
X67378884Y-119266270D01*
X67627188Y-119298960D01*
X67635074Y-119299999D01*
X67638880Y-119300500D01*
X67638887Y-119300500D01*
X67901113Y-119300500D01*
X67901120Y-119300500D01*
X68161116Y-119266270D01*
X68414419Y-119198398D01*
X68656697Y-119098043D01*
X68883803Y-118966924D01*
X69091851Y-118807282D01*
X69091855Y-118807277D01*
X69091860Y-118807274D01*
X69277274Y-118621860D01*
X69277277Y-118621855D01*
X69277282Y-118621851D01*
X69436924Y-118413803D01*
X69568043Y-118186697D01*
X69574480Y-118171158D01*
X69631499Y-118033501D01*
X69668398Y-117944419D01*
X69736270Y-117691116D01*
X69770500Y-117431120D01*
X69770500Y-117168905D01*
X82000000Y-117168905D01*
X82000000Y-117431094D01*
X82034220Y-117691009D01*
X82034222Y-117691020D01*
X82102075Y-117944255D01*
X82202404Y-118186471D01*
X82202409Y-118186482D01*
X82333488Y-118413516D01*
X82333494Y-118413524D01*
X82420080Y-118526365D01*
X83360689Y-117585756D01*
X83379668Y-117631574D01*
X83456274Y-117746224D01*
X83553776Y-117843726D01*
X83668426Y-117920332D01*
X83714242Y-117939309D01*
X82773633Y-118879917D01*
X82773633Y-118879918D01*
X82886475Y-118966505D01*
X82886483Y-118966511D01*
X83113517Y-119097590D01*
X83113528Y-119097595D01*
X83355744Y-119197924D01*
X83608979Y-119265777D01*
X83608990Y-119265779D01*
X83868905Y-119299999D01*
X83868920Y-119300000D01*
X84131080Y-119300000D01*
X84131094Y-119299999D01*
X84391009Y-119265779D01*
X84391020Y-119265777D01*
X84644255Y-119197924D01*
X84886471Y-119097595D01*
X84886482Y-119097590D01*
X85113516Y-118966511D01*
X85113534Y-118966499D01*
X85226365Y-118879919D01*
X85226365Y-118879917D01*
X84285757Y-117939309D01*
X84331574Y-117920332D01*
X84446224Y-117843726D01*
X84543726Y-117746224D01*
X84620332Y-117631574D01*
X84639309Y-117585757D01*
X85579917Y-118526365D01*
X85579919Y-118526365D01*
X85666499Y-118413534D01*
X85666511Y-118413516D01*
X85797590Y-118186482D01*
X85797595Y-118186471D01*
X85897924Y-117944255D01*
X85965777Y-117691020D01*
X85965779Y-117691009D01*
X85999999Y-117431094D01*
X86000000Y-117431080D01*
X86000000Y-117168919D01*
X85999999Y-117168905D01*
X85965779Y-116908988D01*
X85965777Y-116908979D01*
X85962741Y-116897648D01*
X88199500Y-116897648D01*
X88199500Y-117102351D01*
X88231522Y-117304534D01*
X88294781Y-117499223D01*
X88357231Y-117621786D01*
X88387585Y-117681359D01*
X88387715Y-117681613D01*
X88508028Y-117847213D01*
X88652786Y-117991971D01*
X88773226Y-118079474D01*
X88818390Y-118112287D01*
X89000781Y-118205220D01*
X89117820Y-118243248D01*
X89175496Y-118282685D01*
X89201119Y-118336987D01*
X89230261Y-118483491D01*
X89230264Y-118483501D01*
X89290602Y-118629172D01*
X89290609Y-118629185D01*
X89378210Y-118760288D01*
X89378213Y-118760292D01*
X89489707Y-118871786D01*
X89489711Y-118871789D01*
X89620814Y-118959390D01*
X89620827Y-118959397D01*
X89680539Y-118984130D01*
X89766503Y-119019737D01*
X89921153Y-119050499D01*
X89921156Y-119050500D01*
X89921158Y-119050500D01*
X90078844Y-119050500D01*
X90078845Y-119050499D01*
X90233497Y-119019737D01*
X90346166Y-118973067D01*
X90379172Y-118959397D01*
X90379172Y-118959396D01*
X90379179Y-118959394D01*
X90510289Y-118871789D01*
X90621789Y-118760289D01*
X90709394Y-118629179D01*
X90769737Y-118483497D01*
X90800500Y-118328842D01*
X90800500Y-118171158D01*
X90800500Y-118171155D01*
X90800499Y-118171153D01*
X90777675Y-118056406D01*
X90769738Y-118016508D01*
X90769737Y-118016507D01*
X90769737Y-118016503D01*
X90729902Y-117920332D01*
X90709397Y-117870827D01*
X90709390Y-117870814D01*
X90639980Y-117766935D01*
X90619102Y-117700257D01*
X90632597Y-117641749D01*
X90637782Y-117631574D01*
X90705220Y-117499219D01*
X90768477Y-117304534D01*
X90800500Y-117102352D01*
X90800500Y-116897682D01*
X93200000Y-116897682D01*
X93200000Y-117102317D01*
X93232009Y-117304417D01*
X93295244Y-117499031D01*
X93388141Y-117681350D01*
X93388147Y-117681359D01*
X93420523Y-117725921D01*
X93420524Y-117725922D01*
X94100000Y-117046446D01*
X94100000Y-117052661D01*
X94127259Y-117154394D01*
X94179920Y-117245606D01*
X94254394Y-117320080D01*
X94345606Y-117372741D01*
X94447339Y-117400000D01*
X94453553Y-117400000D01*
X93774076Y-118079474D01*
X93818650Y-118111859D01*
X94000968Y-118204755D01*
X94195582Y-118267990D01*
X94397683Y-118300000D01*
X94602317Y-118300000D01*
X94804417Y-118267990D01*
X94999031Y-118204755D01*
X95181349Y-118111859D01*
X95225921Y-118079474D01*
X94546447Y-117400000D01*
X94552661Y-117400000D01*
X94654394Y-117372741D01*
X94745606Y-117320080D01*
X94820080Y-117245606D01*
X94872741Y-117154394D01*
X94900000Y-117052661D01*
X94900000Y-117046447D01*
X95579474Y-117725921D01*
X95582938Y-117721153D01*
X98599500Y-117721153D01*
X98599500Y-117878846D01*
X98630261Y-118033489D01*
X98630264Y-118033501D01*
X98690602Y-118179172D01*
X98690609Y-118179185D01*
X98778210Y-118310288D01*
X98778213Y-118310292D01*
X98889707Y-118421786D01*
X98889711Y-118421789D01*
X99020814Y-118509390D01*
X99020827Y-118509397D01*
X99166498Y-118569735D01*
X99166503Y-118569737D01*
X99321153Y-118600499D01*
X99321156Y-118600500D01*
X99321158Y-118600500D01*
X99478844Y-118600500D01*
X99478845Y-118600499D01*
X99633497Y-118569737D01*
X99779179Y-118509394D01*
X99910289Y-118421789D01*
X100021789Y-118310289D01*
X100109394Y-118179179D01*
X100112719Y-118171153D01*
X100169735Y-118033501D01*
X100169737Y-118033497D01*
X100200500Y-117878842D01*
X100200500Y-117721158D01*
X100200500Y-117721155D01*
X100200499Y-117721153D01*
X100198159Y-117709390D01*
X100169737Y-117566503D01*
X100141869Y-117499223D01*
X100109397Y-117420827D01*
X100109390Y-117420814D01*
X100021789Y-117289711D01*
X100021786Y-117289707D01*
X99910292Y-117178213D01*
X99910288Y-117178210D01*
X99846094Y-117135317D01*
X99779185Y-117090609D01*
X99779172Y-117090602D01*
X99633501Y-117030264D01*
X99633489Y-117030261D01*
X99478845Y-116999500D01*
X99478842Y-116999500D01*
X99321158Y-116999500D01*
X99321155Y-116999500D01*
X99166510Y-117030261D01*
X99166498Y-117030264D01*
X99020827Y-117090602D01*
X99020814Y-117090609D01*
X98889711Y-117178210D01*
X98889707Y-117178213D01*
X98778213Y-117289707D01*
X98778210Y-117289711D01*
X98690609Y-117420814D01*
X98690602Y-117420827D01*
X98630264Y-117566498D01*
X98630261Y-117566510D01*
X98599500Y-117721153D01*
X95582938Y-117721153D01*
X95611859Y-117681349D01*
X95623364Y-117658771D01*
X95704755Y-117499031D01*
X95767990Y-117304417D01*
X95800000Y-117102317D01*
X95800000Y-116897682D01*
X95767990Y-116695582D01*
X95704755Y-116500968D01*
X95611859Y-116318650D01*
X95579474Y-116274077D01*
X95579474Y-116274076D01*
X94900000Y-116953551D01*
X94900000Y-116947339D01*
X94872741Y-116845606D01*
X94820080Y-116754394D01*
X94745606Y-116679920D01*
X94654394Y-116627259D01*
X94552661Y-116600000D01*
X94546446Y-116600000D01*
X95225922Y-115920524D01*
X95225921Y-115920523D01*
X95194483Y-115897682D01*
X101200000Y-115897682D01*
X101200000Y-116102317D01*
X101232009Y-116304417D01*
X101295244Y-116499031D01*
X101388141Y-116681350D01*
X101388147Y-116681359D01*
X101420523Y-116725921D01*
X101420524Y-116725922D01*
X102100000Y-116046446D01*
X102100000Y-116052661D01*
X102127259Y-116154394D01*
X102179920Y-116245606D01*
X102254394Y-116320080D01*
X102345606Y-116372741D01*
X102447339Y-116400000D01*
X102453553Y-116400000D01*
X101774076Y-117079474D01*
X101818650Y-117111859D01*
X102000968Y-117204755D01*
X102195582Y-117267990D01*
X102397683Y-117300000D01*
X102602317Y-117300000D01*
X102804417Y-117267990D01*
X102999031Y-117204755D01*
X103181349Y-117111859D01*
X103225921Y-117079474D01*
X102546447Y-116400000D01*
X102552661Y-116400000D01*
X102654394Y-116372741D01*
X102745606Y-116320080D01*
X102820080Y-116245606D01*
X102872741Y-116154394D01*
X102900000Y-116052661D01*
X102900000Y-116046447D01*
X103579474Y-116725921D01*
X103611859Y-116681349D01*
X103693483Y-116521153D01*
X104399500Y-116521153D01*
X104399500Y-116678846D01*
X104430261Y-116833489D01*
X104430264Y-116833501D01*
X104490602Y-116979172D01*
X104490609Y-116979185D01*
X104578210Y-117110288D01*
X104578213Y-117110292D01*
X104689707Y-117221786D01*
X104689711Y-117221789D01*
X104820814Y-117309390D01*
X104820827Y-117309397D01*
X104966498Y-117369735D01*
X104966503Y-117369737D01*
X105118644Y-117400000D01*
X105121153Y-117400499D01*
X105121156Y-117400500D01*
X105121158Y-117400500D01*
X105278844Y-117400500D01*
X105278845Y-117400499D01*
X105433497Y-117369737D01*
X105579179Y-117309394D01*
X105710289Y-117221789D01*
X105821789Y-117110289D01*
X105909394Y-116979179D01*
X105969737Y-116833497D01*
X106000500Y-116678842D01*
X106000500Y-116521158D01*
X106000500Y-116521155D01*
X106000499Y-116521153D01*
X105979091Y-116413528D01*
X105969737Y-116366503D01*
X105949916Y-116318650D01*
X105909397Y-116220827D01*
X105909390Y-116220814D01*
X105821789Y-116089711D01*
X105821786Y-116089707D01*
X105710292Y-115978213D01*
X105710288Y-115978210D01*
X105579185Y-115890609D01*
X105579172Y-115890602D01*
X105433501Y-115830264D01*
X105433489Y-115830261D01*
X105278845Y-115799500D01*
X105278842Y-115799500D01*
X105121158Y-115799500D01*
X105121155Y-115799500D01*
X104966510Y-115830261D01*
X104966498Y-115830264D01*
X104820827Y-115890602D01*
X104820814Y-115890609D01*
X104689711Y-115978210D01*
X104689707Y-115978213D01*
X104578213Y-116089707D01*
X104578210Y-116089711D01*
X104490609Y-116220814D01*
X104490602Y-116220827D01*
X104430264Y-116366498D01*
X104430261Y-116366510D01*
X104399500Y-116521153D01*
X103693483Y-116521153D01*
X103704757Y-116499027D01*
X103711994Y-116476754D01*
X103711996Y-116476747D01*
X103767990Y-116304417D01*
X103800000Y-116102317D01*
X103800000Y-115897682D01*
X103767990Y-115695582D01*
X103704755Y-115500968D01*
X103611859Y-115318650D01*
X103579474Y-115274077D01*
X103579474Y-115274076D01*
X102900000Y-115953551D01*
X102900000Y-115947339D01*
X102872741Y-115845606D01*
X102820080Y-115754394D01*
X102745606Y-115679920D01*
X102654394Y-115627259D01*
X102552661Y-115600000D01*
X102546446Y-115600000D01*
X103225922Y-114920524D01*
X103225921Y-114920523D01*
X103181359Y-114888147D01*
X103181350Y-114888141D01*
X102999031Y-114795244D01*
X102804417Y-114732009D01*
X102602317Y-114700000D01*
X102397683Y-114700000D01*
X102195582Y-114732009D01*
X102000968Y-114795244D01*
X101818644Y-114888143D01*
X101774077Y-114920523D01*
X101774077Y-114920524D01*
X102453554Y-115600000D01*
X102447339Y-115600000D01*
X102345606Y-115627259D01*
X102254394Y-115679920D01*
X102179920Y-115754394D01*
X102127259Y-115845606D01*
X102100000Y-115947339D01*
X102100000Y-115953553D01*
X101420524Y-115274077D01*
X101420523Y-115274077D01*
X101388143Y-115318644D01*
X101295244Y-115500968D01*
X101232009Y-115695582D01*
X101200000Y-115897682D01*
X95194483Y-115897682D01*
X95181359Y-115888147D01*
X95181350Y-115888141D01*
X94999031Y-115795244D01*
X94804417Y-115732009D01*
X94602317Y-115700000D01*
X94397683Y-115700000D01*
X94195582Y-115732009D01*
X94000968Y-115795244D01*
X93818644Y-115888143D01*
X93774077Y-115920523D01*
X93774077Y-115920524D01*
X94453554Y-116600000D01*
X94447339Y-116600000D01*
X94345606Y-116627259D01*
X94254394Y-116679920D01*
X94179920Y-116754394D01*
X94127259Y-116845606D01*
X94100000Y-116947339D01*
X94100000Y-116953553D01*
X93420524Y-116274077D01*
X93420523Y-116274077D01*
X93388143Y-116318644D01*
X93295244Y-116500968D01*
X93232009Y-116695582D01*
X93200000Y-116897682D01*
X90800500Y-116897682D01*
X90800500Y-116897648D01*
X90783882Y-116792729D01*
X90768477Y-116695465D01*
X90711839Y-116521153D01*
X90705220Y-116500781D01*
X90705218Y-116500778D01*
X90705218Y-116500776D01*
X90660651Y-116413309D01*
X90612287Y-116318390D01*
X90580092Y-116274077D01*
X90491971Y-116152786D01*
X90347213Y-116008028D01*
X90181613Y-115887715D01*
X90181612Y-115887714D01*
X90181610Y-115887713D01*
X90124653Y-115858691D01*
X89999223Y-115794781D01*
X89804534Y-115731522D01*
X89629995Y-115703878D01*
X89602352Y-115699500D01*
X89397648Y-115699500D01*
X89373329Y-115703351D01*
X89195465Y-115731522D01*
X89000776Y-115794781D01*
X88818386Y-115887715D01*
X88652786Y-116008028D01*
X88508028Y-116152786D01*
X88387715Y-116318386D01*
X88294781Y-116500776D01*
X88231522Y-116695465D01*
X88199500Y-116897648D01*
X85962741Y-116897648D01*
X85897924Y-116655744D01*
X85797595Y-116413528D01*
X85797590Y-116413517D01*
X85666511Y-116186483D01*
X85666505Y-116186475D01*
X85579918Y-116073633D01*
X85579917Y-116073633D01*
X84639309Y-117014242D01*
X84620332Y-116968426D01*
X84543726Y-116853776D01*
X84446224Y-116756274D01*
X84331574Y-116679668D01*
X84285755Y-116660689D01*
X85226365Y-115720080D01*
X85113524Y-115633494D01*
X85113516Y-115633488D01*
X84886482Y-115502409D01*
X84886471Y-115502404D01*
X84644255Y-115402075D01*
X84391020Y-115334222D01*
X84391009Y-115334220D01*
X84131094Y-115300000D01*
X83868905Y-115300000D01*
X83608990Y-115334220D01*
X83608979Y-115334222D01*
X83355744Y-115402075D01*
X83113528Y-115502404D01*
X83113517Y-115502409D01*
X82886471Y-115633496D01*
X82773633Y-115720079D01*
X82773633Y-115720080D01*
X83714243Y-116660690D01*
X83668426Y-116679668D01*
X83553776Y-116756274D01*
X83456274Y-116853776D01*
X83379668Y-116968426D01*
X83360690Y-117014243D01*
X82420080Y-116073633D01*
X82420079Y-116073633D01*
X82333496Y-116186471D01*
X82202409Y-116413517D01*
X82202404Y-116413528D01*
X82102075Y-116655744D01*
X82034222Y-116908979D01*
X82034220Y-116908990D01*
X82000000Y-117168905D01*
X69770500Y-117168905D01*
X69770500Y-117168880D01*
X69736270Y-116908884D01*
X69668398Y-116655581D01*
X69656667Y-116627259D01*
X69568046Y-116413309D01*
X69568041Y-116413299D01*
X69436924Y-116186196D01*
X69277331Y-115978213D01*
X69277282Y-115978149D01*
X69277281Y-115978148D01*
X69277274Y-115978140D01*
X69091860Y-115792726D01*
X69091851Y-115792718D01*
X68883803Y-115633075D01*
X68656700Y-115501958D01*
X68656690Y-115501953D01*
X68414428Y-115401605D01*
X68414421Y-115401603D01*
X68414419Y-115401602D01*
X68161116Y-115333730D01*
X68103339Y-115326123D01*
X67901127Y-115299500D01*
X67901120Y-115299500D01*
X67638880Y-115299500D01*
X67638872Y-115299500D01*
X67407772Y-115329926D01*
X67378884Y-115333730D01*
X67125581Y-115401602D01*
X67125571Y-115401605D01*
X66883309Y-115501953D01*
X66883304Y-115501956D01*
X66685999Y-115615869D01*
X66618099Y-115632341D01*
X66552072Y-115609488D01*
X66508882Y-115554566D01*
X66500000Y-115508481D01*
X66500000Y-112624000D01*
X66519685Y-112556961D01*
X66572489Y-112511206D01*
X66624000Y-112500000D01*
X88025500Y-112500000D01*
X88092539Y-112519685D01*
G37*
%TD.AperFunction*%
%TD*%
M02*
