%TF.GenerationSoftware,KiCad,Pcbnew,9.0.4*%
%TF.CreationDate,2025-09-24T19:41:08-07:00*%
%TF.ProjectId,LE_FRONTEND,4c455f46-524f-44e5-9445-4e442e6b6963,rev?*%
%TF.SameCoordinates,Original*%
%TF.FileFunction,Copper,L3,Inr*%
%TF.FilePolarity,Positive*%
%FSLAX46Y46*%
G04 Gerber Fmt 4.6, Leading zero omitted, Abs format (unit mm)*
G04 Created by KiCad (PCBNEW 9.0.4) date 2025-09-24 19:41:08*
%MOMM*%
%LPD*%
G01*
G04 APERTURE LIST*
%TA.AperFunction,ComponentPad*%
%ADD10R,1.700000X1.700000*%
%TD*%
%TA.AperFunction,ComponentPad*%
%ADD11C,1.700000*%
%TD*%
%TA.AperFunction,ComponentPad*%
%ADD12C,1.600000*%
%TD*%
%TA.AperFunction,ComponentPad*%
%ADD13C,3.000000*%
%TD*%
%TA.AperFunction,ViaPad*%
%ADD14C,0.600000*%
%TD*%
%TA.AperFunction,Conductor*%
%ADD15C,0.200000*%
%TD*%
G04 APERTURE END LIST*
D10*
%TO.N,/SCK*%
%TO.C,J3*%
X112500000Y-146580000D03*
D11*
%TO.N,/{slash}CS*%
X112500000Y-144040000D03*
%TO.N,/SDI*%
X112500000Y-141500000D03*
%TO.N,/SDO*%
X112500000Y-138960000D03*
%TO.N,/{slash}IRQ*%
X112500000Y-136420000D03*
%TO.N,/MCLK*%
X112500000Y-133880000D03*
%TO.N,+3V3_DIG*%
X112500000Y-131340000D03*
%TO.N,Vin*%
X112500000Y-128800000D03*
%TO.N,GND*%
X112500000Y-126260000D03*
%TD*%
D12*
%TO.N,GND*%
%TO.C,C2*%
X94500000Y-117000000D03*
%TO.N,/IN+*%
X94500000Y-122000000D03*
%TD*%
D13*
%TO.N,N/C*%
%TO.C,J5*%
X67770000Y-151500000D03*
X84000000Y-151500000D03*
%TO.N,GND*%
X67770000Y-157850000D03*
%TO.N,N/C*%
X84000000Y-157850000D03*
%TO.N,/OUTPUT_SIG*%
X67770000Y-145150000D03*
%TO.N,N/C*%
X84000000Y-145150000D03*
%TD*%
D12*
%TO.N,GND*%
%TO.C,C21*%
X90750000Y-156500000D03*
%TO.N,/U1_INPUT_SIG*%
X90750000Y-151500000D03*
%TD*%
%TO.N,/U1_OUTPUT_SIG*%
%TO.C,C24*%
X95750000Y-151500000D03*
%TO.N,/OUTPUT_SIG*%
X95750000Y-156500000D03*
%TD*%
D13*
%TO.N,N/C*%
%TO.C,J1*%
X84000000Y-123650000D03*
X67770000Y-123650000D03*
%TO.N,GND*%
X84000000Y-117300000D03*
%TO.N,N/C*%
X67770000Y-117300000D03*
%TO.N,/POS_INPUT_SIG*%
X84000000Y-130000000D03*
%TO.N,N/C*%
X67770000Y-130000000D03*
%TD*%
D12*
%TO.N,/POS_INPUT_SIG*%
%TO.C,C1*%
X89500000Y-122000000D03*
%TO.N,Net-(U9A-+)*%
X89500000Y-117000000D03*
%TD*%
D10*
%TO.N,/Neg_input_Header*%
%TO.C,J2*%
X89500000Y-113500000D03*
%TD*%
D12*
%TO.N,GND*%
%TO.C,C3*%
X102500000Y-116000000D03*
%TO.N,/IN-*%
X102500000Y-121000000D03*
%TD*%
D10*
%TO.N,GND*%
%TO.C,J6*%
X94500000Y-113500000D03*
%TD*%
D14*
%TO.N,+3V3_Analog*%
X75500000Y-120000000D03*
X75000000Y-158000000D03*
X113500000Y-117000000D03*
X82500000Y-136250000D03*
X104000000Y-148800000D03*
X105200000Y-116600000D03*
X105600000Y-121000000D03*
X86750000Y-158250000D03*
X98400000Y-126400000D03*
X103000000Y-134600000D03*
X105600000Y-126500000D03*
X91810000Y-144475000D03*
X98050000Y-139500000D03*
X79000000Y-130500000D03*
X98500000Y-122400000D03*
X91810000Y-134950000D03*
X105600000Y-123750000D03*
X100250000Y-148750000D03*
X93500000Y-132500000D03*
X86000000Y-119750000D03*
X106500000Y-120050000D03*
X86000000Y-122600000D03*
X110000000Y-150400000D03*
X82250000Y-149000000D03*
X97000000Y-137250000D03*
X76750000Y-141250000D03*
X93500000Y-134500000D03*
X109500000Y-121100000D03*
X82500000Y-138500000D03*
X103000000Y-139000000D03*
X99400000Y-117800000D03*
%TO.N,GND*%
X107225000Y-123400000D03*
X97250000Y-123250000D03*
X101500000Y-135200000D03*
X96004952Y-152774758D03*
X105600000Y-153000000D03*
X106500000Y-118500000D03*
X75500000Y-131000000D03*
X108134761Y-144122205D03*
X99000000Y-141200000D03*
X107900000Y-140500000D03*
X95300000Y-139500000D03*
X101000000Y-127750000D03*
X74000000Y-145000000D03*
X86000000Y-117000000D03*
X108000000Y-113500000D03*
X104000000Y-119950000D03*
X101950000Y-142500000D03*
X109400000Y-145200000D03*
X70000000Y-158000000D03*
X109500000Y-117862500D03*
X87357772Y-128465544D03*
X89699999Y-123284524D03*
X79000000Y-138000000D03*
X95573514Y-149474986D03*
X108000000Y-153000000D03*
X103200000Y-158000000D03*
X103200000Y-153000000D03*
X104000000Y-122350000D03*
X109463677Y-147984853D03*
X89250000Y-146250000D03*
X113300000Y-122700000D03*
X79000000Y-143850000D03*
X97250000Y-144500000D03*
X104000000Y-115000000D03*
X85500000Y-143500000D03*
X110400000Y-158000000D03*
X101500000Y-137600000D03*
X96500000Y-113199997D03*
X101500000Y-140000000D03*
X104000000Y-117550000D03*
X103500000Y-132750000D03*
X108000000Y-158000000D03*
X110400000Y-153000000D03*
X104000000Y-124750000D03*
X86853108Y-139457432D03*
X100500000Y-132650000D03*
X105600000Y-158000000D03*
X80000000Y-128100000D03*
X79500000Y-134000000D03*
%TO.N,/U1_REFERENCE_NON-INVERTING*%
X80999228Y-137251070D03*
X89270000Y-138500000D03*
X86497017Y-138741051D03*
%TO.N,/IN+*%
X97500000Y-135000000D03*
X96100000Y-127000000D03*
%TO.N,/IN-*%
X100500000Y-135000000D03*
X102500000Y-126500000D03*
%TO.N,/U9_input_neg*%
X87000000Y-127750000D03*
X87000000Y-134250000D03*
%TO.N,/POS_INPUT_SIG*%
X88250000Y-123000000D03*
X79000000Y-127500000D03*
%TO.N,/Neg_input_Header*%
X90000000Y-126750000D03*
X96500000Y-114000000D03*
%TO.N,/VOUT*%
X99500000Y-143100000D03*
X97750000Y-148000000D03*
%TO.N,/SDO*%
X108500000Y-145000000D03*
%TO.N,/SCK*%
X108100000Y-138200000D03*
X108496338Y-143185267D03*
%TO.N,/SDI*%
X108500000Y-141300003D03*
%TO.N,/{slash}CS*%
X108500000Y-147700000D03*
%TO.N,Net-(U9A-+)*%
X89772501Y-128522501D03*
X92500000Y-136500000D03*
X90000000Y-118250000D03*
%TO.N,/2V5*%
X97502983Y-143741051D03*
X81100000Y-145750000D03*
%TO.N,/1V2*%
X91250000Y-139525000D03*
X86500000Y-137250000D03*
X93000000Y-137750000D03*
%TO.N,Net-(U5-\u002ACS)*%
X104500000Y-147500000D03*
X99641987Y-141900000D03*
%TO.N,/U1_INPUT_SIG*%
X89500000Y-150000000D03*
X88000000Y-146250000D03*
X94250000Y-148750000D03*
%TO.N,/U1_OUTPUT_SIG*%
X90750000Y-146500000D03*
X94066040Y-150933960D03*
%TO.N,/U9_output_neg*%
X92500000Y-124750000D03*
X90000000Y-133600000D03*
X100000000Y-124000000D03*
%TO.N,/OUTPUT_SIG*%
X96100000Y-146493675D03*
X70800000Y-147750000D03*
%TO.N,/U9_output_pos*%
X92575000Y-130000000D03*
X94500000Y-127000000D03*
%TD*%
D15*
%TO.N,GND*%
X95300000Y-139500000D02*
X95300000Y-140200000D01*
X85500000Y-143500000D02*
X86500000Y-142500000D01*
X95250000Y-142500000D02*
X97250000Y-144500000D01*
X81150000Y-143850000D02*
X79000000Y-143850000D01*
X95300000Y-140200000D02*
X94500000Y-141000000D01*
X94500000Y-141000000D02*
X84000000Y-141000000D01*
X84000000Y-141000000D02*
X81150000Y-143850000D01*
X86500000Y-142500000D02*
X95250000Y-142500000D01*
%TO.N,/SDO*%
X111972240Y-142600000D02*
X112023240Y-142651000D01*
X108549940Y-145000000D02*
X110949940Y-142600000D01*
X113900000Y-140360000D02*
X112500000Y-138960000D01*
X112976760Y-142651000D02*
X113900000Y-141727760D01*
X110949940Y-142600000D02*
X111972240Y-142600000D01*
X112023240Y-142651000D02*
X112976760Y-142651000D01*
X108500000Y-145000000D02*
X108549940Y-145000000D01*
X113900000Y-141727760D02*
X113900000Y-140360000D01*
%TO.N,/SCK*%
X108100000Y-139300000D02*
X106500000Y-140900000D01*
X108100000Y-138200000D02*
X108100000Y-139300000D01*
X106500000Y-142500000D02*
X107185267Y-143185267D01*
X107185267Y-143185267D02*
X108496338Y-143185267D01*
X106500000Y-140900000D02*
X106500000Y-142500000D01*
%TO.N,/SDI*%
X108500000Y-141300003D02*
X108699997Y-141300003D01*
X108600000Y-141300003D02*
X108799997Y-141500000D01*
X108500000Y-141300003D02*
X108600000Y-141300003D01*
X108799997Y-141500000D02*
X112500000Y-141500000D01*
%TO.N,/{slash}CS*%
X111460000Y-144040000D02*
X112500000Y-144040000D01*
X108500000Y-147700000D02*
X108900000Y-147700000D01*
X109910598Y-145589402D02*
X111460000Y-144040000D01*
X109910598Y-146689402D02*
X109910598Y-145589402D01*
X108900000Y-147700000D02*
X109910598Y-146689402D01*
%TO.N,/2V5*%
X81100000Y-144886213D02*
X84236213Y-141750000D01*
X95511932Y-141750000D02*
X97502983Y-143741051D01*
X81100000Y-145750000D02*
X81100000Y-144886213D01*
X84236213Y-141750000D02*
X95511932Y-141750000D01*
%TO.N,Net-(U5-\u002ACS)*%
X102199943Y-141900000D02*
X102551000Y-142251057D01*
X99641987Y-141900000D02*
X102199943Y-141900000D01*
X102551000Y-145551000D02*
X104500000Y-147500000D01*
X102551000Y-142251057D02*
X102551000Y-145551000D01*
%TD*%
%TA.AperFunction,Conductor*%
%TO.N,+3V3_Analog*%
G36*
X88392555Y-112519685D02*
G01*
X88438310Y-112572489D01*
X88446881Y-112624160D01*
X88449500Y-112624160D01*
X88449500Y-114369752D01*
X88461131Y-114428229D01*
X88461132Y-114428230D01*
X88505447Y-114494552D01*
X88571769Y-114538867D01*
X88571770Y-114538868D01*
X88630247Y-114550499D01*
X88630250Y-114550500D01*
X88630252Y-114550500D01*
X90369750Y-114550500D01*
X90369751Y-114550499D01*
X90384568Y-114547552D01*
X90428229Y-114538868D01*
X90428229Y-114538867D01*
X90428231Y-114538867D01*
X90494552Y-114494552D01*
X90538867Y-114428231D01*
X90538867Y-114428229D01*
X90538868Y-114428229D01*
X90550499Y-114369752D01*
X90550500Y-114369750D01*
X90550500Y-112624160D01*
X90553390Y-112624160D01*
X90564016Y-112567673D01*
X90612005Y-112516891D01*
X90674484Y-112500000D01*
X93325516Y-112500000D01*
X93392555Y-112519685D01*
X93438310Y-112572489D01*
X93446881Y-112624160D01*
X93449500Y-112624160D01*
X93449500Y-114369752D01*
X93461131Y-114428229D01*
X93461132Y-114428230D01*
X93505447Y-114494552D01*
X93571769Y-114538867D01*
X93571770Y-114538868D01*
X93630247Y-114550499D01*
X93630250Y-114550500D01*
X93630252Y-114550500D01*
X95369750Y-114550500D01*
X95369751Y-114550499D01*
X95384568Y-114547552D01*
X95428229Y-114538868D01*
X95428229Y-114538867D01*
X95428231Y-114538867D01*
X95494552Y-114494552D01*
X95538867Y-114428231D01*
X95538867Y-114428229D01*
X95538868Y-114428229D01*
X95550499Y-114369752D01*
X95550500Y-114369750D01*
X95550500Y-112624160D01*
X95553390Y-112624160D01*
X95564016Y-112567673D01*
X95612005Y-112516891D01*
X95674484Y-112500000D01*
X96248655Y-112500000D01*
X96315694Y-112519685D01*
X96361449Y-112572489D01*
X96371393Y-112641647D01*
X96342368Y-112705203D01*
X96310655Y-112731387D01*
X96192689Y-112799495D01*
X96192683Y-112799499D01*
X96099502Y-112892680D01*
X96099500Y-112892683D01*
X96033608Y-113006809D01*
X95999500Y-113134105D01*
X95999500Y-113265888D01*
X96033608Y-113393184D01*
X96057236Y-113434108D01*
X96099500Y-113507311D01*
X96099502Y-113507313D01*
X96104506Y-113512317D01*
X96137991Y-113573640D01*
X96133007Y-113643332D01*
X96104510Y-113687675D01*
X96099503Y-113692682D01*
X96099501Y-113692684D01*
X96099500Y-113692686D01*
X96099211Y-113693187D01*
X96033608Y-113806813D01*
X95999500Y-113934108D01*
X95999500Y-114065891D01*
X96033608Y-114193187D01*
X96066554Y-114250250D01*
X96099500Y-114307314D01*
X96192686Y-114400500D01*
X96306814Y-114466392D01*
X96434108Y-114500500D01*
X96434110Y-114500500D01*
X96565890Y-114500500D01*
X96565892Y-114500500D01*
X96693186Y-114466392D01*
X96807314Y-114400500D01*
X96900500Y-114307314D01*
X96966392Y-114193186D01*
X97000500Y-114065892D01*
X97000500Y-113934108D01*
X96966392Y-113806814D01*
X96900500Y-113692686D01*
X96895493Y-113687679D01*
X96862008Y-113626356D01*
X96866992Y-113556664D01*
X96876413Y-113536927D01*
X96884394Y-113523415D01*
X96900500Y-113507311D01*
X96942764Y-113434108D01*
X107499500Y-113434108D01*
X107499500Y-113565891D01*
X107533608Y-113693187D01*
X107566554Y-113750250D01*
X107599500Y-113807314D01*
X107692686Y-113900500D01*
X107806814Y-113966392D01*
X107934108Y-114000500D01*
X107934110Y-114000500D01*
X108065890Y-114000500D01*
X108065892Y-114000500D01*
X108193186Y-113966392D01*
X108307314Y-113900500D01*
X108400500Y-113807314D01*
X108466392Y-113693186D01*
X108500500Y-113565892D01*
X108500500Y-113434108D01*
X108466392Y-113306814D01*
X108400500Y-113192686D01*
X108307314Y-113099500D01*
X108250250Y-113066554D01*
X108193187Y-113033608D01*
X108093177Y-113006811D01*
X108065892Y-112999500D01*
X107934108Y-112999500D01*
X107806812Y-113033608D01*
X107692686Y-113099500D01*
X107692683Y-113099502D01*
X107599502Y-113192683D01*
X107599500Y-113192686D01*
X107533608Y-113306812D01*
X107499500Y-113434108D01*
X96942764Y-113434108D01*
X96966392Y-113393183D01*
X97000500Y-113265889D01*
X97000500Y-113134105D01*
X96966392Y-113006811D01*
X96900500Y-112892683D01*
X96807314Y-112799497D01*
X96755268Y-112769448D01*
X96689345Y-112731387D01*
X96641129Y-112680820D01*
X96627907Y-112612213D01*
X96653875Y-112547348D01*
X96710789Y-112506820D01*
X96751345Y-112500000D01*
X114376000Y-112500000D01*
X114443039Y-112519685D01*
X114488794Y-112572489D01*
X114500000Y-112624000D01*
X114500000Y-160376000D01*
X114480315Y-160443039D01*
X114427511Y-160488794D01*
X114376000Y-160500000D01*
X66624000Y-160500000D01*
X66556961Y-160480315D01*
X66511206Y-160427511D01*
X66500000Y-160376000D01*
X66500000Y-159270375D01*
X66519685Y-159203336D01*
X66572489Y-159157581D01*
X66641647Y-159147637D01*
X66699484Y-159171998D01*
X66823226Y-159266948D01*
X67016274Y-159378405D01*
X67222219Y-159463710D01*
X67437537Y-159521404D01*
X67658543Y-159550500D01*
X67658550Y-159550500D01*
X67881450Y-159550500D01*
X67881457Y-159550500D01*
X68102463Y-159521404D01*
X68317781Y-159463710D01*
X68523726Y-159378405D01*
X68716774Y-159266948D01*
X68893624Y-159131247D01*
X69051247Y-158973624D01*
X69186948Y-158796774D01*
X69298405Y-158603726D01*
X69383710Y-158397781D01*
X69392842Y-158363699D01*
X69429204Y-158304040D01*
X69492050Y-158273509D01*
X69561426Y-158281803D01*
X69600297Y-158308111D01*
X69692686Y-158400500D01*
X69806814Y-158466392D01*
X69934108Y-158500500D01*
X69934110Y-158500500D01*
X70065890Y-158500500D01*
X70065892Y-158500500D01*
X70193186Y-158466392D01*
X70307314Y-158400500D01*
X70400500Y-158307314D01*
X70466392Y-158193186D01*
X70500500Y-158065892D01*
X70500500Y-157934108D01*
X70466392Y-157806814D01*
X70426979Y-157738549D01*
X82299500Y-157738549D01*
X82299500Y-157961450D01*
X82299501Y-157961466D01*
X82328594Y-158182452D01*
X82328595Y-158182457D01*
X82328596Y-158182463D01*
X82386288Y-158397773D01*
X82386290Y-158397780D01*
X82386293Y-158397790D01*
X82428837Y-158500499D01*
X82471595Y-158603726D01*
X82583052Y-158796774D01*
X82583057Y-158796780D01*
X82583058Y-158796782D01*
X82718751Y-158973622D01*
X82718757Y-158973629D01*
X82876370Y-159131242D01*
X82876376Y-159131247D01*
X83053226Y-159266948D01*
X83246274Y-159378405D01*
X83452219Y-159463710D01*
X83667537Y-159521404D01*
X83888543Y-159550500D01*
X83888550Y-159550500D01*
X84111450Y-159550500D01*
X84111457Y-159550500D01*
X84332463Y-159521404D01*
X84547781Y-159463710D01*
X84753726Y-159378405D01*
X84946774Y-159266948D01*
X85123624Y-159131247D01*
X85281247Y-158973624D01*
X85416948Y-158796774D01*
X85528405Y-158603726D01*
X85613710Y-158397781D01*
X85671404Y-158182463D01*
X85700500Y-157961457D01*
X85700500Y-157934108D01*
X102699500Y-157934108D01*
X102699500Y-158065891D01*
X102733608Y-158193187D01*
X102766554Y-158250250D01*
X102799500Y-158307314D01*
X102892686Y-158400500D01*
X103006814Y-158466392D01*
X103134108Y-158500500D01*
X103134110Y-158500500D01*
X103265890Y-158500500D01*
X103265892Y-158500500D01*
X103393186Y-158466392D01*
X103507314Y-158400500D01*
X103600500Y-158307314D01*
X103666392Y-158193186D01*
X103700500Y-158065892D01*
X103700500Y-157934108D01*
X105099500Y-157934108D01*
X105099500Y-158065891D01*
X105133608Y-158193187D01*
X105166554Y-158250250D01*
X105199500Y-158307314D01*
X105292686Y-158400500D01*
X105406814Y-158466392D01*
X105534108Y-158500500D01*
X105534110Y-158500500D01*
X105665890Y-158500500D01*
X105665892Y-158500500D01*
X105793186Y-158466392D01*
X105907314Y-158400500D01*
X106000500Y-158307314D01*
X106066392Y-158193186D01*
X106100500Y-158065892D01*
X106100500Y-157934108D01*
X107499500Y-157934108D01*
X107499500Y-158065891D01*
X107533608Y-158193187D01*
X107566554Y-158250250D01*
X107599500Y-158307314D01*
X107692686Y-158400500D01*
X107806814Y-158466392D01*
X107934108Y-158500500D01*
X107934110Y-158500500D01*
X108065890Y-158500500D01*
X108065892Y-158500500D01*
X108193186Y-158466392D01*
X108307314Y-158400500D01*
X108400500Y-158307314D01*
X108466392Y-158193186D01*
X108500500Y-158065892D01*
X108500500Y-157934108D01*
X109899500Y-157934108D01*
X109899500Y-158065891D01*
X109933608Y-158193187D01*
X109966554Y-158250250D01*
X109999500Y-158307314D01*
X110092686Y-158400500D01*
X110206814Y-158466392D01*
X110334108Y-158500500D01*
X110334110Y-158500500D01*
X110465890Y-158500500D01*
X110465892Y-158500500D01*
X110593186Y-158466392D01*
X110707314Y-158400500D01*
X110800500Y-158307314D01*
X110866392Y-158193186D01*
X110900500Y-158065892D01*
X110900500Y-157934108D01*
X110866392Y-157806814D01*
X110800500Y-157692686D01*
X110707314Y-157599500D01*
X110643604Y-157562717D01*
X110593187Y-157533608D01*
X110529539Y-157516554D01*
X110465892Y-157499500D01*
X110334108Y-157499500D01*
X110206812Y-157533608D01*
X110092686Y-157599500D01*
X110092683Y-157599502D01*
X109999502Y-157692683D01*
X109999500Y-157692686D01*
X109933608Y-157806812D01*
X109899500Y-157934108D01*
X108500500Y-157934108D01*
X108466392Y-157806814D01*
X108400500Y-157692686D01*
X108307314Y-157599500D01*
X108243604Y-157562717D01*
X108193187Y-157533608D01*
X108129539Y-157516554D01*
X108065892Y-157499500D01*
X107934108Y-157499500D01*
X107806812Y-157533608D01*
X107692686Y-157599500D01*
X107692683Y-157599502D01*
X107599502Y-157692683D01*
X107599500Y-157692686D01*
X107533608Y-157806812D01*
X107499500Y-157934108D01*
X106100500Y-157934108D01*
X106066392Y-157806814D01*
X106000500Y-157692686D01*
X105907314Y-157599500D01*
X105843604Y-157562717D01*
X105793187Y-157533608D01*
X105729539Y-157516554D01*
X105665892Y-157499500D01*
X105534108Y-157499500D01*
X105406812Y-157533608D01*
X105292686Y-157599500D01*
X105292683Y-157599502D01*
X105199502Y-157692683D01*
X105199500Y-157692686D01*
X105133608Y-157806812D01*
X105099500Y-157934108D01*
X103700500Y-157934108D01*
X103666392Y-157806814D01*
X103600500Y-157692686D01*
X103507314Y-157599500D01*
X103443604Y-157562717D01*
X103393187Y-157533608D01*
X103329539Y-157516554D01*
X103265892Y-157499500D01*
X103134108Y-157499500D01*
X103006812Y-157533608D01*
X102892686Y-157599500D01*
X102892683Y-157599502D01*
X102799502Y-157692683D01*
X102799500Y-157692686D01*
X102733608Y-157806812D01*
X102699500Y-157934108D01*
X85700500Y-157934108D01*
X85700500Y-157738543D01*
X85671404Y-157517537D01*
X85613710Y-157302219D01*
X85528405Y-157096274D01*
X85416948Y-156903226D01*
X85281247Y-156726376D01*
X85281242Y-156726370D01*
X85153415Y-156598543D01*
X89749499Y-156598543D01*
X89787947Y-156791829D01*
X89787950Y-156791839D01*
X89863364Y-156973907D01*
X89863371Y-156973920D01*
X89972860Y-157137781D01*
X89972863Y-157137785D01*
X90112214Y-157277136D01*
X90112218Y-157277139D01*
X90276079Y-157386628D01*
X90276092Y-157386635D01*
X90458160Y-157462049D01*
X90458165Y-157462051D01*
X90458169Y-157462051D01*
X90458170Y-157462052D01*
X90651456Y-157500500D01*
X90651459Y-157500500D01*
X90848543Y-157500500D01*
X90978582Y-157474632D01*
X91041835Y-157462051D01*
X91223914Y-157386632D01*
X91387782Y-157277139D01*
X91527139Y-157137782D01*
X91636632Y-156973914D01*
X91712051Y-156791835D01*
X91750500Y-156598543D01*
X94749499Y-156598543D01*
X94787947Y-156791829D01*
X94787950Y-156791839D01*
X94863364Y-156973907D01*
X94863371Y-156973920D01*
X94972860Y-157137781D01*
X94972863Y-157137785D01*
X95112214Y-157277136D01*
X95112218Y-157277139D01*
X95276079Y-157386628D01*
X95276092Y-157386635D01*
X95458160Y-157462049D01*
X95458165Y-157462051D01*
X95458169Y-157462051D01*
X95458170Y-157462052D01*
X95651456Y-157500500D01*
X95651459Y-157500500D01*
X95848543Y-157500500D01*
X95978582Y-157474632D01*
X96041835Y-157462051D01*
X96223914Y-157386632D01*
X96387782Y-157277139D01*
X96527139Y-157137782D01*
X96636632Y-156973914D01*
X96712051Y-156791835D01*
X96750500Y-156598541D01*
X96750500Y-156401459D01*
X96750500Y-156401456D01*
X96712052Y-156208170D01*
X96712051Y-156208169D01*
X96712051Y-156208165D01*
X96699803Y-156178596D01*
X96636635Y-156026092D01*
X96636628Y-156026079D01*
X96527139Y-155862218D01*
X96527136Y-155862214D01*
X96387785Y-155722863D01*
X96387781Y-155722860D01*
X96223920Y-155613371D01*
X96223907Y-155613364D01*
X96041839Y-155537950D01*
X96041829Y-155537947D01*
X95848543Y-155499500D01*
X95848541Y-155499500D01*
X95651459Y-155499500D01*
X95651457Y-155499500D01*
X95458170Y-155537947D01*
X95458160Y-155537950D01*
X95276092Y-155613364D01*
X95276079Y-155613371D01*
X95112218Y-155722860D01*
X95112214Y-155722863D01*
X94972863Y-155862214D01*
X94972860Y-155862218D01*
X94863371Y-156026079D01*
X94863364Y-156026092D01*
X94787950Y-156208160D01*
X94787947Y-156208170D01*
X94749500Y-156401456D01*
X94749500Y-156401459D01*
X94749500Y-156598541D01*
X94749500Y-156598543D01*
X94749499Y-156598543D01*
X91750500Y-156598543D01*
X91750500Y-156598541D01*
X91750500Y-156401459D01*
X91750500Y-156401456D01*
X91712052Y-156208170D01*
X91712051Y-156208169D01*
X91712051Y-156208165D01*
X91699803Y-156178596D01*
X91636635Y-156026092D01*
X91636628Y-156026079D01*
X91527139Y-155862218D01*
X91527136Y-155862214D01*
X91387785Y-155722863D01*
X91387781Y-155722860D01*
X91223920Y-155613371D01*
X91223907Y-155613364D01*
X91041839Y-155537950D01*
X91041829Y-155537947D01*
X90848543Y-155499500D01*
X90848541Y-155499500D01*
X90651459Y-155499500D01*
X90651457Y-155499500D01*
X90458170Y-155537947D01*
X90458160Y-155537950D01*
X90276092Y-155613364D01*
X90276079Y-155613371D01*
X90112218Y-155722860D01*
X90112214Y-155722863D01*
X89972863Y-155862214D01*
X89972860Y-155862218D01*
X89863371Y-156026079D01*
X89863364Y-156026092D01*
X89787950Y-156208160D01*
X89787947Y-156208170D01*
X89749500Y-156401456D01*
X89749500Y-156401459D01*
X89749500Y-156598541D01*
X89749500Y-156598543D01*
X89749499Y-156598543D01*
X85153415Y-156598543D01*
X85123629Y-156568757D01*
X85123622Y-156568751D01*
X85025869Y-156493743D01*
X84946782Y-156433058D01*
X84946780Y-156433057D01*
X84946774Y-156433052D01*
X84753726Y-156321595D01*
X84753722Y-156321593D01*
X84547790Y-156236293D01*
X84547783Y-156236291D01*
X84547781Y-156236290D01*
X84332463Y-156178596D01*
X84332457Y-156178595D01*
X84332452Y-156178594D01*
X84111466Y-156149501D01*
X84111463Y-156149500D01*
X84111457Y-156149500D01*
X83888543Y-156149500D01*
X83888537Y-156149500D01*
X83888533Y-156149501D01*
X83667547Y-156178594D01*
X83667540Y-156178595D01*
X83667537Y-156178596D01*
X83557165Y-156208170D01*
X83452219Y-156236290D01*
X83452209Y-156236293D01*
X83246277Y-156321593D01*
X83246273Y-156321595D01*
X83053226Y-156433052D01*
X83053217Y-156433058D01*
X82876377Y-156568751D01*
X82876370Y-156568757D01*
X82718757Y-156726370D01*
X82718751Y-156726377D01*
X82583058Y-156903217D01*
X82583052Y-156903226D01*
X82471595Y-157096273D01*
X82471593Y-157096277D01*
X82386293Y-157302209D01*
X82386290Y-157302219D01*
X82343464Y-157462051D01*
X82328597Y-157517534D01*
X82328594Y-157517547D01*
X82299501Y-157738533D01*
X82299500Y-157738549D01*
X70426979Y-157738549D01*
X70400500Y-157692686D01*
X70307314Y-157599500D01*
X70243604Y-157562717D01*
X70193187Y-157533608D01*
X70129539Y-157516554D01*
X70065892Y-157499500D01*
X69934108Y-157499500D01*
X69806812Y-157533608D01*
X69692686Y-157599500D01*
X69692682Y-157599503D01*
X69657971Y-157634214D01*
X69596648Y-157667699D01*
X69526956Y-157662713D01*
X69471023Y-157620841D01*
X69447352Y-157562717D01*
X69441405Y-157517547D01*
X69441404Y-157517537D01*
X69383710Y-157302219D01*
X69298405Y-157096274D01*
X69186948Y-156903226D01*
X69051247Y-156726376D01*
X69051242Y-156726370D01*
X68893629Y-156568757D01*
X68893622Y-156568751D01*
X68716782Y-156433058D01*
X68716780Y-156433057D01*
X68716774Y-156433052D01*
X68523726Y-156321595D01*
X68523722Y-156321593D01*
X68317790Y-156236293D01*
X68317783Y-156236291D01*
X68317781Y-156236290D01*
X68102463Y-156178596D01*
X68102457Y-156178595D01*
X68102452Y-156178594D01*
X67881466Y-156149501D01*
X67881463Y-156149500D01*
X67881457Y-156149500D01*
X67658543Y-156149500D01*
X67658537Y-156149500D01*
X67658533Y-156149501D01*
X67437547Y-156178594D01*
X67437540Y-156178595D01*
X67437537Y-156178596D01*
X67327165Y-156208170D01*
X67222219Y-156236290D01*
X67222209Y-156236293D01*
X67016277Y-156321593D01*
X67016273Y-156321595D01*
X66823226Y-156433052D01*
X66823217Y-156433058D01*
X66699486Y-156528000D01*
X66634317Y-156553194D01*
X66565872Y-156539155D01*
X66515882Y-156490341D01*
X66500000Y-156429624D01*
X66500000Y-152920375D01*
X66519685Y-152853336D01*
X66572489Y-152807581D01*
X66641647Y-152797637D01*
X66699484Y-152821998D01*
X66823226Y-152916948D01*
X67016274Y-153028405D01*
X67222219Y-153113710D01*
X67437537Y-153171404D01*
X67658543Y-153200500D01*
X67658550Y-153200500D01*
X67881450Y-153200500D01*
X67881457Y-153200500D01*
X68102463Y-153171404D01*
X68317781Y-153113710D01*
X68523726Y-153028405D01*
X68716774Y-152916948D01*
X68893624Y-152781247D01*
X69051247Y-152623624D01*
X69186948Y-152446774D01*
X69298405Y-152253726D01*
X69383710Y-152047781D01*
X69441404Y-151832463D01*
X69470500Y-151611457D01*
X69470500Y-151388549D01*
X82299500Y-151388549D01*
X82299500Y-151611450D01*
X82299501Y-151611466D01*
X82328594Y-151832452D01*
X82328595Y-151832457D01*
X82328596Y-151832463D01*
X82366499Y-151973920D01*
X82386290Y-152047780D01*
X82386293Y-152047790D01*
X82471593Y-152253722D01*
X82471595Y-152253726D01*
X82583052Y-152446774D01*
X82583057Y-152446780D01*
X82583058Y-152446782D01*
X82718751Y-152623622D01*
X82718757Y-152623629D01*
X82876370Y-152781242D01*
X82876376Y-152781247D01*
X83053226Y-152916948D01*
X83246274Y-153028405D01*
X83452219Y-153113710D01*
X83667537Y-153171404D01*
X83888543Y-153200500D01*
X83888550Y-153200500D01*
X84111450Y-153200500D01*
X84111457Y-153200500D01*
X84332463Y-153171404D01*
X84547781Y-153113710D01*
X84753726Y-153028405D01*
X84946774Y-152916948D01*
X85123624Y-152781247D01*
X85281247Y-152623624D01*
X85416948Y-152446774D01*
X85528405Y-152253726D01*
X85613710Y-152047781D01*
X85671404Y-151832463D01*
X85700500Y-151611457D01*
X85700500Y-151598543D01*
X89749499Y-151598543D01*
X89787947Y-151791829D01*
X89787950Y-151791839D01*
X89863364Y-151973907D01*
X89863371Y-151973920D01*
X89972860Y-152137781D01*
X89972863Y-152137785D01*
X90112214Y-152277136D01*
X90112218Y-152277139D01*
X90276079Y-152386628D01*
X90276092Y-152386635D01*
X90421302Y-152446782D01*
X90458165Y-152462051D01*
X90458169Y-152462051D01*
X90458170Y-152462052D01*
X90651456Y-152500500D01*
X90651459Y-152500500D01*
X90848543Y-152500500D01*
X90978582Y-152474632D01*
X91041835Y-152462051D01*
X91223914Y-152386632D01*
X91387782Y-152277139D01*
X91527139Y-152137782D01*
X91636632Y-151973914D01*
X91712051Y-151791835D01*
X91747931Y-151611457D01*
X91750500Y-151598543D01*
X94749499Y-151598543D01*
X94787947Y-151791829D01*
X94787950Y-151791839D01*
X94863364Y-151973907D01*
X94863371Y-151973920D01*
X94972860Y-152137781D01*
X94972863Y-152137785D01*
X95112214Y-152277136D01*
X95112218Y-152277139D01*
X95276079Y-152386628D01*
X95276083Y-152386630D01*
X95276086Y-152386632D01*
X95458165Y-152462051D01*
X95458174Y-152462052D01*
X95458887Y-152462348D01*
X95513290Y-152506189D01*
X95535356Y-152572483D01*
X95531210Y-152609003D01*
X95504452Y-152708866D01*
X95504452Y-152840649D01*
X95538560Y-152967945D01*
X95571506Y-153025008D01*
X95604452Y-153082072D01*
X95697638Y-153175258D01*
X95811766Y-153241150D01*
X95939060Y-153275258D01*
X95939062Y-153275258D01*
X96070842Y-153275258D01*
X96070844Y-153275258D01*
X96198138Y-153241150D01*
X96312266Y-153175258D01*
X96405452Y-153082072D01*
X96471344Y-152967944D01*
X96480410Y-152934108D01*
X102699500Y-152934108D01*
X102699500Y-153065892D01*
X102703836Y-153082074D01*
X102733608Y-153193187D01*
X102761300Y-153241150D01*
X102799500Y-153307314D01*
X102892686Y-153400500D01*
X103006814Y-153466392D01*
X103134108Y-153500500D01*
X103134110Y-153500500D01*
X103265890Y-153500500D01*
X103265892Y-153500500D01*
X103393186Y-153466392D01*
X103507314Y-153400500D01*
X103600500Y-153307314D01*
X103666392Y-153193186D01*
X103700500Y-153065892D01*
X103700500Y-152934108D01*
X105099500Y-152934108D01*
X105099500Y-153065892D01*
X105103836Y-153082074D01*
X105133608Y-153193187D01*
X105161300Y-153241150D01*
X105199500Y-153307314D01*
X105292686Y-153400500D01*
X105406814Y-153466392D01*
X105534108Y-153500500D01*
X105534110Y-153500500D01*
X105665890Y-153500500D01*
X105665892Y-153500500D01*
X105793186Y-153466392D01*
X105907314Y-153400500D01*
X106000500Y-153307314D01*
X106066392Y-153193186D01*
X106100500Y-153065892D01*
X106100500Y-152934108D01*
X107499500Y-152934108D01*
X107499500Y-153065892D01*
X107503836Y-153082074D01*
X107533608Y-153193187D01*
X107561300Y-153241150D01*
X107599500Y-153307314D01*
X107692686Y-153400500D01*
X107806814Y-153466392D01*
X107934108Y-153500500D01*
X107934110Y-153500500D01*
X108065890Y-153500500D01*
X108065892Y-153500500D01*
X108193186Y-153466392D01*
X108307314Y-153400500D01*
X108400500Y-153307314D01*
X108466392Y-153193186D01*
X108500500Y-153065892D01*
X108500500Y-152934108D01*
X109899500Y-152934108D01*
X109899500Y-153065892D01*
X109903836Y-153082074D01*
X109933608Y-153193187D01*
X109961300Y-153241150D01*
X109999500Y-153307314D01*
X110092686Y-153400500D01*
X110206814Y-153466392D01*
X110334108Y-153500500D01*
X110334110Y-153500500D01*
X110465890Y-153500500D01*
X110465892Y-153500500D01*
X110593186Y-153466392D01*
X110707314Y-153400500D01*
X110800500Y-153307314D01*
X110866392Y-153193186D01*
X110900500Y-153065892D01*
X110900500Y-152934108D01*
X110866392Y-152806814D01*
X110800500Y-152692686D01*
X110707314Y-152599500D01*
X110650250Y-152566554D01*
X110593187Y-152533608D01*
X110529539Y-152516554D01*
X110465892Y-152499500D01*
X110334108Y-152499500D01*
X110206812Y-152533608D01*
X110092686Y-152599500D01*
X110092683Y-152599502D01*
X109999502Y-152692683D01*
X109999500Y-152692686D01*
X109933608Y-152806812D01*
X109910277Y-152893886D01*
X109899500Y-152934108D01*
X108500500Y-152934108D01*
X108466392Y-152806814D01*
X108400500Y-152692686D01*
X108307314Y-152599500D01*
X108250250Y-152566554D01*
X108193187Y-152533608D01*
X108129539Y-152516554D01*
X108065892Y-152499500D01*
X107934108Y-152499500D01*
X107806812Y-152533608D01*
X107692686Y-152599500D01*
X107692683Y-152599502D01*
X107599502Y-152692683D01*
X107599500Y-152692686D01*
X107533608Y-152806812D01*
X107510277Y-152893886D01*
X107499500Y-152934108D01*
X106100500Y-152934108D01*
X106066392Y-152806814D01*
X106000500Y-152692686D01*
X105907314Y-152599500D01*
X105850250Y-152566554D01*
X105793187Y-152533608D01*
X105729539Y-152516554D01*
X105665892Y-152499500D01*
X105534108Y-152499500D01*
X105406812Y-152533608D01*
X105292686Y-152599500D01*
X105292683Y-152599502D01*
X105199502Y-152692683D01*
X105199500Y-152692686D01*
X105133608Y-152806812D01*
X105110277Y-152893886D01*
X105099500Y-152934108D01*
X103700500Y-152934108D01*
X103666392Y-152806814D01*
X103600500Y-152692686D01*
X103507314Y-152599500D01*
X103450250Y-152566554D01*
X103393187Y-152533608D01*
X103329539Y-152516554D01*
X103265892Y-152499500D01*
X103134108Y-152499500D01*
X103006812Y-152533608D01*
X102892686Y-152599500D01*
X102892683Y-152599502D01*
X102799502Y-152692683D01*
X102799500Y-152692686D01*
X102733608Y-152806812D01*
X102710277Y-152893886D01*
X102699500Y-152934108D01*
X96480410Y-152934108D01*
X96505452Y-152840650D01*
X96505452Y-152708866D01*
X96471344Y-152581572D01*
X96466096Y-152572483D01*
X96427821Y-152506189D01*
X96405452Y-152467444D01*
X96400057Y-152462049D01*
X96389144Y-152451135D01*
X96355660Y-152389811D01*
X96360646Y-152320120D01*
X96389144Y-152275776D01*
X96527139Y-152137782D01*
X96636632Y-151973914D01*
X96712051Y-151791835D01*
X96747931Y-151611457D01*
X96750500Y-151598543D01*
X96750500Y-151401456D01*
X96712052Y-151208170D01*
X96712051Y-151208169D01*
X96712051Y-151208165D01*
X96695227Y-151167547D01*
X96636635Y-151026092D01*
X96636628Y-151026079D01*
X96527139Y-150862218D01*
X96527136Y-150862214D01*
X96387785Y-150722863D01*
X96387781Y-150722860D01*
X96223920Y-150613371D01*
X96223907Y-150613364D01*
X96041839Y-150537950D01*
X96041829Y-150537947D01*
X95848543Y-150499500D01*
X95848541Y-150499500D01*
X95651459Y-150499500D01*
X95651457Y-150499500D01*
X95458170Y-150537947D01*
X95458160Y-150537950D01*
X95276092Y-150613364D01*
X95276079Y-150613371D01*
X95112218Y-150722860D01*
X95112214Y-150722863D01*
X94972863Y-150862214D01*
X94972860Y-150862218D01*
X94863371Y-151026079D01*
X94863364Y-151026092D01*
X94787950Y-151208160D01*
X94787947Y-151208170D01*
X94749500Y-151401456D01*
X94749500Y-151401459D01*
X94749500Y-151598541D01*
X94749500Y-151598543D01*
X94749499Y-151598543D01*
X91750500Y-151598543D01*
X91750500Y-151401456D01*
X91712052Y-151208170D01*
X91712051Y-151208169D01*
X91712051Y-151208165D01*
X91695227Y-151167547D01*
X91636635Y-151026092D01*
X91636628Y-151026079D01*
X91571649Y-150928832D01*
X91571648Y-150928830D01*
X91531048Y-150868068D01*
X93565540Y-150868068D01*
X93565540Y-150999852D01*
X93572569Y-151026086D01*
X93599648Y-151127147D01*
X93632594Y-151184210D01*
X93665540Y-151241274D01*
X93758726Y-151334460D01*
X93872854Y-151400352D01*
X94000148Y-151434460D01*
X94000150Y-151434460D01*
X94131930Y-151434460D01*
X94131932Y-151434460D01*
X94259226Y-151400352D01*
X94373354Y-151334460D01*
X94466540Y-151241274D01*
X94532432Y-151127146D01*
X94566540Y-150999852D01*
X94566540Y-150868068D01*
X94532432Y-150740774D01*
X94466540Y-150626646D01*
X94373354Y-150533460D01*
X94314534Y-150499500D01*
X94259227Y-150467568D01*
X94195579Y-150450514D01*
X94131932Y-150433460D01*
X94000148Y-150433460D01*
X93872852Y-150467568D01*
X93758726Y-150533460D01*
X93758723Y-150533462D01*
X93665542Y-150626643D01*
X93665540Y-150626646D01*
X93599648Y-150740772D01*
X93598174Y-150746274D01*
X93565540Y-150868068D01*
X91531048Y-150868068D01*
X91527142Y-150862222D01*
X91527136Y-150862214D01*
X91387785Y-150722863D01*
X91387781Y-150722860D01*
X91223920Y-150613371D01*
X91223907Y-150613364D01*
X91041839Y-150537950D01*
X91041829Y-150537947D01*
X90848543Y-150499500D01*
X90848541Y-150499500D01*
X90651459Y-150499500D01*
X90651457Y-150499500D01*
X90458170Y-150537947D01*
X90458160Y-150537950D01*
X90276092Y-150613364D01*
X90276079Y-150613371D01*
X90112218Y-150722860D01*
X90112214Y-150722863D01*
X89972863Y-150862214D01*
X89972860Y-150862218D01*
X89863371Y-151026079D01*
X89863364Y-151026092D01*
X89787950Y-151208160D01*
X89787947Y-151208170D01*
X89749500Y-151401456D01*
X89749500Y-151401459D01*
X89749500Y-151598541D01*
X89749500Y-151598543D01*
X89749499Y-151598543D01*
X85700500Y-151598543D01*
X85700500Y-151388543D01*
X85671404Y-151167537D01*
X85613710Y-150952219D01*
X85528405Y-150746274D01*
X85416948Y-150553226D01*
X85281247Y-150376376D01*
X85281242Y-150376370D01*
X85123629Y-150218757D01*
X85123622Y-150218751D01*
X84946782Y-150083058D01*
X84946780Y-150083057D01*
X84946774Y-150083052D01*
X84860718Y-150033367D01*
X84860717Y-150033366D01*
X84753733Y-149971598D01*
X84753722Y-149971593D01*
X84663225Y-149934108D01*
X88999500Y-149934108D01*
X88999500Y-150065892D01*
X89004098Y-150083052D01*
X89033608Y-150193187D01*
X89039386Y-150203194D01*
X89099500Y-150307314D01*
X89192686Y-150400500D01*
X89306814Y-150466392D01*
X89434108Y-150500500D01*
X89434110Y-150500500D01*
X89565890Y-150500500D01*
X89565892Y-150500500D01*
X89693186Y-150466392D01*
X89807314Y-150400500D01*
X89900500Y-150307314D01*
X89966392Y-150193186D01*
X90000500Y-150065892D01*
X90000500Y-149934108D01*
X89966392Y-149806814D01*
X89900500Y-149692686D01*
X89807314Y-149599500D01*
X89750250Y-149566554D01*
X89693187Y-149533608D01*
X89668904Y-149527101D01*
X89565892Y-149499500D01*
X89434108Y-149499500D01*
X89306812Y-149533608D01*
X89192686Y-149599500D01*
X89192683Y-149599502D01*
X89099502Y-149692683D01*
X89099500Y-149692686D01*
X89033608Y-149806812D01*
X89012312Y-149886293D01*
X88999500Y-149934108D01*
X84663225Y-149934108D01*
X84547790Y-149886293D01*
X84547783Y-149886291D01*
X84547781Y-149886290D01*
X84332463Y-149828596D01*
X84332457Y-149828595D01*
X84332452Y-149828594D01*
X84111466Y-149799501D01*
X84111463Y-149799500D01*
X84111457Y-149799500D01*
X83888543Y-149799500D01*
X83888537Y-149799500D01*
X83888533Y-149799501D01*
X83667547Y-149828594D01*
X83667540Y-149828595D01*
X83667537Y-149828596D01*
X83492544Y-149875485D01*
X83452219Y-149886290D01*
X83452209Y-149886293D01*
X83246277Y-149971593D01*
X83246273Y-149971595D01*
X83053226Y-150083052D01*
X83053217Y-150083058D01*
X82876377Y-150218751D01*
X82876370Y-150218757D01*
X82718757Y-150376370D01*
X82718751Y-150376377D01*
X82583058Y-150553217D01*
X82583052Y-150553226D01*
X82471595Y-150746273D01*
X82471593Y-150746277D01*
X82386293Y-150952209D01*
X82386290Y-150952219D01*
X82339419Y-151127147D01*
X82328597Y-151167534D01*
X82328594Y-151167547D01*
X82299501Y-151388533D01*
X82299500Y-151388549D01*
X69470500Y-151388549D01*
X69470500Y-151388543D01*
X69441404Y-151167537D01*
X69383710Y-150952219D01*
X69298405Y-150746274D01*
X69186948Y-150553226D01*
X69051247Y-150376376D01*
X69051242Y-150376370D01*
X68893629Y-150218757D01*
X68893622Y-150218751D01*
X68716782Y-150083058D01*
X68716780Y-150083057D01*
X68716774Y-150083052D01*
X68523726Y-149971595D01*
X68523722Y-149971593D01*
X68317790Y-149886293D01*
X68317783Y-149886291D01*
X68317781Y-149886290D01*
X68102463Y-149828596D01*
X68102457Y-149828595D01*
X68102452Y-149828594D01*
X67881466Y-149799501D01*
X67881463Y-149799500D01*
X67881457Y-149799500D01*
X67658543Y-149799500D01*
X67658537Y-149799500D01*
X67658533Y-149799501D01*
X67437547Y-149828594D01*
X67437540Y-149828595D01*
X67437537Y-149828596D01*
X67262544Y-149875485D01*
X67222219Y-149886290D01*
X67222209Y-149886293D01*
X67016277Y-149971593D01*
X67016273Y-149971595D01*
X66823226Y-150083052D01*
X66823217Y-150083058D01*
X66699486Y-150178000D01*
X66634317Y-150203194D01*
X66565872Y-150189155D01*
X66515882Y-150140341D01*
X66500000Y-150079624D01*
X66500000Y-149409094D01*
X95073014Y-149409094D01*
X95073014Y-149540877D01*
X95107122Y-149668173D01*
X95121273Y-149692683D01*
X95173014Y-149782300D01*
X95266200Y-149875486D01*
X95380328Y-149941378D01*
X95507622Y-149975486D01*
X95507624Y-149975486D01*
X95639404Y-149975486D01*
X95639406Y-149975486D01*
X95766700Y-149941378D01*
X95880828Y-149875486D01*
X95974014Y-149782300D01*
X96039906Y-149668172D01*
X96074014Y-149540878D01*
X96074014Y-149409094D01*
X96039906Y-149281800D01*
X95974014Y-149167672D01*
X95880828Y-149074486D01*
X95823764Y-149041540D01*
X95766701Y-149008594D01*
X95703053Y-148991540D01*
X95639406Y-148974486D01*
X95507622Y-148974486D01*
X95380326Y-149008594D01*
X95266200Y-149074486D01*
X95266197Y-149074488D01*
X95173016Y-149167669D01*
X95173014Y-149167672D01*
X95107122Y-149281798D01*
X95073014Y-149409094D01*
X66500000Y-149409094D01*
X66500000Y-148684108D01*
X93749500Y-148684108D01*
X93749500Y-148815891D01*
X93783608Y-148943187D01*
X93801679Y-148974486D01*
X93849500Y-149057314D01*
X93942686Y-149150500D01*
X94056814Y-149216392D01*
X94184108Y-149250500D01*
X94184110Y-149250500D01*
X94315890Y-149250500D01*
X94315892Y-149250500D01*
X94443186Y-149216392D01*
X94557314Y-149150500D01*
X94650500Y-149057314D01*
X94716392Y-148943186D01*
X94750500Y-148815892D01*
X94750500Y-148684108D01*
X94716392Y-148556814D01*
X94650500Y-148442686D01*
X94557314Y-148349500D01*
X94500250Y-148316554D01*
X94443187Y-148283608D01*
X94379539Y-148266554D01*
X94315892Y-148249500D01*
X94184108Y-148249500D01*
X94056812Y-148283608D01*
X93942686Y-148349500D01*
X93942683Y-148349502D01*
X93849502Y-148442683D01*
X93849500Y-148442686D01*
X93783608Y-148556812D01*
X93749500Y-148684108D01*
X66500000Y-148684108D01*
X66500000Y-147684108D01*
X70299500Y-147684108D01*
X70299500Y-147815891D01*
X70333608Y-147943187D01*
X70347005Y-147966391D01*
X70399500Y-148057314D01*
X70492686Y-148150500D01*
X70606814Y-148216392D01*
X70734108Y-148250500D01*
X70734110Y-148250500D01*
X70865890Y-148250500D01*
X70865892Y-148250500D01*
X70993186Y-148216392D01*
X71107314Y-148150500D01*
X71200500Y-148057314D01*
X71266392Y-147943186D01*
X71268824Y-147934108D01*
X97249500Y-147934108D01*
X97249500Y-148065892D01*
X97258772Y-148100497D01*
X97283608Y-148193187D01*
X97297005Y-148216391D01*
X97349500Y-148307314D01*
X97442686Y-148400500D01*
X97556814Y-148466392D01*
X97684108Y-148500500D01*
X97684110Y-148500500D01*
X97815890Y-148500500D01*
X97815892Y-148500500D01*
X97943186Y-148466392D01*
X98057314Y-148400500D01*
X98150500Y-148307314D01*
X98216392Y-148193186D01*
X98250500Y-148065892D01*
X98250500Y-147934108D01*
X98216392Y-147806814D01*
X98150500Y-147692686D01*
X98057314Y-147599500D01*
X97983380Y-147556814D01*
X97943187Y-147533608D01*
X97879539Y-147516554D01*
X97815892Y-147499500D01*
X97684108Y-147499500D01*
X97556812Y-147533608D01*
X97442686Y-147599500D01*
X97442683Y-147599502D01*
X97349502Y-147692683D01*
X97349500Y-147692686D01*
X97283608Y-147806812D01*
X97260277Y-147893886D01*
X97249500Y-147934108D01*
X71268824Y-147934108D01*
X71300500Y-147815892D01*
X71300500Y-147684108D01*
X71266392Y-147556814D01*
X71200500Y-147442686D01*
X71107314Y-147349500D01*
X71033380Y-147306814D01*
X70993187Y-147283608D01*
X70929539Y-147266554D01*
X70865892Y-147249500D01*
X70734108Y-147249500D01*
X70606812Y-147283608D01*
X70492686Y-147349500D01*
X70492683Y-147349502D01*
X70399502Y-147442683D01*
X70399500Y-147442686D01*
X70333608Y-147556812D01*
X70299500Y-147684108D01*
X66500000Y-147684108D01*
X66500000Y-146570375D01*
X66519685Y-146503336D01*
X66572489Y-146457581D01*
X66641647Y-146447637D01*
X66699484Y-146471998D01*
X66823226Y-146566948D01*
X67016274Y-146678405D01*
X67222219Y-146763710D01*
X67437537Y-146821404D01*
X67658543Y-146850500D01*
X67658550Y-146850500D01*
X67881450Y-146850500D01*
X67881457Y-146850500D01*
X68102463Y-146821404D01*
X68317781Y-146763710D01*
X68523726Y-146678405D01*
X68716774Y-146566948D01*
X68893624Y-146431247D01*
X69051247Y-146273624D01*
X69186948Y-146096774D01*
X69298405Y-145903726D01*
X69383710Y-145697781D01*
X69441404Y-145482463D01*
X69470500Y-145261457D01*
X69470500Y-145038543D01*
X69456751Y-144934108D01*
X73499500Y-144934108D01*
X73499500Y-145065892D01*
X73506094Y-145090500D01*
X73533608Y-145193187D01*
X73566554Y-145250250D01*
X73599500Y-145307314D01*
X73692686Y-145400500D01*
X73780797Y-145451371D01*
X73806810Y-145466390D01*
X73806814Y-145466392D01*
X73934108Y-145500500D01*
X73934110Y-145500500D01*
X74065890Y-145500500D01*
X74065892Y-145500500D01*
X74193186Y-145466392D01*
X74307314Y-145400500D01*
X74400500Y-145307314D01*
X74466392Y-145193186D01*
X74500500Y-145065892D01*
X74500500Y-144934108D01*
X74466392Y-144806814D01*
X74400500Y-144692686D01*
X74307314Y-144599500D01*
X74249100Y-144565890D01*
X74193187Y-144533608D01*
X74093968Y-144507023D01*
X74065892Y-144499500D01*
X73934108Y-144499500D01*
X73806812Y-144533608D01*
X73692686Y-144599500D01*
X73692683Y-144599502D01*
X73599502Y-144692683D01*
X73599500Y-144692686D01*
X73533608Y-144806812D01*
X73520435Y-144855975D01*
X73499500Y-144934108D01*
X69456751Y-144934108D01*
X69441404Y-144817537D01*
X69383710Y-144602219D01*
X69368662Y-144565891D01*
X69342214Y-144502039D01*
X69298405Y-144396274D01*
X69186948Y-144203226D01*
X69074220Y-144056315D01*
X69051248Y-144026377D01*
X69051242Y-144026370D01*
X68893625Y-143868753D01*
X68783312Y-143784108D01*
X78499500Y-143784108D01*
X78499500Y-143915892D01*
X78504416Y-143934238D01*
X78533608Y-144043187D01*
X78541188Y-144056315D01*
X78599500Y-144157314D01*
X78692686Y-144250500D01*
X78806814Y-144316392D01*
X78934108Y-144350500D01*
X78934110Y-144350500D01*
X79065890Y-144350500D01*
X79065892Y-144350500D01*
X79193186Y-144316392D01*
X79307314Y-144250500D01*
X79370995Y-144186819D01*
X79432318Y-144153334D01*
X79458676Y-144150500D01*
X81111380Y-144150500D01*
X81178419Y-144170185D01*
X81224174Y-144222989D01*
X81234118Y-144292147D01*
X81205093Y-144355703D01*
X81199061Y-144362181D01*
X80859541Y-144701700D01*
X80859535Y-144701708D01*
X80819982Y-144770217D01*
X80819979Y-144770222D01*
X80799500Y-144846652D01*
X80799500Y-145291323D01*
X80779815Y-145358362D01*
X80763182Y-145379004D01*
X80699500Y-145442686D01*
X80633608Y-145556812D01*
X80599500Y-145684108D01*
X80599500Y-145815891D01*
X80633608Y-145943187D01*
X80662469Y-145993175D01*
X80699500Y-146057314D01*
X80792686Y-146150500D01*
X80906814Y-146216392D01*
X81034108Y-146250500D01*
X81034110Y-146250500D01*
X81165890Y-146250500D01*
X81165892Y-146250500D01*
X81293186Y-146216392D01*
X81407314Y-146150500D01*
X81500500Y-146057314D01*
X81566392Y-145943186D01*
X81600500Y-145815892D01*
X81600500Y-145684108D01*
X81566392Y-145556814D01*
X81500500Y-145442686D01*
X81436818Y-145379004D01*
X81422113Y-145352073D01*
X81405523Y-145326258D01*
X81404631Y-145320055D01*
X81403334Y-145317680D01*
X81400500Y-145291323D01*
X81400500Y-145062046D01*
X81420185Y-144995007D01*
X81436819Y-144974365D01*
X81935351Y-144475833D01*
X82482309Y-143928874D01*
X82543630Y-143895391D01*
X82613322Y-143900375D01*
X82669255Y-143942247D01*
X82693672Y-144007711D01*
X82678820Y-144075984D01*
X82668364Y-144092043D01*
X82583058Y-144203216D01*
X82583052Y-144203226D01*
X82471595Y-144396273D01*
X82471593Y-144396277D01*
X82386293Y-144602209D01*
X82386290Y-144602219D01*
X82331336Y-144807313D01*
X82328597Y-144817534D01*
X82328594Y-144817547D01*
X82299501Y-145038533D01*
X82299500Y-145038549D01*
X82299500Y-145261450D01*
X82299501Y-145261466D01*
X82328594Y-145482452D01*
X82328595Y-145482457D01*
X82328596Y-145482463D01*
X82382627Y-145684110D01*
X82386290Y-145697780D01*
X82386293Y-145697790D01*
X82471593Y-145903722D01*
X82471595Y-145903726D01*
X82583052Y-146096774D01*
X82583057Y-146096780D01*
X82583058Y-146096782D01*
X82718751Y-146273622D01*
X82718757Y-146273629D01*
X82876370Y-146431242D01*
X82876377Y-146431248D01*
X82897736Y-146447637D01*
X83053226Y-146566948D01*
X83246274Y-146678405D01*
X83452219Y-146763710D01*
X83667537Y-146821404D01*
X83888543Y-146850500D01*
X83888550Y-146850500D01*
X84111450Y-146850500D01*
X84111457Y-146850500D01*
X84332463Y-146821404D01*
X84547781Y-146763710D01*
X84753726Y-146678405D01*
X84946774Y-146566948D01*
X85123624Y-146431247D01*
X85281247Y-146273624D01*
X85349935Y-146184108D01*
X87499500Y-146184108D01*
X87499500Y-146315891D01*
X87533608Y-146443187D01*
X87541919Y-146457581D01*
X87599500Y-146557314D01*
X87692686Y-146650500D01*
X87806814Y-146716392D01*
X87934108Y-146750500D01*
X87934110Y-146750500D01*
X88065890Y-146750500D01*
X88065892Y-146750500D01*
X88193186Y-146716392D01*
X88307314Y-146650500D01*
X88400500Y-146557314D01*
X88466392Y-146443186D01*
X88500500Y-146315892D01*
X88500500Y-146184108D01*
X88749500Y-146184108D01*
X88749500Y-146315891D01*
X88783608Y-146443187D01*
X88791919Y-146457581D01*
X88849500Y-146557314D01*
X88942686Y-146650500D01*
X89056814Y-146716392D01*
X89184108Y-146750500D01*
X89184110Y-146750500D01*
X89315890Y-146750500D01*
X89315892Y-146750500D01*
X89443186Y-146716392D01*
X89557314Y-146650500D01*
X89650500Y-146557314D01*
X89716392Y-146443186D01*
X89718824Y-146434108D01*
X90249500Y-146434108D01*
X90249500Y-146565891D01*
X90283608Y-146693187D01*
X90297005Y-146716391D01*
X90349500Y-146807314D01*
X90442686Y-146900500D01*
X90556814Y-146966392D01*
X90684108Y-147000500D01*
X90684110Y-147000500D01*
X90815890Y-147000500D01*
X90815892Y-147000500D01*
X90943186Y-146966392D01*
X91057314Y-146900500D01*
X91150500Y-146807314D01*
X91216392Y-146693186D01*
X91250500Y-146565892D01*
X91250500Y-146434108D01*
X91248805Y-146427783D01*
X95599500Y-146427783D01*
X95599500Y-146559567D01*
X95601478Y-146566948D01*
X95633608Y-146686862D01*
X95657915Y-146728962D01*
X95699500Y-146800989D01*
X95792686Y-146894175D01*
X95906814Y-146960067D01*
X96034108Y-146994175D01*
X96034110Y-146994175D01*
X96165890Y-146994175D01*
X96165892Y-146994175D01*
X96293186Y-146960067D01*
X96407314Y-146894175D01*
X96500500Y-146800989D01*
X96566392Y-146686861D01*
X96600500Y-146559567D01*
X96600500Y-146427783D01*
X96566392Y-146300489D01*
X96500500Y-146186361D01*
X96407314Y-146093175D01*
X96344332Y-146056812D01*
X96293187Y-146027283D01*
X96189497Y-145999500D01*
X96165892Y-145993175D01*
X96034108Y-145993175D01*
X95906812Y-146027283D01*
X95792686Y-146093175D01*
X95792683Y-146093177D01*
X95699502Y-146186358D01*
X95699500Y-146186361D01*
X95633608Y-146300487D01*
X95608582Y-146393887D01*
X95599500Y-146427783D01*
X91248805Y-146427783D01*
X91216392Y-146306814D01*
X91150500Y-146192686D01*
X91057314Y-146099500D01*
X91000250Y-146066554D01*
X90943187Y-146033608D01*
X90879539Y-146016554D01*
X90815892Y-145999500D01*
X90684108Y-145999500D01*
X90556812Y-146033608D01*
X90442686Y-146099500D01*
X90442683Y-146099502D01*
X90349502Y-146192683D01*
X90349500Y-146192686D01*
X90283608Y-146306812D01*
X90249500Y-146434108D01*
X89718824Y-146434108D01*
X89750500Y-146315892D01*
X89750500Y-146184108D01*
X89716392Y-146056814D01*
X89650500Y-145942686D01*
X89557314Y-145849500D01*
X89499100Y-145815890D01*
X89443187Y-145783608D01*
X89344289Y-145757109D01*
X89315892Y-145749500D01*
X89184108Y-145749500D01*
X89056812Y-145783608D01*
X88942686Y-145849500D01*
X88942683Y-145849502D01*
X88849502Y-145942683D01*
X88849500Y-145942686D01*
X88783608Y-146056812D01*
X88749500Y-146184108D01*
X88500500Y-146184108D01*
X88466392Y-146056814D01*
X88400500Y-145942686D01*
X88307314Y-145849500D01*
X88249100Y-145815890D01*
X88193187Y-145783608D01*
X88094289Y-145757109D01*
X88065892Y-145749500D01*
X87934108Y-145749500D01*
X87806812Y-145783608D01*
X87692686Y-145849500D01*
X87692683Y-145849502D01*
X87599502Y-145942683D01*
X87599500Y-145942686D01*
X87533608Y-146056812D01*
X87499500Y-146184108D01*
X85349935Y-146184108D01*
X85416948Y-146096774D01*
X85528405Y-145903726D01*
X85613710Y-145697781D01*
X85671404Y-145482463D01*
X85700500Y-145261457D01*
X85700500Y-145038543D01*
X85671404Y-144817537D01*
X85613710Y-144602219D01*
X85598662Y-144565891D01*
X85572214Y-144502039D01*
X85528405Y-144396274D01*
X85416948Y-144203226D01*
X85416941Y-144203217D01*
X85416940Y-144203215D01*
X85414463Y-144199987D01*
X85389268Y-144134818D01*
X85403306Y-144066373D01*
X85452120Y-144016383D01*
X85512838Y-144000500D01*
X85565890Y-144000500D01*
X85565892Y-144000500D01*
X85693186Y-143966392D01*
X85807314Y-143900500D01*
X85900500Y-143807314D01*
X85966392Y-143693186D01*
X86000500Y-143565892D01*
X86000500Y-143475832D01*
X86020185Y-143408793D01*
X86036819Y-143388151D01*
X86588152Y-142836819D01*
X86649475Y-142803334D01*
X86675833Y-142800500D01*
X95074167Y-142800500D01*
X95141206Y-142820185D01*
X95161848Y-142836819D01*
X96713181Y-144388152D01*
X96746666Y-144449475D01*
X96749500Y-144475833D01*
X96749500Y-144565892D01*
X96755584Y-144588597D01*
X96783608Y-144693187D01*
X96799657Y-144720984D01*
X96849500Y-144807314D01*
X96942686Y-144900500D01*
X97056814Y-144966392D01*
X97184108Y-145000500D01*
X97184110Y-145000500D01*
X97315890Y-145000500D01*
X97315892Y-145000500D01*
X97443186Y-144966392D01*
X97557314Y-144900500D01*
X97650500Y-144807314D01*
X97716392Y-144693186D01*
X97750500Y-144565892D01*
X97750500Y-144434108D01*
X97716392Y-144306814D01*
X97716391Y-144306812D01*
X97715249Y-144302550D01*
X97716912Y-144232700D01*
X97756075Y-144174838D01*
X97773015Y-144163075D01*
X97810297Y-144141551D01*
X97903483Y-144048365D01*
X97969375Y-143934237D01*
X98003483Y-143806943D01*
X98003483Y-143675159D01*
X97969375Y-143547865D01*
X97903483Y-143433737D01*
X97810297Y-143340551D01*
X97751863Y-143306814D01*
X97696170Y-143274659D01*
X97608461Y-143251158D01*
X97568875Y-143240551D01*
X97478816Y-143240551D01*
X97411777Y-143220866D01*
X97391135Y-143204232D01*
X95696442Y-141509539D01*
X95682282Y-141501364D01*
X95668122Y-141493189D01*
X95648021Y-141481584D01*
X95627922Y-141469979D01*
X95602445Y-141463152D01*
X95551494Y-141449500D01*
X94774833Y-141449500D01*
X94707794Y-141429815D01*
X94662039Y-141377011D01*
X94652095Y-141307853D01*
X94681120Y-141244297D01*
X94687152Y-141237819D01*
X94790863Y-141134108D01*
X98499500Y-141134108D01*
X98499500Y-141265891D01*
X98533608Y-141393187D01*
X98566121Y-141449500D01*
X98599500Y-141507314D01*
X98692686Y-141600500D01*
X98785501Y-141654087D01*
X98803384Y-141664412D01*
X98806814Y-141666392D01*
X98934108Y-141700500D01*
X98934110Y-141700500D01*
X99017682Y-141700500D01*
X99084721Y-141720185D01*
X99130476Y-141772989D01*
X99138417Y-141825981D01*
X99141487Y-141825981D01*
X99141487Y-141965891D01*
X99175595Y-142093187D01*
X99183345Y-142106610D01*
X99241487Y-142207314D01*
X99334673Y-142300500D01*
X99448799Y-142366391D01*
X99455840Y-142370456D01*
X99454968Y-142371965D01*
X99501663Y-142409592D01*
X99523731Y-142475885D01*
X99506454Y-142543585D01*
X99455319Y-142591198D01*
X99431904Y-142600090D01*
X99400759Y-142608435D01*
X99306812Y-142633608D01*
X99192686Y-142699500D01*
X99192683Y-142699502D01*
X99099502Y-142792683D01*
X99099500Y-142792686D01*
X99033608Y-142906812D01*
X99003204Y-143020286D01*
X98999500Y-143034108D01*
X98999500Y-143165892D01*
X99009773Y-143204232D01*
X99033608Y-143293187D01*
X99041475Y-143306812D01*
X99099500Y-143407314D01*
X99192686Y-143500500D01*
X99291521Y-143557563D01*
X99305944Y-143565890D01*
X99306814Y-143566392D01*
X99434108Y-143600500D01*
X99434110Y-143600500D01*
X99565890Y-143600500D01*
X99565892Y-143600500D01*
X99693186Y-143566392D01*
X99807314Y-143500500D01*
X99900500Y-143407314D01*
X99966392Y-143293186D01*
X100000500Y-143165892D01*
X100000500Y-143034108D01*
X99966392Y-142906814D01*
X99900500Y-142792686D01*
X99807314Y-142699500D01*
X99693186Y-142633608D01*
X99693185Y-142633607D01*
X99686147Y-142629544D01*
X99687017Y-142628035D01*
X99640317Y-142590398D01*
X99618255Y-142524103D01*
X99635537Y-142456405D01*
X99686676Y-142408797D01*
X99710073Y-142399912D01*
X99835173Y-142366392D01*
X99949301Y-142300500D01*
X100012982Y-142236819D01*
X100074305Y-142203334D01*
X100100663Y-142200500D01*
X101350495Y-142200500D01*
X101417534Y-142220185D01*
X101463289Y-142272989D01*
X101473233Y-142342147D01*
X101470270Y-142356591D01*
X101449500Y-142434108D01*
X101449500Y-142565891D01*
X101483608Y-142693187D01*
X101516554Y-142750250D01*
X101549500Y-142807314D01*
X101642686Y-142900500D01*
X101741521Y-142957563D01*
X101756583Y-142966259D01*
X101756814Y-142966392D01*
X101884108Y-143000500D01*
X101884110Y-143000500D01*
X102015889Y-143000500D01*
X102015892Y-143000500D01*
X102094410Y-142979461D01*
X102164256Y-142981124D01*
X102222118Y-143020286D01*
X102249623Y-143084514D01*
X102250500Y-143099236D01*
X102250500Y-145590562D01*
X102253163Y-145600499D01*
X102270979Y-145666990D01*
X102277078Y-145677553D01*
X102290391Y-145700612D01*
X102293148Y-145705386D01*
X102293149Y-145705390D01*
X102293150Y-145705390D01*
X102310539Y-145735509D01*
X102310541Y-145735512D01*
X103963181Y-147388152D01*
X103996666Y-147449475D01*
X103999500Y-147475833D01*
X103999500Y-147565892D01*
X104013695Y-147618868D01*
X104033608Y-147693187D01*
X104066554Y-147750250D01*
X104099500Y-147807314D01*
X104192686Y-147900500D01*
X104306814Y-147966392D01*
X104434108Y-148000500D01*
X104434110Y-148000500D01*
X104565890Y-148000500D01*
X104565892Y-148000500D01*
X104693186Y-147966392D01*
X104807314Y-147900500D01*
X104900500Y-147807314D01*
X104966392Y-147693186D01*
X105000500Y-147565892D01*
X105000500Y-147434108D01*
X104966392Y-147306814D01*
X104900500Y-147192686D01*
X104807314Y-147099500D01*
X104750250Y-147066554D01*
X104693187Y-147033608D01*
X104629539Y-147016554D01*
X104565892Y-146999500D01*
X104475833Y-146999500D01*
X104408794Y-146979815D01*
X104388152Y-146963181D01*
X102887819Y-145462848D01*
X102854334Y-145401525D01*
X102851500Y-145375167D01*
X102851500Y-142211496D01*
X102851499Y-142211492D01*
X102846460Y-142192685D01*
X102846460Y-142192686D01*
X102831022Y-142135069D01*
X102791460Y-142066546D01*
X102384454Y-141659540D01*
X102384453Y-141659539D01*
X102384450Y-141659537D01*
X102375008Y-141654086D01*
X102375007Y-141654086D01*
X102315934Y-141619980D01*
X102315933Y-141619979D01*
X102290456Y-141613152D01*
X102239505Y-141599500D01*
X102239503Y-141599500D01*
X100100663Y-141599500D01*
X100033624Y-141579815D01*
X100012982Y-141563181D01*
X99949303Y-141499502D01*
X99949301Y-141499500D01*
X99862699Y-141449500D01*
X99835174Y-141433608D01*
X99771526Y-141416554D01*
X99707879Y-141399500D01*
X99624305Y-141399500D01*
X99557266Y-141379815D01*
X99511511Y-141327011D01*
X99503570Y-141274019D01*
X99500500Y-141274019D01*
X99500500Y-141134110D01*
X99500500Y-141134108D01*
X99466392Y-141006814D01*
X99466390Y-141006810D01*
X99412985Y-140914310D01*
X99412984Y-140914308D01*
X99400503Y-140892692D01*
X99400500Y-140892686D01*
X99368252Y-140860438D01*
X106199500Y-140860438D01*
X106199500Y-142539562D01*
X106213122Y-142590398D01*
X106219979Y-142615990D01*
X106219982Y-142615995D01*
X106259535Y-142684504D01*
X106259539Y-142684509D01*
X106259540Y-142684511D01*
X106944807Y-143369778D01*
X107000756Y-143425727D01*
X107000758Y-143425728D01*
X107000762Y-143425731D01*
X107069271Y-143465284D01*
X107069278Y-143465288D01*
X107145705Y-143485767D01*
X107773329Y-143485767D01*
X107840368Y-143505452D01*
X107886123Y-143558256D01*
X107896067Y-143627414D01*
X107867042Y-143690970D01*
X107835331Y-143717153D01*
X107827450Y-143721703D01*
X107827444Y-143721707D01*
X107734263Y-143814888D01*
X107734261Y-143814891D01*
X107668369Y-143929017D01*
X107642282Y-144026377D01*
X107634261Y-144056313D01*
X107634261Y-144188097D01*
X107643610Y-144222989D01*
X107668369Y-144315392D01*
X107688639Y-144350500D01*
X107734261Y-144429519D01*
X107827447Y-144522705D01*
X107941575Y-144588597D01*
X107974293Y-144597363D01*
X108033953Y-144633728D01*
X108064482Y-144696575D01*
X108056187Y-144765950D01*
X108049586Y-144779138D01*
X108033609Y-144806810D01*
X108033609Y-144806811D01*
X108033609Y-144806812D01*
X108033608Y-144806814D01*
X107999500Y-144934108D01*
X107999500Y-145065892D01*
X108006094Y-145090500D01*
X108033608Y-145193187D01*
X108066554Y-145250250D01*
X108099500Y-145307314D01*
X108192686Y-145400500D01*
X108280797Y-145451371D01*
X108306810Y-145466390D01*
X108306814Y-145466392D01*
X108434108Y-145500500D01*
X108434110Y-145500500D01*
X108565890Y-145500500D01*
X108565892Y-145500500D01*
X108693186Y-145466392D01*
X108797814Y-145405984D01*
X108865713Y-145389511D01*
X108931740Y-145412363D01*
X108967201Y-145451371D01*
X108999500Y-145507314D01*
X109092686Y-145600500D01*
X109206814Y-145666392D01*
X109334108Y-145700500D01*
X109334110Y-145700500D01*
X109465889Y-145700500D01*
X109465892Y-145700500D01*
X109465894Y-145700499D01*
X109469905Y-145699971D01*
X109473299Y-145700500D01*
X109474019Y-145700500D01*
X109474019Y-145700612D01*
X109538941Y-145710732D01*
X109591200Y-145757109D01*
X109610098Y-145822909D01*
X109610098Y-146513568D01*
X109590413Y-146580607D01*
X109573779Y-146601249D01*
X108917840Y-147257187D01*
X108856517Y-147290672D01*
X108786825Y-147285688D01*
X108768159Y-147276893D01*
X108693189Y-147233609D01*
X108693186Y-147233608D01*
X108565892Y-147199500D01*
X108434108Y-147199500D01*
X108306812Y-147233608D01*
X108192686Y-147299500D01*
X108192683Y-147299502D01*
X108099502Y-147392683D01*
X108099500Y-147392686D01*
X108033608Y-147506812D01*
X108000467Y-147630499D01*
X107999500Y-147634108D01*
X107999500Y-147765892D01*
X108012897Y-147815890D01*
X108033608Y-147893187D01*
X108062476Y-147943186D01*
X108099500Y-148007314D01*
X108192686Y-148100500D01*
X108306814Y-148166392D01*
X108434108Y-148200500D01*
X108434110Y-148200500D01*
X108565890Y-148200500D01*
X108565892Y-148200500D01*
X108693186Y-148166392D01*
X108807314Y-148100500D01*
X108807317Y-148100496D01*
X108813890Y-148096702D01*
X108881790Y-148080229D01*
X108947817Y-148103081D01*
X108991008Y-148158002D01*
X108995666Y-148171995D01*
X108997285Y-148178040D01*
X109019428Y-148216392D01*
X109063177Y-148292167D01*
X109156363Y-148385353D01*
X109270491Y-148451245D01*
X109397785Y-148485353D01*
X109397787Y-148485353D01*
X109529567Y-148485353D01*
X109529569Y-148485353D01*
X109656863Y-148451245D01*
X109770991Y-148385353D01*
X109864177Y-148292167D01*
X109930069Y-148178039D01*
X109964177Y-148050745D01*
X109964177Y-147918961D01*
X109930069Y-147791667D01*
X109864177Y-147677539D01*
X109770991Y-147584353D01*
X109701491Y-147544227D01*
X109653275Y-147493660D01*
X109640053Y-147425053D01*
X109666021Y-147360188D01*
X109675800Y-147349169D01*
X110151058Y-146873913D01*
X110164575Y-146850500D01*
X110190619Y-146805391D01*
X110211098Y-146728964D01*
X110211098Y-145765234D01*
X110219742Y-145735793D01*
X110225300Y-145710247D01*
X111449500Y-145710247D01*
X111449500Y-147449752D01*
X111461131Y-147508229D01*
X111461132Y-147508230D01*
X111505447Y-147574552D01*
X111571769Y-147618867D01*
X111571770Y-147618868D01*
X111630247Y-147630499D01*
X111630250Y-147630500D01*
X111630252Y-147630500D01*
X113369750Y-147630500D01*
X113369751Y-147630499D01*
X113384568Y-147627552D01*
X113428229Y-147618868D01*
X113428229Y-147618867D01*
X113428231Y-147618867D01*
X113494552Y-147574552D01*
X113538867Y-147508231D01*
X113538867Y-147508229D01*
X113538868Y-147508229D01*
X113550499Y-147449752D01*
X113550500Y-147449750D01*
X113550500Y-145710249D01*
X113550499Y-145710247D01*
X113538868Y-145651770D01*
X113538867Y-145651769D01*
X113494552Y-145585447D01*
X113428230Y-145541132D01*
X113428229Y-145541131D01*
X113369752Y-145529500D01*
X113369748Y-145529500D01*
X111630252Y-145529500D01*
X111630247Y-145529500D01*
X111571770Y-145541131D01*
X111571769Y-145541132D01*
X111505447Y-145585447D01*
X111461132Y-145651769D01*
X111461131Y-145651770D01*
X111449500Y-145710247D01*
X110225300Y-145710247D01*
X110226266Y-145705807D01*
X110230020Y-145700791D01*
X110230783Y-145698195D01*
X110247412Y-145677558D01*
X111389447Y-144535522D01*
X111450768Y-144502039D01*
X111520460Y-144507023D01*
X111576393Y-144548895D01*
X111580228Y-144554315D01*
X111684019Y-144709650D01*
X111684025Y-144709658D01*
X111830342Y-144855975D01*
X111830345Y-144855977D01*
X112002402Y-144970941D01*
X112193580Y-145050130D01*
X112396530Y-145090499D01*
X112396534Y-145090500D01*
X112396535Y-145090500D01*
X112603466Y-145090500D01*
X112603467Y-145090499D01*
X112806420Y-145050130D01*
X112997598Y-144970941D01*
X113169655Y-144855977D01*
X113315977Y-144709655D01*
X113430941Y-144537598D01*
X113510130Y-144346420D01*
X113550500Y-144143465D01*
X113550500Y-143936535D01*
X113510130Y-143733580D01*
X113430941Y-143542402D01*
X113315977Y-143370345D01*
X113315975Y-143370342D01*
X113169657Y-143224024D01*
X113082655Y-143165892D01*
X113062198Y-143152223D01*
X113017393Y-143098612D01*
X113008686Y-143029287D01*
X113038840Y-142966259D01*
X113086384Y-142936888D01*
X113085242Y-142934130D01*
X113092738Y-142931023D01*
X113092749Y-142931021D01*
X113161271Y-142891460D01*
X113217220Y-142835511D01*
X114140460Y-141912271D01*
X114180022Y-141843748D01*
X114200500Y-141767322D01*
X114200500Y-141688198D01*
X114200500Y-140320438D01*
X114180021Y-140244011D01*
X114150678Y-140193187D01*
X114140464Y-140175495D01*
X114140458Y-140175487D01*
X113487075Y-139522104D01*
X113453590Y-139460781D01*
X113458574Y-139391089D01*
X113460163Y-139387049D01*
X113510130Y-139266420D01*
X113550500Y-139063465D01*
X113550500Y-138856535D01*
X113510130Y-138653580D01*
X113430941Y-138462402D01*
X113315977Y-138290345D01*
X113315975Y-138290342D01*
X113169657Y-138144024D01*
X113004406Y-138033608D01*
X112997598Y-138029059D01*
X112943889Y-138006812D01*
X112806420Y-137949870D01*
X112806412Y-137949868D01*
X112603469Y-137909500D01*
X112603465Y-137909500D01*
X112396535Y-137909500D01*
X112396530Y-137909500D01*
X112193587Y-137949868D01*
X112193579Y-137949870D01*
X112002403Y-138029058D01*
X111830342Y-138144024D01*
X111684024Y-138290342D01*
X111569058Y-138462403D01*
X111489870Y-138653579D01*
X111489868Y-138653587D01*
X111449500Y-138856530D01*
X111449500Y-139063469D01*
X111489868Y-139266412D01*
X111489870Y-139266420D01*
X111541697Y-139391542D01*
X111569059Y-139457598D01*
X111587041Y-139484510D01*
X111684024Y-139629657D01*
X111830342Y-139775975D01*
X111830345Y-139775977D01*
X112002402Y-139890941D01*
X112193580Y-139970130D01*
X112396530Y-140010499D01*
X112396534Y-140010500D01*
X112396535Y-140010500D01*
X112603466Y-140010500D01*
X112603467Y-140010499D01*
X112806420Y-139970130D01*
X112926974Y-139920194D01*
X112996438Y-139912726D01*
X113058918Y-139944000D01*
X113062104Y-139947075D01*
X113563181Y-140448152D01*
X113596666Y-140509475D01*
X113599500Y-140535833D01*
X113599500Y-140845894D01*
X113579815Y-140912933D01*
X113527011Y-140958688D01*
X113457853Y-140968632D01*
X113394297Y-140939607D01*
X113372398Y-140914784D01*
X113315980Y-140830349D01*
X113315974Y-140830341D01*
X113169657Y-140684024D01*
X113074412Y-140620384D01*
X112997598Y-140569059D01*
X112989952Y-140565892D01*
X112806420Y-140489870D01*
X112806412Y-140489868D01*
X112603469Y-140449500D01*
X112603465Y-140449500D01*
X112396535Y-140449500D01*
X112396530Y-140449500D01*
X112193587Y-140489868D01*
X112193579Y-140489870D01*
X112002403Y-140569058D01*
X111830342Y-140684024D01*
X111684024Y-140830342D01*
X111569058Y-141002403D01*
X111519125Y-141122953D01*
X111475284Y-141177356D01*
X111408990Y-141199421D01*
X111404564Y-141199500D01*
X109086375Y-141199500D01*
X109019336Y-141179815D01*
X108973581Y-141127011D01*
X108966602Y-141107599D01*
X108966393Y-141106822D01*
X108966392Y-141106817D01*
X108900500Y-140992689D01*
X108807314Y-140899503D01*
X108750250Y-140866557D01*
X108693187Y-140833611D01*
X108629539Y-140816557D01*
X108565892Y-140799503D01*
X108499504Y-140799503D01*
X108432465Y-140779818D01*
X108386710Y-140727014D01*
X108376766Y-140657856D01*
X108379729Y-140643410D01*
X108400500Y-140565892D01*
X108400500Y-140434108D01*
X108366392Y-140306814D01*
X108300500Y-140192686D01*
X108207314Y-140099500D01*
X108093186Y-140033608D01*
X108062598Y-140025412D01*
X108002940Y-139989048D01*
X107972411Y-139926201D01*
X107980706Y-139856825D01*
X108007013Y-139817957D01*
X108060225Y-139764745D01*
X108340460Y-139484511D01*
X108380022Y-139415988D01*
X108400500Y-139339562D01*
X108400500Y-139260438D01*
X108400500Y-138658676D01*
X108420185Y-138591637D01*
X108436819Y-138570995D01*
X108459951Y-138547863D01*
X108500500Y-138507314D01*
X108566392Y-138393186D01*
X108600500Y-138265892D01*
X108600500Y-138134108D01*
X108566392Y-138006814D01*
X108500500Y-137892686D01*
X108407314Y-137799500D01*
X108324297Y-137751570D01*
X108293187Y-137733608D01*
X108228931Y-137716391D01*
X108165892Y-137699500D01*
X108034108Y-137699500D01*
X107906812Y-137733608D01*
X107792686Y-137799500D01*
X107792683Y-137799502D01*
X107699502Y-137892683D01*
X107699500Y-137892686D01*
X107633608Y-138006812D01*
X107608505Y-138100499D01*
X107599500Y-138134108D01*
X107599500Y-138265892D01*
X107616554Y-138329539D01*
X107633608Y-138393187D01*
X107666554Y-138450250D01*
X107699500Y-138507314D01*
X107699502Y-138507316D01*
X107763181Y-138570995D01*
X107796666Y-138632318D01*
X107799500Y-138658676D01*
X107799500Y-139124167D01*
X107779815Y-139191206D01*
X107763181Y-139211848D01*
X106259541Y-140715487D01*
X106259535Y-140715495D01*
X106219982Y-140784004D01*
X106219979Y-140784009D01*
X106213735Y-140807313D01*
X106199500Y-140860438D01*
X99368252Y-140860438D01*
X99307314Y-140799500D01*
X99238105Y-140759542D01*
X99193187Y-140733608D01*
X99125557Y-140715487D01*
X99065892Y-140699500D01*
X98934108Y-140699500D01*
X98806812Y-140733608D01*
X98692686Y-140799500D01*
X98692683Y-140799502D01*
X98599502Y-140892683D01*
X98599500Y-140892686D01*
X98533608Y-141006812D01*
X98499500Y-141134108D01*
X94790863Y-141134108D01*
X94886671Y-141038300D01*
X95209484Y-140715487D01*
X95540460Y-140384511D01*
X95542113Y-140381647D01*
X95577450Y-140320443D01*
X95577454Y-140320434D01*
X95580021Y-140315989D01*
X95600500Y-140239562D01*
X95600500Y-139958676D01*
X95607713Y-139934108D01*
X100999500Y-139934108D01*
X100999500Y-140065891D01*
X101033608Y-140193187D01*
X101060382Y-140239560D01*
X101099500Y-140307314D01*
X101192686Y-140400500D01*
X101306814Y-140466392D01*
X101434108Y-140500500D01*
X101434110Y-140500500D01*
X101565890Y-140500500D01*
X101565892Y-140500500D01*
X101693186Y-140466392D01*
X101807314Y-140400500D01*
X101900500Y-140307314D01*
X101966392Y-140193186D01*
X102000500Y-140065892D01*
X102000500Y-139934108D01*
X101966392Y-139806814D01*
X101900500Y-139692686D01*
X101807314Y-139599500D01*
X101749100Y-139565890D01*
X101693187Y-139533608D01*
X101629539Y-139516554D01*
X101565892Y-139499500D01*
X101434108Y-139499500D01*
X101306812Y-139533608D01*
X101192686Y-139599500D01*
X101192683Y-139599502D01*
X101099502Y-139692683D01*
X101099500Y-139692686D01*
X101033608Y-139806812D01*
X100999500Y-139934108D01*
X95607713Y-139934108D01*
X95609144Y-139929235D01*
X95615668Y-139899249D01*
X95619422Y-139894233D01*
X95620185Y-139891637D01*
X95636819Y-139870995D01*
X95669514Y-139838300D01*
X95675501Y-139832313D01*
X95700500Y-139807314D01*
X95766392Y-139693186D01*
X95800500Y-139565892D01*
X95800500Y-139434108D01*
X95766392Y-139306814D01*
X95700500Y-139192686D01*
X95607314Y-139099500D01*
X95544907Y-139063469D01*
X95493187Y-139033608D01*
X95394905Y-139007274D01*
X95365892Y-138999500D01*
X95234108Y-138999500D01*
X95106812Y-139033608D01*
X94992686Y-139099500D01*
X94992683Y-139099502D01*
X94899502Y-139192683D01*
X94899500Y-139192686D01*
X94833608Y-139306812D01*
X94809068Y-139398398D01*
X94799500Y-139434108D01*
X94799500Y-139565892D01*
X94806199Y-139590892D01*
X94833608Y-139693187D01*
X94848042Y-139718187D01*
X94899500Y-139807314D01*
X94899502Y-139807316D01*
X94963181Y-139870995D01*
X94977884Y-139897922D01*
X94994477Y-139923741D01*
X94995368Y-139929941D01*
X94996666Y-139932318D01*
X94999500Y-139958676D01*
X94999500Y-140024167D01*
X94979815Y-140091206D01*
X94963181Y-140111848D01*
X94411848Y-140663181D01*
X94350525Y-140696666D01*
X94324167Y-140699500D01*
X83960438Y-140699500D01*
X83884010Y-140719978D01*
X83815489Y-140759540D01*
X83815486Y-140759542D01*
X81061848Y-143513181D01*
X81000525Y-143546666D01*
X80974167Y-143549500D01*
X79458676Y-143549500D01*
X79391637Y-143529815D01*
X79370995Y-143513181D01*
X79307316Y-143449502D01*
X79307314Y-143449500D01*
X79236808Y-143408793D01*
X79193187Y-143383608D01*
X79129539Y-143366554D01*
X79065892Y-143349500D01*
X78934108Y-143349500D01*
X78806812Y-143383608D01*
X78692686Y-143449500D01*
X78692683Y-143449502D01*
X78599502Y-143542683D01*
X78599500Y-143542686D01*
X78533608Y-143656812D01*
X78505965Y-143759979D01*
X78499500Y-143784108D01*
X68783312Y-143784108D01*
X68716782Y-143733058D01*
X68716780Y-143733057D01*
X68716774Y-143733052D01*
X68523726Y-143621595D01*
X68523722Y-143621593D01*
X68317790Y-143536293D01*
X68317783Y-143536291D01*
X68317781Y-143536290D01*
X68102463Y-143478596D01*
X68102457Y-143478595D01*
X68102452Y-143478594D01*
X67881466Y-143449501D01*
X67881463Y-143449500D01*
X67881457Y-143449500D01*
X67658543Y-143449500D01*
X67658537Y-143449500D01*
X67658533Y-143449501D01*
X67437547Y-143478594D01*
X67437540Y-143478595D01*
X67437537Y-143478596D01*
X67246384Y-143529815D01*
X67222219Y-143536290D01*
X67222209Y-143536293D01*
X67016277Y-143621593D01*
X67016273Y-143621595D01*
X66823226Y-143733052D01*
X66823217Y-143733058D01*
X66699486Y-143828000D01*
X66634317Y-143853194D01*
X66565872Y-143839155D01*
X66515882Y-143790341D01*
X66500000Y-143729624D01*
X66500000Y-137368872D01*
X67249500Y-137368872D01*
X67249500Y-137631127D01*
X67265358Y-137751570D01*
X67283730Y-137891116D01*
X67330561Y-138065891D01*
X67351602Y-138144418D01*
X67351605Y-138144428D01*
X67451953Y-138386690D01*
X67451958Y-138386700D01*
X67583075Y-138613803D01*
X67742718Y-138821851D01*
X67742726Y-138821860D01*
X67928140Y-139007274D01*
X67928148Y-139007281D01*
X67928149Y-139007282D01*
X67976554Y-139044424D01*
X68136196Y-139166924D01*
X68363299Y-139298041D01*
X68363309Y-139298046D01*
X68589024Y-139391540D01*
X68605581Y-139398398D01*
X68858884Y-139466270D01*
X69118880Y-139500500D01*
X69118887Y-139500500D01*
X69381113Y-139500500D01*
X69381120Y-139500500D01*
X69641116Y-139466270D01*
X69894419Y-139398398D01*
X70136697Y-139298043D01*
X70363803Y-139166924D01*
X70571851Y-139007282D01*
X70571855Y-139007277D01*
X70571860Y-139007274D01*
X70757274Y-138821860D01*
X70757277Y-138821855D01*
X70757282Y-138821851D01*
X70869844Y-138675159D01*
X85996517Y-138675159D01*
X85996517Y-138806943D01*
X85996617Y-138807316D01*
X86030625Y-138934238D01*
X86062566Y-138989560D01*
X86096517Y-139048365D01*
X86189703Y-139141551D01*
X86303831Y-139207443D01*
X86303832Y-139207443D01*
X86306392Y-139208921D01*
X86354607Y-139259488D01*
X86367831Y-139328095D01*
X86364167Y-139348400D01*
X86352608Y-139391540D01*
X86352608Y-139523324D01*
X86364014Y-139565891D01*
X86386716Y-139650619D01*
X86411002Y-139692683D01*
X86452608Y-139764746D01*
X86545794Y-139857932D01*
X86659922Y-139923824D01*
X86787216Y-139957932D01*
X86787218Y-139957932D01*
X86918998Y-139957932D01*
X86919000Y-139957932D01*
X87046294Y-139923824D01*
X87160422Y-139857932D01*
X87253608Y-139764746D01*
X87319500Y-139650618D01*
X87353608Y-139523324D01*
X87353608Y-139459108D01*
X90749500Y-139459108D01*
X90749500Y-139590892D01*
X90759887Y-139629657D01*
X90783608Y-139718187D01*
X90810489Y-139764745D01*
X90849500Y-139832314D01*
X90942686Y-139925500D01*
X91056814Y-139991392D01*
X91184108Y-140025500D01*
X91184110Y-140025500D01*
X91315890Y-140025500D01*
X91315892Y-140025500D01*
X91443186Y-139991392D01*
X91557314Y-139925500D01*
X91650500Y-139832314D01*
X91716392Y-139718186D01*
X91750500Y-139590892D01*
X91750500Y-139459108D01*
X91716392Y-139331814D01*
X91650500Y-139217686D01*
X91557314Y-139124500D01*
X91500250Y-139091554D01*
X91443187Y-139058608D01*
X91379539Y-139041554D01*
X91315892Y-139024500D01*
X91184108Y-139024500D01*
X91056812Y-139058608D01*
X90942686Y-139124500D01*
X90942683Y-139124502D01*
X90849502Y-139217683D01*
X90849500Y-139217686D01*
X90783608Y-139331812D01*
X90756199Y-139434108D01*
X90749500Y-139459108D01*
X87353608Y-139459108D01*
X87353608Y-139391540D01*
X87319500Y-139264246D01*
X87317301Y-139260438D01*
X87310671Y-139248953D01*
X87253608Y-139150118D01*
X87160422Y-139056932D01*
X87104248Y-139024500D01*
X87043732Y-138989560D01*
X86995517Y-138938992D01*
X86982295Y-138870385D01*
X86985956Y-138850088D01*
X86997517Y-138806943D01*
X86997517Y-138675159D01*
X86963409Y-138547865D01*
X86897731Y-138434108D01*
X88769500Y-138434108D01*
X88769500Y-138565892D01*
X88779988Y-138605033D01*
X88803608Y-138693187D01*
X88836554Y-138750250D01*
X88869500Y-138807314D01*
X88962686Y-138900500D01*
X89076814Y-138966392D01*
X89204108Y-139000500D01*
X89204110Y-139000500D01*
X89335890Y-139000500D01*
X89335892Y-139000500D01*
X89463186Y-138966392D01*
X89577314Y-138900500D01*
X89670500Y-138807314D01*
X89736392Y-138693186D01*
X89770500Y-138565892D01*
X89770500Y-138434108D01*
X89736392Y-138306814D01*
X89670500Y-138192686D01*
X89577314Y-138099500D01*
X89519100Y-138065890D01*
X89463187Y-138033608D01*
X89363188Y-138006814D01*
X89335892Y-137999500D01*
X89204108Y-137999500D01*
X89076812Y-138033608D01*
X88962686Y-138099500D01*
X88962683Y-138099502D01*
X88869502Y-138192683D01*
X88869500Y-138192686D01*
X88803608Y-138306812D01*
X88778506Y-138400497D01*
X88769500Y-138434108D01*
X86897731Y-138434108D01*
X86897517Y-138433737D01*
X86804331Y-138340551D01*
X86745897Y-138306814D01*
X86690204Y-138274659D01*
X86626556Y-138257605D01*
X86562909Y-138240551D01*
X86431125Y-138240551D01*
X86303829Y-138274659D01*
X86189703Y-138340551D01*
X86189700Y-138340553D01*
X86096519Y-138433734D01*
X86096517Y-138433737D01*
X86030625Y-138547863D01*
X85996517Y-138675159D01*
X70869844Y-138675159D01*
X70916924Y-138613803D01*
X70924605Y-138600500D01*
X70989566Y-138487982D01*
X71048043Y-138386697D01*
X71148398Y-138144419D01*
X71204750Y-137934108D01*
X78499500Y-137934108D01*
X78499500Y-138065891D01*
X78533608Y-138193187D01*
X78547005Y-138216391D01*
X78599500Y-138307314D01*
X78692686Y-138400500D01*
X78806814Y-138466392D01*
X78934108Y-138500500D01*
X78934110Y-138500500D01*
X79065890Y-138500500D01*
X79065892Y-138500500D01*
X79193186Y-138466392D01*
X79307314Y-138400500D01*
X79400500Y-138307314D01*
X79466392Y-138193186D01*
X79500500Y-138065892D01*
X79500500Y-137934108D01*
X79466392Y-137806814D01*
X79400500Y-137692686D01*
X79307314Y-137599500D01*
X79236099Y-137558384D01*
X79193187Y-137533608D01*
X79129539Y-137516554D01*
X79065892Y-137499500D01*
X78934108Y-137499500D01*
X78806812Y-137533608D01*
X78692686Y-137599500D01*
X78692683Y-137599502D01*
X78599502Y-137692683D01*
X78599500Y-137692686D01*
X78533608Y-137806812D01*
X78499500Y-137934108D01*
X71204750Y-137934108D01*
X71216270Y-137891116D01*
X71250500Y-137631120D01*
X71250500Y-137368880D01*
X71226315Y-137185178D01*
X80498728Y-137185178D01*
X80498728Y-137316962D01*
X80507447Y-137349502D01*
X80532836Y-137444257D01*
X80547987Y-137470499D01*
X80598728Y-137558384D01*
X80691914Y-137651570D01*
X80763124Y-137692683D01*
X80804188Y-137716392D01*
X80806042Y-137717462D01*
X80933336Y-137751570D01*
X80933338Y-137751570D01*
X81065118Y-137751570D01*
X81065120Y-137751570D01*
X81192414Y-137717462D01*
X81306542Y-137651570D01*
X81399728Y-137558384D01*
X81465620Y-137444256D01*
X81499728Y-137316962D01*
X81499728Y-137185178D01*
X81499441Y-137184108D01*
X85999500Y-137184108D01*
X85999500Y-137315892D01*
X85999787Y-137316962D01*
X86033608Y-137443187D01*
X86066121Y-137499500D01*
X86099500Y-137557314D01*
X86192686Y-137650500D01*
X86306814Y-137716392D01*
X86434108Y-137750500D01*
X86434110Y-137750500D01*
X86565890Y-137750500D01*
X86565892Y-137750500D01*
X86693186Y-137716392D01*
X86749103Y-137684108D01*
X92499500Y-137684108D01*
X92499500Y-137815891D01*
X92533608Y-137943187D01*
X92537467Y-137949870D01*
X92599500Y-138057314D01*
X92692686Y-138150500D01*
X92806814Y-138216392D01*
X92934108Y-138250500D01*
X92934110Y-138250500D01*
X93065890Y-138250500D01*
X93065892Y-138250500D01*
X93193186Y-138216392D01*
X93307314Y-138150500D01*
X93400500Y-138057314D01*
X93466392Y-137943186D01*
X93500500Y-137815892D01*
X93500500Y-137684108D01*
X93466392Y-137556814D01*
X93453283Y-137534108D01*
X100999500Y-137534108D01*
X100999500Y-137665892D01*
X101008505Y-137699500D01*
X101033608Y-137793187D01*
X101046717Y-137815892D01*
X101099500Y-137907314D01*
X101192686Y-138000500D01*
X101242152Y-138029059D01*
X101305944Y-138065890D01*
X101306814Y-138066392D01*
X101434108Y-138100500D01*
X101434110Y-138100500D01*
X101565890Y-138100500D01*
X101565892Y-138100500D01*
X101693186Y-138066392D01*
X101807314Y-138000500D01*
X101900500Y-137907314D01*
X101966392Y-137793186D01*
X102000500Y-137665892D01*
X102000500Y-137534108D01*
X101966392Y-137406814D01*
X101900500Y-137292686D01*
X101807314Y-137199500D01*
X101750250Y-137166554D01*
X101693187Y-137133608D01*
X101629539Y-137116554D01*
X101565892Y-137099500D01*
X101434108Y-137099500D01*
X101306812Y-137133608D01*
X101192686Y-137199500D01*
X101192683Y-137199502D01*
X101099502Y-137292683D01*
X101099500Y-137292686D01*
X101033608Y-137406812D01*
X101008773Y-137499500D01*
X100999500Y-137534108D01*
X93453283Y-137534108D01*
X93400500Y-137442686D01*
X93307314Y-137349500D01*
X93208910Y-137292686D01*
X93193187Y-137283608D01*
X93129539Y-137266554D01*
X93065892Y-137249500D01*
X92934108Y-137249500D01*
X92806812Y-137283608D01*
X92692686Y-137349500D01*
X92692683Y-137349502D01*
X92599502Y-137442683D01*
X92599500Y-137442686D01*
X92533608Y-137556812D01*
X92499500Y-137684108D01*
X86749103Y-137684108D01*
X86807314Y-137650500D01*
X86900500Y-137557314D01*
X86966392Y-137443186D01*
X87000500Y-137315892D01*
X87000500Y-137184108D01*
X86966392Y-137056814D01*
X86900500Y-136942686D01*
X86807314Y-136849500D01*
X86750250Y-136816554D01*
X86693187Y-136783608D01*
X86629539Y-136766554D01*
X86565892Y-136749500D01*
X86434108Y-136749500D01*
X86306812Y-136783608D01*
X86192686Y-136849500D01*
X86192683Y-136849502D01*
X86099502Y-136942683D01*
X86099500Y-136942686D01*
X86033608Y-137056812D01*
X86013031Y-137133608D01*
X85999500Y-137184108D01*
X81499441Y-137184108D01*
X81465620Y-137057884D01*
X81399728Y-136943756D01*
X81306542Y-136850570D01*
X81231619Y-136807313D01*
X81192415Y-136784678D01*
X81128767Y-136767624D01*
X81065120Y-136750570D01*
X80933336Y-136750570D01*
X80806040Y-136784678D01*
X80691914Y-136850570D01*
X80691911Y-136850572D01*
X80598730Y-136943753D01*
X80598728Y-136943756D01*
X80532836Y-137057882D01*
X80519170Y-137108885D01*
X80498728Y-137185178D01*
X71226315Y-137185178D01*
X71216270Y-137108884D01*
X71148398Y-136855581D01*
X71146323Y-136850572D01*
X71048046Y-136613309D01*
X71048041Y-136613299D01*
X70975689Y-136487981D01*
X70944586Y-136434108D01*
X91999500Y-136434108D01*
X91999500Y-136565892D01*
X92016554Y-136629539D01*
X92033608Y-136693187D01*
X92066121Y-136749500D01*
X92099500Y-136807314D01*
X92192686Y-136900500D01*
X92306814Y-136966392D01*
X92434108Y-137000500D01*
X92434110Y-137000500D01*
X92565890Y-137000500D01*
X92565892Y-137000500D01*
X92693186Y-136966392D01*
X92807314Y-136900500D01*
X92900500Y-136807314D01*
X92966392Y-136693186D01*
X93000500Y-136565892D01*
X93000500Y-136434108D01*
X92968995Y-136316530D01*
X111449500Y-136316530D01*
X111449500Y-136523469D01*
X111489868Y-136726412D01*
X111489870Y-136726420D01*
X111569058Y-136917596D01*
X111684024Y-137089657D01*
X111830342Y-137235975D01*
X111830345Y-137235977D01*
X112002402Y-137350941D01*
X112193580Y-137430130D01*
X112396530Y-137470499D01*
X112396534Y-137470500D01*
X112396535Y-137470500D01*
X112603466Y-137470500D01*
X112603467Y-137470499D01*
X112806420Y-137430130D01*
X112997598Y-137350941D01*
X113169655Y-137235977D01*
X113315977Y-137089655D01*
X113430941Y-136917598D01*
X113510130Y-136726420D01*
X113550500Y-136523465D01*
X113550500Y-136316535D01*
X113510130Y-136113580D01*
X113430941Y-135922402D01*
X113315977Y-135750345D01*
X113315975Y-135750342D01*
X113169657Y-135604024D01*
X113064453Y-135533730D01*
X112997598Y-135489059D01*
X112942875Y-135466392D01*
X112806420Y-135409870D01*
X112806412Y-135409868D01*
X112603469Y-135369500D01*
X112603465Y-135369500D01*
X112396535Y-135369500D01*
X112396530Y-135369500D01*
X112193587Y-135409868D01*
X112193579Y-135409870D01*
X112002403Y-135489058D01*
X111830342Y-135604024D01*
X111684024Y-135750342D01*
X111569058Y-135922403D01*
X111489870Y-136113579D01*
X111489868Y-136113587D01*
X111449500Y-136316530D01*
X92968995Y-136316530D01*
X92966392Y-136306814D01*
X92900500Y-136192686D01*
X92807314Y-136099500D01*
X92750250Y-136066554D01*
X92693187Y-136033608D01*
X92629539Y-136016554D01*
X92565892Y-135999500D01*
X92434108Y-135999500D01*
X92306812Y-136033608D01*
X92192686Y-136099500D01*
X92192683Y-136099502D01*
X92099502Y-136192683D01*
X92099500Y-136192686D01*
X92033608Y-136306812D01*
X91999500Y-136434108D01*
X70944586Y-136434108D01*
X70916924Y-136386196D01*
X70757281Y-136178148D01*
X70757274Y-136178140D01*
X70571860Y-135992726D01*
X70571851Y-135992718D01*
X70363803Y-135833075D01*
X70136700Y-135701958D01*
X70136690Y-135701953D01*
X69894428Y-135601605D01*
X69894421Y-135601603D01*
X69894419Y-135601602D01*
X69641116Y-135533730D01*
X69583339Y-135526123D01*
X69381127Y-135499500D01*
X69381120Y-135499500D01*
X69118880Y-135499500D01*
X69118872Y-135499500D01*
X68887772Y-135529926D01*
X68858884Y-135533730D01*
X68609705Y-135600497D01*
X68605581Y-135601602D01*
X68605571Y-135601605D01*
X68363309Y-135701953D01*
X68363299Y-135701958D01*
X68136196Y-135833075D01*
X67928148Y-135992718D01*
X67742718Y-136178148D01*
X67583075Y-136386196D01*
X67451958Y-136613299D01*
X67451953Y-136613309D01*
X67351605Y-136855571D01*
X67351602Y-136855581D01*
X67286245Y-137099500D01*
X67283730Y-137108885D01*
X67249500Y-137368872D01*
X66500000Y-137368872D01*
X66500000Y-134934108D01*
X96999500Y-134934108D01*
X96999500Y-135065891D01*
X97033608Y-135193187D01*
X97066554Y-135250250D01*
X97099500Y-135307314D01*
X97192686Y-135400500D01*
X97306814Y-135466392D01*
X97434108Y-135500500D01*
X97434110Y-135500500D01*
X97565890Y-135500500D01*
X97565892Y-135500500D01*
X97693186Y-135466392D01*
X97807314Y-135400500D01*
X97900500Y-135307314D01*
X97966392Y-135193186D01*
X98000500Y-135065892D01*
X98000500Y-134934108D01*
X99999500Y-134934108D01*
X99999500Y-135065891D01*
X100033608Y-135193187D01*
X100066554Y-135250250D01*
X100099500Y-135307314D01*
X100192686Y-135400500D01*
X100306814Y-135466392D01*
X100434108Y-135500500D01*
X100434110Y-135500500D01*
X100565890Y-135500500D01*
X100565892Y-135500500D01*
X100693186Y-135466392D01*
X100807314Y-135400500D01*
X100839188Y-135368625D01*
X100900508Y-135335141D01*
X100970200Y-135340125D01*
X101026134Y-135381995D01*
X101034255Y-135394307D01*
X101060730Y-135440163D01*
X101099500Y-135507314D01*
X101192686Y-135600500D01*
X101306814Y-135666392D01*
X101434108Y-135700500D01*
X101434110Y-135700500D01*
X101565890Y-135700500D01*
X101565892Y-135700500D01*
X101693186Y-135666392D01*
X101807314Y-135600500D01*
X101900500Y-135507314D01*
X101966392Y-135393186D01*
X102000500Y-135265892D01*
X102000500Y-135134108D01*
X101966392Y-135006814D01*
X101900500Y-134892686D01*
X101807314Y-134799500D01*
X101722442Y-134750499D01*
X101693187Y-134733608D01*
X101628931Y-134716391D01*
X101565892Y-134699500D01*
X101434108Y-134699500D01*
X101306812Y-134733608D01*
X101192686Y-134799500D01*
X101192682Y-134799503D01*
X101160811Y-134831374D01*
X101099487Y-134864859D01*
X101029796Y-134859873D01*
X100973863Y-134818001D01*
X100965744Y-134805692D01*
X100924126Y-134733608D01*
X100900500Y-134692686D01*
X100807314Y-134599500D01*
X100750250Y-134566554D01*
X100693187Y-134533608D01*
X100629539Y-134516554D01*
X100565892Y-134499500D01*
X100434108Y-134499500D01*
X100306812Y-134533608D01*
X100192686Y-134599500D01*
X100192683Y-134599502D01*
X100099502Y-134692683D01*
X100099500Y-134692686D01*
X100033608Y-134806812D01*
X99999500Y-134934108D01*
X98000500Y-134934108D01*
X97966392Y-134806814D01*
X97900500Y-134692686D01*
X97807314Y-134599500D01*
X97750250Y-134566554D01*
X97693187Y-134533608D01*
X97629539Y-134516554D01*
X97565892Y-134499500D01*
X97434108Y-134499500D01*
X97306812Y-134533608D01*
X97192686Y-134599500D01*
X97192683Y-134599502D01*
X97099502Y-134692683D01*
X97099500Y-134692686D01*
X97033608Y-134806812D01*
X96999500Y-134934108D01*
X66500000Y-134934108D01*
X66500000Y-133934108D01*
X78999500Y-133934108D01*
X78999500Y-134065891D01*
X79033608Y-134193187D01*
X79066554Y-134250250D01*
X79099500Y-134307314D01*
X79192686Y-134400500D01*
X79306814Y-134466392D01*
X79434108Y-134500500D01*
X79434110Y-134500500D01*
X79565890Y-134500500D01*
X79565892Y-134500500D01*
X79693186Y-134466392D01*
X79807314Y-134400500D01*
X79900500Y-134307314D01*
X79966392Y-134193186D01*
X79968824Y-134184108D01*
X86499500Y-134184108D01*
X86499500Y-134315891D01*
X86533608Y-134443187D01*
X86547005Y-134466391D01*
X86599500Y-134557314D01*
X86692686Y-134650500D01*
X86806814Y-134716392D01*
X86934108Y-134750500D01*
X86934110Y-134750500D01*
X87065890Y-134750500D01*
X87065892Y-134750500D01*
X87193186Y-134716392D01*
X87307314Y-134650500D01*
X87400500Y-134557314D01*
X87466392Y-134443186D01*
X87500500Y-134315892D01*
X87500500Y-134184108D01*
X87466392Y-134056814D01*
X87400500Y-133942686D01*
X87307314Y-133849500D01*
X87233380Y-133806814D01*
X87193187Y-133783608D01*
X87129539Y-133766554D01*
X87065892Y-133749500D01*
X86934108Y-133749500D01*
X86806812Y-133783608D01*
X86692686Y-133849500D01*
X86692683Y-133849502D01*
X86599502Y-133942683D01*
X86599500Y-133942686D01*
X86533608Y-134056812D01*
X86499500Y-134184108D01*
X79968824Y-134184108D01*
X80000500Y-134065892D01*
X80000500Y-133934108D01*
X79966392Y-133806814D01*
X79900500Y-133692686D01*
X79807314Y-133599500D01*
X79750250Y-133566554D01*
X79694053Y-133534108D01*
X89499500Y-133534108D01*
X89499500Y-133665892D01*
X89516554Y-133729539D01*
X89533608Y-133793187D01*
X89541475Y-133806812D01*
X89599500Y-133907314D01*
X89692686Y-134000500D01*
X89790221Y-134056812D01*
X89805944Y-134065890D01*
X89806814Y-134066392D01*
X89934108Y-134100500D01*
X89934110Y-134100500D01*
X90065890Y-134100500D01*
X90065892Y-134100500D01*
X90193186Y-134066392D01*
X90307314Y-134000500D01*
X90400500Y-133907314D01*
X90466392Y-133793186D01*
X90470855Y-133776530D01*
X111449500Y-133776530D01*
X111449500Y-133983469D01*
X111489868Y-134186412D01*
X111489870Y-134186420D01*
X111569058Y-134377596D01*
X111684024Y-134549657D01*
X111830342Y-134695975D01*
X111830345Y-134695977D01*
X112002402Y-134810941D01*
X112193580Y-134890130D01*
X112396530Y-134930499D01*
X112396534Y-134930500D01*
X112396535Y-134930500D01*
X112603466Y-134930500D01*
X112603467Y-134930499D01*
X112806420Y-134890130D01*
X112997598Y-134810941D01*
X113169655Y-134695977D01*
X113315977Y-134549655D01*
X113430941Y-134377598D01*
X113510130Y-134186420D01*
X113550500Y-133983465D01*
X113550500Y-133776535D01*
X113510130Y-133573580D01*
X113430941Y-133382402D01*
X113315977Y-133210345D01*
X113315975Y-133210342D01*
X113169657Y-133064024D01*
X113083626Y-133006541D01*
X112997598Y-132949059D01*
X112983419Y-132943186D01*
X112806420Y-132869870D01*
X112806412Y-132869868D01*
X112603469Y-132829500D01*
X112603465Y-132829500D01*
X112396535Y-132829500D01*
X112396530Y-132829500D01*
X112193587Y-132869868D01*
X112193579Y-132869870D01*
X112002403Y-132949058D01*
X111830342Y-133064024D01*
X111684024Y-133210342D01*
X111569058Y-133382403D01*
X111489870Y-133573579D01*
X111489868Y-133573587D01*
X111449500Y-133776530D01*
X90470855Y-133776530D01*
X90500500Y-133665892D01*
X90500500Y-133534108D01*
X90466392Y-133406814D01*
X90400500Y-133292686D01*
X90307314Y-133199500D01*
X90222439Y-133150497D01*
X90193187Y-133133608D01*
X90128931Y-133116391D01*
X90065892Y-133099500D01*
X89934108Y-133099500D01*
X89806812Y-133133608D01*
X89692686Y-133199500D01*
X89692683Y-133199502D01*
X89599502Y-133292683D01*
X89599500Y-133292686D01*
X89533608Y-133406812D01*
X89508773Y-133499500D01*
X89499500Y-133534108D01*
X79694053Y-133534108D01*
X79693187Y-133533608D01*
X79629539Y-133516554D01*
X79565892Y-133499500D01*
X79434108Y-133499500D01*
X79306812Y-133533608D01*
X79192686Y-133599500D01*
X79192683Y-133599502D01*
X79099502Y-133692683D01*
X79099500Y-133692686D01*
X79033608Y-133806812D01*
X78999500Y-133934108D01*
X66500000Y-133934108D01*
X66500000Y-132584108D01*
X99999500Y-132584108D01*
X99999500Y-132715891D01*
X100033608Y-132843187D01*
X100049013Y-132869868D01*
X100099500Y-132957314D01*
X100192686Y-133050500D01*
X100306814Y-133116392D01*
X100434108Y-133150500D01*
X100434110Y-133150500D01*
X100565890Y-133150500D01*
X100565892Y-133150500D01*
X100693186Y-133116392D01*
X100807314Y-133050500D01*
X100900500Y-132957314D01*
X100966392Y-132843186D01*
X101000500Y-132715892D01*
X101000500Y-132684108D01*
X102999500Y-132684108D01*
X102999500Y-132815891D01*
X103033608Y-132943187D01*
X103041766Y-132957316D01*
X103099500Y-133057314D01*
X103192686Y-133150500D01*
X103306814Y-133216392D01*
X103434108Y-133250500D01*
X103434110Y-133250500D01*
X103565890Y-133250500D01*
X103565892Y-133250500D01*
X103693186Y-133216392D01*
X103807314Y-133150500D01*
X103900500Y-133057314D01*
X103966392Y-132943186D01*
X104000500Y-132815892D01*
X104000500Y-132684108D01*
X103966392Y-132556814D01*
X103900500Y-132442686D01*
X103807314Y-132349500D01*
X103750250Y-132316554D01*
X103693187Y-132283608D01*
X103629539Y-132266554D01*
X103565892Y-132249500D01*
X103434108Y-132249500D01*
X103306812Y-132283608D01*
X103192686Y-132349500D01*
X103192683Y-132349502D01*
X103099502Y-132442683D01*
X103099500Y-132442686D01*
X103033608Y-132556812D01*
X102999500Y-132684108D01*
X101000500Y-132684108D01*
X101000500Y-132584108D01*
X100966392Y-132456814D01*
X100900500Y-132342686D01*
X100807314Y-132249500D01*
X100750250Y-132216554D01*
X100693187Y-132183608D01*
X100629539Y-132166554D01*
X100565892Y-132149500D01*
X100434108Y-132149500D01*
X100306812Y-132183608D01*
X100192686Y-132249500D01*
X100192683Y-132249502D01*
X100099502Y-132342683D01*
X100099500Y-132342686D01*
X100033608Y-132456812D01*
X99999500Y-132584108D01*
X66500000Y-132584108D01*
X66500000Y-131420375D01*
X66519685Y-131353336D01*
X66572489Y-131307581D01*
X66641647Y-131297637D01*
X66699484Y-131321998D01*
X66823226Y-131416948D01*
X67016274Y-131528405D01*
X67222219Y-131613710D01*
X67437537Y-131671404D01*
X67658543Y-131700500D01*
X67658550Y-131700500D01*
X67881450Y-131700500D01*
X67881457Y-131700500D01*
X68102463Y-131671404D01*
X68317781Y-131613710D01*
X68523726Y-131528405D01*
X68716774Y-131416948D01*
X68893624Y-131281247D01*
X69051247Y-131123624D01*
X69186948Y-130946774D01*
X69194261Y-130934108D01*
X74999500Y-130934108D01*
X74999500Y-131065891D01*
X75033608Y-131193187D01*
X75066554Y-131250250D01*
X75099500Y-131307314D01*
X75192686Y-131400500D01*
X75306814Y-131466392D01*
X75434108Y-131500500D01*
X75434110Y-131500500D01*
X75565890Y-131500500D01*
X75565892Y-131500500D01*
X75693186Y-131466392D01*
X75807314Y-131400500D01*
X75900500Y-131307314D01*
X75966392Y-131193186D01*
X76000500Y-131065892D01*
X76000500Y-130934108D01*
X75966392Y-130806814D01*
X75900500Y-130692686D01*
X75807314Y-130599500D01*
X75717750Y-130547790D01*
X75693187Y-130533608D01*
X75629539Y-130516554D01*
X75565892Y-130499500D01*
X75434108Y-130499500D01*
X75306812Y-130533608D01*
X75192686Y-130599500D01*
X75192683Y-130599502D01*
X75099502Y-130692683D01*
X75099500Y-130692686D01*
X75033608Y-130806812D01*
X74999500Y-130934108D01*
X69194261Y-130934108D01*
X69298405Y-130753726D01*
X69383710Y-130547781D01*
X69441404Y-130332463D01*
X69470500Y-130111457D01*
X69470500Y-129888549D01*
X82299500Y-129888549D01*
X82299500Y-130111450D01*
X82299501Y-130111466D01*
X82328594Y-130332452D01*
X82328595Y-130332457D01*
X82328596Y-130332463D01*
X82386290Y-130547780D01*
X82386293Y-130547790D01*
X82446310Y-130692683D01*
X82471595Y-130753726D01*
X82583052Y-130946774D01*
X82583057Y-130946780D01*
X82583058Y-130946782D01*
X82718751Y-131123622D01*
X82718757Y-131123629D01*
X82876370Y-131281242D01*
X82876376Y-131281247D01*
X83053226Y-131416948D01*
X83246274Y-131528405D01*
X83452219Y-131613710D01*
X83667537Y-131671404D01*
X83888543Y-131700500D01*
X83888550Y-131700500D01*
X84111450Y-131700500D01*
X84111457Y-131700500D01*
X84332463Y-131671404D01*
X84547781Y-131613710D01*
X84753726Y-131528405D01*
X84946774Y-131416948D01*
X85123624Y-131281247D01*
X85168341Y-131236530D01*
X111449500Y-131236530D01*
X111449500Y-131443469D01*
X111489868Y-131646412D01*
X111489870Y-131646420D01*
X111569058Y-131837596D01*
X111684024Y-132009657D01*
X111830342Y-132155975D01*
X111830345Y-132155977D01*
X112002402Y-132270941D01*
X112193580Y-132350130D01*
X112396530Y-132390499D01*
X112396534Y-132390500D01*
X112396535Y-132390500D01*
X112603466Y-132390500D01*
X112603467Y-132390499D01*
X112806420Y-132350130D01*
X112997598Y-132270941D01*
X113169655Y-132155977D01*
X113315977Y-132009655D01*
X113430941Y-131837598D01*
X113510130Y-131646420D01*
X113550500Y-131443465D01*
X113550500Y-131236535D01*
X113510130Y-131033580D01*
X113430941Y-130842402D01*
X113315977Y-130670345D01*
X113315975Y-130670342D01*
X113169657Y-130524024D01*
X113083402Y-130466391D01*
X112997598Y-130409059D01*
X112976932Y-130400499D01*
X112806420Y-130329870D01*
X112806412Y-130329868D01*
X112603469Y-130289500D01*
X112603465Y-130289500D01*
X112396535Y-130289500D01*
X112396530Y-130289500D01*
X112193587Y-130329868D01*
X112193579Y-130329870D01*
X112002403Y-130409058D01*
X111830342Y-130524024D01*
X111684024Y-130670342D01*
X111569058Y-130842403D01*
X111489870Y-131033579D01*
X111489868Y-131033587D01*
X111449500Y-131236530D01*
X85168341Y-131236530D01*
X85262110Y-131142762D01*
X85281242Y-131123629D01*
X85281247Y-131123624D01*
X85416948Y-130946774D01*
X85528405Y-130753726D01*
X85613710Y-130547781D01*
X85671404Y-130332463D01*
X85700500Y-130111457D01*
X85700500Y-129934108D01*
X92074500Y-129934108D01*
X92074500Y-130065891D01*
X92108608Y-130193187D01*
X92141554Y-130250250D01*
X92174500Y-130307314D01*
X92267686Y-130400500D01*
X92381814Y-130466392D01*
X92509108Y-130500500D01*
X92509110Y-130500500D01*
X92640890Y-130500500D01*
X92640892Y-130500500D01*
X92768186Y-130466392D01*
X92882314Y-130400500D01*
X92975500Y-130307314D01*
X93041392Y-130193186D01*
X93075500Y-130065892D01*
X93075500Y-129934108D01*
X93041392Y-129806814D01*
X92975500Y-129692686D01*
X92882314Y-129599500D01*
X92825250Y-129566554D01*
X92768187Y-129533608D01*
X92704539Y-129516554D01*
X92640892Y-129499500D01*
X92509108Y-129499500D01*
X92381812Y-129533608D01*
X92267686Y-129599500D01*
X92267683Y-129599502D01*
X92174502Y-129692683D01*
X92174500Y-129692686D01*
X92108608Y-129806812D01*
X92074500Y-129934108D01*
X85700500Y-129934108D01*
X85700500Y-129888543D01*
X85671404Y-129667537D01*
X85613710Y-129452219D01*
X85528405Y-129246274D01*
X85416948Y-129053226D01*
X85350051Y-128966043D01*
X85281248Y-128876377D01*
X85281242Y-128876370D01*
X85123629Y-128718757D01*
X85123622Y-128718751D01*
X84946782Y-128583058D01*
X84946780Y-128583057D01*
X84946774Y-128583052D01*
X84753726Y-128471595D01*
X84753722Y-128471593D01*
X84547790Y-128386293D01*
X84547783Y-128386291D01*
X84547781Y-128386290D01*
X84332463Y-128328596D01*
X84332457Y-128328595D01*
X84332452Y-128328594D01*
X84111466Y-128299501D01*
X84111463Y-128299500D01*
X84111457Y-128299500D01*
X83888543Y-128299500D01*
X83888537Y-128299500D01*
X83888533Y-128299501D01*
X83667547Y-128328594D01*
X83667540Y-128328595D01*
X83667537Y-128328596D01*
X83664854Y-128329315D01*
X83452219Y-128386290D01*
X83452209Y-128386293D01*
X83246277Y-128471593D01*
X83246273Y-128471595D01*
X83053226Y-128583052D01*
X83053217Y-128583058D01*
X82876377Y-128718751D01*
X82876370Y-128718757D01*
X82718757Y-128876370D01*
X82718751Y-128876377D01*
X82583058Y-129053217D01*
X82583052Y-129053226D01*
X82471595Y-129246273D01*
X82471593Y-129246277D01*
X82386293Y-129452209D01*
X82386290Y-129452219D01*
X82342412Y-129615977D01*
X82328597Y-129667534D01*
X82328594Y-129667547D01*
X82299501Y-129888533D01*
X82299500Y-129888549D01*
X69470500Y-129888549D01*
X69470500Y-129888543D01*
X69441404Y-129667537D01*
X69383710Y-129452219D01*
X69298405Y-129246274D01*
X69186948Y-129053226D01*
X69120051Y-128966043D01*
X69051248Y-128876377D01*
X69051242Y-128876370D01*
X68893629Y-128718757D01*
X68893622Y-128718751D01*
X68716782Y-128583058D01*
X68716780Y-128583057D01*
X68716774Y-128583052D01*
X68523726Y-128471595D01*
X68523722Y-128471593D01*
X68317790Y-128386293D01*
X68317783Y-128386291D01*
X68317781Y-128386290D01*
X68102463Y-128328596D01*
X68102457Y-128328595D01*
X68102452Y-128328594D01*
X67881466Y-128299501D01*
X67881463Y-128299500D01*
X67881457Y-128299500D01*
X67658543Y-128299500D01*
X67658537Y-128299500D01*
X67658533Y-128299501D01*
X67437547Y-128328594D01*
X67437540Y-128328595D01*
X67437537Y-128328596D01*
X67434854Y-128329315D01*
X67222219Y-128386290D01*
X67222209Y-128386293D01*
X67016277Y-128471593D01*
X67016273Y-128471595D01*
X66823226Y-128583052D01*
X66823217Y-128583058D01*
X66699486Y-128678000D01*
X66634317Y-128703194D01*
X66565872Y-128689155D01*
X66515882Y-128640341D01*
X66500000Y-128579624D01*
X66500000Y-127434108D01*
X78499500Y-127434108D01*
X78499500Y-127565891D01*
X78533608Y-127693187D01*
X78550554Y-127722538D01*
X78599500Y-127807314D01*
X78692686Y-127900500D01*
X78806814Y-127966392D01*
X78934108Y-128000500D01*
X78934110Y-128000500D01*
X79065890Y-128000500D01*
X79065892Y-128000500D01*
X79193186Y-127966392D01*
X79307314Y-127900500D01*
X79307315Y-127900498D01*
X79314352Y-127896436D01*
X79315492Y-127898411D01*
X79369654Y-127877464D01*
X79438101Y-127891494D01*
X79488097Y-127940301D01*
X79503770Y-128008390D01*
X79499765Y-128033120D01*
X79499500Y-128034108D01*
X79499500Y-128165891D01*
X79533608Y-128293187D01*
X79554466Y-128329313D01*
X79599500Y-128407314D01*
X79692686Y-128500500D01*
X79806814Y-128566392D01*
X79934108Y-128600500D01*
X79934110Y-128600500D01*
X80065890Y-128600500D01*
X80065892Y-128600500D01*
X80193186Y-128566392D01*
X80307314Y-128500500D01*
X80400500Y-128407314D01*
X80466392Y-128293186D01*
X80500500Y-128165892D01*
X80500500Y-128034108D01*
X80466392Y-127906814D01*
X80400500Y-127792686D01*
X80307314Y-127699500D01*
X80280654Y-127684108D01*
X86499500Y-127684108D01*
X86499500Y-127815891D01*
X86533608Y-127943187D01*
X86547005Y-127966391D01*
X86599500Y-128057314D01*
X86692686Y-128150500D01*
X86719346Y-128165892D01*
X86810636Y-128218599D01*
X86858852Y-128269166D01*
X86872074Y-128337773D01*
X86868411Y-128358078D01*
X86857272Y-128399650D01*
X86857272Y-128531435D01*
X86891380Y-128658731D01*
X86908946Y-128689155D01*
X86957272Y-128772858D01*
X87050458Y-128866044D01*
X87164586Y-128931936D01*
X87291880Y-128966044D01*
X87291882Y-128966044D01*
X87423662Y-128966044D01*
X87423664Y-128966044D01*
X87550958Y-128931936D01*
X87665086Y-128866044D01*
X87758272Y-128772858D01*
X87824164Y-128658730D01*
X87858272Y-128531436D01*
X87858272Y-128456609D01*
X89272001Y-128456609D01*
X89272001Y-128588392D01*
X89306109Y-128715688D01*
X89307879Y-128718753D01*
X89372001Y-128829815D01*
X89465187Y-128923001D01*
X89579315Y-128988893D01*
X89706609Y-129023001D01*
X89706611Y-129023001D01*
X89838391Y-129023001D01*
X89838393Y-129023001D01*
X89965687Y-128988893D01*
X90079815Y-128923001D01*
X90173001Y-128829815D01*
X90238893Y-128715687D01*
X90244026Y-128696530D01*
X111449500Y-128696530D01*
X111449500Y-128903469D01*
X111489868Y-129106412D01*
X111489870Y-129106420D01*
X111569058Y-129297596D01*
X111684024Y-129469657D01*
X111830342Y-129615975D01*
X111830345Y-129615977D01*
X112002402Y-129730941D01*
X112193580Y-129810130D01*
X112396530Y-129850499D01*
X112396534Y-129850500D01*
X112396535Y-129850500D01*
X112603466Y-129850500D01*
X112603467Y-129850499D01*
X112806420Y-129810130D01*
X112997598Y-129730941D01*
X113169655Y-129615977D01*
X113315977Y-129469655D01*
X113430941Y-129297598D01*
X113510130Y-129106420D01*
X113550500Y-128903465D01*
X113550500Y-128696535D01*
X113510130Y-128493580D01*
X113430941Y-128302402D01*
X113315977Y-128130345D01*
X113315975Y-128130342D01*
X113169657Y-127984024D01*
X113044653Y-127900500D01*
X112997598Y-127869059D01*
X112869237Y-127815890D01*
X112806420Y-127789870D01*
X112806412Y-127789868D01*
X112603469Y-127749500D01*
X112603465Y-127749500D01*
X112396535Y-127749500D01*
X112396530Y-127749500D01*
X112193587Y-127789868D01*
X112193579Y-127789870D01*
X112002403Y-127869058D01*
X111830342Y-127984024D01*
X111684024Y-128130342D01*
X111569058Y-128302403D01*
X111489870Y-128493579D01*
X111489868Y-128493587D01*
X111449500Y-128696530D01*
X90244026Y-128696530D01*
X90273001Y-128588393D01*
X90273001Y-128456609D01*
X90238893Y-128329315D01*
X90238478Y-128328597D01*
X90218034Y-128293186D01*
X90173001Y-128215187D01*
X90079815Y-128122001D01*
X90022751Y-128089055D01*
X89965688Y-128056109D01*
X89879890Y-128033120D01*
X89838393Y-128022001D01*
X89706609Y-128022001D01*
X89579313Y-128056109D01*
X89465187Y-128122001D01*
X89465184Y-128122003D01*
X89372003Y-128215184D01*
X89372001Y-128215187D01*
X89306109Y-128329313D01*
X89272001Y-128456609D01*
X87858272Y-128456609D01*
X87858272Y-128399652D01*
X87824164Y-128272358D01*
X87758272Y-128158230D01*
X87665086Y-128065044D01*
X87550958Y-127999152D01*
X87547134Y-127996944D01*
X87498919Y-127946376D01*
X87485455Y-127880659D01*
X87486302Y-127868878D01*
X87500500Y-127815892D01*
X87500500Y-127684108D01*
X100499500Y-127684108D01*
X100499500Y-127815891D01*
X100533608Y-127943187D01*
X100547005Y-127966391D01*
X100599500Y-128057314D01*
X100692686Y-128150500D01*
X100791521Y-128207563D01*
X100804721Y-128215184D01*
X100806814Y-128216392D01*
X100934108Y-128250500D01*
X100934110Y-128250500D01*
X101065890Y-128250500D01*
X101065892Y-128250500D01*
X101193186Y-128216392D01*
X101307314Y-128150500D01*
X101400500Y-128057314D01*
X101466392Y-127943186D01*
X101500500Y-127815892D01*
X101500500Y-127684108D01*
X101466392Y-127556814D01*
X101400500Y-127442686D01*
X101307314Y-127349500D01*
X101239764Y-127310500D01*
X101193187Y-127283608D01*
X101129539Y-127266554D01*
X101065892Y-127249500D01*
X100934108Y-127249500D01*
X100806812Y-127283608D01*
X100692686Y-127349500D01*
X100692683Y-127349502D01*
X100599502Y-127442683D01*
X100599500Y-127442686D01*
X100533608Y-127556812D01*
X100499500Y-127684108D01*
X87500500Y-127684108D01*
X87466392Y-127556814D01*
X87400500Y-127442686D01*
X87307314Y-127349500D01*
X87239764Y-127310500D01*
X87193187Y-127283608D01*
X87129539Y-127266554D01*
X87065892Y-127249500D01*
X86934108Y-127249500D01*
X86806812Y-127283608D01*
X86692686Y-127349500D01*
X86692683Y-127349502D01*
X86599502Y-127442683D01*
X86599500Y-127442686D01*
X86533608Y-127556812D01*
X86499500Y-127684108D01*
X80280654Y-127684108D01*
X80238318Y-127659665D01*
X80193187Y-127633608D01*
X80129539Y-127616554D01*
X80065892Y-127599500D01*
X79934108Y-127599500D01*
X79806812Y-127633608D01*
X79727006Y-127679684D01*
X79692686Y-127699500D01*
X79692684Y-127699501D01*
X79685648Y-127703564D01*
X79684510Y-127701593D01*
X79630307Y-127722538D01*
X79561864Y-127708488D01*
X79511883Y-127659665D01*
X79496232Y-127591571D01*
X79500237Y-127566870D01*
X79500500Y-127565892D01*
X79500500Y-127434108D01*
X79466392Y-127306814D01*
X79400500Y-127192686D01*
X79307314Y-127099500D01*
X79249100Y-127065890D01*
X79193187Y-127033608D01*
X79129539Y-127016554D01*
X79065892Y-126999500D01*
X78934108Y-126999500D01*
X78806812Y-127033608D01*
X78692686Y-127099500D01*
X78692683Y-127099502D01*
X78599502Y-127192683D01*
X78599500Y-127192686D01*
X78533608Y-127306812D01*
X78499500Y-127434108D01*
X66500000Y-127434108D01*
X66500000Y-126684108D01*
X89499500Y-126684108D01*
X89499500Y-126815891D01*
X89533608Y-126943187D01*
X89547005Y-126966391D01*
X89599500Y-127057314D01*
X89692686Y-127150500D01*
X89806814Y-127216392D01*
X89934108Y-127250500D01*
X89934110Y-127250500D01*
X90065890Y-127250500D01*
X90065892Y-127250500D01*
X90193186Y-127216392D01*
X90307314Y-127150500D01*
X90400500Y-127057314D01*
X90466392Y-126943186D01*
X90468824Y-126934108D01*
X93999500Y-126934108D01*
X93999500Y-127065891D01*
X94033608Y-127193187D01*
X94047005Y-127216391D01*
X94099500Y-127307314D01*
X94192686Y-127400500D01*
X94306814Y-127466392D01*
X94434108Y-127500500D01*
X94434110Y-127500500D01*
X94565890Y-127500500D01*
X94565892Y-127500500D01*
X94693186Y-127466392D01*
X94807314Y-127400500D01*
X94900500Y-127307314D01*
X94966392Y-127193186D01*
X95000500Y-127065892D01*
X95000500Y-126934108D01*
X95599500Y-126934108D01*
X95599500Y-127065891D01*
X95633608Y-127193187D01*
X95647005Y-127216391D01*
X95699500Y-127307314D01*
X95792686Y-127400500D01*
X95906814Y-127466392D01*
X96034108Y-127500500D01*
X96034110Y-127500500D01*
X96165890Y-127500500D01*
X96165892Y-127500500D01*
X96293186Y-127466392D01*
X96407314Y-127400500D01*
X96500500Y-127307314D01*
X96566392Y-127193186D01*
X96600500Y-127065892D01*
X96600500Y-126934108D01*
X96566392Y-126806814D01*
X96500500Y-126692686D01*
X96407314Y-126599500D01*
X96293186Y-126533608D01*
X96165892Y-126499500D01*
X96034108Y-126499500D01*
X95906812Y-126533608D01*
X95792686Y-126599500D01*
X95792683Y-126599502D01*
X95699502Y-126692683D01*
X95699500Y-126692686D01*
X95633608Y-126806812D01*
X95599500Y-126934108D01*
X95000500Y-126934108D01*
X94966392Y-126806814D01*
X94900500Y-126692686D01*
X94807314Y-126599500D01*
X94733380Y-126556814D01*
X94693187Y-126533608D01*
X94629539Y-126516554D01*
X94565892Y-126499500D01*
X94434108Y-126499500D01*
X94306812Y-126533608D01*
X94192686Y-126599500D01*
X94192683Y-126599502D01*
X94099502Y-126692683D01*
X94099500Y-126692686D01*
X94033608Y-126806812D01*
X93999500Y-126934108D01*
X90468824Y-126934108D01*
X90500500Y-126815892D01*
X90500500Y-126684108D01*
X90466392Y-126556814D01*
X90400500Y-126442686D01*
X90391922Y-126434108D01*
X101999500Y-126434108D01*
X101999500Y-126565892D01*
X102008505Y-126599498D01*
X102033608Y-126693187D01*
X102066554Y-126750250D01*
X102099500Y-126807314D01*
X102192686Y-126900500D01*
X102306814Y-126966392D01*
X102434108Y-127000500D01*
X102434110Y-127000500D01*
X102565890Y-127000500D01*
X102565892Y-127000500D01*
X102693186Y-126966392D01*
X102807314Y-126900500D01*
X102900500Y-126807314D01*
X102966392Y-126693186D01*
X103000500Y-126565892D01*
X103000500Y-126434108D01*
X102966392Y-126306814D01*
X102900500Y-126192686D01*
X102864344Y-126156530D01*
X111449500Y-126156530D01*
X111449500Y-126363469D01*
X111489868Y-126566412D01*
X111489870Y-126566420D01*
X111569058Y-126757596D01*
X111684024Y-126929657D01*
X111830342Y-127075975D01*
X111830345Y-127075977D01*
X112002402Y-127190941D01*
X112193580Y-127270130D01*
X112377994Y-127306812D01*
X112396530Y-127310499D01*
X112396534Y-127310500D01*
X112396535Y-127310500D01*
X112603466Y-127310500D01*
X112603467Y-127310499D01*
X112806420Y-127270130D01*
X112997598Y-127190941D01*
X113169655Y-127075977D01*
X113315977Y-126929655D01*
X113430941Y-126757598D01*
X113510130Y-126566420D01*
X113550500Y-126363465D01*
X113550500Y-126156535D01*
X113510130Y-125953580D01*
X113430941Y-125762402D01*
X113315977Y-125590345D01*
X113315975Y-125590342D01*
X113169657Y-125444024D01*
X113029684Y-125350498D01*
X112997598Y-125329059D01*
X112979117Y-125321404D01*
X112806420Y-125249870D01*
X112806412Y-125249868D01*
X112603469Y-125209500D01*
X112603465Y-125209500D01*
X112396535Y-125209500D01*
X112396530Y-125209500D01*
X112193587Y-125249868D01*
X112193579Y-125249870D01*
X112002403Y-125329058D01*
X111830342Y-125444024D01*
X111684024Y-125590342D01*
X111569058Y-125762403D01*
X111489870Y-125953579D01*
X111489868Y-125953587D01*
X111449500Y-126156530D01*
X102864344Y-126156530D01*
X102807314Y-126099500D01*
X102750250Y-126066554D01*
X102693187Y-126033608D01*
X102629539Y-126016554D01*
X102565892Y-125999500D01*
X102434108Y-125999500D01*
X102306812Y-126033608D01*
X102192686Y-126099500D01*
X102192683Y-126099502D01*
X102099502Y-126192683D01*
X102099500Y-126192686D01*
X102033608Y-126306812D01*
X102018428Y-126363466D01*
X101999500Y-126434108D01*
X90391922Y-126434108D01*
X90307314Y-126349500D01*
X90233380Y-126306814D01*
X90193187Y-126283608D01*
X90129539Y-126266554D01*
X90065892Y-126249500D01*
X89934108Y-126249500D01*
X89806812Y-126283608D01*
X89692686Y-126349500D01*
X89692683Y-126349502D01*
X89599502Y-126442683D01*
X89599500Y-126442686D01*
X89533608Y-126556812D01*
X89499500Y-126684108D01*
X66500000Y-126684108D01*
X66500000Y-125070375D01*
X66519685Y-125003336D01*
X66572489Y-124957581D01*
X66641647Y-124947637D01*
X66699484Y-124971998D01*
X66823226Y-125066948D01*
X67016274Y-125178405D01*
X67222219Y-125263710D01*
X67437537Y-125321404D01*
X67658543Y-125350500D01*
X67658550Y-125350500D01*
X67881450Y-125350500D01*
X67881457Y-125350500D01*
X68102463Y-125321404D01*
X68317781Y-125263710D01*
X68523726Y-125178405D01*
X68716774Y-125066948D01*
X68893624Y-124931247D01*
X69051247Y-124773624D01*
X69186948Y-124596774D01*
X69298405Y-124403726D01*
X69383710Y-124197781D01*
X69441404Y-123982463D01*
X69470500Y-123761457D01*
X69470500Y-123538549D01*
X82299500Y-123538549D01*
X82299500Y-123761450D01*
X82299501Y-123761466D01*
X82328594Y-123982452D01*
X82328595Y-123982457D01*
X82328596Y-123982463D01*
X82350951Y-124065892D01*
X82386290Y-124197780D01*
X82386293Y-124197790D01*
X82471593Y-124403722D01*
X82471595Y-124403726D01*
X82583052Y-124596774D01*
X82583057Y-124596780D01*
X82583058Y-124596782D01*
X82718751Y-124773622D01*
X82718757Y-124773629D01*
X82876370Y-124931242D01*
X82876377Y-124931248D01*
X82897736Y-124947637D01*
X83053226Y-125066948D01*
X83246274Y-125178405D01*
X83452219Y-125263710D01*
X83667537Y-125321404D01*
X83888543Y-125350500D01*
X83888550Y-125350500D01*
X84111450Y-125350500D01*
X84111457Y-125350500D01*
X84332463Y-125321404D01*
X84547781Y-125263710D01*
X84753726Y-125178405D01*
X84946774Y-125066948D01*
X85123624Y-124931247D01*
X85281247Y-124773624D01*
X85349935Y-124684108D01*
X91999500Y-124684108D01*
X91999500Y-124815891D01*
X92033608Y-124943187D01*
X92041919Y-124957581D01*
X92099500Y-125057314D01*
X92192686Y-125150500D01*
X92306814Y-125216392D01*
X92434108Y-125250500D01*
X92434110Y-125250500D01*
X92565890Y-125250500D01*
X92565892Y-125250500D01*
X92693186Y-125216392D01*
X92807314Y-125150500D01*
X92900500Y-125057314D01*
X92966392Y-124943186D01*
X93000500Y-124815892D01*
X93000500Y-124684108D01*
X103499500Y-124684108D01*
X103499500Y-124815891D01*
X103533608Y-124943187D01*
X103541919Y-124957581D01*
X103599500Y-125057314D01*
X103692686Y-125150500D01*
X103806814Y-125216392D01*
X103934108Y-125250500D01*
X103934110Y-125250500D01*
X104065890Y-125250500D01*
X104065892Y-125250500D01*
X104193186Y-125216392D01*
X104307314Y-125150500D01*
X104400500Y-125057314D01*
X104466392Y-124943186D01*
X104500500Y-124815892D01*
X104500500Y-124684108D01*
X104466392Y-124556814D01*
X104400500Y-124442686D01*
X104307314Y-124349500D01*
X104250250Y-124316554D01*
X104193187Y-124283608D01*
X104129539Y-124266554D01*
X104065892Y-124249500D01*
X103934108Y-124249500D01*
X103806812Y-124283608D01*
X103692686Y-124349500D01*
X103692683Y-124349502D01*
X103599502Y-124442683D01*
X103599500Y-124442686D01*
X103533608Y-124556812D01*
X103499500Y-124684108D01*
X93000500Y-124684108D01*
X92966392Y-124556814D01*
X92900500Y-124442686D01*
X92807314Y-124349500D01*
X92750250Y-124316554D01*
X92693187Y-124283608D01*
X92629539Y-124266554D01*
X92565892Y-124249500D01*
X92434108Y-124249500D01*
X92306812Y-124283608D01*
X92192686Y-124349500D01*
X92192683Y-124349502D01*
X92099502Y-124442683D01*
X92099500Y-124442686D01*
X92033608Y-124556812D01*
X91999500Y-124684108D01*
X85349935Y-124684108D01*
X85416948Y-124596774D01*
X85528405Y-124403726D01*
X85613710Y-124197781D01*
X85671404Y-123982463D01*
X85677770Y-123934108D01*
X99499500Y-123934108D01*
X99499500Y-124065891D01*
X99533608Y-124193187D01*
X99536266Y-124197790D01*
X99599500Y-124307314D01*
X99692686Y-124400500D01*
X99806814Y-124466392D01*
X99934108Y-124500500D01*
X99934110Y-124500500D01*
X100065890Y-124500500D01*
X100065892Y-124500500D01*
X100193186Y-124466392D01*
X100307314Y-124400500D01*
X100400500Y-124307314D01*
X100466392Y-124193186D01*
X100500500Y-124065892D01*
X100500500Y-123934108D01*
X100466392Y-123806814D01*
X100400500Y-123692686D01*
X100307314Y-123599500D01*
X100250250Y-123566554D01*
X100193187Y-123533608D01*
X100129539Y-123516554D01*
X100065892Y-123499500D01*
X99934108Y-123499500D01*
X99806812Y-123533608D01*
X99692686Y-123599500D01*
X99692683Y-123599502D01*
X99599502Y-123692683D01*
X99599500Y-123692686D01*
X99533608Y-123806812D01*
X99499500Y-123934108D01*
X85677770Y-123934108D01*
X85700500Y-123761457D01*
X85700500Y-123538543D01*
X85671404Y-123317537D01*
X85613710Y-123102219D01*
X85598663Y-123065892D01*
X85560366Y-122973434D01*
X85544076Y-122934108D01*
X87749500Y-122934108D01*
X87749500Y-123065892D01*
X87758772Y-123100497D01*
X87783608Y-123193187D01*
X87798296Y-123218627D01*
X87849500Y-123307314D01*
X87942686Y-123400500D01*
X88016622Y-123443187D01*
X88055944Y-123465890D01*
X88056814Y-123466392D01*
X88184108Y-123500500D01*
X88184110Y-123500500D01*
X88315890Y-123500500D01*
X88315892Y-123500500D01*
X88443186Y-123466392D01*
X88557314Y-123400500D01*
X88650500Y-123307314D01*
X88716392Y-123193186D01*
X88750500Y-123065892D01*
X88750500Y-122934479D01*
X88770185Y-122867440D01*
X88822989Y-122821685D01*
X88892147Y-122811741D01*
X88943391Y-122831377D01*
X89026080Y-122886628D01*
X89026091Y-122886635D01*
X89101154Y-122917726D01*
X89161780Y-122942837D01*
X89216183Y-122986677D01*
X89238248Y-123052971D01*
X89234102Y-123089491D01*
X89233608Y-123091336D01*
X89233607Y-123091338D01*
X89213497Y-123166391D01*
X89199499Y-123218632D01*
X89199499Y-123350415D01*
X89233607Y-123477711D01*
X89265880Y-123533608D01*
X89299499Y-123591838D01*
X89392685Y-123685024D01*
X89491520Y-123742087D01*
X89506090Y-123750499D01*
X89506813Y-123750916D01*
X89634107Y-123785024D01*
X89634109Y-123785024D01*
X89765889Y-123785024D01*
X89765891Y-123785024D01*
X89893185Y-123750916D01*
X90007313Y-123685024D01*
X90100499Y-123591838D01*
X90166391Y-123477710D01*
X90200499Y-123350416D01*
X90200499Y-123218632D01*
X90200498Y-123218627D01*
X90197673Y-123208083D01*
X90197670Y-123208075D01*
X90197332Y-123206812D01*
X90191249Y-123184108D01*
X96749500Y-123184108D01*
X96749500Y-123315892D01*
X96758750Y-123350414D01*
X96783608Y-123443187D01*
X96796717Y-123465892D01*
X96849500Y-123557314D01*
X96942686Y-123650500D01*
X97056814Y-123716392D01*
X97184108Y-123750500D01*
X97184110Y-123750500D01*
X97315890Y-123750500D01*
X97315892Y-123750500D01*
X97443186Y-123716392D01*
X97557314Y-123650500D01*
X97650500Y-123557314D01*
X97716392Y-123443186D01*
X97745619Y-123334108D01*
X106724500Y-123334108D01*
X106724500Y-123465891D01*
X106758608Y-123593187D01*
X106791554Y-123650250D01*
X106824500Y-123707314D01*
X106917686Y-123800500D01*
X107031814Y-123866392D01*
X107159108Y-123900500D01*
X107159110Y-123900500D01*
X107290890Y-123900500D01*
X107290892Y-123900500D01*
X107418186Y-123866392D01*
X107532314Y-123800500D01*
X107625500Y-123707314D01*
X107691392Y-123593186D01*
X107725500Y-123465892D01*
X107725500Y-123334108D01*
X107691392Y-123206814D01*
X107625500Y-123092686D01*
X107532314Y-122999500D01*
X107467447Y-122962049D01*
X107418187Y-122933608D01*
X107354539Y-122916554D01*
X107290892Y-122899500D01*
X107159108Y-122899500D01*
X107031812Y-122933608D01*
X106917686Y-122999500D01*
X106917683Y-122999502D01*
X106824502Y-123092683D01*
X106824500Y-123092686D01*
X106758608Y-123206812D01*
X106724500Y-123334108D01*
X97745619Y-123334108D01*
X97750500Y-123315892D01*
X97750500Y-123184108D01*
X97716392Y-123056814D01*
X97650500Y-122942686D01*
X97557314Y-122849500D01*
X97483380Y-122806814D01*
X97443187Y-122783608D01*
X97377061Y-122765890D01*
X97315892Y-122749500D01*
X97184108Y-122749500D01*
X97056812Y-122783608D01*
X96942686Y-122849500D01*
X96942683Y-122849502D01*
X96849502Y-122942683D01*
X96849500Y-122942686D01*
X96783608Y-123056812D01*
X96771442Y-123102219D01*
X96749500Y-123184108D01*
X90191249Y-123184108D01*
X90166391Y-123091338D01*
X90100499Y-122977210D01*
X90100494Y-122977205D01*
X90095552Y-122970764D01*
X90097146Y-122969540D01*
X90068853Y-122917726D01*
X90073837Y-122848034D01*
X90115709Y-122792101D01*
X90121119Y-122788272D01*
X90137782Y-122777139D01*
X90277139Y-122637782D01*
X90386632Y-122473914D01*
X90462051Y-122291835D01*
X90488909Y-122156812D01*
X90500500Y-122098543D01*
X93499499Y-122098543D01*
X93537947Y-122291829D01*
X93537950Y-122291839D01*
X93613364Y-122473907D01*
X93613371Y-122473920D01*
X93722860Y-122637781D01*
X93722863Y-122637785D01*
X93862214Y-122777136D01*
X93862218Y-122777139D01*
X94026079Y-122886628D01*
X94026092Y-122886635D01*
X94208160Y-122962049D01*
X94208165Y-122962051D01*
X94208169Y-122962051D01*
X94208170Y-122962052D01*
X94401456Y-123000500D01*
X94401459Y-123000500D01*
X94598543Y-123000500D01*
X94748032Y-122970764D01*
X94791835Y-122962051D01*
X94973914Y-122886632D01*
X95137782Y-122777139D01*
X95277139Y-122637782D01*
X95386632Y-122473914D01*
X95462051Y-122291835D01*
X95463588Y-122284108D01*
X103499500Y-122284108D01*
X103499500Y-122415891D01*
X103533608Y-122543187D01*
X103533609Y-122543188D01*
X103599500Y-122657314D01*
X103692686Y-122750500D01*
X103806814Y-122816392D01*
X103934108Y-122850500D01*
X103934110Y-122850500D01*
X104065890Y-122850500D01*
X104065892Y-122850500D01*
X104193186Y-122816392D01*
X104307314Y-122750500D01*
X104400500Y-122657314D01*
X104413898Y-122634108D01*
X112799500Y-122634108D01*
X112799500Y-122765892D01*
X112802514Y-122777139D01*
X112833608Y-122893187D01*
X112862185Y-122942683D01*
X112899500Y-123007314D01*
X112992686Y-123100500D01*
X113106814Y-123166392D01*
X113234108Y-123200500D01*
X113234110Y-123200500D01*
X113365890Y-123200500D01*
X113365892Y-123200500D01*
X113493186Y-123166392D01*
X113607314Y-123100500D01*
X113700500Y-123007314D01*
X113766392Y-122893186D01*
X113800500Y-122765892D01*
X113800500Y-122634108D01*
X113766392Y-122506814D01*
X113700500Y-122392686D01*
X113607314Y-122299500D01*
X113550250Y-122266554D01*
X113493187Y-122233608D01*
X113429539Y-122216554D01*
X113365892Y-122199500D01*
X113234108Y-122199500D01*
X113106812Y-122233608D01*
X112992686Y-122299500D01*
X112992683Y-122299502D01*
X112899502Y-122392683D01*
X112899500Y-122392686D01*
X112833608Y-122506812D01*
X112799500Y-122634108D01*
X104413898Y-122634108D01*
X104466392Y-122543186D01*
X104500500Y-122415892D01*
X104500500Y-122284108D01*
X104466392Y-122156814D01*
X104400500Y-122042686D01*
X104307314Y-121949500D01*
X104224100Y-121901456D01*
X104193187Y-121883608D01*
X104129539Y-121866554D01*
X104065892Y-121849500D01*
X103934108Y-121849500D01*
X103806812Y-121883608D01*
X103692686Y-121949500D01*
X103692683Y-121949502D01*
X103599502Y-122042683D01*
X103599500Y-122042686D01*
X103533608Y-122156812D01*
X103499500Y-122284108D01*
X95463588Y-122284108D01*
X95488909Y-122156812D01*
X95500500Y-122098543D01*
X95500500Y-121901456D01*
X95462052Y-121708170D01*
X95462051Y-121708169D01*
X95462051Y-121708165D01*
X95432897Y-121637781D01*
X95386635Y-121526092D01*
X95386628Y-121526079D01*
X95277139Y-121362218D01*
X95277136Y-121362214D01*
X95137785Y-121222863D01*
X95137781Y-121222860D01*
X94973920Y-121113371D01*
X94973907Y-121113364D01*
X94938125Y-121098543D01*
X101499499Y-121098543D01*
X101537947Y-121291829D01*
X101537950Y-121291839D01*
X101613364Y-121473907D01*
X101613371Y-121473920D01*
X101722860Y-121637781D01*
X101722863Y-121637785D01*
X101862214Y-121777136D01*
X101862218Y-121777139D01*
X102026079Y-121886628D01*
X102026092Y-121886635D01*
X102208160Y-121962049D01*
X102208165Y-121962051D01*
X102208169Y-121962051D01*
X102208170Y-121962052D01*
X102401456Y-122000500D01*
X102401459Y-122000500D01*
X102598543Y-122000500D01*
X102728582Y-121974632D01*
X102791835Y-121962051D01*
X102973914Y-121886632D01*
X103137782Y-121777139D01*
X103277139Y-121637782D01*
X103386632Y-121473914D01*
X103462051Y-121291835D01*
X103497551Y-121113368D01*
X103500500Y-121098543D01*
X103500500Y-120901456D01*
X103462052Y-120708170D01*
X103462051Y-120708169D01*
X103462051Y-120708165D01*
X103462049Y-120708160D01*
X103386635Y-120526092D01*
X103386628Y-120526079D01*
X103277139Y-120362218D01*
X103277136Y-120362214D01*
X103137785Y-120222863D01*
X103137781Y-120222860D01*
X102973920Y-120113371D01*
X102973907Y-120113364D01*
X102791839Y-120037950D01*
X102791829Y-120037947D01*
X102598543Y-119999500D01*
X102598541Y-119999500D01*
X102401459Y-119999500D01*
X102401457Y-119999500D01*
X102208170Y-120037947D01*
X102208160Y-120037950D01*
X102026092Y-120113364D01*
X102026079Y-120113371D01*
X101862218Y-120222860D01*
X101862214Y-120222863D01*
X101722863Y-120362214D01*
X101722860Y-120362218D01*
X101613371Y-120526079D01*
X101613364Y-120526092D01*
X101537950Y-120708160D01*
X101537947Y-120708170D01*
X101499500Y-120901456D01*
X101499500Y-120901459D01*
X101499500Y-121098541D01*
X101499500Y-121098543D01*
X101499499Y-121098543D01*
X94938125Y-121098543D01*
X94791839Y-121037950D01*
X94791829Y-121037947D01*
X94686440Y-121016984D01*
X94598543Y-120999500D01*
X94598541Y-120999500D01*
X94401459Y-120999500D01*
X94401457Y-120999500D01*
X94208170Y-121037947D01*
X94208160Y-121037950D01*
X94026092Y-121113364D01*
X94026079Y-121113371D01*
X93862218Y-121222860D01*
X93862214Y-121222863D01*
X93722863Y-121362214D01*
X93722860Y-121362218D01*
X93613371Y-121526079D01*
X93613364Y-121526092D01*
X93537950Y-121708160D01*
X93537947Y-121708170D01*
X93499500Y-121901456D01*
X93499500Y-121901459D01*
X93499500Y-122098541D01*
X93499500Y-122098543D01*
X93499499Y-122098543D01*
X90500500Y-122098543D01*
X90500500Y-121901456D01*
X90462052Y-121708170D01*
X90462051Y-121708169D01*
X90462051Y-121708165D01*
X90432897Y-121637781D01*
X90386635Y-121526092D01*
X90386628Y-121526079D01*
X90277139Y-121362218D01*
X90277136Y-121362214D01*
X90137785Y-121222863D01*
X90137781Y-121222860D01*
X89973920Y-121113371D01*
X89973907Y-121113364D01*
X89791839Y-121037950D01*
X89791829Y-121037947D01*
X89598543Y-120999500D01*
X89598541Y-120999500D01*
X89401459Y-120999500D01*
X89401457Y-120999500D01*
X89208170Y-121037947D01*
X89208160Y-121037950D01*
X89026092Y-121113364D01*
X89026079Y-121113371D01*
X88862218Y-121222860D01*
X88862214Y-121222863D01*
X88722863Y-121362214D01*
X88722860Y-121362218D01*
X88613371Y-121526079D01*
X88613364Y-121526092D01*
X88537950Y-121708160D01*
X88537947Y-121708170D01*
X88499500Y-121901456D01*
X88499500Y-121901459D01*
X88499500Y-122098541D01*
X88499500Y-122098543D01*
X88499499Y-122098543D01*
X88537947Y-122291829D01*
X88537949Y-122291835D01*
X88557549Y-122339155D01*
X88566203Y-122360046D01*
X88573672Y-122429516D01*
X88542397Y-122491995D01*
X88482308Y-122527647D01*
X88419550Y-122527274D01*
X88315893Y-122499500D01*
X88315892Y-122499500D01*
X88184108Y-122499500D01*
X88056812Y-122533608D01*
X87942686Y-122599500D01*
X87942683Y-122599502D01*
X87849502Y-122692683D01*
X87849500Y-122692686D01*
X87783608Y-122806812D01*
X87749634Y-122933608D01*
X87749500Y-122934108D01*
X85544076Y-122934108D01*
X85528406Y-122896277D01*
X85528405Y-122896274D01*
X85416948Y-122703226D01*
X85310102Y-122563981D01*
X85281248Y-122526377D01*
X85281242Y-122526370D01*
X85123629Y-122368757D01*
X85123622Y-122368751D01*
X84946782Y-122233058D01*
X84946780Y-122233057D01*
X84946774Y-122233052D01*
X84753726Y-122121595D01*
X84753722Y-122121593D01*
X84547790Y-122036293D01*
X84547783Y-122036291D01*
X84547781Y-122036290D01*
X84332463Y-121978596D01*
X84332457Y-121978595D01*
X84332452Y-121978594D01*
X84111466Y-121949501D01*
X84111463Y-121949500D01*
X84111457Y-121949500D01*
X83888543Y-121949500D01*
X83888537Y-121949500D01*
X83888533Y-121949501D01*
X83667547Y-121978594D01*
X83667540Y-121978595D01*
X83667537Y-121978596D01*
X83585790Y-122000500D01*
X83452219Y-122036290D01*
X83452209Y-122036293D01*
X83246277Y-122121593D01*
X83246273Y-122121595D01*
X83053226Y-122233052D01*
X83053217Y-122233058D01*
X82876377Y-122368751D01*
X82876370Y-122368757D01*
X82718757Y-122526370D01*
X82718751Y-122526377D01*
X82583058Y-122703217D01*
X82583052Y-122703226D01*
X82471595Y-122896273D01*
X82471593Y-122896277D01*
X82386293Y-123102209D01*
X82386290Y-123102219D01*
X82329038Y-123315890D01*
X82328597Y-123317534D01*
X82328594Y-123317547D01*
X82299501Y-123538533D01*
X82299500Y-123538549D01*
X69470500Y-123538549D01*
X69470500Y-123538543D01*
X69441404Y-123317537D01*
X69383710Y-123102219D01*
X69368662Y-123065891D01*
X69341163Y-122999502D01*
X69298405Y-122896274D01*
X69186948Y-122703226D01*
X69080102Y-122563981D01*
X69051248Y-122526377D01*
X69051242Y-122526370D01*
X68893629Y-122368757D01*
X68893622Y-122368751D01*
X68716782Y-122233058D01*
X68716780Y-122233057D01*
X68716774Y-122233052D01*
X68523726Y-122121595D01*
X68523722Y-122121593D01*
X68317790Y-122036293D01*
X68317783Y-122036291D01*
X68317781Y-122036290D01*
X68102463Y-121978596D01*
X68102457Y-121978595D01*
X68102452Y-121978594D01*
X67881466Y-121949501D01*
X67881463Y-121949500D01*
X67881457Y-121949500D01*
X67658543Y-121949500D01*
X67658537Y-121949500D01*
X67658533Y-121949501D01*
X67437547Y-121978594D01*
X67437540Y-121978595D01*
X67437537Y-121978596D01*
X67355790Y-122000500D01*
X67222219Y-122036290D01*
X67222209Y-122036293D01*
X67016277Y-122121593D01*
X67016273Y-122121595D01*
X66823226Y-122233052D01*
X66823217Y-122233058D01*
X66699486Y-122328000D01*
X66634317Y-122353194D01*
X66565872Y-122339155D01*
X66515882Y-122290341D01*
X66500000Y-122229624D01*
X66500000Y-119884108D01*
X103499500Y-119884108D01*
X103499500Y-120015892D01*
X103516554Y-120079539D01*
X103533608Y-120143187D01*
X103566554Y-120200250D01*
X103599500Y-120257314D01*
X103692686Y-120350500D01*
X103806814Y-120416392D01*
X103934108Y-120450500D01*
X103934110Y-120450500D01*
X104065890Y-120450500D01*
X104065892Y-120450500D01*
X104193186Y-120416392D01*
X104307314Y-120350500D01*
X104400500Y-120257314D01*
X104466392Y-120143186D01*
X104500500Y-120015892D01*
X104500500Y-119884108D01*
X104466392Y-119756814D01*
X104400500Y-119642686D01*
X104307314Y-119549500D01*
X104250250Y-119516554D01*
X104193187Y-119483608D01*
X104129539Y-119466554D01*
X104065892Y-119449500D01*
X103934108Y-119449500D01*
X103806812Y-119483608D01*
X103692686Y-119549500D01*
X103692683Y-119549502D01*
X103599502Y-119642683D01*
X103599500Y-119642686D01*
X103533608Y-119756812D01*
X103499500Y-119884108D01*
X66500000Y-119884108D01*
X66500000Y-118720375D01*
X66519685Y-118653336D01*
X66572489Y-118607581D01*
X66641647Y-118597637D01*
X66699484Y-118621998D01*
X66823226Y-118716948D01*
X67016274Y-118828405D01*
X67222219Y-118913710D01*
X67437537Y-118971404D01*
X67658543Y-119000500D01*
X67658550Y-119000500D01*
X67881450Y-119000500D01*
X67881457Y-119000500D01*
X68102463Y-118971404D01*
X68317781Y-118913710D01*
X68523726Y-118828405D01*
X68716774Y-118716948D01*
X68893624Y-118581247D01*
X69051247Y-118423624D01*
X69186948Y-118246774D01*
X69298405Y-118053726D01*
X69383710Y-117847781D01*
X69441404Y-117632463D01*
X69470500Y-117411457D01*
X69470500Y-117188549D01*
X82299500Y-117188549D01*
X82299500Y-117411450D01*
X82299501Y-117411466D01*
X82328594Y-117632452D01*
X82328595Y-117632457D01*
X82328596Y-117632463D01*
X82372579Y-117796610D01*
X82386290Y-117847780D01*
X82386293Y-117847790D01*
X82471593Y-118053722D01*
X82471595Y-118053726D01*
X82583052Y-118246774D01*
X82583057Y-118246780D01*
X82583058Y-118246782D01*
X82718751Y-118423622D01*
X82718757Y-118423629D01*
X82876370Y-118581242D01*
X82876376Y-118581247D01*
X83053226Y-118716948D01*
X83246274Y-118828405D01*
X83452219Y-118913710D01*
X83667537Y-118971404D01*
X83888543Y-119000500D01*
X83888550Y-119000500D01*
X84111450Y-119000500D01*
X84111457Y-119000500D01*
X84332463Y-118971404D01*
X84547781Y-118913710D01*
X84753726Y-118828405D01*
X84946774Y-118716948D01*
X85123624Y-118581247D01*
X85281247Y-118423624D01*
X85416948Y-118246774D01*
X85528405Y-118053726D01*
X85613710Y-117847781D01*
X85671404Y-117632463D01*
X85678680Y-117577188D01*
X85706945Y-117513294D01*
X85765269Y-117474822D01*
X85833711Y-117473599D01*
X85934108Y-117500500D01*
X85934110Y-117500500D01*
X86065890Y-117500500D01*
X86065892Y-117500500D01*
X86193186Y-117466392D01*
X86307314Y-117400500D01*
X86400500Y-117307314D01*
X86466392Y-117193186D01*
X86491751Y-117098543D01*
X88499499Y-117098543D01*
X88537947Y-117291829D01*
X88537950Y-117291839D01*
X88613364Y-117473907D01*
X88613371Y-117473920D01*
X88722860Y-117637781D01*
X88722863Y-117637785D01*
X88862214Y-117777136D01*
X88862218Y-117777139D01*
X89026079Y-117886628D01*
X89026092Y-117886635D01*
X89180278Y-117950500D01*
X89208165Y-117962051D01*
X89208169Y-117962051D01*
X89208170Y-117962052D01*
X89407434Y-118001689D01*
X89407095Y-118003389D01*
X89464236Y-118026451D01*
X89504604Y-118083479D01*
X89507732Y-118153279D01*
X89507085Y-118155797D01*
X89499500Y-118184103D01*
X89499500Y-118184108D01*
X89499500Y-118315892D01*
X89516554Y-118379539D01*
X89533608Y-118443187D01*
X89566554Y-118500250D01*
X89599500Y-118557314D01*
X89692686Y-118650500D01*
X89806814Y-118716392D01*
X89934108Y-118750500D01*
X89934110Y-118750500D01*
X90065890Y-118750500D01*
X90065892Y-118750500D01*
X90193186Y-118716392D01*
X90307314Y-118650500D01*
X90400500Y-118557314D01*
X90466392Y-118443186D01*
X90468824Y-118434108D01*
X105999500Y-118434108D01*
X105999500Y-118565892D01*
X106014534Y-118621999D01*
X106033608Y-118693187D01*
X106066554Y-118750250D01*
X106099500Y-118807314D01*
X106192686Y-118900500D01*
X106306814Y-118966392D01*
X106434108Y-119000500D01*
X106434110Y-119000500D01*
X106565890Y-119000500D01*
X106565892Y-119000500D01*
X106693186Y-118966392D01*
X106807314Y-118900500D01*
X106900500Y-118807314D01*
X106966392Y-118693186D01*
X107000500Y-118565892D01*
X107000500Y-118434108D01*
X106966392Y-118306814D01*
X106900500Y-118192686D01*
X106807314Y-118099500D01*
X106733380Y-118056814D01*
X106693187Y-118033608D01*
X106628931Y-118016391D01*
X106565892Y-117999500D01*
X106434108Y-117999500D01*
X106306812Y-118033608D01*
X106192686Y-118099500D01*
X106192683Y-118099502D01*
X106099502Y-118192683D01*
X106099500Y-118192686D01*
X106033608Y-118306812D01*
X106027692Y-118328892D01*
X105999500Y-118434108D01*
X90468824Y-118434108D01*
X90500500Y-118315892D01*
X90500500Y-118184108D01*
X90466392Y-118056814D01*
X90400500Y-117942686D01*
X90307314Y-117849500D01*
X90293908Y-117841760D01*
X90245694Y-117791195D01*
X90232470Y-117722589D01*
X90258437Y-117657724D01*
X90268223Y-117646697D01*
X90277139Y-117637782D01*
X90386632Y-117473914D01*
X90386763Y-117473599D01*
X90435137Y-117356812D01*
X90462051Y-117291835D01*
X90500500Y-117098543D01*
X93499499Y-117098543D01*
X93537947Y-117291829D01*
X93537950Y-117291839D01*
X93613364Y-117473907D01*
X93613371Y-117473920D01*
X93722860Y-117637781D01*
X93722863Y-117637785D01*
X93862214Y-117777136D01*
X93862218Y-117777139D01*
X94026079Y-117886628D01*
X94026092Y-117886635D01*
X94180278Y-117950500D01*
X94208165Y-117962051D01*
X94208169Y-117962051D01*
X94208170Y-117962052D01*
X94401456Y-118000500D01*
X94401459Y-118000500D01*
X94598543Y-118000500D01*
X94728582Y-117974632D01*
X94791835Y-117962051D01*
X94973914Y-117886632D01*
X95137782Y-117777139D01*
X95277139Y-117637782D01*
X95379821Y-117484108D01*
X103499500Y-117484108D01*
X103499500Y-117615892D01*
X103505366Y-117637785D01*
X103533608Y-117743187D01*
X103549396Y-117770532D01*
X103599500Y-117857314D01*
X103692686Y-117950500D01*
X103806814Y-118016392D01*
X103934108Y-118050500D01*
X103934110Y-118050500D01*
X104065890Y-118050500D01*
X104065892Y-118050500D01*
X104193186Y-118016392D01*
X104307314Y-117950500D01*
X104400500Y-117857314D01*
X104435549Y-117796608D01*
X108999500Y-117796608D01*
X108999500Y-117928392D01*
X109005424Y-117950500D01*
X109033608Y-118055687D01*
X109034258Y-118056812D01*
X109099500Y-118169814D01*
X109192686Y-118263000D01*
X109306814Y-118328892D01*
X109434108Y-118363000D01*
X109434110Y-118363000D01*
X109565890Y-118363000D01*
X109565892Y-118363000D01*
X109693186Y-118328892D01*
X109807314Y-118263000D01*
X109900500Y-118169814D01*
X109966392Y-118055686D01*
X110000500Y-117928392D01*
X110000500Y-117796608D01*
X109966392Y-117669314D01*
X109959700Y-117657724D01*
X109945116Y-117632463D01*
X109900500Y-117555186D01*
X109807314Y-117462000D01*
X109719787Y-117411466D01*
X109693187Y-117396108D01*
X109629539Y-117379054D01*
X109565892Y-117362000D01*
X109434108Y-117362000D01*
X109306812Y-117396108D01*
X109192686Y-117462000D01*
X109192683Y-117462002D01*
X109099502Y-117555183D01*
X109099500Y-117555186D01*
X109033608Y-117669312D01*
X109019333Y-117722589D01*
X108999500Y-117796608D01*
X104435549Y-117796608D01*
X104466392Y-117743186D01*
X104500500Y-117615892D01*
X104500500Y-117484108D01*
X104466392Y-117356814D01*
X104400500Y-117242686D01*
X104307314Y-117149500D01*
X104250250Y-117116554D01*
X104193187Y-117083608D01*
X104127061Y-117065890D01*
X104065892Y-117049500D01*
X103934108Y-117049500D01*
X103806812Y-117083608D01*
X103692686Y-117149500D01*
X103692683Y-117149502D01*
X103599502Y-117242683D01*
X103599500Y-117242686D01*
X103533608Y-117356812D01*
X103518964Y-117411466D01*
X103499500Y-117484108D01*
X95379821Y-117484108D01*
X95386632Y-117473914D01*
X95462051Y-117291835D01*
X95500500Y-117098541D01*
X95500500Y-116901459D01*
X95500500Y-116901456D01*
X95462052Y-116708170D01*
X95462051Y-116708169D01*
X95462051Y-116708165D01*
X95460004Y-116703224D01*
X95386635Y-116526092D01*
X95386628Y-116526079D01*
X95277139Y-116362218D01*
X95277136Y-116362214D01*
X95137785Y-116222863D01*
X95137781Y-116222860D01*
X94973920Y-116113371D01*
X94973907Y-116113364D01*
X94938125Y-116098543D01*
X101499499Y-116098543D01*
X101537947Y-116291829D01*
X101537950Y-116291839D01*
X101613364Y-116473907D01*
X101613371Y-116473920D01*
X101722860Y-116637781D01*
X101722863Y-116637785D01*
X101862214Y-116777136D01*
X101862218Y-116777139D01*
X102026079Y-116886628D01*
X102026092Y-116886635D01*
X102208160Y-116962049D01*
X102208165Y-116962051D01*
X102208169Y-116962051D01*
X102208170Y-116962052D01*
X102401456Y-117000500D01*
X102401459Y-117000500D01*
X102598543Y-117000500D01*
X102764270Y-116967534D01*
X102791835Y-116962051D01*
X102973914Y-116886632D01*
X103137782Y-116777139D01*
X103277139Y-116637782D01*
X103386632Y-116473914D01*
X103462051Y-116291835D01*
X103485017Y-116176377D01*
X103500500Y-116098543D01*
X103500500Y-115901456D01*
X103462052Y-115708170D01*
X103462051Y-115708169D01*
X103462051Y-115708165D01*
X103462049Y-115708160D01*
X103386635Y-115526092D01*
X103386628Y-115526079D01*
X103277139Y-115362218D01*
X103277136Y-115362214D01*
X103137785Y-115222863D01*
X103137781Y-115222860D01*
X102973920Y-115113371D01*
X102973907Y-115113364D01*
X102798099Y-115040543D01*
X102798098Y-115040543D01*
X102791835Y-115037949D01*
X102791833Y-115037948D01*
X102791829Y-115037947D01*
X102598543Y-114999500D01*
X102598541Y-114999500D01*
X102401459Y-114999500D01*
X102401457Y-114999500D01*
X102208170Y-115037947D01*
X102208160Y-115037950D01*
X102026092Y-115113364D01*
X102026079Y-115113371D01*
X101862218Y-115222860D01*
X101862214Y-115222863D01*
X101722863Y-115362214D01*
X101722860Y-115362218D01*
X101613371Y-115526079D01*
X101613364Y-115526092D01*
X101537950Y-115708160D01*
X101537947Y-115708170D01*
X101499500Y-115901456D01*
X101499500Y-115901459D01*
X101499500Y-116098541D01*
X101499500Y-116098543D01*
X101499499Y-116098543D01*
X94938125Y-116098543D01*
X94791839Y-116037950D01*
X94791829Y-116037947D01*
X94686440Y-116016984D01*
X94598543Y-115999500D01*
X94598541Y-115999500D01*
X94401459Y-115999500D01*
X94401457Y-115999500D01*
X94208170Y-116037947D01*
X94208160Y-116037950D01*
X94026092Y-116113364D01*
X94026079Y-116113371D01*
X93862218Y-116222860D01*
X93862214Y-116222863D01*
X93722863Y-116362214D01*
X93722860Y-116362218D01*
X93613371Y-116526079D01*
X93613364Y-116526092D01*
X93537950Y-116708160D01*
X93537947Y-116708170D01*
X93499500Y-116901456D01*
X93499500Y-116901459D01*
X93499500Y-117098541D01*
X93499500Y-117098543D01*
X93499499Y-117098543D01*
X90500500Y-117098543D01*
X90500500Y-117098541D01*
X90500500Y-116901459D01*
X90500500Y-116901456D01*
X90462052Y-116708170D01*
X90462051Y-116708169D01*
X90462051Y-116708165D01*
X90460004Y-116703224D01*
X90386635Y-116526092D01*
X90386628Y-116526079D01*
X90277139Y-116362218D01*
X90277136Y-116362214D01*
X90137785Y-116222863D01*
X90137781Y-116222860D01*
X89973920Y-116113371D01*
X89973907Y-116113364D01*
X89791839Y-116037950D01*
X89791829Y-116037947D01*
X89598543Y-115999500D01*
X89598541Y-115999500D01*
X89401459Y-115999500D01*
X89401457Y-115999500D01*
X89208170Y-116037947D01*
X89208160Y-116037950D01*
X89026092Y-116113364D01*
X89026079Y-116113371D01*
X88862218Y-116222860D01*
X88862214Y-116222863D01*
X88722863Y-116362214D01*
X88722860Y-116362218D01*
X88613371Y-116526079D01*
X88613364Y-116526092D01*
X88537950Y-116708160D01*
X88537947Y-116708170D01*
X88499500Y-116901456D01*
X88499500Y-116901459D01*
X88499500Y-117098541D01*
X88499500Y-117098543D01*
X88499499Y-117098543D01*
X86491751Y-117098543D01*
X86500500Y-117065892D01*
X86500500Y-116934108D01*
X86466392Y-116806814D01*
X86400500Y-116692686D01*
X86307314Y-116599500D01*
X86219742Y-116548940D01*
X86193187Y-116533608D01*
X86129539Y-116516554D01*
X86065892Y-116499500D01*
X85934108Y-116499500D01*
X85806814Y-116533608D01*
X85806813Y-116533608D01*
X85806811Y-116533609D01*
X85806810Y-116533609D01*
X85699900Y-116595334D01*
X85632000Y-116611807D01*
X85565973Y-116588954D01*
X85531906Y-116548940D01*
X85530435Y-116549790D01*
X85486631Y-116473920D01*
X85416948Y-116353226D01*
X85281247Y-116176376D01*
X85281242Y-116176370D01*
X85123629Y-116018757D01*
X85123622Y-116018751D01*
X84946782Y-115883058D01*
X84946780Y-115883057D01*
X84946774Y-115883052D01*
X84753726Y-115771595D01*
X84753722Y-115771593D01*
X84547790Y-115686293D01*
X84547783Y-115686291D01*
X84547781Y-115686290D01*
X84332463Y-115628596D01*
X84332457Y-115628595D01*
X84332452Y-115628594D01*
X84111466Y-115599501D01*
X84111463Y-115599500D01*
X84111457Y-115599500D01*
X83888543Y-115599500D01*
X83888537Y-115599500D01*
X83888533Y-115599501D01*
X83667547Y-115628594D01*
X83667540Y-115628595D01*
X83667537Y-115628596D01*
X83452219Y-115686290D01*
X83452209Y-115686293D01*
X83246277Y-115771593D01*
X83246273Y-115771595D01*
X83053226Y-115883052D01*
X83053217Y-115883058D01*
X82876377Y-116018751D01*
X82876370Y-116018757D01*
X82718757Y-116176370D01*
X82718751Y-116176377D01*
X82583058Y-116353217D01*
X82583052Y-116353226D01*
X82471595Y-116546273D01*
X82471593Y-116546277D01*
X82386293Y-116752209D01*
X82386290Y-116752219D01*
X82330067Y-116962049D01*
X82328597Y-116967534D01*
X82328594Y-116967547D01*
X82299501Y-117188533D01*
X82299500Y-117188549D01*
X69470500Y-117188549D01*
X69470500Y-117188543D01*
X69441404Y-116967537D01*
X69383710Y-116752219D01*
X69298405Y-116546274D01*
X69186948Y-116353226D01*
X69051247Y-116176376D01*
X69051242Y-116176370D01*
X68893629Y-116018757D01*
X68893622Y-116018751D01*
X68716782Y-115883058D01*
X68716780Y-115883057D01*
X68716774Y-115883052D01*
X68523726Y-115771595D01*
X68523722Y-115771593D01*
X68317790Y-115686293D01*
X68317783Y-115686291D01*
X68317781Y-115686290D01*
X68102463Y-115628596D01*
X68102457Y-115628595D01*
X68102452Y-115628594D01*
X67881466Y-115599501D01*
X67881463Y-115599500D01*
X67881457Y-115599500D01*
X67658543Y-115599500D01*
X67658537Y-115599500D01*
X67658533Y-115599501D01*
X67437547Y-115628594D01*
X67437540Y-115628595D01*
X67437537Y-115628596D01*
X67222219Y-115686290D01*
X67222209Y-115686293D01*
X67016277Y-115771593D01*
X67016273Y-115771595D01*
X66823226Y-115883052D01*
X66823217Y-115883058D01*
X66699486Y-115978000D01*
X66634317Y-116003194D01*
X66565872Y-115989155D01*
X66515882Y-115940341D01*
X66500000Y-115879624D01*
X66500000Y-114934108D01*
X103499500Y-114934108D01*
X103499500Y-115065891D01*
X103533608Y-115193187D01*
X103550740Y-115222860D01*
X103599500Y-115307314D01*
X103692686Y-115400500D01*
X103806814Y-115466392D01*
X103934108Y-115500500D01*
X103934110Y-115500500D01*
X104065890Y-115500500D01*
X104065892Y-115500500D01*
X104193186Y-115466392D01*
X104307314Y-115400500D01*
X104400500Y-115307314D01*
X104466392Y-115193186D01*
X104500500Y-115065892D01*
X104500500Y-114934108D01*
X104466392Y-114806814D01*
X104400500Y-114692686D01*
X104307314Y-114599500D01*
X104202297Y-114538868D01*
X104193187Y-114533608D01*
X104129539Y-114516554D01*
X104065892Y-114499500D01*
X103934108Y-114499500D01*
X103806812Y-114533608D01*
X103692686Y-114599500D01*
X103692683Y-114599502D01*
X103599502Y-114692683D01*
X103599500Y-114692686D01*
X103533608Y-114806812D01*
X103499500Y-114934108D01*
X66500000Y-114934108D01*
X66500000Y-112624000D01*
X66519685Y-112556961D01*
X66572489Y-112511206D01*
X66624000Y-112500000D01*
X88325516Y-112500000D01*
X88392555Y-112519685D01*
G37*
%TD.AperFunction*%
%TD*%
M02*
