%TF.GenerationSoftware,KiCad,Pcbnew,9.0.4*%
%TF.CreationDate,2025-09-24T19:41:08-07:00*%
%TF.ProjectId,LE_FRONTEND,4c455f46-524f-44e5-9445-4e442e6b6963,rev?*%
%TF.SameCoordinates,Original*%
%TF.FileFunction,Copper,L4,Inr*%
%TF.FilePolarity,Positive*%
%FSLAX46Y46*%
G04 Gerber Fmt 4.6, Leading zero omitted, Abs format (unit mm)*
G04 Created by KiCad (PCBNEW 9.0.4) date 2025-09-24 19:41:08*
%MOMM*%
%LPD*%
G01*
G04 APERTURE LIST*
%TA.AperFunction,ComponentPad*%
%ADD10R,1.700000X1.700000*%
%TD*%
%TA.AperFunction,ComponentPad*%
%ADD11C,1.700000*%
%TD*%
%TA.AperFunction,ComponentPad*%
%ADD12C,1.600000*%
%TD*%
%TA.AperFunction,ComponentPad*%
%ADD13C,3.000000*%
%TD*%
%TA.AperFunction,ViaPad*%
%ADD14C,0.600000*%
%TD*%
%TA.AperFunction,Conductor*%
%ADD15C,0.200000*%
%TD*%
G04 APERTURE END LIST*
D10*
%TO.N,/SCK*%
%TO.C,J3*%
X112500000Y-146580000D03*
D11*
%TO.N,/{slash}CS*%
X112500000Y-144040000D03*
%TO.N,/SDI*%
X112500000Y-141500000D03*
%TO.N,/SDO*%
X112500000Y-138960000D03*
%TO.N,/{slash}IRQ*%
X112500000Y-136420000D03*
%TO.N,/MCLK*%
X112500000Y-133880000D03*
%TO.N,+3V3_DIG*%
X112500000Y-131340000D03*
%TO.N,Vin*%
X112500000Y-128800000D03*
%TO.N,GND*%
X112500000Y-126260000D03*
%TD*%
D12*
%TO.N,GND*%
%TO.C,C2*%
X94500000Y-117000000D03*
%TO.N,/IN+*%
X94500000Y-122000000D03*
%TD*%
D13*
%TO.N,N/C*%
%TO.C,J5*%
X67770000Y-151500000D03*
X84000000Y-151500000D03*
%TO.N,GND*%
X67770000Y-157850000D03*
%TO.N,N/C*%
X84000000Y-157850000D03*
%TO.N,/OUTPUT_SIG*%
X67770000Y-145150000D03*
%TO.N,N/C*%
X84000000Y-145150000D03*
%TD*%
D12*
%TO.N,GND*%
%TO.C,C21*%
X90750000Y-156500000D03*
%TO.N,/U1_INPUT_SIG*%
X90750000Y-151500000D03*
%TD*%
%TO.N,/U1_OUTPUT_SIG*%
%TO.C,C24*%
X95750000Y-151500000D03*
%TO.N,/OUTPUT_SIG*%
X95750000Y-156500000D03*
%TD*%
D13*
%TO.N,N/C*%
%TO.C,J1*%
X84000000Y-123650000D03*
X67770000Y-123650000D03*
%TO.N,GND*%
X84000000Y-117300000D03*
%TO.N,N/C*%
X67770000Y-117300000D03*
%TO.N,/POS_INPUT_SIG*%
X84000000Y-130000000D03*
%TO.N,N/C*%
X67770000Y-130000000D03*
%TD*%
D12*
%TO.N,/POS_INPUT_SIG*%
%TO.C,C1*%
X89500000Y-122000000D03*
%TO.N,Net-(U9A-+)*%
X89500000Y-117000000D03*
%TD*%
D10*
%TO.N,/Neg_input_Header*%
%TO.C,J2*%
X89500000Y-113500000D03*
%TD*%
D12*
%TO.N,GND*%
%TO.C,C3*%
X102500000Y-116000000D03*
%TO.N,/IN-*%
X102500000Y-121000000D03*
%TD*%
D10*
%TO.N,GND*%
%TO.C,J6*%
X94500000Y-113500000D03*
%TD*%
D14*
%TO.N,+3V3_Analog*%
X75500000Y-120000000D03*
X75000000Y-158000000D03*
X113500000Y-117000000D03*
X82500000Y-136250000D03*
X104000000Y-148800000D03*
X105200000Y-116600000D03*
X105600000Y-121000000D03*
X86750000Y-158250000D03*
X98400000Y-126400000D03*
X103000000Y-134600000D03*
X105600000Y-126500000D03*
X91810000Y-144475000D03*
X98050000Y-139500000D03*
X79000000Y-130500000D03*
X98500000Y-122400000D03*
X91810000Y-134950000D03*
X105600000Y-123750000D03*
X100250000Y-148750000D03*
X93500000Y-132500000D03*
X86000000Y-119750000D03*
X106500000Y-120050000D03*
X86000000Y-122600000D03*
X110000000Y-150400000D03*
X82250000Y-149000000D03*
X97000000Y-137250000D03*
X76750000Y-141250000D03*
X93500000Y-134500000D03*
X109500000Y-121100000D03*
X82500000Y-138500000D03*
X103000000Y-139000000D03*
X99400000Y-117800000D03*
%TO.N,GND*%
X107225000Y-123400000D03*
X97250000Y-123250000D03*
X101500000Y-135200000D03*
X96004952Y-152774758D03*
X105600000Y-153000000D03*
X106500000Y-118500000D03*
X75500000Y-131000000D03*
X108134761Y-144122205D03*
X99000000Y-141200000D03*
X107900000Y-140500000D03*
X95300000Y-139500000D03*
X101000000Y-127750000D03*
X74000000Y-145000000D03*
X86000000Y-117000000D03*
X108000000Y-113500000D03*
X104000000Y-119950000D03*
X101950000Y-142500000D03*
X109400000Y-145200000D03*
X70000000Y-158000000D03*
X109500000Y-117862500D03*
X87357772Y-128465544D03*
X89699999Y-123284524D03*
X79000000Y-138000000D03*
X95573514Y-149474986D03*
X108000000Y-153000000D03*
X103200000Y-158000000D03*
X103200000Y-153000000D03*
X104000000Y-122350000D03*
X109463677Y-147984853D03*
X89250000Y-146250000D03*
X113300000Y-122700000D03*
X79000000Y-143850000D03*
X97250000Y-144500000D03*
X104000000Y-115000000D03*
X85500000Y-143500000D03*
X110400000Y-158000000D03*
X101500000Y-137600000D03*
X96500000Y-113199997D03*
X101500000Y-140000000D03*
X104000000Y-117550000D03*
X103500000Y-132750000D03*
X108000000Y-158000000D03*
X110400000Y-153000000D03*
X104000000Y-124750000D03*
X86853108Y-139457432D03*
X100500000Y-132650000D03*
X105600000Y-158000000D03*
X80000000Y-128100000D03*
X79500000Y-134000000D03*
%TO.N,/U1_REFERENCE_NON-INVERTING*%
X80999228Y-137251070D03*
X89270000Y-138500000D03*
X86497017Y-138741051D03*
%TO.N,/IN+*%
X97500000Y-135000000D03*
X96100000Y-127000000D03*
%TO.N,/IN-*%
X100500000Y-135000000D03*
X102500000Y-126500000D03*
%TO.N,/U9_input_neg*%
X87000000Y-127750000D03*
X87000000Y-134250000D03*
%TO.N,/POS_INPUT_SIG*%
X88250000Y-123000000D03*
X79000000Y-127500000D03*
%TO.N,/Neg_input_Header*%
X90000000Y-126750000D03*
X96500000Y-114000000D03*
%TO.N,/VOUT*%
X99500000Y-143100000D03*
X97750000Y-148000000D03*
%TO.N,/SDO*%
X108500000Y-145000000D03*
%TO.N,/SCK*%
X108100000Y-138200000D03*
X108496338Y-143185267D03*
%TO.N,/SDI*%
X108500000Y-141300003D03*
%TO.N,/{slash}CS*%
X108500000Y-147700000D03*
%TO.N,Net-(U9A-+)*%
X89772501Y-128522501D03*
X92500000Y-136500000D03*
X90000000Y-118250000D03*
%TO.N,/2V5*%
X97502983Y-143741051D03*
X81100000Y-145750000D03*
%TO.N,/1V2*%
X91250000Y-139525000D03*
X86500000Y-137250000D03*
X93000000Y-137750000D03*
%TO.N,Net-(U5-\u002ACS)*%
X104500000Y-147500000D03*
X99641987Y-141900000D03*
%TO.N,/U1_INPUT_SIG*%
X89500000Y-150000000D03*
X88000000Y-146250000D03*
X94250000Y-148750000D03*
%TO.N,/U1_OUTPUT_SIG*%
X90750000Y-146500000D03*
X94066040Y-150933960D03*
%TO.N,/U9_output_neg*%
X92500000Y-124750000D03*
X90000000Y-133600000D03*
X100000000Y-124000000D03*
%TO.N,/OUTPUT_SIG*%
X96100000Y-146493675D03*
X70800000Y-147750000D03*
%TO.N,/U9_output_pos*%
X92575000Y-130000000D03*
X94500000Y-127000000D03*
%TD*%
D15*
%TO.N,/Neg_input_Header*%
X90000000Y-126750000D02*
X90000000Y-126000000D01*
X90000000Y-126000000D02*
X91250000Y-124750000D01*
X91250000Y-124750000D02*
X91250000Y-115250000D01*
%TO.N,/U9_output_neg*%
X95250000Y-125750000D02*
X95250000Y-128350000D01*
X95250000Y-128350000D02*
X90000000Y-133600000D01*
X95606253Y-125750000D02*
X95250000Y-125750000D01*
X97356253Y-124000000D02*
X95606253Y-125750000D01*
X100000000Y-124000000D02*
X97356253Y-124000000D01*
%TO.N,/1V2*%
X92954347Y-137750000D02*
X93000000Y-137750000D01*
X91637247Y-139067100D02*
X92954347Y-137750000D01*
X91250000Y-139067100D02*
X91637247Y-139067100D01*
%TO.N,GND*%
X97500000Y-150811376D02*
X97500000Y-153250000D01*
X96549940Y-113199997D02*
X96500000Y-113199997D01*
X89250000Y-146966450D02*
X89250000Y-146250000D01*
X69850000Y-157850000D02*
X70000000Y-158000000D01*
X95500000Y-155250000D02*
X92000000Y-155250000D01*
X96500000Y-113199997D02*
X96050003Y-113199997D01*
X96004952Y-152774758D02*
X96004952Y-152896518D01*
X80000000Y-128100000D02*
X80199000Y-127901000D01*
X95533550Y-153250000D02*
X89250000Y-146966450D01*
X95750000Y-113500000D02*
X94500000Y-113500000D01*
X80199000Y-127901000D02*
X85083523Y-127901000D01*
X96050003Y-113199997D02*
X95750000Y-113500000D01*
X96163610Y-149474986D02*
X97500000Y-150811376D01*
X92000000Y-155250000D02*
X90750000Y-156500000D01*
X85083523Y-127901000D02*
X89699999Y-123284524D01*
X97500000Y-153250000D02*
X95500000Y-155250000D01*
X95651470Y-153250000D02*
X95533550Y-153250000D01*
X96004952Y-152896518D02*
X95651470Y-153250000D01*
X95573514Y-149474986D02*
X96163610Y-149474986D01*
%TO.N,/U1_REFERENCE_NON-INVERTING*%
X83001070Y-137251070D02*
X80999228Y-137251070D01*
X84475000Y-138725000D02*
X83001070Y-137251070D01*
X89270000Y-138500000D02*
X88770000Y-138000000D01*
X86480966Y-138725000D02*
X84475000Y-138725000D01*
X88770000Y-138000000D02*
X87238068Y-138000000D01*
X87238068Y-138000000D02*
X86497017Y-138741051D01*
X86497017Y-138741051D02*
X86480966Y-138725000D01*
%TO.N,/IN+*%
X96000000Y-133500000D02*
X97500000Y-135000000D01*
X96100000Y-127000000D02*
X96000000Y-127100000D01*
X96000000Y-127100000D02*
X96000000Y-133500000D01*
%TO.N,/IN-*%
X102500000Y-126500000D02*
X102500000Y-128246612D01*
X102500000Y-128246612D02*
X102000000Y-128746612D01*
X102000000Y-133500000D02*
X100500000Y-135000000D01*
X102000000Y-128746612D02*
X102000000Y-133500000D01*
%TO.N,/U9_input_neg*%
X86750000Y-128000000D02*
X86750000Y-134000000D01*
X87000000Y-127750000D02*
X86750000Y-128000000D01*
X86750000Y-134000000D02*
X87000000Y-134250000D01*
%TO.N,/POS_INPUT_SIG*%
X88250000Y-123000000D02*
X83750000Y-127500000D01*
X83750000Y-127500000D02*
X79000000Y-127500000D01*
%TO.N,/Neg_input_Header*%
X95250000Y-115250000D02*
X96500000Y-114000000D01*
X91250000Y-115250000D02*
X89500000Y-113500000D01*
X91250000Y-115250000D02*
X95250000Y-115250000D01*
%TO.N,/VOUT*%
X97750000Y-144850000D02*
X97750000Y-148000000D01*
X99500000Y-143100000D02*
X97750000Y-144850000D01*
%TO.N,/SDO*%
X108500000Y-145000000D02*
X108549940Y-145000000D01*
X112860000Y-138960000D02*
X112500000Y-138960000D01*
%TO.N,/SDI*%
X108500000Y-141300003D02*
X108699997Y-141500000D01*
%TO.N,/{slash}CS*%
X112500000Y-144750000D02*
X112500000Y-144000000D01*
%TO.N,Net-(U9A-+)*%
X88899000Y-125101000D02*
X90788775Y-123211225D01*
X92500000Y-136500000D02*
X89250000Y-136500000D01*
X90788775Y-123211225D02*
X90788775Y-119038775D01*
X89250000Y-136500000D02*
X88750000Y-136000000D01*
X89750000Y-128545002D02*
X89772501Y-128522501D01*
X88750000Y-132250000D02*
X89750000Y-131250000D01*
X89772501Y-128522501D02*
X89397501Y-128522501D01*
X89397501Y-128522501D02*
X88899000Y-128024000D01*
X88899000Y-128024000D02*
X88899000Y-125101000D01*
X88750000Y-136000000D02*
X88750000Y-132250000D01*
X89750000Y-131250000D02*
X89750000Y-128545002D01*
X90788775Y-119038775D02*
X90000000Y-118250000D01*
%TO.N,/1V2*%
X91250000Y-139525000D02*
X91250000Y-139067100D01*
%TO.N,/U1_INPUT_SIG*%
X96998659Y-151093642D02*
X96151729Y-150246712D01*
X94972514Y-149723929D02*
X94972514Y-149722514D01*
X88000000Y-146750000D02*
X90250000Y-149000000D01*
X96998659Y-152751341D02*
X96998659Y-151093642D01*
X95125000Y-153875000D02*
X95875000Y-153875000D01*
X88000000Y-146250000D02*
X88000000Y-146750000D01*
X95496712Y-150246712D02*
X95325986Y-150075986D01*
X94972514Y-149722514D02*
X94250000Y-149000000D01*
X95325986Y-150075986D02*
X95324571Y-150075986D01*
X95324571Y-150075986D02*
X94972514Y-149723929D01*
X96151729Y-150246712D02*
X95496712Y-150246712D01*
X95875000Y-153875000D02*
X96998659Y-152751341D01*
X94250000Y-149000000D02*
X94250000Y-148750000D01*
X90250000Y-149000000D02*
X95125000Y-153875000D01*
%TO.N,/U1_OUTPUT_SIG*%
X90600000Y-147600000D02*
X90600000Y-146650000D01*
X90600000Y-146650000D02*
X90750000Y-146500000D01*
X93933960Y-150933960D02*
X90600000Y-147600000D01*
X94066040Y-150933960D02*
X93933960Y-150933960D01*
%TO.N,/U9_output_neg*%
X95250000Y-125750000D02*
X94250000Y-124750000D01*
X94250000Y-124750000D02*
X92500000Y-124750000D01*
%TO.N,/OUTPUT_SIG*%
X98000000Y-153750000D02*
X95750000Y-156000000D01*
X95750000Y-156000000D02*
X95750000Y-156500000D01*
X94500000Y-157750000D02*
X95750000Y-156500000D01*
X96100000Y-146493675D02*
X96100000Y-148600000D01*
X86000000Y-155250000D02*
X88500000Y-157750000D01*
X70800000Y-147750000D02*
X70950000Y-147750000D01*
X98000000Y-150500000D02*
X98000000Y-153750000D01*
X78450000Y-155250000D02*
X86000000Y-155250000D01*
X96100000Y-148600000D02*
X98000000Y-150500000D01*
X88500000Y-157750000D02*
X94500000Y-157750000D01*
X70950000Y-147750000D02*
X78450000Y-155250000D01*
%TO.N,/U9_output_pos*%
X94500000Y-128000000D02*
X94500000Y-127000000D01*
X92575000Y-129925000D02*
X94500000Y-128000000D01*
X92575000Y-130000000D02*
X92575000Y-129925000D01*
%TO.N,/U1_INPUT_SIG*%
X89500000Y-150000000D02*
X90250000Y-149250000D01*
X90250000Y-149250000D02*
X90250000Y-149000000D01*
%TO.N,/1V2*%
X89432900Y-137250000D02*
X86500000Y-137250000D01*
X91250000Y-139067100D02*
X89432900Y-137250000D01*
%TD*%
%TA.AperFunction,Conductor*%
%TO.N,+3V3_Analog*%
G36*
X88092539Y-112519685D02*
G01*
X88138294Y-112572489D01*
X88149500Y-112624000D01*
X88149500Y-114397870D01*
X88149501Y-114397876D01*
X88155908Y-114457483D01*
X88206202Y-114592328D01*
X88206206Y-114592335D01*
X88292452Y-114707544D01*
X88292455Y-114707547D01*
X88407664Y-114793793D01*
X88407671Y-114793797D01*
X88542517Y-114844091D01*
X88542516Y-114844091D01*
X88549444Y-114844835D01*
X88602127Y-114850500D01*
X89949901Y-114850499D01*
X90016940Y-114870184D01*
X90037582Y-114886818D01*
X90613181Y-115462416D01*
X90646666Y-115523739D01*
X90649500Y-115550097D01*
X90649500Y-116010953D01*
X90629815Y-116077992D01*
X90577011Y-116123747D01*
X90507853Y-116133691D01*
X90444297Y-116104666D01*
X90437819Y-116098634D01*
X90347213Y-116008028D01*
X90181613Y-115887715D01*
X90181612Y-115887714D01*
X90181610Y-115887713D01*
X90122237Y-115857461D01*
X89999223Y-115794781D01*
X89804534Y-115731522D01*
X89629995Y-115703878D01*
X89602352Y-115699500D01*
X89397648Y-115699500D01*
X89373329Y-115703351D01*
X89195465Y-115731522D01*
X89000776Y-115794781D01*
X88818386Y-115887715D01*
X88652786Y-116008028D01*
X88508028Y-116152786D01*
X88387715Y-116318386D01*
X88294781Y-116500776D01*
X88231522Y-116695465D01*
X88199500Y-116897648D01*
X88199500Y-117102351D01*
X88231522Y-117304534D01*
X88294781Y-117499223D01*
X88387715Y-117681613D01*
X88508028Y-117847213D01*
X88652786Y-117991971D01*
X88795974Y-118096001D01*
X88818390Y-118112287D01*
X89000781Y-118205220D01*
X89117820Y-118243248D01*
X89175496Y-118282685D01*
X89201119Y-118336987D01*
X89230261Y-118483491D01*
X89230264Y-118483501D01*
X89290602Y-118629172D01*
X89290609Y-118629185D01*
X89378210Y-118760288D01*
X89378213Y-118760292D01*
X89489707Y-118871786D01*
X89489711Y-118871789D01*
X89620814Y-118959390D01*
X89620827Y-118959397D01*
X89766498Y-119019735D01*
X89766503Y-119019737D01*
X89831147Y-119032595D01*
X89921849Y-119050638D01*
X89938605Y-119059402D01*
X89957085Y-119063423D01*
X89982123Y-119082167D01*
X89983760Y-119083023D01*
X89985339Y-119084574D01*
X90151956Y-119251191D01*
X90185441Y-119312514D01*
X90188275Y-119338872D01*
X90188275Y-120688758D01*
X90168590Y-120755797D01*
X90115786Y-120801552D01*
X90046628Y-120811496D01*
X90007986Y-120799246D01*
X89999224Y-120794782D01*
X89999221Y-120794781D01*
X89999219Y-120794780D01*
X89926500Y-120771152D01*
X89804534Y-120731522D01*
X89629995Y-120703878D01*
X89602352Y-120699500D01*
X89397648Y-120699500D01*
X89373329Y-120703351D01*
X89195465Y-120731522D01*
X89000776Y-120794781D01*
X88818386Y-120887715D01*
X88652786Y-121008028D01*
X88508028Y-121152786D01*
X88387715Y-121318386D01*
X88294781Y-121500776D01*
X88231522Y-121695465D01*
X88199500Y-121897648D01*
X88199500Y-122092098D01*
X88179815Y-122159137D01*
X88127011Y-122204892D01*
X88099692Y-122213715D01*
X88016508Y-122230261D01*
X88016498Y-122230264D01*
X87870827Y-122290602D01*
X87870814Y-122290609D01*
X87739711Y-122378210D01*
X87739707Y-122378213D01*
X87628213Y-122489707D01*
X87628210Y-122489711D01*
X87540609Y-122620814D01*
X87540602Y-122620827D01*
X87480264Y-122766498D01*
X87480261Y-122766508D01*
X87449361Y-122921850D01*
X87416976Y-122983761D01*
X87415425Y-122985339D01*
X86149513Y-124251250D01*
X86088190Y-124284735D01*
X86018498Y-124279751D01*
X85962565Y-124237879D01*
X85938148Y-124172415D01*
X85942056Y-124131483D01*
X85966270Y-124041116D01*
X86000500Y-123781120D01*
X86000500Y-123518880D01*
X85966270Y-123258884D01*
X85898398Y-123005581D01*
X85892761Y-122991971D01*
X85798046Y-122763309D01*
X85798041Y-122763299D01*
X85666924Y-122536196D01*
X85507281Y-122328148D01*
X85507274Y-122328140D01*
X85321860Y-122142726D01*
X85321851Y-122142718D01*
X85113803Y-121983075D01*
X84886700Y-121851958D01*
X84886690Y-121851953D01*
X84644428Y-121751605D01*
X84644421Y-121751603D01*
X84644419Y-121751602D01*
X84391116Y-121683730D01*
X84333339Y-121676123D01*
X84131127Y-121649500D01*
X84131120Y-121649500D01*
X83868880Y-121649500D01*
X83868872Y-121649500D01*
X83637772Y-121679926D01*
X83608884Y-121683730D01*
X83355581Y-121751602D01*
X83355571Y-121751605D01*
X83113309Y-121851953D01*
X83113299Y-121851958D01*
X82886196Y-121983075D01*
X82678148Y-122142718D01*
X82492718Y-122328148D01*
X82333075Y-122536196D01*
X82201958Y-122763299D01*
X82201953Y-122763309D01*
X82101605Y-123005571D01*
X82101602Y-123005581D01*
X82041400Y-123230261D01*
X82033730Y-123258885D01*
X81999500Y-123518872D01*
X81999500Y-123781127D01*
X82016506Y-123910289D01*
X82033730Y-124041116D01*
X82099007Y-124284735D01*
X82101602Y-124294418D01*
X82101605Y-124294428D01*
X82201953Y-124536690D01*
X82201958Y-124536700D01*
X82333075Y-124763803D01*
X82492718Y-124971851D01*
X82492726Y-124971860D01*
X82678140Y-125157274D01*
X82678148Y-125157281D01*
X82678149Y-125157282D01*
X82715914Y-125186260D01*
X82886196Y-125316924D01*
X83113299Y-125448041D01*
X83113309Y-125448046D01*
X83323858Y-125535258D01*
X83355581Y-125548398D01*
X83608884Y-125616270D01*
X83868880Y-125650500D01*
X83868887Y-125650500D01*
X84131113Y-125650500D01*
X84131120Y-125650500D01*
X84391116Y-125616270D01*
X84481480Y-125592057D01*
X84551324Y-125593720D01*
X84609187Y-125632882D01*
X84636692Y-125697110D01*
X84625106Y-125766012D01*
X84601250Y-125799513D01*
X83537584Y-126863181D01*
X83476261Y-126896666D01*
X83449903Y-126899500D01*
X79579766Y-126899500D01*
X79512727Y-126879815D01*
X79510875Y-126878602D01*
X79379185Y-126790609D01*
X79379172Y-126790602D01*
X79233501Y-126730264D01*
X79233489Y-126730261D01*
X79078845Y-126699500D01*
X79078842Y-126699500D01*
X78921158Y-126699500D01*
X78921155Y-126699500D01*
X78766510Y-126730261D01*
X78766498Y-126730264D01*
X78620827Y-126790602D01*
X78620814Y-126790609D01*
X78489711Y-126878210D01*
X78489707Y-126878213D01*
X78378213Y-126989707D01*
X78378210Y-126989711D01*
X78290609Y-127120814D01*
X78290602Y-127120827D01*
X78230264Y-127266498D01*
X78230261Y-127266510D01*
X78199500Y-127421153D01*
X78199500Y-127578846D01*
X78230261Y-127733489D01*
X78230264Y-127733501D01*
X78290602Y-127879172D01*
X78290609Y-127879185D01*
X78378210Y-128010288D01*
X78378213Y-128010292D01*
X78489707Y-128121786D01*
X78489711Y-128121789D01*
X78620814Y-128209390D01*
X78620827Y-128209397D01*
X78757698Y-128266090D01*
X78766503Y-128269737D01*
X78893699Y-128295038D01*
X78921153Y-128300499D01*
X78921156Y-128300500D01*
X78921158Y-128300500D01*
X79078841Y-128300500D01*
X79078842Y-128300500D01*
X79106299Y-128295038D01*
X79175888Y-128301264D01*
X79231067Y-128344125D01*
X79245052Y-128369202D01*
X79290604Y-128479176D01*
X79290609Y-128479185D01*
X79378210Y-128610288D01*
X79378213Y-128610292D01*
X79489707Y-128721786D01*
X79489711Y-128721789D01*
X79620814Y-128809390D01*
X79620827Y-128809397D01*
X79766498Y-128869735D01*
X79766503Y-128869737D01*
X79874490Y-128891217D01*
X79921153Y-128900499D01*
X79921156Y-128900500D01*
X79921158Y-128900500D01*
X80078844Y-128900500D01*
X80078845Y-128900499D01*
X80233497Y-128869737D01*
X80379179Y-128809394D01*
X80510289Y-128721789D01*
X80621789Y-128610289D01*
X80657657Y-128556608D01*
X80711269Y-128511804D01*
X80760759Y-128501500D01*
X82376819Y-128501500D01*
X82443858Y-128521185D01*
X82489613Y-128573989D01*
X82499557Y-128643147D01*
X82475194Y-128700987D01*
X82333075Y-128886196D01*
X82201958Y-129113299D01*
X82201953Y-129113309D01*
X82101605Y-129355571D01*
X82101603Y-129355578D01*
X82101602Y-129355581D01*
X82033730Y-129608884D01*
X82032158Y-129620827D01*
X81999500Y-129868872D01*
X81999500Y-130131127D01*
X82026123Y-130333339D01*
X82033730Y-130391116D01*
X82101602Y-130644418D01*
X82101605Y-130644428D01*
X82201953Y-130886690D01*
X82201958Y-130886700D01*
X82333075Y-131113803D01*
X82492718Y-131321851D01*
X82492726Y-131321860D01*
X82678140Y-131507274D01*
X82678148Y-131507281D01*
X82678149Y-131507282D01*
X82682068Y-131510289D01*
X82886196Y-131666924D01*
X83113299Y-131798041D01*
X83113309Y-131798046D01*
X83314259Y-131881282D01*
X83355581Y-131898398D01*
X83608884Y-131966270D01*
X83868880Y-132000500D01*
X83868887Y-132000500D01*
X84131113Y-132000500D01*
X84131120Y-132000500D01*
X84391116Y-131966270D01*
X84644419Y-131898398D01*
X84821340Y-131825114D01*
X84886690Y-131798046D01*
X84886691Y-131798045D01*
X84886697Y-131798043D01*
X85113803Y-131666924D01*
X85321851Y-131507282D01*
X85321855Y-131507277D01*
X85321860Y-131507274D01*
X85507274Y-131321860D01*
X85507277Y-131321855D01*
X85507282Y-131321851D01*
X85666924Y-131113803D01*
X85798043Y-130886697D01*
X85805948Y-130867614D01*
X85858143Y-130741602D01*
X85898398Y-130644419D01*
X85905726Y-130617070D01*
X85942089Y-130557412D01*
X86004936Y-130526882D01*
X86074312Y-130535176D01*
X86128190Y-130579661D01*
X86149465Y-130646213D01*
X86149500Y-130649165D01*
X86149500Y-133913330D01*
X86149499Y-133913348D01*
X86149499Y-134079054D01*
X86149498Y-134079054D01*
X86166605Y-134142899D01*
X86190015Y-134230264D01*
X86192527Y-134239636D01*
X86191832Y-134239821D01*
X86199500Y-134278364D01*
X86199500Y-134328846D01*
X86230261Y-134483489D01*
X86230264Y-134483501D01*
X86290602Y-134629172D01*
X86290609Y-134629185D01*
X86378210Y-134760288D01*
X86378213Y-134760292D01*
X86489707Y-134871786D01*
X86489711Y-134871789D01*
X86620814Y-134959390D01*
X86620827Y-134959397D01*
X86754246Y-135014660D01*
X86766503Y-135019737D01*
X86912285Y-135048735D01*
X86921153Y-135050499D01*
X86921156Y-135050500D01*
X86921158Y-135050500D01*
X87078844Y-135050500D01*
X87078845Y-135050499D01*
X87233497Y-135019737D01*
X87379179Y-134959394D01*
X87510289Y-134871789D01*
X87621789Y-134760289D01*
X87709394Y-134629179D01*
X87712854Y-134620827D01*
X87735432Y-134566317D01*
X87769737Y-134483497D01*
X87800500Y-134328842D01*
X87800500Y-134171158D01*
X87800500Y-134171155D01*
X87800499Y-134171153D01*
X87769738Y-134016510D01*
X87769737Y-134016503D01*
X87769735Y-134016498D01*
X87709397Y-133870827D01*
X87709390Y-133870814D01*
X87621789Y-133739711D01*
X87621786Y-133739707D01*
X87510289Y-133628210D01*
X87405609Y-133558266D01*
X87360804Y-133504654D01*
X87350500Y-133455164D01*
X87350500Y-129384937D01*
X87370185Y-129317898D01*
X87422989Y-129272143D01*
X87450309Y-129263320D01*
X87474624Y-129258483D01*
X87591269Y-129235281D01*
X87736951Y-129174938D01*
X87868061Y-129087333D01*
X87979561Y-128975833D01*
X88067166Y-128844723D01*
X88070351Y-128837035D01*
X88103920Y-128755990D01*
X88127509Y-128699041D01*
X88158272Y-128544386D01*
X88158272Y-128404796D01*
X88177957Y-128337757D01*
X88230761Y-128292002D01*
X88299919Y-128282058D01*
X88363475Y-128311083D01*
X88389659Y-128342796D01*
X88399299Y-128359493D01*
X88418479Y-128392715D01*
X88537349Y-128511585D01*
X88537355Y-128511590D01*
X88912640Y-128886875D01*
X88912650Y-128886886D01*
X88916980Y-128891216D01*
X88916981Y-128891217D01*
X89028785Y-129003021D01*
X89087499Y-129036919D01*
X89135715Y-129087484D01*
X89149500Y-129144306D01*
X89149500Y-130949902D01*
X89129815Y-131016941D01*
X89113181Y-131037583D01*
X88269481Y-131881282D01*
X88269479Y-131881284D01*
X88259599Y-131898398D01*
X88235231Y-131940606D01*
X88190423Y-132018215D01*
X88149499Y-132170943D01*
X88149499Y-132170945D01*
X88149499Y-132339046D01*
X88149500Y-132339059D01*
X88149500Y-135913330D01*
X88149499Y-135913348D01*
X88149499Y-136079054D01*
X88149498Y-136079054D01*
X88149499Y-136079057D01*
X88190423Y-136231785D01*
X88210468Y-136266503D01*
X88269480Y-136368716D01*
X88344805Y-136444041D01*
X88350084Y-136451076D01*
X88359371Y-136475890D01*
X88372068Y-136499142D01*
X88371427Y-136508100D01*
X88374576Y-136516513D01*
X88368973Y-136542407D01*
X88367084Y-136568834D01*
X88361701Y-136576024D01*
X88359802Y-136584803D01*
X88341088Y-136603558D01*
X88325212Y-136624767D01*
X88316796Y-136627905D01*
X88310453Y-136634264D01*
X88284571Y-136639925D01*
X88259748Y-136649184D01*
X88250902Y-136649500D01*
X87079766Y-136649500D01*
X87012727Y-136629815D01*
X87010875Y-136628602D01*
X86879185Y-136540609D01*
X86879172Y-136540602D01*
X86733501Y-136480264D01*
X86733489Y-136480261D01*
X86578845Y-136449500D01*
X86578842Y-136449500D01*
X86421158Y-136449500D01*
X86421155Y-136449500D01*
X86266510Y-136480261D01*
X86266498Y-136480264D01*
X86120827Y-136540602D01*
X86120814Y-136540609D01*
X85989711Y-136628210D01*
X85989707Y-136628213D01*
X85878213Y-136739707D01*
X85878210Y-136739711D01*
X85790609Y-136870814D01*
X85790602Y-136870827D01*
X85730264Y-137016498D01*
X85730261Y-137016510D01*
X85699500Y-137171153D01*
X85699500Y-137328846D01*
X85730261Y-137483489D01*
X85730264Y-137483501D01*
X85790602Y-137629172D01*
X85790609Y-137629185D01*
X85878210Y-137760288D01*
X85878213Y-137760292D01*
X85989708Y-137871787D01*
X85989711Y-137871789D01*
X86019099Y-137891426D01*
X86040136Y-137916598D01*
X86062058Y-137940996D01*
X86062426Y-137943269D01*
X86063904Y-137945037D01*
X86067992Y-137977584D01*
X86073244Y-138009964D01*
X86072324Y-138012076D01*
X86072612Y-138014362D01*
X86058459Y-138043944D01*
X86045368Y-138074032D01*
X86043081Y-138076086D01*
X86042458Y-138077390D01*
X86019114Y-138097621D01*
X86012514Y-138102032D01*
X86010177Y-138103593D01*
X85943505Y-138124480D01*
X85941274Y-138124500D01*
X84775098Y-138124500D01*
X84708059Y-138104815D01*
X84687417Y-138088181D01*
X83488660Y-136889425D01*
X83488658Y-136889422D01*
X83369787Y-136770551D01*
X83369779Y-136770545D01*
X83268089Y-136711835D01*
X83268086Y-136711834D01*
X83232856Y-136691493D01*
X83232857Y-136691493D01*
X83171763Y-136675123D01*
X83080127Y-136650569D01*
X82922013Y-136650569D01*
X82914417Y-136650569D01*
X82914401Y-136650570D01*
X81578994Y-136650570D01*
X81511955Y-136630885D01*
X81510103Y-136629672D01*
X81378413Y-136541679D01*
X81378400Y-136541672D01*
X81232729Y-136481334D01*
X81232717Y-136481331D01*
X81078073Y-136450570D01*
X81078070Y-136450570D01*
X80920386Y-136450570D01*
X80920383Y-136450570D01*
X80765738Y-136481331D01*
X80765726Y-136481334D01*
X80620055Y-136541672D01*
X80620042Y-136541679D01*
X80488939Y-136629280D01*
X80488935Y-136629283D01*
X80377441Y-136740777D01*
X80377438Y-136740781D01*
X80289837Y-136871884D01*
X80289830Y-136871897D01*
X80229492Y-137017568D01*
X80229489Y-137017580D01*
X80198728Y-137172223D01*
X80198728Y-137329916D01*
X80229489Y-137484559D01*
X80229492Y-137484571D01*
X80289830Y-137630242D01*
X80289837Y-137630255D01*
X80377438Y-137761358D01*
X80377441Y-137761362D01*
X80488935Y-137872856D01*
X80488939Y-137872859D01*
X80620042Y-137960460D01*
X80620055Y-137960467D01*
X80703202Y-137994907D01*
X80765731Y-138020807D01*
X80882048Y-138043944D01*
X80920381Y-138051569D01*
X80920384Y-138051570D01*
X80920386Y-138051570D01*
X81078072Y-138051570D01*
X81078073Y-138051569D01*
X81232725Y-138020807D01*
X81363811Y-137966510D01*
X81378400Y-137960467D01*
X81378400Y-137960466D01*
X81378407Y-137960464D01*
X81444057Y-137916598D01*
X81510103Y-137872468D01*
X81576781Y-137851590D01*
X81578994Y-137851570D01*
X82700973Y-137851570D01*
X82768012Y-137871255D01*
X82788653Y-137887888D01*
X84106284Y-139205520D01*
X84243215Y-139284577D01*
X84395943Y-139325501D01*
X84395946Y-139325501D01*
X84561654Y-139325501D01*
X84561670Y-139325500D01*
X85898025Y-139325500D01*
X85920160Y-139331999D01*
X85943143Y-139334000D01*
X85956333Y-139342621D01*
X85965064Y-139345185D01*
X85973856Y-139351389D01*
X85980113Y-139356225D01*
X85986728Y-139362840D01*
X86001068Y-139372421D01*
X86004439Y-139375027D01*
X86022534Y-139399992D01*
X86042303Y-139423645D01*
X86043360Y-139428724D01*
X86045444Y-139431599D01*
X86045990Y-139441357D01*
X86052608Y-139473138D01*
X86052608Y-139536278D01*
X86083369Y-139690921D01*
X86083372Y-139690933D01*
X86143710Y-139836604D01*
X86143717Y-139836617D01*
X86231318Y-139967720D01*
X86231321Y-139967724D01*
X86342815Y-140079218D01*
X86342819Y-140079221D01*
X86473922Y-140166822D01*
X86473935Y-140166829D01*
X86576688Y-140209390D01*
X86619611Y-140227169D01*
X86774261Y-140257931D01*
X86774264Y-140257932D01*
X86774266Y-140257932D01*
X86931952Y-140257932D01*
X86931953Y-140257931D01*
X87086605Y-140227169D01*
X87232287Y-140166826D01*
X87363397Y-140079221D01*
X87474897Y-139967721D01*
X87562502Y-139836611D01*
X87622845Y-139690929D01*
X87653608Y-139536274D01*
X87653608Y-139378590D01*
X87653608Y-139378587D01*
X87653607Y-139378585D01*
X87644340Y-139331999D01*
X87622845Y-139223935D01*
X87612724Y-139199500D01*
X87562505Y-139078259D01*
X87562498Y-139078246D01*
X87474897Y-138947143D01*
X87474894Y-138947139D01*
X87395210Y-138867455D01*
X87390871Y-138859509D01*
X87383624Y-138854084D01*
X87374389Y-138829324D01*
X87361725Y-138806132D01*
X87362370Y-138797102D01*
X87359207Y-138788620D01*
X87364823Y-138762799D01*
X87366709Y-138736440D01*
X87372527Y-138727386D01*
X87374059Y-138720347D01*
X87395210Y-138692093D01*
X87450484Y-138636819D01*
X87511807Y-138603334D01*
X87538165Y-138600500D01*
X88372044Y-138600500D01*
X88439083Y-138620185D01*
X88484838Y-138672989D01*
X88493661Y-138700309D01*
X88500261Y-138733489D01*
X88500264Y-138733501D01*
X88560602Y-138879172D01*
X88560609Y-138879185D01*
X88648210Y-139010288D01*
X88648213Y-139010292D01*
X88759707Y-139121786D01*
X88759711Y-139121789D01*
X88890814Y-139209390D01*
X88890827Y-139209397D01*
X89028683Y-139266498D01*
X89036503Y-139269737D01*
X89145963Y-139291510D01*
X89191153Y-139300499D01*
X89191156Y-139300500D01*
X89191158Y-139300500D01*
X89348844Y-139300500D01*
X89348845Y-139300499D01*
X89503497Y-139269737D01*
X89649179Y-139209394D01*
X89780289Y-139121789D01*
X89891789Y-139010289D01*
X89979394Y-138879179D01*
X89979398Y-138879168D01*
X89981891Y-138874506D01*
X90030850Y-138824658D01*
X90098987Y-138809192D01*
X90164668Y-138833019D01*
X90178935Y-138845270D01*
X90464118Y-139130453D01*
X90497603Y-139191776D01*
X90492619Y-139261468D01*
X90491019Y-139265534D01*
X90480263Y-139291503D01*
X90480262Y-139291507D01*
X90480261Y-139291510D01*
X90480260Y-139291511D01*
X90449500Y-139446153D01*
X90449500Y-139603846D01*
X90480261Y-139758489D01*
X90480264Y-139758501D01*
X90540602Y-139904172D01*
X90540609Y-139904185D01*
X90628210Y-140035288D01*
X90628213Y-140035292D01*
X90739707Y-140146786D01*
X90739711Y-140146789D01*
X90870814Y-140234390D01*
X90870827Y-140234397D01*
X91016498Y-140294735D01*
X91016503Y-140294737D01*
X91171153Y-140325499D01*
X91171156Y-140325500D01*
X91171158Y-140325500D01*
X91328844Y-140325500D01*
X91328845Y-140325499D01*
X91483497Y-140294737D01*
X91629179Y-140234394D01*
X91760289Y-140146789D01*
X91871789Y-140035289D01*
X91959394Y-139904179D01*
X92019737Y-139758497D01*
X92050500Y-139603842D01*
X92050500Y-139554445D01*
X92059144Y-139525006D01*
X92065666Y-139495022D01*
X92069422Y-139490004D01*
X92070185Y-139487406D01*
X92086816Y-139466767D01*
X92087314Y-139466269D01*
X92117767Y-139435816D01*
X92117768Y-139435813D01*
X92132428Y-139421153D01*
X94499500Y-139421153D01*
X94499500Y-139578846D01*
X94530261Y-139733489D01*
X94530264Y-139733501D01*
X94590602Y-139879172D01*
X94590609Y-139879185D01*
X94678210Y-140010288D01*
X94678213Y-140010292D01*
X94789707Y-140121786D01*
X94789711Y-140121789D01*
X94920814Y-140209390D01*
X94920827Y-140209397D01*
X95038003Y-140257932D01*
X95066503Y-140269737D01*
X95192176Y-140294735D01*
X95221153Y-140300499D01*
X95221156Y-140300500D01*
X95221158Y-140300500D01*
X95378844Y-140300500D01*
X95378845Y-140300499D01*
X95533497Y-140269737D01*
X95679179Y-140209394D01*
X95810289Y-140121789D01*
X95921789Y-140010289D01*
X95981348Y-139921153D01*
X100699500Y-139921153D01*
X100699500Y-140078846D01*
X100730261Y-140233489D01*
X100730264Y-140233501D01*
X100790602Y-140379172D01*
X100790609Y-140379185D01*
X100878210Y-140510288D01*
X100878213Y-140510292D01*
X100989707Y-140621786D01*
X100989711Y-140621789D01*
X101120814Y-140709390D01*
X101120827Y-140709397D01*
X101266498Y-140769735D01*
X101266503Y-140769737D01*
X101421153Y-140800499D01*
X101421156Y-140800500D01*
X101421158Y-140800500D01*
X101578844Y-140800500D01*
X101578845Y-140800499D01*
X101733497Y-140769737D01*
X101879179Y-140709394D01*
X102010289Y-140621789D01*
X102121789Y-140510289D01*
X102209394Y-140379179D01*
X102269737Y-140233497D01*
X102300500Y-140078842D01*
X102300500Y-139921158D01*
X102300500Y-139921155D01*
X102300499Y-139921153D01*
X102289849Y-139867611D01*
X102269737Y-139766503D01*
X102269735Y-139766498D01*
X102209397Y-139620827D01*
X102209390Y-139620814D01*
X102121789Y-139489711D01*
X102121786Y-139489707D01*
X102010292Y-139378213D01*
X102010288Y-139378210D01*
X101879185Y-139290609D01*
X101879172Y-139290602D01*
X101733501Y-139230264D01*
X101733489Y-139230261D01*
X101578845Y-139199500D01*
X101578842Y-139199500D01*
X101421158Y-139199500D01*
X101421155Y-139199500D01*
X101266510Y-139230261D01*
X101266498Y-139230264D01*
X101120827Y-139290602D01*
X101120814Y-139290609D01*
X100989711Y-139378210D01*
X100989707Y-139378213D01*
X100878213Y-139489707D01*
X100878210Y-139489711D01*
X100790609Y-139620814D01*
X100790602Y-139620827D01*
X100730264Y-139766498D01*
X100730261Y-139766510D01*
X100699500Y-139921153D01*
X95981348Y-139921153D01*
X96009394Y-139879179D01*
X96069737Y-139733497D01*
X96100500Y-139578842D01*
X96100500Y-139421158D01*
X96100500Y-139421155D01*
X96100499Y-139421153D01*
X96095973Y-139398398D01*
X96069737Y-139266503D01*
X96069357Y-139265586D01*
X96009397Y-139120827D01*
X96009390Y-139120814D01*
X95921789Y-138989711D01*
X95921786Y-138989707D01*
X95810292Y-138878213D01*
X95810288Y-138878210D01*
X95679185Y-138790609D01*
X95679172Y-138790602D01*
X95533501Y-138730264D01*
X95533489Y-138730261D01*
X95378845Y-138699500D01*
X95378842Y-138699500D01*
X95221158Y-138699500D01*
X95221155Y-138699500D01*
X95066510Y-138730261D01*
X95066498Y-138730264D01*
X94920827Y-138790602D01*
X94920814Y-138790609D01*
X94789711Y-138878210D01*
X94789707Y-138878213D01*
X94678213Y-138989707D01*
X94678210Y-138989711D01*
X94590609Y-139120814D01*
X94590602Y-139120827D01*
X94530264Y-139266498D01*
X94530261Y-139266510D01*
X94499500Y-139421153D01*
X92132428Y-139421153D01*
X92966764Y-138586819D01*
X93028087Y-138553334D01*
X93054445Y-138550500D01*
X93078844Y-138550500D01*
X93078845Y-138550499D01*
X93233497Y-138519737D01*
X93379179Y-138459394D01*
X93510289Y-138371789D01*
X93621789Y-138260289D01*
X93709394Y-138129179D01*
X93712719Y-138121153D01*
X93730244Y-138078842D01*
X93769737Y-137983497D01*
X93800500Y-137828842D01*
X93800500Y-137671158D01*
X93800500Y-137671155D01*
X93800499Y-137671153D01*
X93774264Y-137539257D01*
X93770662Y-137521153D01*
X100699500Y-137521153D01*
X100699500Y-137678846D01*
X100730261Y-137833489D01*
X100730264Y-137833501D01*
X100790602Y-137979172D01*
X100790609Y-137979185D01*
X100878210Y-138110288D01*
X100878213Y-138110292D01*
X100989707Y-138221786D01*
X100989711Y-138221789D01*
X101120814Y-138309390D01*
X101120827Y-138309397D01*
X101236455Y-138357291D01*
X101266503Y-138369737D01*
X101421153Y-138400499D01*
X101421156Y-138400500D01*
X101421158Y-138400500D01*
X101578844Y-138400500D01*
X101578845Y-138400499D01*
X101733497Y-138369737D01*
X101879179Y-138309394D01*
X102010289Y-138221789D01*
X102121789Y-138110289D01*
X102209394Y-137979179D01*
X102269737Y-137833497D01*
X102300500Y-137678842D01*
X102300500Y-137521158D01*
X102300500Y-137521155D01*
X102300499Y-137521153D01*
X102293222Y-137484571D01*
X102269737Y-137366503D01*
X102269735Y-137366498D01*
X102209397Y-137220827D01*
X102209390Y-137220814D01*
X102121789Y-137089711D01*
X102121786Y-137089707D01*
X102010292Y-136978213D01*
X102010288Y-136978210D01*
X101879185Y-136890609D01*
X101879172Y-136890602D01*
X101733501Y-136830264D01*
X101733489Y-136830261D01*
X101578845Y-136799500D01*
X101578842Y-136799500D01*
X101421158Y-136799500D01*
X101421155Y-136799500D01*
X101266510Y-136830261D01*
X101266498Y-136830264D01*
X101120827Y-136890602D01*
X101120814Y-136890609D01*
X100989711Y-136978210D01*
X100989707Y-136978213D01*
X100878213Y-137089707D01*
X100878210Y-137089711D01*
X100790609Y-137220814D01*
X100790602Y-137220827D01*
X100730264Y-137366498D01*
X100730261Y-137366510D01*
X100699500Y-137521153D01*
X93770662Y-137521153D01*
X93769738Y-137516507D01*
X93769735Y-137516498D01*
X93709397Y-137370827D01*
X93709390Y-137370814D01*
X93621789Y-137239711D01*
X93621786Y-137239707D01*
X93510292Y-137128213D01*
X93510288Y-137128210D01*
X93379185Y-137040609D01*
X93379176Y-137040604D01*
X93291746Y-137004390D01*
X93237343Y-136960549D01*
X93215278Y-136894255D01*
X93224638Y-136842377D01*
X93266720Y-136740781D01*
X93269737Y-136733497D01*
X93300500Y-136578842D01*
X93300500Y-136421158D01*
X93300500Y-136421155D01*
X93300499Y-136421153D01*
X93293546Y-136386197D01*
X93269737Y-136266503D01*
X93267062Y-136260044D01*
X93209397Y-136120827D01*
X93209390Y-136120814D01*
X93121789Y-135989711D01*
X93121786Y-135989707D01*
X93010292Y-135878213D01*
X93010288Y-135878210D01*
X92879185Y-135790609D01*
X92879172Y-135790602D01*
X92733501Y-135730264D01*
X92733489Y-135730261D01*
X92578845Y-135699500D01*
X92578842Y-135699500D01*
X92421158Y-135699500D01*
X92421155Y-135699500D01*
X92266510Y-135730261D01*
X92266498Y-135730264D01*
X92120827Y-135790602D01*
X92120814Y-135790609D01*
X91989125Y-135878602D01*
X91922447Y-135899480D01*
X91920234Y-135899500D01*
X89550098Y-135899500D01*
X89520657Y-135890855D01*
X89490671Y-135884332D01*
X89485655Y-135880577D01*
X89483059Y-135879815D01*
X89462417Y-135863181D01*
X89386819Y-135787583D01*
X89353334Y-135726260D01*
X89350500Y-135699902D01*
X89350500Y-134360759D01*
X89370185Y-134293720D01*
X89422989Y-134247965D01*
X89492147Y-134238021D01*
X89543391Y-134257657D01*
X89620821Y-134309394D01*
X89620823Y-134309395D01*
X89620827Y-134309397D01*
X89744828Y-134360759D01*
X89766503Y-134369737D01*
X89921153Y-134400499D01*
X89921156Y-134400500D01*
X89921158Y-134400500D01*
X90078844Y-134400500D01*
X90078845Y-134400499D01*
X90233497Y-134369737D01*
X90379179Y-134309394D01*
X90510289Y-134221789D01*
X90621789Y-134110289D01*
X90709394Y-133979179D01*
X90769737Y-133833497D01*
X90800500Y-133678842D01*
X90800638Y-133678150D01*
X90833023Y-133616239D01*
X90834518Y-133614716D01*
X95187819Y-129261416D01*
X95249142Y-129227931D01*
X95318834Y-129232915D01*
X95374767Y-129274787D01*
X95399184Y-129340251D01*
X95399500Y-129349097D01*
X95399500Y-133413330D01*
X95399499Y-133413348D01*
X95399499Y-133579054D01*
X95399498Y-133579054D01*
X95399499Y-133579056D01*
X95399499Y-133579057D01*
X95440423Y-133731785D01*
X95460468Y-133766503D01*
X95499142Y-133833489D01*
X95519479Y-133868715D01*
X95638349Y-133987585D01*
X95638355Y-133987590D01*
X96665425Y-135014660D01*
X96698910Y-135075983D01*
X96699361Y-135078149D01*
X96730261Y-135233491D01*
X96730264Y-135233501D01*
X96790602Y-135379172D01*
X96790609Y-135379185D01*
X96878210Y-135510288D01*
X96878213Y-135510292D01*
X96989707Y-135621786D01*
X96989711Y-135621789D01*
X97120814Y-135709390D01*
X97120827Y-135709397D01*
X97256158Y-135765452D01*
X97266503Y-135769737D01*
X97421153Y-135800499D01*
X97421156Y-135800500D01*
X97421158Y-135800500D01*
X97578844Y-135800500D01*
X97578845Y-135800499D01*
X97733497Y-135769737D01*
X97879179Y-135709394D01*
X98010289Y-135621789D01*
X98121789Y-135510289D01*
X98209394Y-135379179D01*
X98269737Y-135233497D01*
X98300500Y-135078842D01*
X98300500Y-134921158D01*
X98300500Y-134921155D01*
X98300499Y-134921153D01*
X98280543Y-134820827D01*
X98269737Y-134766503D01*
X98237929Y-134689711D01*
X98209397Y-134620827D01*
X98209390Y-134620814D01*
X98121789Y-134489711D01*
X98121786Y-134489707D01*
X98010292Y-134378213D01*
X98010288Y-134378210D01*
X97879185Y-134290609D01*
X97879172Y-134290602D01*
X97733501Y-134230264D01*
X97733491Y-134230261D01*
X97578149Y-134199361D01*
X97516238Y-134166976D01*
X97514660Y-134165425D01*
X96636819Y-133287584D01*
X96603334Y-133226261D01*
X96600500Y-133199903D01*
X96600500Y-132571153D01*
X99699500Y-132571153D01*
X99699500Y-132728846D01*
X99730261Y-132883489D01*
X99730264Y-132883501D01*
X99790602Y-133029172D01*
X99790609Y-133029185D01*
X99878210Y-133160288D01*
X99878213Y-133160292D01*
X99989707Y-133271786D01*
X99989711Y-133271789D01*
X100120814Y-133359390D01*
X100120827Y-133359397D01*
X100166254Y-133378213D01*
X100266503Y-133419737D01*
X100421153Y-133450499D01*
X100421156Y-133450500D01*
X100421158Y-133450500D01*
X100578844Y-133450500D01*
X100578845Y-133450499D01*
X100733497Y-133419737D01*
X100879179Y-133359394D01*
X101010289Y-133271789D01*
X101121789Y-133160289D01*
X101172398Y-133084548D01*
X101226010Y-133039743D01*
X101295335Y-133031036D01*
X101358363Y-133061190D01*
X101395082Y-133120634D01*
X101399500Y-133153439D01*
X101399500Y-133199903D01*
X101379815Y-133266942D01*
X101363181Y-133287584D01*
X100485339Y-134165425D01*
X100424016Y-134198910D01*
X100421850Y-134199361D01*
X100266508Y-134230261D01*
X100266498Y-134230264D01*
X100120827Y-134290602D01*
X100120814Y-134290609D01*
X99989711Y-134378210D01*
X99989707Y-134378213D01*
X99878213Y-134489707D01*
X99878210Y-134489711D01*
X99790609Y-134620814D01*
X99790602Y-134620827D01*
X99730264Y-134766498D01*
X99730261Y-134766510D01*
X99699500Y-134921153D01*
X99699500Y-135078846D01*
X99730261Y-135233489D01*
X99730264Y-135233501D01*
X99790602Y-135379172D01*
X99790609Y-135379185D01*
X99878210Y-135510288D01*
X99878213Y-135510292D01*
X99989707Y-135621786D01*
X99989711Y-135621789D01*
X100120814Y-135709390D01*
X100120827Y-135709397D01*
X100256158Y-135765452D01*
X100266503Y-135769737D01*
X100421153Y-135800499D01*
X100421156Y-135800500D01*
X100421158Y-135800500D01*
X100578844Y-135800500D01*
X100578845Y-135800499D01*
X100733497Y-135769737D01*
X100801315Y-135741645D01*
X100870782Y-135734177D01*
X100933261Y-135765452D01*
X100936447Y-135768526D01*
X100989707Y-135821786D01*
X100989711Y-135821789D01*
X101120814Y-135909390D01*
X101120827Y-135909397D01*
X101266498Y-135969735D01*
X101266503Y-135969737D01*
X101382036Y-135992718D01*
X101421153Y-136000499D01*
X101421156Y-136000500D01*
X101421158Y-136000500D01*
X101578844Y-136000500D01*
X101578845Y-136000499D01*
X101733497Y-135969737D01*
X101879179Y-135909394D01*
X102010289Y-135821789D01*
X102121789Y-135710289D01*
X102209394Y-135579179D01*
X102269737Y-135433497D01*
X102300500Y-135278842D01*
X102300500Y-135121158D01*
X102300500Y-135121155D01*
X102300499Y-135121153D01*
X102269737Y-134966503D01*
X102250955Y-134921158D01*
X102209397Y-134820827D01*
X102209390Y-134820814D01*
X102121789Y-134689711D01*
X102121786Y-134689707D01*
X102010292Y-134578213D01*
X102010288Y-134578210D01*
X101992489Y-134566317D01*
X101947684Y-134512705D01*
X101938977Y-134443380D01*
X101969132Y-134380352D01*
X101973680Y-134375553D01*
X102358506Y-133990728D01*
X102358511Y-133990724D01*
X102368714Y-133980520D01*
X102368716Y-133980520D01*
X102480520Y-133868716D01*
X102559577Y-133731784D01*
X102600500Y-133579057D01*
X102600500Y-133253439D01*
X102620185Y-133186400D01*
X102672989Y-133140645D01*
X102742147Y-133130701D01*
X102805703Y-133159726D01*
X102827602Y-133184548D01*
X102878210Y-133260288D01*
X102878213Y-133260292D01*
X102989707Y-133371786D01*
X102989711Y-133371789D01*
X103120814Y-133459390D01*
X103120827Y-133459397D01*
X103194013Y-133489711D01*
X103266503Y-133519737D01*
X103371418Y-133540606D01*
X103421153Y-133550499D01*
X103421156Y-133550500D01*
X103421158Y-133550500D01*
X103578844Y-133550500D01*
X103578845Y-133550499D01*
X103733497Y-133519737D01*
X103879179Y-133459394D01*
X104010289Y-133371789D01*
X104121789Y-133260289D01*
X104209394Y-133129179D01*
X104212934Y-133120634D01*
X104250046Y-133031036D01*
X104269737Y-132983497D01*
X104300500Y-132828842D01*
X104300500Y-132671158D01*
X104300500Y-132671155D01*
X104300499Y-132671153D01*
X104269737Y-132516503D01*
X104228314Y-132416498D01*
X104209397Y-132370827D01*
X104209390Y-132370814D01*
X104121789Y-132239711D01*
X104121786Y-132239707D01*
X104010292Y-132128213D01*
X104010288Y-132128210D01*
X103879185Y-132040609D01*
X103879172Y-132040602D01*
X103733501Y-131980264D01*
X103733489Y-131980261D01*
X103578845Y-131949500D01*
X103578842Y-131949500D01*
X103421158Y-131949500D01*
X103421155Y-131949500D01*
X103266510Y-131980261D01*
X103266498Y-131980264D01*
X103120827Y-132040602D01*
X103120814Y-132040609D01*
X102989711Y-132128210D01*
X102989707Y-132128213D01*
X102878213Y-132239707D01*
X102878210Y-132239711D01*
X102827602Y-132315451D01*
X102773989Y-132360256D01*
X102704664Y-132368963D01*
X102641637Y-132338808D01*
X102604918Y-132279365D01*
X102600500Y-132246560D01*
X102600500Y-129046709D01*
X102620185Y-128979670D01*
X102636819Y-128959028D01*
X102786457Y-128809390D01*
X102980520Y-128615328D01*
X103059577Y-128478396D01*
X103100501Y-128325669D01*
X103100501Y-128167554D01*
X103100501Y-128159959D01*
X103100500Y-128159941D01*
X103100500Y-127079765D01*
X103120185Y-127012726D01*
X103121398Y-127010874D01*
X103181347Y-126921155D01*
X103209394Y-126879179D01*
X103269737Y-126733497D01*
X103300500Y-126578842D01*
X103300500Y-126421158D01*
X103300500Y-126421155D01*
X103300499Y-126421153D01*
X103274531Y-126290606D01*
X103269737Y-126266503D01*
X103263023Y-126250294D01*
X103209397Y-126120827D01*
X103209390Y-126120814D01*
X103121789Y-125989711D01*
X103121786Y-125989707D01*
X103010292Y-125878213D01*
X103010288Y-125878210D01*
X102879185Y-125790609D01*
X102879172Y-125790602D01*
X102733501Y-125730264D01*
X102733489Y-125730261D01*
X102578845Y-125699500D01*
X102578842Y-125699500D01*
X102421158Y-125699500D01*
X102421155Y-125699500D01*
X102266510Y-125730261D01*
X102266498Y-125730264D01*
X102120827Y-125790602D01*
X102120814Y-125790609D01*
X101989711Y-125878210D01*
X101989707Y-125878213D01*
X101878213Y-125989707D01*
X101878210Y-125989711D01*
X101790609Y-126120814D01*
X101790602Y-126120827D01*
X101730264Y-126266498D01*
X101730261Y-126266510D01*
X101699500Y-126421153D01*
X101699500Y-126578846D01*
X101730261Y-126733489D01*
X101730264Y-126733501D01*
X101790602Y-126879172D01*
X101790609Y-126879185D01*
X101878602Y-127010874D01*
X101884252Y-127028920D01*
X101894477Y-127044830D01*
X101898928Y-127075789D01*
X101899480Y-127077551D01*
X101899500Y-127079765D01*
X101899500Y-127246560D01*
X101879815Y-127313599D01*
X101827011Y-127359354D01*
X101757853Y-127369298D01*
X101694297Y-127340273D01*
X101672398Y-127315451D01*
X101621789Y-127239711D01*
X101621786Y-127239707D01*
X101510292Y-127128213D01*
X101510288Y-127128210D01*
X101379185Y-127040609D01*
X101379172Y-127040602D01*
X101233501Y-126980264D01*
X101233489Y-126980261D01*
X101078845Y-126949500D01*
X101078842Y-126949500D01*
X100921158Y-126949500D01*
X100921155Y-126949500D01*
X100766510Y-126980261D01*
X100766498Y-126980264D01*
X100620827Y-127040602D01*
X100620814Y-127040609D01*
X100489711Y-127128210D01*
X100489707Y-127128213D01*
X100378213Y-127239707D01*
X100378210Y-127239711D01*
X100290609Y-127370814D01*
X100290602Y-127370827D01*
X100230264Y-127516498D01*
X100230261Y-127516510D01*
X100199500Y-127671153D01*
X100199500Y-127828846D01*
X100230261Y-127983489D01*
X100230264Y-127983501D01*
X100290602Y-128129172D01*
X100290609Y-128129185D01*
X100378210Y-128260288D01*
X100378213Y-128260292D01*
X100489707Y-128371786D01*
X100489711Y-128371789D01*
X100620814Y-128459390D01*
X100620827Y-128459397D01*
X100766498Y-128519735D01*
X100766503Y-128519737D01*
X100921153Y-128550499D01*
X100921156Y-128550500D01*
X100921158Y-128550500D01*
X101078844Y-128550500D01*
X101078845Y-128550499D01*
X101233497Y-128519737D01*
X101233509Y-128519731D01*
X101239324Y-128517969D01*
X101239752Y-128519381D01*
X101301925Y-128512691D01*
X101364407Y-128543958D01*
X101400067Y-128604043D01*
X101403892Y-128637451D01*
X101403563Y-128652386D01*
X101399499Y-128667555D01*
X101399499Y-128825669D01*
X101399500Y-128825672D01*
X101399500Y-128837035D01*
X101399500Y-132146560D01*
X101379815Y-132213599D01*
X101327011Y-132259354D01*
X101257853Y-132269298D01*
X101194297Y-132240273D01*
X101172398Y-132215451D01*
X101121789Y-132139711D01*
X101121786Y-132139707D01*
X101010292Y-132028213D01*
X101010288Y-132028210D01*
X100879181Y-131940607D01*
X100879172Y-131940602D01*
X100733501Y-131880264D01*
X100733489Y-131880261D01*
X100578845Y-131849500D01*
X100578842Y-131849500D01*
X100421158Y-131849500D01*
X100421155Y-131849500D01*
X100266510Y-131880261D01*
X100266498Y-131880264D01*
X100120827Y-131940602D01*
X100120819Y-131940607D01*
X99989711Y-132028210D01*
X99989707Y-132028213D01*
X99878213Y-132139707D01*
X99878210Y-132139711D01*
X99790609Y-132270814D01*
X99790602Y-132270827D01*
X99730264Y-132416498D01*
X99730261Y-132416510D01*
X99699500Y-132571153D01*
X96600500Y-132571153D01*
X96600500Y-127682940D01*
X96620185Y-127615901D01*
X96636814Y-127595263D01*
X96721789Y-127510289D01*
X96809394Y-127379179D01*
X96812854Y-127370827D01*
X96841984Y-127300500D01*
X96869737Y-127233497D01*
X96900500Y-127078842D01*
X96900500Y-126921158D01*
X96900500Y-126921155D01*
X96900499Y-126921153D01*
X96890199Y-126869373D01*
X96869737Y-126766503D01*
X96856062Y-126733489D01*
X96809397Y-126620827D01*
X96809390Y-126620814D01*
X96721789Y-126489711D01*
X96721786Y-126489707D01*
X96610292Y-126378213D01*
X96610288Y-126378210D01*
X96479185Y-126290609D01*
X96479172Y-126290602D01*
X96333501Y-126230264D01*
X96333491Y-126230261D01*
X96262194Y-126216079D01*
X96200283Y-126183694D01*
X96165709Y-126122978D01*
X96169450Y-126053208D01*
X96198703Y-126006784D01*
X97568670Y-124636819D01*
X97629993Y-124603334D01*
X97656351Y-124600500D01*
X99420234Y-124600500D01*
X99487273Y-124620185D01*
X99489125Y-124621398D01*
X99620814Y-124709390D01*
X99620827Y-124709397D01*
X99752177Y-124763803D01*
X99766503Y-124769737D01*
X99921153Y-124800499D01*
X99921156Y-124800500D01*
X99921158Y-124800500D01*
X100078844Y-124800500D01*
X100078845Y-124800499D01*
X100233497Y-124769737D01*
X100379179Y-124709394D01*
X100436411Y-124671153D01*
X103199500Y-124671153D01*
X103199500Y-124828846D01*
X103230261Y-124983489D01*
X103230264Y-124983501D01*
X103290602Y-125129172D01*
X103290609Y-125129185D01*
X103378210Y-125260288D01*
X103378213Y-125260292D01*
X103489707Y-125371786D01*
X103489711Y-125371789D01*
X103620814Y-125459390D01*
X103620827Y-125459397D01*
X103766498Y-125519735D01*
X103766503Y-125519737D01*
X103910586Y-125548397D01*
X103921153Y-125550499D01*
X103921156Y-125550500D01*
X103921158Y-125550500D01*
X104078844Y-125550500D01*
X104078845Y-125550499D01*
X104233497Y-125519737D01*
X104379179Y-125459394D01*
X104510289Y-125371789D01*
X104621789Y-125260289D01*
X104709394Y-125129179D01*
X104769737Y-124983497D01*
X104800500Y-124828842D01*
X104800500Y-124671158D01*
X104800500Y-124671155D01*
X104800499Y-124671153D01*
X104769737Y-124516503D01*
X104713728Y-124381284D01*
X104709397Y-124370827D01*
X104709390Y-124370814D01*
X104621789Y-124239711D01*
X104621786Y-124239707D01*
X104510292Y-124128213D01*
X104510288Y-124128210D01*
X104379185Y-124040609D01*
X104379172Y-124040602D01*
X104233501Y-123980264D01*
X104233489Y-123980261D01*
X104078845Y-123949500D01*
X104078842Y-123949500D01*
X103921158Y-123949500D01*
X103921155Y-123949500D01*
X103766510Y-123980261D01*
X103766498Y-123980264D01*
X103620827Y-124040602D01*
X103620814Y-124040609D01*
X103489711Y-124128210D01*
X103489707Y-124128213D01*
X103378213Y-124239707D01*
X103378210Y-124239711D01*
X103290609Y-124370814D01*
X103290602Y-124370827D01*
X103230264Y-124516498D01*
X103230261Y-124516510D01*
X103199500Y-124671153D01*
X100436411Y-124671153D01*
X100510289Y-124621789D01*
X100531578Y-124600500D01*
X100554694Y-124577385D01*
X100621786Y-124510292D01*
X100621789Y-124510289D01*
X100709394Y-124379179D01*
X100712854Y-124370827D01*
X100754833Y-124269479D01*
X100769737Y-124233497D01*
X100800500Y-124078842D01*
X100800500Y-123921158D01*
X100800500Y-123921155D01*
X100800499Y-123921153D01*
X100784881Y-123842637D01*
X100769737Y-123766503D01*
X100754552Y-123729843D01*
X100709397Y-123620827D01*
X100709390Y-123620814D01*
X100621789Y-123489711D01*
X100621786Y-123489707D01*
X100510292Y-123378213D01*
X100510288Y-123378210D01*
X100379185Y-123290609D01*
X100379172Y-123290602D01*
X100233501Y-123230264D01*
X100233489Y-123230261D01*
X100078845Y-123199500D01*
X100078842Y-123199500D01*
X99921158Y-123199500D01*
X99921155Y-123199500D01*
X99766510Y-123230261D01*
X99766498Y-123230264D01*
X99620827Y-123290602D01*
X99620814Y-123290609D01*
X99489125Y-123378602D01*
X99422447Y-123399480D01*
X99420234Y-123399500D01*
X98174500Y-123399500D01*
X98107461Y-123379815D01*
X98061706Y-123327011D01*
X98050500Y-123275500D01*
X98050500Y-123171155D01*
X98050499Y-123171153D01*
X98032204Y-123079179D01*
X98019737Y-123016503D01*
X97980244Y-122921158D01*
X97959397Y-122870827D01*
X97959390Y-122870814D01*
X97871789Y-122739711D01*
X97871786Y-122739707D01*
X97760292Y-122628213D01*
X97760288Y-122628210D01*
X97629185Y-122540609D01*
X97629172Y-122540602D01*
X97483501Y-122480264D01*
X97483489Y-122480261D01*
X97328845Y-122449500D01*
X97328842Y-122449500D01*
X97171158Y-122449500D01*
X97171155Y-122449500D01*
X97016510Y-122480261D01*
X97016498Y-122480264D01*
X96870827Y-122540602D01*
X96870814Y-122540609D01*
X96739711Y-122628210D01*
X96739707Y-122628213D01*
X96628213Y-122739707D01*
X96628210Y-122739711D01*
X96540609Y-122870814D01*
X96540602Y-122870827D01*
X96480264Y-123016498D01*
X96480261Y-123016510D01*
X96449500Y-123171153D01*
X96449500Y-123328846D01*
X96480261Y-123483489D01*
X96480264Y-123483501D01*
X96540602Y-123629172D01*
X96540609Y-123629185D01*
X96619144Y-123746720D01*
X96640022Y-123813398D01*
X96621538Y-123880778D01*
X96603723Y-123903292D01*
X95515806Y-124991209D01*
X95454483Y-125024694D01*
X95384791Y-125019710D01*
X95340444Y-124991209D01*
X94737590Y-124388355D01*
X94737588Y-124388352D01*
X94618717Y-124269481D01*
X94618716Y-124269480D01*
X94531904Y-124219360D01*
X94531904Y-124219359D01*
X94531900Y-124219358D01*
X94481785Y-124190423D01*
X94329057Y-124149499D01*
X94170943Y-124149499D01*
X94163347Y-124149499D01*
X94163331Y-124149500D01*
X93079766Y-124149500D01*
X93012727Y-124129815D01*
X93010875Y-124128602D01*
X92879185Y-124040609D01*
X92879172Y-124040602D01*
X92733501Y-123980264D01*
X92733489Y-123980261D01*
X92578845Y-123949500D01*
X92578842Y-123949500D01*
X92421158Y-123949500D01*
X92421155Y-123949500D01*
X92266510Y-123980261D01*
X92266498Y-123980264D01*
X92120827Y-124040602D01*
X92120809Y-124040612D01*
X92043390Y-124092342D01*
X91976713Y-124113220D01*
X91909333Y-124094735D01*
X91862643Y-124042756D01*
X91850500Y-123989240D01*
X91850500Y-121897648D01*
X93199500Y-121897648D01*
X93199500Y-122102352D01*
X93203878Y-122129995D01*
X93231522Y-122304534D01*
X93294781Y-122499223D01*
X93387715Y-122681613D01*
X93508028Y-122847213D01*
X93652786Y-122991971D01*
X93807749Y-123104556D01*
X93818390Y-123112287D01*
X93933921Y-123171153D01*
X94000776Y-123205218D01*
X94000778Y-123205218D01*
X94000781Y-123205220D01*
X94105137Y-123239127D01*
X94195465Y-123268477D01*
X94296557Y-123284488D01*
X94397648Y-123300500D01*
X94397649Y-123300500D01*
X94602351Y-123300500D01*
X94602352Y-123300500D01*
X94804534Y-123268477D01*
X94999219Y-123205220D01*
X95181610Y-123112287D01*
X95307495Y-123020827D01*
X95347213Y-122991971D01*
X95347215Y-122991968D01*
X95347219Y-122991966D01*
X95491966Y-122847219D01*
X95491968Y-122847215D01*
X95491971Y-122847213D01*
X95588853Y-122713864D01*
X95612287Y-122681610D01*
X95705220Y-122499219D01*
X95768477Y-122304534D01*
X95800500Y-122102352D01*
X95800500Y-121897648D01*
X95773664Y-121728213D01*
X95768477Y-121695465D01*
X95721050Y-121549500D01*
X95705220Y-121500781D01*
X95705218Y-121500778D01*
X95705218Y-121500776D01*
X95652689Y-121397684D01*
X95612287Y-121318390D01*
X95602220Y-121304534D01*
X95491971Y-121152786D01*
X95347213Y-121008028D01*
X95326657Y-120993094D01*
X95195285Y-120897648D01*
X101199500Y-120897648D01*
X101199500Y-121102351D01*
X101231522Y-121304534D01*
X101294781Y-121499223D01*
X101358691Y-121624653D01*
X101366820Y-121640606D01*
X101387715Y-121681613D01*
X101508028Y-121847213D01*
X101652786Y-121991971D01*
X101807749Y-122104556D01*
X101818390Y-122112287D01*
X101934607Y-122171503D01*
X102000776Y-122205218D01*
X102000778Y-122205218D01*
X102000781Y-122205220D01*
X102105137Y-122239127D01*
X102195465Y-122268477D01*
X102296557Y-122284488D01*
X102397648Y-122300500D01*
X102397649Y-122300500D01*
X102602351Y-122300500D01*
X102602352Y-122300500D01*
X102804534Y-122268477D01*
X102999219Y-122205220D01*
X103019202Y-122195037D01*
X103087871Y-122182140D01*
X103152612Y-122208414D01*
X103192871Y-122265520D01*
X103199500Y-122305521D01*
X103199500Y-122428846D01*
X103230261Y-122583489D01*
X103230264Y-122583501D01*
X103290602Y-122729172D01*
X103290609Y-122729185D01*
X103378210Y-122860288D01*
X103378213Y-122860292D01*
X103489707Y-122971786D01*
X103489711Y-122971789D01*
X103620814Y-123059390D01*
X103620827Y-123059397D01*
X103748517Y-123112287D01*
X103766503Y-123119737D01*
X103921153Y-123150499D01*
X103921156Y-123150500D01*
X103921158Y-123150500D01*
X104078844Y-123150500D01*
X104078845Y-123150499D01*
X104233497Y-123119737D01*
X104379179Y-123059394D01*
X104510289Y-122971789D01*
X104621789Y-122860289D01*
X104709394Y-122729179D01*
X104769737Y-122583497D01*
X104800500Y-122428842D01*
X104800500Y-122271158D01*
X104800500Y-122271155D01*
X104800499Y-122271153D01*
X104787384Y-122205220D01*
X104769737Y-122116503D01*
X104767991Y-122112287D01*
X104709397Y-121970827D01*
X104709390Y-121970814D01*
X104621789Y-121839711D01*
X104621786Y-121839707D01*
X104510292Y-121728213D01*
X104510288Y-121728210D01*
X104379185Y-121640609D01*
X104379172Y-121640602D01*
X104233501Y-121580264D01*
X104233489Y-121580261D01*
X104078845Y-121549500D01*
X104078842Y-121549500D01*
X103921158Y-121549500D01*
X103921153Y-121549500D01*
X103880332Y-121557620D01*
X103810740Y-121551393D01*
X103755563Y-121508530D01*
X103732319Y-121442640D01*
X103738209Y-121397687D01*
X103768477Y-121304534D01*
X103800500Y-121102352D01*
X103800500Y-120897648D01*
X103799905Y-120893893D01*
X103808861Y-120824603D01*
X103853858Y-120771152D01*
X103920610Y-120750513D01*
X103922379Y-120750500D01*
X104078844Y-120750500D01*
X104078845Y-120750499D01*
X104233497Y-120719737D01*
X104379179Y-120659394D01*
X104510289Y-120571789D01*
X104621789Y-120460289D01*
X104709394Y-120329179D01*
X104769737Y-120183497D01*
X104800500Y-120028842D01*
X104800500Y-119871158D01*
X104800500Y-119871155D01*
X104800499Y-119871153D01*
X104785494Y-119795719D01*
X104769737Y-119716503D01*
X104762694Y-119699500D01*
X104709397Y-119570827D01*
X104709390Y-119570814D01*
X104621789Y-119439711D01*
X104621786Y-119439707D01*
X104510292Y-119328213D01*
X104510288Y-119328210D01*
X104379185Y-119240609D01*
X104379172Y-119240602D01*
X104233501Y-119180264D01*
X104233489Y-119180261D01*
X104078845Y-119149500D01*
X104078842Y-119149500D01*
X103921158Y-119149500D01*
X103921155Y-119149500D01*
X103766510Y-119180261D01*
X103766498Y-119180264D01*
X103620827Y-119240602D01*
X103620814Y-119240609D01*
X103489711Y-119328210D01*
X103489707Y-119328213D01*
X103378213Y-119439707D01*
X103378210Y-119439711D01*
X103290609Y-119570814D01*
X103290602Y-119570827D01*
X103230264Y-119716498D01*
X103230260Y-119716511D01*
X103226819Y-119733810D01*
X103194431Y-119795719D01*
X103133714Y-119830291D01*
X103063945Y-119826548D01*
X103048908Y-119820098D01*
X102999223Y-119794781D01*
X102804534Y-119731522D01*
X102629995Y-119703878D01*
X102602352Y-119699500D01*
X102397648Y-119699500D01*
X102373329Y-119703351D01*
X102195465Y-119731522D01*
X102000776Y-119794781D01*
X101818386Y-119887715D01*
X101652786Y-120008028D01*
X101508028Y-120152786D01*
X101387715Y-120318386D01*
X101294781Y-120500776D01*
X101231522Y-120695465D01*
X101199500Y-120897648D01*
X95195285Y-120897648D01*
X95181613Y-120887715D01*
X95181612Y-120887714D01*
X95181610Y-120887713D01*
X95124653Y-120858691D01*
X94999223Y-120794781D01*
X94804534Y-120731522D01*
X94629995Y-120703878D01*
X94602352Y-120699500D01*
X94397648Y-120699500D01*
X94373329Y-120703351D01*
X94195465Y-120731522D01*
X94000776Y-120794781D01*
X93818386Y-120887715D01*
X93652786Y-121008028D01*
X93508028Y-121152786D01*
X93387715Y-121318386D01*
X93294781Y-121500776D01*
X93231522Y-121695465D01*
X93199500Y-121897648D01*
X91850500Y-121897648D01*
X91850500Y-118421153D01*
X105699500Y-118421153D01*
X105699500Y-118578846D01*
X105730261Y-118733489D01*
X105730264Y-118733501D01*
X105790602Y-118879172D01*
X105790609Y-118879185D01*
X105878210Y-119010288D01*
X105878213Y-119010292D01*
X105989707Y-119121786D01*
X105989711Y-119121789D01*
X106120814Y-119209390D01*
X106120827Y-119209397D01*
X106258130Y-119266269D01*
X106266503Y-119269737D01*
X106421153Y-119300499D01*
X106421156Y-119300500D01*
X106421158Y-119300500D01*
X106578844Y-119300500D01*
X106578845Y-119300499D01*
X106733497Y-119269737D01*
X106879179Y-119209394D01*
X107010289Y-119121789D01*
X107121789Y-119010289D01*
X107209394Y-118879179D01*
X107269737Y-118733497D01*
X107300500Y-118578842D01*
X107300500Y-118421158D01*
X107300500Y-118421155D01*
X107300499Y-118421153D01*
X107290879Y-118372789D01*
X107269737Y-118266503D01*
X107236676Y-118186685D01*
X107209397Y-118120827D01*
X107209390Y-118120814D01*
X107121789Y-117989711D01*
X107121786Y-117989707D01*
X107010292Y-117878213D01*
X107010287Y-117878209D01*
X106879185Y-117790609D01*
X106879172Y-117790602D01*
X106862395Y-117783653D01*
X108699500Y-117783653D01*
X108699500Y-117941346D01*
X108730261Y-118095989D01*
X108730264Y-118096001D01*
X108790602Y-118241672D01*
X108790609Y-118241685D01*
X108878210Y-118372788D01*
X108878213Y-118372792D01*
X108989707Y-118484286D01*
X108989711Y-118484289D01*
X109120814Y-118571890D01*
X109120827Y-118571897D01*
X109259103Y-118629172D01*
X109266503Y-118632237D01*
X109421153Y-118662999D01*
X109421156Y-118663000D01*
X109421158Y-118663000D01*
X109578844Y-118663000D01*
X109578845Y-118662999D01*
X109733497Y-118632237D01*
X109879179Y-118571894D01*
X110010289Y-118484289D01*
X110121789Y-118372789D01*
X110209394Y-118241679D01*
X110269737Y-118095997D01*
X110300500Y-117941342D01*
X110300500Y-117783658D01*
X110300500Y-117783655D01*
X110300499Y-117783653D01*
X110297731Y-117769737D01*
X110269737Y-117629003D01*
X110220566Y-117510292D01*
X110209397Y-117483327D01*
X110209390Y-117483314D01*
X110121789Y-117352211D01*
X110121786Y-117352207D01*
X110010292Y-117240713D01*
X110010288Y-117240710D01*
X109879185Y-117153109D01*
X109879172Y-117153102D01*
X109733501Y-117092764D01*
X109733489Y-117092761D01*
X109578845Y-117062000D01*
X109578842Y-117062000D01*
X109421158Y-117062000D01*
X109421155Y-117062000D01*
X109266510Y-117092761D01*
X109266498Y-117092764D01*
X109120827Y-117153102D01*
X109120814Y-117153109D01*
X108989711Y-117240710D01*
X108989707Y-117240713D01*
X108878213Y-117352207D01*
X108878210Y-117352211D01*
X108790609Y-117483314D01*
X108790602Y-117483327D01*
X108730264Y-117628998D01*
X108730261Y-117629010D01*
X108699500Y-117783653D01*
X106862395Y-117783653D01*
X106733501Y-117730264D01*
X106733489Y-117730261D01*
X106578845Y-117699500D01*
X106578842Y-117699500D01*
X106421158Y-117699500D01*
X106421155Y-117699500D01*
X106266510Y-117730261D01*
X106266498Y-117730264D01*
X106120827Y-117790602D01*
X106120814Y-117790609D01*
X105989711Y-117878210D01*
X105989707Y-117878213D01*
X105878213Y-117989707D01*
X105878210Y-117989711D01*
X105790609Y-118120814D01*
X105790602Y-118120827D01*
X105730264Y-118266498D01*
X105730261Y-118266510D01*
X105699500Y-118421153D01*
X91850500Y-118421153D01*
X91850500Y-115974500D01*
X91870185Y-115907461D01*
X91922989Y-115861706D01*
X91974500Y-115850500D01*
X93510953Y-115850500D01*
X93577992Y-115870185D01*
X93623747Y-115922989D01*
X93633691Y-115992147D01*
X93604666Y-116055703D01*
X93598634Y-116062181D01*
X93508032Y-116152782D01*
X93508028Y-116152786D01*
X93387715Y-116318386D01*
X93294781Y-116500776D01*
X93231522Y-116695465D01*
X93199500Y-116897648D01*
X93199500Y-117102351D01*
X93231522Y-117304534D01*
X93294781Y-117499223D01*
X93387715Y-117681613D01*
X93508028Y-117847213D01*
X93652786Y-117991971D01*
X93795974Y-118096001D01*
X93818390Y-118112287D01*
X93934607Y-118171503D01*
X94000776Y-118205218D01*
X94000778Y-118205218D01*
X94000781Y-118205220D01*
X94095928Y-118236135D01*
X94195465Y-118268477D01*
X94285170Y-118282685D01*
X94397648Y-118300500D01*
X94397649Y-118300500D01*
X94602351Y-118300500D01*
X94602352Y-118300500D01*
X94804534Y-118268477D01*
X94999219Y-118205220D01*
X95181610Y-118112287D01*
X95274590Y-118044732D01*
X95347213Y-117991971D01*
X95347215Y-117991968D01*
X95347219Y-117991966D01*
X95491966Y-117847219D01*
X95491968Y-117847215D01*
X95491971Y-117847213D01*
X95548259Y-117769738D01*
X95612287Y-117681610D01*
X95705220Y-117499219D01*
X95768477Y-117304534D01*
X95800500Y-117102352D01*
X95800500Y-116897648D01*
X95781908Y-116780263D01*
X95768477Y-116695465D01*
X95705218Y-116500776D01*
X95660651Y-116413309D01*
X95612287Y-116318390D01*
X95566265Y-116255045D01*
X95491971Y-116152786D01*
X95371006Y-116031821D01*
X95355051Y-116002603D01*
X95338287Y-115973803D01*
X95338364Y-115972042D01*
X95337521Y-115970498D01*
X95339896Y-115937283D01*
X95341363Y-115904001D01*
X95342379Y-115902562D01*
X95342505Y-115900806D01*
X95344869Y-115897648D01*
X101199500Y-115897648D01*
X101199500Y-116102351D01*
X101231522Y-116304534D01*
X101294781Y-116499223D01*
X101344976Y-116597735D01*
X101374445Y-116655571D01*
X101387715Y-116681613D01*
X101508028Y-116847213D01*
X101652786Y-116991971D01*
X101807749Y-117104556D01*
X101818390Y-117112287D01*
X101898494Y-117153102D01*
X102000776Y-117205218D01*
X102000778Y-117205218D01*
X102000781Y-117205220D01*
X102087784Y-117233489D01*
X102195465Y-117268477D01*
X102296557Y-117284488D01*
X102397648Y-117300500D01*
X102397649Y-117300500D01*
X102602351Y-117300500D01*
X102602352Y-117300500D01*
X102804534Y-117268477D01*
X102999219Y-117205220D01*
X103053163Y-117177733D01*
X103121832Y-117164837D01*
X103186573Y-117191113D01*
X103226830Y-117248219D01*
X103231076Y-117312409D01*
X103199500Y-117471153D01*
X103199500Y-117628846D01*
X103230261Y-117783489D01*
X103230264Y-117783501D01*
X103290602Y-117929172D01*
X103290609Y-117929185D01*
X103378210Y-118060288D01*
X103378213Y-118060292D01*
X103489707Y-118171786D01*
X103489711Y-118171789D01*
X103620814Y-118259390D01*
X103620827Y-118259397D01*
X103720060Y-118300500D01*
X103766503Y-118319737D01*
X103921153Y-118350499D01*
X103921156Y-118350500D01*
X103921158Y-118350500D01*
X104078844Y-118350500D01*
X104078845Y-118350499D01*
X104233497Y-118319737D01*
X104379179Y-118259394D01*
X104510289Y-118171789D01*
X104621789Y-118060289D01*
X104709394Y-117929179D01*
X104769737Y-117783497D01*
X104800500Y-117628842D01*
X104800500Y-117471158D01*
X104800500Y-117471155D01*
X104800499Y-117471153D01*
X104792536Y-117431120D01*
X104769737Y-117316503D01*
X104764779Y-117304534D01*
X104709397Y-117170827D01*
X104709390Y-117170814D01*
X104621789Y-117039711D01*
X104621786Y-117039707D01*
X104510292Y-116928213D01*
X104510288Y-116928210D01*
X104379185Y-116840609D01*
X104379172Y-116840602D01*
X104233501Y-116780264D01*
X104233489Y-116780261D01*
X104078845Y-116749500D01*
X104078842Y-116749500D01*
X103921158Y-116749500D01*
X103921153Y-116749500D01*
X103789698Y-116775648D01*
X103720106Y-116769421D01*
X103664929Y-116726558D01*
X103641685Y-116660668D01*
X103655022Y-116597736D01*
X103705220Y-116499219D01*
X103768477Y-116304534D01*
X103800500Y-116102352D01*
X103800500Y-115924500D01*
X103820185Y-115857461D01*
X103872989Y-115811706D01*
X103924500Y-115800500D01*
X104078844Y-115800500D01*
X104078845Y-115800499D01*
X104233497Y-115769737D01*
X104379179Y-115709394D01*
X104510289Y-115621789D01*
X104621789Y-115510289D01*
X104709394Y-115379179D01*
X104769737Y-115233497D01*
X104800500Y-115078842D01*
X104800500Y-114921158D01*
X104800500Y-114921155D01*
X104800499Y-114921153D01*
X104793669Y-114886818D01*
X104769737Y-114766503D01*
X104745317Y-114707547D01*
X104709397Y-114620827D01*
X104709390Y-114620814D01*
X104621789Y-114489711D01*
X104621786Y-114489707D01*
X104510292Y-114378213D01*
X104510288Y-114378210D01*
X104379185Y-114290609D01*
X104379172Y-114290602D01*
X104233501Y-114230264D01*
X104233489Y-114230261D01*
X104078845Y-114199500D01*
X104078842Y-114199500D01*
X103921158Y-114199500D01*
X103921155Y-114199500D01*
X103766510Y-114230261D01*
X103766498Y-114230264D01*
X103620827Y-114290602D01*
X103620814Y-114290609D01*
X103489711Y-114378210D01*
X103489707Y-114378213D01*
X103378213Y-114489707D01*
X103378210Y-114489711D01*
X103290609Y-114620814D01*
X103290604Y-114620823D01*
X103231661Y-114763127D01*
X103187820Y-114817530D01*
X103121526Y-114839595D01*
X103060806Y-114826159D01*
X102999226Y-114794782D01*
X102804534Y-114731522D01*
X102629995Y-114703878D01*
X102602352Y-114699500D01*
X102397648Y-114699500D01*
X102373329Y-114703351D01*
X102195465Y-114731522D01*
X102000776Y-114794781D01*
X101818386Y-114887715D01*
X101652786Y-115008028D01*
X101508028Y-115152786D01*
X101387715Y-115318386D01*
X101294781Y-115500776D01*
X101231522Y-115695465D01*
X101199500Y-115897648D01*
X95344869Y-115897648D01*
X95362466Y-115874140D01*
X95381689Y-115846943D01*
X95383514Y-115846025D01*
X95384377Y-115844873D01*
X95412192Y-115829187D01*
X95419240Y-115826335D01*
X95481785Y-115809577D01*
X95531904Y-115780639D01*
X95618716Y-115730520D01*
X95730520Y-115618716D01*
X95730520Y-115618714D01*
X95740728Y-115608507D01*
X95740729Y-115608504D01*
X96514662Y-114834572D01*
X96575983Y-114801089D01*
X96578150Y-114800638D01*
X96636085Y-114789113D01*
X96733497Y-114769737D01*
X96879179Y-114709394D01*
X97010289Y-114621789D01*
X97121789Y-114510289D01*
X97209394Y-114379179D01*
X97269737Y-114233497D01*
X97300500Y-114078842D01*
X97300500Y-113921158D01*
X97300500Y-113921155D01*
X97300499Y-113921153D01*
X97269738Y-113766510D01*
X97269737Y-113766503D01*
X97220423Y-113647449D01*
X97212955Y-113577981D01*
X97220421Y-113552551D01*
X97269737Y-113433494D01*
X97300500Y-113278839D01*
X97300500Y-113121155D01*
X97300500Y-113121152D01*
X97300499Y-113121150D01*
X97269738Y-112966507D01*
X97269737Y-112966500D01*
X97233167Y-112878211D01*
X97209397Y-112820824D01*
X97209390Y-112820811D01*
X97123916Y-112692891D01*
X97103038Y-112626214D01*
X97121522Y-112558833D01*
X97173501Y-112512143D01*
X97227018Y-112500000D01*
X107699017Y-112500000D01*
X107766056Y-112519685D01*
X107811811Y-112572489D01*
X107821755Y-112641647D01*
X107792730Y-112705203D01*
X107746469Y-112738561D01*
X107620827Y-112790602D01*
X107620814Y-112790609D01*
X107489711Y-112878210D01*
X107489707Y-112878213D01*
X107378213Y-112989707D01*
X107378210Y-112989711D01*
X107290609Y-113120814D01*
X107290602Y-113120827D01*
X107230264Y-113266498D01*
X107230261Y-113266510D01*
X107199500Y-113421153D01*
X107199500Y-113578846D01*
X107230261Y-113733489D01*
X107230264Y-113733501D01*
X107290602Y-113879172D01*
X107290609Y-113879185D01*
X107378210Y-114010288D01*
X107378213Y-114010292D01*
X107489707Y-114121786D01*
X107489711Y-114121789D01*
X107620814Y-114209390D01*
X107620827Y-114209397D01*
X107766498Y-114269735D01*
X107766503Y-114269737D01*
X107921153Y-114300499D01*
X107921156Y-114300500D01*
X107921158Y-114300500D01*
X108078844Y-114300500D01*
X108078845Y-114300499D01*
X108233497Y-114269737D01*
X108379179Y-114209394D01*
X108510289Y-114121789D01*
X108621789Y-114010289D01*
X108709394Y-113879179D01*
X108769737Y-113733497D01*
X108800500Y-113578842D01*
X108800500Y-113421158D01*
X108800500Y-113421155D01*
X108800499Y-113421153D01*
X108769737Y-113266503D01*
X108769735Y-113266498D01*
X108709397Y-113120827D01*
X108709390Y-113120814D01*
X108621789Y-112989711D01*
X108621786Y-112989707D01*
X108510292Y-112878213D01*
X108510288Y-112878210D01*
X108379185Y-112790609D01*
X108379172Y-112790602D01*
X108253531Y-112738561D01*
X108199127Y-112694720D01*
X108177062Y-112628426D01*
X108194341Y-112560727D01*
X108245478Y-112513116D01*
X108300983Y-112500000D01*
X114376000Y-112500000D01*
X114443039Y-112519685D01*
X114488794Y-112572489D01*
X114500000Y-112624000D01*
X114500000Y-123729843D01*
X114480315Y-123796882D01*
X114427511Y-123842637D01*
X114376000Y-123853843D01*
X108089046Y-123853843D01*
X108022007Y-123834158D01*
X107976252Y-123781354D01*
X107966308Y-123712196D01*
X107974485Y-123682391D01*
X107994735Y-123633501D01*
X107994737Y-123633497D01*
X108025500Y-123478842D01*
X108025500Y-123321158D01*
X108025500Y-123321155D01*
X108025499Y-123321153D01*
X108003447Y-123210292D01*
X107994737Y-123166503D01*
X107994735Y-123166498D01*
X107934397Y-123020827D01*
X107934390Y-123020814D01*
X107846789Y-122889711D01*
X107846786Y-122889707D01*
X107735292Y-122778213D01*
X107735288Y-122778210D01*
X107645429Y-122718168D01*
X107604185Y-122690609D01*
X107604172Y-122690602D01*
X107458501Y-122630264D01*
X107458489Y-122630261D01*
X107412701Y-122621153D01*
X112499500Y-122621153D01*
X112499500Y-122778846D01*
X112530261Y-122933489D01*
X112530264Y-122933501D01*
X112590602Y-123079172D01*
X112590609Y-123079185D01*
X112678210Y-123210288D01*
X112678213Y-123210292D01*
X112789707Y-123321786D01*
X112789711Y-123321789D01*
X112920814Y-123409390D01*
X112920827Y-123409397D01*
X113066498Y-123469735D01*
X113066503Y-123469737D01*
X113221153Y-123500499D01*
X113221156Y-123500500D01*
X113221158Y-123500500D01*
X113378844Y-123500500D01*
X113378845Y-123500499D01*
X113533497Y-123469737D01*
X113679179Y-123409394D01*
X113810289Y-123321789D01*
X113921789Y-123210289D01*
X114009394Y-123079179D01*
X114069737Y-122933497D01*
X114100500Y-122778842D01*
X114100500Y-122621158D01*
X114100500Y-122621155D01*
X114100499Y-122621153D01*
X114096192Y-122599500D01*
X114069737Y-122466503D01*
X114054138Y-122428844D01*
X114009397Y-122320827D01*
X114009390Y-122320814D01*
X113921789Y-122189711D01*
X113921786Y-122189707D01*
X113810292Y-122078213D01*
X113810288Y-122078210D01*
X113679185Y-121990609D01*
X113679172Y-121990602D01*
X113533501Y-121930264D01*
X113533489Y-121930261D01*
X113378845Y-121899500D01*
X113378842Y-121899500D01*
X113221158Y-121899500D01*
X113221155Y-121899500D01*
X113066510Y-121930261D01*
X113066498Y-121930264D01*
X112920827Y-121990602D01*
X112920814Y-121990609D01*
X112789711Y-122078210D01*
X112789707Y-122078213D01*
X112678213Y-122189707D01*
X112678210Y-122189711D01*
X112590609Y-122320814D01*
X112590602Y-122320827D01*
X112530264Y-122466498D01*
X112530261Y-122466510D01*
X112499500Y-122621153D01*
X107412701Y-122621153D01*
X107303845Y-122599500D01*
X107303842Y-122599500D01*
X107146158Y-122599500D01*
X107146155Y-122599500D01*
X106991510Y-122630261D01*
X106991498Y-122630264D01*
X106845827Y-122690602D01*
X106845814Y-122690609D01*
X106714711Y-122778210D01*
X106714707Y-122778213D01*
X106603213Y-122889707D01*
X106603210Y-122889711D01*
X106515609Y-123020814D01*
X106515602Y-123020827D01*
X106455264Y-123166498D01*
X106455261Y-123166510D01*
X106424500Y-123321153D01*
X106424500Y-123478846D01*
X106455261Y-123633489D01*
X106455264Y-123633501D01*
X106515602Y-123779172D01*
X106515609Y-123779185D01*
X106603210Y-123910288D01*
X106603213Y-123910292D01*
X106714707Y-124021786D01*
X106714711Y-124021789D01*
X106845814Y-124109390D01*
X106845827Y-124109397D01*
X106942646Y-124149500D01*
X106991503Y-124169737D01*
X107142312Y-124199735D01*
X107146153Y-124200499D01*
X107146156Y-124200500D01*
X107146158Y-124200500D01*
X107303844Y-124200500D01*
X107303845Y-124200499D01*
X107458497Y-124169737D01*
X107604179Y-124109394D01*
X107607102Y-124107440D01*
X107608868Y-124106887D01*
X107609554Y-124106521D01*
X107609623Y-124106650D01*
X107673777Y-124086558D01*
X107741159Y-124105037D01*
X107787853Y-124157013D01*
X107800000Y-124210538D01*
X107800000Y-137374954D01*
X107780315Y-137441993D01*
X107727511Y-137487748D01*
X107723460Y-137489512D01*
X107720828Y-137490602D01*
X107720814Y-137490609D01*
X107589711Y-137578210D01*
X107589707Y-137578213D01*
X107478213Y-137689707D01*
X107478210Y-137689711D01*
X107390609Y-137820814D01*
X107390602Y-137820827D01*
X107330264Y-137966498D01*
X107330261Y-137966510D01*
X107299500Y-138121153D01*
X107299500Y-138278846D01*
X107330261Y-138433489D01*
X107330264Y-138433501D01*
X107390602Y-138579172D01*
X107390609Y-138579185D01*
X107478210Y-138710288D01*
X107478213Y-138710292D01*
X107589710Y-138821789D01*
X107720815Y-138909390D01*
X107720821Y-138909394D01*
X107723444Y-138910480D01*
X107724604Y-138911415D01*
X107726192Y-138912264D01*
X107726031Y-138912564D01*
X107777849Y-138954314D01*
X107799921Y-139020605D01*
X107800000Y-139025044D01*
X107800000Y-139601944D01*
X107780315Y-139668983D01*
X107727511Y-139714738D01*
X107700193Y-139723561D01*
X107666507Y-139730261D01*
X107666498Y-139730264D01*
X107520827Y-139790602D01*
X107520814Y-139790609D01*
X107389711Y-139878210D01*
X107389707Y-139878213D01*
X107278213Y-139989707D01*
X107278210Y-139989711D01*
X107190609Y-140120814D01*
X107190602Y-140120827D01*
X107130264Y-140266498D01*
X107130261Y-140266510D01*
X107099500Y-140421153D01*
X107099500Y-140578846D01*
X107130261Y-140733489D01*
X107130264Y-140733501D01*
X107190602Y-140879172D01*
X107190609Y-140879185D01*
X107278210Y-141010288D01*
X107278213Y-141010292D01*
X107389707Y-141121786D01*
X107389711Y-141121789D01*
X107520814Y-141209390D01*
X107520827Y-141209397D01*
X107622952Y-141251698D01*
X107677356Y-141295538D01*
X107699421Y-141361833D01*
X107699500Y-141366259D01*
X107699500Y-141378849D01*
X107730261Y-141533492D01*
X107730264Y-141533504D01*
X107790561Y-141679074D01*
X107800000Y-141726526D01*
X107800000Y-142750601D01*
X107787681Y-142799799D01*
X107789275Y-142800460D01*
X107726602Y-142951765D01*
X107726599Y-142951777D01*
X107695838Y-143106420D01*
X107695838Y-143264113D01*
X107712791Y-143349340D01*
X107706564Y-143418931D01*
X107663701Y-143474109D01*
X107660072Y-143476627D01*
X107650425Y-143483075D01*
X107624468Y-143500419D01*
X107624465Y-143500422D01*
X107512974Y-143611912D01*
X107512971Y-143611916D01*
X107425370Y-143743019D01*
X107425363Y-143743032D01*
X107365025Y-143888703D01*
X107365022Y-143888715D01*
X107334261Y-144043358D01*
X107334261Y-144201051D01*
X107365022Y-144355694D01*
X107365025Y-144355706D01*
X107425363Y-144501377D01*
X107425370Y-144501390D01*
X107512971Y-144632493D01*
X107512974Y-144632497D01*
X107624468Y-144743991D01*
X107624474Y-144743996D01*
X107652913Y-144762999D01*
X107697718Y-144816612D01*
X107706424Y-144885937D01*
X107705639Y-144890287D01*
X107699500Y-144921153D01*
X107699500Y-145078846D01*
X107730261Y-145233489D01*
X107730264Y-145233501D01*
X107790561Y-145379071D01*
X107800000Y-145426523D01*
X107800000Y-147273477D01*
X107790561Y-147320929D01*
X107730264Y-147466498D01*
X107730261Y-147466510D01*
X107699500Y-147621153D01*
X107699500Y-147778846D01*
X107730261Y-147933489D01*
X107730264Y-147933501D01*
X107790561Y-148079071D01*
X107800000Y-148126523D01*
X107800000Y-148600000D01*
X108905832Y-148600000D01*
X108972871Y-148619685D01*
X108974723Y-148620898D01*
X109084491Y-148694243D01*
X109084504Y-148694250D01*
X109175203Y-148731818D01*
X109230180Y-148754590D01*
X109384830Y-148785352D01*
X109384833Y-148785353D01*
X109384835Y-148785353D01*
X109542521Y-148785353D01*
X109542522Y-148785352D01*
X109697174Y-148754590D01*
X109842856Y-148694247D01*
X109857360Y-148684556D01*
X109952631Y-148620898D01*
X110019308Y-148600020D01*
X110021522Y-148600000D01*
X114376000Y-148600000D01*
X114443039Y-148619685D01*
X114488794Y-148672489D01*
X114500000Y-148724000D01*
X114500000Y-160376000D01*
X114480315Y-160443039D01*
X114427511Y-160488794D01*
X114376000Y-160500000D01*
X66624000Y-160500000D01*
X66556961Y-160480315D01*
X66511206Y-160427511D01*
X66500000Y-160376000D01*
X66500000Y-159641517D01*
X66519685Y-159574478D01*
X66572489Y-159528723D01*
X66641647Y-159518779D01*
X66685997Y-159534128D01*
X66883303Y-159648043D01*
X66883305Y-159648043D01*
X66883309Y-159648046D01*
X67125571Y-159748394D01*
X67125581Y-159748398D01*
X67378884Y-159816270D01*
X67638880Y-159850500D01*
X67638887Y-159850500D01*
X67901113Y-159850500D01*
X67901120Y-159850500D01*
X68161116Y-159816270D01*
X68414419Y-159748398D01*
X68656697Y-159648043D01*
X68883803Y-159516924D01*
X69091851Y-159357282D01*
X69091855Y-159357277D01*
X69091860Y-159357274D01*
X69277274Y-159171860D01*
X69277277Y-159171855D01*
X69277282Y-159171851D01*
X69436924Y-158963803D01*
X69536579Y-158791193D01*
X69587143Y-158742981D01*
X69655750Y-158729757D01*
X69691413Y-158738634D01*
X69766503Y-158769737D01*
X69921153Y-158800499D01*
X69921156Y-158800500D01*
X69921158Y-158800500D01*
X70078844Y-158800500D01*
X70078845Y-158800499D01*
X70233497Y-158769737D01*
X70379179Y-158709394D01*
X70510289Y-158621789D01*
X70621789Y-158510289D01*
X70709394Y-158379179D01*
X70769737Y-158233497D01*
X70800500Y-158078842D01*
X70800500Y-157921158D01*
X70800500Y-157921155D01*
X70800499Y-157921153D01*
X70775222Y-157794077D01*
X70769737Y-157766503D01*
X70767289Y-157760592D01*
X70709397Y-157620827D01*
X70709390Y-157620814D01*
X70621789Y-157489711D01*
X70621786Y-157489707D01*
X70510292Y-157378213D01*
X70510288Y-157378210D01*
X70379185Y-157290609D01*
X70379172Y-157290602D01*
X70233501Y-157230264D01*
X70233489Y-157230261D01*
X70078845Y-157199500D01*
X70078842Y-157199500D01*
X69921158Y-157199500D01*
X69921155Y-157199500D01*
X69785120Y-157226559D01*
X69715529Y-157220332D01*
X69660351Y-157177469D01*
X69646368Y-157152395D01*
X69568046Y-156963309D01*
X69568041Y-156963299D01*
X69436924Y-156736196D01*
X69277281Y-156528148D01*
X69277274Y-156528140D01*
X69091860Y-156342726D01*
X69091851Y-156342718D01*
X68883803Y-156183075D01*
X68656700Y-156051958D01*
X68656690Y-156051953D01*
X68414428Y-155951605D01*
X68414421Y-155951603D01*
X68414419Y-155951602D01*
X68161116Y-155883730D01*
X68103339Y-155876123D01*
X67901127Y-155849500D01*
X67901120Y-155849500D01*
X67638880Y-155849500D01*
X67638872Y-155849500D01*
X67407772Y-155879926D01*
X67378884Y-155883730D01*
X67232367Y-155922989D01*
X67125581Y-155951602D01*
X67125571Y-155951605D01*
X66883309Y-156051953D01*
X66883304Y-156051956D01*
X66685999Y-156165869D01*
X66618099Y-156182341D01*
X66552072Y-156159488D01*
X66508882Y-156104566D01*
X66500000Y-156058481D01*
X66500000Y-153291517D01*
X66519685Y-153224478D01*
X66572489Y-153178723D01*
X66641647Y-153168779D01*
X66685997Y-153184128D01*
X66883303Y-153298043D01*
X66883305Y-153298043D01*
X66883309Y-153298046D01*
X67125571Y-153398394D01*
X67125581Y-153398398D01*
X67378884Y-153466270D01*
X67638880Y-153500500D01*
X67638887Y-153500500D01*
X67901113Y-153500500D01*
X67901120Y-153500500D01*
X68161116Y-153466270D01*
X68414419Y-153398398D01*
X68656697Y-153298043D01*
X68883803Y-153166924D01*
X69091851Y-153007282D01*
X69091855Y-153007277D01*
X69091860Y-153007274D01*
X69277274Y-152821860D01*
X69277277Y-152821855D01*
X69277282Y-152821851D01*
X69436924Y-152613803D01*
X69568043Y-152386697D01*
X69571559Y-152378210D01*
X69632841Y-152230261D01*
X69668398Y-152144419D01*
X69736270Y-151891116D01*
X69770500Y-151631120D01*
X69770500Y-151368880D01*
X69736270Y-151108884D01*
X69668398Y-150855581D01*
X69668394Y-150855571D01*
X69568046Y-150613309D01*
X69568041Y-150613299D01*
X69436924Y-150386196D01*
X69277281Y-150178148D01*
X69277274Y-150178140D01*
X69091860Y-149992726D01*
X69091851Y-149992718D01*
X68883803Y-149833075D01*
X68656700Y-149701958D01*
X68656690Y-149701953D01*
X68414428Y-149601605D01*
X68414421Y-149601603D01*
X68414419Y-149601602D01*
X68161116Y-149533730D01*
X68103339Y-149526123D01*
X67901127Y-149499500D01*
X67901120Y-149499500D01*
X67638880Y-149499500D01*
X67638872Y-149499500D01*
X67407772Y-149529926D01*
X67378884Y-149533730D01*
X67125581Y-149601602D01*
X67125571Y-149601605D01*
X66883309Y-149701953D01*
X66883304Y-149701956D01*
X66685999Y-149815869D01*
X66618099Y-149832341D01*
X66552072Y-149809488D01*
X66508882Y-149754566D01*
X66500000Y-149708481D01*
X66500000Y-147671153D01*
X69999500Y-147671153D01*
X69999500Y-147828846D01*
X70030261Y-147983489D01*
X70030264Y-147983501D01*
X70090602Y-148129172D01*
X70090609Y-148129185D01*
X70178210Y-148260288D01*
X70178213Y-148260292D01*
X70289707Y-148371786D01*
X70289711Y-148371789D01*
X70420814Y-148459390D01*
X70420827Y-148459397D01*
X70551040Y-148513332D01*
X70566503Y-148519737D01*
X70721153Y-148550499D01*
X70721156Y-148550500D01*
X70849903Y-148550500D01*
X70916942Y-148570185D01*
X70937583Y-148586818D01*
X78081284Y-155730520D01*
X78081286Y-155730521D01*
X78081290Y-155730524D01*
X78151777Y-155771219D01*
X78218216Y-155809577D01*
X78370943Y-155850501D01*
X78370945Y-155850501D01*
X78536654Y-155850501D01*
X78536670Y-155850500D01*
X82999462Y-155850500D01*
X83066501Y-155870185D01*
X83112256Y-155922989D01*
X83122200Y-155992147D01*
X83093175Y-156055703D01*
X83061462Y-156081887D01*
X82886196Y-156183075D01*
X82678148Y-156342718D01*
X82492718Y-156528148D01*
X82333075Y-156736196D01*
X82201958Y-156963299D01*
X82201953Y-156963309D01*
X82101605Y-157205571D01*
X82101602Y-157205581D01*
X82055347Y-157378210D01*
X82033730Y-157458885D01*
X81999500Y-157718872D01*
X81999500Y-157981127D01*
X82017045Y-158114385D01*
X82033730Y-158241116D01*
X82101602Y-158494418D01*
X82101605Y-158494428D01*
X82201953Y-158736690D01*
X82201958Y-158736700D01*
X82333075Y-158963803D01*
X82492718Y-159171851D01*
X82492726Y-159171860D01*
X82678140Y-159357274D01*
X82678148Y-159357281D01*
X82886196Y-159516924D01*
X83113299Y-159648041D01*
X83113309Y-159648046D01*
X83355571Y-159748394D01*
X83355581Y-159748398D01*
X83608884Y-159816270D01*
X83868880Y-159850500D01*
X83868887Y-159850500D01*
X84131113Y-159850500D01*
X84131120Y-159850500D01*
X84391116Y-159816270D01*
X84644419Y-159748398D01*
X84886697Y-159648043D01*
X85113803Y-159516924D01*
X85321851Y-159357282D01*
X85321855Y-159357277D01*
X85321860Y-159357274D01*
X85507274Y-159171860D01*
X85507277Y-159171855D01*
X85507282Y-159171851D01*
X85666924Y-158963803D01*
X85798043Y-158736697D01*
X85898398Y-158494419D01*
X85966270Y-158241116D01*
X86000500Y-157981120D01*
X86000500Y-157718880D01*
X85966270Y-157458884D01*
X85898398Y-157205581D01*
X85876368Y-157152395D01*
X85798046Y-156963309D01*
X85798041Y-156963299D01*
X85666924Y-156736196D01*
X85507281Y-156528148D01*
X85507274Y-156528140D01*
X85321860Y-156342726D01*
X85321851Y-156342718D01*
X85113803Y-156183075D01*
X84938538Y-156081887D01*
X84890323Y-156031320D01*
X84877099Y-155962713D01*
X84903067Y-155897849D01*
X84959981Y-155857320D01*
X85000538Y-155850500D01*
X85699903Y-155850500D01*
X85766942Y-155870185D01*
X85787584Y-155886819D01*
X88015139Y-158114374D01*
X88015149Y-158114385D01*
X88019479Y-158118715D01*
X88019480Y-158118716D01*
X88131284Y-158230520D01*
X88218095Y-158280639D01*
X88218097Y-158280641D01*
X88256151Y-158302611D01*
X88268215Y-158309577D01*
X88420943Y-158350501D01*
X88420946Y-158350501D01*
X88586653Y-158350501D01*
X88586669Y-158350500D01*
X94413331Y-158350500D01*
X94413347Y-158350501D01*
X94420943Y-158350501D01*
X94579054Y-158350501D01*
X94579057Y-158350501D01*
X94731785Y-158309577D01*
X94781904Y-158280639D01*
X94868716Y-158230520D01*
X94980520Y-158118716D01*
X94980520Y-158118714D01*
X94990728Y-158108507D01*
X94990730Y-158108504D01*
X95178080Y-157921153D01*
X102399500Y-157921153D01*
X102399500Y-158078846D01*
X102430261Y-158233489D01*
X102430264Y-158233501D01*
X102490602Y-158379172D01*
X102490609Y-158379185D01*
X102578210Y-158510288D01*
X102578213Y-158510292D01*
X102689707Y-158621786D01*
X102689711Y-158621789D01*
X102820814Y-158709390D01*
X102820827Y-158709397D01*
X102966498Y-158769735D01*
X102966503Y-158769737D01*
X103121153Y-158800499D01*
X103121156Y-158800500D01*
X103121158Y-158800500D01*
X103278844Y-158800500D01*
X103278845Y-158800499D01*
X103433497Y-158769737D01*
X103579179Y-158709394D01*
X103710289Y-158621789D01*
X103821789Y-158510289D01*
X103909394Y-158379179D01*
X103969737Y-158233497D01*
X104000500Y-158078842D01*
X104000500Y-157921158D01*
X104000500Y-157921155D01*
X104000499Y-157921153D01*
X104799500Y-157921153D01*
X104799500Y-158078846D01*
X104830261Y-158233489D01*
X104830264Y-158233501D01*
X104890602Y-158379172D01*
X104890609Y-158379185D01*
X104978210Y-158510288D01*
X104978213Y-158510292D01*
X105089707Y-158621786D01*
X105089711Y-158621789D01*
X105220814Y-158709390D01*
X105220827Y-158709397D01*
X105366498Y-158769735D01*
X105366503Y-158769737D01*
X105521153Y-158800499D01*
X105521156Y-158800500D01*
X105521158Y-158800500D01*
X105678844Y-158800500D01*
X105678845Y-158800499D01*
X105833497Y-158769737D01*
X105979179Y-158709394D01*
X106110289Y-158621789D01*
X106221789Y-158510289D01*
X106309394Y-158379179D01*
X106369737Y-158233497D01*
X106400500Y-158078842D01*
X106400500Y-157921158D01*
X106400500Y-157921155D01*
X106400499Y-157921153D01*
X107199500Y-157921153D01*
X107199500Y-158078846D01*
X107230261Y-158233489D01*
X107230264Y-158233501D01*
X107290602Y-158379172D01*
X107290609Y-158379185D01*
X107378210Y-158510288D01*
X107378213Y-158510292D01*
X107489707Y-158621786D01*
X107489711Y-158621789D01*
X107620814Y-158709390D01*
X107620827Y-158709397D01*
X107766498Y-158769735D01*
X107766503Y-158769737D01*
X107921153Y-158800499D01*
X107921156Y-158800500D01*
X107921158Y-158800500D01*
X108078844Y-158800500D01*
X108078845Y-158800499D01*
X108233497Y-158769737D01*
X108379179Y-158709394D01*
X108510289Y-158621789D01*
X108621789Y-158510289D01*
X108709394Y-158379179D01*
X108769737Y-158233497D01*
X108800500Y-158078842D01*
X108800500Y-157921158D01*
X108800500Y-157921155D01*
X108800499Y-157921153D01*
X109599500Y-157921153D01*
X109599500Y-158078846D01*
X109630261Y-158233489D01*
X109630264Y-158233501D01*
X109690602Y-158379172D01*
X109690609Y-158379185D01*
X109778210Y-158510288D01*
X109778213Y-158510292D01*
X109889707Y-158621786D01*
X109889711Y-158621789D01*
X110020814Y-158709390D01*
X110020827Y-158709397D01*
X110166498Y-158769735D01*
X110166503Y-158769737D01*
X110321153Y-158800499D01*
X110321156Y-158800500D01*
X110321158Y-158800500D01*
X110478844Y-158800500D01*
X110478845Y-158800499D01*
X110633497Y-158769737D01*
X110779179Y-158709394D01*
X110910289Y-158621789D01*
X111021789Y-158510289D01*
X111109394Y-158379179D01*
X111169737Y-158233497D01*
X111200500Y-158078842D01*
X111200500Y-157921158D01*
X111200500Y-157921155D01*
X111200499Y-157921153D01*
X111175222Y-157794077D01*
X111169737Y-157766503D01*
X111167289Y-157760592D01*
X111109397Y-157620827D01*
X111109390Y-157620814D01*
X111021789Y-157489711D01*
X111021786Y-157489707D01*
X110910292Y-157378213D01*
X110910288Y-157378210D01*
X110779185Y-157290609D01*
X110779172Y-157290602D01*
X110633501Y-157230264D01*
X110633489Y-157230261D01*
X110478845Y-157199500D01*
X110478842Y-157199500D01*
X110321158Y-157199500D01*
X110321155Y-157199500D01*
X110166510Y-157230261D01*
X110166498Y-157230264D01*
X110020827Y-157290602D01*
X110020814Y-157290609D01*
X109889711Y-157378210D01*
X109889707Y-157378213D01*
X109778213Y-157489707D01*
X109778210Y-157489711D01*
X109690609Y-157620814D01*
X109690602Y-157620827D01*
X109630264Y-157766498D01*
X109630261Y-157766510D01*
X109599500Y-157921153D01*
X108800499Y-157921153D01*
X108775222Y-157794077D01*
X108769737Y-157766503D01*
X108767289Y-157760592D01*
X108709397Y-157620827D01*
X108709390Y-157620814D01*
X108621789Y-157489711D01*
X108621786Y-157489707D01*
X108510292Y-157378213D01*
X108510288Y-157378210D01*
X108379185Y-157290609D01*
X108379172Y-157290602D01*
X108233501Y-157230264D01*
X108233489Y-157230261D01*
X108078845Y-157199500D01*
X108078842Y-157199500D01*
X107921158Y-157199500D01*
X107921155Y-157199500D01*
X107766510Y-157230261D01*
X107766498Y-157230264D01*
X107620827Y-157290602D01*
X107620814Y-157290609D01*
X107489711Y-157378210D01*
X107489707Y-157378213D01*
X107378213Y-157489707D01*
X107378210Y-157489711D01*
X107290609Y-157620814D01*
X107290602Y-157620827D01*
X107230264Y-157766498D01*
X107230261Y-157766510D01*
X107199500Y-157921153D01*
X106400499Y-157921153D01*
X106375222Y-157794077D01*
X106369737Y-157766503D01*
X106367289Y-157760592D01*
X106309397Y-157620827D01*
X106309390Y-157620814D01*
X106221789Y-157489711D01*
X106221786Y-157489707D01*
X106110292Y-157378213D01*
X106110288Y-157378210D01*
X105979185Y-157290609D01*
X105979172Y-157290602D01*
X105833501Y-157230264D01*
X105833489Y-157230261D01*
X105678845Y-157199500D01*
X105678842Y-157199500D01*
X105521158Y-157199500D01*
X105521155Y-157199500D01*
X105366510Y-157230261D01*
X105366498Y-157230264D01*
X105220827Y-157290602D01*
X105220814Y-157290609D01*
X105089711Y-157378210D01*
X105089707Y-157378213D01*
X104978213Y-157489707D01*
X104978210Y-157489711D01*
X104890609Y-157620814D01*
X104890602Y-157620827D01*
X104830264Y-157766498D01*
X104830261Y-157766510D01*
X104799500Y-157921153D01*
X104000499Y-157921153D01*
X103975222Y-157794077D01*
X103969737Y-157766503D01*
X103967289Y-157760592D01*
X103909397Y-157620827D01*
X103909390Y-157620814D01*
X103821789Y-157489711D01*
X103821786Y-157489707D01*
X103710292Y-157378213D01*
X103710288Y-157378210D01*
X103579185Y-157290609D01*
X103579172Y-157290602D01*
X103433501Y-157230264D01*
X103433489Y-157230261D01*
X103278845Y-157199500D01*
X103278842Y-157199500D01*
X103121158Y-157199500D01*
X103121155Y-157199500D01*
X102966510Y-157230261D01*
X102966498Y-157230264D01*
X102820827Y-157290602D01*
X102820814Y-157290609D01*
X102689711Y-157378210D01*
X102689707Y-157378213D01*
X102578213Y-157489707D01*
X102578210Y-157489711D01*
X102490609Y-157620814D01*
X102490602Y-157620827D01*
X102430264Y-157766498D01*
X102430261Y-157766510D01*
X102399500Y-157921153D01*
X95178080Y-157921153D01*
X95305158Y-157794075D01*
X95366479Y-157760592D01*
X95431151Y-157763825D01*
X95445466Y-157768477D01*
X95647648Y-157800500D01*
X95647649Y-157800500D01*
X95852351Y-157800500D01*
X95852352Y-157800500D01*
X96054534Y-157768477D01*
X96249219Y-157705220D01*
X96431610Y-157612287D01*
X96524590Y-157544732D01*
X96597213Y-157491971D01*
X96597215Y-157491968D01*
X96597219Y-157491966D01*
X96741966Y-157347219D01*
X96741968Y-157347215D01*
X96741971Y-157347213D01*
X96826938Y-157230264D01*
X96862287Y-157181610D01*
X96955220Y-156999219D01*
X97018477Y-156804534D01*
X97050500Y-156602352D01*
X97050500Y-156397648D01*
X97041800Y-156342718D01*
X97018477Y-156195465D01*
X96973065Y-156055703D01*
X96955220Y-156000781D01*
X96955218Y-156000778D01*
X96955218Y-156000776D01*
X96875697Y-155844708D01*
X96862801Y-155776039D01*
X96889077Y-155711298D01*
X96898492Y-155700742D01*
X98480520Y-154118716D01*
X98559577Y-153981784D01*
X98600501Y-153829057D01*
X98600501Y-153670942D01*
X98600501Y-153663347D01*
X98600500Y-153663329D01*
X98600500Y-152921153D01*
X102399500Y-152921153D01*
X102399500Y-153078846D01*
X102430261Y-153233489D01*
X102430264Y-153233501D01*
X102490602Y-153379172D01*
X102490609Y-153379185D01*
X102578210Y-153510288D01*
X102578213Y-153510292D01*
X102689707Y-153621786D01*
X102689711Y-153621789D01*
X102820814Y-153709390D01*
X102820827Y-153709397D01*
X102966498Y-153769735D01*
X102966503Y-153769737D01*
X103121153Y-153800499D01*
X103121156Y-153800500D01*
X103121158Y-153800500D01*
X103278844Y-153800500D01*
X103278845Y-153800499D01*
X103433497Y-153769737D01*
X103579179Y-153709394D01*
X103710289Y-153621789D01*
X103821789Y-153510289D01*
X103909394Y-153379179D01*
X103969737Y-153233497D01*
X104000500Y-153078842D01*
X104000500Y-152921158D01*
X104000500Y-152921155D01*
X104000499Y-152921153D01*
X104799500Y-152921153D01*
X104799500Y-153078846D01*
X104830261Y-153233489D01*
X104830264Y-153233501D01*
X104890602Y-153379172D01*
X104890609Y-153379185D01*
X104978210Y-153510288D01*
X104978213Y-153510292D01*
X105089707Y-153621786D01*
X105089711Y-153621789D01*
X105220814Y-153709390D01*
X105220827Y-153709397D01*
X105366498Y-153769735D01*
X105366503Y-153769737D01*
X105521153Y-153800499D01*
X105521156Y-153800500D01*
X105521158Y-153800500D01*
X105678844Y-153800500D01*
X105678845Y-153800499D01*
X105833497Y-153769737D01*
X105979179Y-153709394D01*
X106110289Y-153621789D01*
X106221789Y-153510289D01*
X106309394Y-153379179D01*
X106369737Y-153233497D01*
X106400500Y-153078842D01*
X106400500Y-152921158D01*
X106400500Y-152921155D01*
X106400499Y-152921153D01*
X107199500Y-152921153D01*
X107199500Y-153078846D01*
X107230261Y-153233489D01*
X107230264Y-153233501D01*
X107290602Y-153379172D01*
X107290609Y-153379185D01*
X107378210Y-153510288D01*
X107378213Y-153510292D01*
X107489707Y-153621786D01*
X107489711Y-153621789D01*
X107620814Y-153709390D01*
X107620827Y-153709397D01*
X107766498Y-153769735D01*
X107766503Y-153769737D01*
X107921153Y-153800499D01*
X107921156Y-153800500D01*
X107921158Y-153800500D01*
X108078844Y-153800500D01*
X108078845Y-153800499D01*
X108233497Y-153769737D01*
X108379179Y-153709394D01*
X108510289Y-153621789D01*
X108621789Y-153510289D01*
X108709394Y-153379179D01*
X108769737Y-153233497D01*
X108800500Y-153078842D01*
X108800500Y-152921158D01*
X108800500Y-152921155D01*
X108800499Y-152921153D01*
X109599500Y-152921153D01*
X109599500Y-153078846D01*
X109630261Y-153233489D01*
X109630264Y-153233501D01*
X109690602Y-153379172D01*
X109690609Y-153379185D01*
X109778210Y-153510288D01*
X109778213Y-153510292D01*
X109889707Y-153621786D01*
X109889711Y-153621789D01*
X110020814Y-153709390D01*
X110020827Y-153709397D01*
X110166498Y-153769735D01*
X110166503Y-153769737D01*
X110321153Y-153800499D01*
X110321156Y-153800500D01*
X110321158Y-153800500D01*
X110478844Y-153800500D01*
X110478845Y-153800499D01*
X110633497Y-153769737D01*
X110779179Y-153709394D01*
X110910289Y-153621789D01*
X111021789Y-153510289D01*
X111109394Y-153379179D01*
X111169737Y-153233497D01*
X111200500Y-153078842D01*
X111200500Y-152921158D01*
X111200500Y-152921155D01*
X111200499Y-152921153D01*
X111176499Y-152800500D01*
X111169737Y-152766503D01*
X111144352Y-152705218D01*
X111109397Y-152620827D01*
X111109390Y-152620814D01*
X111021789Y-152489711D01*
X111021786Y-152489707D01*
X110910292Y-152378213D01*
X110910288Y-152378210D01*
X110779185Y-152290609D01*
X110779172Y-152290602D01*
X110633501Y-152230264D01*
X110633489Y-152230261D01*
X110478845Y-152199500D01*
X110478842Y-152199500D01*
X110321158Y-152199500D01*
X110321155Y-152199500D01*
X110166510Y-152230261D01*
X110166498Y-152230264D01*
X110020827Y-152290602D01*
X110020814Y-152290609D01*
X109889711Y-152378210D01*
X109889707Y-152378213D01*
X109778213Y-152489707D01*
X109778210Y-152489711D01*
X109690609Y-152620814D01*
X109690602Y-152620827D01*
X109630264Y-152766498D01*
X109630261Y-152766510D01*
X109599500Y-152921153D01*
X108800499Y-152921153D01*
X108776499Y-152800500D01*
X108769737Y-152766503D01*
X108744352Y-152705218D01*
X108709397Y-152620827D01*
X108709390Y-152620814D01*
X108621789Y-152489711D01*
X108621786Y-152489707D01*
X108510292Y-152378213D01*
X108510288Y-152378210D01*
X108379185Y-152290609D01*
X108379172Y-152290602D01*
X108233501Y-152230264D01*
X108233489Y-152230261D01*
X108078845Y-152199500D01*
X108078842Y-152199500D01*
X107921158Y-152199500D01*
X107921155Y-152199500D01*
X107766510Y-152230261D01*
X107766498Y-152230264D01*
X107620827Y-152290602D01*
X107620814Y-152290609D01*
X107489711Y-152378210D01*
X107489707Y-152378213D01*
X107378213Y-152489707D01*
X107378210Y-152489711D01*
X107290609Y-152620814D01*
X107290602Y-152620827D01*
X107230264Y-152766498D01*
X107230261Y-152766510D01*
X107199500Y-152921153D01*
X106400499Y-152921153D01*
X106376499Y-152800500D01*
X106369737Y-152766503D01*
X106344352Y-152705218D01*
X106309397Y-152620827D01*
X106309390Y-152620814D01*
X106221789Y-152489711D01*
X106221786Y-152489707D01*
X106110292Y-152378213D01*
X106110288Y-152378210D01*
X105979185Y-152290609D01*
X105979172Y-152290602D01*
X105833501Y-152230264D01*
X105833489Y-152230261D01*
X105678845Y-152199500D01*
X105678842Y-152199500D01*
X105521158Y-152199500D01*
X105521155Y-152199500D01*
X105366510Y-152230261D01*
X105366498Y-152230264D01*
X105220827Y-152290602D01*
X105220814Y-152290609D01*
X105089711Y-152378210D01*
X105089707Y-152378213D01*
X104978213Y-152489707D01*
X104978210Y-152489711D01*
X104890609Y-152620814D01*
X104890602Y-152620827D01*
X104830264Y-152766498D01*
X104830261Y-152766510D01*
X104799500Y-152921153D01*
X104000499Y-152921153D01*
X103976499Y-152800500D01*
X103969737Y-152766503D01*
X103944352Y-152705218D01*
X103909397Y-152620827D01*
X103909390Y-152620814D01*
X103821789Y-152489711D01*
X103821786Y-152489707D01*
X103710292Y-152378213D01*
X103710288Y-152378210D01*
X103579185Y-152290609D01*
X103579172Y-152290602D01*
X103433501Y-152230264D01*
X103433489Y-152230261D01*
X103278845Y-152199500D01*
X103278842Y-152199500D01*
X103121158Y-152199500D01*
X103121155Y-152199500D01*
X102966510Y-152230261D01*
X102966498Y-152230264D01*
X102820827Y-152290602D01*
X102820814Y-152290609D01*
X102689711Y-152378210D01*
X102689707Y-152378213D01*
X102578213Y-152489707D01*
X102578210Y-152489711D01*
X102490609Y-152620814D01*
X102490602Y-152620827D01*
X102430264Y-152766498D01*
X102430261Y-152766510D01*
X102399500Y-152921153D01*
X98600500Y-152921153D01*
X98600500Y-150589060D01*
X98600501Y-150589047D01*
X98600501Y-150420944D01*
X98600501Y-150420943D01*
X98559577Y-150268216D01*
X98559573Y-150268209D01*
X98480524Y-150131290D01*
X98480518Y-150131282D01*
X97278680Y-148929444D01*
X97245195Y-148868121D01*
X97250179Y-148798429D01*
X97292051Y-148742496D01*
X97357515Y-148718079D01*
X97413813Y-148727202D01*
X97479937Y-148754591D01*
X97516503Y-148769737D01*
X97671153Y-148800499D01*
X97671156Y-148800500D01*
X97671158Y-148800500D01*
X97828844Y-148800500D01*
X97828845Y-148800499D01*
X97983497Y-148769737D01*
X98129179Y-148709394D01*
X98260289Y-148621789D01*
X98371789Y-148510289D01*
X98459394Y-148379179D01*
X98462854Y-148370827D01*
X98492231Y-148299902D01*
X98519737Y-148233497D01*
X98550500Y-148078842D01*
X98550500Y-147921158D01*
X98550500Y-147921155D01*
X98550499Y-147921153D01*
X98519738Y-147766510D01*
X98519737Y-147766503D01*
X98459532Y-147621153D01*
X98459397Y-147620827D01*
X98459390Y-147620814D01*
X98371398Y-147489125D01*
X98365826Y-147471332D01*
X98361706Y-147466577D01*
X98361118Y-147463875D01*
X98355523Y-147455169D01*
X98351071Y-147424207D01*
X98350520Y-147422447D01*
X98350508Y-147421153D01*
X103699500Y-147421153D01*
X103699500Y-147578846D01*
X103730261Y-147733489D01*
X103730264Y-147733501D01*
X103790602Y-147879172D01*
X103790609Y-147879185D01*
X103878210Y-148010288D01*
X103878213Y-148010292D01*
X103989707Y-148121786D01*
X103989711Y-148121789D01*
X104120814Y-148209390D01*
X104120827Y-148209397D01*
X104266498Y-148269735D01*
X104266503Y-148269737D01*
X104418152Y-148299902D01*
X104421153Y-148300499D01*
X104421156Y-148300500D01*
X104421158Y-148300500D01*
X104578844Y-148300500D01*
X104578845Y-148300499D01*
X104733497Y-148269737D01*
X104879179Y-148209394D01*
X105010289Y-148121789D01*
X105121789Y-148010289D01*
X105209394Y-147879179D01*
X105269737Y-147733497D01*
X105300500Y-147578842D01*
X105300500Y-147421158D01*
X105300500Y-147421155D01*
X105300499Y-147421153D01*
X105282096Y-147328637D01*
X105269737Y-147266503D01*
X105269735Y-147266498D01*
X105209397Y-147120827D01*
X105209390Y-147120814D01*
X105121789Y-146989711D01*
X105121786Y-146989707D01*
X105010292Y-146878213D01*
X105010288Y-146878210D01*
X104879185Y-146790609D01*
X104879172Y-146790602D01*
X104733501Y-146730264D01*
X104733489Y-146730261D01*
X104578845Y-146699500D01*
X104578842Y-146699500D01*
X104421158Y-146699500D01*
X104421155Y-146699500D01*
X104266510Y-146730261D01*
X104266498Y-146730264D01*
X104120827Y-146790602D01*
X104120814Y-146790609D01*
X103989711Y-146878210D01*
X103989707Y-146878213D01*
X103878213Y-146989707D01*
X103878210Y-146989711D01*
X103790609Y-147120814D01*
X103790602Y-147120827D01*
X103730264Y-147266498D01*
X103730261Y-147266510D01*
X103699500Y-147421153D01*
X98350508Y-147421153D01*
X98350500Y-147420234D01*
X98350500Y-145150097D01*
X98370185Y-145083058D01*
X98386819Y-145062416D01*
X98947858Y-144501377D01*
X99514664Y-143934571D01*
X99575985Y-143901088D01*
X99578152Y-143900637D01*
X99578841Y-143900500D01*
X99578842Y-143900500D01*
X99733497Y-143869737D01*
X99879179Y-143809394D01*
X100010289Y-143721789D01*
X100121789Y-143610289D01*
X100209394Y-143479179D01*
X100212854Y-143470827D01*
X100234349Y-143418931D01*
X100269737Y-143333497D01*
X100300500Y-143178842D01*
X100300500Y-143021158D01*
X100300500Y-143021155D01*
X100300499Y-143021153D01*
X100294244Y-142989707D01*
X100269737Y-142866503D01*
X100269735Y-142866498D01*
X100209397Y-142720827D01*
X100209390Y-142720814D01*
X100163332Y-142651884D01*
X100155253Y-142626084D01*
X100143834Y-142601575D01*
X100144968Y-142593236D01*
X100142454Y-142585207D01*
X100149605Y-142559136D01*
X100153250Y-142532342D01*
X100159409Y-142523397D01*
X100160938Y-142517827D01*
X100172105Y-142502507D01*
X100175285Y-142498779D01*
X100252912Y-142421153D01*
X101149500Y-142421153D01*
X101149500Y-142578846D01*
X101180261Y-142733489D01*
X101180264Y-142733501D01*
X101240602Y-142879172D01*
X101240609Y-142879185D01*
X101328210Y-143010288D01*
X101328213Y-143010292D01*
X101439707Y-143121786D01*
X101439711Y-143121789D01*
X101570814Y-143209390D01*
X101570827Y-143209397D01*
X101702925Y-143264113D01*
X101716503Y-143269737D01*
X101871153Y-143300499D01*
X101871156Y-143300500D01*
X101871158Y-143300500D01*
X102028844Y-143300500D01*
X102028845Y-143300499D01*
X102183497Y-143269737D01*
X102329179Y-143209394D01*
X102460289Y-143121789D01*
X102571789Y-143010289D01*
X102659394Y-142879179D01*
X102664643Y-142866508D01*
X102692274Y-142799799D01*
X102719737Y-142733497D01*
X102750500Y-142578842D01*
X102750500Y-142421158D01*
X102750500Y-142421155D01*
X102750499Y-142421153D01*
X102734380Y-142340120D01*
X102719737Y-142266503D01*
X102719735Y-142266498D01*
X102659397Y-142120827D01*
X102659390Y-142120814D01*
X102571789Y-141989711D01*
X102571786Y-141989707D01*
X102460292Y-141878213D01*
X102460288Y-141878210D01*
X102329185Y-141790609D01*
X102329172Y-141790602D01*
X102183501Y-141730264D01*
X102183489Y-141730261D01*
X102028845Y-141699500D01*
X102028842Y-141699500D01*
X101871158Y-141699500D01*
X101871155Y-141699500D01*
X101716510Y-141730261D01*
X101716498Y-141730264D01*
X101570827Y-141790602D01*
X101570814Y-141790609D01*
X101439711Y-141878210D01*
X101439707Y-141878213D01*
X101328213Y-141989707D01*
X101328210Y-141989711D01*
X101240609Y-142120814D01*
X101240602Y-142120827D01*
X101180264Y-142266498D01*
X101180261Y-142266510D01*
X101149500Y-142421153D01*
X100252912Y-142421153D01*
X100263776Y-142410289D01*
X100351381Y-142279179D01*
X100411724Y-142133497D01*
X100442487Y-141978842D01*
X100442487Y-141821158D01*
X100442487Y-141821155D01*
X100442486Y-141821153D01*
X100420434Y-141710292D01*
X100411724Y-141666503D01*
X100375556Y-141579185D01*
X100351384Y-141520827D01*
X100351377Y-141520814D01*
X100263776Y-141389711D01*
X100263773Y-141389707D01*
X100152279Y-141278213D01*
X100152275Y-141278210D01*
X100021172Y-141190609D01*
X100021159Y-141190602D01*
X99875488Y-141130264D01*
X99869652Y-141128494D01*
X99870412Y-141125986D01*
X99818572Y-141098815D01*
X99784049Y-141038070D01*
X99783140Y-141033887D01*
X99769737Y-140966503D01*
X99733569Y-140879185D01*
X99709397Y-140820827D01*
X99709390Y-140820814D01*
X99621789Y-140689711D01*
X99621786Y-140689707D01*
X99510292Y-140578213D01*
X99510288Y-140578210D01*
X99379185Y-140490609D01*
X99379172Y-140490602D01*
X99233501Y-140430264D01*
X99233489Y-140430261D01*
X99078845Y-140399500D01*
X99078842Y-140399500D01*
X98921158Y-140399500D01*
X98921155Y-140399500D01*
X98766510Y-140430261D01*
X98766498Y-140430264D01*
X98620827Y-140490602D01*
X98620814Y-140490609D01*
X98489711Y-140578210D01*
X98489707Y-140578213D01*
X98378213Y-140689707D01*
X98378210Y-140689711D01*
X98290609Y-140820814D01*
X98290602Y-140820827D01*
X98230264Y-140966498D01*
X98230261Y-140966510D01*
X98199500Y-141121153D01*
X98199500Y-141278846D01*
X98230261Y-141433489D01*
X98230264Y-141433501D01*
X98290602Y-141579172D01*
X98290609Y-141579185D01*
X98378210Y-141710288D01*
X98378213Y-141710292D01*
X98489707Y-141821786D01*
X98489711Y-141821789D01*
X98620814Y-141909390D01*
X98620827Y-141909397D01*
X98708230Y-141945599D01*
X98766503Y-141969737D01*
X98766510Y-141969738D01*
X98772336Y-141971506D01*
X98771563Y-141974051D01*
X98823261Y-142001036D01*
X98857888Y-142061721D01*
X98858854Y-142066153D01*
X98872248Y-142133489D01*
X98872251Y-142133501D01*
X98932589Y-142279172D01*
X98932596Y-142279185D01*
X98978654Y-142348115D01*
X98999532Y-142414793D01*
X98981047Y-142482173D01*
X98963234Y-142504687D01*
X98878210Y-142589711D01*
X98790609Y-142720814D01*
X98790602Y-142720827D01*
X98730264Y-142866498D01*
X98730261Y-142866508D01*
X98699362Y-143021848D01*
X98666977Y-143083759D01*
X98665426Y-143085337D01*
X98389918Y-143360844D01*
X98328595Y-143394329D01*
X98258903Y-143389345D01*
X98202970Y-143347473D01*
X98199135Y-143342054D01*
X98124772Y-143230761D01*
X98013275Y-143119264D01*
X98013271Y-143119261D01*
X97882168Y-143031660D01*
X97882155Y-143031653D01*
X97736484Y-142971315D01*
X97736472Y-142971312D01*
X97581828Y-142940551D01*
X97581825Y-142940551D01*
X97424141Y-142940551D01*
X97424138Y-142940551D01*
X97269493Y-142971312D01*
X97269481Y-142971315D01*
X97123810Y-143031653D01*
X97123797Y-143031660D01*
X96992694Y-143119261D01*
X96992690Y-143119264D01*
X96881196Y-143230758D01*
X96881193Y-143230762D01*
X96793592Y-143361865D01*
X96793585Y-143361878D01*
X96733247Y-143507549D01*
X96733244Y-143507561D01*
X96702483Y-143662204D01*
X96702483Y-143819894D01*
X96705404Y-143834578D01*
X96699177Y-143904170D01*
X96671470Y-143946450D01*
X96628212Y-143989708D01*
X96628208Y-143989714D01*
X96540609Y-144120814D01*
X96540602Y-144120827D01*
X96480264Y-144266498D01*
X96480261Y-144266510D01*
X96449500Y-144421153D01*
X96449500Y-144578846D01*
X96480261Y-144733489D01*
X96480264Y-144733501D01*
X96540602Y-144879172D01*
X96540609Y-144879185D01*
X96628210Y-145010288D01*
X96628213Y-145010292D01*
X96739707Y-145121786D01*
X96739711Y-145121789D01*
X96870814Y-145209390D01*
X96870827Y-145209397D01*
X96944013Y-145239711D01*
X97016503Y-145269737D01*
X97049691Y-145276338D01*
X97111600Y-145308721D01*
X97146176Y-145369436D01*
X97149500Y-145397955D01*
X97149500Y-147420234D01*
X97129815Y-147487273D01*
X97128602Y-147489125D01*
X97040609Y-147620814D01*
X97040602Y-147620827D01*
X96980264Y-147766498D01*
X96980261Y-147766510D01*
X96949500Y-147921153D01*
X96949500Y-148078846D01*
X96980261Y-148233489D01*
X96980264Y-148233501D01*
X97022797Y-148336186D01*
X97030266Y-148405656D01*
X96998990Y-148468135D01*
X96938901Y-148503786D01*
X96869076Y-148501292D01*
X96820555Y-148471319D01*
X96736819Y-148387583D01*
X96703334Y-148326260D01*
X96700500Y-148299902D01*
X96700500Y-147073440D01*
X96720185Y-147006401D01*
X96721398Y-147004549D01*
X96731313Y-146989711D01*
X96809394Y-146872854D01*
X96869737Y-146727172D01*
X96900500Y-146572517D01*
X96900500Y-146414833D01*
X96900500Y-146414830D01*
X96900499Y-146414828D01*
X96883395Y-146328842D01*
X96869737Y-146260178D01*
X96832862Y-146171153D01*
X96809397Y-146114502D01*
X96809390Y-146114489D01*
X96721789Y-145983386D01*
X96721786Y-145983382D01*
X96610292Y-145871888D01*
X96610288Y-145871885D01*
X96479185Y-145784284D01*
X96479172Y-145784277D01*
X96333501Y-145723939D01*
X96333489Y-145723936D01*
X96178845Y-145693175D01*
X96178842Y-145693175D01*
X96021158Y-145693175D01*
X96021155Y-145693175D01*
X95866510Y-145723936D01*
X95866498Y-145723939D01*
X95720827Y-145784277D01*
X95720814Y-145784284D01*
X95589711Y-145871885D01*
X95589707Y-145871888D01*
X95478213Y-145983382D01*
X95478210Y-145983386D01*
X95390609Y-146114489D01*
X95390602Y-146114502D01*
X95330264Y-146260173D01*
X95330261Y-146260185D01*
X95299500Y-146414828D01*
X95299500Y-146572521D01*
X95330261Y-146727164D01*
X95330264Y-146727176D01*
X95390602Y-146872847D01*
X95390609Y-146872860D01*
X95478602Y-147004549D01*
X95499480Y-147071226D01*
X95499500Y-147073440D01*
X95499500Y-148520939D01*
X95499499Y-148520943D01*
X95499499Y-148546779D01*
X95499499Y-148571763D01*
X95487938Y-148611133D01*
X95480543Y-148636319D01*
X95479813Y-148638802D01*
X95427009Y-148684556D01*
X95427005Y-148684556D01*
X95399692Y-148693378D01*
X95340021Y-148705247D01*
X95340012Y-148705250D01*
X95218395Y-148755625D01*
X95148925Y-148763094D01*
X95086446Y-148731818D01*
X95050795Y-148671729D01*
X95049326Y-148665255D01*
X95019738Y-148516510D01*
X95019737Y-148516503D01*
X95017163Y-148510288D01*
X94959397Y-148370827D01*
X94959390Y-148370814D01*
X94871789Y-148239711D01*
X94871786Y-148239707D01*
X94760292Y-148128213D01*
X94760288Y-148128210D01*
X94629185Y-148040609D01*
X94629172Y-148040602D01*
X94483501Y-147980264D01*
X94483489Y-147980261D01*
X94328845Y-147949500D01*
X94328842Y-147949500D01*
X94171158Y-147949500D01*
X94171155Y-147949500D01*
X94016510Y-147980261D01*
X94016498Y-147980264D01*
X93870827Y-148040602D01*
X93870814Y-148040609D01*
X93739711Y-148128210D01*
X93739707Y-148128213D01*
X93628213Y-148239707D01*
X93628210Y-148239711D01*
X93540609Y-148370814D01*
X93540602Y-148370827D01*
X93480264Y-148516498D01*
X93480261Y-148516510D01*
X93449500Y-148671153D01*
X93449500Y-148828846D01*
X93480261Y-148983489D01*
X93480264Y-148983501D01*
X93540602Y-149129172D01*
X93540609Y-149129185D01*
X93628210Y-149260288D01*
X93628213Y-149260292D01*
X93739707Y-149371786D01*
X93739715Y-149371792D01*
X93828532Y-149431138D01*
X93847322Y-149446558D01*
X93881284Y-149480520D01*
X93881285Y-149480520D01*
X93888353Y-149487588D01*
X94341853Y-149941088D01*
X94375338Y-150002411D01*
X94370354Y-150072103D01*
X94328482Y-150128036D01*
X94263018Y-150152453D01*
X94229982Y-150150387D01*
X94144882Y-150133460D01*
X94034057Y-150133460D01*
X93967018Y-150113775D01*
X93946376Y-150097141D01*
X91236819Y-147387584D01*
X91222115Y-147360656D01*
X91205523Y-147334838D01*
X91204631Y-147328637D01*
X91203334Y-147326261D01*
X91200500Y-147299903D01*
X91200500Y-147228017D01*
X91220185Y-147160978D01*
X91255612Y-147124913D01*
X91260289Y-147121789D01*
X91371789Y-147010289D01*
X91459394Y-146879179D01*
X91519737Y-146733497D01*
X91550500Y-146578842D01*
X91550500Y-146421158D01*
X91550500Y-146421155D01*
X91550499Y-146421153D01*
X91519738Y-146266510D01*
X91519737Y-146266503D01*
X91480242Y-146171153D01*
X91459397Y-146120827D01*
X91459390Y-146120814D01*
X91371789Y-145989711D01*
X91371786Y-145989707D01*
X91260292Y-145878213D01*
X91260288Y-145878210D01*
X91129185Y-145790609D01*
X91129172Y-145790602D01*
X90983501Y-145730264D01*
X90983489Y-145730261D01*
X90828845Y-145699500D01*
X90828842Y-145699500D01*
X90671158Y-145699500D01*
X90671155Y-145699500D01*
X90516510Y-145730261D01*
X90516498Y-145730264D01*
X90370827Y-145790602D01*
X90370814Y-145790609D01*
X90239711Y-145878210D01*
X90174885Y-145943036D01*
X90113561Y-145976520D01*
X90043870Y-145971535D01*
X89987936Y-145929664D01*
X89972643Y-145902806D01*
X89959397Y-145870827D01*
X89959390Y-145870814D01*
X89871789Y-145739711D01*
X89871786Y-145739707D01*
X89760292Y-145628213D01*
X89760288Y-145628210D01*
X89629185Y-145540609D01*
X89629172Y-145540602D01*
X89483501Y-145480264D01*
X89483489Y-145480261D01*
X89328845Y-145449500D01*
X89328842Y-145449500D01*
X89171158Y-145449500D01*
X89171155Y-145449500D01*
X89016510Y-145480261D01*
X89016498Y-145480264D01*
X88870827Y-145540602D01*
X88870814Y-145540609D01*
X88739711Y-145628210D01*
X88739707Y-145628213D01*
X88712681Y-145655240D01*
X88651358Y-145688725D01*
X88581666Y-145683741D01*
X88537319Y-145655240D01*
X88510292Y-145628213D01*
X88510288Y-145628210D01*
X88379185Y-145540609D01*
X88379172Y-145540602D01*
X88233501Y-145480264D01*
X88233489Y-145480261D01*
X88078845Y-145449500D01*
X88078842Y-145449500D01*
X87921158Y-145449500D01*
X87921155Y-145449500D01*
X87766510Y-145480261D01*
X87766498Y-145480264D01*
X87620827Y-145540602D01*
X87620814Y-145540609D01*
X87489711Y-145628210D01*
X87489707Y-145628213D01*
X87378213Y-145739707D01*
X87378210Y-145739711D01*
X87290609Y-145870814D01*
X87290602Y-145870827D01*
X87230264Y-146016498D01*
X87230261Y-146016510D01*
X87199500Y-146171153D01*
X87199500Y-146328846D01*
X87230261Y-146483489D01*
X87230264Y-146483501D01*
X87290602Y-146629172D01*
X87290609Y-146629185D01*
X87378601Y-146760873D01*
X87397467Y-146821124D01*
X87398438Y-146820997D01*
X87399171Y-146826568D01*
X87399479Y-146827550D01*
X87399492Y-146829002D01*
X87399498Y-146829054D01*
X87440014Y-146980261D01*
X87440423Y-146981785D01*
X87462335Y-147019737D01*
X87492062Y-147071226D01*
X87519479Y-147118714D01*
X87519481Y-147118717D01*
X87638349Y-147237585D01*
X87638355Y-147237590D01*
X89406508Y-149005744D01*
X89439993Y-149067067D01*
X89435009Y-149136759D01*
X89393137Y-149192692D01*
X89343019Y-149215042D01*
X89266508Y-149230261D01*
X89266498Y-149230264D01*
X89120827Y-149290602D01*
X89120814Y-149290609D01*
X88989711Y-149378210D01*
X88989707Y-149378213D01*
X88878213Y-149489707D01*
X88878210Y-149489711D01*
X88790609Y-149620814D01*
X88790602Y-149620827D01*
X88730264Y-149766498D01*
X88730261Y-149766510D01*
X88699500Y-149921153D01*
X88699500Y-150078846D01*
X88730261Y-150233489D01*
X88730264Y-150233501D01*
X88790602Y-150379172D01*
X88790609Y-150379185D01*
X88878210Y-150510288D01*
X88878213Y-150510292D01*
X88989707Y-150621786D01*
X88989711Y-150621789D01*
X89120814Y-150709390D01*
X89120827Y-150709397D01*
X89266498Y-150769735D01*
X89266503Y-150769737D01*
X89421153Y-150800499D01*
X89421156Y-150800500D01*
X89444478Y-150800500D01*
X89511517Y-150820185D01*
X89557272Y-150872989D01*
X89567216Y-150942147D01*
X89554963Y-150980794D01*
X89544782Y-151000773D01*
X89481522Y-151195465D01*
X89449500Y-151397648D01*
X89449500Y-151602351D01*
X89481522Y-151804534D01*
X89544781Y-151999223D01*
X89637715Y-152181613D01*
X89758028Y-152347213D01*
X89902786Y-152491971D01*
X90057749Y-152604556D01*
X90068390Y-152612287D01*
X90184607Y-152671503D01*
X90250776Y-152705218D01*
X90250778Y-152705218D01*
X90250781Y-152705220D01*
X90355137Y-152739127D01*
X90445465Y-152768477D01*
X90546557Y-152784488D01*
X90647648Y-152800500D01*
X90647649Y-152800500D01*
X90852351Y-152800500D01*
X90852352Y-152800500D01*
X91054534Y-152768477D01*
X91249219Y-152705220D01*
X91431610Y-152612287D01*
X91524590Y-152544732D01*
X91597213Y-152491971D01*
X91597215Y-152491968D01*
X91597219Y-152491966D01*
X91741966Y-152347219D01*
X91741968Y-152347215D01*
X91741971Y-152347213D01*
X91826938Y-152230264D01*
X91862287Y-152181610D01*
X91955220Y-151999219D01*
X92001763Y-151855971D01*
X92041200Y-151798298D01*
X92105559Y-151771099D01*
X92174405Y-151783014D01*
X92207375Y-151806610D01*
X94640139Y-154239374D01*
X94640149Y-154239385D01*
X94644479Y-154243715D01*
X94644480Y-154243716D01*
X94756284Y-154355520D01*
X94843095Y-154405639D01*
X94843096Y-154405640D01*
X94864700Y-154418113D01*
X94912915Y-154468680D01*
X94926139Y-154537287D01*
X94900171Y-154602151D01*
X94843257Y-154642680D01*
X94802700Y-154649500D01*
X92086669Y-154649500D01*
X92086653Y-154649499D01*
X92079057Y-154649499D01*
X91920943Y-154649499D01*
X91813587Y-154678265D01*
X91768210Y-154690424D01*
X91768209Y-154690425D01*
X91718096Y-154719359D01*
X91718095Y-154719360D01*
X91674689Y-154744420D01*
X91631285Y-154769479D01*
X91631282Y-154769481D01*
X91519478Y-154881286D01*
X91194842Y-155205921D01*
X91133519Y-155239406D01*
X91068848Y-155236173D01*
X91054534Y-155231522D01*
X90879995Y-155203878D01*
X90852352Y-155199500D01*
X90647648Y-155199500D01*
X90623329Y-155203351D01*
X90445465Y-155231522D01*
X90250776Y-155294781D01*
X90068386Y-155387715D01*
X89902786Y-155508028D01*
X89758028Y-155652786D01*
X89637715Y-155818386D01*
X89544781Y-156000776D01*
X89481522Y-156195465D01*
X89449500Y-156397648D01*
X89449500Y-156602351D01*
X89481522Y-156804534D01*
X89540869Y-156987181D01*
X89542864Y-157057023D01*
X89506784Y-157116856D01*
X89444083Y-157147684D01*
X89422938Y-157149500D01*
X88800097Y-157149500D01*
X88733058Y-157129815D01*
X88712416Y-157113181D01*
X86487590Y-154888355D01*
X86487588Y-154888352D01*
X86368717Y-154769481D01*
X86368716Y-154769480D01*
X86281904Y-154719360D01*
X86281904Y-154719359D01*
X86281900Y-154719358D01*
X86231785Y-154690423D01*
X86079057Y-154649499D01*
X85920943Y-154649499D01*
X85913347Y-154649499D01*
X85913331Y-154649500D01*
X78750098Y-154649500D01*
X78683059Y-154629815D01*
X78662417Y-154613181D01*
X75501738Y-151452502D01*
X75418108Y-151368872D01*
X81999500Y-151368872D01*
X81999500Y-151631127D01*
X82017929Y-151771099D01*
X82033730Y-151891116D01*
X82062696Y-151999219D01*
X82101602Y-152144418D01*
X82101605Y-152144428D01*
X82201953Y-152386690D01*
X82201958Y-152386700D01*
X82333075Y-152613803D01*
X82492718Y-152821851D01*
X82492726Y-152821860D01*
X82678140Y-153007274D01*
X82678148Y-153007281D01*
X82886196Y-153166924D01*
X83113299Y-153298041D01*
X83113309Y-153298046D01*
X83355571Y-153398394D01*
X83355581Y-153398398D01*
X83608884Y-153466270D01*
X83868880Y-153500500D01*
X83868887Y-153500500D01*
X84131113Y-153500500D01*
X84131120Y-153500500D01*
X84391116Y-153466270D01*
X84644419Y-153398398D01*
X84886697Y-153298043D01*
X85113803Y-153166924D01*
X85321851Y-153007282D01*
X85321855Y-153007277D01*
X85321860Y-153007274D01*
X85507274Y-152821860D01*
X85507277Y-152821855D01*
X85507282Y-152821851D01*
X85666924Y-152613803D01*
X85798043Y-152386697D01*
X85801559Y-152378210D01*
X85862841Y-152230261D01*
X85898398Y-152144419D01*
X85966270Y-151891116D01*
X86000500Y-151631120D01*
X86000500Y-151368880D01*
X85966270Y-151108884D01*
X85898398Y-150855581D01*
X85898394Y-150855571D01*
X85798046Y-150613309D01*
X85798041Y-150613299D01*
X85666924Y-150386196D01*
X85507281Y-150178148D01*
X85507274Y-150178140D01*
X85321860Y-149992726D01*
X85321851Y-149992718D01*
X85113803Y-149833075D01*
X84886700Y-149701958D01*
X84886690Y-149701953D01*
X84644428Y-149601605D01*
X84644421Y-149601603D01*
X84644419Y-149601602D01*
X84391116Y-149533730D01*
X84333339Y-149526123D01*
X84131127Y-149499500D01*
X84131120Y-149499500D01*
X83868880Y-149499500D01*
X83868872Y-149499500D01*
X83637772Y-149529926D01*
X83608884Y-149533730D01*
X83355581Y-149601602D01*
X83355571Y-149601605D01*
X83113309Y-149701953D01*
X83113299Y-149701958D01*
X82886196Y-149833075D01*
X82678148Y-149992718D01*
X82492718Y-150178148D01*
X82333075Y-150386196D01*
X82201958Y-150613299D01*
X82201953Y-150613309D01*
X82101605Y-150855571D01*
X82101602Y-150855581D01*
X82068052Y-150980794D01*
X82033730Y-151108885D01*
X81999500Y-151368872D01*
X75418108Y-151368872D01*
X71590006Y-147540771D01*
X71563126Y-147500542D01*
X71509397Y-147370827D01*
X71509390Y-147370814D01*
X71421789Y-147239711D01*
X71421786Y-147239707D01*
X71310292Y-147128213D01*
X71310288Y-147128210D01*
X71179185Y-147040609D01*
X71179172Y-147040602D01*
X71033501Y-146980264D01*
X71033489Y-146980261D01*
X70878845Y-146949500D01*
X70878842Y-146949500D01*
X70721158Y-146949500D01*
X70721155Y-146949500D01*
X70566510Y-146980261D01*
X70566498Y-146980264D01*
X70420827Y-147040602D01*
X70420814Y-147040609D01*
X70289711Y-147128210D01*
X70289707Y-147128213D01*
X70178213Y-147239707D01*
X70178210Y-147239711D01*
X70090609Y-147370814D01*
X70090602Y-147370827D01*
X70030264Y-147516498D01*
X70030261Y-147516510D01*
X69999500Y-147671153D01*
X66500000Y-147671153D01*
X66500000Y-146941517D01*
X66519685Y-146874478D01*
X66572489Y-146828723D01*
X66641647Y-146818779D01*
X66685997Y-146834128D01*
X66883303Y-146948043D01*
X66883305Y-146948043D01*
X66883309Y-146948046D01*
X67125571Y-147048394D01*
X67125581Y-147048398D01*
X67378884Y-147116270D01*
X67638880Y-147150500D01*
X67638887Y-147150500D01*
X67901113Y-147150500D01*
X67901120Y-147150500D01*
X68161116Y-147116270D01*
X68414419Y-147048398D01*
X68591340Y-146975114D01*
X68656690Y-146948046D01*
X68656691Y-146948045D01*
X68656697Y-146948043D01*
X68883803Y-146816924D01*
X69091851Y-146657282D01*
X69091855Y-146657277D01*
X69091860Y-146657274D01*
X69277274Y-146471860D01*
X69277277Y-146471855D01*
X69277282Y-146471851D01*
X69436924Y-146263803D01*
X69568043Y-146036697D01*
X69668398Y-145794419D01*
X69736270Y-145541116D01*
X69770500Y-145281120D01*
X69770500Y-145018880D01*
X69757634Y-144921153D01*
X73199500Y-144921153D01*
X73199500Y-145078846D01*
X73230261Y-145233489D01*
X73230264Y-145233501D01*
X73290602Y-145379172D01*
X73290609Y-145379185D01*
X73378210Y-145510288D01*
X73378213Y-145510292D01*
X73489707Y-145621786D01*
X73489711Y-145621789D01*
X73620814Y-145709390D01*
X73620827Y-145709397D01*
X73766498Y-145769735D01*
X73766503Y-145769737D01*
X73921153Y-145800499D01*
X73921156Y-145800500D01*
X73921158Y-145800500D01*
X74078844Y-145800500D01*
X74078845Y-145800499D01*
X74233497Y-145769737D01*
X74379179Y-145709394D01*
X74436411Y-145671153D01*
X80299500Y-145671153D01*
X80299500Y-145828846D01*
X80330261Y-145983489D01*
X80330264Y-145983501D01*
X80390602Y-146129172D01*
X80390609Y-146129185D01*
X80478210Y-146260288D01*
X80478213Y-146260292D01*
X80589707Y-146371786D01*
X80589711Y-146371789D01*
X80720814Y-146459390D01*
X80720827Y-146459397D01*
X80866498Y-146519735D01*
X80866503Y-146519737D01*
X81021153Y-146550499D01*
X81021156Y-146550500D01*
X81021158Y-146550500D01*
X81178844Y-146550500D01*
X81178845Y-146550499D01*
X81333497Y-146519737D01*
X81479179Y-146459394D01*
X81610289Y-146371789D01*
X81721789Y-146260289D01*
X81809394Y-146129179D01*
X81812854Y-146120827D01*
X81847704Y-146036690D01*
X81869737Y-145983497D01*
X81890620Y-145878510D01*
X81923004Y-145816600D01*
X81983720Y-145782026D01*
X82053489Y-145785765D01*
X82110162Y-145826631D01*
X82126798Y-145855249D01*
X82201953Y-146036690D01*
X82201958Y-146036700D01*
X82333075Y-146263803D01*
X82492718Y-146471851D01*
X82492726Y-146471860D01*
X82678140Y-146657274D01*
X82678148Y-146657281D01*
X82886196Y-146816924D01*
X83113299Y-146948041D01*
X83113309Y-146948046D01*
X83355571Y-147048394D01*
X83355581Y-147048398D01*
X83608884Y-147116270D01*
X83868880Y-147150500D01*
X83868887Y-147150500D01*
X84131113Y-147150500D01*
X84131120Y-147150500D01*
X84391116Y-147116270D01*
X84644419Y-147048398D01*
X84821340Y-146975114D01*
X84886690Y-146948046D01*
X84886691Y-146948045D01*
X84886697Y-146948043D01*
X85113803Y-146816924D01*
X85321851Y-146657282D01*
X85321855Y-146657277D01*
X85321860Y-146657274D01*
X85507274Y-146471860D01*
X85507277Y-146471855D01*
X85507282Y-146471851D01*
X85666924Y-146263803D01*
X85798043Y-146036697D01*
X85898398Y-145794419D01*
X85966270Y-145541116D01*
X86000500Y-145281120D01*
X86000500Y-145018880D01*
X85966270Y-144758884D01*
X85898398Y-144505581D01*
X85891824Y-144489711D01*
X85845640Y-144378213D01*
X85837084Y-144357558D01*
X85829616Y-144288090D01*
X85860891Y-144225610D01*
X85882750Y-144207007D01*
X86010289Y-144121789D01*
X86121789Y-144010289D01*
X86209394Y-143879179D01*
X86269737Y-143733497D01*
X86300500Y-143578842D01*
X86300500Y-143421158D01*
X86300500Y-143421155D01*
X86300499Y-143421153D01*
X86269738Y-143266510D01*
X86269737Y-143266503D01*
X86231143Y-143173327D01*
X86209397Y-143120827D01*
X86209390Y-143120814D01*
X86121789Y-142989711D01*
X86121786Y-142989707D01*
X86010292Y-142878213D01*
X86010288Y-142878210D01*
X85879185Y-142790609D01*
X85879172Y-142790602D01*
X85733501Y-142730264D01*
X85733489Y-142730261D01*
X85578845Y-142699500D01*
X85578842Y-142699500D01*
X85421158Y-142699500D01*
X85421155Y-142699500D01*
X85266510Y-142730261D01*
X85266498Y-142730264D01*
X85120827Y-142790602D01*
X85120814Y-142790609D01*
X84989711Y-142878210D01*
X84989707Y-142878213D01*
X84878213Y-142989707D01*
X84878210Y-142989711D01*
X84790609Y-143120814D01*
X84790604Y-143120824D01*
X84768857Y-143173327D01*
X84725016Y-143227730D01*
X84658722Y-143249795D01*
X84622203Y-143245649D01*
X84486881Y-143209390D01*
X84391116Y-143183730D01*
X84353989Y-143178842D01*
X84131127Y-143149500D01*
X84131120Y-143149500D01*
X83868880Y-143149500D01*
X83868872Y-143149500D01*
X83637772Y-143179926D01*
X83608884Y-143183730D01*
X83377798Y-143245649D01*
X83355581Y-143251602D01*
X83355571Y-143251605D01*
X83113309Y-143351953D01*
X83113299Y-143351958D01*
X82886196Y-143483075D01*
X82678148Y-143642718D01*
X82492718Y-143828148D01*
X82333075Y-144036196D01*
X82201958Y-144263299D01*
X82201953Y-144263309D01*
X82101605Y-144505571D01*
X82101602Y-144505581D01*
X82040532Y-144733501D01*
X82033730Y-144758885D01*
X81999500Y-145018872D01*
X81999500Y-145246560D01*
X81979815Y-145313599D01*
X81927011Y-145359354D01*
X81857853Y-145369298D01*
X81794297Y-145340273D01*
X81772398Y-145315451D01*
X81721789Y-145239711D01*
X81721786Y-145239707D01*
X81610292Y-145128213D01*
X81610288Y-145128210D01*
X81479185Y-145040609D01*
X81479172Y-145040602D01*
X81333501Y-144980264D01*
X81333489Y-144980261D01*
X81178845Y-144949500D01*
X81178842Y-144949500D01*
X81021158Y-144949500D01*
X81021155Y-144949500D01*
X80866510Y-144980261D01*
X80866498Y-144980264D01*
X80720827Y-145040602D01*
X80720814Y-145040609D01*
X80589711Y-145128210D01*
X80589707Y-145128213D01*
X80478213Y-145239707D01*
X80478210Y-145239711D01*
X80390609Y-145370814D01*
X80390602Y-145370827D01*
X80330264Y-145516498D01*
X80330261Y-145516510D01*
X80299500Y-145671153D01*
X74436411Y-145671153D01*
X74510289Y-145621789D01*
X74510292Y-145621786D01*
X74554694Y-145577385D01*
X74621786Y-145510292D01*
X74621789Y-145510289D01*
X74709394Y-145379179D01*
X74712854Y-145370827D01*
X74767163Y-145239711D01*
X74769737Y-145233497D01*
X74800500Y-145078842D01*
X74800500Y-144921158D01*
X74800500Y-144921155D01*
X74800499Y-144921153D01*
X74769738Y-144766510D01*
X74769737Y-144766503D01*
X74766581Y-144758884D01*
X74709397Y-144620827D01*
X74709390Y-144620814D01*
X74621789Y-144489711D01*
X74621786Y-144489707D01*
X74510292Y-144378213D01*
X74510288Y-144378210D01*
X74379185Y-144290609D01*
X74379172Y-144290602D01*
X74233501Y-144230264D01*
X74233489Y-144230261D01*
X74078845Y-144199500D01*
X74078842Y-144199500D01*
X73921158Y-144199500D01*
X73921155Y-144199500D01*
X73766510Y-144230261D01*
X73766498Y-144230264D01*
X73620827Y-144290602D01*
X73620814Y-144290609D01*
X73489711Y-144378210D01*
X73489707Y-144378213D01*
X73378213Y-144489707D01*
X73378210Y-144489711D01*
X73290609Y-144620814D01*
X73290602Y-144620827D01*
X73230264Y-144766498D01*
X73230261Y-144766510D01*
X73199500Y-144921153D01*
X69757634Y-144921153D01*
X69736270Y-144758884D01*
X69668398Y-144505581D01*
X69666657Y-144501377D01*
X69568046Y-144263309D01*
X69568041Y-144263299D01*
X69436924Y-144036196D01*
X69323747Y-143888703D01*
X69277282Y-143828149D01*
X69277278Y-143828145D01*
X69277275Y-143828141D01*
X69220287Y-143771153D01*
X78199500Y-143771153D01*
X78199500Y-143928846D01*
X78230261Y-144083489D01*
X78230264Y-144083501D01*
X78290602Y-144229172D01*
X78290609Y-144229185D01*
X78378210Y-144360288D01*
X78378213Y-144360292D01*
X78489707Y-144471786D01*
X78489711Y-144471789D01*
X78620814Y-144559390D01*
X78620827Y-144559397D01*
X78766498Y-144619735D01*
X78766503Y-144619737D01*
X78921153Y-144650499D01*
X78921156Y-144650500D01*
X78921158Y-144650500D01*
X79078844Y-144650500D01*
X79078845Y-144650499D01*
X79233497Y-144619737D01*
X79379179Y-144559394D01*
X79510289Y-144471789D01*
X79621789Y-144360289D01*
X79709394Y-144229179D01*
X79769737Y-144083497D01*
X79800500Y-143928842D01*
X79800500Y-143771158D01*
X79800500Y-143771155D01*
X79800499Y-143771153D01*
X79794903Y-143743019D01*
X79769737Y-143616503D01*
X79754138Y-143578844D01*
X79709397Y-143470827D01*
X79709390Y-143470814D01*
X79621789Y-143339711D01*
X79621786Y-143339707D01*
X79510292Y-143228213D01*
X79510288Y-143228210D01*
X79379185Y-143140609D01*
X79379172Y-143140602D01*
X79233501Y-143080264D01*
X79233489Y-143080261D01*
X79078845Y-143049500D01*
X79078842Y-143049500D01*
X78921158Y-143049500D01*
X78921155Y-143049500D01*
X78766510Y-143080261D01*
X78766498Y-143080264D01*
X78620827Y-143140602D01*
X78620814Y-143140609D01*
X78489711Y-143228210D01*
X78489707Y-143228213D01*
X78378213Y-143339707D01*
X78378210Y-143339711D01*
X78290609Y-143470814D01*
X78290602Y-143470827D01*
X78230264Y-143616498D01*
X78230261Y-143616510D01*
X78199500Y-143771153D01*
X69220287Y-143771153D01*
X69091860Y-143642726D01*
X69091851Y-143642718D01*
X68883803Y-143483075D01*
X68656700Y-143351958D01*
X68656690Y-143351953D01*
X68414428Y-143251605D01*
X68414421Y-143251603D01*
X68414419Y-143251602D01*
X68161116Y-143183730D01*
X68103339Y-143176123D01*
X67901127Y-143149500D01*
X67901120Y-143149500D01*
X67638880Y-143149500D01*
X67638872Y-143149500D01*
X67407772Y-143179926D01*
X67378884Y-143183730D01*
X67147798Y-143245649D01*
X67125581Y-143251602D01*
X67125571Y-143251605D01*
X66883309Y-143351953D01*
X66883304Y-143351956D01*
X66685999Y-143465869D01*
X66618099Y-143482341D01*
X66552072Y-143459488D01*
X66508882Y-143404566D01*
X66500000Y-143358481D01*
X66500000Y-137368872D01*
X67249500Y-137368872D01*
X67249500Y-137631127D01*
X67266647Y-137761362D01*
X67283730Y-137891116D01*
X67347520Y-138129185D01*
X67351602Y-138144418D01*
X67351605Y-138144428D01*
X67451953Y-138386690D01*
X67451958Y-138386700D01*
X67583075Y-138613803D01*
X67742718Y-138821851D01*
X67742726Y-138821860D01*
X67928140Y-139007274D01*
X67928148Y-139007281D01*
X67928149Y-139007282D01*
X67932068Y-139010289D01*
X68136196Y-139166924D01*
X68363299Y-139298041D01*
X68363309Y-139298046D01*
X68556845Y-139378211D01*
X68605581Y-139398398D01*
X68858884Y-139466270D01*
X69118880Y-139500500D01*
X69118887Y-139500500D01*
X69381113Y-139500500D01*
X69381120Y-139500500D01*
X69641116Y-139466270D01*
X69894419Y-139398398D01*
X70071340Y-139325114D01*
X70136690Y-139298046D01*
X70136691Y-139298045D01*
X70136697Y-139298043D01*
X70363803Y-139166924D01*
X70571851Y-139007282D01*
X70571855Y-139007277D01*
X70571860Y-139007274D01*
X70757274Y-138821860D01*
X70757277Y-138821855D01*
X70757282Y-138821851D01*
X70916924Y-138613803D01*
X71048043Y-138386697D01*
X71148398Y-138144419D01*
X71208222Y-137921153D01*
X78199500Y-137921153D01*
X78199500Y-138078846D01*
X78230261Y-138233489D01*
X78230264Y-138233501D01*
X78290602Y-138379172D01*
X78290609Y-138379185D01*
X78378210Y-138510288D01*
X78378213Y-138510292D01*
X78489707Y-138621786D01*
X78489711Y-138621789D01*
X78620814Y-138709390D01*
X78620827Y-138709397D01*
X78686116Y-138736440D01*
X78766503Y-138769737D01*
X78876531Y-138791623D01*
X78921153Y-138800499D01*
X78921156Y-138800500D01*
X78921158Y-138800500D01*
X79078844Y-138800500D01*
X79078845Y-138800499D01*
X79233497Y-138769737D01*
X79352736Y-138720347D01*
X79379172Y-138709397D01*
X79379172Y-138709396D01*
X79379179Y-138709394D01*
X79510289Y-138621789D01*
X79621789Y-138510289D01*
X79709394Y-138379179D01*
X79769737Y-138233497D01*
X79800500Y-138078842D01*
X79800500Y-137921158D01*
X79800500Y-137921155D01*
X79800499Y-137921153D01*
X79790679Y-137871787D01*
X79769737Y-137766503D01*
X79737929Y-137689711D01*
X79709397Y-137620827D01*
X79709390Y-137620814D01*
X79621789Y-137489711D01*
X79621786Y-137489707D01*
X79510292Y-137378213D01*
X79510288Y-137378210D01*
X79379185Y-137290609D01*
X79379172Y-137290602D01*
X79233501Y-137230264D01*
X79233489Y-137230261D01*
X79078845Y-137199500D01*
X79078842Y-137199500D01*
X78921158Y-137199500D01*
X78921155Y-137199500D01*
X78766510Y-137230261D01*
X78766498Y-137230264D01*
X78620827Y-137290602D01*
X78620814Y-137290609D01*
X78489711Y-137378210D01*
X78489707Y-137378213D01*
X78378213Y-137489707D01*
X78378210Y-137489711D01*
X78290609Y-137620814D01*
X78290602Y-137620827D01*
X78230264Y-137766498D01*
X78230261Y-137766510D01*
X78199500Y-137921153D01*
X71208222Y-137921153D01*
X71216270Y-137891116D01*
X71250500Y-137631120D01*
X71250500Y-137368880D01*
X71216270Y-137108884D01*
X71148398Y-136855581D01*
X71142929Y-136842377D01*
X71048046Y-136613309D01*
X71048041Y-136613299D01*
X70916924Y-136386196D01*
X70757281Y-136178148D01*
X70757274Y-136178140D01*
X70571860Y-135992726D01*
X70571851Y-135992718D01*
X70363803Y-135833075D01*
X70136700Y-135701958D01*
X70136690Y-135701953D01*
X69894428Y-135601605D01*
X69894421Y-135601603D01*
X69894419Y-135601602D01*
X69641116Y-135533730D01*
X69583339Y-135526123D01*
X69381127Y-135499500D01*
X69381120Y-135499500D01*
X69118880Y-135499500D01*
X69118872Y-135499500D01*
X68887772Y-135529926D01*
X68858884Y-135533730D01*
X68689243Y-135579185D01*
X68605581Y-135601602D01*
X68605571Y-135601605D01*
X68363309Y-135701953D01*
X68363299Y-135701958D01*
X68136196Y-135833075D01*
X67928148Y-135992718D01*
X67742718Y-136178148D01*
X67583075Y-136386196D01*
X67451958Y-136613299D01*
X67451953Y-136613309D01*
X67351605Y-136855571D01*
X67351602Y-136855581D01*
X67283730Y-137108884D01*
X67281185Y-137128213D01*
X67249500Y-137368872D01*
X66500000Y-137368872D01*
X66500000Y-133921153D01*
X78699500Y-133921153D01*
X78699500Y-134078846D01*
X78730261Y-134233489D01*
X78730264Y-134233501D01*
X78790602Y-134379172D01*
X78790609Y-134379185D01*
X78878210Y-134510288D01*
X78878213Y-134510292D01*
X78989707Y-134621786D01*
X78989711Y-134621789D01*
X79120814Y-134709390D01*
X79120827Y-134709397D01*
X79258683Y-134766498D01*
X79266503Y-134769737D01*
X79421153Y-134800499D01*
X79421156Y-134800500D01*
X79421158Y-134800500D01*
X79578844Y-134800500D01*
X79578845Y-134800499D01*
X79733497Y-134769737D01*
X79879179Y-134709394D01*
X80010289Y-134621789D01*
X80121789Y-134510289D01*
X80209394Y-134379179D01*
X80269737Y-134233497D01*
X80300500Y-134078842D01*
X80300500Y-133921158D01*
X80300500Y-133921155D01*
X80300499Y-133921153D01*
X80290069Y-133868717D01*
X80269737Y-133766503D01*
X80269735Y-133766498D01*
X80209397Y-133620827D01*
X80209390Y-133620814D01*
X80121789Y-133489711D01*
X80121786Y-133489707D01*
X80010292Y-133378213D01*
X80010288Y-133378210D01*
X79879185Y-133290609D01*
X79879172Y-133290602D01*
X79733501Y-133230264D01*
X79733489Y-133230261D01*
X79578845Y-133199500D01*
X79578842Y-133199500D01*
X79421158Y-133199500D01*
X79421155Y-133199500D01*
X79266510Y-133230261D01*
X79266498Y-133230264D01*
X79120827Y-133290602D01*
X79120814Y-133290609D01*
X78989711Y-133378210D01*
X78989707Y-133378213D01*
X78878213Y-133489707D01*
X78878210Y-133489711D01*
X78790609Y-133620814D01*
X78790602Y-133620827D01*
X78730264Y-133766498D01*
X78730261Y-133766510D01*
X78699500Y-133921153D01*
X66500000Y-133921153D01*
X66500000Y-131791517D01*
X66519685Y-131724478D01*
X66572489Y-131678723D01*
X66641647Y-131668779D01*
X66685997Y-131684128D01*
X66883303Y-131798043D01*
X66883305Y-131798043D01*
X66883309Y-131798046D01*
X67084259Y-131881282D01*
X67125581Y-131898398D01*
X67378884Y-131966270D01*
X67638880Y-132000500D01*
X67638887Y-132000500D01*
X67901113Y-132000500D01*
X67901120Y-132000500D01*
X68161116Y-131966270D01*
X68414419Y-131898398D01*
X68591340Y-131825114D01*
X68656690Y-131798046D01*
X68656691Y-131798045D01*
X68656697Y-131798043D01*
X68883803Y-131666924D01*
X69091851Y-131507282D01*
X69091855Y-131507277D01*
X69091860Y-131507274D01*
X69277274Y-131321860D01*
X69277277Y-131321855D01*
X69277282Y-131321851D01*
X69436924Y-131113803D01*
X69548150Y-130921153D01*
X74699500Y-130921153D01*
X74699500Y-131078846D01*
X74730261Y-131233489D01*
X74730264Y-131233501D01*
X74790602Y-131379172D01*
X74790609Y-131379185D01*
X74878210Y-131510288D01*
X74878213Y-131510292D01*
X74989707Y-131621786D01*
X74989711Y-131621789D01*
X75120814Y-131709390D01*
X75120827Y-131709397D01*
X75266498Y-131769735D01*
X75266503Y-131769737D01*
X75375998Y-131791517D01*
X75421153Y-131800499D01*
X75421156Y-131800500D01*
X75421158Y-131800500D01*
X75578844Y-131800500D01*
X75578845Y-131800499D01*
X75733497Y-131769737D01*
X75879179Y-131709394D01*
X76010289Y-131621789D01*
X76121789Y-131510289D01*
X76209394Y-131379179D01*
X76269737Y-131233497D01*
X76300500Y-131078842D01*
X76300500Y-130921158D01*
X76300500Y-130921155D01*
X76300499Y-130921153D01*
X76269738Y-130766510D01*
X76269737Y-130766503D01*
X76241054Y-130697255D01*
X76209397Y-130620827D01*
X76209390Y-130620814D01*
X76121789Y-130489711D01*
X76121786Y-130489707D01*
X76010292Y-130378213D01*
X76010288Y-130378210D01*
X75879185Y-130290609D01*
X75879172Y-130290602D01*
X75733501Y-130230264D01*
X75733489Y-130230261D01*
X75578845Y-130199500D01*
X75578842Y-130199500D01*
X75421158Y-130199500D01*
X75421155Y-130199500D01*
X75266510Y-130230261D01*
X75266498Y-130230264D01*
X75120827Y-130290602D01*
X75120814Y-130290609D01*
X74989711Y-130378210D01*
X74989707Y-130378213D01*
X74878213Y-130489707D01*
X74878210Y-130489711D01*
X74790609Y-130620814D01*
X74790602Y-130620827D01*
X74730264Y-130766498D01*
X74730261Y-130766510D01*
X74699500Y-130921153D01*
X69548150Y-130921153D01*
X69568043Y-130886697D01*
X69568048Y-130886685D01*
X69575948Y-130867614D01*
X69575948Y-130867613D01*
X69628143Y-130741602D01*
X69668398Y-130644419D01*
X69736270Y-130391116D01*
X69770500Y-130131120D01*
X69770500Y-129868880D01*
X69736270Y-129608884D01*
X69668398Y-129355581D01*
X69641486Y-129290609D01*
X69568046Y-129113309D01*
X69568041Y-129113299D01*
X69436924Y-128886196D01*
X69277281Y-128678148D01*
X69277274Y-128678140D01*
X69091860Y-128492726D01*
X69091851Y-128492718D01*
X68883803Y-128333075D01*
X68656700Y-128201958D01*
X68656690Y-128201953D01*
X68414428Y-128101605D01*
X68414421Y-128101603D01*
X68414419Y-128101602D01*
X68161116Y-128033730D01*
X68103339Y-128026123D01*
X67901127Y-127999500D01*
X67901120Y-127999500D01*
X67638880Y-127999500D01*
X67638872Y-127999500D01*
X67407772Y-128029926D01*
X67378884Y-128033730D01*
X67166238Y-128090708D01*
X67125581Y-128101602D01*
X67125571Y-128101605D01*
X66883309Y-128201953D01*
X66883304Y-128201956D01*
X66685999Y-128315869D01*
X66618099Y-128332341D01*
X66552072Y-128309488D01*
X66508882Y-128254566D01*
X66500000Y-128208481D01*
X66500000Y-125441517D01*
X66519685Y-125374478D01*
X66572489Y-125328723D01*
X66641647Y-125318779D01*
X66685997Y-125334128D01*
X66883303Y-125448043D01*
X66883305Y-125448043D01*
X66883309Y-125448046D01*
X67093858Y-125535258D01*
X67125581Y-125548398D01*
X67378884Y-125616270D01*
X67638880Y-125650500D01*
X67638887Y-125650500D01*
X67901113Y-125650500D01*
X67901120Y-125650500D01*
X68161116Y-125616270D01*
X68414419Y-125548398D01*
X68656697Y-125448043D01*
X68883803Y-125316924D01*
X69091851Y-125157282D01*
X69091855Y-125157277D01*
X69091860Y-125157274D01*
X69277274Y-124971860D01*
X69277277Y-124971855D01*
X69277282Y-124971851D01*
X69436924Y-124763803D01*
X69568043Y-124536697D01*
X69668398Y-124294419D01*
X69736270Y-124041116D01*
X69770500Y-123781120D01*
X69770500Y-123518880D01*
X69736270Y-123258884D01*
X69668398Y-123005581D01*
X69662761Y-122991971D01*
X69568046Y-122763309D01*
X69568041Y-122763299D01*
X69436924Y-122536196D01*
X69277281Y-122328148D01*
X69277274Y-122328140D01*
X69091860Y-122142726D01*
X69091851Y-122142718D01*
X68883803Y-121983075D01*
X68656700Y-121851958D01*
X68656690Y-121851953D01*
X68414428Y-121751605D01*
X68414421Y-121751603D01*
X68414419Y-121751602D01*
X68161116Y-121683730D01*
X68103339Y-121676123D01*
X67901127Y-121649500D01*
X67901120Y-121649500D01*
X67638880Y-121649500D01*
X67638872Y-121649500D01*
X67407772Y-121679926D01*
X67378884Y-121683730D01*
X67125581Y-121751602D01*
X67125571Y-121751605D01*
X66883309Y-121851953D01*
X66883304Y-121851956D01*
X66685999Y-121965869D01*
X66618099Y-121982341D01*
X66552072Y-121959488D01*
X66508882Y-121904566D01*
X66500000Y-121858481D01*
X66500000Y-119091517D01*
X66519685Y-119024478D01*
X66572489Y-118978723D01*
X66641647Y-118968779D01*
X66685997Y-118984128D01*
X66883303Y-119098043D01*
X66883305Y-119098043D01*
X66883309Y-119098046D01*
X67125571Y-119198394D01*
X67125581Y-119198398D01*
X67378884Y-119266270D01*
X67638880Y-119300500D01*
X67638887Y-119300500D01*
X67901113Y-119300500D01*
X67901120Y-119300500D01*
X68161116Y-119266270D01*
X68414419Y-119198398D01*
X68656697Y-119098043D01*
X68883803Y-118966924D01*
X69091851Y-118807282D01*
X69091855Y-118807277D01*
X69091860Y-118807274D01*
X69277274Y-118621860D01*
X69277277Y-118621855D01*
X69277282Y-118621851D01*
X69436924Y-118413803D01*
X69568043Y-118186697D01*
X69668398Y-117944419D01*
X69736270Y-117691116D01*
X69770500Y-117431120D01*
X69770500Y-117168880D01*
X69770499Y-117168872D01*
X81999500Y-117168872D01*
X81999500Y-117431127D01*
X82009923Y-117510289D01*
X82033730Y-117691116D01*
X82097520Y-117929185D01*
X82101602Y-117944418D01*
X82101605Y-117944428D01*
X82201953Y-118186690D01*
X82201958Y-118186700D01*
X82333075Y-118413803D01*
X82492718Y-118621851D01*
X82492726Y-118621860D01*
X82678140Y-118807274D01*
X82678148Y-118807281D01*
X82886196Y-118966924D01*
X83113299Y-119098041D01*
X83113309Y-119098046D01*
X83355571Y-119198394D01*
X83355581Y-119198398D01*
X83608884Y-119266270D01*
X83868880Y-119300500D01*
X83868887Y-119300500D01*
X84131113Y-119300500D01*
X84131120Y-119300500D01*
X84391116Y-119266270D01*
X84644419Y-119198398D01*
X84886697Y-119098043D01*
X85113803Y-118966924D01*
X85321851Y-118807282D01*
X85321855Y-118807277D01*
X85321860Y-118807274D01*
X85507274Y-118621860D01*
X85507277Y-118621855D01*
X85507282Y-118621851D01*
X85666924Y-118413803D01*
X85798043Y-118186697D01*
X85898398Y-117944419D01*
X85912335Y-117892404D01*
X85948701Y-117832745D01*
X86011548Y-117802217D01*
X86032110Y-117800500D01*
X86078844Y-117800500D01*
X86078845Y-117800499D01*
X86233497Y-117769737D01*
X86379179Y-117709394D01*
X86510289Y-117621789D01*
X86621789Y-117510289D01*
X86709394Y-117379179D01*
X86769737Y-117233497D01*
X86800500Y-117078842D01*
X86800500Y-116921158D01*
X86800500Y-116921155D01*
X86800499Y-116921153D01*
X86798059Y-116908885D01*
X86769737Y-116766503D01*
X86762694Y-116749500D01*
X86709397Y-116620827D01*
X86709390Y-116620814D01*
X86621789Y-116489711D01*
X86621786Y-116489707D01*
X86510292Y-116378213D01*
X86510288Y-116378210D01*
X86379185Y-116290609D01*
X86379172Y-116290602D01*
X86233501Y-116230264D01*
X86233489Y-116230261D01*
X86078845Y-116199500D01*
X86078842Y-116199500D01*
X85921158Y-116199500D01*
X85921153Y-116199500D01*
X85785071Y-116226568D01*
X85715479Y-116220341D01*
X85662505Y-116180438D01*
X85548466Y-116031821D01*
X85507282Y-115978149D01*
X85507281Y-115978148D01*
X85507274Y-115978140D01*
X85321860Y-115792726D01*
X85321851Y-115792718D01*
X85113803Y-115633075D01*
X84886700Y-115501958D01*
X84886690Y-115501953D01*
X84644428Y-115401605D01*
X84644421Y-115401603D01*
X84644419Y-115401602D01*
X84391116Y-115333730D01*
X84333339Y-115326123D01*
X84131127Y-115299500D01*
X84131120Y-115299500D01*
X83868880Y-115299500D01*
X83868872Y-115299500D01*
X83637772Y-115329926D01*
X83608884Y-115333730D01*
X83439243Y-115379185D01*
X83355581Y-115401602D01*
X83355571Y-115401605D01*
X83113309Y-115501953D01*
X83113299Y-115501958D01*
X82886196Y-115633075D01*
X82678148Y-115792718D01*
X82492718Y-115978148D01*
X82333075Y-116186196D01*
X82201958Y-116413299D01*
X82201953Y-116413309D01*
X82101605Y-116655571D01*
X82101602Y-116655581D01*
X82033730Y-116908884D01*
X82031185Y-116928213D01*
X81999500Y-117168872D01*
X69770499Y-117168872D01*
X69736270Y-116908884D01*
X69668398Y-116655581D01*
X69668394Y-116655571D01*
X69568046Y-116413309D01*
X69568041Y-116413299D01*
X69436924Y-116186196D01*
X69277281Y-115978148D01*
X69277274Y-115978140D01*
X69091860Y-115792726D01*
X69091851Y-115792718D01*
X68883803Y-115633075D01*
X68656700Y-115501958D01*
X68656690Y-115501953D01*
X68414428Y-115401605D01*
X68414421Y-115401603D01*
X68414419Y-115401602D01*
X68161116Y-115333730D01*
X68103339Y-115326123D01*
X67901127Y-115299500D01*
X67901120Y-115299500D01*
X67638880Y-115299500D01*
X67638872Y-115299500D01*
X67407772Y-115329926D01*
X67378884Y-115333730D01*
X67209243Y-115379185D01*
X67125581Y-115401602D01*
X67125571Y-115401605D01*
X66883309Y-115501953D01*
X66883304Y-115501956D01*
X66685999Y-115615869D01*
X66618099Y-115632341D01*
X66552072Y-115609488D01*
X66508882Y-115554566D01*
X66500000Y-115508481D01*
X66500000Y-112624000D01*
X66519685Y-112556961D01*
X66572489Y-112511206D01*
X66624000Y-112500000D01*
X88025500Y-112500000D01*
X88092539Y-112519685D01*
G37*
%TD.AperFunction*%
%TD*%
M02*
