%TF.GenerationSoftware,KiCad,Pcbnew,9.0.4*%
%TF.CreationDate,2025-09-24T19:41:08-07:00*%
%TF.ProjectId,LE_FRONTEND,4c455f46-524f-44e5-9445-4e442e6b6963,rev?*%
%TF.SameCoordinates,Original*%
%TF.FileFunction,Copper,L5,Inr*%
%TF.FilePolarity,Positive*%
%FSLAX46Y46*%
G04 Gerber Fmt 4.6, Leading zero omitted, Abs format (unit mm)*
G04 Created by KiCad (PCBNEW 9.0.4) date 2025-09-24 19:41:08*
%MOMM*%
%LPD*%
G01*
G04 APERTURE LIST*
%TA.AperFunction,ComponentPad*%
%ADD10R,1.700000X1.700000*%
%TD*%
%TA.AperFunction,ComponentPad*%
%ADD11C,1.700000*%
%TD*%
%TA.AperFunction,ComponentPad*%
%ADD12C,1.600000*%
%TD*%
%TA.AperFunction,ComponentPad*%
%ADD13C,3.000000*%
%TD*%
%TA.AperFunction,ViaPad*%
%ADD14C,0.600000*%
%TD*%
G04 APERTURE END LIST*
D10*
%TO.N,/SCK*%
%TO.C,J3*%
X112500000Y-146580000D03*
D11*
%TO.N,/{slash}CS*%
X112500000Y-144040000D03*
%TO.N,/SDI*%
X112500000Y-141500000D03*
%TO.N,/SDO*%
X112500000Y-138960000D03*
%TO.N,/{slash}IRQ*%
X112500000Y-136420000D03*
%TO.N,/MCLK*%
X112500000Y-133880000D03*
%TO.N,+3V3_DIG*%
X112500000Y-131340000D03*
%TO.N,Vin*%
X112500000Y-128800000D03*
%TO.N,GND*%
X112500000Y-126260000D03*
%TD*%
D12*
%TO.N,GND*%
%TO.C,C2*%
X94500000Y-117000000D03*
%TO.N,/IN+*%
X94500000Y-122000000D03*
%TD*%
D13*
%TO.N,N/C*%
%TO.C,J5*%
X67770000Y-151500000D03*
X84000000Y-151500000D03*
%TO.N,GND*%
X67770000Y-157850000D03*
%TO.N,N/C*%
X84000000Y-157850000D03*
%TO.N,/OUTPUT_SIG*%
X67770000Y-145150000D03*
%TO.N,N/C*%
X84000000Y-145150000D03*
%TD*%
D12*
%TO.N,GND*%
%TO.C,C21*%
X90750000Y-156500000D03*
%TO.N,/U1_INPUT_SIG*%
X90750000Y-151500000D03*
%TD*%
%TO.N,/U1_OUTPUT_SIG*%
%TO.C,C24*%
X95750000Y-151500000D03*
%TO.N,/OUTPUT_SIG*%
X95750000Y-156500000D03*
%TD*%
D13*
%TO.N,N/C*%
%TO.C,J1*%
X84000000Y-123650000D03*
X67770000Y-123650000D03*
%TO.N,GND*%
X84000000Y-117300000D03*
%TO.N,N/C*%
X67770000Y-117300000D03*
%TO.N,/POS_INPUT_SIG*%
X84000000Y-130000000D03*
%TO.N,N/C*%
X67770000Y-130000000D03*
%TD*%
D12*
%TO.N,/POS_INPUT_SIG*%
%TO.C,C1*%
X89500000Y-122000000D03*
%TO.N,Net-(U9A-+)*%
X89500000Y-117000000D03*
%TD*%
D10*
%TO.N,/Neg_input_Header*%
%TO.C,J2*%
X89500000Y-113500000D03*
%TD*%
D12*
%TO.N,GND*%
%TO.C,C3*%
X102500000Y-116000000D03*
%TO.N,/IN-*%
X102500000Y-121000000D03*
%TD*%
D10*
%TO.N,GND*%
%TO.C,J6*%
X94500000Y-113500000D03*
%TD*%
D14*
%TO.N,+3V3_Analog*%
X75500000Y-120000000D03*
X75000000Y-158000000D03*
X113500000Y-117000000D03*
X82500000Y-136250000D03*
X104000000Y-148800000D03*
X105200000Y-116600000D03*
X105600000Y-121000000D03*
X86750000Y-158250000D03*
X98400000Y-126400000D03*
X103000000Y-134600000D03*
X105600000Y-126500000D03*
X91810000Y-144475000D03*
X98050000Y-139500000D03*
X79000000Y-130500000D03*
X98500000Y-122400000D03*
X91810000Y-134950000D03*
X105600000Y-123750000D03*
X100250000Y-148750000D03*
X93500000Y-132500000D03*
X86000000Y-119750000D03*
X106500000Y-120050000D03*
X86000000Y-122600000D03*
X110000000Y-150400000D03*
X82250000Y-149000000D03*
X97000000Y-137250000D03*
X76750000Y-141250000D03*
X93500000Y-134500000D03*
X109500000Y-121100000D03*
X82500000Y-138500000D03*
X103000000Y-139000000D03*
X99400000Y-117800000D03*
%TO.N,GND*%
X107225000Y-123400000D03*
X97250000Y-123250000D03*
X101500000Y-135200000D03*
X96004952Y-152774758D03*
X105600000Y-153000000D03*
X106500000Y-118500000D03*
X75500000Y-131000000D03*
X108134761Y-144122205D03*
X99000000Y-141200000D03*
X107900000Y-140500000D03*
X95300000Y-139500000D03*
X101000000Y-127750000D03*
X74000000Y-145000000D03*
X86000000Y-117000000D03*
X108000000Y-113500000D03*
X104000000Y-119950000D03*
X101950000Y-142500000D03*
X109400000Y-145200000D03*
X70000000Y-158000000D03*
X109500000Y-117862500D03*
X87357772Y-128465544D03*
X89699999Y-123284524D03*
X79000000Y-138000000D03*
X95573514Y-149474986D03*
X108000000Y-153000000D03*
X103200000Y-158000000D03*
X103200000Y-153000000D03*
X104000000Y-122350000D03*
X109463677Y-147984853D03*
X89250000Y-146250000D03*
X113300000Y-122700000D03*
X79000000Y-143850000D03*
X97250000Y-144500000D03*
X104000000Y-115000000D03*
X85500000Y-143500000D03*
X110400000Y-158000000D03*
X101500000Y-137600000D03*
X96500000Y-113199997D03*
X101500000Y-140000000D03*
X104000000Y-117550000D03*
X103500000Y-132750000D03*
X108000000Y-158000000D03*
X110400000Y-153000000D03*
X104000000Y-124750000D03*
X86853108Y-139457432D03*
X100500000Y-132650000D03*
X105600000Y-158000000D03*
X80000000Y-128100000D03*
X79500000Y-134000000D03*
%TO.N,/U1_REFERENCE_NON-INVERTING*%
X80999228Y-137251070D03*
X89270000Y-138500000D03*
X86497017Y-138741051D03*
%TO.N,/IN+*%
X97500000Y-135000000D03*
X96100000Y-127000000D03*
%TO.N,/IN-*%
X100500000Y-135000000D03*
X102500000Y-126500000D03*
%TO.N,/U9_input_neg*%
X87000000Y-127750000D03*
X87000000Y-134250000D03*
%TO.N,/POS_INPUT_SIG*%
X88250000Y-123000000D03*
X79000000Y-127500000D03*
%TO.N,/Neg_input_Header*%
X90000000Y-126750000D03*
X96500000Y-114000000D03*
%TO.N,/VOUT*%
X99500000Y-143100000D03*
X97750000Y-148000000D03*
%TO.N,/SDO*%
X108500000Y-145000000D03*
%TO.N,/SCK*%
X108100000Y-138200000D03*
X108496338Y-143185267D03*
%TO.N,/SDI*%
X108500000Y-141300003D03*
%TO.N,/{slash}CS*%
X108500000Y-147700000D03*
%TO.N,Net-(U9A-+)*%
X89772501Y-128522501D03*
X92500000Y-136500000D03*
X90000000Y-118250000D03*
%TO.N,/2V5*%
X97502983Y-143741051D03*
X81100000Y-145750000D03*
%TO.N,/1V2*%
X91250000Y-139525000D03*
X86500000Y-137250000D03*
X93000000Y-137750000D03*
%TO.N,Net-(U5-\u002ACS)*%
X104500000Y-147500000D03*
X99641987Y-141900000D03*
%TO.N,/U1_INPUT_SIG*%
X89500000Y-150000000D03*
X88000000Y-146250000D03*
X94250000Y-148750000D03*
%TO.N,/U1_OUTPUT_SIG*%
X90750000Y-146500000D03*
X94066040Y-150933960D03*
%TO.N,/U9_output_neg*%
X92500000Y-124750000D03*
X90000000Y-133600000D03*
X100000000Y-124000000D03*
%TO.N,/OUTPUT_SIG*%
X96100000Y-146493675D03*
X70800000Y-147750000D03*
%TO.N,/U9_output_pos*%
X92575000Y-130000000D03*
X94500000Y-127000000D03*
%TD*%
%TA.AperFunction,Conductor*%
%TO.N,GND*%
G36*
X88392555Y-112519685D02*
G01*
X88438310Y-112572489D01*
X88446881Y-112624160D01*
X88449500Y-112624160D01*
X88449500Y-114369752D01*
X88461131Y-114428229D01*
X88461132Y-114428230D01*
X88505447Y-114494552D01*
X88571769Y-114538867D01*
X88571770Y-114538868D01*
X88630247Y-114550499D01*
X88630250Y-114550500D01*
X88630252Y-114550500D01*
X90369750Y-114550500D01*
X90369751Y-114550499D01*
X90384568Y-114547552D01*
X90428229Y-114538868D01*
X90428229Y-114538867D01*
X90428231Y-114538867D01*
X90494552Y-114494552D01*
X90538867Y-114428231D01*
X90538867Y-114428229D01*
X90538868Y-114428229D01*
X90550499Y-114369752D01*
X90550500Y-114369750D01*
X90550500Y-112624160D01*
X90553390Y-112624160D01*
X90564016Y-112567673D01*
X90612005Y-112516891D01*
X90674484Y-112500000D01*
X93026000Y-112500000D01*
X93093039Y-112519685D01*
X93138794Y-112572489D01*
X93150000Y-112624000D01*
X93150000Y-113250000D01*
X94066988Y-113250000D01*
X94034075Y-113307007D01*
X94000000Y-113434174D01*
X94000000Y-113565826D01*
X94034075Y-113692993D01*
X94066988Y-113750000D01*
X93150000Y-113750000D01*
X93150000Y-114397844D01*
X93156401Y-114457372D01*
X93156403Y-114457379D01*
X93206645Y-114592086D01*
X93206649Y-114592093D01*
X93292809Y-114707187D01*
X93292812Y-114707190D01*
X93407906Y-114793350D01*
X93407913Y-114793354D01*
X93542620Y-114843596D01*
X93542627Y-114843598D01*
X93602155Y-114849999D01*
X93602172Y-114850000D01*
X94250000Y-114850000D01*
X94250000Y-113933012D01*
X94307007Y-113965925D01*
X94434174Y-114000000D01*
X94565826Y-114000000D01*
X94692993Y-113965925D01*
X94750000Y-113933012D01*
X94750000Y-114850000D01*
X95397828Y-114850000D01*
X95397844Y-114849999D01*
X95449041Y-114844494D01*
X95449043Y-114844494D01*
X95457373Y-114843598D01*
X95457379Y-114843596D01*
X95592086Y-114793354D01*
X95592093Y-114793350D01*
X95707187Y-114707190D01*
X95707190Y-114707187D01*
X95793350Y-114592093D01*
X95793354Y-114592086D01*
X95843596Y-114457379D01*
X95843598Y-114457372D01*
X95849999Y-114397844D01*
X95850000Y-114397827D01*
X95850000Y-114337941D01*
X95869685Y-114270902D01*
X95922489Y-114225147D01*
X95991647Y-114215203D01*
X96055203Y-114244228D01*
X96081386Y-114275939D01*
X96099500Y-114307314D01*
X96192686Y-114400500D01*
X96306814Y-114466392D01*
X96434108Y-114500500D01*
X96434110Y-114500500D01*
X96565890Y-114500500D01*
X96565892Y-114500500D01*
X96693186Y-114466392D01*
X96807314Y-114400500D01*
X96900500Y-114307314D01*
X96966392Y-114193186D01*
X97000500Y-114065892D01*
X97000500Y-113934108D01*
X96966392Y-113806814D01*
X96900500Y-113692686D01*
X96807314Y-113599500D01*
X96748989Y-113565826D01*
X96693187Y-113533608D01*
X96629539Y-113516554D01*
X96565892Y-113499500D01*
X96434108Y-113499500D01*
X96306812Y-113533608D01*
X96192686Y-113599500D01*
X96192683Y-113599502D01*
X96099502Y-113692683D01*
X96099498Y-113692689D01*
X96067996Y-113747250D01*
X96017428Y-113795465D01*
X95948821Y-113808686D01*
X95883956Y-113782717D01*
X95872929Y-113772929D01*
X95850000Y-113750000D01*
X94933012Y-113750000D01*
X94965925Y-113692993D01*
X95000000Y-113565826D01*
X95000000Y-113434174D01*
X94965925Y-113307007D01*
X94933012Y-113250000D01*
X95850000Y-113250000D01*
X95850000Y-112624000D01*
X95869685Y-112556961D01*
X95922489Y-112511206D01*
X95974000Y-112500000D01*
X114376000Y-112500000D01*
X114443039Y-112519685D01*
X114488794Y-112572489D01*
X114500000Y-112624000D01*
X114500000Y-160376000D01*
X114480315Y-160443039D01*
X114427511Y-160488794D01*
X114376000Y-160500000D01*
X66624000Y-160500000D01*
X66556961Y-160480315D01*
X66511206Y-160427511D01*
X66500000Y-160376000D01*
X66500000Y-159640939D01*
X66519685Y-159573900D01*
X66572489Y-159528145D01*
X66641647Y-159518201D01*
X66686001Y-159533552D01*
X66883524Y-159647593D01*
X66883528Y-159647595D01*
X67125744Y-159747924D01*
X67378979Y-159815777D01*
X67378990Y-159815779D01*
X67638905Y-159849999D01*
X67638920Y-159850000D01*
X67901080Y-159850000D01*
X67901094Y-159849999D01*
X68161009Y-159815779D01*
X68161020Y-159815777D01*
X68414255Y-159747924D01*
X68656471Y-159647595D01*
X68656482Y-159647590D01*
X68883516Y-159516511D01*
X68883534Y-159516499D01*
X68996365Y-159429919D01*
X68996365Y-159429917D01*
X68055757Y-158489309D01*
X68101574Y-158470332D01*
X68216224Y-158393726D01*
X68313726Y-158296224D01*
X68390332Y-158181574D01*
X68409309Y-158135757D01*
X69349917Y-159076365D01*
X69349919Y-159076365D01*
X69436499Y-158963534D01*
X69436511Y-158963516D01*
X69567590Y-158736482D01*
X69567595Y-158736471D01*
X69667924Y-158494255D01*
X69735777Y-158241020D01*
X69735779Y-158241009D01*
X69769999Y-157981094D01*
X69770000Y-157981080D01*
X69770000Y-157934108D01*
X74499500Y-157934108D01*
X74499500Y-158065891D01*
X74533608Y-158193187D01*
X74561219Y-158241009D01*
X74599500Y-158307314D01*
X74692686Y-158400500D01*
X74806814Y-158466392D01*
X74934108Y-158500500D01*
X74934110Y-158500500D01*
X75065890Y-158500500D01*
X75065892Y-158500500D01*
X75193186Y-158466392D01*
X75307314Y-158400500D01*
X75400500Y-158307314D01*
X75466392Y-158193186D01*
X75500500Y-158065892D01*
X75500500Y-157934108D01*
X75466392Y-157806814D01*
X75426979Y-157738549D01*
X82299500Y-157738549D01*
X82299500Y-157961450D01*
X82299501Y-157961466D01*
X82328594Y-158182452D01*
X82328595Y-158182457D01*
X82328596Y-158182463D01*
X82386290Y-158397780D01*
X82386293Y-158397790D01*
X82452371Y-158557316D01*
X82471595Y-158603726D01*
X82583052Y-158796774D01*
X82583057Y-158796780D01*
X82583058Y-158796782D01*
X82718751Y-158973622D01*
X82718757Y-158973629D01*
X82876370Y-159131242D01*
X82876376Y-159131247D01*
X83053226Y-159266948D01*
X83246274Y-159378405D01*
X83452219Y-159463710D01*
X83667537Y-159521404D01*
X83888543Y-159550500D01*
X83888550Y-159550500D01*
X84111450Y-159550500D01*
X84111457Y-159550500D01*
X84332463Y-159521404D01*
X84547781Y-159463710D01*
X84753726Y-159378405D01*
X84946774Y-159266948D01*
X85123624Y-159131247D01*
X85281247Y-158973624D01*
X85416948Y-158796774D01*
X85528405Y-158603726D01*
X85613710Y-158397781D01*
X85670963Y-158184108D01*
X86249500Y-158184108D01*
X86249500Y-158315891D01*
X86283608Y-158443187D01*
X86313093Y-158494255D01*
X86349500Y-158557314D01*
X86442686Y-158650500D01*
X86556814Y-158716392D01*
X86684108Y-158750500D01*
X86684110Y-158750500D01*
X86815890Y-158750500D01*
X86815892Y-158750500D01*
X86943186Y-158716392D01*
X87057314Y-158650500D01*
X87150500Y-158557314D01*
X87216392Y-158443186D01*
X87250500Y-158315892D01*
X87250500Y-158184108D01*
X87216392Y-158056814D01*
X87214872Y-158054182D01*
X87207563Y-158041521D01*
X87150500Y-157942686D01*
X87057314Y-157849500D01*
X86983380Y-157806814D01*
X86943187Y-157783608D01*
X86879539Y-157766554D01*
X86815892Y-157749500D01*
X86684108Y-157749500D01*
X86556812Y-157783608D01*
X86442686Y-157849500D01*
X86442683Y-157849502D01*
X86349502Y-157942683D01*
X86349500Y-157942686D01*
X86283608Y-158056812D01*
X86249500Y-158184108D01*
X85670963Y-158184108D01*
X85671404Y-158182463D01*
X85700500Y-157961457D01*
X85700500Y-157738543D01*
X85671404Y-157517537D01*
X85613710Y-157302219D01*
X85528405Y-157096274D01*
X85416948Y-156903226D01*
X85296003Y-156745606D01*
X85281248Y-156726377D01*
X85281242Y-156726370D01*
X85123629Y-156568757D01*
X85123622Y-156568751D01*
X85022544Y-156491192D01*
X84946782Y-156433058D01*
X84946780Y-156433057D01*
X84946774Y-156433052D01*
X84885512Y-156397682D01*
X89450000Y-156397682D01*
X89450000Y-156602317D01*
X89482009Y-156804417D01*
X89545244Y-156999031D01*
X89638141Y-157181350D01*
X89638147Y-157181359D01*
X89670523Y-157225921D01*
X89670524Y-157225922D01*
X90350000Y-156546446D01*
X90350000Y-156552661D01*
X90377259Y-156654394D01*
X90429920Y-156745606D01*
X90504394Y-156820080D01*
X90595606Y-156872741D01*
X90697339Y-156900000D01*
X90703553Y-156900000D01*
X90024076Y-157579474D01*
X90068650Y-157611859D01*
X90250968Y-157704755D01*
X90445582Y-157767990D01*
X90647683Y-157800000D01*
X90852317Y-157800000D01*
X91054417Y-157767990D01*
X91249031Y-157704755D01*
X91431349Y-157611859D01*
X91475921Y-157579474D01*
X90796447Y-156900000D01*
X90802661Y-156900000D01*
X90904394Y-156872741D01*
X90995606Y-156820080D01*
X91070080Y-156745606D01*
X91122741Y-156654394D01*
X91150000Y-156552661D01*
X91150000Y-156546447D01*
X91829474Y-157225921D01*
X91861859Y-157181349D01*
X91954755Y-156999031D01*
X92017990Y-156804417D01*
X92050000Y-156602317D01*
X92050000Y-156598543D01*
X94749499Y-156598543D01*
X94787947Y-156791829D01*
X94787950Y-156791839D01*
X94863364Y-156973907D01*
X94863371Y-156973920D01*
X94972860Y-157137781D01*
X94972863Y-157137785D01*
X95112214Y-157277136D01*
X95112218Y-157277139D01*
X95276079Y-157386628D01*
X95276092Y-157386635D01*
X95450748Y-157458979D01*
X95458165Y-157462051D01*
X95458169Y-157462051D01*
X95458170Y-157462052D01*
X95651456Y-157500500D01*
X95651459Y-157500500D01*
X95848543Y-157500500D01*
X95978582Y-157474632D01*
X96041835Y-157462051D01*
X96223914Y-157386632D01*
X96387782Y-157277139D01*
X96527139Y-157137782D01*
X96636632Y-156973914D01*
X96712051Y-156791835D01*
X96750500Y-156598541D01*
X96750500Y-156401459D01*
X96750500Y-156401456D01*
X96712052Y-156208170D01*
X96712051Y-156208169D01*
X96712051Y-156208165D01*
X96699803Y-156178596D01*
X96636635Y-156026092D01*
X96636628Y-156026079D01*
X96527139Y-155862218D01*
X96527136Y-155862214D01*
X96387785Y-155722863D01*
X96387781Y-155722860D01*
X96223920Y-155613371D01*
X96223907Y-155613364D01*
X96041839Y-155537950D01*
X96041829Y-155537947D01*
X95848543Y-155499500D01*
X95848541Y-155499500D01*
X95651459Y-155499500D01*
X95651457Y-155499500D01*
X95458170Y-155537947D01*
X95458160Y-155537950D01*
X95276092Y-155613364D01*
X95276079Y-155613371D01*
X95112218Y-155722860D01*
X95112214Y-155722863D01*
X94972863Y-155862214D01*
X94972860Y-155862218D01*
X94863371Y-156026079D01*
X94863364Y-156026092D01*
X94787950Y-156208160D01*
X94787947Y-156208170D01*
X94749500Y-156401456D01*
X94749500Y-156401459D01*
X94749500Y-156598541D01*
X94749500Y-156598543D01*
X94749499Y-156598543D01*
X92050000Y-156598543D01*
X92050000Y-156397682D01*
X92017990Y-156195582D01*
X91954755Y-156000968D01*
X91861859Y-155818650D01*
X91829474Y-155774077D01*
X91829474Y-155774076D01*
X91150000Y-156453551D01*
X91150000Y-156447339D01*
X91122741Y-156345606D01*
X91070080Y-156254394D01*
X90995606Y-156179920D01*
X90904394Y-156127259D01*
X90802661Y-156100000D01*
X90796446Y-156100000D01*
X91475922Y-155420524D01*
X91475921Y-155420523D01*
X91431359Y-155388147D01*
X91431350Y-155388141D01*
X91249031Y-155295244D01*
X91054417Y-155232009D01*
X90852317Y-155200000D01*
X90647683Y-155200000D01*
X90445582Y-155232009D01*
X90250968Y-155295244D01*
X90068644Y-155388143D01*
X90024077Y-155420523D01*
X90024077Y-155420524D01*
X90703554Y-156100000D01*
X90697339Y-156100000D01*
X90595606Y-156127259D01*
X90504394Y-156179920D01*
X90429920Y-156254394D01*
X90377259Y-156345606D01*
X90350000Y-156447339D01*
X90350000Y-156453553D01*
X89670524Y-155774077D01*
X89670523Y-155774077D01*
X89638143Y-155818644D01*
X89545244Y-156000968D01*
X89482009Y-156195582D01*
X89450000Y-156397682D01*
X84885512Y-156397682D01*
X84753726Y-156321595D01*
X84753722Y-156321593D01*
X84547790Y-156236293D01*
X84547783Y-156236291D01*
X84547781Y-156236290D01*
X84332463Y-156178596D01*
X84332457Y-156178595D01*
X84332452Y-156178594D01*
X84111466Y-156149501D01*
X84111463Y-156149500D01*
X84111457Y-156149500D01*
X83888543Y-156149500D01*
X83888537Y-156149500D01*
X83888533Y-156149501D01*
X83667547Y-156178594D01*
X83667540Y-156178595D01*
X83667537Y-156178596D01*
X83557165Y-156208170D01*
X83452219Y-156236290D01*
X83452209Y-156236293D01*
X83246277Y-156321593D01*
X83246273Y-156321595D01*
X83053226Y-156433052D01*
X83053217Y-156433058D01*
X82876377Y-156568751D01*
X82876370Y-156568757D01*
X82718757Y-156726370D01*
X82718751Y-156726377D01*
X82583058Y-156903217D01*
X82583052Y-156903226D01*
X82471595Y-157096273D01*
X82471593Y-157096277D01*
X82386293Y-157302209D01*
X82386290Y-157302219D01*
X82343464Y-157462051D01*
X82328597Y-157517534D01*
X82328594Y-157517547D01*
X82299501Y-157738533D01*
X82299500Y-157738549D01*
X75426979Y-157738549D01*
X75400500Y-157692686D01*
X75307314Y-157599500D01*
X75250250Y-157566554D01*
X75193187Y-157533608D01*
X75129539Y-157516554D01*
X75065892Y-157499500D01*
X74934108Y-157499500D01*
X74806812Y-157533608D01*
X74692686Y-157599500D01*
X74692683Y-157599502D01*
X74599502Y-157692683D01*
X74599500Y-157692686D01*
X74533608Y-157806812D01*
X74499500Y-157934108D01*
X69770000Y-157934108D01*
X69770000Y-157718919D01*
X69769999Y-157718905D01*
X69735779Y-157458990D01*
X69735777Y-157458979D01*
X69667924Y-157205744D01*
X69567595Y-156963528D01*
X69567590Y-156963517D01*
X69436511Y-156736483D01*
X69436505Y-156736475D01*
X69349918Y-156623633D01*
X69349917Y-156623633D01*
X68409309Y-157564242D01*
X68390332Y-157518426D01*
X68313726Y-157403776D01*
X68216224Y-157306274D01*
X68101574Y-157229668D01*
X68055755Y-157210689D01*
X68996365Y-156270080D01*
X68883524Y-156183494D01*
X68883516Y-156183488D01*
X68656482Y-156052409D01*
X68656471Y-156052404D01*
X68414255Y-155952075D01*
X68161020Y-155884222D01*
X68161009Y-155884220D01*
X67901094Y-155850000D01*
X67638905Y-155850000D01*
X67378990Y-155884220D01*
X67378979Y-155884222D01*
X67125744Y-155952075D01*
X66883528Y-156052404D01*
X66883517Y-156052409D01*
X66686000Y-156166446D01*
X66618100Y-156182919D01*
X66552073Y-156160066D01*
X66508882Y-156105145D01*
X66500000Y-156059059D01*
X66500000Y-152920375D01*
X66519685Y-152853336D01*
X66572489Y-152807581D01*
X66641647Y-152797637D01*
X66699484Y-152821998D01*
X66823226Y-152916948D01*
X67016274Y-153028405D01*
X67222219Y-153113710D01*
X67437537Y-153171404D01*
X67658543Y-153200500D01*
X67658550Y-153200500D01*
X67881450Y-153200500D01*
X67881457Y-153200500D01*
X68102463Y-153171404D01*
X68317781Y-153113710D01*
X68523726Y-153028405D01*
X68716774Y-152916948D01*
X68893624Y-152781247D01*
X69051247Y-152623624D01*
X69186948Y-152446774D01*
X69298405Y-152253726D01*
X69383710Y-152047781D01*
X69441404Y-151832463D01*
X69470500Y-151611457D01*
X69470500Y-151388549D01*
X82299500Y-151388549D01*
X82299500Y-151611450D01*
X82299501Y-151611466D01*
X82328594Y-151832452D01*
X82328595Y-151832457D01*
X82328596Y-151832463D01*
X82366499Y-151973920D01*
X82386290Y-152047780D01*
X82386293Y-152047790D01*
X82471593Y-152253722D01*
X82471595Y-152253726D01*
X82583052Y-152446774D01*
X82583057Y-152446780D01*
X82583058Y-152446782D01*
X82718751Y-152623622D01*
X82718757Y-152623629D01*
X82876370Y-152781242D01*
X82876376Y-152781247D01*
X83053226Y-152916948D01*
X83246274Y-153028405D01*
X83452219Y-153113710D01*
X83667537Y-153171404D01*
X83888543Y-153200500D01*
X83888550Y-153200500D01*
X84111450Y-153200500D01*
X84111457Y-153200500D01*
X84332463Y-153171404D01*
X84547781Y-153113710D01*
X84753726Y-153028405D01*
X84946774Y-152916948D01*
X85123624Y-152781247D01*
X85281247Y-152623624D01*
X85416948Y-152446774D01*
X85528405Y-152253726D01*
X85613710Y-152047781D01*
X85671404Y-151832463D01*
X85700500Y-151611457D01*
X85700500Y-151598543D01*
X89749499Y-151598543D01*
X89787947Y-151791829D01*
X89787950Y-151791839D01*
X89863364Y-151973907D01*
X89863371Y-151973920D01*
X89972860Y-152137781D01*
X89972863Y-152137785D01*
X90112214Y-152277136D01*
X90112218Y-152277139D01*
X90276079Y-152386628D01*
X90276092Y-152386635D01*
X90421302Y-152446782D01*
X90458165Y-152462051D01*
X90458169Y-152462051D01*
X90458170Y-152462052D01*
X90651456Y-152500500D01*
X90651459Y-152500500D01*
X90848543Y-152500500D01*
X90978582Y-152474632D01*
X91041835Y-152462051D01*
X91223914Y-152386632D01*
X91387782Y-152277139D01*
X91527139Y-152137782D01*
X91636632Y-151973914D01*
X91712051Y-151791835D01*
X91747931Y-151611457D01*
X91750500Y-151598543D01*
X94749499Y-151598543D01*
X94787947Y-151791829D01*
X94787950Y-151791839D01*
X94863364Y-151973907D01*
X94863371Y-151973920D01*
X94972860Y-152137781D01*
X94972863Y-152137785D01*
X95112214Y-152277136D01*
X95112218Y-152277139D01*
X95276079Y-152386628D01*
X95276092Y-152386635D01*
X95421302Y-152446782D01*
X95458165Y-152462051D01*
X95458169Y-152462051D01*
X95458170Y-152462052D01*
X95651456Y-152500500D01*
X95651459Y-152500500D01*
X95848543Y-152500500D01*
X95978582Y-152474632D01*
X96041835Y-152462051D01*
X96223914Y-152386632D01*
X96387782Y-152277139D01*
X96527139Y-152137782D01*
X96636632Y-151973914D01*
X96712051Y-151791835D01*
X96747931Y-151611457D01*
X96750500Y-151598543D01*
X96750500Y-151401456D01*
X96712052Y-151208170D01*
X96712051Y-151208169D01*
X96712051Y-151208165D01*
X96695227Y-151167547D01*
X96636635Y-151026092D01*
X96636628Y-151026079D01*
X96527139Y-150862218D01*
X96527136Y-150862214D01*
X96387785Y-150722863D01*
X96387781Y-150722860D01*
X96223920Y-150613371D01*
X96223907Y-150613364D01*
X96041839Y-150537950D01*
X96041829Y-150537947D01*
X95848543Y-150499500D01*
X95848541Y-150499500D01*
X95651459Y-150499500D01*
X95651457Y-150499500D01*
X95458170Y-150537947D01*
X95458160Y-150537950D01*
X95276092Y-150613364D01*
X95276079Y-150613371D01*
X95112218Y-150722860D01*
X95112214Y-150722863D01*
X94972863Y-150862214D01*
X94972860Y-150862218D01*
X94863371Y-151026079D01*
X94863364Y-151026092D01*
X94787950Y-151208160D01*
X94787947Y-151208170D01*
X94749500Y-151401456D01*
X94749500Y-151401459D01*
X94749500Y-151598541D01*
X94749500Y-151598543D01*
X94749499Y-151598543D01*
X91750500Y-151598543D01*
X91750500Y-151401456D01*
X91712052Y-151208170D01*
X91712051Y-151208169D01*
X91712051Y-151208165D01*
X91695227Y-151167547D01*
X91636635Y-151026092D01*
X91636628Y-151026079D01*
X91571649Y-150928832D01*
X91571648Y-150928830D01*
X91531048Y-150868068D01*
X93565540Y-150868068D01*
X93565540Y-150999852D01*
X93572569Y-151026086D01*
X93599648Y-151127147D01*
X93632594Y-151184210D01*
X93665540Y-151241274D01*
X93758726Y-151334460D01*
X93872854Y-151400352D01*
X94000148Y-151434460D01*
X94000150Y-151434460D01*
X94131930Y-151434460D01*
X94131932Y-151434460D01*
X94259226Y-151400352D01*
X94373354Y-151334460D01*
X94466540Y-151241274D01*
X94532432Y-151127146D01*
X94566540Y-150999852D01*
X94566540Y-150868068D01*
X94532432Y-150740774D01*
X94466540Y-150626646D01*
X94373354Y-150533460D01*
X94314534Y-150499500D01*
X94259227Y-150467568D01*
X94229443Y-150459587D01*
X94131932Y-150433460D01*
X94000148Y-150433460D01*
X93872852Y-150467568D01*
X93758726Y-150533460D01*
X93758723Y-150533462D01*
X93665542Y-150626643D01*
X93665540Y-150626646D01*
X93599648Y-150740772D01*
X93567109Y-150862214D01*
X93565540Y-150868068D01*
X91531048Y-150868068D01*
X91527142Y-150862222D01*
X91527136Y-150862214D01*
X91387785Y-150722863D01*
X91387781Y-150722860D01*
X91223920Y-150613371D01*
X91223907Y-150613364D01*
X91041839Y-150537950D01*
X91041829Y-150537947D01*
X90848543Y-150499500D01*
X90848541Y-150499500D01*
X90651459Y-150499500D01*
X90651457Y-150499500D01*
X90458170Y-150537947D01*
X90458160Y-150537950D01*
X90276092Y-150613364D01*
X90276079Y-150613371D01*
X90112218Y-150722860D01*
X90112214Y-150722863D01*
X89972863Y-150862214D01*
X89972860Y-150862218D01*
X89863371Y-151026079D01*
X89863364Y-151026092D01*
X89787950Y-151208160D01*
X89787947Y-151208170D01*
X89749500Y-151401456D01*
X89749500Y-151401459D01*
X89749500Y-151598541D01*
X89749500Y-151598543D01*
X89749499Y-151598543D01*
X85700500Y-151598543D01*
X85700500Y-151388543D01*
X85671404Y-151167537D01*
X85613710Y-150952219D01*
X85528405Y-150746274D01*
X85416948Y-150553226D01*
X85281247Y-150376376D01*
X85281242Y-150376370D01*
X85123629Y-150218757D01*
X85123622Y-150218751D01*
X84946782Y-150083058D01*
X84946780Y-150083057D01*
X84946774Y-150083052D01*
X84860718Y-150033367D01*
X84860717Y-150033366D01*
X84753733Y-149971598D01*
X84753722Y-149971593D01*
X84663225Y-149934108D01*
X88999500Y-149934108D01*
X88999500Y-150065892D01*
X89016554Y-150129539D01*
X89033608Y-150193187D01*
X89039386Y-150203194D01*
X89099500Y-150307314D01*
X89192686Y-150400500D01*
X89291521Y-150457563D01*
X89305944Y-150465890D01*
X89306814Y-150466392D01*
X89434108Y-150500500D01*
X89434110Y-150500500D01*
X89565890Y-150500500D01*
X89565892Y-150500500D01*
X89693186Y-150466392D01*
X89807314Y-150400500D01*
X89873706Y-150334108D01*
X109499500Y-150334108D01*
X109499500Y-150465891D01*
X109533608Y-150593187D01*
X109552924Y-150626643D01*
X109599500Y-150707314D01*
X109692686Y-150800500D01*
X109791521Y-150857563D01*
X109799577Y-150862214D01*
X109806814Y-150866392D01*
X109934108Y-150900500D01*
X109934110Y-150900500D01*
X110065890Y-150900500D01*
X110065892Y-150900500D01*
X110193186Y-150866392D01*
X110307314Y-150800500D01*
X110400500Y-150707314D01*
X110466392Y-150593186D01*
X110500500Y-150465892D01*
X110500500Y-150334108D01*
X110466392Y-150206814D01*
X110400500Y-150092686D01*
X110307314Y-149999500D01*
X110250250Y-149966554D01*
X110193187Y-149933608D01*
X110129539Y-149916554D01*
X110065892Y-149899500D01*
X109934108Y-149899500D01*
X109806812Y-149933608D01*
X109692686Y-149999500D01*
X109692683Y-149999502D01*
X109599502Y-150092683D01*
X109599500Y-150092686D01*
X109533608Y-150206812D01*
X109499500Y-150334108D01*
X89873706Y-150334108D01*
X89900500Y-150307314D01*
X89966392Y-150193186D01*
X90000500Y-150065892D01*
X90000500Y-149934108D01*
X89966392Y-149806814D01*
X89900500Y-149692686D01*
X89807314Y-149599500D01*
X89750250Y-149566554D01*
X89693187Y-149533608D01*
X89629539Y-149516554D01*
X89565892Y-149499500D01*
X89434108Y-149499500D01*
X89306812Y-149533608D01*
X89192686Y-149599500D01*
X89192683Y-149599502D01*
X89099502Y-149692683D01*
X89099500Y-149692686D01*
X89033608Y-149806812D01*
X89012312Y-149886293D01*
X88999500Y-149934108D01*
X84663225Y-149934108D01*
X84547790Y-149886293D01*
X84547783Y-149886291D01*
X84547781Y-149886290D01*
X84332463Y-149828596D01*
X84332457Y-149828595D01*
X84332452Y-149828594D01*
X84111466Y-149799501D01*
X84111463Y-149799500D01*
X84111457Y-149799500D01*
X83888543Y-149799500D01*
X83888537Y-149799500D01*
X83888533Y-149799501D01*
X83667547Y-149828594D01*
X83667540Y-149828595D01*
X83667537Y-149828596D01*
X83452219Y-149886290D01*
X83452209Y-149886293D01*
X83246277Y-149971593D01*
X83246273Y-149971595D01*
X83053226Y-150083052D01*
X83053217Y-150083058D01*
X82876377Y-150218751D01*
X82876370Y-150218757D01*
X82718757Y-150376370D01*
X82718751Y-150376377D01*
X82583058Y-150553217D01*
X82583052Y-150553226D01*
X82471595Y-150746273D01*
X82471593Y-150746277D01*
X82386293Y-150952209D01*
X82386290Y-150952219D01*
X82339419Y-151127147D01*
X82328597Y-151167534D01*
X82328594Y-151167547D01*
X82299501Y-151388533D01*
X82299500Y-151388549D01*
X69470500Y-151388549D01*
X69470500Y-151388543D01*
X69441404Y-151167537D01*
X69383710Y-150952219D01*
X69298405Y-150746274D01*
X69186948Y-150553226D01*
X69051247Y-150376376D01*
X69051242Y-150376370D01*
X68893629Y-150218757D01*
X68893622Y-150218751D01*
X68716782Y-150083058D01*
X68716780Y-150083057D01*
X68716774Y-150083052D01*
X68523726Y-149971595D01*
X68523722Y-149971593D01*
X68317790Y-149886293D01*
X68317783Y-149886291D01*
X68317781Y-149886290D01*
X68102463Y-149828596D01*
X68102457Y-149828595D01*
X68102452Y-149828594D01*
X67881466Y-149799501D01*
X67881463Y-149799500D01*
X67881457Y-149799500D01*
X67658543Y-149799500D01*
X67658537Y-149799500D01*
X67658533Y-149799501D01*
X67437547Y-149828594D01*
X67437540Y-149828595D01*
X67437537Y-149828596D01*
X67222219Y-149886290D01*
X67222209Y-149886293D01*
X67016277Y-149971593D01*
X67016273Y-149971595D01*
X66823226Y-150083052D01*
X66823217Y-150083058D01*
X66699486Y-150178000D01*
X66634317Y-150203194D01*
X66565872Y-150189155D01*
X66515882Y-150140341D01*
X66500000Y-150079624D01*
X66500000Y-148934108D01*
X81749500Y-148934108D01*
X81749500Y-149065892D01*
X81766554Y-149129539D01*
X81783608Y-149193187D01*
X81797005Y-149216391D01*
X81849500Y-149307314D01*
X81942686Y-149400500D01*
X82056814Y-149466392D01*
X82184108Y-149500500D01*
X82184110Y-149500500D01*
X82315890Y-149500500D01*
X82315892Y-149500500D01*
X82443186Y-149466392D01*
X82557314Y-149400500D01*
X82650500Y-149307314D01*
X82716392Y-149193186D01*
X82750500Y-149065892D01*
X82750500Y-148934108D01*
X82716392Y-148806814D01*
X82650500Y-148692686D01*
X82641922Y-148684108D01*
X93749500Y-148684108D01*
X93749500Y-148815891D01*
X93783608Y-148943187D01*
X93812476Y-148993186D01*
X93849500Y-149057314D01*
X93942686Y-149150500D01*
X94056814Y-149216392D01*
X94184108Y-149250500D01*
X94184110Y-149250500D01*
X94315890Y-149250500D01*
X94315892Y-149250500D01*
X94443186Y-149216392D01*
X94557314Y-149150500D01*
X94650500Y-149057314D01*
X94716392Y-148943186D01*
X94750500Y-148815892D01*
X94750500Y-148684108D01*
X99749500Y-148684108D01*
X99749500Y-148815891D01*
X99783608Y-148943187D01*
X99812476Y-148993186D01*
X99849500Y-149057314D01*
X99942686Y-149150500D01*
X100056814Y-149216392D01*
X100184108Y-149250500D01*
X100184110Y-149250500D01*
X100315890Y-149250500D01*
X100315892Y-149250500D01*
X100443186Y-149216392D01*
X100557314Y-149150500D01*
X100650500Y-149057314D01*
X100716392Y-148943186D01*
X100750500Y-148815892D01*
X100750500Y-148734108D01*
X103499500Y-148734108D01*
X103499500Y-148865891D01*
X103533608Y-148993187D01*
X103566554Y-149050250D01*
X103599500Y-149107314D01*
X103692686Y-149200500D01*
X103806814Y-149266392D01*
X103934108Y-149300500D01*
X103934110Y-149300500D01*
X104065890Y-149300500D01*
X104065892Y-149300500D01*
X104193186Y-149266392D01*
X104307314Y-149200500D01*
X104400500Y-149107314D01*
X104466392Y-148993186D01*
X104500500Y-148865892D01*
X104500500Y-148734108D01*
X104466392Y-148606814D01*
X104400500Y-148492686D01*
X104307314Y-148399500D01*
X104250250Y-148366554D01*
X104193187Y-148333608D01*
X104129539Y-148316554D01*
X104065892Y-148299500D01*
X103934108Y-148299500D01*
X103806812Y-148333608D01*
X103692686Y-148399500D01*
X103692683Y-148399502D01*
X103599502Y-148492683D01*
X103599500Y-148492686D01*
X103533608Y-148606812D01*
X103499500Y-148734108D01*
X100750500Y-148734108D01*
X100750500Y-148684108D01*
X100716392Y-148556814D01*
X100650500Y-148442686D01*
X100557314Y-148349500D01*
X100500250Y-148316554D01*
X100443187Y-148283608D01*
X100379539Y-148266554D01*
X100315892Y-148249500D01*
X100184108Y-148249500D01*
X100056812Y-148283608D01*
X99942686Y-148349500D01*
X99942683Y-148349502D01*
X99849502Y-148442683D01*
X99849500Y-148442686D01*
X99783608Y-148556812D01*
X99749500Y-148684108D01*
X94750500Y-148684108D01*
X94716392Y-148556814D01*
X94650500Y-148442686D01*
X94557314Y-148349500D01*
X94500250Y-148316554D01*
X94443187Y-148283608D01*
X94379539Y-148266554D01*
X94315892Y-148249500D01*
X94184108Y-148249500D01*
X94056812Y-148283608D01*
X93942686Y-148349500D01*
X93942683Y-148349502D01*
X93849502Y-148442683D01*
X93849500Y-148442686D01*
X93783608Y-148556812D01*
X93749500Y-148684108D01*
X82641922Y-148684108D01*
X82557314Y-148599500D01*
X82483380Y-148556814D01*
X82443187Y-148533608D01*
X82379539Y-148516554D01*
X82315892Y-148499500D01*
X82184108Y-148499500D01*
X82056812Y-148533608D01*
X81942686Y-148599500D01*
X81942683Y-148599502D01*
X81849502Y-148692683D01*
X81849500Y-148692686D01*
X81783608Y-148806812D01*
X81767778Y-148865892D01*
X81749500Y-148934108D01*
X66500000Y-148934108D01*
X66500000Y-147684108D01*
X70299500Y-147684108D01*
X70299500Y-147815891D01*
X70333608Y-147943187D01*
X70347005Y-147966391D01*
X70399500Y-148057314D01*
X70492686Y-148150500D01*
X70606814Y-148216392D01*
X70734108Y-148250500D01*
X70734110Y-148250500D01*
X70865890Y-148250500D01*
X70865892Y-148250500D01*
X70993186Y-148216392D01*
X71107314Y-148150500D01*
X71200500Y-148057314D01*
X71266392Y-147943186D01*
X71268824Y-147934108D01*
X97249500Y-147934108D01*
X97249500Y-148065891D01*
X97283608Y-148193187D01*
X97297005Y-148216391D01*
X97349500Y-148307314D01*
X97442686Y-148400500D01*
X97556814Y-148466392D01*
X97684108Y-148500500D01*
X97684110Y-148500500D01*
X97815890Y-148500500D01*
X97815892Y-148500500D01*
X97943186Y-148466392D01*
X98057314Y-148400500D01*
X98150500Y-148307314D01*
X98216392Y-148193186D01*
X98250500Y-148065892D01*
X98250500Y-147934108D01*
X98216392Y-147806814D01*
X98150500Y-147692686D01*
X98057314Y-147599500D01*
X97943186Y-147533608D01*
X97815892Y-147499500D01*
X97684108Y-147499500D01*
X97556812Y-147533608D01*
X97442686Y-147599500D01*
X97442683Y-147599502D01*
X97349502Y-147692683D01*
X97349500Y-147692686D01*
X97283608Y-147806812D01*
X97249500Y-147934108D01*
X71268824Y-147934108D01*
X71300500Y-147815892D01*
X71300500Y-147684108D01*
X71266392Y-147556814D01*
X71200500Y-147442686D01*
X71191922Y-147434108D01*
X103999500Y-147434108D01*
X103999500Y-147565892D01*
X104013695Y-147618868D01*
X104033608Y-147693187D01*
X104066554Y-147750250D01*
X104099500Y-147807314D01*
X104192686Y-147900500D01*
X104306814Y-147966392D01*
X104434108Y-148000500D01*
X104434110Y-148000500D01*
X104565890Y-148000500D01*
X104565892Y-148000500D01*
X104693186Y-147966392D01*
X104807314Y-147900500D01*
X104900500Y-147807314D01*
X104966392Y-147693186D01*
X104982222Y-147634108D01*
X107999500Y-147634108D01*
X107999500Y-147765892D01*
X108012897Y-147815890D01*
X108033608Y-147893187D01*
X108062476Y-147943186D01*
X108099500Y-148007314D01*
X108192686Y-148100500D01*
X108306814Y-148166392D01*
X108434108Y-148200500D01*
X108434110Y-148200500D01*
X108565890Y-148200500D01*
X108565892Y-148200500D01*
X108693186Y-148166392D01*
X108807314Y-148100500D01*
X108900500Y-148007314D01*
X108966392Y-147893186D01*
X109000500Y-147765892D01*
X109000500Y-147634108D01*
X108966392Y-147506814D01*
X108900500Y-147392686D01*
X108807314Y-147299500D01*
X108720712Y-147249500D01*
X108693187Y-147233608D01*
X108629539Y-147216554D01*
X108565892Y-147199500D01*
X108434108Y-147199500D01*
X108306812Y-147233608D01*
X108192686Y-147299500D01*
X108192683Y-147299502D01*
X108099502Y-147392683D01*
X108099500Y-147392686D01*
X108033608Y-147506812D01*
X108000467Y-147630499D01*
X107999500Y-147634108D01*
X104982222Y-147634108D01*
X105000500Y-147565892D01*
X105000500Y-147434108D01*
X104966392Y-147306814D01*
X104900500Y-147192686D01*
X104807314Y-147099500D01*
X104750250Y-147066554D01*
X104693187Y-147033608D01*
X104629539Y-147016554D01*
X104565892Y-146999500D01*
X104434108Y-146999500D01*
X104306812Y-147033608D01*
X104192686Y-147099500D01*
X104192683Y-147099502D01*
X104099502Y-147192683D01*
X104099500Y-147192686D01*
X104033608Y-147306812D01*
X104022170Y-147349500D01*
X103999500Y-147434108D01*
X71191922Y-147434108D01*
X71107314Y-147349500D01*
X71033380Y-147306814D01*
X70993187Y-147283608D01*
X70929539Y-147266554D01*
X70865892Y-147249500D01*
X70734108Y-147249500D01*
X70606812Y-147283608D01*
X70492686Y-147349500D01*
X70492683Y-147349502D01*
X70399502Y-147442683D01*
X70399500Y-147442686D01*
X70333608Y-147556812D01*
X70299500Y-147684108D01*
X66500000Y-147684108D01*
X66500000Y-146570375D01*
X66519685Y-146503336D01*
X66572489Y-146457581D01*
X66641647Y-146447637D01*
X66699484Y-146471998D01*
X66823226Y-146566948D01*
X67016274Y-146678405D01*
X67222219Y-146763710D01*
X67437537Y-146821404D01*
X67658543Y-146850500D01*
X67658550Y-146850500D01*
X67881450Y-146850500D01*
X67881457Y-146850500D01*
X68102463Y-146821404D01*
X68317781Y-146763710D01*
X68523726Y-146678405D01*
X68716774Y-146566948D01*
X68893624Y-146431247D01*
X69051247Y-146273624D01*
X69186948Y-146096774D01*
X69298405Y-145903726D01*
X69383710Y-145697781D01*
X69387374Y-145684108D01*
X80599500Y-145684108D01*
X80599500Y-145815891D01*
X80633608Y-145943187D01*
X80662469Y-145993175D01*
X80699500Y-146057314D01*
X80792686Y-146150500D01*
X80906814Y-146216392D01*
X81034108Y-146250500D01*
X81034110Y-146250500D01*
X81165890Y-146250500D01*
X81165892Y-146250500D01*
X81293186Y-146216392D01*
X81407314Y-146150500D01*
X81500500Y-146057314D01*
X81566392Y-145943186D01*
X81600500Y-145815892D01*
X81600500Y-145684108D01*
X81566392Y-145556814D01*
X81500500Y-145442686D01*
X81407314Y-145349500D01*
X81350250Y-145316554D01*
X81293187Y-145283608D01*
X81210550Y-145261466D01*
X81165892Y-145249500D01*
X81034108Y-145249500D01*
X80906812Y-145283608D01*
X80792686Y-145349500D01*
X80792683Y-145349502D01*
X80699502Y-145442683D01*
X80699500Y-145442686D01*
X80633608Y-145556812D01*
X80599500Y-145684108D01*
X69387374Y-145684108D01*
X69441404Y-145482463D01*
X69470500Y-145261457D01*
X69470500Y-145038549D01*
X82299500Y-145038549D01*
X82299500Y-145261450D01*
X82299501Y-145261466D01*
X82328594Y-145482452D01*
X82328595Y-145482457D01*
X82328596Y-145482463D01*
X82382627Y-145684110D01*
X82386290Y-145697780D01*
X82386293Y-145697790D01*
X82471593Y-145903722D01*
X82471595Y-145903726D01*
X82583052Y-146096774D01*
X82583057Y-146096780D01*
X82583058Y-146096782D01*
X82718751Y-146273622D01*
X82718757Y-146273629D01*
X82876370Y-146431242D01*
X82876377Y-146431248D01*
X82897736Y-146447637D01*
X83053226Y-146566948D01*
X83246274Y-146678405D01*
X83452219Y-146763710D01*
X83667537Y-146821404D01*
X83888543Y-146850500D01*
X83888550Y-146850500D01*
X84111450Y-146850500D01*
X84111457Y-146850500D01*
X84332463Y-146821404D01*
X84547781Y-146763710D01*
X84753726Y-146678405D01*
X84946774Y-146566948D01*
X85123624Y-146431247D01*
X85281247Y-146273624D01*
X85349935Y-146184108D01*
X87499500Y-146184108D01*
X87499500Y-146315891D01*
X87533608Y-146443187D01*
X87541919Y-146457581D01*
X87599500Y-146557314D01*
X87692686Y-146650500D01*
X87806814Y-146716392D01*
X87934108Y-146750500D01*
X87934110Y-146750500D01*
X88065890Y-146750500D01*
X88065892Y-146750500D01*
X88193186Y-146716392D01*
X88307314Y-146650500D01*
X88400500Y-146557314D01*
X88466392Y-146443186D01*
X88468824Y-146434108D01*
X90249500Y-146434108D01*
X90249500Y-146565891D01*
X90283608Y-146693187D01*
X90297005Y-146716391D01*
X90349500Y-146807314D01*
X90442686Y-146900500D01*
X90556814Y-146966392D01*
X90684108Y-147000500D01*
X90684110Y-147000500D01*
X90815890Y-147000500D01*
X90815892Y-147000500D01*
X90943186Y-146966392D01*
X91057314Y-146900500D01*
X91150500Y-146807314D01*
X91216392Y-146693186D01*
X91250500Y-146565892D01*
X91250500Y-146434108D01*
X91248805Y-146427783D01*
X95599500Y-146427783D01*
X95599500Y-146559567D01*
X95601478Y-146566948D01*
X95633608Y-146686862D01*
X95666554Y-146743925D01*
X95699500Y-146800989D01*
X95792686Y-146894175D01*
X95906814Y-146960067D01*
X96034108Y-146994175D01*
X96034110Y-146994175D01*
X96165890Y-146994175D01*
X96165892Y-146994175D01*
X96293186Y-146960067D01*
X96407314Y-146894175D01*
X96500500Y-146800989D01*
X96566392Y-146686861D01*
X96600500Y-146559567D01*
X96600500Y-146427783D01*
X96566392Y-146300489D01*
X96500500Y-146186361D01*
X96407314Y-146093175D01*
X96344332Y-146056812D01*
X96293187Y-146027283D01*
X96189497Y-145999500D01*
X96165892Y-145993175D01*
X96034108Y-145993175D01*
X95906812Y-146027283D01*
X95792686Y-146093175D01*
X95792683Y-146093177D01*
X95699502Y-146186358D01*
X95699500Y-146186361D01*
X95633608Y-146300487D01*
X95608582Y-146393887D01*
X95599500Y-146427783D01*
X91248805Y-146427783D01*
X91216392Y-146306814D01*
X91150500Y-146192686D01*
X91057314Y-146099500D01*
X91000250Y-146066554D01*
X90943187Y-146033608D01*
X90879539Y-146016554D01*
X90815892Y-145999500D01*
X90684108Y-145999500D01*
X90556812Y-146033608D01*
X90442686Y-146099500D01*
X90442683Y-146099502D01*
X90349502Y-146192683D01*
X90349500Y-146192686D01*
X90283608Y-146306812D01*
X90249500Y-146434108D01*
X88468824Y-146434108D01*
X88500500Y-146315892D01*
X88500500Y-146184108D01*
X88466392Y-146056814D01*
X88400500Y-145942686D01*
X88307314Y-145849500D01*
X88267824Y-145826700D01*
X88241578Y-145811547D01*
X88222625Y-145800604D01*
X88193187Y-145783608D01*
X88129539Y-145766554D01*
X88065892Y-145749500D01*
X87934108Y-145749500D01*
X87806812Y-145783608D01*
X87692686Y-145849500D01*
X87692683Y-145849502D01*
X87599502Y-145942683D01*
X87599500Y-145942686D01*
X87533608Y-146056812D01*
X87499500Y-146184108D01*
X85349935Y-146184108D01*
X85416948Y-146096774D01*
X85528405Y-145903726D01*
X85608546Y-145710247D01*
X111449500Y-145710247D01*
X111449500Y-147449752D01*
X111461131Y-147508229D01*
X111461132Y-147508230D01*
X111505447Y-147574552D01*
X111571769Y-147618867D01*
X111571770Y-147618868D01*
X111630247Y-147630499D01*
X111630250Y-147630500D01*
X111630252Y-147630500D01*
X113369750Y-147630500D01*
X113369751Y-147630499D01*
X113384568Y-147627552D01*
X113428229Y-147618868D01*
X113428229Y-147618867D01*
X113428231Y-147618867D01*
X113494552Y-147574552D01*
X113538867Y-147508231D01*
X113538867Y-147508229D01*
X113538868Y-147508229D01*
X113550499Y-147449752D01*
X113550500Y-147449750D01*
X113550500Y-145710249D01*
X113550499Y-145710247D01*
X113538868Y-145651770D01*
X113538867Y-145651769D01*
X113494552Y-145585447D01*
X113428230Y-145541132D01*
X113428229Y-145541131D01*
X113369752Y-145529500D01*
X113369748Y-145529500D01*
X111630252Y-145529500D01*
X111630247Y-145529500D01*
X111571770Y-145541131D01*
X111571769Y-145541132D01*
X111505447Y-145585447D01*
X111461132Y-145651769D01*
X111461131Y-145651770D01*
X111449500Y-145710247D01*
X85608546Y-145710247D01*
X85613710Y-145697781D01*
X85671404Y-145482463D01*
X85700500Y-145261457D01*
X85700500Y-145038543D01*
X85671404Y-144817537D01*
X85613710Y-144602219D01*
X85613705Y-144602209D01*
X85613704Y-144602203D01*
X85550011Y-144448433D01*
X85533722Y-144409108D01*
X91309500Y-144409108D01*
X91309500Y-144540891D01*
X91343608Y-144668187D01*
X91357751Y-144692683D01*
X91409500Y-144782314D01*
X91502686Y-144875500D01*
X91616814Y-144941392D01*
X91744108Y-144975500D01*
X91744110Y-144975500D01*
X91875890Y-144975500D01*
X91875892Y-144975500D01*
X92003186Y-144941392D01*
X92015802Y-144934108D01*
X107999500Y-144934108D01*
X107999500Y-145065892D01*
X108006094Y-145090500D01*
X108033608Y-145193187D01*
X108066121Y-145249500D01*
X108099500Y-145307314D01*
X108192686Y-145400500D01*
X108306814Y-145466392D01*
X108434108Y-145500500D01*
X108434110Y-145500500D01*
X108565890Y-145500500D01*
X108565892Y-145500500D01*
X108693186Y-145466392D01*
X108807314Y-145400500D01*
X108900500Y-145307314D01*
X108966392Y-145193186D01*
X109000500Y-145065892D01*
X109000500Y-144934108D01*
X108966392Y-144806814D01*
X108900500Y-144692686D01*
X108807314Y-144599500D01*
X108750250Y-144566554D01*
X108693187Y-144533608D01*
X108629539Y-144516554D01*
X108565892Y-144499500D01*
X108434108Y-144499500D01*
X108306812Y-144533608D01*
X108192686Y-144599500D01*
X108192683Y-144599502D01*
X108099502Y-144692683D01*
X108099500Y-144692686D01*
X108033608Y-144806812D01*
X108015204Y-144875499D01*
X107999500Y-144934108D01*
X92015802Y-144934108D01*
X92117314Y-144875500D01*
X92210500Y-144782314D01*
X92276392Y-144668186D01*
X92310500Y-144540892D01*
X92310500Y-144409108D01*
X92276392Y-144281814D01*
X92210500Y-144167686D01*
X92117314Y-144074500D01*
X92033951Y-144026370D01*
X92003187Y-144008608D01*
X91939539Y-143991554D01*
X91875892Y-143974500D01*
X91744108Y-143974500D01*
X91616812Y-144008608D01*
X91502686Y-144074500D01*
X91502683Y-144074502D01*
X91409502Y-144167683D01*
X91409500Y-144167686D01*
X91343608Y-144281812D01*
X91309500Y-144409108D01*
X85533722Y-144409108D01*
X85528407Y-144396278D01*
X85528404Y-144396273D01*
X85416948Y-144203226D01*
X85281247Y-144026376D01*
X85281242Y-144026370D01*
X85123629Y-143868757D01*
X85123622Y-143868751D01*
X84988942Y-143765408D01*
X84946783Y-143733058D01*
X84946777Y-143733054D01*
X84946774Y-143733052D01*
X84846501Y-143675159D01*
X97002483Y-143675159D01*
X97002483Y-143806942D01*
X97036591Y-143934238D01*
X97059837Y-143974500D01*
X97102483Y-144048365D01*
X97195669Y-144141551D01*
X97309797Y-144207443D01*
X97437091Y-144241551D01*
X97437093Y-144241551D01*
X97568873Y-144241551D01*
X97568875Y-144241551D01*
X97696169Y-144207443D01*
X97810297Y-144141551D01*
X97903483Y-144048365D01*
X97968051Y-143936530D01*
X111449500Y-143936530D01*
X111449500Y-144143469D01*
X111477019Y-144281814D01*
X111489870Y-144346420D01*
X111569059Y-144537598D01*
X111571260Y-144540892D01*
X111684024Y-144709657D01*
X111830342Y-144855975D01*
X111830345Y-144855977D01*
X112002402Y-144970941D01*
X112193580Y-145050130D01*
X112396530Y-145090499D01*
X112396534Y-145090500D01*
X112396535Y-145090500D01*
X112603466Y-145090500D01*
X112603467Y-145090499D01*
X112806420Y-145050130D01*
X112997598Y-144970941D01*
X113169655Y-144855977D01*
X113315977Y-144709655D01*
X113430941Y-144537598D01*
X113510130Y-144346420D01*
X113550500Y-144143465D01*
X113550500Y-143936535D01*
X113510130Y-143733580D01*
X113430941Y-143542402D01*
X113315977Y-143370345D01*
X113315975Y-143370342D01*
X113169657Y-143224024D01*
X113013037Y-143119375D01*
X112997598Y-143109059D01*
X112806420Y-143029870D01*
X112806412Y-143029868D01*
X112603469Y-142989500D01*
X112603465Y-142989500D01*
X112396535Y-142989500D01*
X112396530Y-142989500D01*
X112193587Y-143029868D01*
X112193579Y-143029870D01*
X112002403Y-143109058D01*
X111830342Y-143224024D01*
X111684024Y-143370342D01*
X111569058Y-143542403D01*
X111489870Y-143733579D01*
X111489868Y-143733587D01*
X111449500Y-143936530D01*
X97968051Y-143936530D01*
X97969375Y-143934237D01*
X98003483Y-143806943D01*
X98003483Y-143675159D01*
X97969375Y-143547865D01*
X97903483Y-143433737D01*
X97810297Y-143340551D01*
X97753233Y-143307605D01*
X97696170Y-143274659D01*
X97608461Y-143251158D01*
X97568875Y-143240551D01*
X97437091Y-143240551D01*
X97309795Y-143274659D01*
X97195669Y-143340551D01*
X97195666Y-143340553D01*
X97102485Y-143433734D01*
X97102483Y-143433737D01*
X97036591Y-143547863D01*
X97002483Y-143675159D01*
X84846501Y-143675159D01*
X84753726Y-143621595D01*
X84753722Y-143621593D01*
X84547790Y-143536293D01*
X84547783Y-143536291D01*
X84547781Y-143536290D01*
X84332463Y-143478596D01*
X84332457Y-143478595D01*
X84332452Y-143478594D01*
X84111466Y-143449501D01*
X84111463Y-143449500D01*
X84111457Y-143449500D01*
X83888543Y-143449500D01*
X83888537Y-143449500D01*
X83888533Y-143449501D01*
X83667547Y-143478594D01*
X83667540Y-143478595D01*
X83667537Y-143478596D01*
X83585790Y-143500500D01*
X83452219Y-143536290D01*
X83452209Y-143536293D01*
X83246277Y-143621593D01*
X83246273Y-143621595D01*
X83053226Y-143733052D01*
X83053217Y-143733058D01*
X82876377Y-143868751D01*
X82876370Y-143868757D01*
X82718757Y-144026370D01*
X82718751Y-144026377D01*
X82583058Y-144203217D01*
X82583052Y-144203226D01*
X82471595Y-144396273D01*
X82471593Y-144396277D01*
X82386293Y-144602209D01*
X82386290Y-144602219D01*
X82338034Y-144782316D01*
X82328597Y-144817534D01*
X82328594Y-144817547D01*
X82299501Y-145038533D01*
X82299500Y-145038549D01*
X69470500Y-145038549D01*
X69470500Y-145038543D01*
X69441404Y-144817537D01*
X69383710Y-144602219D01*
X69383703Y-144602203D01*
X69352197Y-144526140D01*
X69298405Y-144396274D01*
X69186948Y-144203226D01*
X69051247Y-144026376D01*
X69051242Y-144026370D01*
X68893629Y-143868757D01*
X68893622Y-143868751D01*
X68716782Y-143733058D01*
X68716780Y-143733057D01*
X68716774Y-143733052D01*
X68523726Y-143621595D01*
X68523722Y-143621593D01*
X68317790Y-143536293D01*
X68317783Y-143536291D01*
X68317781Y-143536290D01*
X68102463Y-143478596D01*
X68102457Y-143478595D01*
X68102452Y-143478594D01*
X67881466Y-143449501D01*
X67881463Y-143449500D01*
X67881457Y-143449500D01*
X67658543Y-143449500D01*
X67658537Y-143449500D01*
X67658533Y-143449501D01*
X67437547Y-143478594D01*
X67437540Y-143478595D01*
X67437537Y-143478596D01*
X67355790Y-143500500D01*
X67222219Y-143536290D01*
X67222209Y-143536293D01*
X67016277Y-143621593D01*
X67016273Y-143621595D01*
X66823226Y-143733052D01*
X66823217Y-143733058D01*
X66699486Y-143828000D01*
X66634317Y-143853194D01*
X66565872Y-143839155D01*
X66515882Y-143790341D01*
X66500000Y-143729624D01*
X66500000Y-143034108D01*
X98999500Y-143034108D01*
X98999500Y-143165891D01*
X99033608Y-143293187D01*
X99060954Y-143340551D01*
X99099500Y-143407314D01*
X99192686Y-143500500D01*
X99306814Y-143566392D01*
X99434108Y-143600500D01*
X99434110Y-143600500D01*
X99565890Y-143600500D01*
X99565892Y-143600500D01*
X99693186Y-143566392D01*
X99807314Y-143500500D01*
X99900500Y-143407314D01*
X99966392Y-143293186D01*
X100000500Y-143165892D01*
X100000500Y-143119375D01*
X107995838Y-143119375D01*
X107995838Y-143251158D01*
X108029946Y-143378454D01*
X108046608Y-143407313D01*
X108095838Y-143492581D01*
X108189024Y-143585767D01*
X108303152Y-143651659D01*
X108430446Y-143685767D01*
X108430448Y-143685767D01*
X108562228Y-143685767D01*
X108562230Y-143685767D01*
X108689524Y-143651659D01*
X108803652Y-143585767D01*
X108896838Y-143492581D01*
X108962730Y-143378453D01*
X108996838Y-143251159D01*
X108996838Y-143119375D01*
X108962730Y-142992081D01*
X108896838Y-142877953D01*
X108803652Y-142784767D01*
X108746588Y-142751821D01*
X108689525Y-142718875D01*
X108617215Y-142699500D01*
X108562230Y-142684767D01*
X108430446Y-142684767D01*
X108303150Y-142718875D01*
X108189024Y-142784767D01*
X108189021Y-142784769D01*
X108095840Y-142877950D01*
X108095838Y-142877953D01*
X108029946Y-142992079D01*
X107995838Y-143119375D01*
X100000500Y-143119375D01*
X100000500Y-143034108D01*
X99966392Y-142906814D01*
X99900500Y-142792686D01*
X99807314Y-142699500D01*
X99693186Y-142633608D01*
X99693185Y-142633607D01*
X99686147Y-142629544D01*
X99687017Y-142628035D01*
X99640317Y-142590398D01*
X99618255Y-142524103D01*
X99635537Y-142456405D01*
X99686676Y-142408797D01*
X99710073Y-142399912D01*
X99835173Y-142366392D01*
X99949301Y-142300500D01*
X100042487Y-142207314D01*
X100108379Y-142093186D01*
X100142487Y-141965892D01*
X100142487Y-141834108D01*
X100108379Y-141706814D01*
X100042487Y-141592686D01*
X99949301Y-141499500D01*
X99892237Y-141466554D01*
X99835174Y-141433608D01*
X99771526Y-141416554D01*
X99707879Y-141399500D01*
X99576095Y-141399500D01*
X99448799Y-141433608D01*
X99334673Y-141499500D01*
X99334670Y-141499502D01*
X99241489Y-141592683D01*
X99241487Y-141592686D01*
X99175595Y-141706812D01*
X99141487Y-141834108D01*
X99141487Y-141965891D01*
X99175595Y-142093187D01*
X99208541Y-142150250D01*
X99241487Y-142207314D01*
X99334673Y-142300500D01*
X99448799Y-142366391D01*
X99455840Y-142370456D01*
X99454968Y-142371965D01*
X99501663Y-142409592D01*
X99523731Y-142475885D01*
X99506454Y-142543585D01*
X99455319Y-142591198D01*
X99431904Y-142600090D01*
X99400759Y-142608435D01*
X99306812Y-142633608D01*
X99192686Y-142699500D01*
X99192683Y-142699502D01*
X99099502Y-142792683D01*
X99099500Y-142792686D01*
X99033608Y-142906812D01*
X98999500Y-143034108D01*
X66500000Y-143034108D01*
X66500000Y-141184108D01*
X76249500Y-141184108D01*
X76249500Y-141315891D01*
X76283608Y-141443187D01*
X76312477Y-141493189D01*
X76349500Y-141557314D01*
X76442686Y-141650500D01*
X76556814Y-141716392D01*
X76684108Y-141750500D01*
X76684110Y-141750500D01*
X76815890Y-141750500D01*
X76815892Y-141750500D01*
X76943186Y-141716392D01*
X77057314Y-141650500D01*
X77150500Y-141557314D01*
X77216392Y-141443186D01*
X77250500Y-141315892D01*
X77250500Y-141234111D01*
X107999500Y-141234111D01*
X107999500Y-141365894D01*
X108033608Y-141493190D01*
X108066554Y-141550253D01*
X108099500Y-141607317D01*
X108192686Y-141700503D01*
X108306814Y-141766395D01*
X108434108Y-141800503D01*
X108434110Y-141800503D01*
X108565890Y-141800503D01*
X108565892Y-141800503D01*
X108693186Y-141766395D01*
X108807314Y-141700503D01*
X108900500Y-141607317D01*
X108966392Y-141493189D01*
X108992291Y-141396530D01*
X111449500Y-141396530D01*
X111449500Y-141603469D01*
X111489868Y-141806412D01*
X111489870Y-141806420D01*
X111569058Y-141997596D01*
X111684024Y-142169657D01*
X111830342Y-142315975D01*
X111830345Y-142315977D01*
X112002402Y-142430941D01*
X112193580Y-142510130D01*
X112361771Y-142543585D01*
X112396530Y-142550499D01*
X112396534Y-142550500D01*
X112396535Y-142550500D01*
X112603466Y-142550500D01*
X112603467Y-142550499D01*
X112806420Y-142510130D01*
X112997598Y-142430941D01*
X113169655Y-142315977D01*
X113315977Y-142169655D01*
X113430941Y-141997598D01*
X113510130Y-141806420D01*
X113550500Y-141603465D01*
X113550500Y-141396535D01*
X113510130Y-141193580D01*
X113430941Y-141002402D01*
X113315977Y-140830345D01*
X113315975Y-140830342D01*
X113169657Y-140684024D01*
X113083626Y-140626541D01*
X112997598Y-140569059D01*
X112806420Y-140489870D01*
X112806412Y-140489868D01*
X112603469Y-140449500D01*
X112603465Y-140449500D01*
X112396535Y-140449500D01*
X112396530Y-140449500D01*
X112193587Y-140489868D01*
X112193579Y-140489870D01*
X112002403Y-140569058D01*
X111830342Y-140684024D01*
X111684024Y-140830342D01*
X111569058Y-141002403D01*
X111489870Y-141193579D01*
X111489868Y-141193587D01*
X111449500Y-141396530D01*
X108992291Y-141396530D01*
X109000500Y-141365895D01*
X109000500Y-141234111D01*
X108966392Y-141106817D01*
X108900500Y-140992689D01*
X108807314Y-140899503D01*
X108720710Y-140849502D01*
X108693187Y-140833611D01*
X108629539Y-140816557D01*
X108565892Y-140799503D01*
X108434108Y-140799503D01*
X108306812Y-140833611D01*
X108192686Y-140899503D01*
X108192683Y-140899505D01*
X108099502Y-140992686D01*
X108099500Y-140992689D01*
X108033608Y-141106815D01*
X107999500Y-141234111D01*
X77250500Y-141234111D01*
X77250500Y-141184108D01*
X77216392Y-141056814D01*
X77150500Y-140942686D01*
X77057314Y-140849500D01*
X76970717Y-140799503D01*
X76943187Y-140783608D01*
X76879539Y-140766554D01*
X76815892Y-140749500D01*
X76684108Y-140749500D01*
X76556812Y-140783608D01*
X76442686Y-140849500D01*
X76442683Y-140849502D01*
X76349502Y-140942683D01*
X76349500Y-140942686D01*
X76283608Y-141056812D01*
X76249500Y-141184108D01*
X66500000Y-141184108D01*
X66500000Y-137368872D01*
X67249500Y-137368872D01*
X67249500Y-137631127D01*
X67265358Y-137751570D01*
X67283730Y-137891116D01*
X67328263Y-138057316D01*
X67351602Y-138144418D01*
X67351605Y-138144428D01*
X67451953Y-138386690D01*
X67451958Y-138386700D01*
X67583075Y-138613803D01*
X67742718Y-138821851D01*
X67742726Y-138821860D01*
X67928140Y-139007274D01*
X67928148Y-139007281D01*
X67928149Y-139007282D01*
X67962459Y-139033609D01*
X68136196Y-139166924D01*
X68363299Y-139298041D01*
X68363309Y-139298046D01*
X68605571Y-139398394D01*
X68605581Y-139398398D01*
X68858884Y-139466270D01*
X69118880Y-139500500D01*
X69118887Y-139500500D01*
X69381113Y-139500500D01*
X69381120Y-139500500D01*
X69641116Y-139466270D01*
X69667845Y-139459108D01*
X90749500Y-139459108D01*
X90749500Y-139590892D01*
X90759887Y-139629657D01*
X90783608Y-139718187D01*
X90816554Y-139775250D01*
X90849500Y-139832314D01*
X90942686Y-139925500D01*
X91056814Y-139991392D01*
X91184108Y-140025500D01*
X91184110Y-140025500D01*
X91315890Y-140025500D01*
X91315892Y-140025500D01*
X91443186Y-139991392D01*
X91557314Y-139925500D01*
X91650500Y-139832314D01*
X91716392Y-139718186D01*
X91750500Y-139590892D01*
X91750500Y-139459108D01*
X91743801Y-139434108D01*
X97549500Y-139434108D01*
X97549500Y-139565892D01*
X97556199Y-139590892D01*
X97583608Y-139693187D01*
X97598042Y-139718187D01*
X97649500Y-139807314D01*
X97742686Y-139900500D01*
X97856814Y-139966392D01*
X97984108Y-140000500D01*
X97984110Y-140000500D01*
X98115890Y-140000500D01*
X98115892Y-140000500D01*
X98243186Y-139966392D01*
X98357314Y-139900500D01*
X98450500Y-139807314D01*
X98516392Y-139693186D01*
X98550500Y-139565892D01*
X98550500Y-139434108D01*
X98516392Y-139306814D01*
X98450500Y-139192686D01*
X98357314Y-139099500D01*
X98243186Y-139033608D01*
X98115892Y-138999500D01*
X97984108Y-138999500D01*
X97856812Y-139033608D01*
X97742686Y-139099500D01*
X97742683Y-139099502D01*
X97649502Y-139192683D01*
X97649500Y-139192686D01*
X97583608Y-139306812D01*
X97559068Y-139398398D01*
X97549500Y-139434108D01*
X91743801Y-139434108D01*
X91716392Y-139331814D01*
X91650500Y-139217686D01*
X91557314Y-139124500D01*
X91500250Y-139091554D01*
X91443187Y-139058608D01*
X91379539Y-139041554D01*
X91315892Y-139024500D01*
X91184108Y-139024500D01*
X91056812Y-139058608D01*
X90942686Y-139124500D01*
X90942683Y-139124502D01*
X90849502Y-139217683D01*
X90849500Y-139217686D01*
X90783608Y-139331812D01*
X90765204Y-139400499D01*
X90749500Y-139459108D01*
X69667845Y-139459108D01*
X69894419Y-139398398D01*
X69949733Y-139375485D01*
X70044048Y-139336420D01*
X70136690Y-139298046D01*
X70136691Y-139298045D01*
X70136697Y-139298043D01*
X70363803Y-139166924D01*
X70571851Y-139007282D01*
X70571855Y-139007277D01*
X70571860Y-139007274D01*
X70757274Y-138821860D01*
X70757277Y-138821855D01*
X70757282Y-138821851D01*
X70916924Y-138613803D01*
X71020670Y-138434108D01*
X81999500Y-138434108D01*
X81999500Y-138565891D01*
X82033608Y-138693187D01*
X82066554Y-138750250D01*
X82099500Y-138807314D01*
X82192686Y-138900500D01*
X82306814Y-138966392D01*
X82434108Y-139000500D01*
X82434110Y-139000500D01*
X82565890Y-139000500D01*
X82565892Y-139000500D01*
X82693186Y-138966392D01*
X82807314Y-138900500D01*
X82900500Y-138807314D01*
X82966392Y-138693186D01*
X82971222Y-138675159D01*
X85996517Y-138675159D01*
X85996517Y-138806943D01*
X85996617Y-138807316D01*
X86030625Y-138934238D01*
X86063571Y-138991301D01*
X86096517Y-139048365D01*
X86189703Y-139141551D01*
X86303831Y-139207443D01*
X86431125Y-139241551D01*
X86431127Y-139241551D01*
X86562907Y-139241551D01*
X86562909Y-139241551D01*
X86690203Y-139207443D01*
X86804331Y-139141551D01*
X86897517Y-139048365D01*
X86963409Y-138934237D01*
X86997517Y-138806943D01*
X86997517Y-138675159D01*
X86963409Y-138547865D01*
X86897731Y-138434108D01*
X88769500Y-138434108D01*
X88769500Y-138565891D01*
X88803608Y-138693187D01*
X88836554Y-138750250D01*
X88869500Y-138807314D01*
X88962686Y-138900500D01*
X89076814Y-138966392D01*
X89204108Y-139000500D01*
X89204110Y-139000500D01*
X89335890Y-139000500D01*
X89335892Y-139000500D01*
X89463186Y-138966392D01*
X89519103Y-138934108D01*
X102499500Y-138934108D01*
X102499500Y-139065891D01*
X102533608Y-139193187D01*
X102541839Y-139207443D01*
X102599500Y-139307314D01*
X102692686Y-139400500D01*
X102791521Y-139457563D01*
X102806602Y-139466270D01*
X102806814Y-139466392D01*
X102934108Y-139500500D01*
X102934110Y-139500500D01*
X103065890Y-139500500D01*
X103065892Y-139500500D01*
X103193186Y-139466392D01*
X103307314Y-139400500D01*
X103400500Y-139307314D01*
X103466392Y-139193186D01*
X103500500Y-139065892D01*
X103500500Y-138934108D01*
X103479713Y-138856530D01*
X111449500Y-138856530D01*
X111449500Y-139063469D01*
X111480176Y-139217686D01*
X111489870Y-139266420D01*
X111569059Y-139457598D01*
X111574935Y-139466392D01*
X111684024Y-139629657D01*
X111830342Y-139775975D01*
X111830345Y-139775977D01*
X112002402Y-139890941D01*
X112193580Y-139970130D01*
X112396530Y-140010499D01*
X112396534Y-140010500D01*
X112396535Y-140010500D01*
X112603466Y-140010500D01*
X112603467Y-140010499D01*
X112806420Y-139970130D01*
X112997598Y-139890941D01*
X113169655Y-139775977D01*
X113315977Y-139629655D01*
X113430941Y-139457598D01*
X113510130Y-139266420D01*
X113550500Y-139063465D01*
X113550500Y-138856535D01*
X113510130Y-138653580D01*
X113430941Y-138462402D01*
X113315977Y-138290345D01*
X113315975Y-138290342D01*
X113169657Y-138144024D01*
X113004406Y-138033608D01*
X112997598Y-138029059D01*
X112943889Y-138006812D01*
X112806420Y-137949870D01*
X112806412Y-137949868D01*
X112603469Y-137909500D01*
X112603465Y-137909500D01*
X112396535Y-137909500D01*
X112396530Y-137909500D01*
X112193587Y-137949868D01*
X112193579Y-137949870D01*
X112002403Y-138029058D01*
X111830342Y-138144024D01*
X111684024Y-138290342D01*
X111569058Y-138462403D01*
X111489870Y-138653579D01*
X111489868Y-138653587D01*
X111449500Y-138856530D01*
X103479713Y-138856530D01*
X103466392Y-138806814D01*
X103400500Y-138692686D01*
X103307314Y-138599500D01*
X103217880Y-138547865D01*
X103193187Y-138533608D01*
X103129539Y-138516554D01*
X103065892Y-138499500D01*
X102934108Y-138499500D01*
X102806812Y-138533608D01*
X102692686Y-138599500D01*
X102692683Y-138599502D01*
X102599502Y-138692683D01*
X102599500Y-138692686D01*
X102533608Y-138806812D01*
X102499500Y-138934108D01*
X89519103Y-138934108D01*
X89577314Y-138900500D01*
X89670500Y-138807314D01*
X89736392Y-138693186D01*
X89770500Y-138565892D01*
X89770500Y-138434108D01*
X89736392Y-138306814D01*
X89670500Y-138192686D01*
X89577314Y-138099500D01*
X89520250Y-138066554D01*
X89463187Y-138033608D01*
X89363188Y-138006814D01*
X89335892Y-137999500D01*
X89204108Y-137999500D01*
X89076812Y-138033608D01*
X88962686Y-138099500D01*
X88962683Y-138099502D01*
X88869502Y-138192683D01*
X88869500Y-138192686D01*
X88803608Y-138306812D01*
X88769500Y-138434108D01*
X86897731Y-138434108D01*
X86897517Y-138433737D01*
X86804331Y-138340551D01*
X86745897Y-138306814D01*
X86690204Y-138274659D01*
X86626556Y-138257605D01*
X86562909Y-138240551D01*
X86431125Y-138240551D01*
X86303829Y-138274659D01*
X86189703Y-138340551D01*
X86189700Y-138340553D01*
X86096519Y-138433734D01*
X86096517Y-138433737D01*
X86030625Y-138547863D01*
X86012957Y-138613803D01*
X85996517Y-138675159D01*
X82971222Y-138675159D01*
X83000500Y-138565892D01*
X83000500Y-138434108D01*
X82966392Y-138306814D01*
X82900500Y-138192686D01*
X82807314Y-138099500D01*
X82750250Y-138066554D01*
X82693187Y-138033608D01*
X82593188Y-138006814D01*
X82565892Y-137999500D01*
X82434108Y-137999500D01*
X82306812Y-138033608D01*
X82192686Y-138099500D01*
X82192683Y-138099502D01*
X82099502Y-138192683D01*
X82099500Y-138192686D01*
X82033608Y-138306812D01*
X81999500Y-138434108D01*
X71020670Y-138434108D01*
X71048043Y-138386697D01*
X71067158Y-138340551D01*
X71145879Y-138150500D01*
X71148398Y-138144419D01*
X71216270Y-137891116D01*
X71250500Y-137631120D01*
X71250500Y-137368880D01*
X71226315Y-137185178D01*
X80498728Y-137185178D01*
X80498728Y-137316962D01*
X80507447Y-137349502D01*
X80532836Y-137444257D01*
X80547987Y-137470499D01*
X80598728Y-137558384D01*
X80691914Y-137651570D01*
X80774931Y-137699500D01*
X80804188Y-137716392D01*
X80806042Y-137717462D01*
X80933336Y-137751570D01*
X80933338Y-137751570D01*
X81065118Y-137751570D01*
X81065120Y-137751570D01*
X81192414Y-137717462D01*
X81306542Y-137651570D01*
X81399728Y-137558384D01*
X81465620Y-137444256D01*
X81499728Y-137316962D01*
X81499728Y-137185178D01*
X81499441Y-137184108D01*
X85999500Y-137184108D01*
X85999500Y-137315892D01*
X85999787Y-137316962D01*
X86033608Y-137443187D01*
X86066554Y-137500250D01*
X86099500Y-137557314D01*
X86192686Y-137650500D01*
X86306814Y-137716392D01*
X86434108Y-137750500D01*
X86434110Y-137750500D01*
X86565890Y-137750500D01*
X86565892Y-137750500D01*
X86693186Y-137716392D01*
X86749103Y-137684108D01*
X92499500Y-137684108D01*
X92499500Y-137815891D01*
X92533608Y-137943187D01*
X92537467Y-137949870D01*
X92599500Y-138057314D01*
X92692686Y-138150500D01*
X92806814Y-138216392D01*
X92934108Y-138250500D01*
X92934110Y-138250500D01*
X93065890Y-138250500D01*
X93065892Y-138250500D01*
X93193186Y-138216392D01*
X93307314Y-138150500D01*
X93323706Y-138134108D01*
X107599500Y-138134108D01*
X107599500Y-138265891D01*
X107633608Y-138393187D01*
X107666554Y-138450250D01*
X107699500Y-138507314D01*
X107792686Y-138600500D01*
X107906814Y-138666392D01*
X108034108Y-138700500D01*
X108034110Y-138700500D01*
X108165890Y-138700500D01*
X108165892Y-138700500D01*
X108293186Y-138666392D01*
X108407314Y-138600500D01*
X108500500Y-138507314D01*
X108566392Y-138393186D01*
X108600500Y-138265892D01*
X108600500Y-138134108D01*
X108566392Y-138006814D01*
X108500500Y-137892686D01*
X108407314Y-137799500D01*
X108324297Y-137751570D01*
X108293187Y-137733608D01*
X108228931Y-137716391D01*
X108165892Y-137699500D01*
X108034108Y-137699500D01*
X107906812Y-137733608D01*
X107792686Y-137799500D01*
X107792683Y-137799502D01*
X107699502Y-137892683D01*
X107699500Y-137892686D01*
X107633608Y-138006812D01*
X107599500Y-138134108D01*
X93323706Y-138134108D01*
X93400500Y-138057314D01*
X93466392Y-137943186D01*
X93500500Y-137815892D01*
X93500500Y-137684108D01*
X93466392Y-137556814D01*
X93400500Y-137442686D01*
X93307314Y-137349500D01*
X93193186Y-137283608D01*
X93065892Y-137249500D01*
X92934108Y-137249500D01*
X92806812Y-137283608D01*
X92692686Y-137349500D01*
X92692683Y-137349502D01*
X92599502Y-137442683D01*
X92599500Y-137442686D01*
X92533608Y-137556812D01*
X92499500Y-137684108D01*
X86749103Y-137684108D01*
X86807314Y-137650500D01*
X86900500Y-137557314D01*
X86966392Y-137443186D01*
X87000500Y-137315892D01*
X87000500Y-137184108D01*
X96499500Y-137184108D01*
X96499500Y-137315892D01*
X96499787Y-137316962D01*
X96533608Y-137443187D01*
X96566554Y-137500250D01*
X96599500Y-137557314D01*
X96692686Y-137650500D01*
X96806814Y-137716392D01*
X96934108Y-137750500D01*
X96934110Y-137750500D01*
X97065890Y-137750500D01*
X97065892Y-137750500D01*
X97193186Y-137716392D01*
X97307314Y-137650500D01*
X97400500Y-137557314D01*
X97466392Y-137443186D01*
X97500500Y-137315892D01*
X97500500Y-137184108D01*
X97466392Y-137056814D01*
X97400500Y-136942686D01*
X97307314Y-136849500D01*
X97250250Y-136816554D01*
X97193187Y-136783608D01*
X97129539Y-136766554D01*
X97065892Y-136749500D01*
X96934108Y-136749500D01*
X96806812Y-136783608D01*
X96692686Y-136849500D01*
X96692683Y-136849502D01*
X96599502Y-136942683D01*
X96599500Y-136942686D01*
X96533608Y-137056812D01*
X96499500Y-137184108D01*
X87000500Y-137184108D01*
X86966392Y-137056814D01*
X86900500Y-136942686D01*
X86807314Y-136849500D01*
X86750250Y-136816554D01*
X86693187Y-136783608D01*
X86629539Y-136766554D01*
X86565892Y-136749500D01*
X86434108Y-136749500D01*
X86306812Y-136783608D01*
X86192686Y-136849500D01*
X86192683Y-136849502D01*
X86099502Y-136942683D01*
X86099500Y-136942686D01*
X86033608Y-137056812D01*
X85999500Y-137184108D01*
X81499441Y-137184108D01*
X81465620Y-137057884D01*
X81399728Y-136943756D01*
X81306542Y-136850570D01*
X81231619Y-136807313D01*
X81192415Y-136784678D01*
X81128767Y-136767624D01*
X81065120Y-136750570D01*
X80933336Y-136750570D01*
X80806040Y-136784678D01*
X80691914Y-136850570D01*
X80691911Y-136850572D01*
X80598730Y-136943753D01*
X80598728Y-136943756D01*
X80532836Y-137057882D01*
X80519170Y-137108885D01*
X80498728Y-137185178D01*
X71226315Y-137185178D01*
X71216270Y-137108884D01*
X71148398Y-136855581D01*
X71146323Y-136850572D01*
X71048046Y-136613309D01*
X71048041Y-136613299D01*
X70916924Y-136386196D01*
X70813542Y-136251468D01*
X70761856Y-136184110D01*
X70761854Y-136184108D01*
X81999500Y-136184108D01*
X81999500Y-136315892D01*
X82016554Y-136379539D01*
X82033608Y-136443187D01*
X82066554Y-136500250D01*
X82099500Y-136557314D01*
X82192686Y-136650500D01*
X82306814Y-136716392D01*
X82434108Y-136750500D01*
X82434110Y-136750500D01*
X82565890Y-136750500D01*
X82565892Y-136750500D01*
X82693186Y-136716392D01*
X82807314Y-136650500D01*
X82900500Y-136557314D01*
X82966392Y-136443186D01*
X82968824Y-136434108D01*
X91999500Y-136434108D01*
X91999500Y-136565892D01*
X92016554Y-136629539D01*
X92033608Y-136693187D01*
X92066121Y-136749500D01*
X92099500Y-136807314D01*
X92192686Y-136900500D01*
X92306814Y-136966392D01*
X92434108Y-137000500D01*
X92434110Y-137000500D01*
X92565890Y-137000500D01*
X92565892Y-137000500D01*
X92693186Y-136966392D01*
X92807314Y-136900500D01*
X92900500Y-136807314D01*
X92966392Y-136693186D01*
X93000500Y-136565892D01*
X93000500Y-136434108D01*
X92968995Y-136316530D01*
X111449500Y-136316530D01*
X111449500Y-136523469D01*
X111489868Y-136726412D01*
X111489870Y-136726420D01*
X111569058Y-136917596D01*
X111684024Y-137089657D01*
X111830342Y-137235975D01*
X111830345Y-137235977D01*
X112002402Y-137350941D01*
X112193580Y-137430130D01*
X112396530Y-137470499D01*
X112396534Y-137470500D01*
X112396535Y-137470500D01*
X112603466Y-137470500D01*
X112603467Y-137470499D01*
X112806420Y-137430130D01*
X112997598Y-137350941D01*
X113169655Y-137235977D01*
X113315977Y-137089655D01*
X113430941Y-136917598D01*
X113510130Y-136726420D01*
X113550500Y-136523465D01*
X113550500Y-136316535D01*
X113510130Y-136113580D01*
X113430941Y-135922402D01*
X113315977Y-135750345D01*
X113315975Y-135750342D01*
X113169657Y-135604024D01*
X113064453Y-135533730D01*
X112997598Y-135489059D01*
X112942875Y-135466392D01*
X112806420Y-135409870D01*
X112806412Y-135409868D01*
X112603469Y-135369500D01*
X112603465Y-135369500D01*
X112396535Y-135369500D01*
X112396530Y-135369500D01*
X112193587Y-135409868D01*
X112193579Y-135409870D01*
X112002403Y-135489058D01*
X111830342Y-135604024D01*
X111684024Y-135750342D01*
X111569058Y-135922403D01*
X111489870Y-136113579D01*
X111489868Y-136113587D01*
X111449500Y-136316530D01*
X92968995Y-136316530D01*
X92966392Y-136306814D01*
X92900500Y-136192686D01*
X92807314Y-136099500D01*
X92733380Y-136056814D01*
X92693187Y-136033608D01*
X92629539Y-136016554D01*
X92565892Y-135999500D01*
X92434108Y-135999500D01*
X92306812Y-136033608D01*
X92192686Y-136099500D01*
X92192683Y-136099502D01*
X92099502Y-136192683D01*
X92099500Y-136192686D01*
X92033608Y-136306812D01*
X92010277Y-136393886D01*
X91999500Y-136434108D01*
X82968824Y-136434108D01*
X83000500Y-136315892D01*
X83000500Y-136184108D01*
X82966392Y-136056814D01*
X82900500Y-135942686D01*
X82807314Y-135849500D01*
X82750250Y-135816554D01*
X82693187Y-135783608D01*
X82629539Y-135766554D01*
X82565892Y-135749500D01*
X82434108Y-135749500D01*
X82306812Y-135783608D01*
X82192686Y-135849500D01*
X82192683Y-135849502D01*
X82099502Y-135942683D01*
X82099500Y-135942686D01*
X82033608Y-136056812D01*
X82018396Y-136113587D01*
X81999500Y-136184108D01*
X70761854Y-136184108D01*
X70757282Y-136178149D01*
X70757281Y-136178148D01*
X70757274Y-136178140D01*
X70571860Y-135992726D01*
X70571851Y-135992718D01*
X70363803Y-135833075D01*
X70136700Y-135701958D01*
X70136690Y-135701953D01*
X69894428Y-135601605D01*
X69894421Y-135601603D01*
X69894419Y-135601602D01*
X69641116Y-135533730D01*
X69583339Y-135526123D01*
X69381127Y-135499500D01*
X69381120Y-135499500D01*
X69118880Y-135499500D01*
X69118872Y-135499500D01*
X68887772Y-135529926D01*
X68858884Y-135533730D01*
X68605581Y-135601602D01*
X68605571Y-135601605D01*
X68363309Y-135701953D01*
X68363299Y-135701958D01*
X68136196Y-135833075D01*
X67928148Y-135992718D01*
X67742718Y-136178148D01*
X67583075Y-136386196D01*
X67451958Y-136613299D01*
X67451953Y-136613309D01*
X67351605Y-136855571D01*
X67351602Y-136855581D01*
X67288883Y-137089655D01*
X67283730Y-137108885D01*
X67249500Y-137368872D01*
X66500000Y-137368872D01*
X66500000Y-134884108D01*
X91309500Y-134884108D01*
X91309500Y-135015891D01*
X91343608Y-135143187D01*
X91372476Y-135193186D01*
X91409500Y-135257314D01*
X91502686Y-135350500D01*
X91616814Y-135416392D01*
X91744108Y-135450500D01*
X91744110Y-135450500D01*
X91875890Y-135450500D01*
X91875892Y-135450500D01*
X92003186Y-135416392D01*
X92117314Y-135350500D01*
X92210500Y-135257314D01*
X92276392Y-135143186D01*
X92310500Y-135015892D01*
X92310500Y-134884108D01*
X92276392Y-134756814D01*
X92210500Y-134642686D01*
X92117314Y-134549500D01*
X92089371Y-134533367D01*
X92089370Y-134533366D01*
X92003188Y-134483609D01*
X92003187Y-134483608D01*
X92003186Y-134483608D01*
X91875892Y-134449500D01*
X91744108Y-134449500D01*
X91616812Y-134483608D01*
X91502686Y-134549500D01*
X91502683Y-134549502D01*
X91409502Y-134642683D01*
X91409500Y-134642686D01*
X91343608Y-134756812D01*
X91309500Y-134884108D01*
X66500000Y-134884108D01*
X66500000Y-134184108D01*
X86499500Y-134184108D01*
X86499500Y-134315891D01*
X86533608Y-134443187D01*
X86537253Y-134449500D01*
X86599500Y-134557314D01*
X86692686Y-134650500D01*
X86806814Y-134716392D01*
X86934108Y-134750500D01*
X86934110Y-134750500D01*
X87065890Y-134750500D01*
X87065892Y-134750500D01*
X87193186Y-134716392D01*
X87307314Y-134650500D01*
X87400500Y-134557314D01*
X87466392Y-134443186D01*
X87468824Y-134434108D01*
X92999500Y-134434108D01*
X92999500Y-134565891D01*
X93033608Y-134693187D01*
X93035218Y-134695975D01*
X93099500Y-134807314D01*
X93192686Y-134900500D01*
X93306814Y-134966392D01*
X93434108Y-135000500D01*
X93434110Y-135000500D01*
X93565890Y-135000500D01*
X93565892Y-135000500D01*
X93693186Y-134966392D01*
X93749103Y-134934108D01*
X96999500Y-134934108D01*
X96999500Y-135065891D01*
X97033608Y-135193187D01*
X97066554Y-135250250D01*
X97099500Y-135307314D01*
X97192686Y-135400500D01*
X97306814Y-135466392D01*
X97434108Y-135500500D01*
X97434110Y-135500500D01*
X97565890Y-135500500D01*
X97565892Y-135500500D01*
X97693186Y-135466392D01*
X97807314Y-135400500D01*
X97900500Y-135307314D01*
X97966392Y-135193186D01*
X98000500Y-135065892D01*
X98000500Y-134934108D01*
X99999500Y-134934108D01*
X99999500Y-135065891D01*
X100033608Y-135193187D01*
X100066554Y-135250250D01*
X100099500Y-135307314D01*
X100192686Y-135400500D01*
X100306814Y-135466392D01*
X100434108Y-135500500D01*
X100434110Y-135500500D01*
X100565890Y-135500500D01*
X100565892Y-135500500D01*
X100693186Y-135466392D01*
X100807314Y-135400500D01*
X100900500Y-135307314D01*
X100966392Y-135193186D01*
X101000500Y-135065892D01*
X101000500Y-134934108D01*
X100966392Y-134806814D01*
X100900500Y-134692686D01*
X100807314Y-134599500D01*
X100749100Y-134565890D01*
X100694053Y-134534108D01*
X102499500Y-134534108D01*
X102499500Y-134665892D01*
X102506813Y-134693186D01*
X102533608Y-134793187D01*
X102559655Y-134838300D01*
X102599500Y-134907314D01*
X102692686Y-135000500D01*
X102791521Y-135057563D01*
X102805944Y-135065890D01*
X102806814Y-135066392D01*
X102934108Y-135100500D01*
X102934110Y-135100500D01*
X103065890Y-135100500D01*
X103065892Y-135100500D01*
X103193186Y-135066392D01*
X103307314Y-135000500D01*
X103400500Y-134907314D01*
X103466392Y-134793186D01*
X103500500Y-134665892D01*
X103500500Y-134534108D01*
X103466392Y-134406814D01*
X103400500Y-134292686D01*
X103307314Y-134199500D01*
X103250250Y-134166554D01*
X103193187Y-134133608D01*
X103129539Y-134116554D01*
X103065892Y-134099500D01*
X102934108Y-134099500D01*
X102806812Y-134133608D01*
X102692686Y-134199500D01*
X102692683Y-134199502D01*
X102599502Y-134292683D01*
X102599500Y-134292686D01*
X102533608Y-134406812D01*
X102526294Y-134434110D01*
X102499500Y-134534108D01*
X100694053Y-134534108D01*
X100693187Y-134533608D01*
X100629539Y-134516554D01*
X100565892Y-134499500D01*
X100434108Y-134499500D01*
X100306812Y-134533608D01*
X100192686Y-134599500D01*
X100192683Y-134599502D01*
X100099502Y-134692683D01*
X100099500Y-134692686D01*
X100033608Y-134806812D01*
X99999500Y-134934108D01*
X98000500Y-134934108D01*
X97966392Y-134806814D01*
X97900500Y-134692686D01*
X97807314Y-134599500D01*
X97749100Y-134565890D01*
X97693187Y-134533608D01*
X97629539Y-134516554D01*
X97565892Y-134499500D01*
X97434108Y-134499500D01*
X97306812Y-134533608D01*
X97192686Y-134599500D01*
X97192683Y-134599502D01*
X97099502Y-134692683D01*
X97099500Y-134692686D01*
X97033608Y-134806812D01*
X96999500Y-134934108D01*
X93749103Y-134934108D01*
X93807314Y-134900500D01*
X93900500Y-134807314D01*
X93966392Y-134693186D01*
X94000500Y-134565892D01*
X94000500Y-134434108D01*
X93966392Y-134306814D01*
X93900500Y-134192686D01*
X93807314Y-134099500D01*
X93733380Y-134056814D01*
X93693187Y-134033608D01*
X93629539Y-134016554D01*
X93565892Y-133999500D01*
X93434108Y-133999500D01*
X93306812Y-134033608D01*
X93192686Y-134099500D01*
X93192683Y-134099502D01*
X93099502Y-134192683D01*
X93099500Y-134192686D01*
X93033608Y-134306812D01*
X92999500Y-134434108D01*
X87468824Y-134434108D01*
X87500500Y-134315892D01*
X87500500Y-134184108D01*
X87466392Y-134056814D01*
X87400500Y-133942686D01*
X87307314Y-133849500D01*
X87250250Y-133816554D01*
X87193187Y-133783608D01*
X87129539Y-133766554D01*
X87065892Y-133749500D01*
X86934108Y-133749500D01*
X86806812Y-133783608D01*
X86692686Y-133849500D01*
X86692683Y-133849502D01*
X86599502Y-133942683D01*
X86599500Y-133942686D01*
X86533608Y-134056812D01*
X86499500Y-134184108D01*
X66500000Y-134184108D01*
X66500000Y-133534108D01*
X89499500Y-133534108D01*
X89499500Y-133665891D01*
X89533608Y-133793187D01*
X89566121Y-133849500D01*
X89599500Y-133907314D01*
X89692686Y-134000500D01*
X89806814Y-134066392D01*
X89934108Y-134100500D01*
X89934110Y-134100500D01*
X90065890Y-134100500D01*
X90065892Y-134100500D01*
X90193186Y-134066392D01*
X90307314Y-134000500D01*
X90400500Y-133907314D01*
X90466392Y-133793186D01*
X90470855Y-133776530D01*
X111449500Y-133776530D01*
X111449500Y-133983469D01*
X111489868Y-134186412D01*
X111489870Y-134186420D01*
X111543498Y-134315890D01*
X111569059Y-134377598D01*
X111606818Y-134434108D01*
X111684024Y-134549657D01*
X111830342Y-134695975D01*
X111830345Y-134695977D01*
X112002402Y-134810941D01*
X112193580Y-134890130D01*
X112396530Y-134930499D01*
X112396534Y-134930500D01*
X112396535Y-134930500D01*
X112603466Y-134930500D01*
X112603467Y-134930499D01*
X112806420Y-134890130D01*
X112997598Y-134810941D01*
X113169655Y-134695977D01*
X113315977Y-134549655D01*
X113430941Y-134377598D01*
X113510130Y-134186420D01*
X113550500Y-133983465D01*
X113550500Y-133776535D01*
X113510130Y-133573580D01*
X113430941Y-133382402D01*
X113315977Y-133210345D01*
X113315975Y-133210342D01*
X113169657Y-133064024D01*
X113074584Y-133000499D01*
X112997598Y-132949059D01*
X112880364Y-132900499D01*
X112806420Y-132869870D01*
X112806412Y-132869868D01*
X112603469Y-132829500D01*
X112603465Y-132829500D01*
X112396535Y-132829500D01*
X112396530Y-132829500D01*
X112193587Y-132869868D01*
X112193579Y-132869870D01*
X112002403Y-132949058D01*
X111830342Y-133064024D01*
X111684024Y-133210342D01*
X111569058Y-133382403D01*
X111489870Y-133573579D01*
X111489868Y-133573587D01*
X111449500Y-133776530D01*
X90470855Y-133776530D01*
X90500500Y-133665892D01*
X90500500Y-133534108D01*
X90466392Y-133406814D01*
X90400500Y-133292686D01*
X90307314Y-133199500D01*
X90250250Y-133166554D01*
X90193187Y-133133608D01*
X90129539Y-133116554D01*
X90065892Y-133099500D01*
X89934108Y-133099500D01*
X89806812Y-133133608D01*
X89692686Y-133199500D01*
X89692683Y-133199502D01*
X89599502Y-133292683D01*
X89599500Y-133292686D01*
X89533608Y-133406812D01*
X89499500Y-133534108D01*
X66500000Y-133534108D01*
X66500000Y-132434108D01*
X92999500Y-132434108D01*
X92999500Y-132565891D01*
X93033608Y-132693187D01*
X93066554Y-132750250D01*
X93099500Y-132807314D01*
X93192686Y-132900500D01*
X93306814Y-132966392D01*
X93434108Y-133000500D01*
X93434110Y-133000500D01*
X93565890Y-133000500D01*
X93565892Y-133000500D01*
X93693186Y-132966392D01*
X93807314Y-132900500D01*
X93900500Y-132807314D01*
X93966392Y-132693186D01*
X94000500Y-132565892D01*
X94000500Y-132434108D01*
X93966392Y-132306814D01*
X93900500Y-132192686D01*
X93807314Y-132099500D01*
X93750250Y-132066554D01*
X93693187Y-132033608D01*
X93629539Y-132016554D01*
X93565892Y-131999500D01*
X93434108Y-131999500D01*
X93306812Y-132033608D01*
X93192686Y-132099500D01*
X93192683Y-132099502D01*
X93099502Y-132192683D01*
X93099500Y-132192686D01*
X93033608Y-132306812D01*
X92999500Y-132434108D01*
X66500000Y-132434108D01*
X66500000Y-131420375D01*
X66519685Y-131353336D01*
X66572489Y-131307581D01*
X66641647Y-131297637D01*
X66699484Y-131321998D01*
X66823226Y-131416948D01*
X67016274Y-131528405D01*
X67222219Y-131613710D01*
X67437537Y-131671404D01*
X67658543Y-131700500D01*
X67658550Y-131700500D01*
X67881450Y-131700500D01*
X67881457Y-131700500D01*
X68102463Y-131671404D01*
X68317781Y-131613710D01*
X68523726Y-131528405D01*
X68716774Y-131416948D01*
X68893624Y-131281247D01*
X69051247Y-131123624D01*
X69186948Y-130946774D01*
X69298405Y-130753726D01*
X69383710Y-130547781D01*
X69414168Y-130434108D01*
X78499500Y-130434108D01*
X78499500Y-130565891D01*
X78533608Y-130693187D01*
X78566554Y-130750250D01*
X78599500Y-130807314D01*
X78692686Y-130900500D01*
X78806814Y-130966392D01*
X78934108Y-131000500D01*
X78934110Y-131000500D01*
X79065890Y-131000500D01*
X79065892Y-131000500D01*
X79193186Y-130966392D01*
X79307314Y-130900500D01*
X79400500Y-130807314D01*
X79466392Y-130693186D01*
X79500500Y-130565892D01*
X79500500Y-130434108D01*
X79466392Y-130306814D01*
X79400500Y-130192686D01*
X79307314Y-130099500D01*
X79249100Y-130065890D01*
X79193187Y-130033608D01*
X79138385Y-130018924D01*
X79065892Y-129999500D01*
X78934108Y-129999500D01*
X78806812Y-130033608D01*
X78692686Y-130099500D01*
X78692683Y-130099502D01*
X78599502Y-130192683D01*
X78599500Y-130192686D01*
X78533608Y-130306812D01*
X78499500Y-130434108D01*
X69414168Y-130434108D01*
X69441404Y-130332463D01*
X69470500Y-130111457D01*
X69470500Y-129888549D01*
X82299500Y-129888549D01*
X82299500Y-130111450D01*
X82299501Y-130111466D01*
X82328594Y-130332452D01*
X82328595Y-130332457D01*
X82328596Y-130332463D01*
X82386290Y-130547780D01*
X82386293Y-130547790D01*
X82446519Y-130693187D01*
X82471595Y-130753726D01*
X82583052Y-130946774D01*
X82583057Y-130946780D01*
X82583058Y-130946782D01*
X82718751Y-131123622D01*
X82718757Y-131123629D01*
X82876370Y-131281242D01*
X82876376Y-131281247D01*
X83053226Y-131416948D01*
X83246274Y-131528405D01*
X83452219Y-131613710D01*
X83667537Y-131671404D01*
X83888543Y-131700500D01*
X83888550Y-131700500D01*
X84111450Y-131700500D01*
X84111457Y-131700500D01*
X84332463Y-131671404D01*
X84547781Y-131613710D01*
X84753726Y-131528405D01*
X84946774Y-131416948D01*
X85123624Y-131281247D01*
X85168341Y-131236530D01*
X111449500Y-131236530D01*
X111449500Y-131443469D01*
X111489868Y-131646412D01*
X111489870Y-131646420D01*
X111569058Y-131837596D01*
X111684024Y-132009657D01*
X111830342Y-132155975D01*
X111830345Y-132155977D01*
X112002402Y-132270941D01*
X112193580Y-132350130D01*
X112396530Y-132390499D01*
X112396534Y-132390500D01*
X112396535Y-132390500D01*
X112603466Y-132390500D01*
X112603467Y-132390499D01*
X112806420Y-132350130D01*
X112997598Y-132270941D01*
X113169655Y-132155977D01*
X113315977Y-132009655D01*
X113430941Y-131837598D01*
X113510130Y-131646420D01*
X113550500Y-131443465D01*
X113550500Y-131236535D01*
X113510130Y-131033580D01*
X113430941Y-130842402D01*
X113315977Y-130670345D01*
X113315975Y-130670342D01*
X113169657Y-130524024D01*
X113083402Y-130466391D01*
X112997598Y-130409059D01*
X112976932Y-130400499D01*
X112806420Y-130329870D01*
X112806412Y-130329868D01*
X112603469Y-130289500D01*
X112603465Y-130289500D01*
X112396535Y-130289500D01*
X112396530Y-130289500D01*
X112193587Y-130329868D01*
X112193579Y-130329870D01*
X112002403Y-130409058D01*
X111830342Y-130524024D01*
X111684024Y-130670342D01*
X111569058Y-130842403D01*
X111489870Y-131033579D01*
X111489868Y-131033587D01*
X111449500Y-131236530D01*
X85168341Y-131236530D01*
X85262110Y-131142762D01*
X85281242Y-131123629D01*
X85281247Y-131123624D01*
X85416948Y-130946774D01*
X85528405Y-130753726D01*
X85613710Y-130547781D01*
X85671404Y-130332463D01*
X85700500Y-130111457D01*
X85700500Y-129934108D01*
X92074500Y-129934108D01*
X92074500Y-130065891D01*
X92108608Y-130193187D01*
X92141554Y-130250250D01*
X92174500Y-130307314D01*
X92267686Y-130400500D01*
X92381814Y-130466392D01*
X92509108Y-130500500D01*
X92509110Y-130500500D01*
X92640890Y-130500500D01*
X92640892Y-130500500D01*
X92768186Y-130466392D01*
X92882314Y-130400500D01*
X92975500Y-130307314D01*
X93041392Y-130193186D01*
X93075500Y-130065892D01*
X93075500Y-129934108D01*
X93041392Y-129806814D01*
X92975500Y-129692686D01*
X92882314Y-129599500D01*
X92825250Y-129566554D01*
X92768187Y-129533608D01*
X92704539Y-129516554D01*
X92640892Y-129499500D01*
X92509108Y-129499500D01*
X92381812Y-129533608D01*
X92267686Y-129599500D01*
X92267683Y-129599502D01*
X92174502Y-129692683D01*
X92174500Y-129692686D01*
X92108608Y-129806812D01*
X92074500Y-129934108D01*
X85700500Y-129934108D01*
X85700500Y-129888543D01*
X85671404Y-129667537D01*
X85613710Y-129452219D01*
X85528405Y-129246274D01*
X85416948Y-129053226D01*
X85367583Y-128988892D01*
X85281248Y-128876377D01*
X85281242Y-128876370D01*
X85123629Y-128718757D01*
X85123622Y-128718751D01*
X84946782Y-128583058D01*
X84946780Y-128583056D01*
X84946774Y-128583052D01*
X84946769Y-128583049D01*
X84946766Y-128583047D01*
X84899692Y-128555869D01*
X84753726Y-128471595D01*
X84753722Y-128471593D01*
X84717547Y-128456609D01*
X89272001Y-128456609D01*
X89272001Y-128588392D01*
X89306109Y-128715688D01*
X89307879Y-128718753D01*
X89372001Y-128829815D01*
X89465187Y-128923001D01*
X89579315Y-128988893D01*
X89706609Y-129023001D01*
X89706611Y-129023001D01*
X89838391Y-129023001D01*
X89838393Y-129023001D01*
X89965687Y-128988893D01*
X90079815Y-128923001D01*
X90173001Y-128829815D01*
X90238893Y-128715687D01*
X90273001Y-128588393D01*
X90273001Y-128456609D01*
X90238893Y-128329315D01*
X90238478Y-128328597D01*
X90221679Y-128299500D01*
X90173001Y-128215187D01*
X90079815Y-128122001D01*
X90022751Y-128089055D01*
X89965688Y-128056109D01*
X89902040Y-128039055D01*
X89838393Y-128022001D01*
X89706609Y-128022001D01*
X89579313Y-128056109D01*
X89465187Y-128122001D01*
X89465184Y-128122003D01*
X89372003Y-128215184D01*
X89372001Y-128215187D01*
X89306109Y-128329313D01*
X89272001Y-128456609D01*
X84717547Y-128456609D01*
X84547790Y-128386293D01*
X84547783Y-128386291D01*
X84547781Y-128386290D01*
X84332463Y-128328596D01*
X84332457Y-128328595D01*
X84332452Y-128328594D01*
X84111466Y-128299501D01*
X84111463Y-128299500D01*
X84111457Y-128299500D01*
X83888543Y-128299500D01*
X83888537Y-128299500D01*
X83888533Y-128299501D01*
X83667547Y-128328594D01*
X83667540Y-128328595D01*
X83667537Y-128328596D01*
X83664854Y-128329315D01*
X83452219Y-128386290D01*
X83452209Y-128386293D01*
X83246277Y-128471593D01*
X83246273Y-128471595D01*
X83053226Y-128583052D01*
X83053217Y-128583058D01*
X82876377Y-128718751D01*
X82876370Y-128718757D01*
X82718757Y-128876370D01*
X82718751Y-128876377D01*
X82583058Y-129053217D01*
X82583052Y-129053226D01*
X82471595Y-129246273D01*
X82471593Y-129246277D01*
X82386293Y-129452209D01*
X82386290Y-129452219D01*
X82342412Y-129615977D01*
X82328597Y-129667534D01*
X82328594Y-129667547D01*
X82299501Y-129888533D01*
X82299500Y-129888549D01*
X69470500Y-129888549D01*
X69470500Y-129888543D01*
X69441404Y-129667537D01*
X69383710Y-129452219D01*
X69298405Y-129246274D01*
X69186948Y-129053226D01*
X69137583Y-128988892D01*
X69051248Y-128876377D01*
X69051242Y-128876370D01*
X68893629Y-128718757D01*
X68893622Y-128718751D01*
X68716782Y-128583058D01*
X68716780Y-128583057D01*
X68716774Y-128583052D01*
X68523726Y-128471595D01*
X68523722Y-128471593D01*
X68317790Y-128386293D01*
X68317783Y-128386291D01*
X68317781Y-128386290D01*
X68102463Y-128328596D01*
X68102457Y-128328595D01*
X68102452Y-128328594D01*
X67881466Y-128299501D01*
X67881463Y-128299500D01*
X67881457Y-128299500D01*
X67658543Y-128299500D01*
X67658537Y-128299500D01*
X67658533Y-128299501D01*
X67437547Y-128328594D01*
X67437540Y-128328595D01*
X67437537Y-128328596D01*
X67434854Y-128329315D01*
X67222219Y-128386290D01*
X67222209Y-128386293D01*
X67016277Y-128471593D01*
X67016273Y-128471595D01*
X66823226Y-128583052D01*
X66823217Y-128583058D01*
X66699486Y-128678000D01*
X66634317Y-128703194D01*
X66565872Y-128689155D01*
X66515882Y-128640341D01*
X66500000Y-128579624D01*
X66500000Y-127434108D01*
X78499500Y-127434108D01*
X78499500Y-127565891D01*
X78533608Y-127693187D01*
X78561205Y-127740985D01*
X78599500Y-127807314D01*
X78692686Y-127900500D01*
X78806814Y-127966392D01*
X78934108Y-128000500D01*
X78934110Y-128000500D01*
X79065890Y-128000500D01*
X79065892Y-128000500D01*
X79193186Y-127966392D01*
X79307314Y-127900500D01*
X79400500Y-127807314D01*
X79466392Y-127693186D01*
X79468824Y-127684108D01*
X86499500Y-127684108D01*
X86499500Y-127815891D01*
X86533608Y-127943187D01*
X86547005Y-127966391D01*
X86599500Y-128057314D01*
X86692686Y-128150500D01*
X86791521Y-128207563D01*
X86804721Y-128215184D01*
X86806814Y-128216392D01*
X86934108Y-128250500D01*
X86934110Y-128250500D01*
X87065890Y-128250500D01*
X87065892Y-128250500D01*
X87193186Y-128216392D01*
X87307314Y-128150500D01*
X87400500Y-128057314D01*
X87466392Y-127943186D01*
X87500500Y-127815892D01*
X87500500Y-127684108D01*
X87466392Y-127556814D01*
X87400500Y-127442686D01*
X87307314Y-127349500D01*
X87250250Y-127316554D01*
X87193187Y-127283608D01*
X87129539Y-127266554D01*
X87065892Y-127249500D01*
X86934108Y-127249500D01*
X86806812Y-127283608D01*
X86692686Y-127349500D01*
X86692683Y-127349502D01*
X86599502Y-127442683D01*
X86599500Y-127442686D01*
X86533608Y-127556812D01*
X86499500Y-127684108D01*
X79468824Y-127684108D01*
X79500500Y-127565892D01*
X79500500Y-127434108D01*
X79466392Y-127306814D01*
X79400500Y-127192686D01*
X79307314Y-127099500D01*
X79249100Y-127065890D01*
X79193187Y-127033608D01*
X79129539Y-127016554D01*
X79065892Y-126999500D01*
X78934108Y-126999500D01*
X78806812Y-127033608D01*
X78692686Y-127099500D01*
X78692683Y-127099502D01*
X78599502Y-127192683D01*
X78599500Y-127192686D01*
X78533608Y-127306812D01*
X78499500Y-127434108D01*
X66500000Y-127434108D01*
X66500000Y-126684108D01*
X89499500Y-126684108D01*
X89499500Y-126815891D01*
X89533608Y-126943187D01*
X89547677Y-126967554D01*
X89599500Y-127057314D01*
X89692686Y-127150500D01*
X89806814Y-127216392D01*
X89934108Y-127250500D01*
X89934110Y-127250500D01*
X90065890Y-127250500D01*
X90065892Y-127250500D01*
X90193186Y-127216392D01*
X90307314Y-127150500D01*
X90400500Y-127057314D01*
X90466392Y-126943186D01*
X90468824Y-126934108D01*
X93999500Y-126934108D01*
X93999500Y-127065891D01*
X94033608Y-127193187D01*
X94047005Y-127216391D01*
X94099500Y-127307314D01*
X94192686Y-127400500D01*
X94306814Y-127466392D01*
X94434108Y-127500500D01*
X94434110Y-127500500D01*
X94565890Y-127500500D01*
X94565892Y-127500500D01*
X94693186Y-127466392D01*
X94807314Y-127400500D01*
X94900500Y-127307314D01*
X94966392Y-127193186D01*
X95000500Y-127065892D01*
X95000500Y-126934108D01*
X95599500Y-126934108D01*
X95599500Y-127065891D01*
X95633608Y-127193187D01*
X95647005Y-127216391D01*
X95699500Y-127307314D01*
X95792686Y-127400500D01*
X95906814Y-127466392D01*
X96034108Y-127500500D01*
X96034110Y-127500500D01*
X96165890Y-127500500D01*
X96165892Y-127500500D01*
X96293186Y-127466392D01*
X96407314Y-127400500D01*
X96500500Y-127307314D01*
X96566392Y-127193186D01*
X96600500Y-127065892D01*
X96600500Y-126934108D01*
X96566392Y-126806814D01*
X96500500Y-126692686D01*
X96407314Y-126599500D01*
X96333380Y-126556814D01*
X96293187Y-126533608D01*
X96229539Y-126516554D01*
X96165892Y-126499500D01*
X96034108Y-126499500D01*
X95906812Y-126533608D01*
X95792686Y-126599500D01*
X95792683Y-126599502D01*
X95699502Y-126692683D01*
X95699500Y-126692686D01*
X95633608Y-126806812D01*
X95599500Y-126934108D01*
X95000500Y-126934108D01*
X94966392Y-126806814D01*
X94900500Y-126692686D01*
X94807314Y-126599500D01*
X94733380Y-126556814D01*
X94693187Y-126533608D01*
X94629539Y-126516554D01*
X94565892Y-126499500D01*
X94434108Y-126499500D01*
X94306812Y-126533608D01*
X94192686Y-126599500D01*
X94192683Y-126599502D01*
X94099502Y-126692683D01*
X94099500Y-126692686D01*
X94033608Y-126806812D01*
X93999500Y-126934108D01*
X90468824Y-126934108D01*
X90500500Y-126815892D01*
X90500500Y-126684108D01*
X90466392Y-126556814D01*
X90400500Y-126442686D01*
X90307314Y-126349500D01*
X90280654Y-126334108D01*
X97899500Y-126334108D01*
X97899500Y-126465891D01*
X97933608Y-126593187D01*
X97966554Y-126650250D01*
X97999500Y-126707314D01*
X98092686Y-126800500D01*
X98206814Y-126866392D01*
X98334108Y-126900500D01*
X98334110Y-126900500D01*
X98465890Y-126900500D01*
X98465892Y-126900500D01*
X98593186Y-126866392D01*
X98707314Y-126800500D01*
X98800500Y-126707314D01*
X98866392Y-126593186D01*
X98900500Y-126465892D01*
X98900500Y-126434108D01*
X101999500Y-126434108D01*
X101999500Y-126565892D01*
X102002243Y-126576130D01*
X102033608Y-126693187D01*
X102041766Y-126707316D01*
X102099500Y-126807314D01*
X102192686Y-126900500D01*
X102306814Y-126966392D01*
X102434108Y-127000500D01*
X102434110Y-127000500D01*
X102565890Y-127000500D01*
X102565892Y-127000500D01*
X102693186Y-126966392D01*
X102807314Y-126900500D01*
X102900500Y-126807314D01*
X102966392Y-126693186D01*
X103000500Y-126565892D01*
X103000500Y-126434108D01*
X105099500Y-126434108D01*
X105099500Y-126565892D01*
X105102243Y-126576130D01*
X105133608Y-126693187D01*
X105141766Y-126707316D01*
X105199500Y-126807314D01*
X105292686Y-126900500D01*
X105406814Y-126966392D01*
X105534108Y-127000500D01*
X105534110Y-127000500D01*
X105665890Y-127000500D01*
X105665892Y-127000500D01*
X105793186Y-126966392D01*
X105907314Y-126900500D01*
X106000500Y-126807314D01*
X106066392Y-126693186D01*
X106100500Y-126565892D01*
X106100500Y-126434108D01*
X106066392Y-126306814D01*
X106000500Y-126192686D01*
X105961567Y-126153753D01*
X111150000Y-126153753D01*
X111150000Y-126366246D01*
X111183242Y-126576127D01*
X111183242Y-126576130D01*
X111248904Y-126778217D01*
X111345375Y-126967550D01*
X111384728Y-127021716D01*
X112017037Y-126389408D01*
X112034075Y-126452993D01*
X112099901Y-126567007D01*
X112192993Y-126660099D01*
X112307007Y-126725925D01*
X112370590Y-126742962D01*
X111738282Y-127375269D01*
X111738282Y-127375270D01*
X111792449Y-127414624D01*
X111981782Y-127511095D01*
X112157973Y-127568343D01*
X112215648Y-127607780D01*
X112242847Y-127672139D01*
X112230932Y-127740985D01*
X112183688Y-127792461D01*
X112167108Y-127800835D01*
X112002403Y-127869057D01*
X111830342Y-127984024D01*
X111684024Y-128130342D01*
X111569058Y-128302403D01*
X111489870Y-128493579D01*
X111489868Y-128493587D01*
X111449500Y-128696530D01*
X111449500Y-128903469D01*
X111489868Y-129106412D01*
X111489870Y-129106420D01*
X111569058Y-129297596D01*
X111684024Y-129469657D01*
X111830342Y-129615975D01*
X111830345Y-129615977D01*
X112002402Y-129730941D01*
X112193580Y-129810130D01*
X112396530Y-129850499D01*
X112396534Y-129850500D01*
X112396535Y-129850500D01*
X112603466Y-129850500D01*
X112603467Y-129850499D01*
X112806420Y-129810130D01*
X112997598Y-129730941D01*
X113169655Y-129615977D01*
X113315977Y-129469655D01*
X113430941Y-129297598D01*
X113510130Y-129106420D01*
X113550500Y-128903465D01*
X113550500Y-128696535D01*
X113510130Y-128493580D01*
X113430941Y-128302402D01*
X113315977Y-128130345D01*
X113315975Y-128130342D01*
X113169657Y-127984024D01*
X113044653Y-127900500D01*
X112997598Y-127869059D01*
X112997593Y-127869057D01*
X112869242Y-127815892D01*
X112832890Y-127800834D01*
X112778488Y-127756994D01*
X112756423Y-127690700D01*
X112773702Y-127623001D01*
X112824839Y-127575390D01*
X112842026Y-127568343D01*
X113018217Y-127511095D01*
X113207554Y-127414622D01*
X113261716Y-127375270D01*
X113261717Y-127375270D01*
X112629408Y-126742962D01*
X112692993Y-126725925D01*
X112807007Y-126660099D01*
X112900099Y-126567007D01*
X112965925Y-126452993D01*
X112982962Y-126389409D01*
X113615270Y-127021717D01*
X113615270Y-127021716D01*
X113654622Y-126967554D01*
X113751095Y-126778217D01*
X113816757Y-126576130D01*
X113816757Y-126576127D01*
X113850000Y-126366246D01*
X113850000Y-126153753D01*
X113816757Y-125943872D01*
X113816757Y-125943869D01*
X113751095Y-125741782D01*
X113654624Y-125552449D01*
X113615270Y-125498282D01*
X113615269Y-125498282D01*
X112982962Y-126130590D01*
X112965925Y-126067007D01*
X112900099Y-125952993D01*
X112807007Y-125859901D01*
X112692993Y-125794075D01*
X112629409Y-125777037D01*
X113261716Y-125144728D01*
X113207550Y-125105375D01*
X113018217Y-125008904D01*
X112816129Y-124943242D01*
X112606246Y-124910000D01*
X112393754Y-124910000D01*
X112183872Y-124943242D01*
X112183869Y-124943242D01*
X111981782Y-125008904D01*
X111792439Y-125105380D01*
X111738282Y-125144727D01*
X111738282Y-125144728D01*
X112370591Y-125777037D01*
X112307007Y-125794075D01*
X112192993Y-125859901D01*
X112099901Y-125952993D01*
X112034075Y-126067007D01*
X112017037Y-126130591D01*
X111384728Y-125498282D01*
X111384727Y-125498282D01*
X111345380Y-125552439D01*
X111248904Y-125741782D01*
X111183242Y-125943869D01*
X111183242Y-125943872D01*
X111150000Y-126153753D01*
X105961567Y-126153753D01*
X105907314Y-126099500D01*
X105850250Y-126066554D01*
X105793187Y-126033608D01*
X105729539Y-126016554D01*
X105665892Y-125999500D01*
X105534108Y-125999500D01*
X105406812Y-126033608D01*
X105292686Y-126099500D01*
X105292683Y-126099502D01*
X105199502Y-126192683D01*
X105199500Y-126192686D01*
X105133608Y-126306812D01*
X105126294Y-126334110D01*
X105099500Y-126434108D01*
X103000500Y-126434108D01*
X102966392Y-126306814D01*
X102900500Y-126192686D01*
X102807314Y-126099500D01*
X102750250Y-126066554D01*
X102693187Y-126033608D01*
X102629539Y-126016554D01*
X102565892Y-125999500D01*
X102434108Y-125999500D01*
X102306812Y-126033608D01*
X102192686Y-126099500D01*
X102192683Y-126099502D01*
X102099502Y-126192683D01*
X102099500Y-126192686D01*
X102033608Y-126306812D01*
X102026294Y-126334110D01*
X101999500Y-126434108D01*
X98900500Y-126434108D01*
X98900500Y-126334108D01*
X98866392Y-126206814D01*
X98800500Y-126092686D01*
X98707314Y-125999500D01*
X98610959Y-125943869D01*
X98593187Y-125933608D01*
X98529539Y-125916554D01*
X98465892Y-125899500D01*
X98334108Y-125899500D01*
X98206812Y-125933608D01*
X98092686Y-125999500D01*
X98092683Y-125999502D01*
X97999502Y-126092683D01*
X97999500Y-126092686D01*
X97933608Y-126206812D01*
X97899500Y-126334108D01*
X90280654Y-126334108D01*
X90233380Y-126306814D01*
X90193187Y-126283608D01*
X90129539Y-126266554D01*
X90065892Y-126249500D01*
X89934108Y-126249500D01*
X89806812Y-126283608D01*
X89692686Y-126349500D01*
X89692683Y-126349502D01*
X89599502Y-126442683D01*
X89599500Y-126442686D01*
X89533608Y-126556812D01*
X89499500Y-126684108D01*
X66500000Y-126684108D01*
X66500000Y-125070375D01*
X66519685Y-125003336D01*
X66572489Y-124957581D01*
X66641647Y-124947637D01*
X66699484Y-124971998D01*
X66823226Y-125066948D01*
X67016274Y-125178405D01*
X67222219Y-125263710D01*
X67437537Y-125321404D01*
X67658543Y-125350500D01*
X67658550Y-125350500D01*
X67881450Y-125350500D01*
X67881457Y-125350500D01*
X68102463Y-125321404D01*
X68317781Y-125263710D01*
X68523726Y-125178405D01*
X68716774Y-125066948D01*
X68893624Y-124931247D01*
X69051247Y-124773624D01*
X69186948Y-124596774D01*
X69298405Y-124403726D01*
X69383710Y-124197781D01*
X69441404Y-123982463D01*
X69470500Y-123761457D01*
X69470500Y-123538549D01*
X82299500Y-123538549D01*
X82299500Y-123761450D01*
X82299501Y-123761466D01*
X82328594Y-123982452D01*
X82328595Y-123982457D01*
X82328596Y-123982463D01*
X82373621Y-124150499D01*
X82386290Y-124197780D01*
X82386293Y-124197790D01*
X82471593Y-124403722D01*
X82471595Y-124403726D01*
X82583052Y-124596774D01*
X82583057Y-124596780D01*
X82583058Y-124596782D01*
X82718751Y-124773622D01*
X82718757Y-124773629D01*
X82876370Y-124931242D01*
X82876377Y-124931248D01*
X82892008Y-124943242D01*
X83053226Y-125066948D01*
X83246274Y-125178405D01*
X83452219Y-125263710D01*
X83667537Y-125321404D01*
X83888543Y-125350500D01*
X83888550Y-125350500D01*
X84111450Y-125350500D01*
X84111457Y-125350500D01*
X84332463Y-125321404D01*
X84547781Y-125263710D01*
X84753726Y-125178405D01*
X84946774Y-125066948D01*
X85123624Y-124931247D01*
X85281247Y-124773624D01*
X85349935Y-124684108D01*
X91999500Y-124684108D01*
X91999500Y-124815891D01*
X92033608Y-124943187D01*
X92041919Y-124957581D01*
X92099500Y-125057314D01*
X92192686Y-125150500D01*
X92306814Y-125216392D01*
X92434108Y-125250500D01*
X92434110Y-125250500D01*
X92565890Y-125250500D01*
X92565892Y-125250500D01*
X92693186Y-125216392D01*
X92807314Y-125150500D01*
X92900500Y-125057314D01*
X92966392Y-124943186D01*
X93000500Y-124815892D01*
X93000500Y-124684108D01*
X92966392Y-124556814D01*
X92900500Y-124442686D01*
X92807314Y-124349500D01*
X92750250Y-124316554D01*
X92693187Y-124283608D01*
X92629539Y-124266554D01*
X92565892Y-124249500D01*
X92434108Y-124249500D01*
X92306812Y-124283608D01*
X92192686Y-124349500D01*
X92192683Y-124349502D01*
X92099502Y-124442683D01*
X92099500Y-124442686D01*
X92033608Y-124556812D01*
X91999500Y-124684108D01*
X85349935Y-124684108D01*
X85416948Y-124596774D01*
X85528405Y-124403726D01*
X85613710Y-124197781D01*
X85671404Y-123982463D01*
X85677770Y-123934108D01*
X99499500Y-123934108D01*
X99499500Y-124065891D01*
X99533608Y-124193187D01*
X99536266Y-124197790D01*
X99599500Y-124307314D01*
X99692686Y-124400500D01*
X99806814Y-124466392D01*
X99934108Y-124500500D01*
X99934110Y-124500500D01*
X100065890Y-124500500D01*
X100065892Y-124500500D01*
X100193186Y-124466392D01*
X100307314Y-124400500D01*
X100400500Y-124307314D01*
X100466392Y-124193186D01*
X100500500Y-124065892D01*
X100500500Y-123934108D01*
X100466392Y-123806814D01*
X100400500Y-123692686D01*
X100391922Y-123684108D01*
X105099500Y-123684108D01*
X105099500Y-123815891D01*
X105133608Y-123943187D01*
X105156286Y-123982465D01*
X105199500Y-124057314D01*
X105292686Y-124150500D01*
X105406814Y-124216392D01*
X105534108Y-124250500D01*
X105534110Y-124250500D01*
X105665890Y-124250500D01*
X105665892Y-124250500D01*
X105793186Y-124216392D01*
X105907314Y-124150500D01*
X106000500Y-124057314D01*
X106066392Y-123943186D01*
X106100500Y-123815892D01*
X106100500Y-123684108D01*
X106066392Y-123556814D01*
X106000500Y-123442686D01*
X105907314Y-123349500D01*
X105850250Y-123316554D01*
X105793187Y-123283608D01*
X105729539Y-123266554D01*
X105665892Y-123249500D01*
X105534108Y-123249500D01*
X105406812Y-123283608D01*
X105292686Y-123349500D01*
X105292683Y-123349502D01*
X105199502Y-123442683D01*
X105199500Y-123442686D01*
X105133608Y-123556812D01*
X105099500Y-123684108D01*
X100391922Y-123684108D01*
X100307314Y-123599500D01*
X100233380Y-123556814D01*
X100193187Y-123533608D01*
X100129539Y-123516554D01*
X100065892Y-123499500D01*
X99934108Y-123499500D01*
X99806812Y-123533608D01*
X99692686Y-123599500D01*
X99692683Y-123599502D01*
X99599502Y-123692683D01*
X99599500Y-123692686D01*
X99533608Y-123806812D01*
X99499500Y-123934108D01*
X85677770Y-123934108D01*
X85700500Y-123761457D01*
X85700500Y-123538543D01*
X85671404Y-123317537D01*
X85643882Y-123214823D01*
X85645545Y-123144975D01*
X85684708Y-123087113D01*
X85748936Y-123059609D01*
X85798391Y-123066420D01*
X85798963Y-123064288D01*
X85806812Y-123066391D01*
X85806814Y-123066392D01*
X85934108Y-123100500D01*
X85934110Y-123100500D01*
X86065890Y-123100500D01*
X86065892Y-123100500D01*
X86193186Y-123066392D01*
X86307314Y-123000500D01*
X86373706Y-122934108D01*
X87749500Y-122934108D01*
X87749500Y-123065892D01*
X87755186Y-123087113D01*
X87783608Y-123193187D01*
X87796101Y-123214825D01*
X87849500Y-123307314D01*
X87942686Y-123400500D01*
X88056814Y-123466392D01*
X88184108Y-123500500D01*
X88184110Y-123500500D01*
X88315890Y-123500500D01*
X88315892Y-123500500D01*
X88443186Y-123466392D01*
X88557314Y-123400500D01*
X88650500Y-123307314D01*
X88716392Y-123193186D01*
X88750500Y-123065892D01*
X88750500Y-122934479D01*
X88770185Y-122867440D01*
X88822989Y-122821685D01*
X88892147Y-122811741D01*
X88943390Y-122831376D01*
X89026086Y-122886632D01*
X89026088Y-122886633D01*
X89026092Y-122886635D01*
X89208160Y-122962049D01*
X89208165Y-122962051D01*
X89208169Y-122962051D01*
X89208170Y-122962052D01*
X89401456Y-123000500D01*
X89401459Y-123000500D01*
X89598543Y-123000500D01*
X89728582Y-122974632D01*
X89791835Y-122962051D01*
X89973914Y-122886632D01*
X90137782Y-122777139D01*
X90277139Y-122637782D01*
X90386632Y-122473914D01*
X90462051Y-122291835D01*
X90493525Y-122133608D01*
X90500500Y-122098543D01*
X93499499Y-122098543D01*
X93537947Y-122291829D01*
X93537950Y-122291839D01*
X93613364Y-122473907D01*
X93613371Y-122473920D01*
X93722860Y-122637781D01*
X93722863Y-122637785D01*
X93862214Y-122777136D01*
X93862218Y-122777139D01*
X94026079Y-122886628D01*
X94026092Y-122886635D01*
X94208160Y-122962049D01*
X94208165Y-122962051D01*
X94208169Y-122962051D01*
X94208170Y-122962052D01*
X94401456Y-123000500D01*
X94401459Y-123000500D01*
X94598543Y-123000500D01*
X94728582Y-122974632D01*
X94791835Y-122962051D01*
X94973914Y-122886632D01*
X95137782Y-122777139D01*
X95277139Y-122637782D01*
X95386632Y-122473914D01*
X95436636Y-122353194D01*
X95444541Y-122334108D01*
X97999500Y-122334108D01*
X97999500Y-122465892D01*
X98008505Y-122499500D01*
X98033608Y-122593187D01*
X98059357Y-122637785D01*
X98099500Y-122707314D01*
X98192686Y-122800500D01*
X98306814Y-122866392D01*
X98434108Y-122900500D01*
X98434110Y-122900500D01*
X98565890Y-122900500D01*
X98565892Y-122900500D01*
X98693186Y-122866392D01*
X98807314Y-122800500D01*
X98900500Y-122707314D01*
X98966392Y-122593186D01*
X99000500Y-122465892D01*
X99000500Y-122334108D01*
X98966392Y-122206814D01*
X98900500Y-122092686D01*
X98807314Y-121999500D01*
X98742447Y-121962049D01*
X98693187Y-121933608D01*
X98629539Y-121916554D01*
X98565892Y-121899500D01*
X98434108Y-121899500D01*
X98306812Y-121933608D01*
X98192686Y-121999500D01*
X98192683Y-121999502D01*
X98099502Y-122092683D01*
X98099500Y-122092686D01*
X98033608Y-122206812D01*
X98010827Y-122291834D01*
X97999500Y-122334108D01*
X95444541Y-122334108D01*
X95462051Y-122291835D01*
X95462051Y-122291834D01*
X95500500Y-122098543D01*
X95500500Y-121901456D01*
X95462052Y-121708170D01*
X95462051Y-121708169D01*
X95462051Y-121708165D01*
X95417455Y-121600499D01*
X95386635Y-121526092D01*
X95386628Y-121526079D01*
X95277139Y-121362218D01*
X95277136Y-121362214D01*
X95137785Y-121222863D01*
X95137781Y-121222860D01*
X94973920Y-121113371D01*
X94973907Y-121113364D01*
X94938125Y-121098543D01*
X101499499Y-121098543D01*
X101537947Y-121291829D01*
X101537950Y-121291839D01*
X101613364Y-121473907D01*
X101613371Y-121473920D01*
X101722860Y-121637781D01*
X101722863Y-121637785D01*
X101862214Y-121777136D01*
X101862218Y-121777139D01*
X102026079Y-121886628D01*
X102026092Y-121886635D01*
X102177864Y-121949500D01*
X102208165Y-121962051D01*
X102208169Y-121962051D01*
X102208170Y-121962052D01*
X102401456Y-122000500D01*
X102401459Y-122000500D01*
X102598543Y-122000500D01*
X102728582Y-121974632D01*
X102791835Y-121962051D01*
X102973914Y-121886632D01*
X103137782Y-121777139D01*
X103277139Y-121637782D01*
X103386632Y-121473914D01*
X103462051Y-121291835D01*
X103497551Y-121113368D01*
X103500500Y-121098543D01*
X103500500Y-120934108D01*
X105099500Y-120934108D01*
X105099500Y-121065891D01*
X105133608Y-121193187D01*
X105150740Y-121222860D01*
X105199500Y-121307314D01*
X105292686Y-121400500D01*
X105406814Y-121466392D01*
X105534108Y-121500500D01*
X105534110Y-121500500D01*
X105665890Y-121500500D01*
X105665892Y-121500500D01*
X105793186Y-121466392D01*
X105907314Y-121400500D01*
X106000500Y-121307314D01*
X106066392Y-121193186D01*
X106100500Y-121065892D01*
X106100500Y-121034108D01*
X108999500Y-121034108D01*
X108999500Y-121165891D01*
X109033608Y-121293187D01*
X109041766Y-121307316D01*
X109099500Y-121407314D01*
X109192686Y-121500500D01*
X109306814Y-121566392D01*
X109434108Y-121600500D01*
X109434110Y-121600500D01*
X109565890Y-121600500D01*
X109565892Y-121600500D01*
X109693186Y-121566392D01*
X109807314Y-121500500D01*
X109900500Y-121407314D01*
X109966392Y-121293186D01*
X110000500Y-121165892D01*
X110000500Y-121034108D01*
X109966392Y-120906814D01*
X109900500Y-120792686D01*
X109807314Y-120699500D01*
X109750250Y-120666554D01*
X109693187Y-120633608D01*
X109629539Y-120616554D01*
X109565892Y-120599500D01*
X109434108Y-120599500D01*
X109306812Y-120633608D01*
X109192686Y-120699500D01*
X109192683Y-120699502D01*
X109099502Y-120792683D01*
X109099500Y-120792686D01*
X109033608Y-120906812D01*
X108999500Y-121034108D01*
X106100500Y-121034108D01*
X106100500Y-120934108D01*
X106066392Y-120806814D01*
X106000500Y-120692686D01*
X105907314Y-120599500D01*
X105822442Y-120550499D01*
X105793187Y-120533608D01*
X105728931Y-120516391D01*
X105665892Y-120499500D01*
X105534108Y-120499500D01*
X105406812Y-120533608D01*
X105292686Y-120599500D01*
X105292683Y-120599502D01*
X105199502Y-120692683D01*
X105199500Y-120692686D01*
X105133608Y-120806812D01*
X105099500Y-120934108D01*
X103500500Y-120934108D01*
X103500500Y-120901456D01*
X103462052Y-120708170D01*
X103462051Y-120708169D01*
X103462051Y-120708165D01*
X103458462Y-120699500D01*
X103386635Y-120526092D01*
X103386628Y-120526079D01*
X103277139Y-120362218D01*
X103277136Y-120362214D01*
X103137785Y-120222863D01*
X103137781Y-120222860D01*
X102973920Y-120113371D01*
X102973907Y-120113364D01*
X102918808Y-120090542D01*
X102791839Y-120037950D01*
X102791829Y-120037947D01*
X102598543Y-119999500D01*
X102598541Y-119999500D01*
X102401459Y-119999500D01*
X102401457Y-119999500D01*
X102208170Y-120037947D01*
X102208160Y-120037950D01*
X102026092Y-120113364D01*
X102026079Y-120113371D01*
X101862218Y-120222860D01*
X101862214Y-120222863D01*
X101722863Y-120362214D01*
X101722860Y-120362218D01*
X101613371Y-120526079D01*
X101613364Y-120526092D01*
X101537950Y-120708160D01*
X101537947Y-120708170D01*
X101499500Y-120901456D01*
X101499500Y-120901459D01*
X101499500Y-121098541D01*
X101499500Y-121098543D01*
X101499499Y-121098543D01*
X94938125Y-121098543D01*
X94791839Y-121037950D01*
X94791829Y-121037947D01*
X94686440Y-121016984D01*
X94598543Y-120999500D01*
X94598541Y-120999500D01*
X94401459Y-120999500D01*
X94401457Y-120999500D01*
X94208170Y-121037947D01*
X94208160Y-121037950D01*
X94026092Y-121113364D01*
X94026079Y-121113371D01*
X93862218Y-121222860D01*
X93862214Y-121222863D01*
X93722863Y-121362214D01*
X93722860Y-121362218D01*
X93613371Y-121526079D01*
X93613364Y-121526092D01*
X93537950Y-121708160D01*
X93537947Y-121708170D01*
X93499500Y-121901456D01*
X93499500Y-121901459D01*
X93499500Y-122098541D01*
X93499500Y-122098543D01*
X93499499Y-122098543D01*
X90500500Y-122098543D01*
X90500500Y-121901456D01*
X90462052Y-121708170D01*
X90462051Y-121708169D01*
X90462051Y-121708165D01*
X90417455Y-121600499D01*
X90386635Y-121526092D01*
X90386628Y-121526079D01*
X90277139Y-121362218D01*
X90277136Y-121362214D01*
X90137785Y-121222863D01*
X90137781Y-121222860D01*
X89973920Y-121113371D01*
X89973907Y-121113364D01*
X89791839Y-121037950D01*
X89791829Y-121037947D01*
X89598543Y-120999500D01*
X89598541Y-120999500D01*
X89401459Y-120999500D01*
X89401457Y-120999500D01*
X89208170Y-121037947D01*
X89208160Y-121037950D01*
X89026092Y-121113364D01*
X89026079Y-121113371D01*
X88862218Y-121222860D01*
X88862214Y-121222863D01*
X88722863Y-121362214D01*
X88722860Y-121362218D01*
X88613371Y-121526079D01*
X88613364Y-121526092D01*
X88537950Y-121708160D01*
X88537947Y-121708170D01*
X88499500Y-121901456D01*
X88499500Y-121901459D01*
X88499500Y-122098541D01*
X88499500Y-122098543D01*
X88499499Y-122098543D01*
X88537947Y-122291829D01*
X88537949Y-122291834D01*
X88537949Y-122291835D01*
X88557549Y-122339155D01*
X88566203Y-122360046D01*
X88573672Y-122429516D01*
X88542397Y-122491995D01*
X88482308Y-122527647D01*
X88419550Y-122527274D01*
X88315893Y-122499500D01*
X88315892Y-122499500D01*
X88184108Y-122499500D01*
X88056812Y-122533608D01*
X87942686Y-122599500D01*
X87942683Y-122599502D01*
X87849502Y-122692683D01*
X87849500Y-122692686D01*
X87783608Y-122806812D01*
X87767644Y-122866392D01*
X87749500Y-122934108D01*
X86373706Y-122934108D01*
X86400500Y-122907314D01*
X86413023Y-122885622D01*
X86425520Y-122863980D01*
X86466390Y-122793189D01*
X86466392Y-122793186D01*
X86500500Y-122665892D01*
X86500500Y-122534108D01*
X86466392Y-122406814D01*
X86400500Y-122292686D01*
X86307314Y-122199500D01*
X86250250Y-122166554D01*
X86193187Y-122133608D01*
X86129539Y-122116554D01*
X86065892Y-122099500D01*
X85934108Y-122099500D01*
X85806812Y-122133608D01*
X85692686Y-122199500D01*
X85692683Y-122199502D01*
X85599502Y-122292683D01*
X85599500Y-122292686D01*
X85555583Y-122368753D01*
X85533608Y-122406814D01*
X85515631Y-122473907D01*
X85509627Y-122496314D01*
X85473262Y-122555974D01*
X85410415Y-122586503D01*
X85341039Y-122578208D01*
X85291476Y-122539706D01*
X85281248Y-122526377D01*
X85281242Y-122526370D01*
X85123629Y-122368757D01*
X85123622Y-122368751D01*
X84946782Y-122233058D01*
X84946780Y-122233057D01*
X84946774Y-122233052D01*
X84753726Y-122121595D01*
X84753722Y-122121593D01*
X84547790Y-122036293D01*
X84547783Y-122036291D01*
X84547781Y-122036290D01*
X84332463Y-121978596D01*
X84332457Y-121978595D01*
X84332452Y-121978594D01*
X84111466Y-121949501D01*
X84111463Y-121949500D01*
X84111457Y-121949500D01*
X83888543Y-121949500D01*
X83888537Y-121949500D01*
X83888533Y-121949501D01*
X83667547Y-121978594D01*
X83667540Y-121978595D01*
X83667537Y-121978596D01*
X83585790Y-122000500D01*
X83452219Y-122036290D01*
X83452209Y-122036293D01*
X83246277Y-122121593D01*
X83246273Y-122121595D01*
X83053226Y-122233052D01*
X83053217Y-122233058D01*
X82876377Y-122368751D01*
X82876370Y-122368757D01*
X82718757Y-122526370D01*
X82718751Y-122526377D01*
X82583058Y-122703217D01*
X82583052Y-122703226D01*
X82471595Y-122896273D01*
X82471593Y-122896277D01*
X82386293Y-123102209D01*
X82386290Y-123102219D01*
X82331336Y-123307313D01*
X82328597Y-123317534D01*
X82328594Y-123317547D01*
X82299501Y-123538533D01*
X82299500Y-123538549D01*
X69470500Y-123538549D01*
X69470500Y-123538543D01*
X69441404Y-123317537D01*
X69383710Y-123102219D01*
X69368662Y-123065891D01*
X69298406Y-122896277D01*
X69298405Y-122896274D01*
X69186948Y-122703226D01*
X69073958Y-122555974D01*
X69051248Y-122526377D01*
X69051242Y-122526370D01*
X68893629Y-122368757D01*
X68893622Y-122368751D01*
X68716782Y-122233058D01*
X68716780Y-122233057D01*
X68716774Y-122233052D01*
X68523726Y-122121595D01*
X68523722Y-122121593D01*
X68317790Y-122036293D01*
X68317783Y-122036291D01*
X68317781Y-122036290D01*
X68102463Y-121978596D01*
X68102457Y-121978595D01*
X68102452Y-121978594D01*
X67881466Y-121949501D01*
X67881463Y-121949500D01*
X67881457Y-121949500D01*
X67658543Y-121949500D01*
X67658537Y-121949500D01*
X67658533Y-121949501D01*
X67437547Y-121978594D01*
X67437540Y-121978595D01*
X67437537Y-121978596D01*
X67355790Y-122000500D01*
X67222219Y-122036290D01*
X67222209Y-122036293D01*
X67016277Y-122121593D01*
X67016273Y-122121595D01*
X66823226Y-122233052D01*
X66823217Y-122233058D01*
X66699486Y-122328000D01*
X66634317Y-122353194D01*
X66565872Y-122339155D01*
X66515882Y-122290341D01*
X66500000Y-122229624D01*
X66500000Y-119934108D01*
X74999500Y-119934108D01*
X74999500Y-120065891D01*
X75033608Y-120193187D01*
X75047005Y-120216391D01*
X75099500Y-120307314D01*
X75192686Y-120400500D01*
X75306814Y-120466392D01*
X75434108Y-120500500D01*
X75434110Y-120500500D01*
X75565890Y-120500500D01*
X75565892Y-120500500D01*
X75693186Y-120466392D01*
X75807314Y-120400500D01*
X75900500Y-120307314D01*
X75966392Y-120193186D01*
X76000500Y-120065892D01*
X76000500Y-119934108D01*
X75966392Y-119806814D01*
X75900500Y-119692686D01*
X75891922Y-119684108D01*
X85499500Y-119684108D01*
X85499500Y-119815891D01*
X85533608Y-119943187D01*
X85566121Y-119999500D01*
X85599500Y-120057314D01*
X85692686Y-120150500D01*
X85806814Y-120216392D01*
X85934108Y-120250500D01*
X85934110Y-120250500D01*
X86065890Y-120250500D01*
X86065892Y-120250500D01*
X86193186Y-120216392D01*
X86307314Y-120150500D01*
X86400500Y-120057314D01*
X86442766Y-119984108D01*
X105999500Y-119984108D01*
X105999500Y-120115891D01*
X106033608Y-120243187D01*
X106066554Y-120300250D01*
X106099500Y-120357314D01*
X106192686Y-120450500D01*
X106306814Y-120516392D01*
X106434108Y-120550500D01*
X106434110Y-120550500D01*
X106565890Y-120550500D01*
X106565892Y-120550500D01*
X106693186Y-120516392D01*
X106807314Y-120450500D01*
X106900500Y-120357314D01*
X106966392Y-120243186D01*
X107000500Y-120115892D01*
X107000500Y-119984108D01*
X106966392Y-119856814D01*
X106900500Y-119742686D01*
X106807314Y-119649500D01*
X106750250Y-119616554D01*
X106693187Y-119583608D01*
X106593188Y-119556814D01*
X106565892Y-119549500D01*
X106434108Y-119549500D01*
X106306812Y-119583608D01*
X106192686Y-119649500D01*
X106192683Y-119649502D01*
X106099502Y-119742683D01*
X106099500Y-119742686D01*
X106033608Y-119856812D01*
X105999500Y-119984108D01*
X86442766Y-119984108D01*
X86466392Y-119943186D01*
X86500500Y-119815892D01*
X86500500Y-119684108D01*
X86466392Y-119556814D01*
X86400500Y-119442686D01*
X86307314Y-119349500D01*
X86221576Y-119299999D01*
X86193187Y-119283608D01*
X86126639Y-119265777D01*
X86065892Y-119249500D01*
X85934108Y-119249500D01*
X85806812Y-119283608D01*
X85692686Y-119349500D01*
X85692683Y-119349502D01*
X85599502Y-119442683D01*
X85599500Y-119442686D01*
X85533608Y-119556812D01*
X85499500Y-119684108D01*
X75891922Y-119684108D01*
X75807314Y-119599500D01*
X75733380Y-119556814D01*
X75693187Y-119533608D01*
X75629539Y-119516554D01*
X75565892Y-119499500D01*
X75434108Y-119499500D01*
X75306812Y-119533608D01*
X75192686Y-119599500D01*
X75192683Y-119599502D01*
X75099502Y-119692683D01*
X75099500Y-119692686D01*
X75033608Y-119806812D01*
X74999500Y-119934108D01*
X66500000Y-119934108D01*
X66500000Y-118720375D01*
X66519685Y-118653336D01*
X66572489Y-118607581D01*
X66641647Y-118597637D01*
X66699484Y-118621998D01*
X66823226Y-118716948D01*
X67016274Y-118828405D01*
X67222219Y-118913710D01*
X67437537Y-118971404D01*
X67658543Y-119000500D01*
X67658550Y-119000500D01*
X67881450Y-119000500D01*
X67881457Y-119000500D01*
X68102463Y-118971404D01*
X68317781Y-118913710D01*
X68523726Y-118828405D01*
X68658661Y-118750500D01*
X68703559Y-118724578D01*
X68710838Y-118720375D01*
X68716774Y-118716948D01*
X68893624Y-118581247D01*
X69051247Y-118423624D01*
X69186948Y-118246774D01*
X69298405Y-118053726D01*
X69383710Y-117847781D01*
X69441404Y-117632463D01*
X69470500Y-117411457D01*
X69470500Y-117188543D01*
X69467915Y-117168905D01*
X82000000Y-117168905D01*
X82000000Y-117431094D01*
X82034220Y-117691009D01*
X82034222Y-117691020D01*
X82102075Y-117944255D01*
X82202404Y-118186471D01*
X82202409Y-118186482D01*
X82333488Y-118413516D01*
X82333494Y-118413524D01*
X82420080Y-118526365D01*
X83360689Y-117585756D01*
X83379668Y-117631574D01*
X83456274Y-117746224D01*
X83553776Y-117843726D01*
X83668426Y-117920332D01*
X83714242Y-117939309D01*
X82773633Y-118879917D01*
X82773633Y-118879918D01*
X82886475Y-118966505D01*
X82886483Y-118966511D01*
X83113517Y-119097590D01*
X83113528Y-119097595D01*
X83355744Y-119197924D01*
X83608979Y-119265777D01*
X83608990Y-119265779D01*
X83868905Y-119299999D01*
X83868920Y-119300000D01*
X84131080Y-119300000D01*
X84131094Y-119299999D01*
X84391009Y-119265779D01*
X84391020Y-119265777D01*
X84644255Y-119197924D01*
X84886471Y-119097595D01*
X84886482Y-119097590D01*
X85113516Y-118966511D01*
X85113534Y-118966499D01*
X85226365Y-118879919D01*
X85226365Y-118879917D01*
X84285757Y-117939309D01*
X84331574Y-117920332D01*
X84446224Y-117843726D01*
X84543726Y-117746224D01*
X84620332Y-117631574D01*
X84639309Y-117585757D01*
X85579917Y-118526365D01*
X85579919Y-118526365D01*
X85666499Y-118413534D01*
X85666511Y-118413516D01*
X85797590Y-118186482D01*
X85797595Y-118186471D01*
X85897924Y-117944255D01*
X85965777Y-117691020D01*
X85965779Y-117691009D01*
X85999999Y-117431094D01*
X86000000Y-117431080D01*
X86000000Y-117168919D01*
X85999999Y-117168905D01*
X85990735Y-117098543D01*
X88499499Y-117098543D01*
X88537947Y-117291829D01*
X88537950Y-117291839D01*
X88613364Y-117473907D01*
X88613371Y-117473920D01*
X88722860Y-117637781D01*
X88722863Y-117637785D01*
X88862214Y-117777136D01*
X88862218Y-117777139D01*
X89026079Y-117886628D01*
X89026092Y-117886635D01*
X89161406Y-117942683D01*
X89208165Y-117962051D01*
X89208169Y-117962051D01*
X89208170Y-117962052D01*
X89407434Y-118001689D01*
X89407095Y-118003389D01*
X89464236Y-118026451D01*
X89504604Y-118083479D01*
X89507732Y-118153279D01*
X89507085Y-118155797D01*
X89499500Y-118184103D01*
X89499500Y-118315891D01*
X89533608Y-118443187D01*
X89566554Y-118500250D01*
X89599500Y-118557314D01*
X89692686Y-118650500D01*
X89806814Y-118716392D01*
X89934108Y-118750500D01*
X89934110Y-118750500D01*
X90065890Y-118750500D01*
X90065892Y-118750500D01*
X90193186Y-118716392D01*
X90307314Y-118650500D01*
X90400500Y-118557314D01*
X90466392Y-118443186D01*
X90500500Y-118315892D01*
X90500500Y-118184108D01*
X90466392Y-118056814D01*
X90400500Y-117942686D01*
X90307314Y-117849500D01*
X90293908Y-117841760D01*
X90245694Y-117791195D01*
X90232470Y-117722589D01*
X90258437Y-117657724D01*
X90268223Y-117646697D01*
X90277139Y-117637782D01*
X90386632Y-117473914D01*
X90462051Y-117291835D01*
X90474632Y-117228582D01*
X90500500Y-117098543D01*
X90500500Y-116901458D01*
X90500499Y-116901455D01*
X90499748Y-116897682D01*
X93200000Y-116897682D01*
X93200000Y-117102317D01*
X93232009Y-117304417D01*
X93295244Y-117499031D01*
X93388141Y-117681350D01*
X93388147Y-117681359D01*
X93420523Y-117725921D01*
X93420524Y-117725922D01*
X94100000Y-117046446D01*
X94100000Y-117052661D01*
X94127259Y-117154394D01*
X94179920Y-117245606D01*
X94254394Y-117320080D01*
X94345606Y-117372741D01*
X94447339Y-117400000D01*
X94453553Y-117400000D01*
X93774076Y-118079474D01*
X93818650Y-118111859D01*
X94000968Y-118204755D01*
X94195582Y-118267990D01*
X94397683Y-118300000D01*
X94602317Y-118300000D01*
X94804417Y-118267990D01*
X94999031Y-118204755D01*
X95181349Y-118111859D01*
X95225921Y-118079474D01*
X94880555Y-117734108D01*
X98899500Y-117734108D01*
X98899500Y-117865891D01*
X98933608Y-117993187D01*
X98966554Y-118050250D01*
X98999500Y-118107314D01*
X99092686Y-118200500D01*
X99206814Y-118266392D01*
X99334108Y-118300500D01*
X99334110Y-118300500D01*
X99465890Y-118300500D01*
X99465892Y-118300500D01*
X99593186Y-118266392D01*
X99707314Y-118200500D01*
X99800500Y-118107314D01*
X99866392Y-117993186D01*
X99900500Y-117865892D01*
X99900500Y-117734108D01*
X99866392Y-117606814D01*
X99800500Y-117492686D01*
X99707314Y-117399500D01*
X99627732Y-117353553D01*
X99593187Y-117333608D01*
X99529539Y-117316554D01*
X99465892Y-117299500D01*
X99334108Y-117299500D01*
X99206812Y-117333608D01*
X99092686Y-117399500D01*
X99092683Y-117399502D01*
X98999502Y-117492683D01*
X98999500Y-117492686D01*
X98933608Y-117606812D01*
X98899500Y-117734108D01*
X94880555Y-117734108D01*
X94546447Y-117400000D01*
X94552661Y-117400000D01*
X94654394Y-117372741D01*
X94745606Y-117320080D01*
X94820080Y-117245606D01*
X94872741Y-117154394D01*
X94900000Y-117052661D01*
X94900000Y-117046447D01*
X95579474Y-117725921D01*
X95611861Y-117681347D01*
X95617801Y-117669689D01*
X95617801Y-117669688D01*
X95617802Y-117669686D01*
X95704755Y-117499031D01*
X95767990Y-117304417D01*
X95800000Y-117102317D01*
X95800000Y-116897682D01*
X95767990Y-116695582D01*
X95704755Y-116500968D01*
X95611859Y-116318650D01*
X95579474Y-116274077D01*
X95579474Y-116274076D01*
X94900000Y-116953551D01*
X94900000Y-116947339D01*
X94872741Y-116845606D01*
X94820080Y-116754394D01*
X94745606Y-116679920D01*
X94654394Y-116627259D01*
X94552661Y-116600000D01*
X94546446Y-116600000D01*
X95225922Y-115920524D01*
X95225921Y-115920523D01*
X95194483Y-115897682D01*
X101200000Y-115897682D01*
X101200000Y-116102317D01*
X101232009Y-116304417D01*
X101295244Y-116499031D01*
X101388141Y-116681350D01*
X101388147Y-116681359D01*
X101420523Y-116725921D01*
X101420524Y-116725922D01*
X102100000Y-116046446D01*
X102100000Y-116052661D01*
X102127259Y-116154394D01*
X102179920Y-116245606D01*
X102254394Y-116320080D01*
X102345606Y-116372741D01*
X102447339Y-116400000D01*
X102453553Y-116400000D01*
X101774076Y-117079474D01*
X101818650Y-117111859D01*
X102000968Y-117204755D01*
X102195582Y-117267990D01*
X102397683Y-117300000D01*
X102602317Y-117300000D01*
X102804417Y-117267990D01*
X102999031Y-117204755D01*
X103181349Y-117111859D01*
X103225921Y-117079474D01*
X102546447Y-116400000D01*
X102552661Y-116400000D01*
X102654394Y-116372741D01*
X102745606Y-116320080D01*
X102820080Y-116245606D01*
X102872741Y-116154394D01*
X102900000Y-116052661D01*
X102900000Y-116046447D01*
X103579474Y-116725921D01*
X103611859Y-116681349D01*
X103686881Y-116534108D01*
X104699500Y-116534108D01*
X104699500Y-116665892D01*
X104707455Y-116695582D01*
X104733608Y-116793187D01*
X104741475Y-116806812D01*
X104799500Y-116907314D01*
X104892686Y-117000500D01*
X104983031Y-117052661D01*
X105005944Y-117065890D01*
X105006814Y-117066392D01*
X105134108Y-117100500D01*
X105134110Y-117100500D01*
X105265890Y-117100500D01*
X105265892Y-117100500D01*
X105393186Y-117066392D01*
X105507314Y-117000500D01*
X105573706Y-116934108D01*
X112999500Y-116934108D01*
X112999500Y-117065891D01*
X113033608Y-117193187D01*
X113040287Y-117204755D01*
X113099500Y-117307314D01*
X113192686Y-117400500D01*
X113306814Y-117466392D01*
X113434108Y-117500500D01*
X113434110Y-117500500D01*
X113565890Y-117500500D01*
X113565892Y-117500500D01*
X113693186Y-117466392D01*
X113807314Y-117400500D01*
X113900500Y-117307314D01*
X113966392Y-117193186D01*
X114000500Y-117065892D01*
X114000500Y-116934108D01*
X113966392Y-116806814D01*
X113900500Y-116692686D01*
X113807314Y-116599500D01*
X113750250Y-116566554D01*
X113693187Y-116533608D01*
X113629539Y-116516554D01*
X113565892Y-116499500D01*
X113434108Y-116499500D01*
X113306812Y-116533608D01*
X113192686Y-116599500D01*
X113192683Y-116599502D01*
X113099502Y-116692683D01*
X113099500Y-116692686D01*
X113033608Y-116806812D01*
X112999500Y-116934108D01*
X105573706Y-116934108D01*
X105600500Y-116907314D01*
X105613023Y-116885622D01*
X105625520Y-116863980D01*
X105666390Y-116793189D01*
X105666392Y-116793186D01*
X105700500Y-116665892D01*
X105700500Y-116534108D01*
X105666392Y-116406814D01*
X105600500Y-116292686D01*
X105507314Y-116199500D01*
X105450250Y-116166554D01*
X105393187Y-116133608D01*
X105317660Y-116113371D01*
X105265892Y-116099500D01*
X105134108Y-116099500D01*
X105006812Y-116133608D01*
X104892686Y-116199500D01*
X104892683Y-116199502D01*
X104799502Y-116292683D01*
X104799500Y-116292686D01*
X104733608Y-116406812D01*
X104711945Y-116487662D01*
X104699500Y-116534108D01*
X103686881Y-116534108D01*
X103704755Y-116499029D01*
X103708449Y-116487663D01*
X103708449Y-116487662D01*
X103767990Y-116304417D01*
X103800000Y-116102317D01*
X103800000Y-115897682D01*
X103767990Y-115695582D01*
X103704755Y-115500968D01*
X103611859Y-115318650D01*
X103579474Y-115274077D01*
X103579474Y-115274076D01*
X102900000Y-115953551D01*
X102900000Y-115947339D01*
X102872741Y-115845606D01*
X102820080Y-115754394D01*
X102745606Y-115679920D01*
X102654394Y-115627259D01*
X102552661Y-115600000D01*
X102546446Y-115600000D01*
X103225922Y-114920524D01*
X103225921Y-114920523D01*
X103181359Y-114888147D01*
X103181350Y-114888141D01*
X102999031Y-114795244D01*
X102804417Y-114732009D01*
X102602317Y-114700000D01*
X102397683Y-114700000D01*
X102195582Y-114732009D01*
X102000968Y-114795244D01*
X101818644Y-114888143D01*
X101774077Y-114920523D01*
X101774077Y-114920524D01*
X102453554Y-115600000D01*
X102447339Y-115600000D01*
X102345606Y-115627259D01*
X102254394Y-115679920D01*
X102179920Y-115754394D01*
X102127259Y-115845606D01*
X102100000Y-115947339D01*
X102100000Y-115953553D01*
X101420524Y-115274077D01*
X101420523Y-115274077D01*
X101388143Y-115318644D01*
X101295244Y-115500968D01*
X101232009Y-115695582D01*
X101200000Y-115897682D01*
X95194483Y-115897682D01*
X95181359Y-115888147D01*
X95181350Y-115888141D01*
X94999031Y-115795244D01*
X94804417Y-115732009D01*
X94602317Y-115700000D01*
X94397683Y-115700000D01*
X94195582Y-115732009D01*
X94000968Y-115795244D01*
X93818644Y-115888143D01*
X93774077Y-115920523D01*
X93774077Y-115920524D01*
X94453554Y-116600000D01*
X94447339Y-116600000D01*
X94345606Y-116627259D01*
X94254394Y-116679920D01*
X94179920Y-116754394D01*
X94127259Y-116845606D01*
X94100000Y-116947339D01*
X94100000Y-116953553D01*
X93420524Y-116274077D01*
X93420523Y-116274077D01*
X93388143Y-116318644D01*
X93295244Y-116500968D01*
X93232009Y-116695582D01*
X93200000Y-116897682D01*
X90499748Y-116897682D01*
X90462051Y-116708165D01*
X90456839Y-116695582D01*
X90386635Y-116526092D01*
X90386628Y-116526079D01*
X90277139Y-116362218D01*
X90277136Y-116362214D01*
X90137785Y-116222863D01*
X90137781Y-116222860D01*
X89973920Y-116113371D01*
X89973907Y-116113364D01*
X89899016Y-116082344D01*
X89791839Y-116037950D01*
X89791829Y-116037947D01*
X89598543Y-115999500D01*
X89598541Y-115999500D01*
X89401459Y-115999500D01*
X89401457Y-115999500D01*
X89208170Y-116037947D01*
X89208160Y-116037950D01*
X89026092Y-116113364D01*
X89026079Y-116113371D01*
X88862218Y-116222860D01*
X88862214Y-116222863D01*
X88722863Y-116362214D01*
X88722860Y-116362218D01*
X88613371Y-116526079D01*
X88613364Y-116526092D01*
X88537950Y-116708160D01*
X88537947Y-116708170D01*
X88499500Y-116901456D01*
X88499500Y-116901458D01*
X88499500Y-116901459D01*
X88499500Y-117098541D01*
X88499500Y-117098543D01*
X88499499Y-117098543D01*
X85990735Y-117098543D01*
X85966117Y-116911553D01*
X85966117Y-116911552D01*
X85966116Y-116911548D01*
X85965778Y-116908983D01*
X85965777Y-116908979D01*
X85897924Y-116655744D01*
X85797595Y-116413528D01*
X85797590Y-116413517D01*
X85666511Y-116186483D01*
X85666505Y-116186475D01*
X85579918Y-116073633D01*
X85579917Y-116073633D01*
X84639309Y-117014242D01*
X84620332Y-116968426D01*
X84543726Y-116853776D01*
X84446224Y-116756274D01*
X84331574Y-116679668D01*
X84285755Y-116660689D01*
X85226365Y-115720080D01*
X85113524Y-115633494D01*
X85113516Y-115633488D01*
X84886482Y-115502409D01*
X84886471Y-115502404D01*
X84644255Y-115402075D01*
X84391020Y-115334222D01*
X84391009Y-115334220D01*
X84131094Y-115300000D01*
X83868905Y-115300000D01*
X83608990Y-115334220D01*
X83608979Y-115334222D01*
X83355744Y-115402075D01*
X83113528Y-115502404D01*
X83113517Y-115502409D01*
X82886471Y-115633496D01*
X82773633Y-115720079D01*
X82773633Y-115720080D01*
X83714243Y-116660690D01*
X83668426Y-116679668D01*
X83553776Y-116756274D01*
X83456274Y-116853776D01*
X83379668Y-116968426D01*
X83360690Y-117014243D01*
X82420080Y-116073633D01*
X82420079Y-116073633D01*
X82333496Y-116186471D01*
X82202409Y-116413517D01*
X82202404Y-116413528D01*
X82102075Y-116655744D01*
X82034222Y-116908979D01*
X82034220Y-116908990D01*
X82000000Y-117168905D01*
X69467915Y-117168905D01*
X69441404Y-116967537D01*
X69383710Y-116752219D01*
X69372817Y-116725922D01*
X69298406Y-116546277D01*
X69298405Y-116546274D01*
X69186948Y-116353226D01*
X69068991Y-116199500D01*
X69051248Y-116176377D01*
X69051242Y-116176370D01*
X68893629Y-116018757D01*
X68893622Y-116018751D01*
X68716782Y-115883058D01*
X68716780Y-115883056D01*
X68716774Y-115883052D01*
X68716769Y-115883049D01*
X68716766Y-115883047D01*
X68703555Y-115875420D01*
X68523726Y-115771595D01*
X68523722Y-115771593D01*
X68317790Y-115686293D01*
X68317783Y-115686291D01*
X68317781Y-115686290D01*
X68102463Y-115628596D01*
X68102457Y-115628595D01*
X68102452Y-115628594D01*
X67881466Y-115599501D01*
X67881463Y-115599500D01*
X67881457Y-115599500D01*
X67658543Y-115599500D01*
X67658537Y-115599500D01*
X67658533Y-115599501D01*
X67437547Y-115628594D01*
X67437540Y-115628595D01*
X67437537Y-115628596D01*
X67370920Y-115646446D01*
X67222219Y-115686290D01*
X67222209Y-115686293D01*
X67016277Y-115771593D01*
X67016273Y-115771595D01*
X66823226Y-115883052D01*
X66823217Y-115883058D01*
X66699486Y-115978000D01*
X66634317Y-116003194D01*
X66565872Y-115989155D01*
X66515882Y-115940341D01*
X66500000Y-115879624D01*
X66500000Y-112624000D01*
X66519685Y-112556961D01*
X66572489Y-112511206D01*
X66624000Y-112500000D01*
X88325516Y-112500000D01*
X88392555Y-112519685D01*
G37*
%TD.AperFunction*%
%TD*%
M02*
