M48
; DRILL file {KiCad 9.0.4} date 2025-09-30T19:15:50-0700
; FORMAT={-:-/ absolute / inch / decimal}
; #@! TF.CreationDate,2025-09-30T19:15:50-07:00
; #@! TF.GenerationSoftware,Kicad,Pcbnew,9.0.4
; #@! TF.FileFunction,Plated,1,6,PTH
FMAT,2
INCH
; #@! TA.AperFunction,Plated,PTH,ViaDrill
T1C0.0118
; #@! TA.AperFunction,Plated,PTH,ComponentDrill
T2C0.0236
; #@! TA.AperFunction,Plated,PTH,ComponentDrill
T3C0.0256
; #@! TA.AperFunction,Plated,PTH,ComponentDrill
T4C0.0394
; #@! TA.AperFunction,Plated,PTH,ComponentDrill
T5C0.0433
; #@! TA.AperFunction,Plated,PTH,ComponentDrill
T6C0.0512
; #@! TA.AperFunction,Plated,PTH,ComponentDrill
T7C0.0787
%
G90
G05
T1
X6.9459Y-3.3652
X6.9478Y-4.4025
X6.9626Y-4.0
X6.9764Y-4.0787
X6.9803Y-3.349
X6.9803Y-3.4228
X6.998Y-3.7894
X7.0079Y-4.0787
X7.0551Y-3.2835
X7.0551Y-4.4646
X7.0571Y-3.0512
X7.0787Y-4.748
X7.0866Y-3.9173
X7.0945Y-4.2835
X7.1339Y-4.3307
X7.1732Y-4.0787
X7.1811Y-4.626
X7.2047Y-4.0787
X7.211Y-4.3961
X7.2126Y-3.4331
X7.2165Y-3.1614
X7.2201Y-4.6358
X7.2205Y-3.7795
X7.2205Y-3.8976
X7.2205Y-4.4567
X7.2205Y-4.5354
X7.2244Y-3.6181
X7.2303Y-4.5118
X7.252Y-3.5984
X7.2717Y-3.3465
X7.2913Y-4.7559
X7.3028Y-4.4783
X7.3028Y-4.5591
X7.3028Y-4.6358
X7.3031Y-3.7283
X7.3071Y-4.1102
X7.3071Y-4.2047
X7.3071Y-4.3307
X7.3386Y-3.9055
X7.3543Y-3.6772
X7.3543Y-3.9921
X7.3839Y-4.6654
X7.3858Y-3.4528
X7.3858Y-3.9921
X7.3937Y-4.2205
X7.3937Y-4.252
X7.4508Y-4.5079
X7.4587Y-4.6516
X7.4606Y-4.5644
X7.4803Y-3.5787
X7.5256Y-4.2559
X7.5276Y-4.1339
X7.5354Y-4.5039
X7.5494Y-4.2326
X7.5591Y-4.252
X7.5787Y-4.2323
X7.5827Y-4.3307
X7.5984Y-4.5079
X7.6043Y-3.4016
X7.6063Y-4.0787
X7.6174Y-3.9442
X7.622Y-4.0157
X7.626Y-4.2815
X7.628Y-4.1811
X7.6325Y-4.5651
X7.6352Y-3.9621
X7.6378Y-4.1161
X7.6398Y-3.75
X7.6575Y-4.5276
X7.6594Y-4.128
X7.6743Y-4.0856
X7.6772Y-4.2323
X7.6772Y-4.3307
X7.681Y-3.7802
X7.6844Y-3.8843
X7.685Y-4.7087
X7.687Y-4.1339
X7.6941Y-4.6195
X7.7023Y-3.9021
X7.7067Y-4.5217
X7.7323Y-3.685
X7.7341Y-3.9985
X7.7343Y-4.2874
X7.7362Y-4.6195
X7.7396Y-3.7565
X7.7398Y-4.1616
X7.7421Y-4.0315
X7.7441Y-4.0551
X7.7559Y-4.7835
X7.7657Y-4.6604
X7.7691Y-4.7421
X7.7697Y-4.0177
X7.7717Y-3.189
X7.7717Y-3.9764
X7.7756Y-4.3504
X7.7756Y-4.6195
X7.7819Y-3.7662
X7.7874Y-3.3543
X7.7874Y-3.9568
X7.7953Y-3.5531
X7.8086Y-3.7929
X7.8157Y-4.7421
X7.8189Y-4.0551
X7.8228Y-3.9291
X7.8268Y-3.9921
X7.8328Y-4.1924
X7.8346Y-3.6811
X7.8445Y-3.8839
X7.8445Y-4.439
X7.8504Y-3.9685
X7.8539Y-4.0165
X7.8543Y-4.2126
X7.8618Y-4.0727
X7.874Y-4.5354
X7.8858Y-4.435
X7.8861Y-4.25
X7.8866Y-4.1012
X7.8898Y-4.6535
X7.9055Y-4.0157
X7.9115Y-4.1055
X7.9134Y-4.6614
X7.9279Y-4.2013
X7.9311Y-3.7539
X7.935Y-3.4272
X7.9433Y-4.0541
X7.948Y-4.0123
X7.9528Y-3.6417
X7.9528Y-3.7008
X7.9528Y-4.2323
X7.9567Y-4.4154
X7.9708Y-4.0217
X7.9941Y-4.0177
X7.9968Y-3.589
X8.0Y-3.3701
X8.002Y-4.4154
X8.0079Y-4.6535
X8.0097Y-3.9066
X8.0153Y-4.0928
X8.0315Y-3.5039
X8.0315Y-4.1929
X8.0315Y-4.6614
X8.0365Y-3.8799
X8.0387Y-4.2333
X8.0472Y-4.1072
X8.0472Y-4.4154
X8.0512Y-3.4154
X8.0512Y-3.4646
X8.0512Y-3.5827
X8.0512Y-4.0748
X8.0531Y-3.3898
X8.061Y-3.8386
X8.0787Y-4.437
X8.0807Y-3.6362
X8.0866Y-3.5748
X8.1004Y-3.5177
X8.1024Y-4.4252
X8.1102Y-3.3071
X8.1102Y-4.0748
X8.1102Y-4.1929
X8.1181Y-3.811
X8.1181Y-4.2205
X8.1201Y-4.0157
X8.1417Y-4.3622
X8.1417Y-4.6535
X8.1496Y-4.4898
X8.1496Y-4.5336
X8.1575Y-3.8898
X8.1654Y-4.6693
X8.1693Y-4.1929
X8.1713Y-3.6929
X8.1732Y-3.3622
X8.1791Y-3.8445
X8.189Y-3.9921
X8.189Y-4.5748
X8.1929Y-3.5059
X8.1931Y-4.0636
X8.1969Y-3.126
X8.2087Y-3.2087
X8.2185Y-3.2677
X8.2201Y-3.6531
X8.2205Y-3.4961
X8.2283Y-3.4646
X8.2303Y-3.8115
X8.2303Y-3.8735
X8.2323Y-4.0787
X8.2703Y-3.2085
X8.2717Y-3.6358
X8.2724Y-3.3091
X8.2756Y-4.4961
X8.2854Y-4.0469
X8.2913Y-3.5906
X8.2933Y-3.4823
X8.3071Y-3.8711
X8.311Y-3.8091
X8.315Y-3.6457
X8.3189Y-3.1567
X8.3209Y-3.9449
X8.3268Y-3.4744
X8.3268Y-3.5236
X8.3268Y-4.0581
X8.3366Y-3.4154
X8.3406Y-3.8366
X8.3543Y-3.9213
X8.3622Y-3.6772
X8.3681Y-3.625
X8.374Y-3.8366
X8.378Y-3.9685
X8.378Y-4.748
X8.3829Y-3.3677
X8.3839Y-4.0669
X8.3858Y-4.5039
X8.4016Y-3.8091
X8.4055Y-3.8711
X8.4213Y-4.3701
X8.435Y-3.2185
X8.4386Y-3.8386
X8.4449Y-3.2461
X8.4449Y-4.0945
X8.4685Y-3.9937
X8.4744Y-4.0748
X8.4764Y-3.7441
X8.4823Y-3.3701
X8.4882Y-3.4803
X8.4941Y-3.0413
X8.5118Y-4.0236
X8.5157Y-4.063
X8.5197Y-3.9213
X8.5551Y-3.7913
X8.5591Y-3.8425
X8.5591Y-4.3307
X8.563Y-3.2087
X8.563Y-4.6457
X8.5693Y-3.9473
X8.5719Y-3.4409
X8.5809Y-4.2344
X8.5827Y-3.6299
X8.5872Y-4.26
X8.5876Y-3.8947
X8.5914Y-4.144
X8.5984Y-3.937
X8.5984Y-4.0472
X8.6024Y-4.372
X8.6299Y-4.4252
X8.6319Y-3.4744
T4
X6.8965Y-4.2028
X6.9965Y-4.2028
X7.0965Y-4.2028
X7.6772Y-3.5118
X7.7756Y-3.5118
X7.874Y-3.5118
X8.6417Y-3.4925
X8.6417Y-3.5925
X8.6417Y-3.6925
X8.6417Y-3.7925
X8.6417Y-3.8925
X8.6417Y-3.9925
X8.6417Y-4.0925
X8.6417Y-4.1925
X8.6417Y-4.2925
X8.6417Y-4.5457
X8.6417Y-4.6457
X8.6417Y-4.7457
T5
X6.9291Y-3.0413
X6.9291Y-3.2185
X7.185Y-3.0413
X7.185Y-3.2185
X8.248Y-4.5768
X8.248Y-4.7539
X8.2579Y-4.2028
X8.2579Y-4.3799
X8.3661Y-3.0315
X8.3661Y-3.2087
X8.5039Y-4.5768
X8.5039Y-4.7539
X8.5138Y-4.2028
X8.5138Y-4.3799
X8.622Y-3.0315
X8.622Y-3.2087
T6
X7.0354Y-3.6594
X7.0354Y-3.8563
T2
G00X6.9626Y-4.4518
M15
G01X6.935Y-4.4518
M16
G05
G00X6.9626Y-4.7805
M15
G01X6.935Y-4.7805
M16
G05
T3
G00X7.0709Y-4.5285
M15
G01X7.063Y-4.5285
M16
G05
G00X7.0709Y-4.7037
M15
G01X7.063Y-4.7037
M16
G05
T7
G00X7.5551Y-3.2382
M15
G01X7.5551Y-3.1949
M16
G05
G00X7.9961Y-3.2382
M15
G01X7.9961Y-3.1949
M16
G05
M30
