%TF.GenerationSoftware,KiCad,Pcbnew,9.0.4*%
%TF.CreationDate,2025-09-30T19:15:50-07:00*%
%TF.ProjectId,LE_PSU_CAD,4c455f50-5355-45f4-9341-442e6b696361,rev?*%
%TF.SameCoordinates,Original*%
%TF.FileFunction,Legend,Bot*%
%TF.FilePolarity,Positive*%
%FSLAX46Y46*%
G04 Gerber Fmt 4.6, Leading zero omitted, Abs format (unit mm)*
G04 Created by KiCad (PCBNEW 9.0.4) date 2025-09-30 19:15:50*
%MOMM*%
%LPD*%
G01*
G04 APERTURE LIST*
G04 Aperture macros list*
%AMRoundRect*
0 Rectangle with rounded corners*
0 $1 Rounding radius*
0 $2 $3 $4 $5 $6 $7 $8 $9 X,Y pos of 4 corners*
0 Add a 4 corners polygon primitive as box body*
4,1,4,$2,$3,$4,$5,$6,$7,$8,$9,$2,$3,0*
0 Add four circle primitives for the rounded corners*
1,1,$1+$1,$2,$3*
1,1,$1+$1,$4,$5*
1,1,$1+$1,$6,$7*
1,1,$1+$1,$8,$9*
0 Add four rect primitives between the rounded corners*
20,1,$1+$1,$2,$3,$4,$5,0*
20,1,$1+$1,$4,$5,$6,$7,0*
20,1,$1+$1,$6,$7,$8,$9,0*
20,1,$1+$1,$8,$9,$2,$3,0*%
G04 Aperture macros list end*
%ADD10C,0.153000*%
%ADD11C,0.120000*%
%ADD12C,1.700000*%
%ADD13R,1.700000X1.700000*%
%ADD14C,2.000000*%
%ADD15RoundRect,0.250000X-1.050000X1.050000X-1.050000X-1.050000X1.050000X-1.050000X1.050000X1.050000X0*%
%ADD16C,2.600000*%
%ADD17O,1.900000X1.000000*%
%ADD18O,1.250000X1.050000*%
%ADD19RoundRect,0.250000X0.550000X-0.550000X0.550000X0.550000X-0.550000X0.550000X-0.550000X-0.550000X0*%
%ADD20C,1.600000*%
%ADD21O,3.000000X4.100000*%
G04 APERTURE END LIST*
D10*
X217211904Y-117952282D02*
X217307142Y-117904663D01*
X217307142Y-117904663D02*
X217449999Y-117904663D01*
X217449999Y-117904663D02*
X217592856Y-117952282D01*
X217592856Y-117952282D02*
X217688094Y-118047520D01*
X217688094Y-118047520D02*
X217735713Y-118142758D01*
X217735713Y-118142758D02*
X217783332Y-118333234D01*
X217783332Y-118333234D02*
X217783332Y-118476091D01*
X217783332Y-118476091D02*
X217735713Y-118666567D01*
X217735713Y-118666567D02*
X217688094Y-118761805D01*
X217688094Y-118761805D02*
X217592856Y-118857044D01*
X217592856Y-118857044D02*
X217449999Y-118904663D01*
X217449999Y-118904663D02*
X217354761Y-118904663D01*
X217354761Y-118904663D02*
X217211904Y-118857044D01*
X217211904Y-118857044D02*
X217164285Y-118809424D01*
X217164285Y-118809424D02*
X217164285Y-118476091D01*
X217164285Y-118476091D02*
X217354761Y-118476091D01*
X216735713Y-118904663D02*
X216735713Y-117904663D01*
X216735713Y-117904663D02*
X216164285Y-118904663D01*
X216164285Y-118904663D02*
X216164285Y-117904663D01*
X215688094Y-118904663D02*
X215688094Y-117904663D01*
X215688094Y-117904663D02*
X215449999Y-117904663D01*
X215449999Y-117904663D02*
X215307142Y-117952282D01*
X215307142Y-117952282D02*
X215211904Y-118047520D01*
X215211904Y-118047520D02*
X215164285Y-118142758D01*
X215164285Y-118142758D02*
X215116666Y-118333234D01*
X215116666Y-118333234D02*
X215116666Y-118476091D01*
X215116666Y-118476091D02*
X215164285Y-118666567D01*
X215164285Y-118666567D02*
X215211904Y-118761805D01*
X215211904Y-118761805D02*
X215307142Y-118857044D01*
X215307142Y-118857044D02*
X215449999Y-118904663D01*
X215449999Y-118904663D02*
X215688094Y-118904663D01*
X217373808Y-100604663D02*
X217373808Y-99604663D01*
X216326190Y-100604663D02*
X216659523Y-100128472D01*
X216897618Y-100604663D02*
X216897618Y-99604663D01*
X216897618Y-99604663D02*
X216516666Y-99604663D01*
X216516666Y-99604663D02*
X216421428Y-99652282D01*
X216421428Y-99652282D02*
X216373809Y-99699901D01*
X216373809Y-99699901D02*
X216326190Y-99795139D01*
X216326190Y-99795139D02*
X216326190Y-99937996D01*
X216326190Y-99937996D02*
X216373809Y-100033234D01*
X216373809Y-100033234D02*
X216421428Y-100080853D01*
X216421428Y-100080853D02*
X216516666Y-100128472D01*
X216516666Y-100128472D02*
X216897618Y-100128472D01*
X215230952Y-100699901D02*
X215326190Y-100652282D01*
X215326190Y-100652282D02*
X215421428Y-100557044D01*
X215421428Y-100557044D02*
X215564285Y-100414186D01*
X215564285Y-100414186D02*
X215659523Y-100366567D01*
X215659523Y-100366567D02*
X215754761Y-100366567D01*
X215707142Y-100604663D02*
X215802380Y-100557044D01*
X215802380Y-100557044D02*
X215897618Y-100461805D01*
X215897618Y-100461805D02*
X215945237Y-100271329D01*
X215945237Y-100271329D02*
X215945237Y-99937996D01*
X215945237Y-99937996D02*
X215897618Y-99747520D01*
X215897618Y-99747520D02*
X215802380Y-99652282D01*
X215802380Y-99652282D02*
X215707142Y-99604663D01*
X215707142Y-99604663D02*
X215516666Y-99604663D01*
X215516666Y-99604663D02*
X215421428Y-99652282D01*
X215421428Y-99652282D02*
X215326190Y-99747520D01*
X215326190Y-99747520D02*
X215278571Y-99937996D01*
X215278571Y-99937996D02*
X215278571Y-100271329D01*
X215278571Y-100271329D02*
X215326190Y-100461805D01*
X215326190Y-100461805D02*
X215421428Y-100557044D01*
X215421428Y-100557044D02*
X215516666Y-100604663D01*
X215516666Y-100604663D02*
X215707142Y-100604663D01*
X217361904Y-88952282D02*
X217457142Y-88904663D01*
X217457142Y-88904663D02*
X217599999Y-88904663D01*
X217599999Y-88904663D02*
X217742856Y-88952282D01*
X217742856Y-88952282D02*
X217838094Y-89047520D01*
X217838094Y-89047520D02*
X217885713Y-89142758D01*
X217885713Y-89142758D02*
X217933332Y-89333234D01*
X217933332Y-89333234D02*
X217933332Y-89476091D01*
X217933332Y-89476091D02*
X217885713Y-89666567D01*
X217885713Y-89666567D02*
X217838094Y-89761805D01*
X217838094Y-89761805D02*
X217742856Y-89857044D01*
X217742856Y-89857044D02*
X217599999Y-89904663D01*
X217599999Y-89904663D02*
X217504761Y-89904663D01*
X217504761Y-89904663D02*
X217361904Y-89857044D01*
X217361904Y-89857044D02*
X217314285Y-89809424D01*
X217314285Y-89809424D02*
X217314285Y-89476091D01*
X217314285Y-89476091D02*
X217504761Y-89476091D01*
X216885713Y-89904663D02*
X216885713Y-88904663D01*
X216885713Y-88904663D02*
X216314285Y-89904663D01*
X216314285Y-89904663D02*
X216314285Y-88904663D01*
X215838094Y-89904663D02*
X215838094Y-88904663D01*
X215838094Y-88904663D02*
X215599999Y-88904663D01*
X215599999Y-88904663D02*
X215457142Y-88952282D01*
X215457142Y-88952282D02*
X215361904Y-89047520D01*
X215361904Y-89047520D02*
X215314285Y-89142758D01*
X215314285Y-89142758D02*
X215266666Y-89333234D01*
X215266666Y-89333234D02*
X215266666Y-89476091D01*
X215266666Y-89476091D02*
X215314285Y-89666567D01*
X215314285Y-89666567D02*
X215361904Y-89761805D01*
X215361904Y-89761805D02*
X215457142Y-89857044D01*
X215457142Y-89857044D02*
X215599999Y-89904663D01*
X215599999Y-89904663D02*
X215838094Y-89904663D01*
X217835713Y-110107044D02*
X217692856Y-110154663D01*
X217692856Y-110154663D02*
X217454761Y-110154663D01*
X217454761Y-110154663D02*
X217359523Y-110107044D01*
X217359523Y-110107044D02*
X217311904Y-110059424D01*
X217311904Y-110059424D02*
X217264285Y-109964186D01*
X217264285Y-109964186D02*
X217264285Y-109868948D01*
X217264285Y-109868948D02*
X217311904Y-109773710D01*
X217311904Y-109773710D02*
X217359523Y-109726091D01*
X217359523Y-109726091D02*
X217454761Y-109678472D01*
X217454761Y-109678472D02*
X217645237Y-109630853D01*
X217645237Y-109630853D02*
X217740475Y-109583234D01*
X217740475Y-109583234D02*
X217788094Y-109535615D01*
X217788094Y-109535615D02*
X217835713Y-109440377D01*
X217835713Y-109440377D02*
X217835713Y-109345139D01*
X217835713Y-109345139D02*
X217788094Y-109249901D01*
X217788094Y-109249901D02*
X217740475Y-109202282D01*
X217740475Y-109202282D02*
X217645237Y-109154663D01*
X217645237Y-109154663D02*
X217407142Y-109154663D01*
X217407142Y-109154663D02*
X217264285Y-109202282D01*
X216264285Y-110059424D02*
X216311904Y-110107044D01*
X216311904Y-110107044D02*
X216454761Y-110154663D01*
X216454761Y-110154663D02*
X216549999Y-110154663D01*
X216549999Y-110154663D02*
X216692856Y-110107044D01*
X216692856Y-110107044D02*
X216788094Y-110011805D01*
X216788094Y-110011805D02*
X216835713Y-109916567D01*
X216835713Y-109916567D02*
X216883332Y-109726091D01*
X216883332Y-109726091D02*
X216883332Y-109583234D01*
X216883332Y-109583234D02*
X216835713Y-109392758D01*
X216835713Y-109392758D02*
X216788094Y-109297520D01*
X216788094Y-109297520D02*
X216692856Y-109202282D01*
X216692856Y-109202282D02*
X216549999Y-109154663D01*
X216549999Y-109154663D02*
X216454761Y-109154663D01*
X216454761Y-109154663D02*
X216311904Y-109202282D01*
X216311904Y-109202282D02*
X216264285Y-109249901D01*
X215835713Y-110154663D02*
X215835713Y-109154663D01*
X215264285Y-110154663D02*
X215692856Y-109583234D01*
X215264285Y-109154663D02*
X215835713Y-109726091D01*
X217892856Y-92954663D02*
X217892856Y-91954663D01*
X217892856Y-91954663D02*
X217511904Y-91954663D01*
X217511904Y-91954663D02*
X217416666Y-92002282D01*
X217416666Y-92002282D02*
X217369047Y-92049901D01*
X217369047Y-92049901D02*
X217321428Y-92145139D01*
X217321428Y-92145139D02*
X217321428Y-92287996D01*
X217321428Y-92287996D02*
X217369047Y-92383234D01*
X217369047Y-92383234D02*
X217416666Y-92430853D01*
X217416666Y-92430853D02*
X217511904Y-92478472D01*
X217511904Y-92478472D02*
X217892856Y-92478472D01*
X216988094Y-91954663D02*
X216749999Y-92954663D01*
X216749999Y-92954663D02*
X216559523Y-92240377D01*
X216559523Y-92240377D02*
X216369047Y-92954663D01*
X216369047Y-92954663D02*
X216130952Y-91954663D01*
X215178571Y-92954663D02*
X215511904Y-92478472D01*
X215749999Y-92954663D02*
X215749999Y-91954663D01*
X215749999Y-91954663D02*
X215369047Y-91954663D01*
X215369047Y-91954663D02*
X215273809Y-92002282D01*
X215273809Y-92002282D02*
X215226190Y-92049901D01*
X215226190Y-92049901D02*
X215178571Y-92145139D01*
X215178571Y-92145139D02*
X215178571Y-92287996D01*
X215178571Y-92287996D02*
X215226190Y-92383234D01*
X215226190Y-92383234D02*
X215273809Y-92430853D01*
X215273809Y-92430853D02*
X215369047Y-92478472D01*
X215369047Y-92478472D02*
X215749999Y-92478472D01*
X214988095Y-93049901D02*
X214226190Y-93049901D01*
X213797618Y-91954663D02*
X213607142Y-91954663D01*
X213607142Y-91954663D02*
X213511904Y-92002282D01*
X213511904Y-92002282D02*
X213416666Y-92097520D01*
X213416666Y-92097520D02*
X213369047Y-92287996D01*
X213369047Y-92287996D02*
X213369047Y-92621329D01*
X213369047Y-92621329D02*
X213416666Y-92811805D01*
X213416666Y-92811805D02*
X213511904Y-92907044D01*
X213511904Y-92907044D02*
X213607142Y-92954663D01*
X213607142Y-92954663D02*
X213797618Y-92954663D01*
X213797618Y-92954663D02*
X213892856Y-92907044D01*
X213892856Y-92907044D02*
X213988094Y-92811805D01*
X213988094Y-92811805D02*
X214035713Y-92621329D01*
X214035713Y-92621329D02*
X214035713Y-92287996D01*
X214035713Y-92287996D02*
X213988094Y-92097520D01*
X213988094Y-92097520D02*
X213892856Y-92002282D01*
X213892856Y-92002282D02*
X213797618Y-91954663D01*
X212940475Y-91954663D02*
X212940475Y-92764186D01*
X212940475Y-92764186D02*
X212892856Y-92859424D01*
X212892856Y-92859424D02*
X212845237Y-92907044D01*
X212845237Y-92907044D02*
X212749999Y-92954663D01*
X212749999Y-92954663D02*
X212559523Y-92954663D01*
X212559523Y-92954663D02*
X212464285Y-92907044D01*
X212464285Y-92907044D02*
X212416666Y-92859424D01*
X212416666Y-92859424D02*
X212369047Y-92764186D01*
X212369047Y-92764186D02*
X212369047Y-91954663D01*
X212035713Y-91954663D02*
X211464285Y-91954663D01*
X211749999Y-92954663D02*
X211749999Y-91954663D01*
X217738094Y-94354663D02*
X217119047Y-94354663D01*
X217119047Y-94354663D02*
X217452380Y-94735615D01*
X217452380Y-94735615D02*
X217309523Y-94735615D01*
X217309523Y-94735615D02*
X217214285Y-94783234D01*
X217214285Y-94783234D02*
X217166666Y-94830853D01*
X217166666Y-94830853D02*
X217119047Y-94926091D01*
X217119047Y-94926091D02*
X217119047Y-95164186D01*
X217119047Y-95164186D02*
X217166666Y-95259424D01*
X217166666Y-95259424D02*
X217214285Y-95307044D01*
X217214285Y-95307044D02*
X217309523Y-95354663D01*
X217309523Y-95354663D02*
X217595237Y-95354663D01*
X217595237Y-95354663D02*
X217690475Y-95307044D01*
X217690475Y-95307044D02*
X217738094Y-95259424D01*
X216833332Y-94354663D02*
X216499999Y-95354663D01*
X216499999Y-95354663D02*
X216166666Y-94354663D01*
X215928570Y-94354663D02*
X215309523Y-94354663D01*
X215309523Y-94354663D02*
X215642856Y-94735615D01*
X215642856Y-94735615D02*
X215499999Y-94735615D01*
X215499999Y-94735615D02*
X215404761Y-94783234D01*
X215404761Y-94783234D02*
X215357142Y-94830853D01*
X215357142Y-94830853D02*
X215309523Y-94926091D01*
X215309523Y-94926091D02*
X215309523Y-95164186D01*
X215309523Y-95164186D02*
X215357142Y-95259424D01*
X215357142Y-95259424D02*
X215404761Y-95307044D01*
X215404761Y-95307044D02*
X215499999Y-95354663D01*
X215499999Y-95354663D02*
X215785713Y-95354663D01*
X215785713Y-95354663D02*
X215880951Y-95307044D01*
X215880951Y-95307044D02*
X215928570Y-95259424D01*
X214880951Y-95354663D02*
X214880951Y-94354663D01*
X214880951Y-94354663D02*
X214642856Y-94354663D01*
X214642856Y-94354663D02*
X214499999Y-94402282D01*
X214499999Y-94402282D02*
X214404761Y-94497520D01*
X214404761Y-94497520D02*
X214357142Y-94592758D01*
X214357142Y-94592758D02*
X214309523Y-94783234D01*
X214309523Y-94783234D02*
X214309523Y-94926091D01*
X214309523Y-94926091D02*
X214357142Y-95116567D01*
X214357142Y-95116567D02*
X214404761Y-95211805D01*
X214404761Y-95211805D02*
X214499999Y-95307044D01*
X214499999Y-95307044D02*
X214642856Y-95354663D01*
X214642856Y-95354663D02*
X214880951Y-95354663D01*
X218192856Y-114757044D02*
X218049999Y-114804663D01*
X218049999Y-114804663D02*
X217811904Y-114804663D01*
X217811904Y-114804663D02*
X217716666Y-114757044D01*
X217716666Y-114757044D02*
X217669047Y-114709424D01*
X217669047Y-114709424D02*
X217621428Y-114614186D01*
X217621428Y-114614186D02*
X217621428Y-114518948D01*
X217621428Y-114518948D02*
X217669047Y-114423710D01*
X217669047Y-114423710D02*
X217716666Y-114376091D01*
X217716666Y-114376091D02*
X217811904Y-114328472D01*
X217811904Y-114328472D02*
X218002380Y-114280853D01*
X218002380Y-114280853D02*
X218097618Y-114233234D01*
X218097618Y-114233234D02*
X218145237Y-114185615D01*
X218145237Y-114185615D02*
X218192856Y-114090377D01*
X218192856Y-114090377D02*
X218192856Y-113995139D01*
X218192856Y-113995139D02*
X218145237Y-113899901D01*
X218145237Y-113899901D02*
X218097618Y-113852282D01*
X218097618Y-113852282D02*
X218002380Y-113804663D01*
X218002380Y-113804663D02*
X217764285Y-113804663D01*
X217764285Y-113804663D02*
X217621428Y-113852282D01*
X217288094Y-113804663D02*
X217049999Y-114804663D01*
X217049999Y-114804663D02*
X216859523Y-114090377D01*
X216859523Y-114090377D02*
X216669047Y-114804663D01*
X216669047Y-114804663D02*
X216430952Y-113804663D01*
X216288095Y-114899901D02*
X215526190Y-114899901D01*
X214716666Y-114709424D02*
X214764285Y-114757044D01*
X214764285Y-114757044D02*
X214907142Y-114804663D01*
X214907142Y-114804663D02*
X215002380Y-114804663D01*
X215002380Y-114804663D02*
X215145237Y-114757044D01*
X215145237Y-114757044D02*
X215240475Y-114661805D01*
X215240475Y-114661805D02*
X215288094Y-114566567D01*
X215288094Y-114566567D02*
X215335713Y-114376091D01*
X215335713Y-114376091D02*
X215335713Y-114233234D01*
X215335713Y-114233234D02*
X215288094Y-114042758D01*
X215288094Y-114042758D02*
X215240475Y-113947520D01*
X215240475Y-113947520D02*
X215145237Y-113852282D01*
X215145237Y-113852282D02*
X215002380Y-113804663D01*
X215002380Y-113804663D02*
X214907142Y-113804663D01*
X214907142Y-113804663D02*
X214764285Y-113852282D01*
X214764285Y-113852282D02*
X214716666Y-113899901D01*
X213811904Y-114804663D02*
X214288094Y-114804663D01*
X214288094Y-114804663D02*
X214288094Y-113804663D01*
X213478570Y-114804663D02*
X213478570Y-113804663D01*
X212907142Y-114804663D02*
X213335713Y-114233234D01*
X212907142Y-113804663D02*
X213478570Y-114376091D01*
X217423808Y-105407044D02*
X217280951Y-105454663D01*
X217280951Y-105454663D02*
X217042856Y-105454663D01*
X217042856Y-105454663D02*
X216947618Y-105407044D01*
X216947618Y-105407044D02*
X216899999Y-105359424D01*
X216899999Y-105359424D02*
X216852380Y-105264186D01*
X216852380Y-105264186D02*
X216852380Y-105168948D01*
X216852380Y-105168948D02*
X216899999Y-105073710D01*
X216899999Y-105073710D02*
X216947618Y-105026091D01*
X216947618Y-105026091D02*
X217042856Y-104978472D01*
X217042856Y-104978472D02*
X217233332Y-104930853D01*
X217233332Y-104930853D02*
X217328570Y-104883234D01*
X217328570Y-104883234D02*
X217376189Y-104835615D01*
X217376189Y-104835615D02*
X217423808Y-104740377D01*
X217423808Y-104740377D02*
X217423808Y-104645139D01*
X217423808Y-104645139D02*
X217376189Y-104549901D01*
X217376189Y-104549901D02*
X217328570Y-104502282D01*
X217328570Y-104502282D02*
X217233332Y-104454663D01*
X217233332Y-104454663D02*
X216995237Y-104454663D01*
X216995237Y-104454663D02*
X216852380Y-104502282D01*
X216423808Y-105454663D02*
X216423808Y-104454663D01*
X216423808Y-104454663D02*
X216185713Y-104454663D01*
X216185713Y-104454663D02*
X216042856Y-104502282D01*
X216042856Y-104502282D02*
X215947618Y-104597520D01*
X215947618Y-104597520D02*
X215899999Y-104692758D01*
X215899999Y-104692758D02*
X215852380Y-104883234D01*
X215852380Y-104883234D02*
X215852380Y-105026091D01*
X215852380Y-105026091D02*
X215899999Y-105216567D01*
X215899999Y-105216567D02*
X215947618Y-105311805D01*
X215947618Y-105311805D02*
X216042856Y-105407044D01*
X216042856Y-105407044D02*
X216185713Y-105454663D01*
X216185713Y-105454663D02*
X216423808Y-105454663D01*
X215423808Y-105454663D02*
X215423808Y-104454663D01*
X217757142Y-122857044D02*
X217614285Y-122904663D01*
X217614285Y-122904663D02*
X217376190Y-122904663D01*
X217376190Y-122904663D02*
X217280952Y-122857044D01*
X217280952Y-122857044D02*
X217233333Y-122809424D01*
X217233333Y-122809424D02*
X217185714Y-122714186D01*
X217185714Y-122714186D02*
X217185714Y-122618948D01*
X217185714Y-122618948D02*
X217233333Y-122523710D01*
X217233333Y-122523710D02*
X217280952Y-122476091D01*
X217280952Y-122476091D02*
X217376190Y-122428472D01*
X217376190Y-122428472D02*
X217566666Y-122380853D01*
X217566666Y-122380853D02*
X217661904Y-122333234D01*
X217661904Y-122333234D02*
X217709523Y-122285615D01*
X217709523Y-122285615D02*
X217757142Y-122190377D01*
X217757142Y-122190377D02*
X217757142Y-122095139D01*
X217757142Y-122095139D02*
X217709523Y-121999901D01*
X217709523Y-121999901D02*
X217661904Y-121952282D01*
X217661904Y-121952282D02*
X217566666Y-121904663D01*
X217566666Y-121904663D02*
X217328571Y-121904663D01*
X217328571Y-121904663D02*
X217185714Y-121952282D01*
X216852380Y-121904663D02*
X216614285Y-122904663D01*
X216614285Y-122904663D02*
X216423809Y-122190377D01*
X216423809Y-122190377D02*
X216233333Y-122904663D01*
X216233333Y-122904663D02*
X215995238Y-121904663D01*
X215614285Y-122904663D02*
X215614285Y-121904663D01*
X215614285Y-121904663D02*
X215376190Y-121904663D01*
X215376190Y-121904663D02*
X215233333Y-121952282D01*
X215233333Y-121952282D02*
X215138095Y-122047520D01*
X215138095Y-122047520D02*
X215090476Y-122142758D01*
X215090476Y-122142758D02*
X215042857Y-122333234D01*
X215042857Y-122333234D02*
X215042857Y-122476091D01*
X215042857Y-122476091D02*
X215090476Y-122666567D01*
X215090476Y-122666567D02*
X215138095Y-122761805D01*
X215138095Y-122761805D02*
X215233333Y-122857044D01*
X215233333Y-122857044D02*
X215376190Y-122904663D01*
X215376190Y-122904663D02*
X215614285Y-122904663D01*
X218004762Y-107809424D02*
X217147619Y-109095139D01*
X216433333Y-108809424D02*
X216480952Y-108857044D01*
X216480952Y-108857044D02*
X216623809Y-108904663D01*
X216623809Y-108904663D02*
X216719047Y-108904663D01*
X216719047Y-108904663D02*
X216861904Y-108857044D01*
X216861904Y-108857044D02*
X216957142Y-108761805D01*
X216957142Y-108761805D02*
X217004761Y-108666567D01*
X217004761Y-108666567D02*
X217052380Y-108476091D01*
X217052380Y-108476091D02*
X217052380Y-108333234D01*
X217052380Y-108333234D02*
X217004761Y-108142758D01*
X217004761Y-108142758D02*
X216957142Y-108047520D01*
X216957142Y-108047520D02*
X216861904Y-107952282D01*
X216861904Y-107952282D02*
X216719047Y-107904663D01*
X216719047Y-107904663D02*
X216623809Y-107904663D01*
X216623809Y-107904663D02*
X216480952Y-107952282D01*
X216480952Y-107952282D02*
X216433333Y-107999901D01*
X216052380Y-108857044D02*
X215909523Y-108904663D01*
X215909523Y-108904663D02*
X215671428Y-108904663D01*
X215671428Y-108904663D02*
X215576190Y-108857044D01*
X215576190Y-108857044D02*
X215528571Y-108809424D01*
X215528571Y-108809424D02*
X215480952Y-108714186D01*
X215480952Y-108714186D02*
X215480952Y-108618948D01*
X215480952Y-108618948D02*
X215528571Y-108523710D01*
X215528571Y-108523710D02*
X215576190Y-108476091D01*
X215576190Y-108476091D02*
X215671428Y-108428472D01*
X215671428Y-108428472D02*
X215861904Y-108380853D01*
X215861904Y-108380853D02*
X215957142Y-108333234D01*
X215957142Y-108333234D02*
X216004761Y-108285615D01*
X216004761Y-108285615D02*
X216052380Y-108190377D01*
X216052380Y-108190377D02*
X216052380Y-108095139D01*
X216052380Y-108095139D02*
X216004761Y-107999901D01*
X216004761Y-107999901D02*
X215957142Y-107952282D01*
X215957142Y-107952282D02*
X215861904Y-107904663D01*
X215861904Y-107904663D02*
X215623809Y-107904663D01*
X215623809Y-107904663D02*
X215480952Y-107952282D01*
X217509523Y-103057044D02*
X217366666Y-103104663D01*
X217366666Y-103104663D02*
X217128571Y-103104663D01*
X217128571Y-103104663D02*
X217033333Y-103057044D01*
X217033333Y-103057044D02*
X216985714Y-103009424D01*
X216985714Y-103009424D02*
X216938095Y-102914186D01*
X216938095Y-102914186D02*
X216938095Y-102818948D01*
X216938095Y-102818948D02*
X216985714Y-102723710D01*
X216985714Y-102723710D02*
X217033333Y-102676091D01*
X217033333Y-102676091D02*
X217128571Y-102628472D01*
X217128571Y-102628472D02*
X217319047Y-102580853D01*
X217319047Y-102580853D02*
X217414285Y-102533234D01*
X217414285Y-102533234D02*
X217461904Y-102485615D01*
X217461904Y-102485615D02*
X217509523Y-102390377D01*
X217509523Y-102390377D02*
X217509523Y-102295139D01*
X217509523Y-102295139D02*
X217461904Y-102199901D01*
X217461904Y-102199901D02*
X217414285Y-102152282D01*
X217414285Y-102152282D02*
X217319047Y-102104663D01*
X217319047Y-102104663D02*
X217080952Y-102104663D01*
X217080952Y-102104663D02*
X216938095Y-102152282D01*
X216509523Y-103104663D02*
X216509523Y-102104663D01*
X216509523Y-102104663D02*
X216271428Y-102104663D01*
X216271428Y-102104663D02*
X216128571Y-102152282D01*
X216128571Y-102152282D02*
X216033333Y-102247520D01*
X216033333Y-102247520D02*
X215985714Y-102342758D01*
X215985714Y-102342758D02*
X215938095Y-102533234D01*
X215938095Y-102533234D02*
X215938095Y-102676091D01*
X215938095Y-102676091D02*
X215985714Y-102866567D01*
X215985714Y-102866567D02*
X216033333Y-102961805D01*
X216033333Y-102961805D02*
X216128571Y-103057044D01*
X216128571Y-103057044D02*
X216271428Y-103104663D01*
X216271428Y-103104663D02*
X216509523Y-103104663D01*
X215319047Y-102104663D02*
X215128571Y-102104663D01*
X215128571Y-102104663D02*
X215033333Y-102152282D01*
X215033333Y-102152282D02*
X214938095Y-102247520D01*
X214938095Y-102247520D02*
X214890476Y-102437996D01*
X214890476Y-102437996D02*
X214890476Y-102771329D01*
X214890476Y-102771329D02*
X214938095Y-102961805D01*
X214938095Y-102961805D02*
X215033333Y-103057044D01*
X215033333Y-103057044D02*
X215128571Y-103104663D01*
X215128571Y-103104663D02*
X215319047Y-103104663D01*
X215319047Y-103104663D02*
X215414285Y-103057044D01*
X215414285Y-103057044D02*
X215509523Y-102961805D01*
X215509523Y-102961805D02*
X215557142Y-102771329D01*
X215557142Y-102771329D02*
X215557142Y-102437996D01*
X215557142Y-102437996D02*
X215509523Y-102247520D01*
X215509523Y-102247520D02*
X215414285Y-102152282D01*
X215414285Y-102152282D02*
X215319047Y-102104663D01*
X217388094Y-97992163D02*
X217388094Y-96992163D01*
X217388094Y-96992163D02*
X217054761Y-97706448D01*
X217054761Y-97706448D02*
X216721428Y-96992163D01*
X216721428Y-96992163D02*
X216721428Y-97992163D01*
X215673809Y-97896924D02*
X215721428Y-97944544D01*
X215721428Y-97944544D02*
X215864285Y-97992163D01*
X215864285Y-97992163D02*
X215959523Y-97992163D01*
X215959523Y-97992163D02*
X216102380Y-97944544D01*
X216102380Y-97944544D02*
X216197618Y-97849305D01*
X216197618Y-97849305D02*
X216245237Y-97754067D01*
X216245237Y-97754067D02*
X216292856Y-97563591D01*
X216292856Y-97563591D02*
X216292856Y-97420734D01*
X216292856Y-97420734D02*
X216245237Y-97230258D01*
X216245237Y-97230258D02*
X216197618Y-97135020D01*
X216197618Y-97135020D02*
X216102380Y-97039782D01*
X216102380Y-97039782D02*
X215959523Y-96992163D01*
X215959523Y-96992163D02*
X215864285Y-96992163D01*
X215864285Y-96992163D02*
X215721428Y-97039782D01*
X215721428Y-97039782D02*
X215673809Y-97087401D01*
X214769047Y-97992163D02*
X215245237Y-97992163D01*
X215245237Y-97992163D02*
X215245237Y-96992163D01*
X214435713Y-97992163D02*
X214435713Y-96992163D01*
X213864285Y-97992163D02*
X214292856Y-97420734D01*
X213864285Y-96992163D02*
X214435713Y-97563591D01*
X217283333Y-86424663D02*
X217283333Y-87138948D01*
X217283333Y-87138948D02*
X217330952Y-87281805D01*
X217330952Y-87281805D02*
X217426190Y-87377044D01*
X217426190Y-87377044D02*
X217569047Y-87424663D01*
X217569047Y-87424663D02*
X217664285Y-87424663D01*
X216902380Y-86424663D02*
X216283333Y-86424663D01*
X216283333Y-86424663D02*
X216616666Y-86805615D01*
X216616666Y-86805615D02*
X216473809Y-86805615D01*
X216473809Y-86805615D02*
X216378571Y-86853234D01*
X216378571Y-86853234D02*
X216330952Y-86900853D01*
X216330952Y-86900853D02*
X216283333Y-86996091D01*
X216283333Y-86996091D02*
X216283333Y-87234186D01*
X216283333Y-87234186D02*
X216330952Y-87329424D01*
X216330952Y-87329424D02*
X216378571Y-87377044D01*
X216378571Y-87377044D02*
X216473809Y-87424663D01*
X216473809Y-87424663D02*
X216759523Y-87424663D01*
X216759523Y-87424663D02*
X216854761Y-87377044D01*
X216854761Y-87377044D02*
X216902380Y-87329424D01*
X182161904Y-84304663D02*
X181590476Y-84304663D01*
X181876190Y-85304663D02*
X181876190Y-84304663D01*
X181257142Y-85304663D02*
X181257142Y-84304663D01*
X181257142Y-84304663D02*
X180876190Y-84304663D01*
X180876190Y-84304663D02*
X180780952Y-84352282D01*
X180780952Y-84352282D02*
X180733333Y-84399901D01*
X180733333Y-84399901D02*
X180685714Y-84495139D01*
X180685714Y-84495139D02*
X180685714Y-84637996D01*
X180685714Y-84637996D02*
X180733333Y-84733234D01*
X180733333Y-84733234D02*
X180780952Y-84780853D01*
X180780952Y-84780853D02*
X180876190Y-84828472D01*
X180876190Y-84828472D02*
X181257142Y-84828472D01*
X179733333Y-85304663D02*
X180304761Y-85304663D01*
X180019047Y-85304663D02*
X180019047Y-84304663D01*
X180019047Y-84304663D02*
X180114285Y-84447520D01*
X180114285Y-84447520D02*
X180209523Y-84542758D01*
X180209523Y-84542758D02*
X180304761Y-84590377D01*
X216111904Y-83454663D02*
X215540476Y-83454663D01*
X215826190Y-84454663D02*
X215826190Y-83454663D01*
X215207142Y-84454663D02*
X215207142Y-83454663D01*
X215207142Y-83454663D02*
X214826190Y-83454663D01*
X214826190Y-83454663D02*
X214730952Y-83502282D01*
X214730952Y-83502282D02*
X214683333Y-83549901D01*
X214683333Y-83549901D02*
X214635714Y-83645139D01*
X214635714Y-83645139D02*
X214635714Y-83787996D01*
X214635714Y-83787996D02*
X214683333Y-83883234D01*
X214683333Y-83883234D02*
X214730952Y-83930853D01*
X214730952Y-83930853D02*
X214826190Y-83978472D01*
X214826190Y-83978472D02*
X215207142Y-83978472D01*
X214254761Y-83549901D02*
X214207142Y-83502282D01*
X214207142Y-83502282D02*
X214111904Y-83454663D01*
X214111904Y-83454663D02*
X213873809Y-83454663D01*
X213873809Y-83454663D02*
X213778571Y-83502282D01*
X213778571Y-83502282D02*
X213730952Y-83549901D01*
X213730952Y-83549901D02*
X213683333Y-83645139D01*
X213683333Y-83645139D02*
X213683333Y-83740377D01*
X213683333Y-83740377D02*
X213730952Y-83883234D01*
X213730952Y-83883234D02*
X214302380Y-84454663D01*
X214302380Y-84454663D02*
X213683333Y-84454663D01*
X188761904Y-113656663D02*
X188190476Y-113656663D01*
X188476190Y-114656663D02*
X188476190Y-113656663D01*
X187857142Y-114656663D02*
X187857142Y-113656663D01*
X187857142Y-113656663D02*
X187476190Y-113656663D01*
X187476190Y-113656663D02*
X187380952Y-113704282D01*
X187380952Y-113704282D02*
X187333333Y-113751901D01*
X187333333Y-113751901D02*
X187285714Y-113847139D01*
X187285714Y-113847139D02*
X187285714Y-113989996D01*
X187285714Y-113989996D02*
X187333333Y-114085234D01*
X187333333Y-114085234D02*
X187380952Y-114132853D01*
X187380952Y-114132853D02*
X187476190Y-114180472D01*
X187476190Y-114180472D02*
X187857142Y-114180472D01*
X186952380Y-113656663D02*
X186333333Y-113656663D01*
X186333333Y-113656663D02*
X186666666Y-114037615D01*
X186666666Y-114037615D02*
X186523809Y-114037615D01*
X186523809Y-114037615D02*
X186428571Y-114085234D01*
X186428571Y-114085234D02*
X186380952Y-114132853D01*
X186380952Y-114132853D02*
X186333333Y-114228091D01*
X186333333Y-114228091D02*
X186333333Y-114466186D01*
X186333333Y-114466186D02*
X186380952Y-114561424D01*
X186380952Y-114561424D02*
X186428571Y-114609044D01*
X186428571Y-114609044D02*
X186523809Y-114656663D01*
X186523809Y-114656663D02*
X186809523Y-114656663D01*
X186809523Y-114656663D02*
X186904761Y-114609044D01*
X186904761Y-114609044D02*
X186952380Y-114561424D01*
X218361904Y-86204663D02*
X217790476Y-86204663D01*
X218076190Y-87204663D02*
X218076190Y-86204663D01*
X217457142Y-87204663D02*
X217457142Y-86204663D01*
X217457142Y-86204663D02*
X217076190Y-86204663D01*
X217076190Y-86204663D02*
X216980952Y-86252282D01*
X216980952Y-86252282D02*
X216933333Y-86299901D01*
X216933333Y-86299901D02*
X216885714Y-86395139D01*
X216885714Y-86395139D02*
X216885714Y-86537996D01*
X216885714Y-86537996D02*
X216933333Y-86633234D01*
X216933333Y-86633234D02*
X216980952Y-86680853D01*
X216980952Y-86680853D02*
X217076190Y-86728472D01*
X217076190Y-86728472D02*
X217457142Y-86728472D01*
X216028571Y-86537996D02*
X216028571Y-87204663D01*
X216266666Y-86157044D02*
X216504761Y-86871329D01*
X216504761Y-86871329D02*
X215885714Y-86871329D01*
X206354663Y-114838095D02*
X206354663Y-115409523D01*
X207354663Y-115123809D02*
X206354663Y-115123809D01*
X207354663Y-115742857D02*
X206354663Y-115742857D01*
X206354663Y-115742857D02*
X206354663Y-116123809D01*
X206354663Y-116123809D02*
X206402282Y-116219047D01*
X206402282Y-116219047D02*
X206449901Y-116266666D01*
X206449901Y-116266666D02*
X206545139Y-116314285D01*
X206545139Y-116314285D02*
X206687996Y-116314285D01*
X206687996Y-116314285D02*
X206783234Y-116266666D01*
X206783234Y-116266666D02*
X206830853Y-116219047D01*
X206830853Y-116219047D02*
X206878472Y-116123809D01*
X206878472Y-116123809D02*
X206878472Y-115742857D01*
X206354663Y-117219047D02*
X206354663Y-116742857D01*
X206354663Y-116742857D02*
X206830853Y-116695238D01*
X206830853Y-116695238D02*
X206783234Y-116742857D01*
X206783234Y-116742857D02*
X206735615Y-116838095D01*
X206735615Y-116838095D02*
X206735615Y-117076190D01*
X206735615Y-117076190D02*
X206783234Y-117171428D01*
X206783234Y-117171428D02*
X206830853Y-117219047D01*
X206830853Y-117219047D02*
X206926091Y-117266666D01*
X206926091Y-117266666D02*
X207164186Y-117266666D01*
X207164186Y-117266666D02*
X207259424Y-117219047D01*
X207259424Y-117219047D02*
X207307044Y-117171428D01*
X207307044Y-117171428D02*
X207354663Y-117076190D01*
X207354663Y-117076190D02*
X207354663Y-116838095D01*
X207354663Y-116838095D02*
X207307044Y-116742857D01*
X207307044Y-116742857D02*
X207259424Y-116695238D01*
D11*
%TO.C,J3*%
X218170000Y-87380000D02*
X218170000Y-88710000D01*
X218170000Y-89980000D02*
X218170000Y-110360000D01*
X219500000Y-87380000D02*
X218170000Y-87380000D01*
X220830000Y-89980000D02*
X218170000Y-89980000D01*
X220830000Y-89980000D02*
X220830000Y-110360000D01*
X220830000Y-110360000D02*
X218170000Y-110360000D01*
%TO.C,TP1*%
X179200000Y-84750000D02*
G75*
G02*
X176800000Y-84750000I-1200000J0D01*
G01*
X176800000Y-84750000D02*
G75*
G02*
X179200000Y-84750000I1200000J0D01*
G01*
%TO.C,TP2*%
X218700000Y-84500000D02*
G75*
G02*
X216300000Y-84500000I-1200000J0D01*
G01*
X216300000Y-84500000D02*
G75*
G02*
X218700000Y-84500000I1200000J0D01*
G01*
%TO.C,TP3*%
X188700000Y-116200000D02*
G75*
G02*
X186300000Y-116200000I-1200000J0D01*
G01*
X186300000Y-116200000D02*
G75*
G02*
X188700000Y-116200000I1200000J0D01*
G01*
%TO.C,TP4*%
X221600000Y-85650000D02*
G75*
G02*
X219200000Y-85650000I-1200000J0D01*
G01*
X219200000Y-85650000D02*
G75*
G02*
X221600000Y-85650000I1200000J0D01*
G01*
%TO.C,TP5*%
X205950000Y-115500000D02*
G75*
G02*
X203550000Y-115500000I-1200000J0D01*
G01*
X203550000Y-115500000D02*
G75*
G02*
X205950000Y-115500000I1200000J0D01*
G01*
%TD*%
%LPC*%
D12*
%TO.C,J3*%
X219500000Y-109030000D03*
D13*
X219500000Y-88710000D03*
D12*
X219500000Y-91250000D03*
X219500000Y-93790000D03*
X219500000Y-96330000D03*
X219500000Y-98870000D03*
X219500000Y-101410000D03*
X219500000Y-103950000D03*
X219500000Y-106490000D03*
%TD*%
D14*
%TO.C,SW1*%
X176000000Y-77250000D03*
X182500000Y-77250000D03*
X176000000Y-81750000D03*
X182500000Y-81750000D03*
%TD*%
D15*
%TO.C,UB1*%
X178700000Y-92950000D03*
D16*
X178700000Y-97950000D03*
%TD*%
D17*
%TO.C,J1*%
X176500000Y-113075000D03*
D18*
X179500000Y-115025000D03*
X179500000Y-119475000D03*
D17*
X176500000Y-121425000D03*
%TD*%
D14*
%TO.C,SW4*%
X216000000Y-120750000D03*
X209500000Y-120750000D03*
X216000000Y-116250000D03*
X209500000Y-116250000D03*
%TD*%
%TO.C,SW2*%
X212500000Y-77000000D03*
X219000000Y-77000000D03*
X212500000Y-81500000D03*
X219000000Y-81500000D03*
%TD*%
D19*
%TO.C,ENC1*%
X195000000Y-89200000D03*
D20*
X200000000Y-89200000D03*
X197500000Y-89200000D03*
D21*
X191900000Y-81700000D03*
X203100000Y-81700000D03*
%TD*%
D13*
%TO.C,J2*%
X219500000Y-115460000D03*
D12*
X219500000Y-118000000D03*
X219500000Y-120540000D03*
%TD*%
D13*
%TO.C,BATT_USB_JMP1*%
X180250000Y-106750000D03*
D12*
X177710000Y-106750000D03*
X175170000Y-106750000D03*
%TD*%
D14*
%TO.C,SW3*%
X216250000Y-111250000D03*
X209750000Y-111250000D03*
X216250000Y-106750000D03*
X209750000Y-106750000D03*
%TD*%
%TO.C,TP1*%
X178000000Y-84750000D03*
%TD*%
%TO.C,TP2*%
X217500000Y-84500000D03*
%TD*%
%TO.C,TP3*%
X187500000Y-116200000D03*
%TD*%
%TO.C,TP4*%
X220400000Y-85650000D03*
%TD*%
%TO.C,TP5*%
X204750000Y-115500000D03*
%TD*%
%LPD*%
M02*
