%TF.GenerationSoftware,KiCad,Pcbnew,9.0.4*%
%TF.CreationDate,2025-09-30T19:15:50-07:00*%
%TF.ProjectId,LE_PSU_CAD,4c455f50-5355-45f4-9341-442e6b696361,rev?*%
%TF.SameCoordinates,Original*%
%TF.FileFunction,Soldermask,Top*%
%TF.FilePolarity,Negative*%
%FSLAX46Y46*%
G04 Gerber Fmt 4.6, Leading zero omitted, Abs format (unit mm)*
G04 Created by KiCad (PCBNEW 9.0.4) date 2025-09-30 19:15:50*
%MOMM*%
%LPD*%
G01*
G04 APERTURE LIST*
G04 Aperture macros list*
%AMRoundRect*
0 Rectangle with rounded corners*
0 $1 Rounding radius*
0 $2 $3 $4 $5 $6 $7 $8 $9 X,Y pos of 4 corners*
0 Add a 4 corners polygon primitive as box body*
4,1,4,$2,$3,$4,$5,$6,$7,$8,$9,$2,$3,0*
0 Add four circle primitives for the rounded corners*
1,1,$1+$1,$2,$3*
1,1,$1+$1,$4,$5*
1,1,$1+$1,$6,$7*
1,1,$1+$1,$8,$9*
0 Add four rect primitives between the rounded corners*
20,1,$1+$1,$2,$3,$4,$5,0*
20,1,$1+$1,$4,$5,$6,$7,0*
20,1,$1+$1,$6,$7,$8,$9,0*
20,1,$1+$1,$8,$9,$2,$3,0*%
%AMRotRect*
0 Rectangle, with rotation*
0 The origin of the aperture is its center*
0 $1 length*
0 $2 width*
0 $3 Rotation angle, in degrees counterclockwise*
0 Add horizontal line*
21,1,$1,$2,0,0,$3*%
G04 Aperture macros list end*
%ADD10C,1.700000*%
%ADD11R,1.700000X1.700000*%
%ADD12RoundRect,0.150000X0.150000X-0.512500X0.150000X0.512500X-0.150000X0.512500X-0.150000X-0.512500X0*%
%ADD13RoundRect,0.135000X-0.185000X0.135000X-0.185000X-0.135000X0.185000X-0.135000X0.185000X0.135000X0*%
%ADD14RoundRect,0.135000X0.185000X-0.135000X0.185000X0.135000X-0.185000X0.135000X-0.185000X-0.135000X0*%
%ADD15RoundRect,0.135000X-0.135000X-0.185000X0.135000X-0.185000X0.135000X0.185000X-0.135000X0.185000X0*%
%ADD16RoundRect,0.150000X-0.150000X0.512500X-0.150000X-0.512500X0.150000X-0.512500X0.150000X0.512500X0*%
%ADD17RoundRect,0.218750X-0.256250X0.218750X-0.256250X-0.218750X0.256250X-0.218750X0.256250X0.218750X0*%
%ADD18RoundRect,0.162500X-0.650000X-0.162500X0.650000X-0.162500X0.650000X0.162500X-0.650000X0.162500X0*%
%ADD19RoundRect,0.225000X-0.225000X-0.250000X0.225000X-0.250000X0.225000X0.250000X-0.225000X0.250000X0*%
%ADD20RoundRect,0.112500X0.187500X0.112500X-0.187500X0.112500X-0.187500X-0.112500X0.187500X-0.112500X0*%
%ADD21RoundRect,0.140000X0.021213X-0.219203X0.219203X-0.021213X-0.021213X0.219203X-0.219203X0.021213X0*%
%ADD22RoundRect,0.140000X0.219203X0.021213X0.021213X0.219203X-0.219203X-0.021213X-0.021213X-0.219203X0*%
%ADD23RoundRect,0.140000X0.140000X0.170000X-0.140000X0.170000X-0.140000X-0.170000X0.140000X-0.170000X0*%
%ADD24C,2.000000*%
%ADD25RoundRect,0.140000X-0.219203X-0.021213X-0.021213X-0.219203X0.219203X0.021213X0.021213X0.219203X0*%
%ADD26RoundRect,0.225000X0.250000X-0.225000X0.250000X0.225000X-0.250000X0.225000X-0.250000X-0.225000X0*%
%ADD27RoundRect,0.140000X-0.170000X0.140000X-0.170000X-0.140000X0.170000X-0.140000X0.170000X0.140000X0*%
%ADD28RoundRect,0.102000X1.800000X-0.750000X1.800000X0.750000X-1.800000X0.750000X-1.800000X-0.750000X0*%
%ADD29RoundRect,0.135000X-0.226274X-0.035355X-0.035355X-0.226274X0.226274X0.035355X0.035355X0.226274X0*%
%ADD30RoundRect,0.135000X0.135000X0.185000X-0.135000X0.185000X-0.135000X-0.185000X0.135000X-0.185000X0*%
%ADD31RoundRect,0.250000X-1.050000X1.050000X-1.050000X-1.050000X1.050000X-1.050000X1.050000X1.050000X0*%
%ADD32C,2.600000*%
%ADD33RoundRect,0.140000X-0.021213X0.219203X-0.219203X0.021213X0.021213X-0.219203X0.219203X-0.021213X0*%
%ADD34RoundRect,0.100000X-0.575000X0.100000X-0.575000X-0.100000X0.575000X-0.100000X0.575000X0.100000X0*%
%ADD35O,1.900000X1.000000*%
%ADD36R,1.900000X0.875000*%
%ADD37O,1.250000X1.050000*%
%ADD38RoundRect,0.250000X-0.700000X1.200000X-0.700000X-1.200000X0.700000X-1.200000X0.700000X1.200000X0*%
%ADD39RoundRect,0.250000X0.176777X-1.166726X1.166726X-0.176777X-0.176777X1.166726X-1.166726X0.176777X0*%
%ADD40RoundRect,0.135000X0.226274X0.035355X0.035355X0.226274X-0.226274X-0.035355X-0.035355X-0.226274X0*%
%ADD41RoundRect,0.225000X0.225000X0.250000X-0.225000X0.250000X-0.225000X-0.250000X0.225000X-0.250000X0*%
%ADD42RoundRect,0.050000X0.212132X0.282843X-0.282843X-0.212132X-0.212132X-0.282843X0.282843X0.212132X0*%
%ADD43RoundRect,0.050000X-0.212132X0.282843X-0.282843X0.212132X0.212132X-0.282843X0.282843X-0.212132X0*%
%ADD44RotRect,3.400000X3.400000X225.000000*%
%ADD45RoundRect,0.225000X-0.335876X-0.017678X-0.017678X-0.335876X0.335876X0.017678X0.017678X0.335876X0*%
%ADD46RoundRect,0.250000X0.550000X-0.550000X0.550000X0.550000X-0.550000X0.550000X-0.550000X-0.550000X0*%
%ADD47C,1.600000*%
%ADD48O,3.000000X4.100000*%
%ADD49RoundRect,0.087500X-0.250000X-0.087500X0.250000X-0.087500X0.250000X0.087500X-0.250000X0.087500X0*%
%ADD50RoundRect,0.140000X0.170000X-0.140000X0.170000X0.140000X-0.170000X0.140000X-0.170000X-0.140000X0*%
%ADD51RoundRect,0.102000X-0.750000X-1.800000X0.750000X-1.800000X0.750000X1.800000X-0.750000X1.800000X0*%
G04 APERTURE END LIST*
D10*
%TO.C,J3*%
X219500000Y-109030000D03*
D11*
X219500000Y-88710000D03*
D10*
X219500000Y-91250000D03*
X219500000Y-93790000D03*
X219500000Y-96330000D03*
X219500000Y-98870000D03*
X219500000Y-101410000D03*
X219500000Y-103950000D03*
X219500000Y-106490000D03*
%TD*%
D12*
%TO.C,Q3*%
X206700000Y-94350000D03*
X208600000Y-94350000D03*
X207650000Y-92075000D03*
%TD*%
D13*
%TO.C,R11*%
X205900000Y-100190000D03*
X205900000Y-101210000D03*
%TD*%
D14*
%TO.C,R7*%
X210103206Y-95137176D03*
X210103206Y-94117176D03*
%TD*%
D15*
%TO.C,R14*%
X199515000Y-91000000D03*
X200535000Y-91000000D03*
%TD*%
D16*
%TO.C,Q4*%
X209055000Y-100940000D03*
X207155000Y-100940000D03*
X208105000Y-103215000D03*
%TD*%
D14*
%TO.C,R8*%
X215230992Y-101420152D03*
X215230992Y-100400152D03*
%TD*%
D17*
%TO.C,D3*%
X211100000Y-96750000D03*
X211100000Y-98325000D03*
%TD*%
D18*
%TO.C,U3*%
X205750000Y-85540000D03*
X205750000Y-86810000D03*
X205750000Y-88080000D03*
X205750000Y-89350000D03*
X212925000Y-89350000D03*
X212925000Y-88080000D03*
X212925000Y-86810000D03*
X212925000Y-85540000D03*
%TD*%
D19*
%TO.C,C2*%
X192314427Y-115952429D03*
X193864427Y-115952429D03*
%TD*%
D16*
%TO.C,Q2*%
X213900000Y-101025000D03*
X212000000Y-101025000D03*
X212950000Y-103300000D03*
%TD*%
D20*
%TO.C,D6*%
X185490000Y-115800000D03*
X183390000Y-115800000D03*
%TD*%
D17*
%TO.C,D2*%
X213400000Y-96750000D03*
X213400000Y-98325000D03*
%TD*%
D21*
%TO.C,C11*%
X200680589Y-96839411D03*
X201359411Y-96160589D03*
%TD*%
D22*
%TO.C,C13*%
X198339411Y-96339411D03*
X197660589Y-95660589D03*
%TD*%
D23*
%TO.C,C3*%
X196385000Y-120450000D03*
X195425000Y-120450000D03*
%TD*%
D24*
%TO.C,SW1*%
X176000000Y-77250000D03*
X182500000Y-77250000D03*
X176000000Y-81750000D03*
X182500000Y-81750000D03*
%TD*%
D25*
%TO.C,C23*%
X201266509Y-108058833D03*
X201945331Y-108737655D03*
%TD*%
D14*
%TO.C,R16*%
X179198780Y-85011600D03*
X179198780Y-83991600D03*
%TD*%
D26*
%TO.C,C4*%
X177300000Y-87395000D03*
X177300000Y-85845000D03*
%TD*%
D15*
%TO.C,R15*%
X199515000Y-92000000D03*
X200535000Y-92000000D03*
%TD*%
D27*
%TO.C,C1*%
X197500000Y-116375000D03*
X197500000Y-117335000D03*
%TD*%
D28*
%TO.C,L1*%
X192500000Y-120725000D03*
X192500000Y-117675000D03*
%TD*%
D25*
%TO.C,C21*%
X196000000Y-96500000D03*
X196678822Y-97178822D03*
%TD*%
%TO.C,C19*%
X205321178Y-102821178D03*
X206000000Y-103500000D03*
%TD*%
D29*
%TO.C,R5*%
X197139376Y-109278752D03*
X197860624Y-110000000D03*
%TD*%
D30*
%TO.C,R1*%
X198154627Y-121500000D03*
X197134627Y-121500000D03*
%TD*%
D13*
%TO.C,R3*%
X198500000Y-118260000D03*
X198500000Y-119280000D03*
%TD*%
D14*
%TO.C,R6*%
X210450000Y-102790000D03*
X210450000Y-101770000D03*
%TD*%
D27*
%TO.C,C6*%
X196500000Y-116375000D03*
X196500000Y-117335000D03*
%TD*%
D22*
%TO.C,C12*%
X194047972Y-100749480D03*
X193369150Y-100070658D03*
%TD*%
D31*
%TO.C,UB1*%
X178700000Y-92950000D03*
D32*
X178700000Y-97950000D03*
%TD*%
D13*
%TO.C,R12*%
X210100000Y-92160000D03*
X210100000Y-93180000D03*
%TD*%
D33*
%TO.C,C17*%
X198456838Y-107789729D03*
X197778016Y-108468551D03*
%TD*%
D34*
%TO.C,J1*%
X179175000Y-118550000D03*
X179175000Y-117900000D03*
X179175000Y-117250000D03*
X179175000Y-116600000D03*
X179175000Y-115950000D03*
D35*
X176500000Y-113075000D03*
D36*
X176500000Y-113512500D03*
D37*
X179500000Y-115025000D03*
D38*
X176500000Y-117250000D03*
D37*
X179500000Y-119475000D03*
D36*
X176500000Y-120987500D03*
D35*
X176500000Y-121425000D03*
%TD*%
D21*
%TO.C,C15*%
X201635422Y-97746107D03*
X202314244Y-97067285D03*
%TD*%
D24*
%TO.C,SW4*%
X216000000Y-120750000D03*
X209500000Y-120750000D03*
X216000000Y-116250000D03*
X209500000Y-116250000D03*
%TD*%
D39*
%TO.C,Y1*%
X189550431Y-96199569D03*
X192449569Y-93300431D03*
%TD*%
D13*
%TO.C,R13*%
X205250000Y-92170000D03*
X205250000Y-93190000D03*
%TD*%
D33*
%TO.C,C14*%
X197595459Y-106854541D03*
X196916637Y-107533363D03*
%TD*%
D15*
%TO.C,R20*%
X203060000Y-89120130D03*
X204080000Y-89120130D03*
%TD*%
%TO.C,R19*%
X209290000Y-84050000D03*
X210310000Y-84050000D03*
%TD*%
D24*
%TO.C,SW2*%
X212500000Y-77000000D03*
X219000000Y-77000000D03*
X212500000Y-81500000D03*
X219000000Y-81500000D03*
%TD*%
D30*
%TO.C,R22*%
X204080000Y-90170130D03*
X203060000Y-90170130D03*
%TD*%
D29*
%TO.C,R4*%
X195237511Y-97217723D03*
X195958759Y-97938971D03*
%TD*%
D40*
%TO.C,R24*%
X194946766Y-100029263D03*
X194225518Y-99308015D03*
%TD*%
D41*
%TO.C,C8*%
X190797718Y-115936551D03*
X189247718Y-115936551D03*
%TD*%
D15*
%TO.C,R2*%
X197500000Y-120450000D03*
X198520000Y-120450000D03*
%TD*%
D19*
%TO.C,C5*%
X208514682Y-81494737D03*
X210064682Y-81494737D03*
%TD*%
D42*
%TO.C,U4*%
X203833250Y-101608939D03*
X203550408Y-101326096D03*
X203267565Y-101043253D03*
X202984722Y-100760410D03*
X202701880Y-100477568D03*
X202419037Y-100194725D03*
X202136194Y-99911882D03*
X201853351Y-99629040D03*
X201570509Y-99346197D03*
X201287666Y-99063354D03*
X201004823Y-98780511D03*
X200721981Y-98497669D03*
X200439138Y-98214826D03*
X200156295Y-97931983D03*
X199873452Y-97649141D03*
D43*
X198954214Y-97649141D03*
X198671371Y-97931983D03*
X198388528Y-98214826D03*
X198105685Y-98497669D03*
X197822843Y-98780511D03*
X197540000Y-99063354D03*
X197257157Y-99346197D03*
X196974315Y-99629040D03*
X196691472Y-99911882D03*
X196408629Y-100194725D03*
X196125786Y-100477568D03*
X195842944Y-100760410D03*
X195560101Y-101043253D03*
X195277258Y-101326096D03*
X194994416Y-101608939D03*
D42*
X194994416Y-102528177D03*
X195277258Y-102811020D03*
X195560101Y-103093863D03*
X195842944Y-103376706D03*
X196125786Y-103659548D03*
X196408629Y-103942391D03*
X196691472Y-104225234D03*
X196974315Y-104508076D03*
X197257157Y-104790919D03*
X197540000Y-105073762D03*
X197822843Y-105356605D03*
X198105685Y-105639447D03*
X198388528Y-105922290D03*
X198671371Y-106205133D03*
X198954214Y-106487975D03*
D43*
X199873452Y-106487975D03*
X200156295Y-106205133D03*
X200439138Y-105922290D03*
X200721981Y-105639447D03*
X201004823Y-105356605D03*
X201287666Y-105073762D03*
X201570509Y-104790919D03*
X201853351Y-104508076D03*
X202136194Y-104225234D03*
X202419037Y-103942391D03*
X202701880Y-103659548D03*
X202984722Y-103376706D03*
X203267565Y-103093863D03*
X203550408Y-102811020D03*
X203833250Y-102528177D03*
D44*
X199413833Y-102068558D03*
%TD*%
D19*
%TO.C,C9*%
X198842087Y-93415719D03*
X200392087Y-93415719D03*
%TD*%
D13*
%TO.C,R9*%
X210433004Y-99783651D03*
X210433004Y-100803651D03*
%TD*%
D33*
%TO.C,C20*%
X199500000Y-108500000D03*
X198821178Y-109178822D03*
%TD*%
D29*
%TO.C,R23*%
X204567618Y-103449609D03*
X205288866Y-104170857D03*
%TD*%
D15*
%TO.C,R26*%
X209295000Y-82850000D03*
X210315000Y-82850000D03*
%TD*%
D29*
%TO.C,R18*%
X201981322Y-105978522D03*
X202702570Y-106699770D03*
%TD*%
D17*
%TO.C,D1*%
X215650000Y-96750000D03*
X215650000Y-98325000D03*
%TD*%
D45*
%TO.C,C10*%
X202202135Y-93801000D03*
X203298151Y-94897016D03*
%TD*%
D20*
%TO.C,D7*%
X185490000Y-117750000D03*
X183390000Y-117750000D03*
%TD*%
D33*
%TO.C,C27*%
X196506568Y-105802980D03*
X195827746Y-106481802D03*
%TD*%
D46*
%TO.C,ENC1*%
X195000000Y-89200000D03*
D47*
X200000000Y-89200000D03*
X197500000Y-89200000D03*
D48*
X191900000Y-81700000D03*
X203100000Y-81700000D03*
%TD*%
D27*
%TO.C,C7*%
X195430000Y-116375000D03*
X195430000Y-117335000D03*
%TD*%
D25*
%TO.C,C16*%
X201280715Y-106686984D03*
X201959537Y-107365806D03*
%TD*%
D22*
%TO.C,C28*%
X195750520Y-99225754D03*
X195071698Y-98546932D03*
%TD*%
D21*
%TO.C,C26*%
X203447466Y-99228726D03*
X204126288Y-98549904D03*
%TD*%
D49*
%TO.C,U2*%
X195825000Y-118450000D03*
X195825000Y-118950000D03*
X195825000Y-119450000D03*
X197250000Y-119450000D03*
X197250000Y-118950000D03*
X197250000Y-118450000D03*
%TD*%
D14*
%TO.C,R25*%
X180357867Y-85009692D03*
X180357867Y-83989692D03*
%TD*%
D21*
%TO.C,C18*%
X205321178Y-105514375D03*
X206000000Y-104835553D03*
%TD*%
D14*
%TO.C,R10*%
X205236632Y-95162901D03*
X205236632Y-94142901D03*
%TD*%
D29*
%TO.C,R27*%
X203261985Y-93012215D03*
X203983233Y-93733463D03*
%TD*%
D11*
%TO.C,J2*%
X219500000Y-115460000D03*
D10*
X219500000Y-118000000D03*
X219500000Y-120540000D03*
%TD*%
D50*
%TO.C,C25*%
X207000000Y-116112979D03*
X207000000Y-115152979D03*
%TD*%
D11*
%TO.C,BATT_USB_JMP1*%
X180250000Y-106750000D03*
D10*
X177710000Y-106750000D03*
X175170000Y-106750000D03*
%TD*%
D24*
%TO.C,SW3*%
X216250000Y-111250000D03*
X209750000Y-111250000D03*
X216250000Y-106750000D03*
X209750000Y-106750000D03*
%TD*%
D12*
%TO.C,Q1*%
X211600000Y-94350000D03*
X213500000Y-94350000D03*
X212550000Y-92075000D03*
%TD*%
D30*
%TO.C,R28*%
X203142901Y-91134654D03*
X202122901Y-91134654D03*
%TD*%
D27*
%TO.C,C24*%
X207000000Y-113240000D03*
X207000000Y-114200000D03*
%TD*%
D20*
%TO.C,D5*%
X185490000Y-113750000D03*
X183390000Y-113750000D03*
%TD*%
D29*
%TO.C,R17*%
X202694069Y-105268166D03*
X203415317Y-105989414D03*
%TD*%
D17*
%TO.C,D4*%
X209050000Y-96812500D03*
X209050000Y-98387500D03*
%TD*%
D33*
%TO.C,C22*%
X195149934Y-95964762D03*
X194471112Y-96643584D03*
%TD*%
D51*
%TO.C,L2*%
X201750000Y-115250000D03*
X204800000Y-115250000D03*
%TD*%
M02*
