%TF.GenerationSoftware,KiCad,Pcbnew,9.0.4*%
%TF.CreationDate,2025-09-30T19:15:50-07:00*%
%TF.ProjectId,LE_PSU_CAD,4c455f50-5355-45f4-9341-442e6b696361,rev?*%
%TF.SameCoordinates,Original*%
%TF.FileFunction,Legend,Top*%
%TF.FilePolarity,Positive*%
%FSLAX46Y46*%
G04 Gerber Fmt 4.6, Leading zero omitted, Abs format (unit mm)*
G04 Created by KiCad (PCBNEW 9.0.4) date 2025-09-30 19:15:50*
%MOMM*%
%LPD*%
G01*
G04 APERTURE LIST*
G04 Aperture macros list*
%AMRoundRect*
0 Rectangle with rounded corners*
0 $1 Rounding radius*
0 $2 $3 $4 $5 $6 $7 $8 $9 X,Y pos of 4 corners*
0 Add a 4 corners polygon primitive as box body*
4,1,4,$2,$3,$4,$5,$6,$7,$8,$9,$2,$3,0*
0 Add four circle primitives for the rounded corners*
1,1,$1+$1,$2,$3*
1,1,$1+$1,$4,$5*
1,1,$1+$1,$6,$7*
1,1,$1+$1,$8,$9*
0 Add four rect primitives between the rounded corners*
20,1,$1+$1,$2,$3,$4,$5,0*
20,1,$1+$1,$4,$5,$6,$7,0*
20,1,$1+$1,$6,$7,$8,$9,0*
20,1,$1+$1,$8,$9,$2,$3,0*%
%AMRotRect*
0 Rectangle, with rotation*
0 The origin of the aperture is its center*
0 $1 length*
0 $2 width*
0 $3 Rotation angle, in degrees counterclockwise*
0 Add horizontal line*
21,1,$1,$2,0,0,$3*%
G04 Aperture macros list end*
%ADD10C,0.300000*%
%ADD11C,0.153000*%
%ADD12C,0.150000*%
%ADD13C,0.120000*%
%ADD14C,0.200000*%
%ADD15C,1.700000*%
%ADD16R,1.700000X1.700000*%
%ADD17RoundRect,0.150000X0.150000X-0.512500X0.150000X0.512500X-0.150000X0.512500X-0.150000X-0.512500X0*%
%ADD18RoundRect,0.135000X-0.185000X0.135000X-0.185000X-0.135000X0.185000X-0.135000X0.185000X0.135000X0*%
%ADD19RoundRect,0.135000X0.185000X-0.135000X0.185000X0.135000X-0.185000X0.135000X-0.185000X-0.135000X0*%
%ADD20RoundRect,0.135000X-0.135000X-0.185000X0.135000X-0.185000X0.135000X0.185000X-0.135000X0.185000X0*%
%ADD21RoundRect,0.150000X-0.150000X0.512500X-0.150000X-0.512500X0.150000X-0.512500X0.150000X0.512500X0*%
%ADD22RoundRect,0.218750X-0.256250X0.218750X-0.256250X-0.218750X0.256250X-0.218750X0.256250X0.218750X0*%
%ADD23RoundRect,0.162500X-0.650000X-0.162500X0.650000X-0.162500X0.650000X0.162500X-0.650000X0.162500X0*%
%ADD24RoundRect,0.225000X-0.225000X-0.250000X0.225000X-0.250000X0.225000X0.250000X-0.225000X0.250000X0*%
%ADD25RoundRect,0.112500X0.187500X0.112500X-0.187500X0.112500X-0.187500X-0.112500X0.187500X-0.112500X0*%
%ADD26RoundRect,0.140000X0.021213X-0.219203X0.219203X-0.021213X-0.021213X0.219203X-0.219203X0.021213X0*%
%ADD27RoundRect,0.140000X0.219203X0.021213X0.021213X0.219203X-0.219203X-0.021213X-0.021213X-0.219203X0*%
%ADD28RoundRect,0.140000X0.140000X0.170000X-0.140000X0.170000X-0.140000X-0.170000X0.140000X-0.170000X0*%
%ADD29C,2.000000*%
%ADD30RoundRect,0.140000X-0.219203X-0.021213X-0.021213X-0.219203X0.219203X0.021213X0.021213X0.219203X0*%
%ADD31RoundRect,0.225000X0.250000X-0.225000X0.250000X0.225000X-0.250000X0.225000X-0.250000X-0.225000X0*%
%ADD32RoundRect,0.140000X-0.170000X0.140000X-0.170000X-0.140000X0.170000X-0.140000X0.170000X0.140000X0*%
%ADD33RoundRect,0.102000X1.800000X-0.750000X1.800000X0.750000X-1.800000X0.750000X-1.800000X-0.750000X0*%
%ADD34RoundRect,0.135000X-0.226274X-0.035355X-0.035355X-0.226274X0.226274X0.035355X0.035355X0.226274X0*%
%ADD35RoundRect,0.135000X0.135000X0.185000X-0.135000X0.185000X-0.135000X-0.185000X0.135000X-0.185000X0*%
%ADD36RoundRect,0.250000X-1.050000X1.050000X-1.050000X-1.050000X1.050000X-1.050000X1.050000X1.050000X0*%
%ADD37C,2.600000*%
%ADD38RoundRect,0.140000X-0.021213X0.219203X-0.219203X0.021213X0.021213X-0.219203X0.219203X-0.021213X0*%
%ADD39RoundRect,0.100000X-0.575000X0.100000X-0.575000X-0.100000X0.575000X-0.100000X0.575000X0.100000X0*%
%ADD40O,1.900000X1.000000*%
%ADD41R,1.900000X0.875000*%
%ADD42O,1.250000X1.050000*%
%ADD43RoundRect,0.250000X-0.700000X1.200000X-0.700000X-1.200000X0.700000X-1.200000X0.700000X1.200000X0*%
%ADD44RoundRect,0.250000X0.176777X-1.166726X1.166726X-0.176777X-0.176777X1.166726X-1.166726X0.176777X0*%
%ADD45RoundRect,0.135000X0.226274X0.035355X0.035355X0.226274X-0.226274X-0.035355X-0.035355X-0.226274X0*%
%ADD46RoundRect,0.225000X0.225000X0.250000X-0.225000X0.250000X-0.225000X-0.250000X0.225000X-0.250000X0*%
%ADD47RoundRect,0.050000X0.212132X0.282843X-0.282843X-0.212132X-0.212132X-0.282843X0.282843X0.212132X0*%
%ADD48RoundRect,0.050000X-0.212132X0.282843X-0.282843X0.212132X0.212132X-0.282843X0.282843X-0.212132X0*%
%ADD49RotRect,3.400000X3.400000X225.000000*%
%ADD50RoundRect,0.225000X-0.335876X-0.017678X-0.017678X-0.335876X0.335876X0.017678X0.017678X0.335876X0*%
%ADD51RoundRect,0.250000X0.550000X-0.550000X0.550000X0.550000X-0.550000X0.550000X-0.550000X-0.550000X0*%
%ADD52C,1.600000*%
%ADD53O,3.000000X4.100000*%
%ADD54RoundRect,0.087500X-0.250000X-0.087500X0.250000X-0.087500X0.250000X0.087500X-0.250000X0.087500X0*%
%ADD55RoundRect,0.140000X0.170000X-0.140000X0.170000X0.140000X-0.170000X0.140000X-0.170000X-0.140000X0*%
%ADD56RoundRect,0.102000X-0.750000X-1.800000X0.750000X-1.800000X0.750000X1.800000X-0.750000X1.800000X0*%
G04 APERTURE END LIST*
D10*
X179600828Y-112195489D02*
X180815114Y-112195489D01*
X180815114Y-112195489D02*
X180957971Y-112124060D01*
X180957971Y-112124060D02*
X181029400Y-112052632D01*
X181029400Y-112052632D02*
X181100828Y-111909774D01*
X181100828Y-111909774D02*
X181100828Y-111624060D01*
X181100828Y-111624060D02*
X181029400Y-111481203D01*
X181029400Y-111481203D02*
X180957971Y-111409774D01*
X180957971Y-111409774D02*
X180815114Y-111338346D01*
X180815114Y-111338346D02*
X179600828Y-111338346D01*
X181029400Y-110695488D02*
X181100828Y-110481203D01*
X181100828Y-110481203D02*
X181100828Y-110124060D01*
X181100828Y-110124060D02*
X181029400Y-109981203D01*
X181029400Y-109981203D02*
X180957971Y-109909774D01*
X180957971Y-109909774D02*
X180815114Y-109838345D01*
X180815114Y-109838345D02*
X180672257Y-109838345D01*
X180672257Y-109838345D02*
X180529400Y-109909774D01*
X180529400Y-109909774D02*
X180457971Y-109981203D01*
X180457971Y-109981203D02*
X180386542Y-110124060D01*
X180386542Y-110124060D02*
X180315114Y-110409774D01*
X180315114Y-110409774D02*
X180243685Y-110552631D01*
X180243685Y-110552631D02*
X180172257Y-110624060D01*
X180172257Y-110624060D02*
X180029400Y-110695488D01*
X180029400Y-110695488D02*
X179886542Y-110695488D01*
X179886542Y-110695488D02*
X179743685Y-110624060D01*
X179743685Y-110624060D02*
X179672257Y-110552631D01*
X179672257Y-110552631D02*
X179600828Y-110409774D01*
X179600828Y-110409774D02*
X179600828Y-110052631D01*
X179600828Y-110052631D02*
X179672257Y-109838345D01*
X180315114Y-108695489D02*
X180386542Y-108481203D01*
X180386542Y-108481203D02*
X180457971Y-108409774D01*
X180457971Y-108409774D02*
X180600828Y-108338346D01*
X180600828Y-108338346D02*
X180815114Y-108338346D01*
X180815114Y-108338346D02*
X180957971Y-108409774D01*
X180957971Y-108409774D02*
X181029400Y-108481203D01*
X181029400Y-108481203D02*
X181100828Y-108624060D01*
X181100828Y-108624060D02*
X181100828Y-109195489D01*
X181100828Y-109195489D02*
X179600828Y-109195489D01*
X179600828Y-109195489D02*
X179600828Y-108695489D01*
X179600828Y-108695489D02*
X179672257Y-108552632D01*
X179672257Y-108552632D02*
X179743685Y-108481203D01*
X179743685Y-108481203D02*
X179886542Y-108409774D01*
X179886542Y-108409774D02*
X180029400Y-108409774D01*
X180029400Y-108409774D02*
X180172257Y-108481203D01*
X180172257Y-108481203D02*
X180243685Y-108552632D01*
X180243685Y-108552632D02*
X180315114Y-108695489D01*
X180315114Y-108695489D02*
X180315114Y-109195489D01*
X174665114Y-111395489D02*
X174736542Y-111181203D01*
X174736542Y-111181203D02*
X174807971Y-111109774D01*
X174807971Y-111109774D02*
X174950828Y-111038346D01*
X174950828Y-111038346D02*
X175165114Y-111038346D01*
X175165114Y-111038346D02*
X175307971Y-111109774D01*
X175307971Y-111109774D02*
X175379400Y-111181203D01*
X175379400Y-111181203D02*
X175450828Y-111324060D01*
X175450828Y-111324060D02*
X175450828Y-111895489D01*
X175450828Y-111895489D02*
X173950828Y-111895489D01*
X173950828Y-111895489D02*
X173950828Y-111395489D01*
X173950828Y-111395489D02*
X174022257Y-111252632D01*
X174022257Y-111252632D02*
X174093685Y-111181203D01*
X174093685Y-111181203D02*
X174236542Y-111109774D01*
X174236542Y-111109774D02*
X174379400Y-111109774D01*
X174379400Y-111109774D02*
X174522257Y-111181203D01*
X174522257Y-111181203D02*
X174593685Y-111252632D01*
X174593685Y-111252632D02*
X174665114Y-111395489D01*
X174665114Y-111395489D02*
X174665114Y-111895489D01*
X175022257Y-110466917D02*
X175022257Y-109752632D01*
X175450828Y-110609774D02*
X173950828Y-110109774D01*
X173950828Y-110109774D02*
X175450828Y-109609774D01*
X173950828Y-109324060D02*
X173950828Y-108466918D01*
X175450828Y-108895489D02*
X173950828Y-108895489D01*
D11*
X209114761Y-91549901D02*
X209019523Y-91502282D01*
X209019523Y-91502282D02*
X208924285Y-91407044D01*
X208924285Y-91407044D02*
X208781428Y-91264186D01*
X208781428Y-91264186D02*
X208686190Y-91216567D01*
X208686190Y-91216567D02*
X208590952Y-91216567D01*
X208638571Y-91454663D02*
X208543333Y-91407044D01*
X208543333Y-91407044D02*
X208448095Y-91311805D01*
X208448095Y-91311805D02*
X208400476Y-91121329D01*
X208400476Y-91121329D02*
X208400476Y-90787996D01*
X208400476Y-90787996D02*
X208448095Y-90597520D01*
X208448095Y-90597520D02*
X208543333Y-90502282D01*
X208543333Y-90502282D02*
X208638571Y-90454663D01*
X208638571Y-90454663D02*
X208829047Y-90454663D01*
X208829047Y-90454663D02*
X208924285Y-90502282D01*
X208924285Y-90502282D02*
X209019523Y-90597520D01*
X209019523Y-90597520D02*
X209067142Y-90787996D01*
X209067142Y-90787996D02*
X209067142Y-91121329D01*
X209067142Y-91121329D02*
X209019523Y-91311805D01*
X209019523Y-91311805D02*
X208924285Y-91407044D01*
X208924285Y-91407044D02*
X208829047Y-91454663D01*
X208829047Y-91454663D02*
X208638571Y-91454663D01*
X209400476Y-90454663D02*
X210019523Y-90454663D01*
X210019523Y-90454663D02*
X209686190Y-90835615D01*
X209686190Y-90835615D02*
X209829047Y-90835615D01*
X209829047Y-90835615D02*
X209924285Y-90883234D01*
X209924285Y-90883234D02*
X209971904Y-90930853D01*
X209971904Y-90930853D02*
X210019523Y-91026091D01*
X210019523Y-91026091D02*
X210019523Y-91264186D01*
X210019523Y-91264186D02*
X209971904Y-91359424D01*
X209971904Y-91359424D02*
X209924285Y-91407044D01*
X209924285Y-91407044D02*
X209829047Y-91454663D01*
X209829047Y-91454663D02*
X209543333Y-91454663D01*
X209543333Y-91454663D02*
X209448095Y-91407044D01*
X209448095Y-91407044D02*
X209400476Y-91359424D01*
D12*
X196595606Y-91381698D02*
X196262273Y-90905507D01*
X196024178Y-91381698D02*
X196024178Y-90381698D01*
X196024178Y-90381698D02*
X196405130Y-90381698D01*
X196405130Y-90381698D02*
X196500368Y-90429317D01*
X196500368Y-90429317D02*
X196547987Y-90476936D01*
X196547987Y-90476936D02*
X196595606Y-90572174D01*
X196595606Y-90572174D02*
X196595606Y-90715031D01*
X196595606Y-90715031D02*
X196547987Y-90810269D01*
X196547987Y-90810269D02*
X196500368Y-90857888D01*
X196500368Y-90857888D02*
X196405130Y-90905507D01*
X196405130Y-90905507D02*
X196024178Y-90905507D01*
X197547987Y-91381698D02*
X196976559Y-91381698D01*
X197262273Y-91381698D02*
X197262273Y-90381698D01*
X197262273Y-90381698D02*
X197167035Y-90524555D01*
X197167035Y-90524555D02*
X197071797Y-90619793D01*
X197071797Y-90619793D02*
X196976559Y-90667412D01*
X198405130Y-90715031D02*
X198405130Y-91381698D01*
X198167035Y-90334079D02*
X197928940Y-91048364D01*
X197928940Y-91048364D02*
X198547987Y-91048364D01*
D11*
X209654761Y-104549901D02*
X209559523Y-104502282D01*
X209559523Y-104502282D02*
X209464285Y-104407044D01*
X209464285Y-104407044D02*
X209321428Y-104264186D01*
X209321428Y-104264186D02*
X209226190Y-104216567D01*
X209226190Y-104216567D02*
X209130952Y-104216567D01*
X209178571Y-104454663D02*
X209083333Y-104407044D01*
X209083333Y-104407044D02*
X208988095Y-104311805D01*
X208988095Y-104311805D02*
X208940476Y-104121329D01*
X208940476Y-104121329D02*
X208940476Y-103787996D01*
X208940476Y-103787996D02*
X208988095Y-103597520D01*
X208988095Y-103597520D02*
X209083333Y-103502282D01*
X209083333Y-103502282D02*
X209178571Y-103454663D01*
X209178571Y-103454663D02*
X209369047Y-103454663D01*
X209369047Y-103454663D02*
X209464285Y-103502282D01*
X209464285Y-103502282D02*
X209559523Y-103597520D01*
X209559523Y-103597520D02*
X209607142Y-103787996D01*
X209607142Y-103787996D02*
X209607142Y-104121329D01*
X209607142Y-104121329D02*
X209559523Y-104311805D01*
X209559523Y-104311805D02*
X209464285Y-104407044D01*
X209464285Y-104407044D02*
X209369047Y-104454663D01*
X209369047Y-104454663D02*
X209178571Y-104454663D01*
X210464285Y-103787996D02*
X210464285Y-104454663D01*
X210226190Y-103407044D02*
X209988095Y-104121329D01*
X209988095Y-104121329D02*
X210607142Y-104121329D01*
X212438095Y-83754663D02*
X212438095Y-84564186D01*
X212438095Y-84564186D02*
X212485714Y-84659424D01*
X212485714Y-84659424D02*
X212533333Y-84707044D01*
X212533333Y-84707044D02*
X212628571Y-84754663D01*
X212628571Y-84754663D02*
X212819047Y-84754663D01*
X212819047Y-84754663D02*
X212914285Y-84707044D01*
X212914285Y-84707044D02*
X212961904Y-84659424D01*
X212961904Y-84659424D02*
X213009523Y-84564186D01*
X213009523Y-84564186D02*
X213009523Y-83754663D01*
X213390476Y-83754663D02*
X214009523Y-83754663D01*
X214009523Y-83754663D02*
X213676190Y-84135615D01*
X213676190Y-84135615D02*
X213819047Y-84135615D01*
X213819047Y-84135615D02*
X213914285Y-84183234D01*
X213914285Y-84183234D02*
X213961904Y-84230853D01*
X213961904Y-84230853D02*
X214009523Y-84326091D01*
X214009523Y-84326091D02*
X214009523Y-84564186D01*
X214009523Y-84564186D02*
X213961904Y-84659424D01*
X213961904Y-84659424D02*
X213914285Y-84707044D01*
X213914285Y-84707044D02*
X213819047Y-84754663D01*
X213819047Y-84754663D02*
X213533333Y-84754663D01*
X213533333Y-84754663D02*
X213438095Y-84707044D01*
X213438095Y-84707044D02*
X213390476Y-84659424D01*
D12*
X192922760Y-114882009D02*
X192875141Y-114929629D01*
X192875141Y-114929629D02*
X192732284Y-114977248D01*
X192732284Y-114977248D02*
X192637046Y-114977248D01*
X192637046Y-114977248D02*
X192494189Y-114929629D01*
X192494189Y-114929629D02*
X192398951Y-114834390D01*
X192398951Y-114834390D02*
X192351332Y-114739152D01*
X192351332Y-114739152D02*
X192303713Y-114548676D01*
X192303713Y-114548676D02*
X192303713Y-114405819D01*
X192303713Y-114405819D02*
X192351332Y-114215343D01*
X192351332Y-114215343D02*
X192398951Y-114120105D01*
X192398951Y-114120105D02*
X192494189Y-114024867D01*
X192494189Y-114024867D02*
X192637046Y-113977248D01*
X192637046Y-113977248D02*
X192732284Y-113977248D01*
X192732284Y-113977248D02*
X192875141Y-114024867D01*
X192875141Y-114024867D02*
X192922760Y-114072486D01*
X193303713Y-114072486D02*
X193351332Y-114024867D01*
X193351332Y-114024867D02*
X193446570Y-113977248D01*
X193446570Y-113977248D02*
X193684665Y-113977248D01*
X193684665Y-113977248D02*
X193779903Y-114024867D01*
X193779903Y-114024867D02*
X193827522Y-114072486D01*
X193827522Y-114072486D02*
X193875141Y-114167724D01*
X193875141Y-114167724D02*
X193875141Y-114262962D01*
X193875141Y-114262962D02*
X193827522Y-114405819D01*
X193827522Y-114405819D02*
X193256094Y-114977248D01*
X193256094Y-114977248D02*
X193875141Y-114977248D01*
D11*
X214404761Y-104549901D02*
X214309523Y-104502282D01*
X214309523Y-104502282D02*
X214214285Y-104407044D01*
X214214285Y-104407044D02*
X214071428Y-104264186D01*
X214071428Y-104264186D02*
X213976190Y-104216567D01*
X213976190Y-104216567D02*
X213880952Y-104216567D01*
X213928571Y-104454663D02*
X213833333Y-104407044D01*
X213833333Y-104407044D02*
X213738095Y-104311805D01*
X213738095Y-104311805D02*
X213690476Y-104121329D01*
X213690476Y-104121329D02*
X213690476Y-103787996D01*
X213690476Y-103787996D02*
X213738095Y-103597520D01*
X213738095Y-103597520D02*
X213833333Y-103502282D01*
X213833333Y-103502282D02*
X213928571Y-103454663D01*
X213928571Y-103454663D02*
X214119047Y-103454663D01*
X214119047Y-103454663D02*
X214214285Y-103502282D01*
X214214285Y-103502282D02*
X214309523Y-103597520D01*
X214309523Y-103597520D02*
X214357142Y-103787996D01*
X214357142Y-103787996D02*
X214357142Y-104121329D01*
X214357142Y-104121329D02*
X214309523Y-104311805D01*
X214309523Y-104311805D02*
X214214285Y-104407044D01*
X214214285Y-104407044D02*
X214119047Y-104454663D01*
X214119047Y-104454663D02*
X213928571Y-104454663D01*
X214738095Y-103549901D02*
X214785714Y-103502282D01*
X214785714Y-103502282D02*
X214880952Y-103454663D01*
X214880952Y-103454663D02*
X215119047Y-103454663D01*
X215119047Y-103454663D02*
X215214285Y-103502282D01*
X215214285Y-103502282D02*
X215261904Y-103549901D01*
X215261904Y-103549901D02*
X215309523Y-103645139D01*
X215309523Y-103645139D02*
X215309523Y-103740377D01*
X215309523Y-103740377D02*
X215261904Y-103883234D01*
X215261904Y-103883234D02*
X214690476Y-104454663D01*
X214690476Y-104454663D02*
X215309523Y-104454663D01*
X181201905Y-116254663D02*
X181201905Y-115254663D01*
X181201905Y-115254663D02*
X181440000Y-115254663D01*
X181440000Y-115254663D02*
X181582857Y-115302282D01*
X181582857Y-115302282D02*
X181678095Y-115397520D01*
X181678095Y-115397520D02*
X181725714Y-115492758D01*
X181725714Y-115492758D02*
X181773333Y-115683234D01*
X181773333Y-115683234D02*
X181773333Y-115826091D01*
X181773333Y-115826091D02*
X181725714Y-116016567D01*
X181725714Y-116016567D02*
X181678095Y-116111805D01*
X181678095Y-116111805D02*
X181582857Y-116207044D01*
X181582857Y-116207044D02*
X181440000Y-116254663D01*
X181440000Y-116254663D02*
X181201905Y-116254663D01*
X182630476Y-115254663D02*
X182440000Y-115254663D01*
X182440000Y-115254663D02*
X182344762Y-115302282D01*
X182344762Y-115302282D02*
X182297143Y-115349901D01*
X182297143Y-115349901D02*
X182201905Y-115492758D01*
X182201905Y-115492758D02*
X182154286Y-115683234D01*
X182154286Y-115683234D02*
X182154286Y-116064186D01*
X182154286Y-116064186D02*
X182201905Y-116159424D01*
X182201905Y-116159424D02*
X182249524Y-116207044D01*
X182249524Y-116207044D02*
X182344762Y-116254663D01*
X182344762Y-116254663D02*
X182535238Y-116254663D01*
X182535238Y-116254663D02*
X182630476Y-116207044D01*
X182630476Y-116207044D02*
X182678095Y-116159424D01*
X182678095Y-116159424D02*
X182725714Y-116064186D01*
X182725714Y-116064186D02*
X182725714Y-115826091D01*
X182725714Y-115826091D02*
X182678095Y-115730853D01*
X182678095Y-115730853D02*
X182630476Y-115683234D01*
X182630476Y-115683234D02*
X182535238Y-115635615D01*
X182535238Y-115635615D02*
X182344762Y-115635615D01*
X182344762Y-115635615D02*
X182249524Y-115683234D01*
X182249524Y-115683234D02*
X182201905Y-115730853D01*
X182201905Y-115730853D02*
X182154286Y-115826091D01*
D12*
X195738333Y-121969580D02*
X195690714Y-122017200D01*
X195690714Y-122017200D02*
X195547857Y-122064819D01*
X195547857Y-122064819D02*
X195452619Y-122064819D01*
X195452619Y-122064819D02*
X195309762Y-122017200D01*
X195309762Y-122017200D02*
X195214524Y-121921961D01*
X195214524Y-121921961D02*
X195166905Y-121826723D01*
X195166905Y-121826723D02*
X195119286Y-121636247D01*
X195119286Y-121636247D02*
X195119286Y-121493390D01*
X195119286Y-121493390D02*
X195166905Y-121302914D01*
X195166905Y-121302914D02*
X195214524Y-121207676D01*
X195214524Y-121207676D02*
X195309762Y-121112438D01*
X195309762Y-121112438D02*
X195452619Y-121064819D01*
X195452619Y-121064819D02*
X195547857Y-121064819D01*
X195547857Y-121064819D02*
X195690714Y-121112438D01*
X195690714Y-121112438D02*
X195738333Y-121160057D01*
X196071667Y-121064819D02*
X196690714Y-121064819D01*
X196690714Y-121064819D02*
X196357381Y-121445771D01*
X196357381Y-121445771D02*
X196500238Y-121445771D01*
X196500238Y-121445771D02*
X196595476Y-121493390D01*
X196595476Y-121493390D02*
X196643095Y-121541009D01*
X196643095Y-121541009D02*
X196690714Y-121636247D01*
X196690714Y-121636247D02*
X196690714Y-121874342D01*
X196690714Y-121874342D02*
X196643095Y-121969580D01*
X196643095Y-121969580D02*
X196595476Y-122017200D01*
X196595476Y-122017200D02*
X196500238Y-122064819D01*
X196500238Y-122064819D02*
X196214524Y-122064819D01*
X196214524Y-122064819D02*
X196119286Y-122017200D01*
X196119286Y-122017200D02*
X196071667Y-121969580D01*
D11*
X177916667Y-75657044D02*
X178059524Y-75704663D01*
X178059524Y-75704663D02*
X178297619Y-75704663D01*
X178297619Y-75704663D02*
X178392857Y-75657044D01*
X178392857Y-75657044D02*
X178440476Y-75609424D01*
X178440476Y-75609424D02*
X178488095Y-75514186D01*
X178488095Y-75514186D02*
X178488095Y-75418948D01*
X178488095Y-75418948D02*
X178440476Y-75323710D01*
X178440476Y-75323710D02*
X178392857Y-75276091D01*
X178392857Y-75276091D02*
X178297619Y-75228472D01*
X178297619Y-75228472D02*
X178107143Y-75180853D01*
X178107143Y-75180853D02*
X178011905Y-75133234D01*
X178011905Y-75133234D02*
X177964286Y-75085615D01*
X177964286Y-75085615D02*
X177916667Y-74990377D01*
X177916667Y-74990377D02*
X177916667Y-74895139D01*
X177916667Y-74895139D02*
X177964286Y-74799901D01*
X177964286Y-74799901D02*
X178011905Y-74752282D01*
X178011905Y-74752282D02*
X178107143Y-74704663D01*
X178107143Y-74704663D02*
X178345238Y-74704663D01*
X178345238Y-74704663D02*
X178488095Y-74752282D01*
X178821429Y-74704663D02*
X179059524Y-75704663D01*
X179059524Y-75704663D02*
X179250000Y-74990377D01*
X179250000Y-74990377D02*
X179440476Y-75704663D01*
X179440476Y-75704663D02*
X179678572Y-74704663D01*
X180583333Y-75704663D02*
X180011905Y-75704663D01*
X180297619Y-75704663D02*
X180297619Y-74704663D01*
X180297619Y-74704663D02*
X180202381Y-74847520D01*
X180202381Y-74847520D02*
X180107143Y-74942758D01*
X180107143Y-74942758D02*
X180011905Y-74990377D01*
D12*
X202541169Y-110049693D02*
X202473825Y-110049693D01*
X202473825Y-110049693D02*
X202339138Y-109982349D01*
X202339138Y-109982349D02*
X202271795Y-109915006D01*
X202271795Y-109915006D02*
X202204451Y-109780319D01*
X202204451Y-109780319D02*
X202204451Y-109645632D01*
X202204451Y-109645632D02*
X202238123Y-109544617D01*
X202238123Y-109544617D02*
X202339138Y-109376258D01*
X202339138Y-109376258D02*
X202440153Y-109275243D01*
X202440153Y-109275243D02*
X202608512Y-109174227D01*
X202608512Y-109174227D02*
X202709527Y-109140556D01*
X202709527Y-109140556D02*
X202844214Y-109140556D01*
X202844214Y-109140556D02*
X202978901Y-109207899D01*
X202978901Y-109207899D02*
X203046245Y-109275243D01*
X203046245Y-109275243D02*
X203113588Y-109409930D01*
X203113588Y-109409930D02*
X203113588Y-109477273D01*
X203382962Y-109746647D02*
X203450306Y-109746647D01*
X203450306Y-109746647D02*
X203551321Y-109780319D01*
X203551321Y-109780319D02*
X203719680Y-109948678D01*
X203719680Y-109948678D02*
X203753352Y-110049693D01*
X203753352Y-110049693D02*
X203753352Y-110117036D01*
X203753352Y-110117036D02*
X203719680Y-110218052D01*
X203719680Y-110218052D02*
X203652336Y-110285395D01*
X203652336Y-110285395D02*
X203517649Y-110352739D01*
X203517649Y-110352739D02*
X202709527Y-110352739D01*
X202709527Y-110352739D02*
X203147260Y-110790471D01*
X204090069Y-110319067D02*
X204527802Y-110756800D01*
X204527802Y-110756800D02*
X204022726Y-110790472D01*
X204022726Y-110790472D02*
X204123741Y-110891487D01*
X204123741Y-110891487D02*
X204157413Y-110992502D01*
X204157413Y-110992502D02*
X204157413Y-111059846D01*
X204157413Y-111059846D02*
X204123741Y-111160861D01*
X204123741Y-111160861D02*
X203955382Y-111329220D01*
X203955382Y-111329220D02*
X203854367Y-111362891D01*
X203854367Y-111362891D02*
X203787024Y-111362891D01*
X203787024Y-111362891D02*
X203686008Y-111329220D01*
X203686008Y-111329220D02*
X203483978Y-111127189D01*
X203483978Y-111127189D02*
X203450306Y-111026174D01*
X203450306Y-111026174D02*
X203450306Y-110958830D01*
X179704819Y-87642857D02*
X179228628Y-87976190D01*
X179704819Y-88214285D02*
X178704819Y-88214285D01*
X178704819Y-88214285D02*
X178704819Y-87833333D01*
X178704819Y-87833333D02*
X178752438Y-87738095D01*
X178752438Y-87738095D02*
X178800057Y-87690476D01*
X178800057Y-87690476D02*
X178895295Y-87642857D01*
X178895295Y-87642857D02*
X179038152Y-87642857D01*
X179038152Y-87642857D02*
X179133390Y-87690476D01*
X179133390Y-87690476D02*
X179181009Y-87738095D01*
X179181009Y-87738095D02*
X179228628Y-87833333D01*
X179228628Y-87833333D02*
X179228628Y-88214285D01*
X179704819Y-86690476D02*
X179704819Y-87261904D01*
X179704819Y-86976190D02*
X178704819Y-86976190D01*
X178704819Y-86976190D02*
X178847676Y-87071428D01*
X178847676Y-87071428D02*
X178942914Y-87166666D01*
X178942914Y-87166666D02*
X178990533Y-87261904D01*
X178704819Y-85833333D02*
X178704819Y-86023809D01*
X178704819Y-86023809D02*
X178752438Y-86119047D01*
X178752438Y-86119047D02*
X178800057Y-86166666D01*
X178800057Y-86166666D02*
X178942914Y-86261904D01*
X178942914Y-86261904D02*
X179133390Y-86309523D01*
X179133390Y-86309523D02*
X179514342Y-86309523D01*
X179514342Y-86309523D02*
X179609580Y-86261904D01*
X179609580Y-86261904D02*
X179657200Y-86214285D01*
X179657200Y-86214285D02*
X179704819Y-86119047D01*
X179704819Y-86119047D02*
X179704819Y-85928571D01*
X179704819Y-85928571D02*
X179657200Y-85833333D01*
X179657200Y-85833333D02*
X179609580Y-85785714D01*
X179609580Y-85785714D02*
X179514342Y-85738095D01*
X179514342Y-85738095D02*
X179276247Y-85738095D01*
X179276247Y-85738095D02*
X179181009Y-85785714D01*
X179181009Y-85785714D02*
X179133390Y-85833333D01*
X179133390Y-85833333D02*
X179085771Y-85928571D01*
X179085771Y-85928571D02*
X179085771Y-86119047D01*
X179085771Y-86119047D02*
X179133390Y-86214285D01*
X179133390Y-86214285D02*
X179181009Y-86261904D01*
X179181009Y-86261904D02*
X179276247Y-86309523D01*
X176229580Y-86786666D02*
X176277200Y-86834285D01*
X176277200Y-86834285D02*
X176324819Y-86977142D01*
X176324819Y-86977142D02*
X176324819Y-87072380D01*
X176324819Y-87072380D02*
X176277200Y-87215237D01*
X176277200Y-87215237D02*
X176181961Y-87310475D01*
X176181961Y-87310475D02*
X176086723Y-87358094D01*
X176086723Y-87358094D02*
X175896247Y-87405713D01*
X175896247Y-87405713D02*
X175753390Y-87405713D01*
X175753390Y-87405713D02*
X175562914Y-87358094D01*
X175562914Y-87358094D02*
X175467676Y-87310475D01*
X175467676Y-87310475D02*
X175372438Y-87215237D01*
X175372438Y-87215237D02*
X175324819Y-87072380D01*
X175324819Y-87072380D02*
X175324819Y-86977142D01*
X175324819Y-86977142D02*
X175372438Y-86834285D01*
X175372438Y-86834285D02*
X175420057Y-86786666D01*
X175658152Y-85929523D02*
X176324819Y-85929523D01*
X175277200Y-86167618D02*
X175991485Y-86405713D01*
X175991485Y-86405713D02*
X175991485Y-85786666D01*
X196586603Y-92604737D02*
X196253270Y-92128546D01*
X196015175Y-92604737D02*
X196015175Y-91604737D01*
X196015175Y-91604737D02*
X196396127Y-91604737D01*
X196396127Y-91604737D02*
X196491365Y-91652356D01*
X196491365Y-91652356D02*
X196538984Y-91699975D01*
X196538984Y-91699975D02*
X196586603Y-91795213D01*
X196586603Y-91795213D02*
X196586603Y-91938070D01*
X196586603Y-91938070D02*
X196538984Y-92033308D01*
X196538984Y-92033308D02*
X196491365Y-92080927D01*
X196491365Y-92080927D02*
X196396127Y-92128546D01*
X196396127Y-92128546D02*
X196015175Y-92128546D01*
X197538984Y-92604737D02*
X196967556Y-92604737D01*
X197253270Y-92604737D02*
X197253270Y-91604737D01*
X197253270Y-91604737D02*
X197158032Y-91747594D01*
X197158032Y-91747594D02*
X197062794Y-91842832D01*
X197062794Y-91842832D02*
X196967556Y-91890451D01*
X198443746Y-91604737D02*
X197967556Y-91604737D01*
X197967556Y-91604737D02*
X197919937Y-92080927D01*
X197919937Y-92080927D02*
X197967556Y-92033308D01*
X197967556Y-92033308D02*
X198062794Y-91985689D01*
X198062794Y-91985689D02*
X198300889Y-91985689D01*
X198300889Y-91985689D02*
X198396127Y-92033308D01*
X198396127Y-92033308D02*
X198443746Y-92080927D01*
X198443746Y-92080927D02*
X198491365Y-92176165D01*
X198491365Y-92176165D02*
X198491365Y-92414260D01*
X198491365Y-92414260D02*
X198443746Y-92509498D01*
X198443746Y-92509498D02*
X198396127Y-92557118D01*
X198396127Y-92557118D02*
X198300889Y-92604737D01*
X198300889Y-92604737D02*
X198062794Y-92604737D01*
X198062794Y-92604737D02*
X197967556Y-92557118D01*
X197967556Y-92557118D02*
X197919937Y-92509498D01*
X198359580Y-115166666D02*
X198407200Y-115214285D01*
X198407200Y-115214285D02*
X198454819Y-115357142D01*
X198454819Y-115357142D02*
X198454819Y-115452380D01*
X198454819Y-115452380D02*
X198407200Y-115595237D01*
X198407200Y-115595237D02*
X198311961Y-115690475D01*
X198311961Y-115690475D02*
X198216723Y-115738094D01*
X198216723Y-115738094D02*
X198026247Y-115785713D01*
X198026247Y-115785713D02*
X197883390Y-115785713D01*
X197883390Y-115785713D02*
X197692914Y-115738094D01*
X197692914Y-115738094D02*
X197597676Y-115690475D01*
X197597676Y-115690475D02*
X197502438Y-115595237D01*
X197502438Y-115595237D02*
X197454819Y-115452380D01*
X197454819Y-115452380D02*
X197454819Y-115357142D01*
X197454819Y-115357142D02*
X197502438Y-115214285D01*
X197502438Y-115214285D02*
X197550057Y-115166666D01*
X198454819Y-114214285D02*
X198454819Y-114785713D01*
X198454819Y-114499999D02*
X197454819Y-114499999D01*
X197454819Y-114499999D02*
X197597676Y-114595237D01*
X197597676Y-114595237D02*
X197692914Y-114690475D01*
X197692914Y-114690475D02*
X197740533Y-114785713D01*
D11*
X188583333Y-121754663D02*
X188107143Y-121754663D01*
X188107143Y-121754663D02*
X188107143Y-120754663D01*
X189440476Y-121754663D02*
X188869048Y-121754663D01*
X189154762Y-121754663D02*
X189154762Y-120754663D01*
X189154762Y-120754663D02*
X189059524Y-120897520D01*
X189059524Y-120897520D02*
X188964286Y-120992758D01*
X188964286Y-120992758D02*
X188869048Y-121040377D01*
D12*
X196082626Y-93617659D02*
X196015282Y-93617659D01*
X196015282Y-93617659D02*
X195880595Y-93550315D01*
X195880595Y-93550315D02*
X195813252Y-93482972D01*
X195813252Y-93482972D02*
X195745908Y-93348285D01*
X195745908Y-93348285D02*
X195745908Y-93213598D01*
X195745908Y-93213598D02*
X195779580Y-93112583D01*
X195779580Y-93112583D02*
X195880595Y-92944224D01*
X195880595Y-92944224D02*
X195981610Y-92843209D01*
X195981610Y-92843209D02*
X196149969Y-92742193D01*
X196149969Y-92742193D02*
X196250984Y-92708522D01*
X196250984Y-92708522D02*
X196385671Y-92708522D01*
X196385671Y-92708522D02*
X196520358Y-92775865D01*
X196520358Y-92775865D02*
X196587702Y-92843209D01*
X196587702Y-92843209D02*
X196655045Y-92977896D01*
X196655045Y-92977896D02*
X196655045Y-93045239D01*
X196924419Y-93314613D02*
X196991763Y-93314613D01*
X196991763Y-93314613D02*
X197092778Y-93348285D01*
X197092778Y-93348285D02*
X197261137Y-93516644D01*
X197261137Y-93516644D02*
X197294809Y-93617659D01*
X197294809Y-93617659D02*
X197294809Y-93685002D01*
X197294809Y-93685002D02*
X197261137Y-93786018D01*
X197261137Y-93786018D02*
X197193793Y-93853361D01*
X197193793Y-93853361D02*
X197059106Y-93920705D01*
X197059106Y-93920705D02*
X196250984Y-93920705D01*
X196250984Y-93920705D02*
X196688717Y-94358437D01*
X197362152Y-95031873D02*
X196958091Y-94627812D01*
X197160122Y-94829842D02*
X197867229Y-94122735D01*
X197867229Y-94122735D02*
X197698870Y-94156407D01*
X197698870Y-94156407D02*
X197564183Y-94156407D01*
X197564183Y-94156407D02*
X197463168Y-94122735D01*
X196060543Y-110703754D02*
X196161558Y-110131335D01*
X195656482Y-110299693D02*
X196363589Y-109592587D01*
X196363589Y-109592587D02*
X196632963Y-109861961D01*
X196632963Y-109861961D02*
X196666635Y-109962976D01*
X196666635Y-109962976D02*
X196666635Y-110030319D01*
X196666635Y-110030319D02*
X196632963Y-110131335D01*
X196632963Y-110131335D02*
X196531948Y-110232350D01*
X196531948Y-110232350D02*
X196430932Y-110266022D01*
X196430932Y-110266022D02*
X196363589Y-110266022D01*
X196363589Y-110266022D02*
X196262574Y-110232350D01*
X196262574Y-110232350D02*
X195993200Y-109962976D01*
X197407413Y-110636411D02*
X197070696Y-110299693D01*
X197070696Y-110299693D02*
X196700306Y-110602739D01*
X196700306Y-110602739D02*
X196767650Y-110602739D01*
X196767650Y-110602739D02*
X196868665Y-110636411D01*
X196868665Y-110636411D02*
X197037024Y-110804770D01*
X197037024Y-110804770D02*
X197070696Y-110905785D01*
X197070696Y-110905785D02*
X197070696Y-110973128D01*
X197070696Y-110973128D02*
X197037024Y-111074144D01*
X197037024Y-111074144D02*
X196868665Y-111242502D01*
X196868665Y-111242502D02*
X196767650Y-111276174D01*
X196767650Y-111276174D02*
X196700306Y-111276174D01*
X196700306Y-111276174D02*
X196599291Y-111242502D01*
X196599291Y-111242502D02*
X196430932Y-111074144D01*
X196430932Y-111074144D02*
X196397261Y-110973128D01*
X196397261Y-110973128D02*
X196397261Y-110905785D01*
X197477960Y-123124819D02*
X197144627Y-122648628D01*
X196906532Y-123124819D02*
X196906532Y-122124819D01*
X196906532Y-122124819D02*
X197287484Y-122124819D01*
X197287484Y-122124819D02*
X197382722Y-122172438D01*
X197382722Y-122172438D02*
X197430341Y-122220057D01*
X197430341Y-122220057D02*
X197477960Y-122315295D01*
X197477960Y-122315295D02*
X197477960Y-122458152D01*
X197477960Y-122458152D02*
X197430341Y-122553390D01*
X197430341Y-122553390D02*
X197382722Y-122601009D01*
X197382722Y-122601009D02*
X197287484Y-122648628D01*
X197287484Y-122648628D02*
X196906532Y-122648628D01*
X198430341Y-123124819D02*
X197858913Y-123124819D01*
X198144627Y-123124819D02*
X198144627Y-122124819D01*
X198144627Y-122124819D02*
X198049389Y-122267676D01*
X198049389Y-122267676D02*
X197954151Y-122362914D01*
X197954151Y-122362914D02*
X197858913Y-122410533D01*
X200124819Y-118936666D02*
X199648628Y-119269999D01*
X200124819Y-119508094D02*
X199124819Y-119508094D01*
X199124819Y-119508094D02*
X199124819Y-119127142D01*
X199124819Y-119127142D02*
X199172438Y-119031904D01*
X199172438Y-119031904D02*
X199220057Y-118984285D01*
X199220057Y-118984285D02*
X199315295Y-118936666D01*
X199315295Y-118936666D02*
X199458152Y-118936666D01*
X199458152Y-118936666D02*
X199553390Y-118984285D01*
X199553390Y-118984285D02*
X199601009Y-119031904D01*
X199601009Y-119031904D02*
X199648628Y-119127142D01*
X199648628Y-119127142D02*
X199648628Y-119508094D01*
X199124819Y-118603332D02*
X199124819Y-117984285D01*
X199124819Y-117984285D02*
X199505771Y-118317618D01*
X199505771Y-118317618D02*
X199505771Y-118174761D01*
X199505771Y-118174761D02*
X199553390Y-118079523D01*
X199553390Y-118079523D02*
X199601009Y-118031904D01*
X199601009Y-118031904D02*
X199696247Y-117984285D01*
X199696247Y-117984285D02*
X199934342Y-117984285D01*
X199934342Y-117984285D02*
X200029580Y-118031904D01*
X200029580Y-118031904D02*
X200077200Y-118079523D01*
X200077200Y-118079523D02*
X200124819Y-118174761D01*
X200124819Y-118174761D02*
X200124819Y-118460475D01*
X200124819Y-118460475D02*
X200077200Y-118555713D01*
X200077200Y-118555713D02*
X200029580Y-118603332D01*
X197109580Y-115166666D02*
X197157200Y-115214285D01*
X197157200Y-115214285D02*
X197204819Y-115357142D01*
X197204819Y-115357142D02*
X197204819Y-115452380D01*
X197204819Y-115452380D02*
X197157200Y-115595237D01*
X197157200Y-115595237D02*
X197061961Y-115690475D01*
X197061961Y-115690475D02*
X196966723Y-115738094D01*
X196966723Y-115738094D02*
X196776247Y-115785713D01*
X196776247Y-115785713D02*
X196633390Y-115785713D01*
X196633390Y-115785713D02*
X196442914Y-115738094D01*
X196442914Y-115738094D02*
X196347676Y-115690475D01*
X196347676Y-115690475D02*
X196252438Y-115595237D01*
X196252438Y-115595237D02*
X196204819Y-115452380D01*
X196204819Y-115452380D02*
X196204819Y-115357142D01*
X196204819Y-115357142D02*
X196252438Y-115214285D01*
X196252438Y-115214285D02*
X196300057Y-115166666D01*
X196204819Y-114309523D02*
X196204819Y-114499999D01*
X196204819Y-114499999D02*
X196252438Y-114595237D01*
X196252438Y-114595237D02*
X196300057Y-114642856D01*
X196300057Y-114642856D02*
X196442914Y-114738094D01*
X196442914Y-114738094D02*
X196633390Y-114785713D01*
X196633390Y-114785713D02*
X197014342Y-114785713D01*
X197014342Y-114785713D02*
X197109580Y-114738094D01*
X197109580Y-114738094D02*
X197157200Y-114690475D01*
X197157200Y-114690475D02*
X197204819Y-114595237D01*
X197204819Y-114595237D02*
X197204819Y-114404761D01*
X197204819Y-114404761D02*
X197157200Y-114309523D01*
X197157200Y-114309523D02*
X197109580Y-114261904D01*
X197109580Y-114261904D02*
X197014342Y-114214285D01*
X197014342Y-114214285D02*
X196776247Y-114214285D01*
X196776247Y-114214285D02*
X196681009Y-114261904D01*
X196681009Y-114261904D02*
X196633390Y-114309523D01*
X196633390Y-114309523D02*
X196585771Y-114404761D01*
X196585771Y-114404761D02*
X196585771Y-114595237D01*
X196585771Y-114595237D02*
X196633390Y-114690475D01*
X196633390Y-114690475D02*
X196681009Y-114738094D01*
X196681009Y-114738094D02*
X196776247Y-114785713D01*
D11*
X184688095Y-90154663D02*
X184688095Y-90964186D01*
X184688095Y-90964186D02*
X184735714Y-91059424D01*
X184735714Y-91059424D02*
X184783333Y-91107044D01*
X184783333Y-91107044D02*
X184878571Y-91154663D01*
X184878571Y-91154663D02*
X185069047Y-91154663D01*
X185069047Y-91154663D02*
X185164285Y-91107044D01*
X185164285Y-91107044D02*
X185211904Y-91059424D01*
X185211904Y-91059424D02*
X185259523Y-90964186D01*
X185259523Y-90964186D02*
X185259523Y-90154663D01*
X186069047Y-90630853D02*
X186211904Y-90678472D01*
X186211904Y-90678472D02*
X186259523Y-90726091D01*
X186259523Y-90726091D02*
X186307142Y-90821329D01*
X186307142Y-90821329D02*
X186307142Y-90964186D01*
X186307142Y-90964186D02*
X186259523Y-91059424D01*
X186259523Y-91059424D02*
X186211904Y-91107044D01*
X186211904Y-91107044D02*
X186116666Y-91154663D01*
X186116666Y-91154663D02*
X185735714Y-91154663D01*
X185735714Y-91154663D02*
X185735714Y-90154663D01*
X185735714Y-90154663D02*
X186069047Y-90154663D01*
X186069047Y-90154663D02*
X186164285Y-90202282D01*
X186164285Y-90202282D02*
X186211904Y-90249901D01*
X186211904Y-90249901D02*
X186259523Y-90345139D01*
X186259523Y-90345139D02*
X186259523Y-90440377D01*
X186259523Y-90440377D02*
X186211904Y-90535615D01*
X186211904Y-90535615D02*
X186164285Y-90583234D01*
X186164285Y-90583234D02*
X186069047Y-90630853D01*
X186069047Y-90630853D02*
X185735714Y-90630853D01*
X187259523Y-91154663D02*
X186688095Y-91154663D01*
X186973809Y-91154663D02*
X186973809Y-90154663D01*
X186973809Y-90154663D02*
X186878571Y-90297520D01*
X186878571Y-90297520D02*
X186783333Y-90392758D01*
X186783333Y-90392758D02*
X186688095Y-90440377D01*
X180916666Y-120454663D02*
X180916666Y-121168948D01*
X180916666Y-121168948D02*
X180869047Y-121311805D01*
X180869047Y-121311805D02*
X180773809Y-121407044D01*
X180773809Y-121407044D02*
X180630952Y-121454663D01*
X180630952Y-121454663D02*
X180535714Y-121454663D01*
X181916666Y-121454663D02*
X181345238Y-121454663D01*
X181630952Y-121454663D02*
X181630952Y-120454663D01*
X181630952Y-120454663D02*
X181535714Y-120597520D01*
X181535714Y-120597520D02*
X181440476Y-120692758D01*
X181440476Y-120692758D02*
X181345238Y-120740377D01*
X211416667Y-123157044D02*
X211559524Y-123204663D01*
X211559524Y-123204663D02*
X211797619Y-123204663D01*
X211797619Y-123204663D02*
X211892857Y-123157044D01*
X211892857Y-123157044D02*
X211940476Y-123109424D01*
X211940476Y-123109424D02*
X211988095Y-123014186D01*
X211988095Y-123014186D02*
X211988095Y-122918948D01*
X211988095Y-122918948D02*
X211940476Y-122823710D01*
X211940476Y-122823710D02*
X211892857Y-122776091D01*
X211892857Y-122776091D02*
X211797619Y-122728472D01*
X211797619Y-122728472D02*
X211607143Y-122680853D01*
X211607143Y-122680853D02*
X211511905Y-122633234D01*
X211511905Y-122633234D02*
X211464286Y-122585615D01*
X211464286Y-122585615D02*
X211416667Y-122490377D01*
X211416667Y-122490377D02*
X211416667Y-122395139D01*
X211416667Y-122395139D02*
X211464286Y-122299901D01*
X211464286Y-122299901D02*
X211511905Y-122252282D01*
X211511905Y-122252282D02*
X211607143Y-122204663D01*
X211607143Y-122204663D02*
X211845238Y-122204663D01*
X211845238Y-122204663D02*
X211988095Y-122252282D01*
X212321429Y-122204663D02*
X212559524Y-123204663D01*
X212559524Y-123204663D02*
X212750000Y-122490377D01*
X212750000Y-122490377D02*
X212940476Y-123204663D01*
X212940476Y-123204663D02*
X213178572Y-122204663D01*
X213988095Y-122537996D02*
X213988095Y-123204663D01*
X213750000Y-122157044D02*
X213511905Y-122871329D01*
X213511905Y-122871329D02*
X214130952Y-122871329D01*
X188668161Y-93091596D02*
X189004878Y-93428313D01*
X188062069Y-92956909D02*
X188668161Y-93091596D01*
X188668161Y-93091596D02*
X188533474Y-92485504D01*
X189846672Y-92586520D02*
X189442611Y-92990581D01*
X189644642Y-92788550D02*
X188937535Y-92081443D01*
X188937535Y-92081443D02*
X188971207Y-92249802D01*
X188971207Y-92249802D02*
X188971207Y-92384489D01*
X188971207Y-92384489D02*
X188937535Y-92485504D01*
D12*
X206107142Y-84204819D02*
X205773809Y-83728628D01*
X205535714Y-84204819D02*
X205535714Y-83204819D01*
X205535714Y-83204819D02*
X205916666Y-83204819D01*
X205916666Y-83204819D02*
X206011904Y-83252438D01*
X206011904Y-83252438D02*
X206059523Y-83300057D01*
X206059523Y-83300057D02*
X206107142Y-83395295D01*
X206107142Y-83395295D02*
X206107142Y-83538152D01*
X206107142Y-83538152D02*
X206059523Y-83633390D01*
X206059523Y-83633390D02*
X206011904Y-83681009D01*
X206011904Y-83681009D02*
X205916666Y-83728628D01*
X205916666Y-83728628D02*
X205535714Y-83728628D01*
X207059523Y-84204819D02*
X206488095Y-84204819D01*
X206773809Y-84204819D02*
X206773809Y-83204819D01*
X206773809Y-83204819D02*
X206678571Y-83347676D01*
X206678571Y-83347676D02*
X206583333Y-83442914D01*
X206583333Y-83442914D02*
X206488095Y-83490533D01*
X207535714Y-84204819D02*
X207726190Y-84204819D01*
X207726190Y-84204819D02*
X207821428Y-84157200D01*
X207821428Y-84157200D02*
X207869047Y-84109580D01*
X207869047Y-84109580D02*
X207964285Y-83966723D01*
X207964285Y-83966723D02*
X208011904Y-83776247D01*
X208011904Y-83776247D02*
X208011904Y-83395295D01*
X208011904Y-83395295D02*
X207964285Y-83300057D01*
X207964285Y-83300057D02*
X207916666Y-83252438D01*
X207916666Y-83252438D02*
X207821428Y-83204819D01*
X207821428Y-83204819D02*
X207630952Y-83204819D01*
X207630952Y-83204819D02*
X207535714Y-83252438D01*
X207535714Y-83252438D02*
X207488095Y-83300057D01*
X207488095Y-83300057D02*
X207440476Y-83395295D01*
X207440476Y-83395295D02*
X207440476Y-83633390D01*
X207440476Y-83633390D02*
X207488095Y-83728628D01*
X207488095Y-83728628D02*
X207535714Y-83776247D01*
X207535714Y-83776247D02*
X207630952Y-83823866D01*
X207630952Y-83823866D02*
X207821428Y-83823866D01*
X207821428Y-83823866D02*
X207916666Y-83776247D01*
X207916666Y-83776247D02*
X207964285Y-83728628D01*
X207964285Y-83728628D02*
X208011904Y-83633390D01*
D11*
X214416667Y-75407044D02*
X214559524Y-75454663D01*
X214559524Y-75454663D02*
X214797619Y-75454663D01*
X214797619Y-75454663D02*
X214892857Y-75407044D01*
X214892857Y-75407044D02*
X214940476Y-75359424D01*
X214940476Y-75359424D02*
X214988095Y-75264186D01*
X214988095Y-75264186D02*
X214988095Y-75168948D01*
X214988095Y-75168948D02*
X214940476Y-75073710D01*
X214940476Y-75073710D02*
X214892857Y-75026091D01*
X214892857Y-75026091D02*
X214797619Y-74978472D01*
X214797619Y-74978472D02*
X214607143Y-74930853D01*
X214607143Y-74930853D02*
X214511905Y-74883234D01*
X214511905Y-74883234D02*
X214464286Y-74835615D01*
X214464286Y-74835615D02*
X214416667Y-74740377D01*
X214416667Y-74740377D02*
X214416667Y-74645139D01*
X214416667Y-74645139D02*
X214464286Y-74549901D01*
X214464286Y-74549901D02*
X214511905Y-74502282D01*
X214511905Y-74502282D02*
X214607143Y-74454663D01*
X214607143Y-74454663D02*
X214845238Y-74454663D01*
X214845238Y-74454663D02*
X214988095Y-74502282D01*
X215321429Y-74454663D02*
X215559524Y-75454663D01*
X215559524Y-75454663D02*
X215750000Y-74740377D01*
X215750000Y-74740377D02*
X215940476Y-75454663D01*
X215940476Y-75454663D02*
X216178572Y-74454663D01*
X216511905Y-74549901D02*
X216559524Y-74502282D01*
X216559524Y-74502282D02*
X216654762Y-74454663D01*
X216654762Y-74454663D02*
X216892857Y-74454663D01*
X216892857Y-74454663D02*
X216988095Y-74502282D01*
X216988095Y-74502282D02*
X217035714Y-74549901D01*
X217035714Y-74549901D02*
X217083333Y-74645139D01*
X217083333Y-74645139D02*
X217083333Y-74740377D01*
X217083333Y-74740377D02*
X217035714Y-74883234D01*
X217035714Y-74883234D02*
X216464286Y-75454663D01*
X216464286Y-75454663D02*
X217083333Y-75454663D01*
D12*
X194967652Y-94478209D02*
X195068667Y-93905790D01*
X194563591Y-94074148D02*
X195270698Y-93367042D01*
X195270698Y-93367042D02*
X195540072Y-93636416D01*
X195540072Y-93636416D02*
X195573744Y-93737431D01*
X195573744Y-93737431D02*
X195573744Y-93804774D01*
X195573744Y-93804774D02*
X195540072Y-93905790D01*
X195540072Y-93905790D02*
X195439057Y-94006805D01*
X195439057Y-94006805D02*
X195338041Y-94040477D01*
X195338041Y-94040477D02*
X195270698Y-94040477D01*
X195270698Y-94040477D02*
X195169683Y-94006805D01*
X195169683Y-94006805D02*
X194900309Y-93737431D01*
X196045148Y-94612896D02*
X195573744Y-95084301D01*
X196146163Y-94175164D02*
X195472728Y-94511881D01*
X195472728Y-94511881D02*
X195910461Y-94949614D01*
X191973825Y-97617036D02*
X192074840Y-97044617D01*
X191569764Y-97212975D02*
X192276871Y-96505869D01*
X192276871Y-96505869D02*
X192546245Y-96775243D01*
X192546245Y-96775243D02*
X192579917Y-96876258D01*
X192579917Y-96876258D02*
X192579917Y-96943601D01*
X192579917Y-96943601D02*
X192546245Y-97044617D01*
X192546245Y-97044617D02*
X192445230Y-97145632D01*
X192445230Y-97145632D02*
X192344214Y-97179304D01*
X192344214Y-97179304D02*
X192276871Y-97179304D01*
X192276871Y-97179304D02*
X192175856Y-97145632D01*
X192175856Y-97145632D02*
X191906482Y-96876258D01*
X192882962Y-97246647D02*
X192950306Y-97246647D01*
X192950306Y-97246647D02*
X193051321Y-97280319D01*
X193051321Y-97280319D02*
X193219680Y-97448678D01*
X193219680Y-97448678D02*
X193253352Y-97549693D01*
X193253352Y-97549693D02*
X193253352Y-97617036D01*
X193253352Y-97617036D02*
X193219680Y-97718052D01*
X193219680Y-97718052D02*
X193152336Y-97785395D01*
X193152336Y-97785395D02*
X193017649Y-97852739D01*
X193017649Y-97852739D02*
X192209527Y-97852739D01*
X192209527Y-97852739D02*
X192647260Y-98290471D01*
X193724756Y-98425159D02*
X193253352Y-98896563D01*
X193825772Y-97987426D02*
X193152337Y-98324143D01*
X193152337Y-98324143D02*
X193590069Y-98761876D01*
X189856051Y-114859580D02*
X189808432Y-114907200D01*
X189808432Y-114907200D02*
X189665575Y-114954819D01*
X189665575Y-114954819D02*
X189570337Y-114954819D01*
X189570337Y-114954819D02*
X189427480Y-114907200D01*
X189427480Y-114907200D02*
X189332242Y-114811961D01*
X189332242Y-114811961D02*
X189284623Y-114716723D01*
X189284623Y-114716723D02*
X189237004Y-114526247D01*
X189237004Y-114526247D02*
X189237004Y-114383390D01*
X189237004Y-114383390D02*
X189284623Y-114192914D01*
X189284623Y-114192914D02*
X189332242Y-114097676D01*
X189332242Y-114097676D02*
X189427480Y-114002438D01*
X189427480Y-114002438D02*
X189570337Y-113954819D01*
X189570337Y-113954819D02*
X189665575Y-113954819D01*
X189665575Y-113954819D02*
X189808432Y-114002438D01*
X189808432Y-114002438D02*
X189856051Y-114050057D01*
X190427480Y-114383390D02*
X190332242Y-114335771D01*
X190332242Y-114335771D02*
X190284623Y-114288152D01*
X190284623Y-114288152D02*
X190237004Y-114192914D01*
X190237004Y-114192914D02*
X190237004Y-114145295D01*
X190237004Y-114145295D02*
X190284623Y-114050057D01*
X190284623Y-114050057D02*
X190332242Y-114002438D01*
X190332242Y-114002438D02*
X190427480Y-113954819D01*
X190427480Y-113954819D02*
X190617956Y-113954819D01*
X190617956Y-113954819D02*
X190713194Y-114002438D01*
X190713194Y-114002438D02*
X190760813Y-114050057D01*
X190760813Y-114050057D02*
X190808432Y-114145295D01*
X190808432Y-114145295D02*
X190808432Y-114192914D01*
X190808432Y-114192914D02*
X190760813Y-114288152D01*
X190760813Y-114288152D02*
X190713194Y-114335771D01*
X190713194Y-114335771D02*
X190617956Y-114383390D01*
X190617956Y-114383390D02*
X190427480Y-114383390D01*
X190427480Y-114383390D02*
X190332242Y-114431009D01*
X190332242Y-114431009D02*
X190284623Y-114478628D01*
X190284623Y-114478628D02*
X190237004Y-114573866D01*
X190237004Y-114573866D02*
X190237004Y-114764342D01*
X190237004Y-114764342D02*
X190284623Y-114859580D01*
X190284623Y-114859580D02*
X190332242Y-114907200D01*
X190332242Y-114907200D02*
X190427480Y-114954819D01*
X190427480Y-114954819D02*
X190617956Y-114954819D01*
X190617956Y-114954819D02*
X190713194Y-114907200D01*
X190713194Y-114907200D02*
X190760813Y-114859580D01*
X190760813Y-114859580D02*
X190808432Y-114764342D01*
X190808432Y-114764342D02*
X190808432Y-114573866D01*
X190808432Y-114573866D02*
X190760813Y-114478628D01*
X190760813Y-114478628D02*
X190713194Y-114431009D01*
X190713194Y-114431009D02*
X190617956Y-114383390D01*
X200204819Y-120916666D02*
X199728628Y-121249999D01*
X200204819Y-121488094D02*
X199204819Y-121488094D01*
X199204819Y-121488094D02*
X199204819Y-121107142D01*
X199204819Y-121107142D02*
X199252438Y-121011904D01*
X199252438Y-121011904D02*
X199300057Y-120964285D01*
X199300057Y-120964285D02*
X199395295Y-120916666D01*
X199395295Y-120916666D02*
X199538152Y-120916666D01*
X199538152Y-120916666D02*
X199633390Y-120964285D01*
X199633390Y-120964285D02*
X199681009Y-121011904D01*
X199681009Y-121011904D02*
X199728628Y-121107142D01*
X199728628Y-121107142D02*
X199728628Y-121488094D01*
X199300057Y-120535713D02*
X199252438Y-120488094D01*
X199252438Y-120488094D02*
X199204819Y-120392856D01*
X199204819Y-120392856D02*
X199204819Y-120154761D01*
X199204819Y-120154761D02*
X199252438Y-120059523D01*
X199252438Y-120059523D02*
X199300057Y-120011904D01*
X199300057Y-120011904D02*
X199395295Y-119964285D01*
X199395295Y-119964285D02*
X199490533Y-119964285D01*
X199490533Y-119964285D02*
X199633390Y-120011904D01*
X199633390Y-120011904D02*
X200204819Y-120583332D01*
X200204819Y-120583332D02*
X200204819Y-119964285D01*
X206083333Y-81609580D02*
X206035714Y-81657200D01*
X206035714Y-81657200D02*
X205892857Y-81704819D01*
X205892857Y-81704819D02*
X205797619Y-81704819D01*
X205797619Y-81704819D02*
X205654762Y-81657200D01*
X205654762Y-81657200D02*
X205559524Y-81561961D01*
X205559524Y-81561961D02*
X205511905Y-81466723D01*
X205511905Y-81466723D02*
X205464286Y-81276247D01*
X205464286Y-81276247D02*
X205464286Y-81133390D01*
X205464286Y-81133390D02*
X205511905Y-80942914D01*
X205511905Y-80942914D02*
X205559524Y-80847676D01*
X205559524Y-80847676D02*
X205654762Y-80752438D01*
X205654762Y-80752438D02*
X205797619Y-80704819D01*
X205797619Y-80704819D02*
X205892857Y-80704819D01*
X205892857Y-80704819D02*
X206035714Y-80752438D01*
X206035714Y-80752438D02*
X206083333Y-80800057D01*
X206988095Y-80704819D02*
X206511905Y-80704819D01*
X206511905Y-80704819D02*
X206464286Y-81181009D01*
X206464286Y-81181009D02*
X206511905Y-81133390D01*
X206511905Y-81133390D02*
X206607143Y-81085771D01*
X206607143Y-81085771D02*
X206845238Y-81085771D01*
X206845238Y-81085771D02*
X206940476Y-81133390D01*
X206940476Y-81133390D02*
X206988095Y-81181009D01*
X206988095Y-81181009D02*
X207035714Y-81276247D01*
X207035714Y-81276247D02*
X207035714Y-81514342D01*
X207035714Y-81514342D02*
X206988095Y-81609580D01*
X206988095Y-81609580D02*
X206940476Y-81657200D01*
X206940476Y-81657200D02*
X206845238Y-81704819D01*
X206845238Y-81704819D02*
X206607143Y-81704819D01*
X206607143Y-81704819D02*
X206511905Y-81657200D01*
X206511905Y-81657200D02*
X206464286Y-81609580D01*
D11*
X193796863Y-102775640D02*
X193224443Y-103348060D01*
X193224443Y-103348060D02*
X193190771Y-103449075D01*
X193190771Y-103449075D02*
X193190771Y-103516419D01*
X193190771Y-103516419D02*
X193224443Y-103617434D01*
X193224443Y-103617434D02*
X193359130Y-103752121D01*
X193359130Y-103752121D02*
X193460145Y-103785793D01*
X193460145Y-103785793D02*
X193527489Y-103785793D01*
X193527489Y-103785793D02*
X193628504Y-103752121D01*
X193628504Y-103752121D02*
X194200924Y-103179701D01*
X194604985Y-104055167D02*
X194133580Y-104526571D01*
X194706000Y-103617434D02*
X194032565Y-103954151D01*
X194032565Y-103954151D02*
X194470298Y-104391884D01*
D12*
X199583333Y-95330942D02*
X199535714Y-95378562D01*
X199535714Y-95378562D02*
X199392857Y-95426181D01*
X199392857Y-95426181D02*
X199297619Y-95426181D01*
X199297619Y-95426181D02*
X199154762Y-95378562D01*
X199154762Y-95378562D02*
X199059524Y-95283323D01*
X199059524Y-95283323D02*
X199011905Y-95188085D01*
X199011905Y-95188085D02*
X198964286Y-94997609D01*
X198964286Y-94997609D02*
X198964286Y-94854752D01*
X198964286Y-94854752D02*
X199011905Y-94664276D01*
X199011905Y-94664276D02*
X199059524Y-94569038D01*
X199059524Y-94569038D02*
X199154762Y-94473800D01*
X199154762Y-94473800D02*
X199297619Y-94426181D01*
X199297619Y-94426181D02*
X199392857Y-94426181D01*
X199392857Y-94426181D02*
X199535714Y-94473800D01*
X199535714Y-94473800D02*
X199583333Y-94521419D01*
X200059524Y-95426181D02*
X200250000Y-95426181D01*
X200250000Y-95426181D02*
X200345238Y-95378562D01*
X200345238Y-95378562D02*
X200392857Y-95330942D01*
X200392857Y-95330942D02*
X200488095Y-95188085D01*
X200488095Y-95188085D02*
X200535714Y-94997609D01*
X200535714Y-94997609D02*
X200535714Y-94616657D01*
X200535714Y-94616657D02*
X200488095Y-94521419D01*
X200488095Y-94521419D02*
X200440476Y-94473800D01*
X200440476Y-94473800D02*
X200345238Y-94426181D01*
X200345238Y-94426181D02*
X200154762Y-94426181D01*
X200154762Y-94426181D02*
X200059524Y-94473800D01*
X200059524Y-94473800D02*
X200011905Y-94521419D01*
X200011905Y-94521419D02*
X199964286Y-94616657D01*
X199964286Y-94616657D02*
X199964286Y-94854752D01*
X199964286Y-94854752D02*
X200011905Y-94949990D01*
X200011905Y-94949990D02*
X200059524Y-94997609D01*
X200059524Y-94997609D02*
X200154762Y-95045228D01*
X200154762Y-95045228D02*
X200345238Y-95045228D01*
X200345238Y-95045228D02*
X200440476Y-94997609D01*
X200440476Y-94997609D02*
X200488095Y-94949990D01*
X200488095Y-94949990D02*
X200535714Y-94854752D01*
X206823825Y-104867036D02*
X206924840Y-104294617D01*
X206419764Y-104462975D02*
X207126871Y-103755869D01*
X207126871Y-103755869D02*
X207396245Y-104025243D01*
X207396245Y-104025243D02*
X207429917Y-104126258D01*
X207429917Y-104126258D02*
X207429917Y-104193601D01*
X207429917Y-104193601D02*
X207396245Y-104294617D01*
X207396245Y-104294617D02*
X207295230Y-104395632D01*
X207295230Y-104395632D02*
X207194214Y-104429304D01*
X207194214Y-104429304D02*
X207126871Y-104429304D01*
X207126871Y-104429304D02*
X207025856Y-104395632D01*
X207025856Y-104395632D02*
X206756482Y-104126258D01*
X207732962Y-104496647D02*
X207800306Y-104496647D01*
X207800306Y-104496647D02*
X207901321Y-104530319D01*
X207901321Y-104530319D02*
X208069680Y-104698678D01*
X208069680Y-104698678D02*
X208103352Y-104799693D01*
X208103352Y-104799693D02*
X208103352Y-104867036D01*
X208103352Y-104867036D02*
X208069680Y-104968052D01*
X208069680Y-104968052D02*
X208002336Y-105035395D01*
X208002336Y-105035395D02*
X207867649Y-105102739D01*
X207867649Y-105102739D02*
X207059527Y-105102739D01*
X207059527Y-105102739D02*
X207497260Y-105540471D01*
X208440069Y-105069067D02*
X208877802Y-105506800D01*
X208877802Y-105506800D02*
X208372726Y-105540472D01*
X208372726Y-105540472D02*
X208473741Y-105641487D01*
X208473741Y-105641487D02*
X208507413Y-105742502D01*
X208507413Y-105742502D02*
X208507413Y-105809846D01*
X208507413Y-105809846D02*
X208473741Y-105910861D01*
X208473741Y-105910861D02*
X208305382Y-106079220D01*
X208305382Y-106079220D02*
X208204367Y-106112891D01*
X208204367Y-106112891D02*
X208137024Y-106112891D01*
X208137024Y-106112891D02*
X208036008Y-106079220D01*
X208036008Y-106079220D02*
X207833978Y-105877189D01*
X207833978Y-105877189D02*
X207800306Y-105776174D01*
X207800306Y-105776174D02*
X207800306Y-105708830D01*
X206107142Y-82954819D02*
X205773809Y-82478628D01*
X205535714Y-82954819D02*
X205535714Y-81954819D01*
X205535714Y-81954819D02*
X205916666Y-81954819D01*
X205916666Y-81954819D02*
X206011904Y-82002438D01*
X206011904Y-82002438D02*
X206059523Y-82050057D01*
X206059523Y-82050057D02*
X206107142Y-82145295D01*
X206107142Y-82145295D02*
X206107142Y-82288152D01*
X206107142Y-82288152D02*
X206059523Y-82383390D01*
X206059523Y-82383390D02*
X206011904Y-82431009D01*
X206011904Y-82431009D02*
X205916666Y-82478628D01*
X205916666Y-82478628D02*
X205535714Y-82478628D01*
X206488095Y-82050057D02*
X206535714Y-82002438D01*
X206535714Y-82002438D02*
X206630952Y-81954819D01*
X206630952Y-81954819D02*
X206869047Y-81954819D01*
X206869047Y-81954819D02*
X206964285Y-82002438D01*
X206964285Y-82002438D02*
X207011904Y-82050057D01*
X207011904Y-82050057D02*
X207059523Y-82145295D01*
X207059523Y-82145295D02*
X207059523Y-82240533D01*
X207059523Y-82240533D02*
X207011904Y-82383390D01*
X207011904Y-82383390D02*
X206440476Y-82954819D01*
X206440476Y-82954819D02*
X207059523Y-82954819D01*
X207916666Y-81954819D02*
X207726190Y-81954819D01*
X207726190Y-81954819D02*
X207630952Y-82002438D01*
X207630952Y-82002438D02*
X207583333Y-82050057D01*
X207583333Y-82050057D02*
X207488095Y-82192914D01*
X207488095Y-82192914D02*
X207440476Y-82383390D01*
X207440476Y-82383390D02*
X207440476Y-82764342D01*
X207440476Y-82764342D02*
X207488095Y-82859580D01*
X207488095Y-82859580D02*
X207535714Y-82907200D01*
X207535714Y-82907200D02*
X207630952Y-82954819D01*
X207630952Y-82954819D02*
X207821428Y-82954819D01*
X207821428Y-82954819D02*
X207916666Y-82907200D01*
X207916666Y-82907200D02*
X207964285Y-82859580D01*
X207964285Y-82859580D02*
X208011904Y-82764342D01*
X208011904Y-82764342D02*
X208011904Y-82526247D01*
X208011904Y-82526247D02*
X207964285Y-82431009D01*
X207964285Y-82431009D02*
X207916666Y-82383390D01*
X207916666Y-82383390D02*
X207821428Y-82335771D01*
X207821428Y-82335771D02*
X207630952Y-82335771D01*
X207630952Y-82335771D02*
X207535714Y-82383390D01*
X207535714Y-82383390D02*
X207488095Y-82431009D01*
X207488095Y-82431009D02*
X207440476Y-82526247D01*
X203223825Y-107867036D02*
X203324840Y-107294617D01*
X202819764Y-107462975D02*
X203526871Y-106755869D01*
X203526871Y-106755869D02*
X203796245Y-107025243D01*
X203796245Y-107025243D02*
X203829917Y-107126258D01*
X203829917Y-107126258D02*
X203829917Y-107193601D01*
X203829917Y-107193601D02*
X203796245Y-107294617D01*
X203796245Y-107294617D02*
X203695230Y-107395632D01*
X203695230Y-107395632D02*
X203594214Y-107429304D01*
X203594214Y-107429304D02*
X203526871Y-107429304D01*
X203526871Y-107429304D02*
X203425856Y-107395632D01*
X203425856Y-107395632D02*
X203156482Y-107126258D01*
X203897260Y-108540471D02*
X203493199Y-108136410D01*
X203695230Y-108338441D02*
X204402336Y-107631334D01*
X204402336Y-107631334D02*
X204233978Y-107665006D01*
X204233978Y-107665006D02*
X204099291Y-107665006D01*
X204099291Y-107665006D02*
X203998275Y-107631334D01*
X204705382Y-108540472D02*
X204671711Y-108439456D01*
X204671711Y-108439456D02*
X204671711Y-108372113D01*
X204671711Y-108372113D02*
X204705382Y-108271098D01*
X204705382Y-108271098D02*
X204739054Y-108237426D01*
X204739054Y-108237426D02*
X204840069Y-108203754D01*
X204840069Y-108203754D02*
X204907413Y-108203754D01*
X204907413Y-108203754D02*
X205008428Y-108237426D01*
X205008428Y-108237426D02*
X205143115Y-108372113D01*
X205143115Y-108372113D02*
X205176787Y-108473128D01*
X205176787Y-108473128D02*
X205176787Y-108540472D01*
X205176787Y-108540472D02*
X205143115Y-108641487D01*
X205143115Y-108641487D02*
X205109443Y-108675159D01*
X205109443Y-108675159D02*
X205008428Y-108708830D01*
X205008428Y-108708830D02*
X204941085Y-108708830D01*
X204941085Y-108708830D02*
X204840069Y-108675159D01*
X204840069Y-108675159D02*
X204705382Y-108540472D01*
X204705382Y-108540472D02*
X204604367Y-108506800D01*
X204604367Y-108506800D02*
X204537024Y-108506800D01*
X204537024Y-108506800D02*
X204436008Y-108540472D01*
X204436008Y-108540472D02*
X204301321Y-108675159D01*
X204301321Y-108675159D02*
X204267650Y-108776174D01*
X204267650Y-108776174D02*
X204267650Y-108843517D01*
X204267650Y-108843517D02*
X204301321Y-108944533D01*
X204301321Y-108944533D02*
X204436008Y-109079220D01*
X204436008Y-109079220D02*
X204537024Y-109112891D01*
X204537024Y-109112891D02*
X204604367Y-109112891D01*
X204604367Y-109112891D02*
X204705382Y-109079220D01*
X204705382Y-109079220D02*
X204840069Y-108944533D01*
X204840069Y-108944533D02*
X204873741Y-108843517D01*
X204873741Y-108843517D02*
X204873741Y-108776174D01*
X204873741Y-108776174D02*
X204840069Y-108675159D01*
D11*
X217704663Y-97988094D02*
X216704663Y-97988094D01*
X216704663Y-97988094D02*
X216704663Y-97749999D01*
X216704663Y-97749999D02*
X216752282Y-97607142D01*
X216752282Y-97607142D02*
X216847520Y-97511904D01*
X216847520Y-97511904D02*
X216942758Y-97464285D01*
X216942758Y-97464285D02*
X217133234Y-97416666D01*
X217133234Y-97416666D02*
X217276091Y-97416666D01*
X217276091Y-97416666D02*
X217466567Y-97464285D01*
X217466567Y-97464285D02*
X217561805Y-97511904D01*
X217561805Y-97511904D02*
X217657044Y-97607142D01*
X217657044Y-97607142D02*
X217704663Y-97749999D01*
X217704663Y-97749999D02*
X217704663Y-97988094D01*
X217704663Y-96464285D02*
X217704663Y-97035713D01*
X217704663Y-96749999D02*
X216704663Y-96749999D01*
X216704663Y-96749999D02*
X216847520Y-96845237D01*
X216847520Y-96845237D02*
X216942758Y-96940475D01*
X216942758Y-96940475D02*
X216990377Y-97035713D01*
X181151905Y-118204663D02*
X181151905Y-117204663D01*
X181151905Y-117204663D02*
X181390000Y-117204663D01*
X181390000Y-117204663D02*
X181532857Y-117252282D01*
X181532857Y-117252282D02*
X181628095Y-117347520D01*
X181628095Y-117347520D02*
X181675714Y-117442758D01*
X181675714Y-117442758D02*
X181723333Y-117633234D01*
X181723333Y-117633234D02*
X181723333Y-117776091D01*
X181723333Y-117776091D02*
X181675714Y-117966567D01*
X181675714Y-117966567D02*
X181628095Y-118061805D01*
X181628095Y-118061805D02*
X181532857Y-118157044D01*
X181532857Y-118157044D02*
X181390000Y-118204663D01*
X181390000Y-118204663D02*
X181151905Y-118204663D01*
X182056667Y-117204663D02*
X182723333Y-117204663D01*
X182723333Y-117204663D02*
X182294762Y-118204663D01*
X190535714Y-89430853D02*
X190869047Y-89430853D01*
X191011904Y-89954663D02*
X190535714Y-89954663D01*
X190535714Y-89954663D02*
X190535714Y-88954663D01*
X190535714Y-88954663D02*
X191011904Y-88954663D01*
X191440476Y-89954663D02*
X191440476Y-88954663D01*
X191440476Y-88954663D02*
X192011904Y-89954663D01*
X192011904Y-89954663D02*
X192011904Y-88954663D01*
X193059523Y-89859424D02*
X193011904Y-89907044D01*
X193011904Y-89907044D02*
X192869047Y-89954663D01*
X192869047Y-89954663D02*
X192773809Y-89954663D01*
X192773809Y-89954663D02*
X192630952Y-89907044D01*
X192630952Y-89907044D02*
X192535714Y-89811805D01*
X192535714Y-89811805D02*
X192488095Y-89716567D01*
X192488095Y-89716567D02*
X192440476Y-89526091D01*
X192440476Y-89526091D02*
X192440476Y-89383234D01*
X192440476Y-89383234D02*
X192488095Y-89192758D01*
X192488095Y-89192758D02*
X192535714Y-89097520D01*
X192535714Y-89097520D02*
X192630952Y-89002282D01*
X192630952Y-89002282D02*
X192773809Y-88954663D01*
X192773809Y-88954663D02*
X192869047Y-88954663D01*
X192869047Y-88954663D02*
X193011904Y-89002282D01*
X193011904Y-89002282D02*
X193059523Y-89049901D01*
X194011904Y-89954663D02*
X193440476Y-89954663D01*
X193726190Y-89954663D02*
X193726190Y-88954663D01*
X193726190Y-88954663D02*
X193630952Y-89097520D01*
X193630952Y-89097520D02*
X193535714Y-89192758D01*
X193535714Y-89192758D02*
X193440476Y-89240377D01*
D12*
X195859580Y-115166666D02*
X195907200Y-115214285D01*
X195907200Y-115214285D02*
X195954819Y-115357142D01*
X195954819Y-115357142D02*
X195954819Y-115452380D01*
X195954819Y-115452380D02*
X195907200Y-115595237D01*
X195907200Y-115595237D02*
X195811961Y-115690475D01*
X195811961Y-115690475D02*
X195716723Y-115738094D01*
X195716723Y-115738094D02*
X195526247Y-115785713D01*
X195526247Y-115785713D02*
X195383390Y-115785713D01*
X195383390Y-115785713D02*
X195192914Y-115738094D01*
X195192914Y-115738094D02*
X195097676Y-115690475D01*
X195097676Y-115690475D02*
X195002438Y-115595237D01*
X195002438Y-115595237D02*
X194954819Y-115452380D01*
X194954819Y-115452380D02*
X194954819Y-115357142D01*
X194954819Y-115357142D02*
X195002438Y-115214285D01*
X195002438Y-115214285D02*
X195050057Y-115166666D01*
X194954819Y-114833332D02*
X194954819Y-114166666D01*
X194954819Y-114166666D02*
X195954819Y-114595237D01*
D11*
X198138095Y-116654663D02*
X198138095Y-117464186D01*
X198138095Y-117464186D02*
X198185714Y-117559424D01*
X198185714Y-117559424D02*
X198233333Y-117607044D01*
X198233333Y-117607044D02*
X198328571Y-117654663D01*
X198328571Y-117654663D02*
X198519047Y-117654663D01*
X198519047Y-117654663D02*
X198614285Y-117607044D01*
X198614285Y-117607044D02*
X198661904Y-117559424D01*
X198661904Y-117559424D02*
X198709523Y-117464186D01*
X198709523Y-117464186D02*
X198709523Y-116654663D01*
X199138095Y-116749901D02*
X199185714Y-116702282D01*
X199185714Y-116702282D02*
X199280952Y-116654663D01*
X199280952Y-116654663D02*
X199519047Y-116654663D01*
X199519047Y-116654663D02*
X199614285Y-116702282D01*
X199614285Y-116702282D02*
X199661904Y-116749901D01*
X199661904Y-116749901D02*
X199709523Y-116845139D01*
X199709523Y-116845139D02*
X199709523Y-116940377D01*
X199709523Y-116940377D02*
X199661904Y-117083234D01*
X199661904Y-117083234D02*
X199090476Y-117654663D01*
X199090476Y-117654663D02*
X199709523Y-117654663D01*
D12*
X180954819Y-87642857D02*
X180478628Y-87976190D01*
X180954819Y-88214285D02*
X179954819Y-88214285D01*
X179954819Y-88214285D02*
X179954819Y-87833333D01*
X179954819Y-87833333D02*
X180002438Y-87738095D01*
X180002438Y-87738095D02*
X180050057Y-87690476D01*
X180050057Y-87690476D02*
X180145295Y-87642857D01*
X180145295Y-87642857D02*
X180288152Y-87642857D01*
X180288152Y-87642857D02*
X180383390Y-87690476D01*
X180383390Y-87690476D02*
X180431009Y-87738095D01*
X180431009Y-87738095D02*
X180478628Y-87833333D01*
X180478628Y-87833333D02*
X180478628Y-88214285D01*
X180050057Y-87261904D02*
X180002438Y-87214285D01*
X180002438Y-87214285D02*
X179954819Y-87119047D01*
X179954819Y-87119047D02*
X179954819Y-86880952D01*
X179954819Y-86880952D02*
X180002438Y-86785714D01*
X180002438Y-86785714D02*
X180050057Y-86738095D01*
X180050057Y-86738095D02*
X180145295Y-86690476D01*
X180145295Y-86690476D02*
X180240533Y-86690476D01*
X180240533Y-86690476D02*
X180383390Y-86738095D01*
X180383390Y-86738095D02*
X180954819Y-87309523D01*
X180954819Y-87309523D02*
X180954819Y-86690476D01*
X179954819Y-85785714D02*
X179954819Y-86261904D01*
X179954819Y-86261904D02*
X180431009Y-86309523D01*
X180431009Y-86309523D02*
X180383390Y-86261904D01*
X180383390Y-86261904D02*
X180335771Y-86166666D01*
X180335771Y-86166666D02*
X180335771Y-85928571D01*
X180335771Y-85928571D02*
X180383390Y-85833333D01*
X180383390Y-85833333D02*
X180431009Y-85785714D01*
X180431009Y-85785714D02*
X180526247Y-85738095D01*
X180526247Y-85738095D02*
X180764342Y-85738095D01*
X180764342Y-85738095D02*
X180859580Y-85785714D01*
X180859580Y-85785714D02*
X180907200Y-85833333D01*
X180907200Y-85833333D02*
X180954819Y-85928571D01*
X180954819Y-85928571D02*
X180954819Y-86166666D01*
X180954819Y-86166666D02*
X180907200Y-86261904D01*
X180907200Y-86261904D02*
X180859580Y-86309523D01*
X204704819Y-97392857D02*
X204228628Y-97726190D01*
X204704819Y-97964285D02*
X203704819Y-97964285D01*
X203704819Y-97964285D02*
X203704819Y-97583333D01*
X203704819Y-97583333D02*
X203752438Y-97488095D01*
X203752438Y-97488095D02*
X203800057Y-97440476D01*
X203800057Y-97440476D02*
X203895295Y-97392857D01*
X203895295Y-97392857D02*
X204038152Y-97392857D01*
X204038152Y-97392857D02*
X204133390Y-97440476D01*
X204133390Y-97440476D02*
X204181009Y-97488095D01*
X204181009Y-97488095D02*
X204228628Y-97583333D01*
X204228628Y-97583333D02*
X204228628Y-97964285D01*
X204704819Y-96440476D02*
X204704819Y-97011904D01*
X204704819Y-96726190D02*
X203704819Y-96726190D01*
X203704819Y-96726190D02*
X203847676Y-96821428D01*
X203847676Y-96821428D02*
X203942914Y-96916666D01*
X203942914Y-96916666D02*
X203990533Y-97011904D01*
X203704819Y-95821428D02*
X203704819Y-95726190D01*
X203704819Y-95726190D02*
X203752438Y-95630952D01*
X203752438Y-95630952D02*
X203800057Y-95583333D01*
X203800057Y-95583333D02*
X203895295Y-95535714D01*
X203895295Y-95535714D02*
X204085771Y-95488095D01*
X204085771Y-95488095D02*
X204323866Y-95488095D01*
X204323866Y-95488095D02*
X204514342Y-95535714D01*
X204514342Y-95535714D02*
X204609580Y-95583333D01*
X204609580Y-95583333D02*
X204657200Y-95630952D01*
X204657200Y-95630952D02*
X204704819Y-95726190D01*
X204704819Y-95726190D02*
X204704819Y-95821428D01*
X204704819Y-95821428D02*
X204657200Y-95916666D01*
X204657200Y-95916666D02*
X204609580Y-95964285D01*
X204609580Y-95964285D02*
X204514342Y-96011904D01*
X204514342Y-96011904D02*
X204323866Y-96059523D01*
X204323866Y-96059523D02*
X204085771Y-96059523D01*
X204085771Y-96059523D02*
X203895295Y-96011904D01*
X203895295Y-96011904D02*
X203800057Y-95964285D01*
X203800057Y-95964285D02*
X203752438Y-95916666D01*
X203752438Y-95916666D02*
X203704819Y-95821428D01*
D11*
X219166666Y-112144663D02*
X219166666Y-112858948D01*
X219166666Y-112858948D02*
X219119047Y-113001805D01*
X219119047Y-113001805D02*
X219023809Y-113097044D01*
X219023809Y-113097044D02*
X218880952Y-113144663D01*
X218880952Y-113144663D02*
X218785714Y-113144663D01*
X219595238Y-112239901D02*
X219642857Y-112192282D01*
X219642857Y-112192282D02*
X219738095Y-112144663D01*
X219738095Y-112144663D02*
X219976190Y-112144663D01*
X219976190Y-112144663D02*
X220071428Y-112192282D01*
X220071428Y-112192282D02*
X220119047Y-112239901D01*
X220119047Y-112239901D02*
X220166666Y-112335139D01*
X220166666Y-112335139D02*
X220166666Y-112430377D01*
X220166666Y-112430377D02*
X220119047Y-112573234D01*
X220119047Y-112573234D02*
X219547619Y-113144663D01*
X219547619Y-113144663D02*
X220166666Y-113144663D01*
D12*
X206357142Y-118609580D02*
X206309523Y-118657200D01*
X206309523Y-118657200D02*
X206166666Y-118704819D01*
X206166666Y-118704819D02*
X206071428Y-118704819D01*
X206071428Y-118704819D02*
X205928571Y-118657200D01*
X205928571Y-118657200D02*
X205833333Y-118561961D01*
X205833333Y-118561961D02*
X205785714Y-118466723D01*
X205785714Y-118466723D02*
X205738095Y-118276247D01*
X205738095Y-118276247D02*
X205738095Y-118133390D01*
X205738095Y-118133390D02*
X205785714Y-117942914D01*
X205785714Y-117942914D02*
X205833333Y-117847676D01*
X205833333Y-117847676D02*
X205928571Y-117752438D01*
X205928571Y-117752438D02*
X206071428Y-117704819D01*
X206071428Y-117704819D02*
X206166666Y-117704819D01*
X206166666Y-117704819D02*
X206309523Y-117752438D01*
X206309523Y-117752438D02*
X206357142Y-117800057D01*
X206738095Y-117800057D02*
X206785714Y-117752438D01*
X206785714Y-117752438D02*
X206880952Y-117704819D01*
X206880952Y-117704819D02*
X207119047Y-117704819D01*
X207119047Y-117704819D02*
X207214285Y-117752438D01*
X207214285Y-117752438D02*
X207261904Y-117800057D01*
X207261904Y-117800057D02*
X207309523Y-117895295D01*
X207309523Y-117895295D02*
X207309523Y-117990533D01*
X207309523Y-117990533D02*
X207261904Y-118133390D01*
X207261904Y-118133390D02*
X206690476Y-118704819D01*
X206690476Y-118704819D02*
X207309523Y-118704819D01*
X208214285Y-117704819D02*
X207738095Y-117704819D01*
X207738095Y-117704819D02*
X207690476Y-118181009D01*
X207690476Y-118181009D02*
X207738095Y-118133390D01*
X207738095Y-118133390D02*
X207833333Y-118085771D01*
X207833333Y-118085771D02*
X208071428Y-118085771D01*
X208071428Y-118085771D02*
X208166666Y-118133390D01*
X208166666Y-118133390D02*
X208214285Y-118181009D01*
X208214285Y-118181009D02*
X208261904Y-118276247D01*
X208261904Y-118276247D02*
X208261904Y-118514342D01*
X208261904Y-118514342D02*
X208214285Y-118609580D01*
X208214285Y-118609580D02*
X208166666Y-118657200D01*
X208166666Y-118657200D02*
X208071428Y-118704819D01*
X208071428Y-118704819D02*
X207833333Y-118704819D01*
X207833333Y-118704819D02*
X207738095Y-118657200D01*
X207738095Y-118657200D02*
X207690476Y-118609580D01*
D11*
X211666667Y-113707044D02*
X211809524Y-113754663D01*
X211809524Y-113754663D02*
X212047619Y-113754663D01*
X212047619Y-113754663D02*
X212142857Y-113707044D01*
X212142857Y-113707044D02*
X212190476Y-113659424D01*
X212190476Y-113659424D02*
X212238095Y-113564186D01*
X212238095Y-113564186D02*
X212238095Y-113468948D01*
X212238095Y-113468948D02*
X212190476Y-113373710D01*
X212190476Y-113373710D02*
X212142857Y-113326091D01*
X212142857Y-113326091D02*
X212047619Y-113278472D01*
X212047619Y-113278472D02*
X211857143Y-113230853D01*
X211857143Y-113230853D02*
X211761905Y-113183234D01*
X211761905Y-113183234D02*
X211714286Y-113135615D01*
X211714286Y-113135615D02*
X211666667Y-113040377D01*
X211666667Y-113040377D02*
X211666667Y-112945139D01*
X211666667Y-112945139D02*
X211714286Y-112849901D01*
X211714286Y-112849901D02*
X211761905Y-112802282D01*
X211761905Y-112802282D02*
X211857143Y-112754663D01*
X211857143Y-112754663D02*
X212095238Y-112754663D01*
X212095238Y-112754663D02*
X212238095Y-112802282D01*
X212571429Y-112754663D02*
X212809524Y-113754663D01*
X212809524Y-113754663D02*
X213000000Y-113040377D01*
X213000000Y-113040377D02*
X213190476Y-113754663D01*
X213190476Y-113754663D02*
X213428572Y-112754663D01*
X213714286Y-112754663D02*
X214333333Y-112754663D01*
X214333333Y-112754663D02*
X214000000Y-113135615D01*
X214000000Y-113135615D02*
X214142857Y-113135615D01*
X214142857Y-113135615D02*
X214238095Y-113183234D01*
X214238095Y-113183234D02*
X214285714Y-113230853D01*
X214285714Y-113230853D02*
X214333333Y-113326091D01*
X214333333Y-113326091D02*
X214333333Y-113564186D01*
X214333333Y-113564186D02*
X214285714Y-113659424D01*
X214285714Y-113659424D02*
X214238095Y-113707044D01*
X214238095Y-113707044D02*
X214142857Y-113754663D01*
X214142857Y-113754663D02*
X213857143Y-113754663D01*
X213857143Y-113754663D02*
X213761905Y-113707044D01*
X213761905Y-113707044D02*
X213714286Y-113659424D01*
X214154761Y-91549901D02*
X214059523Y-91502282D01*
X214059523Y-91502282D02*
X213964285Y-91407044D01*
X213964285Y-91407044D02*
X213821428Y-91264186D01*
X213821428Y-91264186D02*
X213726190Y-91216567D01*
X213726190Y-91216567D02*
X213630952Y-91216567D01*
X213678571Y-91454663D02*
X213583333Y-91407044D01*
X213583333Y-91407044D02*
X213488095Y-91311805D01*
X213488095Y-91311805D02*
X213440476Y-91121329D01*
X213440476Y-91121329D02*
X213440476Y-90787996D01*
X213440476Y-90787996D02*
X213488095Y-90597520D01*
X213488095Y-90597520D02*
X213583333Y-90502282D01*
X213583333Y-90502282D02*
X213678571Y-90454663D01*
X213678571Y-90454663D02*
X213869047Y-90454663D01*
X213869047Y-90454663D02*
X213964285Y-90502282D01*
X213964285Y-90502282D02*
X214059523Y-90597520D01*
X214059523Y-90597520D02*
X214107142Y-90787996D01*
X214107142Y-90787996D02*
X214107142Y-91121329D01*
X214107142Y-91121329D02*
X214059523Y-91311805D01*
X214059523Y-91311805D02*
X213964285Y-91407044D01*
X213964285Y-91407044D02*
X213869047Y-91454663D01*
X213869047Y-91454663D02*
X213678571Y-91454663D01*
X215059523Y-91454663D02*
X214488095Y-91454663D01*
X214773809Y-91454663D02*
X214773809Y-90454663D01*
X214773809Y-90454663D02*
X214678571Y-90597520D01*
X214678571Y-90597520D02*
X214583333Y-90692758D01*
X214583333Y-90692758D02*
X214488095Y-90740377D01*
D12*
X206107142Y-112359580D02*
X206059523Y-112407200D01*
X206059523Y-112407200D02*
X205916666Y-112454819D01*
X205916666Y-112454819D02*
X205821428Y-112454819D01*
X205821428Y-112454819D02*
X205678571Y-112407200D01*
X205678571Y-112407200D02*
X205583333Y-112311961D01*
X205583333Y-112311961D02*
X205535714Y-112216723D01*
X205535714Y-112216723D02*
X205488095Y-112026247D01*
X205488095Y-112026247D02*
X205488095Y-111883390D01*
X205488095Y-111883390D02*
X205535714Y-111692914D01*
X205535714Y-111692914D02*
X205583333Y-111597676D01*
X205583333Y-111597676D02*
X205678571Y-111502438D01*
X205678571Y-111502438D02*
X205821428Y-111454819D01*
X205821428Y-111454819D02*
X205916666Y-111454819D01*
X205916666Y-111454819D02*
X206059523Y-111502438D01*
X206059523Y-111502438D02*
X206107142Y-111550057D01*
X206488095Y-111550057D02*
X206535714Y-111502438D01*
X206535714Y-111502438D02*
X206630952Y-111454819D01*
X206630952Y-111454819D02*
X206869047Y-111454819D01*
X206869047Y-111454819D02*
X206964285Y-111502438D01*
X206964285Y-111502438D02*
X207011904Y-111550057D01*
X207011904Y-111550057D02*
X207059523Y-111645295D01*
X207059523Y-111645295D02*
X207059523Y-111740533D01*
X207059523Y-111740533D02*
X207011904Y-111883390D01*
X207011904Y-111883390D02*
X206440476Y-112454819D01*
X206440476Y-112454819D02*
X207059523Y-112454819D01*
X207916666Y-111788152D02*
X207916666Y-112454819D01*
X207678571Y-111407200D02*
X207440476Y-112121485D01*
X207440476Y-112121485D02*
X208059523Y-112121485D01*
D11*
X181201905Y-113954663D02*
X181201905Y-112954663D01*
X181201905Y-112954663D02*
X181440000Y-112954663D01*
X181440000Y-112954663D02*
X181582857Y-113002282D01*
X181582857Y-113002282D02*
X181678095Y-113097520D01*
X181678095Y-113097520D02*
X181725714Y-113192758D01*
X181725714Y-113192758D02*
X181773333Y-113383234D01*
X181773333Y-113383234D02*
X181773333Y-113526091D01*
X181773333Y-113526091D02*
X181725714Y-113716567D01*
X181725714Y-113716567D02*
X181678095Y-113811805D01*
X181678095Y-113811805D02*
X181582857Y-113907044D01*
X181582857Y-113907044D02*
X181440000Y-113954663D01*
X181440000Y-113954663D02*
X181201905Y-113954663D01*
X182678095Y-112954663D02*
X182201905Y-112954663D01*
X182201905Y-112954663D02*
X182154286Y-113430853D01*
X182154286Y-113430853D02*
X182201905Y-113383234D01*
X182201905Y-113383234D02*
X182297143Y-113335615D01*
X182297143Y-113335615D02*
X182535238Y-113335615D01*
X182535238Y-113335615D02*
X182630476Y-113383234D01*
X182630476Y-113383234D02*
X182678095Y-113430853D01*
X182678095Y-113430853D02*
X182725714Y-113526091D01*
X182725714Y-113526091D02*
X182725714Y-113764186D01*
X182725714Y-113764186D02*
X182678095Y-113859424D01*
X182678095Y-113859424D02*
X182630476Y-113907044D01*
X182630476Y-113907044D02*
X182535238Y-113954663D01*
X182535238Y-113954663D02*
X182297143Y-113954663D01*
X182297143Y-113954663D02*
X182201905Y-113907044D01*
X182201905Y-113907044D02*
X182154286Y-113859424D01*
D12*
X204223825Y-106867036D02*
X204324840Y-106294617D01*
X203819764Y-106462975D02*
X204526871Y-105755869D01*
X204526871Y-105755869D02*
X204796245Y-106025243D01*
X204796245Y-106025243D02*
X204829917Y-106126258D01*
X204829917Y-106126258D02*
X204829917Y-106193601D01*
X204829917Y-106193601D02*
X204796245Y-106294617D01*
X204796245Y-106294617D02*
X204695230Y-106395632D01*
X204695230Y-106395632D02*
X204594214Y-106429304D01*
X204594214Y-106429304D02*
X204526871Y-106429304D01*
X204526871Y-106429304D02*
X204425856Y-106395632D01*
X204425856Y-106395632D02*
X204156482Y-106126258D01*
X204897260Y-107540471D02*
X204493199Y-107136410D01*
X204695230Y-107338441D02*
X205402336Y-106631334D01*
X205402336Y-106631334D02*
X205233978Y-106665006D01*
X205233978Y-106665006D02*
X205099291Y-106665006D01*
X205099291Y-106665006D02*
X204998275Y-106631334D01*
X205840069Y-107069067D02*
X206311474Y-107540472D01*
X206311474Y-107540472D02*
X205301321Y-107944533D01*
D11*
X207954663Y-98238094D02*
X206954663Y-98238094D01*
X206954663Y-98238094D02*
X206954663Y-97999999D01*
X206954663Y-97999999D02*
X207002282Y-97857142D01*
X207002282Y-97857142D02*
X207097520Y-97761904D01*
X207097520Y-97761904D02*
X207192758Y-97714285D01*
X207192758Y-97714285D02*
X207383234Y-97666666D01*
X207383234Y-97666666D02*
X207526091Y-97666666D01*
X207526091Y-97666666D02*
X207716567Y-97714285D01*
X207716567Y-97714285D02*
X207811805Y-97761904D01*
X207811805Y-97761904D02*
X207907044Y-97857142D01*
X207907044Y-97857142D02*
X207954663Y-97999999D01*
X207954663Y-97999999D02*
X207954663Y-98238094D01*
X207287996Y-96809523D02*
X207954663Y-96809523D01*
X206907044Y-97047618D02*
X207621329Y-97285713D01*
X207621329Y-97285713D02*
X207621329Y-96666666D01*
D12*
X193799693Y-96208830D02*
X193799693Y-96276174D01*
X193799693Y-96276174D02*
X193732349Y-96410861D01*
X193732349Y-96410861D02*
X193665006Y-96478204D01*
X193665006Y-96478204D02*
X193530319Y-96545548D01*
X193530319Y-96545548D02*
X193395632Y-96545548D01*
X193395632Y-96545548D02*
X193294617Y-96511876D01*
X193294617Y-96511876D02*
X193126258Y-96410861D01*
X193126258Y-96410861D02*
X193025243Y-96309846D01*
X193025243Y-96309846D02*
X192924227Y-96141487D01*
X192924227Y-96141487D02*
X192890556Y-96040472D01*
X192890556Y-96040472D02*
X192890556Y-95905785D01*
X192890556Y-95905785D02*
X192957899Y-95771098D01*
X192957899Y-95771098D02*
X193025243Y-95703754D01*
X193025243Y-95703754D02*
X193159930Y-95636411D01*
X193159930Y-95636411D02*
X193227273Y-95636411D01*
X193496647Y-95367037D02*
X193496647Y-95299693D01*
X193496647Y-95299693D02*
X193530319Y-95198678D01*
X193530319Y-95198678D02*
X193698678Y-95030319D01*
X193698678Y-95030319D02*
X193799693Y-94996647D01*
X193799693Y-94996647D02*
X193867036Y-94996647D01*
X193867036Y-94996647D02*
X193968052Y-95030319D01*
X193968052Y-95030319D02*
X194035395Y-95097663D01*
X194035395Y-95097663D02*
X194102739Y-95232350D01*
X194102739Y-95232350D02*
X194102739Y-96040472D01*
X194102739Y-96040472D02*
X194540471Y-95602739D01*
X194170082Y-94693601D02*
X194170082Y-94626258D01*
X194170082Y-94626258D02*
X194203754Y-94525243D01*
X194203754Y-94525243D02*
X194372113Y-94356884D01*
X194372113Y-94356884D02*
X194473128Y-94323212D01*
X194473128Y-94323212D02*
X194540472Y-94323212D01*
X194540472Y-94323212D02*
X194641487Y-94356884D01*
X194641487Y-94356884D02*
X194708830Y-94424227D01*
X194708830Y-94424227D02*
X194776174Y-94558914D01*
X194776174Y-94558914D02*
X194776174Y-95367036D01*
X194776174Y-95367036D02*
X195213907Y-94929304D01*
D11*
X202933333Y-112617163D02*
X202457143Y-112617163D01*
X202457143Y-112617163D02*
X202457143Y-111617163D01*
X203219048Y-111712401D02*
X203266667Y-111664782D01*
X203266667Y-111664782D02*
X203361905Y-111617163D01*
X203361905Y-111617163D02*
X203600000Y-111617163D01*
X203600000Y-111617163D02*
X203695238Y-111664782D01*
X203695238Y-111664782D02*
X203742857Y-111712401D01*
X203742857Y-111712401D02*
X203790476Y-111807639D01*
X203790476Y-111807639D02*
X203790476Y-111902877D01*
X203790476Y-111902877D02*
X203742857Y-112045734D01*
X203742857Y-112045734D02*
X203171429Y-112617163D01*
X203171429Y-112617163D02*
X203790476Y-112617163D01*
D13*
%TO.C,Q3*%
X206090000Y-93212500D02*
X206090000Y-92412500D01*
X206090000Y-93212500D02*
X206090000Y-94012500D01*
X209210000Y-93212500D02*
X209210000Y-92412500D01*
X209210000Y-93212500D02*
X209210000Y-94012500D01*
X206140000Y-94512500D02*
X205810000Y-94752500D01*
X205810000Y-94272500D01*
X206140000Y-94512500D01*
G36*
X206140000Y-94512500D02*
G01*
X205810000Y-94752500D01*
X205810000Y-94272500D01*
X206140000Y-94512500D01*
G37*
%TO.C,R11*%
X205520000Y-100546359D02*
X205520000Y-100853641D01*
X206280000Y-100546359D02*
X206280000Y-100853641D01*
%TO.C,R7*%
X209723206Y-94780817D02*
X209723206Y-94473535D01*
X210483206Y-94780817D02*
X210483206Y-94473535D01*
%TO.C,R14*%
X199871359Y-90620000D02*
X200178641Y-90620000D01*
X199871359Y-91380000D02*
X200178641Y-91380000D01*
%TO.C,Q4*%
X206545000Y-102077500D02*
X206545000Y-101277500D01*
X206545000Y-102077500D02*
X206545000Y-102877500D01*
X209665000Y-102077500D02*
X209665000Y-101277500D01*
X209665000Y-102077500D02*
X209665000Y-102877500D01*
X209945000Y-101017500D02*
X209615000Y-100777500D01*
X209945000Y-100537500D01*
X209945000Y-101017500D01*
G36*
X209945000Y-101017500D02*
G01*
X209615000Y-100777500D01*
X209945000Y-100537500D01*
X209945000Y-101017500D01*
G37*
%TO.C,R8*%
X214850992Y-101063793D02*
X214850992Y-100756511D01*
X215610992Y-101063793D02*
X215610992Y-100756511D01*
%TO.C,D3*%
X210365000Y-96052500D02*
X210365000Y-98337500D01*
X211835000Y-96052500D02*
X210365000Y-96052500D01*
X211835000Y-98337500D02*
X211835000Y-96052500D01*
%TO.C,U3*%
X206577500Y-84685000D02*
X206577500Y-84955000D01*
X206577500Y-90205000D02*
X206577500Y-89935000D01*
X209337500Y-84685000D02*
X206577500Y-84685000D01*
X209337500Y-84685000D02*
X212097500Y-84685000D01*
X209337500Y-90205000D02*
X206577500Y-90205000D01*
X209337500Y-90205000D02*
X212097500Y-90205000D01*
X212097500Y-84685000D02*
X212097500Y-84955000D01*
X212097500Y-90205000D02*
X212097500Y-89935000D01*
X205812500Y-84955000D02*
X205572500Y-84625000D01*
X206052500Y-84625000D01*
X205812500Y-84955000D01*
G36*
X205812500Y-84955000D02*
G01*
X205572500Y-84625000D01*
X206052500Y-84625000D01*
X205812500Y-84955000D01*
G37*
%TO.C,C2*%
X192948847Y-115442429D02*
X193230007Y-115442429D01*
X192948847Y-116462429D02*
X193230007Y-116462429D01*
%TO.C,Q2*%
X211390000Y-102162500D02*
X211390000Y-101362500D01*
X211390000Y-102162500D02*
X211390000Y-102962500D01*
X214510000Y-102162500D02*
X214510000Y-101362500D01*
X214510000Y-102162500D02*
X214510000Y-102962500D01*
X214790000Y-101102500D02*
X214460000Y-100862500D01*
X214790000Y-100622500D01*
X214790000Y-101102500D01*
G36*
X214790000Y-101102500D02*
G01*
X214460000Y-100862500D01*
X214790000Y-100622500D01*
X214790000Y-101102500D01*
G37*
%TO.C,D6*%
X186050000Y-114950000D02*
X183390000Y-114950000D01*
X186050000Y-116650000D02*
X183390000Y-116650000D01*
X186050000Y-116650000D02*
X186050000Y-114950000D01*
%TO.C,D2*%
X212665000Y-96052500D02*
X212665000Y-98337500D01*
X214135000Y-96052500D02*
X212665000Y-96052500D01*
X214135000Y-98337500D02*
X214135000Y-96052500D01*
%TO.C,C11*%
X200689190Y-96321693D02*
X200841693Y-96169190D01*
X201198307Y-96830810D02*
X201350810Y-96678307D01*
%TO.C,C13*%
X197821693Y-96330810D02*
X197669190Y-96178307D01*
X198330810Y-95821693D02*
X198178307Y-95669190D01*
%TO.C,C3*%
X196012836Y-120090000D02*
X195797164Y-120090000D01*
X196012836Y-120810000D02*
X195797164Y-120810000D01*
%TO.C,SW1*%
X175750000Y-78750000D02*
X175750000Y-80250000D01*
X177000000Y-82750000D02*
X181500000Y-82750000D01*
X181500000Y-76250000D02*
X177000000Y-76250000D01*
X182750000Y-80250000D02*
X182750000Y-78750000D01*
%TO.C,C23*%
X201275110Y-108576551D02*
X201427613Y-108729054D01*
X201784227Y-108067434D02*
X201936730Y-108219937D01*
%TO.C,R16*%
X178818780Y-84655241D02*
X178818780Y-84347959D01*
X179578780Y-84655241D02*
X179578780Y-84347959D01*
%TO.C,C4*%
X176790000Y-86760580D02*
X176790000Y-86479420D01*
X177810000Y-86760580D02*
X177810000Y-86479420D01*
%TO.C,R15*%
X199871359Y-91620000D02*
X200178641Y-91620000D01*
X199871359Y-92380000D02*
X200178641Y-92380000D01*
%TO.C,C1*%
X197140000Y-116747164D02*
X197140000Y-116962836D01*
X197860000Y-116747164D02*
X197860000Y-116962836D01*
D14*
%TO.C,L1*%
X190400000Y-121300000D02*
X190400000Y-117100000D01*
X194600000Y-121300000D02*
X194600000Y-117100000D01*
D13*
%TO.C,C21*%
X196008601Y-97017718D02*
X196161104Y-97170221D01*
X196517718Y-96508601D02*
X196670221Y-96661104D01*
%TO.C,C19*%
X205329779Y-103338896D02*
X205482282Y-103491399D01*
X205838896Y-102829779D02*
X205991399Y-102982282D01*
%TO.C,R5*%
X197122659Y-109799436D02*
X197339940Y-110016717D01*
X197660060Y-109262035D02*
X197877341Y-109479316D01*
%TO.C,R1*%
X197798268Y-121120000D02*
X197490986Y-121120000D01*
X197798268Y-121880000D02*
X197490986Y-121880000D01*
%TO.C,R3*%
X198120000Y-118616359D02*
X198120000Y-118923641D01*
X198880000Y-118616359D02*
X198880000Y-118923641D01*
%TO.C,R6*%
X210070000Y-102433641D02*
X210070000Y-102126359D01*
X210830000Y-102433641D02*
X210830000Y-102126359D01*
%TO.C,C6*%
X196140000Y-116747164D02*
X196140000Y-116962836D01*
X196860000Y-116747164D02*
X196860000Y-116962836D01*
%TO.C,C12*%
X193530254Y-100740879D02*
X193377751Y-100588376D01*
X194039371Y-100231762D02*
X193886868Y-100079259D01*
%TO.C,UB1*%
X173980000Y-90330000D02*
X173980000Y-92650000D01*
X173980000Y-93250000D02*
X173980000Y-100570000D01*
X174600000Y-90330000D02*
X174600000Y-100570000D01*
X176100000Y-90330000D02*
X176100000Y-100570000D01*
X181000000Y-90330000D02*
X181000000Y-100570000D01*
X184020000Y-90330000D02*
X173980000Y-90330000D01*
X184020000Y-90330000D02*
X184020000Y-100570000D01*
X184020000Y-100570000D02*
X173980000Y-100570000D01*
X173980000Y-92950000D02*
X173370000Y-93390000D01*
X173370000Y-92510000D01*
X173980000Y-92950000D01*
G36*
X173980000Y-92950000D02*
G01*
X173370000Y-93390000D01*
X173370000Y-92510000D01*
X173980000Y-92950000D01*
G37*
%TO.C,R12*%
X209720000Y-92516359D02*
X209720000Y-92823641D01*
X210480000Y-92516359D02*
X210480000Y-92823641D01*
%TO.C,C17*%
X197939120Y-107798330D02*
X197786617Y-107950833D01*
X198448237Y-108307447D02*
X198295734Y-108459950D01*
%TO.C,J1*%
X179770000Y-113380000D02*
X177700000Y-113380000D01*
X179770000Y-113380000D02*
X179770000Y-114250000D01*
X179770000Y-120250000D02*
X179770000Y-121120000D01*
X179770000Y-121120000D02*
X177700000Y-121120000D01*
X180580000Y-118890000D02*
X180110000Y-118550000D01*
X180580000Y-118210000D01*
X180580000Y-118890000D01*
G36*
X180580000Y-118890000D02*
G01*
X180110000Y-118550000D01*
X180580000Y-118210000D01*
X180580000Y-118890000D01*
G37*
%TO.C,C15*%
X201644023Y-97228389D02*
X201796526Y-97075886D01*
X202153140Y-97737506D02*
X202305643Y-97585003D01*
%TO.C,SW4*%
X209250000Y-117750000D02*
X209250000Y-119250000D01*
X210500000Y-121750000D02*
X215000000Y-121750000D01*
X215000000Y-115250000D02*
X210500000Y-115250000D01*
X216250000Y-119250000D02*
X216250000Y-117750000D01*
%TO.C,Y1*%
X187379613Y-95739949D02*
X190010051Y-98370387D01*
X190010051Y-98370387D02*
X194266833Y-94113604D01*
X191636396Y-91483167D02*
X187379613Y-95739949D01*
%TO.C,R13*%
X204870000Y-92526359D02*
X204870000Y-92833641D01*
X205630000Y-92526359D02*
X205630000Y-92833641D01*
%TO.C,C14*%
X197077741Y-106863142D02*
X196925238Y-107015645D01*
X197586858Y-107372259D02*
X197434355Y-107524762D01*
%TO.C,R20*%
X203416359Y-88740130D02*
X203723641Y-88740130D01*
X203416359Y-89500130D02*
X203723641Y-89500130D01*
%TO.C,R19*%
X209646359Y-83670000D02*
X209953641Y-83670000D01*
X209646359Y-84430000D02*
X209953641Y-84430000D01*
%TO.C,SW2*%
X212250000Y-78500000D02*
X212250000Y-80000000D01*
X213500000Y-82500000D02*
X218000000Y-82500000D01*
X218000000Y-76000000D02*
X213500000Y-76000000D01*
X219250000Y-80000000D02*
X219250000Y-78500000D01*
%TO.C,R22*%
X203723641Y-89790130D02*
X203416359Y-89790130D01*
X203723641Y-90550130D02*
X203416359Y-90550130D01*
%TO.C,R4*%
X195220794Y-97738407D02*
X195438075Y-97955688D01*
X195758195Y-97201006D02*
X195975476Y-97418287D01*
%TO.C,R24*%
X194426082Y-100045980D02*
X194208801Y-99828699D01*
X194963483Y-99508579D02*
X194746202Y-99291298D01*
%TO.C,C8*%
X190163298Y-115426551D02*
X189882138Y-115426551D01*
X190163298Y-116446551D02*
X189882138Y-116446551D01*
%TO.C,R2*%
X197856359Y-120070000D02*
X198163641Y-120070000D01*
X197856359Y-120830000D02*
X198163641Y-120830000D01*
%TO.C,C5*%
X209149102Y-80984737D02*
X209430262Y-80984737D01*
X209149102Y-82004737D02*
X209430262Y-82004737D01*
%TO.C,U4*%
X194308522Y-102068558D02*
X194626720Y-102386756D01*
X194626720Y-101750360D02*
X194308522Y-102068558D01*
X199095635Y-97281445D02*
X199413833Y-96963247D01*
X199413833Y-96963247D02*
X199732031Y-97281445D01*
X199413833Y-107173869D02*
X199095635Y-106855671D01*
X199732031Y-106855671D02*
X199413833Y-107173869D01*
X204200946Y-101750360D02*
X204349438Y-101898852D01*
X204200946Y-102386756D02*
X204307012Y-102280690D01*
X204922195Y-102132198D02*
X204582784Y-102471609D01*
X204519144Y-102068558D01*
X204922195Y-102132198D01*
G36*
X204922195Y-102132198D02*
G01*
X204582784Y-102471609D01*
X204519144Y-102068558D01*
X204922195Y-102132198D01*
G37*
%TO.C,C9*%
X199476507Y-92905719D02*
X199757667Y-92905719D01*
X199476507Y-93925719D02*
X199757667Y-93925719D01*
%TO.C,R9*%
X210053004Y-100140010D02*
X210053004Y-100447292D01*
X210813004Y-100140010D02*
X210813004Y-100447292D01*
%TO.C,C20*%
X198982282Y-108508601D02*
X198829779Y-108661104D01*
X199491399Y-109017718D02*
X199338896Y-109170221D01*
%TO.C,R23*%
X204550901Y-103970293D02*
X204768182Y-104187574D01*
X205088302Y-103432892D02*
X205305583Y-103650173D01*
%TO.C,R26*%
X209651359Y-82470000D02*
X209958641Y-82470000D01*
X209651359Y-83230000D02*
X209958641Y-83230000D01*
%TO.C,R18*%
X201964605Y-106499206D02*
X202181886Y-106716487D01*
X202502006Y-105961805D02*
X202719287Y-106179086D01*
%TO.C,D1*%
X214915000Y-96052500D02*
X214915000Y-98337500D01*
X216385000Y-96052500D02*
X214915000Y-96052500D01*
X216385000Y-98337500D02*
X216385000Y-96052500D01*
%TO.C,C10*%
X202290113Y-94610227D02*
X202488924Y-94809038D01*
X203011362Y-93888978D02*
X203210173Y-94087789D01*
%TO.C,D7*%
X186050000Y-116900000D02*
X183390000Y-116900000D01*
X186050000Y-118600000D02*
X183390000Y-118600000D01*
X186050000Y-118600000D02*
X186050000Y-116900000D01*
%TO.C,C27*%
X195988850Y-105811581D02*
X195836347Y-105964084D01*
X196497967Y-106320698D02*
X196345464Y-106473201D01*
%TO.C,ENC1*%
X191190000Y-88510000D02*
X191190000Y-83900000D01*
X191200000Y-74890000D02*
X203810000Y-74890000D01*
X191200000Y-79500000D02*
X191200000Y-74890000D01*
X193950000Y-88510000D02*
X191190000Y-88510000D01*
X196050000Y-88510000D02*
X196650000Y-88510000D01*
X198350000Y-88510000D02*
X199150000Y-88510000D01*
X200850000Y-88510000D02*
X203810000Y-88510000D01*
X203810000Y-74890000D02*
X203810000Y-79500000D01*
X203810000Y-83900000D02*
X203810000Y-88510000D01*
%TO.C,C7*%
X195070000Y-116747164D02*
X195070000Y-116962836D01*
X195790000Y-116747164D02*
X195790000Y-116962836D01*
%TO.C,C16*%
X201289316Y-107204702D02*
X201441819Y-107357205D01*
X201798433Y-106695585D02*
X201950936Y-106848088D01*
%TO.C,C28*%
X195232802Y-99217153D02*
X195080299Y-99064650D01*
X195741919Y-98708036D02*
X195589416Y-98555533D01*
%TO.C,C26*%
X203456067Y-98711008D02*
X203608570Y-98558505D01*
X203965184Y-99220125D02*
X204117687Y-99067622D01*
%TO.C,U2*%
X196537500Y-118015000D02*
X195937500Y-118015000D01*
X196537500Y-118015000D02*
X197137500Y-118015000D01*
X196537500Y-119885000D02*
X195937500Y-119885000D01*
X196537500Y-119885000D02*
X197137500Y-119885000D01*
X195227500Y-118450000D02*
X194897500Y-118690000D01*
X194897500Y-118210000D01*
X195227500Y-118450000D01*
G36*
X195227500Y-118450000D02*
G01*
X194897500Y-118690000D01*
X194897500Y-118210000D01*
X195227500Y-118450000D01*
G37*
%TO.C,R25*%
X179977867Y-84653333D02*
X179977867Y-84346051D01*
X180737867Y-84653333D02*
X180737867Y-84346051D01*
%TO.C,C18*%
X205329779Y-104996657D02*
X205482282Y-104844154D01*
X205838896Y-105505774D02*
X205991399Y-105353271D01*
%TO.C,R10*%
X204856632Y-94806542D02*
X204856632Y-94499260D01*
X205616632Y-94806542D02*
X205616632Y-94499260D01*
%TO.C,R27*%
X203245268Y-93532899D02*
X203462549Y-93750180D01*
X203782669Y-92995498D02*
X203999950Y-93212779D01*
%TO.C,J2*%
X218170000Y-116730000D02*
X218170000Y-121870000D01*
X218170000Y-116730000D02*
X220830000Y-116730000D01*
X218170000Y-121870000D02*
X220830000Y-121870000D01*
X219500000Y-114130000D02*
X220830000Y-114130000D01*
X220830000Y-114130000D02*
X220830000Y-115460000D01*
X220830000Y-116730000D02*
X220830000Y-121870000D01*
%TO.C,C25*%
X206640000Y-115740815D02*
X206640000Y-115525143D01*
X207360000Y-115740815D02*
X207360000Y-115525143D01*
%TO.C,BATT_USB_JMP1*%
X173840000Y-105420000D02*
X173840000Y-108080000D01*
X178980000Y-105420000D02*
X173840000Y-105420000D01*
X178980000Y-105420000D02*
X178980000Y-108080000D01*
X178980000Y-108080000D02*
X173840000Y-108080000D01*
X181580000Y-106750000D02*
X181580000Y-108080000D01*
X181580000Y-108080000D02*
X180250000Y-108080000D01*
%TO.C,SW3*%
X209500000Y-108250000D02*
X209500000Y-109750000D01*
X210750000Y-112250000D02*
X215250000Y-112250000D01*
X215250000Y-105750000D02*
X210750000Y-105750000D01*
X216500000Y-109750000D02*
X216500000Y-108250000D01*
%TO.C,Q1*%
X210990000Y-93212500D02*
X210990000Y-92412500D01*
X210990000Y-93212500D02*
X210990000Y-94012500D01*
X214110000Y-93212500D02*
X214110000Y-92412500D01*
X214110000Y-93212500D02*
X214110000Y-94012500D01*
X211040000Y-94512500D02*
X210710000Y-94752500D01*
X210710000Y-94272500D01*
X211040000Y-94512500D01*
G36*
X211040000Y-94512500D02*
G01*
X210710000Y-94752500D01*
X210710000Y-94272500D01*
X211040000Y-94512500D01*
G37*
%TO.C,R28*%
X202786542Y-90754654D02*
X202479260Y-90754654D01*
X202786542Y-91514654D02*
X202479260Y-91514654D01*
%TO.C,C24*%
X206640000Y-113612164D02*
X206640000Y-113827836D01*
X207360000Y-113612164D02*
X207360000Y-113827836D01*
%TO.C,D5*%
X186050000Y-112900000D02*
X183390000Y-112900000D01*
X186050000Y-114600000D02*
X183390000Y-114600000D01*
X186050000Y-114600000D02*
X186050000Y-112900000D01*
%TO.C,R17*%
X202677352Y-105788850D02*
X202894633Y-106006131D01*
X203214753Y-105251449D02*
X203432034Y-105468730D01*
%TO.C,D4*%
X208315000Y-96115000D02*
X208315000Y-98400000D01*
X209785000Y-96115000D02*
X208315000Y-96115000D01*
X209785000Y-98400000D02*
X209785000Y-96115000D01*
%TO.C,C22*%
X194632216Y-95973363D02*
X194479713Y-96125866D01*
X195141333Y-96482480D02*
X194988830Y-96634983D01*
D14*
%TO.C,L2*%
X201175000Y-113150000D02*
X205375000Y-113150000D01*
X201175000Y-117350000D02*
X205375000Y-117350000D01*
%TD*%
%LPC*%
D15*
%TO.C,J3*%
X219500000Y-109030000D03*
D16*
X219500000Y-88710000D03*
D15*
X219500000Y-91250000D03*
X219500000Y-93790000D03*
X219500000Y-96330000D03*
X219500000Y-98870000D03*
X219500000Y-101410000D03*
X219500000Y-103950000D03*
X219500000Y-106490000D03*
%TD*%
D17*
%TO.C,Q3*%
X206700000Y-94350000D03*
X208600000Y-94350000D03*
X207650000Y-92075000D03*
%TD*%
D18*
%TO.C,R11*%
X205900000Y-100190000D03*
X205900000Y-101210000D03*
%TD*%
D19*
%TO.C,R7*%
X210103206Y-95137176D03*
X210103206Y-94117176D03*
%TD*%
D20*
%TO.C,R14*%
X199515000Y-91000000D03*
X200535000Y-91000000D03*
%TD*%
D21*
%TO.C,Q4*%
X209055000Y-100940000D03*
X207155000Y-100940000D03*
X208105000Y-103215000D03*
%TD*%
D19*
%TO.C,R8*%
X215230992Y-101420152D03*
X215230992Y-100400152D03*
%TD*%
D22*
%TO.C,D3*%
X211100000Y-96750000D03*
X211100000Y-98325000D03*
%TD*%
D23*
%TO.C,U3*%
X205750000Y-85540000D03*
X205750000Y-86810000D03*
X205750000Y-88080000D03*
X205750000Y-89350000D03*
X212925000Y-89350000D03*
X212925000Y-88080000D03*
X212925000Y-86810000D03*
X212925000Y-85540000D03*
%TD*%
D24*
%TO.C,C2*%
X192314427Y-115952429D03*
X193864427Y-115952429D03*
%TD*%
D21*
%TO.C,Q2*%
X213900000Y-101025000D03*
X212000000Y-101025000D03*
X212950000Y-103300000D03*
%TD*%
D25*
%TO.C,D6*%
X185490000Y-115800000D03*
X183390000Y-115800000D03*
%TD*%
D22*
%TO.C,D2*%
X213400000Y-96750000D03*
X213400000Y-98325000D03*
%TD*%
D26*
%TO.C,C11*%
X200680589Y-96839411D03*
X201359411Y-96160589D03*
%TD*%
D27*
%TO.C,C13*%
X198339411Y-96339411D03*
X197660589Y-95660589D03*
%TD*%
D28*
%TO.C,C3*%
X196385000Y-120450000D03*
X195425000Y-120450000D03*
%TD*%
D29*
%TO.C,SW1*%
X176000000Y-77250000D03*
X182500000Y-77250000D03*
X176000000Y-81750000D03*
X182500000Y-81750000D03*
%TD*%
D30*
%TO.C,C23*%
X201266509Y-108058833D03*
X201945331Y-108737655D03*
%TD*%
D19*
%TO.C,R16*%
X179198780Y-85011600D03*
X179198780Y-83991600D03*
%TD*%
D31*
%TO.C,C4*%
X177300000Y-87395000D03*
X177300000Y-85845000D03*
%TD*%
D20*
%TO.C,R15*%
X199515000Y-92000000D03*
X200535000Y-92000000D03*
%TD*%
D32*
%TO.C,C1*%
X197500000Y-116375000D03*
X197500000Y-117335000D03*
%TD*%
D33*
%TO.C,L1*%
X192500000Y-120725000D03*
X192500000Y-117675000D03*
%TD*%
D30*
%TO.C,C21*%
X196000000Y-96500000D03*
X196678822Y-97178822D03*
%TD*%
%TO.C,C19*%
X205321178Y-102821178D03*
X206000000Y-103500000D03*
%TD*%
D34*
%TO.C,R5*%
X197139376Y-109278752D03*
X197860624Y-110000000D03*
%TD*%
D35*
%TO.C,R1*%
X198154627Y-121500000D03*
X197134627Y-121500000D03*
%TD*%
D18*
%TO.C,R3*%
X198500000Y-118260000D03*
X198500000Y-119280000D03*
%TD*%
D19*
%TO.C,R6*%
X210450000Y-102790000D03*
X210450000Y-101770000D03*
%TD*%
D32*
%TO.C,C6*%
X196500000Y-116375000D03*
X196500000Y-117335000D03*
%TD*%
D27*
%TO.C,C12*%
X194047972Y-100749480D03*
X193369150Y-100070658D03*
%TD*%
D36*
%TO.C,UB1*%
X178700000Y-92950000D03*
D37*
X178700000Y-97950000D03*
%TD*%
D18*
%TO.C,R12*%
X210100000Y-92160000D03*
X210100000Y-93180000D03*
%TD*%
D38*
%TO.C,C17*%
X198456838Y-107789729D03*
X197778016Y-108468551D03*
%TD*%
D39*
%TO.C,J1*%
X179175000Y-118550000D03*
X179175000Y-117900000D03*
X179175000Y-117250000D03*
X179175000Y-116600000D03*
X179175000Y-115950000D03*
D40*
X176500000Y-113075000D03*
D41*
X176500000Y-113512500D03*
D42*
X179500000Y-115025000D03*
D43*
X176500000Y-117250000D03*
D42*
X179500000Y-119475000D03*
D41*
X176500000Y-120987500D03*
D40*
X176500000Y-121425000D03*
%TD*%
D26*
%TO.C,C15*%
X201635422Y-97746107D03*
X202314244Y-97067285D03*
%TD*%
D29*
%TO.C,SW4*%
X216000000Y-120750000D03*
X209500000Y-120750000D03*
X216000000Y-116250000D03*
X209500000Y-116250000D03*
%TD*%
D44*
%TO.C,Y1*%
X189550431Y-96199569D03*
X192449569Y-93300431D03*
%TD*%
D18*
%TO.C,R13*%
X205250000Y-92170000D03*
X205250000Y-93190000D03*
%TD*%
D38*
%TO.C,C14*%
X197595459Y-106854541D03*
X196916637Y-107533363D03*
%TD*%
D20*
%TO.C,R20*%
X203060000Y-89120130D03*
X204080000Y-89120130D03*
%TD*%
%TO.C,R19*%
X209290000Y-84050000D03*
X210310000Y-84050000D03*
%TD*%
D29*
%TO.C,SW2*%
X212500000Y-77000000D03*
X219000000Y-77000000D03*
X212500000Y-81500000D03*
X219000000Y-81500000D03*
%TD*%
D35*
%TO.C,R22*%
X204080000Y-90170130D03*
X203060000Y-90170130D03*
%TD*%
D34*
%TO.C,R4*%
X195237511Y-97217723D03*
X195958759Y-97938971D03*
%TD*%
D45*
%TO.C,R24*%
X194946766Y-100029263D03*
X194225518Y-99308015D03*
%TD*%
D46*
%TO.C,C8*%
X190797718Y-115936551D03*
X189247718Y-115936551D03*
%TD*%
D20*
%TO.C,R2*%
X197500000Y-120450000D03*
X198520000Y-120450000D03*
%TD*%
D24*
%TO.C,C5*%
X208514682Y-81494737D03*
X210064682Y-81494737D03*
%TD*%
D47*
%TO.C,U4*%
X203833250Y-101608939D03*
X203550408Y-101326096D03*
X203267565Y-101043253D03*
X202984722Y-100760410D03*
X202701880Y-100477568D03*
X202419037Y-100194725D03*
X202136194Y-99911882D03*
X201853351Y-99629040D03*
X201570509Y-99346197D03*
X201287666Y-99063354D03*
X201004823Y-98780511D03*
X200721981Y-98497669D03*
X200439138Y-98214826D03*
X200156295Y-97931983D03*
X199873452Y-97649141D03*
D48*
X198954214Y-97649141D03*
X198671371Y-97931983D03*
X198388528Y-98214826D03*
X198105685Y-98497669D03*
X197822843Y-98780511D03*
X197540000Y-99063354D03*
X197257157Y-99346197D03*
X196974315Y-99629040D03*
X196691472Y-99911882D03*
X196408629Y-100194725D03*
X196125786Y-100477568D03*
X195842944Y-100760410D03*
X195560101Y-101043253D03*
X195277258Y-101326096D03*
X194994416Y-101608939D03*
D47*
X194994416Y-102528177D03*
X195277258Y-102811020D03*
X195560101Y-103093863D03*
X195842944Y-103376706D03*
X196125786Y-103659548D03*
X196408629Y-103942391D03*
X196691472Y-104225234D03*
X196974315Y-104508076D03*
X197257157Y-104790919D03*
X197540000Y-105073762D03*
X197822843Y-105356605D03*
X198105685Y-105639447D03*
X198388528Y-105922290D03*
X198671371Y-106205133D03*
X198954214Y-106487975D03*
D48*
X199873452Y-106487975D03*
X200156295Y-106205133D03*
X200439138Y-105922290D03*
X200721981Y-105639447D03*
X201004823Y-105356605D03*
X201287666Y-105073762D03*
X201570509Y-104790919D03*
X201853351Y-104508076D03*
X202136194Y-104225234D03*
X202419037Y-103942391D03*
X202701880Y-103659548D03*
X202984722Y-103376706D03*
X203267565Y-103093863D03*
X203550408Y-102811020D03*
X203833250Y-102528177D03*
D49*
X199413833Y-102068558D03*
%TD*%
D24*
%TO.C,C9*%
X198842087Y-93415719D03*
X200392087Y-93415719D03*
%TD*%
D18*
%TO.C,R9*%
X210433004Y-99783651D03*
X210433004Y-100803651D03*
%TD*%
D38*
%TO.C,C20*%
X199500000Y-108500000D03*
X198821178Y-109178822D03*
%TD*%
D34*
%TO.C,R23*%
X204567618Y-103449609D03*
X205288866Y-104170857D03*
%TD*%
D20*
%TO.C,R26*%
X209295000Y-82850000D03*
X210315000Y-82850000D03*
%TD*%
D34*
%TO.C,R18*%
X201981322Y-105978522D03*
X202702570Y-106699770D03*
%TD*%
D22*
%TO.C,D1*%
X215650000Y-96750000D03*
X215650000Y-98325000D03*
%TD*%
D50*
%TO.C,C10*%
X202202135Y-93801000D03*
X203298151Y-94897016D03*
%TD*%
D25*
%TO.C,D7*%
X185490000Y-117750000D03*
X183390000Y-117750000D03*
%TD*%
D38*
%TO.C,C27*%
X196506568Y-105802980D03*
X195827746Y-106481802D03*
%TD*%
D51*
%TO.C,ENC1*%
X195000000Y-89200000D03*
D52*
X200000000Y-89200000D03*
X197500000Y-89200000D03*
D53*
X191900000Y-81700000D03*
X203100000Y-81700000D03*
%TD*%
D32*
%TO.C,C7*%
X195430000Y-116375000D03*
X195430000Y-117335000D03*
%TD*%
D30*
%TO.C,C16*%
X201280715Y-106686984D03*
X201959537Y-107365806D03*
%TD*%
D27*
%TO.C,C28*%
X195750520Y-99225754D03*
X195071698Y-98546932D03*
%TD*%
D26*
%TO.C,C26*%
X203447466Y-99228726D03*
X204126288Y-98549904D03*
%TD*%
D54*
%TO.C,U2*%
X195825000Y-118450000D03*
X195825000Y-118950000D03*
X195825000Y-119450000D03*
X197250000Y-119450000D03*
X197250000Y-118950000D03*
X197250000Y-118450000D03*
%TD*%
D19*
%TO.C,R25*%
X180357867Y-85009692D03*
X180357867Y-83989692D03*
%TD*%
D26*
%TO.C,C18*%
X205321178Y-105514375D03*
X206000000Y-104835553D03*
%TD*%
D19*
%TO.C,R10*%
X205236632Y-95162901D03*
X205236632Y-94142901D03*
%TD*%
D34*
%TO.C,R27*%
X203261985Y-93012215D03*
X203983233Y-93733463D03*
%TD*%
D16*
%TO.C,J2*%
X219500000Y-115460000D03*
D15*
X219500000Y-118000000D03*
X219500000Y-120540000D03*
%TD*%
D55*
%TO.C,C25*%
X207000000Y-116112979D03*
X207000000Y-115152979D03*
%TD*%
D16*
%TO.C,BATT_USB_JMP1*%
X180250000Y-106750000D03*
D15*
X177710000Y-106750000D03*
X175170000Y-106750000D03*
%TD*%
D29*
%TO.C,SW3*%
X216250000Y-111250000D03*
X209750000Y-111250000D03*
X216250000Y-106750000D03*
X209750000Y-106750000D03*
%TD*%
D17*
%TO.C,Q1*%
X211600000Y-94350000D03*
X213500000Y-94350000D03*
X212550000Y-92075000D03*
%TD*%
D35*
%TO.C,R28*%
X203142901Y-91134654D03*
X202122901Y-91134654D03*
%TD*%
D32*
%TO.C,C24*%
X207000000Y-113240000D03*
X207000000Y-114200000D03*
%TD*%
D25*
%TO.C,D5*%
X185490000Y-113750000D03*
X183390000Y-113750000D03*
%TD*%
D34*
%TO.C,R17*%
X202694069Y-105268166D03*
X203415317Y-105989414D03*
%TD*%
D22*
%TO.C,D4*%
X209050000Y-96812500D03*
X209050000Y-98387500D03*
%TD*%
D38*
%TO.C,C22*%
X195149934Y-95964762D03*
X194471112Y-96643584D03*
%TD*%
D56*
%TO.C,L2*%
X201750000Y-115250000D03*
X204800000Y-115250000D03*
%TD*%
%LPD*%
M02*
